<svg width="85" height="60" viewBox="0 0 85 60" fill="none" xmlns="http://www.w3.org/2000/svg">
<path d="M11.5921 22.0283V6.76487C11.5921 4.91218 13.1048 3.39943 14.9575 3.39943H18.085C19.0198 3.39943 19.7847 2.63456 19.7847 1.69972C19.7847 0.764872 19.0198 0 18.085 0H14.9575C11.2351 0 8.19263 3.04249 8.19263 6.76487V22.0283C8.19263 25.4788 5.3711 28.3003 1.92068 28.3003H1.69972C0.764872 28.3003 0 29.0652 0 30C0 30.9348 0.764872 31.6997 1.69972 31.6997H1.92068C5.3881 31.6997 8.19263 34.5212 8.19263 37.9717V53.2351C8.19263 56.9575 11.2351 60 14.9575 60H18.085C19.0198 60 19.7847 59.2351 19.7847 58.3003C19.7847 57.3654 19.0198 56.6006 18.085 56.6006H14.9575C13.1048 56.6006 11.5921 55.0878 11.5921 53.2351V37.9717C11.5921 34.6742 9.92635 31.7507 7.39377 30C9.92635 28.2493 11.5921 25.3258 11.5921 22.0283Z" fill="#3564DF"/>
<path d="M83.2862 28.3003H83.0652C79.5978 28.3003 76.7932 25.4788 76.7932 22.0283V6.76487C76.7932 3.04249 73.7507 0 70.0284 0H66.9009C65.966 0 65.2012 0.764872 65.2012 1.69972C65.2012 2.63456 65.966 3.39943 66.9009 3.39943H70.0284C71.8811 3.39943 73.3938 4.91218 73.3938 6.76487V22.0283C73.3938 25.3258 75.0595 28.2493 77.5921 30C75.0595 31.7507 73.3938 34.6742 73.3938 37.9717V53.2351C73.3938 55.0878 71.8811 56.6006 70.0284 56.6006H66.9009C65.966 56.6006 65.2012 57.3654 65.2012 58.3003C65.2012 59.2351 65.966 60 66.9009 60H70.0284C73.7507 60 76.7932 56.9575 76.7932 53.2351V37.9717C76.7932 34.5212 79.6148 31.6997 83.0652 31.6997H83.2862C84.221 31.6997 84.9859 30.9348 84.9859 30C84.9859 29.0652 84.221 28.3003 83.2862 28.3003Z" fill="#3564DF"/>
<path d="M36.6118 23.6953H40.9291C41.8809 23.6953 42.6288 24.4432 42.6288 25.395C42.6288 26.3299 41.8809 27.0947 40.9291 27.0947H36.6118C35.677 27.0947 34.9121 26.3299 34.9121 25.395C34.9121 24.4432 35.677 23.6953 36.6118 23.6953Z" fill="#11296A"/>
<path d="M63.1614 36.356C63.1614 37.3078 62.3966 38.0557 61.4617 38.0557H55.1558C54.2039 38.0557 53.4561 37.3078 53.4561 36.356C53.4561 35.4211 54.2039 34.6562 55.1558 34.6562H61.4617C62.3966 34.6562 63.1614 35.4211 63.1614 36.356Z" fill="#11296A"/>
<path d="M24.9347 24.1876L31.3596 17.7796L24.9347 11.3717C24.2718 10.6918 24.2718 9.62099 24.9347 8.9581C25.5976 8.29522 26.6854 8.29522 27.3483 8.9581L34.963 16.5728C35.2689 16.8958 35.4559 17.3207 35.4559 17.7796C35.4559 18.2216 35.2689 18.6635 34.963 18.9694L27.3483 26.5842C27.0083 26.9241 26.5834 27.0941 26.1415 27.0941C25.6995 27.0941 25.2746 26.9241 24.9347 26.5842C24.2718 25.9213 24.2718 24.8505 24.9347 24.1876Z" fill="#11296A"/>
<path d="M21.8418 36.356C21.8418 35.4211 22.6067 34.6562 23.5415 34.6562H47.6605C48.5953 34.6562 49.3602 35.4211 49.3602 36.356C49.3602 37.3078 48.5953 38.0557 47.6605 38.0557H23.5415C22.6067 38.0557 21.8418 37.3078 21.8418 36.356Z" fill="#11296A"/>
<path d="M44.9912 25.395C44.9912 24.4432 45.7391 23.6953 46.6909 23.6953H61.4615C62.3963 23.6953 63.1612 24.4432 63.1612 25.395C63.1612 26.3299 62.3963 27.0947 61.4615 27.0947H46.6909C45.7391 27.0947 44.9912 26.3299 44.9912 25.395Z" fill="#11296A"/>
<path d="M32.771 49.8521C32.771 50.7869 32.0061 51.5518 31.0713 51.5518H23.5415C22.6067 51.5518 21.8418 50.7869 21.8418 49.8521C21.8418 48.9172 22.6067 48.1523 23.5415 48.1523H31.0713C32.0061 48.1523 32.771 48.9172 32.771 49.8521Z" fill="#11296A"/>
<path d="M63.161 49.8521C63.161 50.7869 62.3962 51.5518 61.4613 51.5518H39.229C38.2942 51.5518 37.5293 50.7869 37.5293 49.8521C37.5293 48.9172 38.2942 48.1523 39.229 48.1523H61.4613C62.3962 48.1523 63.161 48.9172 63.161 49.8521Z" fill="#11296A"/>
</svg>
