<svg width="66" height="59" viewBox="0 0 66 59" fill="none" xmlns="http://www.w3.org/2000/svg">
<path d="M62.0859 3.01035H3.91268V10.6679H62.0859V3.01035ZM55.682 8.09965C54.8509 8.09965 54.1769 7.42566 54.1769 6.59447C54.1769 5.76328 54.8509 5.0893 55.682 5.0893H58.6256C59.4568 5.0893 60.1308 5.76328 60.1308 6.59447C60.1308 7.42566 59.4568 8.09965 58.6256 8.09965H55.682ZM33.4306 26.3229C33.6055 25.5113 34.4052 24.9965 35.2168 25.1714C36.0283 25.3463 36.5431 26.146 36.3683 26.9576L32.568 44.3692C32.3931 45.1808 31.5934 45.6956 30.7818 45.5207C29.9703 45.3458 29.4555 44.5461 29.6303 43.7346L33.4306 26.3248V26.3229ZM40.9565 27.7632C40.3355 27.215 40.2786 26.2678 40.8268 25.6489C41.375 25.0279 42.3221 24.971 42.9411 25.5192L52.8112 34.224C53.4321 34.7723 53.4891 35.7194 52.9409 36.3403C52.8957 36.3914 52.8485 36.4386 52.7994 36.4818L42.9431 45.1749C42.3241 45.7231 41.377 45.6661 40.8288 45.0452C40.2805 44.4262 40.3375 43.4791 40.9584 42.9309L49.5552 35.348L40.9584 27.7652L40.9565 27.7632ZM23.0555 25.5172C23.6745 24.969 24.6216 25.026 25.1698 25.6469C25.7181 26.2659 25.6611 27.213 25.0401 27.7612L16.4434 35.3441L25.0401 42.9269C25.6611 43.4752 25.7181 44.4223 25.1698 45.0413C24.6216 45.6602 23.6745 45.7192 23.0555 45.171L13.1992 36.4779C13.1481 36.4347 13.1009 36.3875 13.0557 36.3364C12.5075 35.7155 12.5645 34.7683 13.1854 34.2201L23.0555 25.5153V25.5172ZM3.91268 13.6763V55.1747H62.0859V13.6763H3.91268ZM2.40947 0H63.5891C64.4203 0 65.0943 0.673988 65.0943 1.50517V12.1711V56.6779C65.0943 57.5091 64.4203 58.183 63.5891 58.183H2.40947C1.57828 58.183 0.904297 57.5091 0.904297 56.6779V12.1711V1.50517C0.904297 0.673988 1.57828 0 2.40947 0Z" fill="#3564DF"/>
<rect x="4.32617" y="13.6904" width="57.3274" height="41.0704" fill="white"/>
<path d="M43.8779 25.8112C43.2356 25.1775 42.1981 25.1775 41.5559 25.8112C40.9137 26.4448 40.9137 27.4684 41.5559 28.1021L48.0113 34.4712L41.5559 40.8403C40.9137 41.474 40.9137 42.4976 41.5559 43.1312C41.8853 43.4562 42.297 43.6024 42.7251 43.6024C43.1533 43.6024 43.565 43.4399 43.8943 43.1312L51.5189 35.6086C52.1612 34.9749 52.1612 33.9513 51.5189 33.3176L43.8779 25.8112Z" fill="#3564DF"/>
<path d="M25.022 25.8112C24.3798 25.1775 23.3423 25.1775 22.7 25.8112L15.0754 33.3339C14.4332 33.9675 14.4332 34.9911 15.0754 35.6248L22.7 43.1475C23.0294 43.4724 23.4411 43.6187 23.8693 43.6187C24.2974 43.6187 24.7091 43.4562 25.0385 43.1475C25.6807 42.5138 25.6807 41.4902 25.0385 40.8566L18.5666 34.4712L25.022 28.1021C25.6642 27.4684 25.6642 26.4448 25.022 25.8112Z" fill="#3564DF"/>
<path d="M37.3886 22.334C36.5158 22.0416 35.5936 22.5128 35.3137 23.3576L28.1502 44.5772C27.8702 45.422 28.3313 46.3482 29.1877 46.6406C29.3688 46.7056 29.5335 46.7218 29.7146 46.7218C30.4063 46.7218 31.0485 46.2832 31.2791 45.617L38.4426 24.3975C38.7225 23.5364 38.2614 22.6102 37.3886 22.334Z" fill="#3564DF"/>
</svg>
