<svg width="285" height="300" viewBox="0 0 285 300" fill="none" xmlns="http://www.w3.org/2000/svg">
<rect width="285" height="300" rx="10" transform="matrix(1 0 0 -1 0 300)" fill="url(#paint0_linear_2225_3836)"/>
<mask id="mask0_2225_3836" style="mask-type:alpha" maskUnits="userSpaceOnUse" x="0" y="0" width="285" height="300">
<rect width="285" height="300" rx="10" transform="matrix(1 0 0 -1 0 300)" fill="url(#paint1_linear_2225_3836)"/>
</mask>
<g mask="url(#mask0_2225_3836)">
<rect x="338.605" y="-128" width="58.3621" height="344.727" rx="29.1811" transform="rotate(43.8011 338.605 -128)" fill="url(#paint2_linear_2225_3836)" fill-opacity="0.24"/>
<rect x="436.605" y="-128" width="58.3621" height="344.727" rx="29.1811" transform="rotate(43.8011 436.605 -128)" fill="url(#paint3_linear_2225_3836)" fill-opacity="0.24"/>
</g>
<path d="M24.54 235V220.1H26.9V235H24.54ZM29.7692 235V224.18H31.9292V226.3L31.6692 226.02C31.9359 225.34 32.3626 224.827 32.9492 224.48C33.5359 224.12 34.2159 223.94 34.9892 223.94C35.7892 223.94 36.4959 224.113 37.1092 224.46C37.7226 224.807 38.2026 225.287 38.5492 225.9C38.8959 226.513 39.0692 227.22 39.0692 228.02V235H36.8292V228.62C36.8292 228.073 36.7292 227.613 36.5292 227.24C36.3292 226.853 36.0426 226.56 35.6692 226.36C35.3092 226.147 34.8959 226.04 34.4292 226.04C33.9626 226.04 33.5426 226.147 33.1692 226.36C32.8092 226.56 32.5292 226.853 32.3292 227.24C32.1292 227.627 32.0292 228.087 32.0292 228.62V235H29.7692ZM46.628 235.24C45.548 235.24 44.588 234.993 43.748 234.5C42.9213 233.993 42.2613 233.313 41.768 232.46C41.288 231.607 41.048 230.64 41.048 229.56C41.048 228.493 41.288 227.533 41.768 226.68C42.248 225.827 42.908 225.16 43.748 224.68C44.588 224.187 45.548 223.94 46.628 223.94C47.3613 223.94 48.048 224.073 48.688 224.34C49.328 224.593 49.8813 224.947 50.348 225.4C50.828 225.853 51.1813 226.38 51.408 226.98L49.428 227.9C49.2013 227.34 48.8346 226.893 48.328 226.56C47.8346 226.213 47.268 226.04 46.628 226.04C46.0146 226.04 45.4613 226.193 44.968 226.5C44.488 226.793 44.108 227.213 43.828 227.76C43.548 228.293 43.408 228.9 43.408 229.58C43.408 230.26 43.548 230.873 43.828 231.42C44.108 231.953 44.488 232.373 44.968 232.68C45.4613 232.987 46.0146 233.14 46.628 233.14C47.2813 233.14 47.848 232.973 48.328 232.64C48.8213 232.293 49.188 231.833 49.428 231.26L51.408 232.2C51.1946 232.773 50.848 233.293 50.368 233.76C49.9013 234.213 49.348 234.573 48.708 234.84C48.068 235.107 47.3746 235.24 46.628 235.24ZM53.6169 235V224.18H55.7769V226.36L55.5769 226.04C55.8169 225.333 56.2035 224.827 56.7369 224.52C57.2702 224.2 57.9102 224.04 58.6569 224.04H59.3169V226.1H58.3769C57.6302 226.1 57.0235 226.333 56.5569 226.8C56.1035 227.253 55.8769 227.907 55.8769 228.76V235H53.6169ZM65.943 235.24C64.863 235.24 63.903 234.993 63.063 234.5C62.2363 233.993 61.5896 233.313 61.123 232.46C60.6563 231.593 60.423 230.627 60.423 229.56C60.423 228.467 60.6563 227.5 61.123 226.66C61.603 225.82 62.243 225.16 63.043 224.68C63.843 224.187 64.7496 223.94 65.763 223.94C66.5763 223.94 67.303 224.08 67.943 224.36C68.583 224.64 69.123 225.027 69.563 225.52C70.003 226 70.3363 226.553 70.563 227.18C70.803 227.807 70.923 228.473 70.923 229.18C70.923 229.353 70.9163 229.533 70.903 229.72C70.8896 229.907 70.863 230.08 70.823 230.24H62.203V228.44H69.543L68.463 229.26C68.5963 228.607 68.5496 228.027 68.323 227.52C68.1096 227 67.7763 226.593 67.323 226.3C66.883 225.993 66.363 225.84 65.763 225.84C65.163 225.84 64.6296 225.993 64.163 226.3C63.6963 226.593 63.3363 227.02 63.083 227.58C62.8296 228.127 62.7296 228.793 62.783 229.58C62.7163 230.313 62.8163 230.953 63.083 231.5C63.363 232.047 63.7496 232.473 64.243 232.78C64.7496 233.087 65.323 233.24 65.963 233.24C66.6163 233.24 67.1696 233.093 67.623 232.8C68.0896 232.507 68.4563 232.127 68.723 231.66L70.563 232.56C70.3496 233.067 70.0163 233.527 69.563 233.94C69.123 234.34 68.5896 234.66 67.963 234.9C67.3496 235.127 66.6763 235.24 65.943 235.24ZM76.2709 235.24C75.5376 235.24 74.8909 235.113 74.3309 234.86C73.7843 234.593 73.3576 234.233 73.0509 233.78C72.7443 233.313 72.5909 232.767 72.5909 232.14C72.5909 231.553 72.7176 231.027 72.9709 230.56C73.2376 230.093 73.6443 229.7 74.1909 229.38C74.7376 229.06 75.4243 228.833 76.2509 228.7L80.0109 228.08V229.86L76.6909 230.44C76.0909 230.547 75.6509 230.74 75.3709 231.02C75.0909 231.287 74.9509 231.633 74.9509 232.06C74.9509 232.473 75.1043 232.813 75.4109 233.08C75.7309 233.333 76.1376 233.46 76.6309 233.46C77.2443 233.46 77.7776 233.327 78.2309 233.06C78.6976 232.793 79.0576 232.44 79.3109 232C79.5643 231.547 79.6909 231.047 79.6909 230.5V227.72C79.6909 227.187 79.4909 226.753 79.0909 226.42C78.7043 226.073 78.1843 225.9 77.5309 225.9C76.9309 225.9 76.4043 226.06 75.9509 226.38C75.5109 226.687 75.1843 227.087 74.9709 227.58L73.0909 226.64C73.2909 226.107 73.6176 225.64 74.0709 225.24C74.5243 224.827 75.0509 224.507 75.6509 224.28C76.2643 224.053 76.9109 223.94 77.5909 223.94C78.4443 223.94 79.1976 224.1 79.8509 224.42C80.5176 224.74 81.0309 225.187 81.3909 225.76C81.7643 226.32 81.9509 226.973 81.9509 227.72V235H79.7909V233.04L80.2509 233.1C79.9976 233.54 79.6709 233.92 79.2709 234.24C78.8843 234.56 78.4376 234.807 77.9309 234.98C77.4376 235.153 76.8843 235.24 76.2709 235.24ZM88.5934 235.24C87.4868 235.24 86.5134 234.967 85.6734 234.42C84.8468 233.873 84.2668 233.14 83.9334 232.22L85.6734 231.4C85.9668 232.013 86.3668 232.5 86.8734 232.86C87.3934 233.22 87.9668 233.4 88.5934 233.4C89.1268 233.4 89.5601 233.28 89.8934 233.04C90.2268 232.8 90.3934 232.473 90.3934 232.06C90.3934 231.793 90.3201 231.58 90.1734 231.42C90.0268 231.247 89.8401 231.107 89.6134 231C89.4001 230.893 89.1801 230.813 88.9534 230.76L87.2534 230.28C86.3201 230.013 85.6201 229.613 85.1534 229.08C84.7001 228.533 84.4734 227.9 84.4734 227.18C84.4734 226.527 84.6401 225.96 84.9734 225.48C85.3068 224.987 85.7668 224.607 86.3534 224.34C86.9401 224.073 87.6001 223.94 88.3334 223.94C89.3201 223.94 90.2001 224.187 90.9734 224.68C91.7468 225.16 92.2934 225.833 92.6134 226.7L90.8734 227.52C90.6601 227 90.3201 226.587 89.8534 226.28C89.4001 225.973 88.8868 225.82 88.3134 225.82C87.8201 225.82 87.4268 225.94 87.1334 226.18C86.8401 226.407 86.6934 226.707 86.6934 227.08C86.6934 227.333 86.7601 227.547 86.8934 227.72C87.0268 227.88 87.2001 228.013 87.4134 228.12C87.6268 228.213 87.8468 228.293 88.0734 228.36L89.8334 228.88C90.7268 229.133 91.4134 229.533 91.8934 230.08C92.3734 230.613 92.6134 231.253 92.6134 232C92.6134 232.64 92.4401 233.207 92.0934 233.7C91.7601 234.18 91.2934 234.56 90.6934 234.84C90.0934 235.107 89.3934 235.24 88.5934 235.24ZM99.9078 235.24C98.8278 235.24 97.8678 234.993 97.0278 234.5C96.2011 233.993 95.5545 233.313 95.0878 232.46C94.6211 231.593 94.3878 230.627 94.3878 229.56C94.3878 228.467 94.6211 227.5 95.0878 226.66C95.5678 225.82 96.2078 225.16 97.0078 224.68C97.8078 224.187 98.7145 223.94 99.7278 223.94C100.541 223.94 101.268 224.08 101.908 224.36C102.548 224.64 103.088 225.027 103.528 225.52C103.968 226 104.301 226.553 104.528 227.18C104.768 227.807 104.888 228.473 104.888 229.18C104.888 229.353 104.881 229.533 104.868 229.72C104.854 229.907 104.828 230.08 104.788 230.24H96.1678V228.44H103.508L102.428 229.26C102.561 228.607 102.514 228.027 102.288 227.52C102.074 227 101.741 226.593 101.288 226.3C100.848 225.993 100.328 225.84 99.7278 225.84C99.1278 225.84 98.5945 225.993 98.1278 226.3C97.6611 226.593 97.3011 227.02 97.0478 227.58C96.7945 228.127 96.6945 228.793 96.7478 229.58C96.6811 230.313 96.7811 230.953 97.0478 231.5C97.3278 232.047 97.7145 232.473 98.2078 232.78C98.7145 233.087 99.2878 233.24 99.9278 233.24C100.581 233.24 101.134 233.093 101.588 232.8C102.054 232.507 102.421 232.127 102.688 231.66L104.528 232.56C104.314 233.067 103.981 233.527 103.528 233.94C103.088 234.34 102.554 234.66 101.928 234.9C101.314 235.127 100.641 235.24 99.9078 235.24ZM112.093 235.24C111.053 235.24 110.12 234.993 109.293 234.5C108.48 233.993 107.833 233.313 107.353 232.46C106.887 231.607 106.653 230.647 106.653 229.58C106.653 228.513 106.893 227.553 107.373 226.7C107.853 225.847 108.5 225.173 109.313 224.68C110.127 224.187 111.047 223.94 112.073 223.94C112.94 223.94 113.707 224.113 114.373 224.46C115.04 224.807 115.567 225.287 115.953 225.9L115.613 226.42V219.86H117.853V235H115.713V232.8L115.973 233.22C115.6 233.873 115.067 234.373 114.373 234.72C113.68 235.067 112.92 235.24 112.093 235.24ZM112.313 233.14C112.94 233.14 113.5 232.987 113.993 232.68C114.5 232.373 114.893 231.953 115.173 231.42C115.467 230.873 115.613 230.26 115.613 229.58C115.613 228.9 115.467 228.293 115.173 227.76C114.893 227.227 114.5 226.807 113.993 226.5C113.5 226.193 112.94 226.04 112.313 226.04C111.687 226.04 111.12 226.193 110.613 226.5C110.107 226.807 109.713 227.227 109.433 227.76C109.153 228.293 109.013 228.9 109.013 229.58C109.013 230.26 109.153 230.873 109.433 231.42C109.713 231.953 110.1 232.373 110.593 232.68C111.1 232.987 111.673 233.14 112.313 233.14ZM124.208 235V220.1H129.628C130.628 220.1 131.508 220.287 132.268 220.66C133.041 221.02 133.641 221.553 134.068 222.26C134.495 222.953 134.708 223.787 134.708 224.76C134.708 225.72 134.488 226.547 134.048 227.24C133.621 227.933 133.028 228.467 132.268 228.84C131.508 229.213 130.628 229.4 129.628 229.4H126.568V235H124.208ZM126.568 227.3H129.688C130.221 227.3 130.688 227.193 131.088 226.98C131.488 226.767 131.801 226.473 132.028 226.1C132.255 225.713 132.368 225.26 132.368 224.74C132.368 224.22 132.255 223.773 132.028 223.4C131.801 223.013 131.488 222.72 131.088 222.52C130.688 222.307 130.221 222.2 129.688 222.2H126.568V227.3ZM136.918 235V224.18H139.078V226.36L138.878 226.04C139.118 225.333 139.504 224.827 140.038 224.52C140.571 224.2 141.211 224.04 141.958 224.04H142.618V226.1H141.678C140.931 226.1 140.324 226.333 139.858 226.8C139.404 227.253 139.178 227.907 139.178 228.76V235H136.918ZM149.384 235.24C148.344 235.24 147.39 234.993 146.524 234.5C145.67 234.007 144.99 233.333 144.484 232.48C143.977 231.627 143.724 230.66 143.724 229.58C143.724 228.487 143.977 227.52 144.484 226.68C144.99 225.827 145.67 225.16 146.524 224.68C147.377 224.187 148.33 223.94 149.384 223.94C150.45 223.94 151.404 224.187 152.244 224.68C153.097 225.16 153.77 225.827 154.264 226.68C154.77 227.52 155.024 228.487 155.024 229.58C155.024 230.673 154.77 231.647 154.264 232.5C153.757 233.353 153.077 234.027 152.224 234.52C151.37 235 150.424 235.24 149.384 235.24ZM149.384 233.14C150.024 233.14 150.59 232.987 151.084 232.68C151.577 232.373 151.964 231.953 152.244 231.42C152.537 230.873 152.684 230.26 152.684 229.58C152.684 228.9 152.537 228.293 152.244 227.76C151.964 227.227 151.577 226.807 151.084 226.5C150.59 226.193 150.024 226.04 149.384 226.04C148.757 226.04 148.19 226.193 147.684 226.5C147.19 226.807 146.797 227.227 146.504 227.76C146.224 228.293 146.084 228.9 146.084 229.58C146.084 230.26 146.224 230.873 146.504 231.42C146.797 231.953 147.19 232.373 147.684 232.68C148.19 232.987 148.757 233.14 149.384 233.14ZM162.23 235.24C161.19 235.24 160.257 234.993 159.43 234.5C158.617 233.993 157.97 233.313 157.49 232.46C157.023 231.607 156.79 230.647 156.79 229.58C156.79 228.513 157.03 227.553 157.51 226.7C157.99 225.847 158.637 225.173 159.45 224.68C160.263 224.187 161.183 223.94 162.21 223.94C163.077 223.94 163.843 224.113 164.51 224.46C165.177 224.807 165.703 225.287 166.09 225.9L165.75 226.42V219.86H167.99V235H165.85V232.8L166.11 233.22C165.737 233.873 165.203 234.373 164.51 234.72C163.817 235.067 163.057 235.24 162.23 235.24ZM162.45 233.14C163.077 233.14 163.637 232.987 164.13 232.68C164.637 232.373 165.03 231.953 165.31 231.42C165.603 230.873 165.75 230.26 165.75 229.58C165.75 228.9 165.603 228.293 165.31 227.76C165.03 227.227 164.637 226.807 164.13 226.5C163.637 226.193 163.077 226.04 162.45 226.04C161.823 226.04 161.257 226.193 160.75 226.5C160.243 226.807 159.85 227.227 159.57 227.76C159.29 228.293 159.15 228.9 159.15 229.58C159.15 230.26 159.29 230.873 159.57 231.42C159.85 231.953 160.237 232.373 160.73 232.68C161.237 232.987 161.81 233.14 162.45 233.14ZM174.489 235.24C173.675 235.24 172.962 235.06 172.349 234.7C171.735 234.327 171.255 233.813 170.909 233.16C170.575 232.493 170.409 231.727 170.409 230.86V224.18H172.669V230.66C172.669 231.153 172.769 231.587 172.969 231.96C173.169 232.333 173.449 232.627 173.809 232.84C174.169 233.04 174.582 233.14 175.049 233.14C175.529 233.14 175.949 233.033 176.309 232.82C176.669 232.607 176.949 232.307 177.149 231.92C177.362 231.533 177.469 231.08 177.469 230.56V224.18H179.709V235H177.569V232.88L177.809 233.16C177.555 233.827 177.135 234.34 176.549 234.7C175.962 235.06 175.275 235.24 174.489 235.24ZM187.487 235.24C186.407 235.24 185.447 234.993 184.607 234.5C183.781 233.993 183.121 233.313 182.627 232.46C182.147 231.607 181.907 230.64 181.907 229.56C181.907 228.493 182.147 227.533 182.627 226.68C183.107 225.827 183.767 225.16 184.607 224.68C185.447 224.187 186.407 223.94 187.487 223.94C188.221 223.94 188.907 224.073 189.547 224.34C190.187 224.593 190.741 224.947 191.207 225.4C191.687 225.853 192.041 226.38 192.267 226.98L190.287 227.9C190.061 227.34 189.694 226.893 189.187 226.56C188.694 226.213 188.127 226.04 187.487 226.04C186.874 226.04 186.321 226.193 185.827 226.5C185.347 226.793 184.967 227.213 184.687 227.76C184.407 228.293 184.267 228.9 184.267 229.58C184.267 230.26 184.407 230.873 184.687 231.42C184.967 231.953 185.347 232.373 185.827 232.68C186.321 232.987 186.874 233.14 187.487 233.14C188.141 233.14 188.707 232.973 189.187 232.64C189.681 232.293 190.047 231.833 190.287 231.26L192.267 232.2C192.054 232.773 191.707 233.293 191.227 233.76C190.761 234.213 190.207 234.573 189.567 234.84C188.927 235.107 188.234 235.24 187.487 235.24ZM199.156 235.12C198.023 235.12 197.143 234.8 196.516 234.16C195.89 233.52 195.576 232.62 195.576 231.46V226.22H193.676V224.18H193.976C194.483 224.18 194.876 224.033 195.156 223.74C195.436 223.447 195.576 223.047 195.576 222.54V221.7H197.836V224.18H200.296V226.22H197.836V231.36C197.836 231.733 197.896 232.053 198.016 232.32C198.136 232.573 198.33 232.773 198.596 232.92C198.863 233.053 199.21 233.12 199.636 233.12C199.743 233.12 199.863 233.113 199.996 233.1C200.13 233.087 200.256 233.073 200.376 233.06V235C200.19 235.027 199.983 235.053 199.756 235.08C199.53 235.107 199.33 235.12 199.156 235.12ZM202.582 235V224.18H204.842V235H202.582ZM202.582 222.7V220.1H204.842V222.7H202.582ZM210.624 235L206.384 224.18H208.844L212.104 233H211.204L214.464 224.18H216.944L212.684 235H210.624ZM218.48 235V224.18H220.74V235H218.48ZM218.48 222.7V220.1H220.74V222.7H218.48ZM228.063 235.12C226.929 235.12 226.049 234.8 225.423 234.16C224.796 233.52 224.483 232.62 224.483 231.46V226.22H222.583V224.18H222.883C223.389 224.18 223.783 224.033 224.063 223.74C224.343 223.447 224.483 223.047 224.483 222.54V221.7H226.743V224.18H229.203V226.22H226.743V231.36C226.743 231.733 226.803 232.053 226.923 232.32C227.043 232.573 227.236 232.773 227.503 232.92C227.769 233.053 228.116 233.12 228.543 233.12C228.649 233.12 228.769 233.113 228.903 233.1C229.036 233.087 229.163 233.073 229.283 233.06V235C229.096 235.027 228.889 235.053 228.663 235.08C228.436 235.107 228.236 235.12 228.063 235.12ZM232.448 239.4C232.181 239.4 231.915 239.373 231.648 239.32C231.395 239.28 231.161 239.213 230.948 239.12V237.18C231.108 237.22 231.301 237.253 231.528 237.28C231.755 237.32 231.975 237.34 232.188 237.34C232.815 237.34 233.275 237.2 233.568 236.92C233.875 236.653 234.148 236.24 234.388 235.68L235.108 234.04L235.068 235.94L230.388 224.18H232.808L236.268 233.2H235.448L238.888 224.18H241.328L236.548 236.18C236.295 236.82 235.975 237.38 235.588 237.86C235.215 238.353 234.768 238.733 234.248 239C233.741 239.267 233.141 239.4 232.448 239.4Z" fill="white"/>
<g clip-path="url(#clip0_2225_3836)">
<path fill-rule="evenodd" clip-rule="evenodd" d="M79.1813 58.0521C79.1813 57.4299 78.6695 56.9248 78.0389 56.9248H67.4852C66.8546 56.9248 66.3428 57.4299 66.3428 58.0521V68.4661C66.3428 69.0883 66.8546 69.5934 67.4852 69.5934H78.0389C78.6695 69.5934 79.1813 69.0883 79.1813 68.4661V58.0521ZM76.8965 59.1794V67.3388H68.6276V59.1794H76.8965Z" fill="white"/>
<path fill-rule="evenodd" clip-rule="evenodd" d="M60.7116 76.2757C60.7116 75.6535 60.1998 75.1484 59.5692 75.1484H49.0155C48.3849 75.1484 47.873 75.6535 47.873 76.2757V86.6897C47.873 87.3119 48.3849 87.817 49.0155 87.817H59.5692C60.1998 87.817 60.7116 87.3119 60.7116 86.6897V76.2757ZM58.4267 77.4031V85.5624H50.1579V77.4031H58.4267Z" fill="white"/>
<path fill-rule="evenodd" clip-rule="evenodd" d="M60.7132 61.215L63.1086 58.849C63.5566 58.4092 63.5566 57.6942 63.1086 57.2544C62.6629 56.8146 61.9406 56.8146 61.4926 57.2544L60.7109 58.0258C60.6972 57.4145 60.1921 56.9229 59.5704 56.9229H49.0149C48.3841 56.9229 47.8721 57.4281 47.8721 58.0506V68.4662C47.8721 69.0887 48.3841 69.594 49.0149 69.594H59.5704C60.2012 69.594 60.7132 69.0887 60.7132 68.4662V61.215ZM58.4275 60.2812V59.1783H50.1578V67.3385H58.4275V63.4704L55.6481 66.213C55.2001 66.6529 54.4778 66.6529 54.0321 66.213L52.1646 64.3726C51.7189 63.9328 51.7189 63.2178 52.1646 62.778C52.6104 62.3359 53.3349 62.3359 53.7806 62.778L54.8389 63.82L58.4275 60.2812Z" fill="white"/>
<path fill-rule="evenodd" clip-rule="evenodd" d="M73.104 93.0234C75.6869 97.0539 80.2446 99.7333 85.4286 99.7333C93.4697 99.7333 100 93.2895 100 85.3548C100 79.3847 96.3063 74.2625 91.0537 72.0883V47.3776C91.0537 46.4551 90.6811 45.571 90.0137 44.9191C89.3486 44.2718 88.4503 43.9064 87.5131 43.9064H80.5006V41.1277C80.5006 40.5052 79.9886 40 79.3577 40C78.7269 40 78.2149 40.5052 78.2149 41.1277V43.9064H64.6697V41.1277C64.6697 40.5052 64.1577 40 63.5269 40C62.896 40 62.384 40.5052 62.384 41.1277V43.9064H48.8389V41.1277C48.8389 40.5052 48.3269 40 47.696 40C47.0651 40 46.5531 40.5052 46.5531 41.1277V43.9064H39.5406C38.6034 43.9064 37.7051 44.2718 37.0423 44.9191C36.3749 45.571 36 46.4551 36 47.3776V89.5545C36 90.4747 36.3749 91.3588 37.0423 92.0107C37.7051 92.6602 38.6034 93.0234 39.5406 93.0234H73.104ZM85.4286 73.2318C92.2103 73.2318 97.7143 78.6629 97.7143 85.3548C97.7143 92.0445 92.2103 97.4779 85.4286 97.4779C78.6491 97.4779 73.1429 92.0445 73.1429 85.3548C73.1429 78.6629 78.6491 73.2318 85.4286 73.2318ZM75.168 75.1489C77.8034 72.5687 81.4286 70.9763 85.4286 70.9763C86.5783 70.9763 87.696 71.1072 88.768 71.3553V53.9725H38.2857V89.5545C38.2857 89.8748 38.416 90.1815 38.6491 90.4093C38.8869 90.6394 39.2069 90.7679 39.5406 90.7679H71.9269C71.5406 89.8297 71.2503 88.8418 71.0697 87.8178H67.4857C66.8526 87.8178 66.3429 87.3126 66.3429 86.6901V76.2767C66.3429 75.6519 66.8526 75.1489 67.4857 75.1489H75.168ZM83.5817 78.8366V87.1163C83.5817 87.7411 84.0937 88.2441 84.7246 88.2441H91.4377C92.0686 88.2441 92.5806 87.7388 92.5806 87.1163C92.5806 86.4938 92.0686 85.9886 91.4377 85.9886H85.8674V78.8366C85.8674 78.2141 85.3554 77.7089 84.7246 77.7089C84.0937 77.7089 83.5817 78.2141 83.5817 78.8366ZM73.2891 77.4044H68.6286V85.5623H70.8594C70.8571 85.4924 70.8571 85.4225 70.8571 85.3548C70.8571 82.416 71.7531 79.6824 73.2891 77.4044ZM80.5006 46.1619V48.9384C80.5006 49.5609 79.9886 50.0661 79.3577 50.0661C78.7269 50.0661 78.2149 49.5609 78.2149 48.9384V46.1619H64.6697V48.9384C64.6697 49.5609 64.1577 50.0661 63.5269 50.0661C62.896 50.0661 62.384 49.5609 62.384 48.9384V46.1619H48.8389V48.9384C48.8389 49.5609 48.3269 50.0661 47.696 50.0661C47.0651 50.0661 46.5531 49.5609 46.5531 48.9384V46.1619H39.5406C39.2069 46.1619 38.8869 46.2905 38.6491 46.5228C38.416 46.7483 38.2857 47.055 38.2857 47.3776V51.7171H88.768V47.3776C88.768 47.055 88.6377 46.7483 88.4046 46.5228C88.1691 46.2905 87.8469 46.1619 87.5131 46.1619H80.5006Z" fill="white"/>
</g>
<defs>
<linearGradient id="paint0_linear_2225_3836" x1="-2.00001" y1="314" x2="321.5" y2="-9.49999" gradientUnits="userSpaceOnUse">
<stop stop-color="#11296A"/>
<stop offset="1" stop-color="#2150D0"/>
</linearGradient>
<linearGradient id="paint1_linear_2225_3836" x1="-2.00001" y1="314" x2="321.5" y2="-9.49999" gradientUnits="userSpaceOnUse">
<stop stop-color="#11296A"/>
<stop offset="1" stop-color="#2150D0"/>
</linearGradient>
<linearGradient id="paint2_linear_2225_3836" x1="367.787" y1="-128" x2="367.787" y2="216.727" gradientUnits="userSpaceOnUse">
<stop stop-color="white"/>
<stop offset="1" stop-color="white" stop-opacity="0"/>
</linearGradient>
<linearGradient id="paint3_linear_2225_3836" x1="465.787" y1="-128" x2="465.787" y2="216.727" gradientUnits="userSpaceOnUse">
<stop stop-color="white"/>
<stop offset="1" stop-color="white" stop-opacity="0"/>
</linearGradient>
<clipPath id="clip0_2225_3836">
<rect width="64" height="59.7333" fill="white" transform="translate(36 40)"/>
</clipPath>
</defs>
</svg>
