<svg width="285" height="300" viewBox="0 0 285 300" fill="none" xmlns="http://www.w3.org/2000/svg">
<rect width="285" height="300" rx="10" transform="matrix(1 0 0 -1 0 300)" fill="url(#paint0_linear_2225_3852)"/>
<mask id="mask0_2225_3852" style="mask-type:alpha" maskUnits="userSpaceOnUse" x="0" y="0" width="285" height="300">
<rect width="285" height="300" rx="10" transform="matrix(1 0 0 -1 0 300)" fill="url(#paint1_linear_2225_3852)"/>
</mask>
<g mask="url(#mask0_2225_3852)">
<rect x="338.605" y="-128" width="58.3621" height="344.727" rx="29.1811" transform="rotate(43.8011 338.605 -128)" fill="url(#paint2_linear_2225_3852)" fill-opacity="0.24"/>
<rect x="436.605" y="-128" width="58.3621" height="344.727" rx="29.1811" transform="rotate(43.8011 436.605 -128)" fill="url(#paint3_linear_2225_3852)" fill-opacity="0.24"/>
</g>
<path d="M24.54 235V220.1H34.36V222.2H26.9V226.48H33.96V228.58H26.9V232.9H34.36V235H24.54ZM36.3317 235V224.18H38.4917V226.3L38.2317 226.02C38.4984 225.34 38.9251 224.827 39.5117 224.48C40.0984 224.12 40.7784 223.94 41.5517 223.94C42.3517 223.94 43.0584 224.113 43.6717 224.46C44.2851 224.807 44.7651 225.287 45.1117 225.9C45.4584 226.513 45.6317 227.22 45.6317 228.02V235H43.3917V228.62C43.3917 228.073 43.2917 227.613 43.0917 227.24C42.8917 226.853 42.6051 226.56 42.2317 226.36C41.8717 226.147 41.4584 226.04 40.9917 226.04C40.5251 226.04 40.1051 226.147 39.7317 226.36C39.3717 226.56 39.0917 226.853 38.8917 227.24C38.6917 227.627 38.5917 228.087 38.5917 228.62V235H36.3317ZM48.0505 235V219.86H50.3105V226.3L49.9505 226.02C50.2171 225.34 50.6438 224.827 51.2305 224.48C51.8171 224.12 52.4971 223.94 53.2705 223.94C54.0705 223.94 54.7771 224.113 55.3905 224.46C56.0038 224.807 56.4838 225.287 56.8305 225.9C57.1771 226.513 57.3505 227.213 57.3505 228V235H55.1105V228.62C55.1105 228.073 55.0038 227.613 54.7905 227.24C54.5905 226.853 54.3105 226.56 53.9505 226.36C53.5905 226.147 53.1771 226.04 52.7105 226.04C52.2571 226.04 51.8438 226.147 51.4705 226.36C51.1105 226.56 50.8238 226.853 50.6105 227.24C50.4105 227.627 50.3105 228.087 50.3105 228.62V235H48.0505ZM63.0092 235.24C62.2759 235.24 61.6292 235.113 61.0692 234.86C60.5226 234.593 60.0959 234.233 59.7892 233.78C59.4826 233.313 59.3292 232.767 59.3292 232.14C59.3292 231.553 59.4559 231.027 59.7092 230.56C59.9759 230.093 60.3826 229.7 60.9292 229.38C61.4759 229.06 62.1626 228.833 62.9892 228.7L66.7492 228.08V229.86L63.4292 230.44C62.8292 230.547 62.3892 230.74 62.1092 231.02C61.8292 231.287 61.6892 231.633 61.6892 232.06C61.6892 232.473 61.8426 232.813 62.1492 233.08C62.4692 233.333 62.8759 233.46 63.3692 233.46C63.9826 233.46 64.5159 233.327 64.9692 233.06C65.4359 232.793 65.7959 232.44 66.0492 232C66.3026 231.547 66.4292 231.047 66.4292 230.5V227.72C66.4292 227.187 66.2292 226.753 65.8292 226.42C65.4426 226.073 64.9226 225.9 64.2692 225.9C63.6692 225.9 63.1426 226.06 62.6892 226.38C62.2492 226.687 61.9226 227.087 61.7092 227.58L59.8292 226.64C60.0292 226.107 60.3559 225.64 60.8092 225.24C61.2626 224.827 61.7892 224.507 62.3892 224.28C63.0026 224.053 63.6492 223.94 64.3292 223.94C65.1826 223.94 65.9359 224.1 66.5892 224.42C67.2559 224.74 67.7692 225.187 68.1292 225.76C68.5026 226.32 68.6892 226.973 68.6892 227.72V235H66.5292V233.04L66.9892 233.1C66.7359 233.54 66.4092 233.92 66.0092 234.24C65.6226 234.56 65.1759 234.807 64.6692 234.98C64.1759 235.153 63.6226 235.24 63.0092 235.24ZM71.3317 235V224.18H73.4917V226.3L73.2317 226.02C73.4984 225.34 73.9251 224.827 74.5117 224.48C75.0984 224.12 75.7784 223.94 76.5517 223.94C77.3517 223.94 78.0584 224.113 78.6717 224.46C79.2851 224.807 79.7651 225.287 80.1117 225.9C80.4584 226.513 80.6317 227.22 80.6317 228.02V235H78.3917V228.62C78.3917 228.073 78.2917 227.613 78.0917 227.24C77.8917 226.853 77.6051 226.56 77.2317 226.36C76.8717 226.147 76.4584 226.04 75.9917 226.04C75.5251 226.04 75.1051 226.147 74.7317 226.36C74.3717 226.56 74.0917 226.853 73.8917 227.24C73.6917 227.627 73.5917 228.087 73.5917 228.62V235H71.3317ZM88.1905 235.24C87.1105 235.24 86.1505 234.993 85.3105 234.5C84.4838 233.993 83.8238 233.313 83.3305 232.46C82.8505 231.607 82.6105 230.64 82.6105 229.56C82.6105 228.493 82.8505 227.533 83.3305 226.68C83.8105 225.827 84.4705 225.16 85.3105 224.68C86.1505 224.187 87.1105 223.94 88.1905 223.94C88.9238 223.94 89.6105 224.073 90.2505 224.34C90.8905 224.593 91.4438 224.947 91.9105 225.4C92.3905 225.853 92.7438 226.38 92.9705 226.98L90.9905 227.9C90.7638 227.34 90.3971 226.893 89.8905 226.56C89.3971 226.213 88.8305 226.04 88.1905 226.04C87.5771 226.04 87.0238 226.193 86.5305 226.5C86.0505 226.793 85.6705 227.213 85.3905 227.76C85.1105 228.293 84.9705 228.9 84.9705 229.58C84.9705 230.26 85.1105 230.873 85.3905 231.42C85.6705 231.953 86.0505 232.373 86.5305 232.68C87.0238 232.987 87.5771 233.14 88.1905 233.14C88.8438 233.14 89.4105 232.973 89.8905 232.64C90.3838 232.293 90.7505 231.833 90.9905 231.26L92.9705 232.2C92.7571 232.773 92.4105 233.293 91.9305 233.76C91.4638 234.213 90.9105 234.573 90.2705 234.84C89.6305 235.107 88.9371 235.24 88.1905 235.24ZM100.259 235.24C99.1794 235.24 98.2194 234.993 97.3794 234.5C96.5527 233.993 95.906 233.313 95.4394 232.46C94.9727 231.593 94.7394 230.627 94.7394 229.56C94.7394 228.467 94.9727 227.5 95.4394 226.66C95.9194 225.82 96.5594 225.16 97.3594 224.68C98.1594 224.187 99.066 223.94 100.079 223.94C100.893 223.94 101.619 224.08 102.259 224.36C102.899 224.64 103.439 225.027 103.879 225.52C104.319 226 104.653 226.553 104.879 227.18C105.119 227.807 105.239 228.473 105.239 229.18C105.239 229.353 105.233 229.533 105.219 229.72C105.206 229.907 105.179 230.08 105.139 230.24H96.5194V228.44H103.859L102.779 229.26C102.913 228.607 102.866 228.027 102.639 227.52C102.426 227 102.093 226.593 101.639 226.3C101.199 225.993 100.679 225.84 100.079 225.84C99.4794 225.84 98.946 225.993 98.4794 226.3C98.0127 226.593 97.6527 227.02 97.3994 227.58C97.146 228.127 97.046 228.793 97.0994 229.58C97.0327 230.313 97.1327 230.953 97.3994 231.5C97.6794 232.047 98.066 232.473 98.5594 232.78C99.066 233.087 99.6394 233.24 100.279 233.24C100.933 233.24 101.486 233.093 101.939 232.8C102.406 232.507 102.773 232.127 103.039 231.66L104.879 232.56C104.666 233.067 104.333 233.527 103.879 233.94C103.439 234.34 102.906 234.66 102.279 234.9C101.666 235.127 100.993 235.24 100.259 235.24ZM112.445 235.24C111.405 235.24 110.472 234.993 109.645 234.5C108.832 233.993 108.185 233.313 107.705 232.46C107.238 231.607 107.005 230.647 107.005 229.58C107.005 228.513 107.245 227.553 107.725 226.7C108.205 225.847 108.852 225.173 109.665 224.68C110.478 224.187 111.398 223.94 112.425 223.94C113.292 223.94 114.058 224.113 114.725 224.46C115.392 224.807 115.918 225.287 116.305 225.9L115.965 226.42V219.86H118.205V235H116.065V232.8L116.325 233.22C115.952 233.873 115.418 234.373 114.725 234.72C114.032 235.067 113.272 235.24 112.445 235.24ZM112.665 233.14C113.292 233.14 113.852 232.987 114.345 232.68C114.852 232.373 115.245 231.953 115.525 231.42C115.818 230.873 115.965 230.26 115.965 229.58C115.965 228.9 115.818 228.293 115.525 227.76C115.245 227.227 114.852 226.807 114.345 226.5C113.852 226.193 113.292 226.04 112.665 226.04C112.038 226.04 111.472 226.193 110.965 226.5C110.458 226.807 110.065 227.227 109.785 227.76C109.505 228.293 109.365 228.9 109.365 229.58C109.365 230.26 109.505 230.873 109.785 231.42C110.065 231.953 110.452 232.373 110.945 232.68C111.452 232.987 112.025 233.14 112.665 233.14ZM123.24 235L128.48 220.1H131.4L136.64 235H134.12L132.98 231.66H126.92L125.76 235H123.24ZM127.6 229.56H132.26L129.62 221.76H130.28L127.6 229.56ZM143.017 239.4C142.23 239.4 141.503 239.273 140.837 239.02C140.17 238.767 139.597 238.413 139.117 237.96C138.637 237.52 138.277 237 138.037 236.4L140.117 235.54C140.303 236.047 140.643 236.467 141.137 236.8C141.643 237.133 142.263 237.3 142.997 237.3C143.57 237.3 144.083 237.187 144.537 236.96C144.99 236.747 145.35 236.427 145.617 236C145.883 235.587 146.017 235.087 146.017 234.5V232.06L146.417 232.52C146.043 233.213 145.523 233.74 144.857 234.1C144.203 234.46 143.463 234.64 142.637 234.64C141.637 234.64 140.737 234.407 139.937 233.94C139.137 233.473 138.503 232.833 138.037 232.02C137.583 231.207 137.357 230.293 137.357 229.28C137.357 228.253 137.583 227.34 138.037 226.54C138.503 225.74 139.13 225.107 139.917 224.64C140.703 224.173 141.603 223.94 142.617 223.94C143.443 223.94 144.177 224.12 144.817 224.48C145.47 224.827 146.003 225.333 146.417 226L146.117 226.56V224.18H148.257V234.5C148.257 235.433 148.03 236.267 147.577 237C147.137 237.747 146.523 238.333 145.737 238.76C144.95 239.187 144.043 239.4 143.017 239.4ZM142.897 232.54C143.497 232.54 144.03 232.4 144.497 232.12C144.963 231.827 145.33 231.44 145.597 230.96C145.877 230.467 146.017 229.913 146.017 229.3C146.017 228.687 145.877 228.133 145.597 227.64C145.317 227.147 144.943 226.76 144.477 226.48C144.01 226.187 143.483 226.04 142.897 226.04C142.283 226.04 141.737 226.187 141.257 226.48C140.777 226.76 140.397 227.147 140.117 227.64C139.85 228.12 139.717 228.673 139.717 229.3C139.717 229.9 139.85 230.447 140.117 230.94C140.397 231.433 140.777 231.827 141.257 232.12C141.737 232.4 142.283 232.54 142.897 232.54ZM150.902 235V224.18H153.162V235H150.902ZM150.902 222.7V220.1H153.162V222.7H150.902ZM155.804 235V219.86H158.064V235H155.804ZM160.707 235V224.18H162.967V235H160.707ZM160.707 222.7V220.1H162.967V222.7H160.707ZM170.289 235.12C169.156 235.12 168.276 234.8 167.649 234.16C167.022 233.52 166.709 232.62 166.709 231.46V226.22H164.809V224.18H165.109C165.616 224.18 166.009 224.033 166.289 223.74C166.569 223.447 166.709 223.047 166.709 222.54V221.7H168.969V224.18H171.429V226.22H168.969V231.36C168.969 231.733 169.029 232.053 169.149 232.32C169.269 232.573 169.462 232.773 169.729 232.92C169.996 233.053 170.342 233.12 170.769 233.12C170.876 233.12 170.996 233.113 171.129 233.1C171.262 233.087 171.389 233.073 171.509 233.06V235C171.322 235.027 171.116 235.053 170.889 235.08C170.662 235.107 170.462 235.12 170.289 235.12ZM174.675 239.4C174.408 239.4 174.141 239.373 173.875 239.32C173.621 239.28 173.388 239.213 173.175 239.12V237.18C173.335 237.22 173.528 237.253 173.755 237.28C173.981 237.32 174.201 237.34 174.415 237.34C175.041 237.34 175.501 237.2 175.795 236.92C176.101 236.653 176.375 236.24 176.615 235.68L177.335 234.04L177.295 235.94L172.615 224.18H175.035L178.495 233.2H177.675L181.115 224.18H183.555L178.775 236.18C178.521 236.82 178.201 237.38 177.815 237.86C177.441 238.353 176.995 238.733 176.475 239C175.968 239.267 175.368 239.4 174.675 239.4Z" fill="white"/>
<path fill-rule="evenodd" clip-rule="evenodd" d="M49.7274 76.6698V85.1266L45.3793 80.7834C43.4152 78.8171 40.2378 78.8171 38.2737 80.7834C38.2737 80.7834 38.2731 80.7879 38.2511 80.7901C36.2869 82.7564 36.2869 85.9454 38.2511 87.9117L50.3006 99.9592L52.375 102.314C53.324 103.386 54.6921 104 56.1045 104H72.0388C74.7974 104 77.0259 101.773 77.0259 99.0279V83.5288C77.0259 80.2891 75.2391 77.3098 72.3922 75.7606L66.8966 72.768C70.8469 69.3451 73.3405 64.2957 73.3405 58.6681C73.3405 48.3641 64.9765 40 54.6703 40C44.3641 40 36 48.3641 36 58.6681C36 67.2574 41.8267 74.5004 49.7274 76.6698ZM57.2522 76.2306V59.189C57.2522 57.7214 56.0611 56.5297 54.6045 56.5297C53.1259 56.5297 51.9343 57.7214 51.9343 59.189V87.7903C51.9343 88.2383 51.6693 88.64 51.25 88.8099C50.8528 88.9821 50.3672 88.8872 50.0582 88.5716L43.8351 82.3437C42.7317 81.2403 40.9213 81.2403 39.8179 82.3437V82.3503C38.7144 83.4538 38.7144 85.2458 39.8179 86.3514L51.8901 98.4232L54.0302 100.855C54.5598 101.451 55.31 101.793 56.1045 101.793H72.0388C73.5616 101.793 74.819 100.555 74.819 99.0279V83.5288C74.819 81.0968 73.4731 78.8612 71.3545 77.6982L59.4591 71.2298V76.2306C59.4591 76.8397 58.9735 77.3341 58.3556 77.3341C57.7597 77.3341 57.2522 76.8397 57.2522 76.2306ZM64.8222 71.6314C68.6622 68.6168 71.1336 63.9294 71.1336 58.6681C71.1336 49.5823 63.7627 42.2069 54.6703 42.2069C45.5999 42.2069 38.2069 49.5823 38.2069 58.6681C38.2069 66.0281 43.0625 72.2692 49.7274 74.3702V69.3628C45.6888 67.4913 42.8858 63.4041 42.8858 58.6681C42.8858 52.1644 48.182 46.8855 54.6703 46.8855C61.1806 46.8855 66.4558 52.1644 66.4558 58.6681C66.4558 63.1901 63.9177 67.1206 60.1659 69.0957L64.8222 71.6314ZM59.4591 66.9594C62.328 65.3021 64.2489 62.208 64.2489 58.6681C64.2489 53.3826 59.9668 49.0924 54.6703 49.0924C49.3958 49.0924 45.0927 53.3826 45.0927 58.6681C45.0927 62.1418 46.9467 65.1873 49.7274 66.8668V59.189C49.7274 56.501 51.9121 54.3228 54.6045 54.3228C57.2969 54.3228 59.4591 56.501 59.4591 59.189V66.9594Z" fill="white"/>
<defs>
<linearGradient id="paint0_linear_2225_3852" x1="-2.00001" y1="314" x2="321.5" y2="-9.49999" gradientUnits="userSpaceOnUse">
<stop stop-color="#11296A"/>
<stop offset="1" stop-color="#2150D0"/>
</linearGradient>
<linearGradient id="paint1_linear_2225_3852" x1="-2.00001" y1="314" x2="321.5" y2="-9.49999" gradientUnits="userSpaceOnUse">
<stop stop-color="#11296A"/>
<stop offset="1" stop-color="#2150D0"/>
</linearGradient>
<linearGradient id="paint2_linear_2225_3852" x1="367.787" y1="-128" x2="367.787" y2="216.727" gradientUnits="userSpaceOnUse">
<stop stop-color="white"/>
<stop offset="1" stop-color="white" stop-opacity="0"/>
</linearGradient>
<linearGradient id="paint3_linear_2225_3852" x1="465.787" y1="-128" x2="465.787" y2="216.727" gradientUnits="userSpaceOnUse">
<stop stop-color="white"/>
<stop offset="1" stop-color="white" stop-opacity="0"/>
</linearGradient>
</defs>
</svg>
