<svg width="285" height="300" viewBox="0 0 285 300" fill="none" xmlns="http://www.w3.org/2000/svg">
<rect width="285" height="300" rx="10" transform="matrix(1 0 0 -1 0 300)" fill="url(#paint0_linear_2225_3863)"/>
<mask id="mask0_2225_3863" style="mask-type:alpha" maskUnits="userSpaceOnUse" x="0" y="0" width="285" height="300">
<rect width="285" height="300" rx="10" transform="matrix(1 0 0 -1 0 300)" fill="url(#paint1_linear_2225_3863)"/>
</mask>
<g mask="url(#mask0_2225_3863)">
<rect x="338.605" y="-128" width="58.3621" height="344.727" rx="29.1811" transform="rotate(43.8011 338.605 -128)" fill="url(#paint2_linear_2225_3863)" fill-opacity="0.24"/>
<rect x="436.605" y="-128" width="58.3621" height="344.727" rx="29.1811" transform="rotate(43.8011 436.605 -128)" fill="url(#paint3_linear_2225_3863)" fill-opacity="0.24"/>
</g>
<path d="M24.54 235V220.1H29.96C30.96 220.1 31.84 220.287 32.6 220.66C33.36 221.02 33.9533 221.553 34.38 222.26C34.82 222.953 35.04 223.787 35.04 224.76C35.04 225.787 34.78 226.667 34.26 227.4C33.7533 228.133 33.0667 228.667 32.2 229L35.64 235H32.96L29.3 228.5L30.84 229.4H26.9V235H24.54ZM26.9 227.3H30C30.5467 227.3 31.02 227.193 31.42 226.98C31.82 226.767 32.1267 226.473 32.34 226.1C32.5667 225.713 32.68 225.26 32.68 224.74C32.68 224.22 32.5667 223.773 32.34 223.4C32.1267 223.013 31.82 222.72 31.42 222.52C31.02 222.307 30.5467 222.2 30 222.2H26.9V227.3ZM41.8805 235.24C40.8005 235.24 39.8405 234.993 39.0005 234.5C38.1738 233.993 37.5271 233.313 37.0605 232.46C36.5938 231.593 36.3605 230.627 36.3605 229.56C36.3605 228.467 36.5938 227.5 37.0605 226.66C37.5405 225.82 38.1805 225.16 38.9805 224.68C39.7805 224.187 40.6871 223.94 41.7005 223.94C42.5138 223.94 43.2405 224.08 43.8805 224.36C44.5205 224.64 45.0605 225.027 45.5005 225.52C45.9405 226 46.2738 226.553 46.5005 227.18C46.7405 227.807 46.8605 228.473 46.8605 229.18C46.8605 229.353 46.8538 229.533 46.8405 229.72C46.8271 229.907 46.8005 230.08 46.7605 230.24H38.1405V228.44H45.4805L44.4005 229.26C44.5338 228.607 44.4871 228.027 44.2605 227.52C44.0471 227 43.7138 226.593 43.2605 226.3C42.8205 225.993 42.3005 225.84 41.7005 225.84C41.1005 225.84 40.5671 225.993 40.1005 226.3C39.6338 226.593 39.2738 227.02 39.0205 227.58C38.7671 228.127 38.6671 228.793 38.7205 229.58C38.6538 230.313 38.7538 230.953 39.0205 231.5C39.3005 232.047 39.6871 232.473 40.1805 232.78C40.6871 233.087 41.2605 233.24 41.9005 233.24C42.5538 233.24 43.1071 233.093 43.5605 232.8C44.0271 232.507 44.3938 232.127 44.6605 231.66L46.5005 232.56C46.2871 233.067 45.9538 233.527 45.5005 233.94C45.0605 234.34 44.5271 234.66 43.9005 234.9C43.2871 235.127 42.6138 235.24 41.8805 235.24ZM54.0661 235.24C53.0261 235.24 52.0928 234.993 51.2661 234.5C50.4528 233.993 49.8061 233.313 49.3261 232.46C48.8594 231.607 48.6261 230.647 48.6261 229.58C48.6261 228.513 48.8661 227.553 49.3461 226.7C49.8261 225.847 50.4728 225.173 51.2861 224.68C52.0994 224.187 53.0194 223.94 54.0461 223.94C54.9128 223.94 55.6794 224.113 56.3461 224.46C57.0128 224.807 57.5394 225.287 57.9261 225.9L57.5861 226.42V219.86H59.8261V235H57.6861V232.8L57.9461 233.22C57.5728 233.873 57.0394 234.373 56.3461 234.72C55.6528 235.067 54.8928 235.24 54.0661 235.24ZM54.2861 233.14C54.9128 233.14 55.4728 232.987 55.9661 232.68C56.4728 232.373 56.8661 231.953 57.1461 231.42C57.4394 230.873 57.5861 230.26 57.5861 229.58C57.5861 228.9 57.4394 228.293 57.1461 227.76C56.8661 227.227 56.4728 226.807 55.9661 226.5C55.4728 226.193 54.9128 226.04 54.2861 226.04C53.6594 226.04 53.0928 226.193 52.5861 226.5C52.0794 226.807 51.6861 227.227 51.4061 227.76C51.1261 228.293 50.9861 228.9 50.9861 229.58C50.9861 230.26 51.1261 230.873 51.4061 231.42C51.6861 231.953 52.0728 232.373 52.5661 232.68C53.0728 232.987 53.6461 233.14 54.2861 233.14ZM66.3245 235.24C65.5112 235.24 64.7979 235.06 64.1845 234.7C63.5712 234.327 63.0912 233.813 62.7445 233.16C62.4112 232.493 62.2445 231.727 62.2445 230.86V224.18H64.5045V230.66C64.5045 231.153 64.6045 231.587 64.8045 231.96C65.0045 232.333 65.2845 232.627 65.6445 232.84C66.0045 233.04 66.4179 233.14 66.8845 233.14C67.3645 233.14 67.7845 233.033 68.1445 232.82C68.5045 232.607 68.7845 232.307 68.9845 231.92C69.1979 231.533 69.3045 231.08 69.3045 230.56V224.18H71.5445V235H69.4045V232.88L69.6445 233.16C69.3912 233.827 68.9712 234.34 68.3845 234.7C67.7979 235.06 67.1112 235.24 66.3245 235.24ZM79.3233 235.24C78.2433 235.24 77.2833 234.993 76.4433 234.5C75.6166 233.993 74.9566 233.313 74.4633 232.46C73.9833 231.607 73.7433 230.64 73.7433 229.56C73.7433 228.493 73.9833 227.533 74.4633 226.68C74.9433 225.827 75.6033 225.16 76.4433 224.68C77.2833 224.187 78.2433 223.94 79.3233 223.94C80.0566 223.94 80.7433 224.073 81.3833 224.34C82.0233 224.593 82.5766 224.947 83.0433 225.4C83.5233 225.853 83.8766 226.38 84.1033 226.98L82.1233 227.9C81.8966 227.34 81.5299 226.893 81.0233 226.56C80.5299 226.213 79.9633 226.04 79.3233 226.04C78.7099 226.04 78.1566 226.193 77.6633 226.5C77.1833 226.793 76.8033 227.213 76.5233 227.76C76.2433 228.293 76.1033 228.9 76.1033 229.58C76.1033 230.26 76.2433 230.873 76.5233 231.42C76.8033 231.953 77.1833 232.373 77.6633 232.68C78.1566 232.987 78.7099 233.14 79.3233 233.14C79.9766 233.14 80.5433 232.973 81.0233 232.64C81.5166 232.293 81.8833 231.833 82.1233 231.26L84.1033 232.2C83.8899 232.773 83.5433 233.293 83.0633 233.76C82.5966 234.213 82.0433 234.573 81.4033 234.84C80.7633 235.107 80.0699 235.24 79.3233 235.24ZM91.3922 235.24C90.3122 235.24 89.3522 234.993 88.5122 234.5C87.6855 233.993 87.0389 233.313 86.5722 232.46C86.1055 231.593 85.8722 230.627 85.8722 229.56C85.8722 228.467 86.1055 227.5 86.5722 226.66C87.0522 225.82 87.6922 225.16 88.4922 224.68C89.2922 224.187 90.1989 223.94 91.2122 223.94C92.0255 223.94 92.7522 224.08 93.3922 224.36C94.0322 224.64 94.5722 225.027 95.0122 225.52C95.4522 226 95.7855 226.553 96.0122 227.18C96.2522 227.807 96.3722 228.473 96.3722 229.18C96.3722 229.353 96.3655 229.533 96.3522 229.72C96.3389 229.907 96.3122 230.08 96.2722 230.24H87.6522V228.44H94.9922L93.9122 229.26C94.0455 228.607 93.9989 228.027 93.7722 227.52C93.5589 227 93.2255 226.593 92.7722 226.3C92.3322 225.993 91.8122 225.84 91.2122 225.84C90.6122 225.84 90.0789 225.993 89.6122 226.3C89.1455 226.593 88.7855 227.02 88.5322 227.58C88.2789 228.127 88.1789 228.793 88.2322 229.58C88.1655 230.313 88.2655 230.953 88.5322 231.5C88.8122 232.047 89.1989 232.473 89.6922 232.78C90.1989 233.087 90.7722 233.24 91.4122 233.24C92.0655 233.24 92.6189 233.093 93.0722 232.8C93.5389 232.507 93.9055 232.127 94.1722 231.66L96.0122 232.56C95.7989 233.067 95.4655 233.527 95.0122 233.94C94.5722 234.34 94.0389 234.66 93.4122 234.9C92.7989 235.127 92.1255 235.24 91.3922 235.24ZM103.578 235.24C102.538 235.24 101.604 234.993 100.778 234.5C99.9645 233.993 99.3178 233.313 98.8378 232.46C98.3711 231.607 98.1378 230.647 98.1378 229.58C98.1378 228.513 98.3778 227.553 98.8578 226.7C99.3378 225.847 99.9845 225.173 100.798 224.68C101.611 224.187 102.531 223.94 103.558 223.94C104.424 223.94 105.191 224.113 105.858 224.46C106.524 224.807 107.051 225.287 107.438 225.9L107.098 226.42V219.86H109.338V235H107.198V232.8L107.458 233.22C107.084 233.873 106.551 234.373 105.858 234.72C105.164 235.067 104.404 235.24 103.578 235.24ZM103.798 233.14C104.424 233.14 104.984 232.987 105.478 232.68C105.984 232.373 106.378 231.953 106.658 231.42C106.951 230.873 107.098 230.26 107.098 229.58C107.098 228.9 106.951 228.293 106.658 227.76C106.378 227.227 105.984 226.807 105.478 226.5C104.984 226.193 104.424 226.04 103.798 226.04C103.171 226.04 102.604 226.193 102.098 226.5C101.591 226.807 101.198 227.227 100.918 227.76C100.638 228.293 100.498 228.9 100.498 229.58C100.498 230.26 100.638 230.873 100.918 231.42C101.198 231.953 101.584 232.373 102.078 232.68C102.584 232.987 103.158 233.14 103.798 233.14ZM122.932 235.24C121.852 235.24 120.846 235.047 119.912 234.66C118.992 234.273 118.179 233.733 117.472 233.04C116.779 232.347 116.232 231.533 115.832 230.6C115.446 229.667 115.252 228.647 115.252 227.54C115.252 226.433 115.446 225.413 115.832 224.48C116.232 223.533 116.779 222.72 117.472 222.04C118.166 221.347 118.979 220.813 119.912 220.44C120.846 220.053 121.852 219.86 122.932 219.86C124.026 219.86 125.032 220.053 125.952 220.44C126.886 220.813 127.699 221.347 128.392 222.04C129.099 222.733 129.646 223.547 130.032 224.48C130.419 225.413 130.612 226.433 130.612 227.54C130.612 228.647 130.412 229.667 130.012 230.6C129.626 231.533 129.086 232.347 128.392 233.04C127.699 233.733 126.886 234.273 125.952 234.66C125.019 235.047 124.012 235.24 122.932 235.24ZM122.932 233.08C123.706 233.08 124.412 232.94 125.052 232.66C125.706 232.38 126.272 231.993 126.752 231.5C127.232 230.993 127.606 230.407 127.872 229.74C128.139 229.06 128.272 228.327 128.272 227.54C128.272 226.753 128.139 226.027 127.872 225.36C127.606 224.693 127.232 224.107 126.752 223.6C126.272 223.093 125.706 222.7 125.052 222.42C124.412 222.14 123.706 222 122.932 222C122.159 222 121.446 222.14 120.792 222.42C120.152 222.7 119.592 223.093 119.112 223.6C118.632 224.107 118.259 224.693 117.992 225.36C117.739 226.027 117.612 226.753 117.612 227.54C117.612 228.327 117.739 229.06 117.992 229.74C118.259 230.407 118.632 230.993 119.112 231.5C119.592 231.993 120.159 232.38 120.812 232.66C121.466 232.94 122.172 233.08 122.932 233.08ZM133.031 239V224.18H135.191V226.42L134.931 225.9C135.331 225.287 135.864 224.807 136.531 224.46C137.198 224.113 137.958 223.94 138.811 223.94C139.838 223.94 140.758 224.187 141.571 224.68C142.398 225.173 143.044 225.847 143.511 226.7C143.991 227.553 144.231 228.513 144.231 229.58C144.231 230.647 143.991 231.607 143.511 232.46C143.044 233.313 142.404 233.993 141.591 234.5C140.778 234.993 139.851 235.24 138.811 235.24C137.971 235.24 137.204 235.067 136.511 234.72C135.831 234.373 135.304 233.873 134.931 233.22L135.291 232.8V239H133.031ZM138.591 233.14C139.231 233.14 139.798 232.987 140.291 232.68C140.784 232.373 141.171 231.953 141.451 231.42C141.744 230.873 141.891 230.26 141.891 229.58C141.891 228.9 141.744 228.293 141.451 227.76C141.171 227.227 140.784 226.807 140.291 226.5C139.798 226.193 139.231 226.04 138.591 226.04C137.964 226.04 137.398 226.193 136.891 226.5C136.398 226.807 136.004 227.227 135.711 227.76C135.431 228.293 135.291 228.9 135.291 229.58C135.291 230.26 135.431 230.873 135.711 231.42C136.004 231.953 136.398 232.373 136.891 232.68C137.398 232.987 137.964 233.14 138.591 233.14ZM151.509 235.24C150.429 235.24 149.469 234.993 148.629 234.5C147.803 233.993 147.156 233.313 146.689 232.46C146.223 231.593 145.989 230.627 145.989 229.56C145.989 228.467 146.223 227.5 146.689 226.66C147.169 225.82 147.809 225.16 148.609 224.68C149.409 224.187 150.316 223.94 151.329 223.94C152.143 223.94 152.869 224.08 153.509 224.36C154.149 224.64 154.689 225.027 155.129 225.52C155.569 226 155.903 226.553 156.129 227.18C156.369 227.807 156.489 228.473 156.489 229.18C156.489 229.353 156.483 229.533 156.469 229.72C156.456 229.907 156.429 230.08 156.389 230.24H147.769V228.44H155.109L154.029 229.26C154.163 228.607 154.116 228.027 153.889 227.52C153.676 227 153.343 226.593 152.889 226.3C152.449 225.993 151.929 225.84 151.329 225.84C150.729 225.84 150.196 225.993 149.729 226.3C149.263 226.593 148.903 227.02 148.649 227.58C148.396 228.127 148.296 228.793 148.349 229.58C148.283 230.313 148.383 230.953 148.649 231.5C148.929 232.047 149.316 232.473 149.809 232.78C150.316 233.087 150.889 233.24 151.529 233.24C152.183 233.24 152.736 233.093 153.189 232.8C153.656 232.507 154.023 232.127 154.289 231.66L156.129 232.56C155.916 233.067 155.583 233.527 155.129 233.94C154.689 234.34 154.156 234.66 153.529 234.9C152.916 235.127 152.243 235.24 151.509 235.24ZM158.695 235V224.18H160.855V226.36L160.655 226.04C160.895 225.333 161.282 224.827 161.815 224.52C162.348 224.2 162.988 224.04 163.735 224.04H164.395V226.1H163.455C162.708 226.1 162.102 226.333 161.635 226.8C161.182 227.253 160.955 227.907 160.955 228.76V235H158.695ZM169.181 235.24C168.448 235.24 167.801 235.113 167.241 234.86C166.694 234.593 166.268 234.233 165.961 233.78C165.654 233.313 165.501 232.767 165.501 232.14C165.501 231.553 165.628 231.027 165.881 230.56C166.148 230.093 166.554 229.7 167.101 229.38C167.648 229.06 168.334 228.833 169.161 228.7L172.921 228.08V229.86L169.601 230.44C169.001 230.547 168.561 230.74 168.281 231.02C168.001 231.287 167.861 231.633 167.861 232.06C167.861 232.473 168.014 232.813 168.321 233.08C168.641 233.333 169.048 233.46 169.541 233.46C170.154 233.46 170.688 233.327 171.141 233.06C171.608 232.793 171.968 232.44 172.221 232C172.474 231.547 172.601 231.047 172.601 230.5V227.72C172.601 227.187 172.401 226.753 172.001 226.42C171.614 226.073 171.094 225.9 170.441 225.9C169.841 225.9 169.314 226.06 168.861 226.38C168.421 226.687 168.094 227.087 167.881 227.58L166.001 226.64C166.201 226.107 166.528 225.64 166.981 225.24C167.434 224.827 167.961 224.507 168.561 224.28C169.174 224.053 169.821 223.94 170.501 223.94C171.354 223.94 172.108 224.1 172.761 224.42C173.428 224.74 173.941 225.187 174.301 225.76C174.674 226.32 174.861 226.973 174.861 227.72V235H172.701V233.04L173.161 233.1C172.908 233.54 172.581 233.92 172.181 234.24C171.794 234.56 171.348 234.807 170.841 234.98C170.348 235.153 169.794 235.24 169.181 235.24ZM181.988 235.12C180.855 235.12 179.975 234.8 179.348 234.16C178.722 233.52 178.408 232.62 178.408 231.46V226.22H176.508V224.18H176.808C177.315 224.18 177.708 224.033 177.988 223.74C178.268 223.447 178.408 223.047 178.408 222.54V221.7H180.668V224.18H183.128V226.22H180.668V231.36C180.668 231.733 180.728 232.053 180.848 232.32C180.968 232.573 181.162 232.773 181.428 232.92C181.695 233.053 182.042 233.12 182.468 233.12C182.575 233.12 182.695 233.113 182.828 233.1C182.962 233.087 183.088 233.073 183.208 233.06V235C183.022 235.027 182.815 235.053 182.588 235.08C182.362 235.107 182.162 235.12 181.988 235.12ZM185.414 235V224.18H187.674V235H185.414ZM185.414 222.7V220.1H187.674V222.7H185.414ZM195.536 235.24C194.496 235.24 193.543 234.993 192.676 234.5C191.823 234.007 191.143 233.333 190.636 232.48C190.129 231.627 189.876 230.66 189.876 229.58C189.876 228.487 190.129 227.52 190.636 226.68C191.143 225.827 191.823 225.16 192.676 224.68C193.529 224.187 194.483 223.94 195.536 223.94C196.603 223.94 197.556 224.187 198.396 224.68C199.249 225.16 199.923 225.827 200.416 226.68C200.923 227.52 201.176 228.487 201.176 229.58C201.176 230.673 200.923 231.647 200.416 232.5C199.909 233.353 199.229 234.027 198.376 234.52C197.523 235 196.576 235.24 195.536 235.24ZM195.536 233.14C196.176 233.14 196.743 232.987 197.236 232.68C197.729 232.373 198.116 231.953 198.396 231.42C198.689 230.873 198.836 230.26 198.836 229.58C198.836 228.9 198.689 228.293 198.396 227.76C198.116 227.227 197.729 226.807 197.236 226.5C196.743 226.193 196.176 226.04 195.536 226.04C194.909 226.04 194.343 226.193 193.836 226.5C193.343 226.807 192.949 227.227 192.656 227.76C192.376 228.293 192.236 228.9 192.236 229.58C192.236 230.26 192.376 230.873 192.656 231.42C192.949 231.953 193.343 232.373 193.836 232.68C194.343 232.987 194.909 233.14 195.536 233.14ZM203.382 235V224.18H205.543V226.3L205.283 226.02C205.549 225.34 205.976 224.827 206.563 224.48C207.149 224.12 207.829 223.94 208.603 223.94C209.403 223.94 210.109 224.113 210.723 224.46C211.336 224.807 211.816 225.287 212.162 225.9C212.509 226.513 212.683 227.22 212.683 228.02V235H210.443V228.62C210.443 228.073 210.343 227.613 210.143 227.24C209.943 226.853 209.656 226.56 209.283 226.36C208.923 226.147 208.509 226.04 208.043 226.04C207.576 226.04 207.156 226.147 206.783 226.36C206.423 226.56 206.143 226.853 205.943 227.24C205.743 227.627 205.643 228.087 205.643 228.62V235H203.382ZM218.341 235.24C217.608 235.24 216.961 235.113 216.401 234.86C215.855 234.593 215.428 234.233 215.121 233.78C214.815 233.313 214.661 232.767 214.661 232.14C214.661 231.553 214.788 231.027 215.041 230.56C215.308 230.093 215.715 229.7 216.261 229.38C216.808 229.06 217.495 228.833 218.321 228.7L222.081 228.08V229.86L218.761 230.44C218.161 230.547 217.721 230.74 217.441 231.02C217.161 231.287 217.021 231.633 217.021 232.06C217.021 232.473 217.175 232.813 217.481 233.08C217.801 233.333 218.208 233.46 218.701 233.46C219.315 233.46 219.848 233.327 220.301 233.06C220.768 232.793 221.128 232.44 221.381 232C221.635 231.547 221.761 231.047 221.761 230.5V227.72C221.761 227.187 221.561 226.753 221.161 226.42C220.775 226.073 220.255 225.9 219.601 225.9C219.001 225.9 218.475 226.06 218.021 226.38C217.581 226.687 217.255 227.087 217.041 227.58L215.161 226.64C215.361 226.107 215.688 225.64 216.141 225.24C216.595 224.827 217.121 224.507 217.721 224.28C218.335 224.053 218.981 223.94 219.661 223.94C220.515 223.94 221.268 224.1 221.921 224.42C222.588 224.74 223.101 225.187 223.461 225.76C223.835 226.32 224.021 226.973 224.021 227.72V235H221.861V233.04L222.321 233.1C222.068 233.54 221.741 233.92 221.341 234.24C220.955 234.56 220.508 234.807 220.001 234.98C219.508 235.153 218.955 235.24 218.341 235.24ZM226.664 235V219.86H228.924V235H226.664ZM31.48 260.24C30.4267 260.24 29.4467 260.047 28.54 259.66C27.6467 259.273 26.8667 258.74 26.2 258.06C25.5467 257.367 25.0333 256.553 24.66 255.62C24.2867 254.687 24.1 253.66 24.1 252.54C24.1 251.433 24.28 250.413 24.64 249.48C25.0133 248.533 25.5333 247.72 26.2 247.04C26.8667 246.347 27.6467 245.813 28.54 245.44C29.4333 245.053 30.4133 244.86 31.48 244.86C32.5333 244.86 33.4733 245.04 34.3 245.4C35.14 245.76 35.8467 246.233 36.42 246.82C36.9933 247.393 37.4067 248.02 37.66 248.7L35.54 249.7C35.22 248.9 34.7067 248.253 34 247.76C33.3067 247.253 32.4667 247 31.48 247C30.4933 247 29.62 247.233 28.86 247.7C28.1 248.167 27.5067 248.813 27.08 249.64C26.6667 250.467 26.46 251.433 26.46 252.54C26.46 253.647 26.6667 254.62 27.08 255.46C27.5067 256.287 28.1 256.933 28.86 257.4C29.62 257.853 30.4933 258.08 31.48 258.08C32.4667 258.08 33.3067 257.833 34 257.34C34.7067 256.847 35.22 256.2 35.54 255.4L37.66 256.4C37.4067 257.067 36.9933 257.693 36.42 258.28C35.8467 258.867 35.14 259.34 34.3 259.7C33.4733 260.06 32.5333 260.24 31.48 260.24ZM44.8916 260.24C43.8516 260.24 42.8982 259.993 42.0316 259.5C41.1782 259.007 40.4982 258.333 39.9916 257.48C39.4849 256.627 39.2316 255.66 39.2316 254.58C39.2316 253.487 39.4849 252.52 39.9916 251.68C40.4982 250.827 41.1782 250.16 42.0316 249.68C42.8849 249.187 43.8382 248.94 44.8916 248.94C45.9582 248.94 46.9116 249.187 47.7516 249.68C48.6049 250.16 49.2782 250.827 49.7716 251.68C50.2782 252.52 50.5316 253.487 50.5316 254.58C50.5316 255.673 50.2782 256.647 49.7716 257.5C49.2649 258.353 48.5849 259.027 47.7316 259.52C46.8782 260 45.9316 260.24 44.8916 260.24ZM44.8916 258.14C45.5316 258.14 46.0982 257.987 46.5916 257.68C47.0849 257.373 47.4716 256.953 47.7516 256.42C48.0449 255.873 48.1916 255.26 48.1916 254.58C48.1916 253.9 48.0449 253.293 47.7516 252.76C47.4716 252.227 47.0849 251.807 46.5916 251.5C46.0982 251.193 45.5316 251.04 44.8916 251.04C44.2649 251.04 43.6982 251.193 43.1916 251.5C42.6982 251.807 42.3049 252.227 42.0116 252.76C41.7316 253.293 41.5916 253.9 41.5916 254.58C41.5916 255.26 41.7316 255.873 42.0116 256.42C42.3049 256.953 42.6982 257.373 43.1916 257.68C43.6982 257.987 44.2649 258.14 44.8916 258.14ZM56.738 260.24C55.6313 260.24 54.658 259.967 53.818 259.42C52.9913 258.873 52.4113 258.14 52.078 257.22L53.818 256.4C54.1113 257.013 54.5113 257.5 55.018 257.86C55.538 258.22 56.1113 258.4 56.738 258.4C57.2713 258.4 57.7046 258.28 58.038 258.04C58.3713 257.8 58.538 257.473 58.538 257.06C58.538 256.793 58.4646 256.58 58.318 256.42C58.1713 256.247 57.9846 256.107 57.758 256C57.5446 255.893 57.3246 255.813 57.098 255.76L55.398 255.28C54.4646 255.013 53.7646 254.613 53.298 254.08C52.8446 253.533 52.618 252.9 52.618 252.18C52.618 251.527 52.7846 250.96 53.118 250.48C53.4513 249.987 53.9113 249.607 54.498 249.34C55.0846 249.073 55.7446 248.94 56.478 248.94C57.4646 248.94 58.3446 249.187 59.118 249.68C59.8913 250.16 60.438 250.833 60.758 251.7L59.018 252.52C58.8046 252 58.4646 251.587 57.998 251.28C57.5446 250.973 57.0313 250.82 56.458 250.82C55.9646 250.82 55.5713 250.94 55.278 251.18C54.9846 251.407 54.838 251.707 54.838 252.08C54.838 252.333 54.9046 252.547 55.038 252.72C55.1713 252.88 55.3446 253.013 55.558 253.12C55.7713 253.213 55.9913 253.293 56.218 253.36L57.978 253.88C58.8713 254.133 59.558 254.533 60.038 255.08C60.518 255.613 60.758 256.253 60.758 257C60.758 257.64 60.5846 258.207 60.238 258.7C59.9046 259.18 59.438 259.56 58.838 259.84C58.238 260.107 57.538 260.24 56.738 260.24ZM67.6523 260.12C66.519 260.12 65.639 259.8 65.0123 259.16C64.3857 258.52 64.0723 257.62 64.0723 256.46V251.22H62.1723V249.18H62.4723C62.979 249.18 63.3723 249.033 63.6523 248.74C63.9323 248.447 64.0723 248.047 64.0723 247.54V246.7H66.3323V249.18H68.7923V251.22H66.3323V256.36C66.3323 256.733 66.3923 257.053 66.5123 257.32C66.6323 257.573 66.8257 257.773 67.0923 257.92C67.359 258.053 67.7057 258.12 68.1323 258.12C68.239 258.12 68.359 258.113 68.4923 258.1C68.6257 258.087 68.7523 258.073 68.8723 258.06V260C68.6857 260.027 68.479 260.053 68.2523 260.08C68.0257 260.107 67.8257 260.12 67.6523 260.12ZM75.0778 260.24C73.9711 260.24 72.9978 259.967 72.1578 259.42C71.3311 258.873 70.7511 258.14 70.4178 257.22L72.1578 256.4C72.4511 257.013 72.8511 257.5 73.3578 257.86C73.8778 258.22 74.4511 258.4 75.0778 258.4C75.6111 258.4 76.0445 258.28 76.3778 258.04C76.7111 257.8 76.8778 257.473 76.8778 257.06C76.8778 256.793 76.8045 256.58 76.6578 256.42C76.5111 256.247 76.3245 256.107 76.0978 256C75.8845 255.893 75.6645 255.813 75.4378 255.76L73.7378 255.28C72.8045 255.013 72.1045 254.613 71.6378 254.08C71.1845 253.533 70.9578 252.9 70.9578 252.18C70.9578 251.527 71.1245 250.96 71.4578 250.48C71.7911 249.987 72.2511 249.607 72.8378 249.34C73.4245 249.073 74.0845 248.94 74.8178 248.94C75.8045 248.94 76.6845 249.187 77.4578 249.68C78.2311 250.16 78.7778 250.833 79.0978 251.7L77.3578 252.52C77.1445 252 76.8045 251.587 76.3378 251.28C75.8845 250.973 75.3711 250.82 74.7978 250.82C74.3045 250.82 73.9111 250.94 73.6178 251.18C73.3245 251.407 73.1778 251.707 73.1778 252.08C73.1778 252.333 73.2445 252.547 73.3778 252.72C73.5111 252.88 73.6845 253.013 73.8978 253.12C74.1111 253.213 74.3311 253.293 74.5578 253.36L76.3178 253.88C77.2111 254.133 77.8978 254.533 78.3778 255.08C78.8578 255.613 79.0978 256.253 79.0978 257C79.0978 257.64 78.9245 258.207 78.5778 258.7C78.2445 259.18 77.7778 259.56 77.1778 259.84C76.5778 260.107 75.8778 260.24 75.0778 260.24Z" fill="white"/>
<g clip-path="url(#clip0_2225_3863)">
<path d="M52.2561 69.835C51.8201 69.835 51.4775 69.4901 51.4775 69.051V66.9031C51.4775 66.4641 51.8201 66.1191 52.2561 66.1191C52.6921 66.1191 53.0346 66.4641 53.0346 66.9031V69.051C53.0346 69.4901 52.6921 69.835 52.2561 69.835Z" fill="white"/>
<path d="M52.0071 84.0244C51.5711 84.0244 51.2285 83.6795 51.2285 83.2405V81.0925C51.2285 80.6535 51.5711 80.3086 52.0071 80.3086C52.443 80.3086 52.7856 80.6535 52.7856 81.0925V83.2405C52.7856 83.6638 52.4275 84.0244 52.0071 84.0244Z" fill="white"/>
<path d="M51.8355 81.8757C51.7732 81.8757 51.6953 81.8757 51.6331 81.8757C50.076 81.7973 48.2853 80.7312 48.3009 78.0188C48.3009 77.5955 48.659 77.2349 49.0794 77.2349C49.5154 77.2349 49.858 77.5955 49.8424 78.0188C49.8268 79.9159 50.9947 80.2608 51.6953 80.3079C52.8476 80.3706 54.2023 79.665 54.2957 78.6146C54.2957 78.5989 54.2957 78.5989 54.2957 78.5832C54.5137 76.8742 52.3338 75.9335 51.6642 75.6827C49.0327 74.7263 47.9428 73.2838 48.4255 71.4024C49.0639 68.9252 51.1348 68.0472 52.7853 68.298C54.3735 68.5332 56.0396 69.8502 55.9462 72.202C55.9306 72.641 55.5725 72.9703 55.1365 72.9546C54.7005 72.9389 54.3735 72.5783 54.3891 72.1393C54.4358 70.7439 53.5016 69.9913 52.5517 69.8502C51.6019 69.7091 50.3562 70.1324 49.9203 71.81C49.7334 72.5313 49.858 73.3622 52.178 74.2246C53.1279 74.5695 56.1798 75.9178 55.8216 78.787C55.6659 80.6685 53.6729 81.8757 51.8355 81.8757Z" fill="white"/>
<path d="M52.1312 88.5709C44.7506 88.5709 38.7246 82.5189 38.7246 75.0716C38.7246 67.6242 44.735 61.5723 52.1312 61.5723C59.5274 61.5723 65.5378 67.6242 65.5378 75.0716C65.5378 82.5189 59.5274 88.5709 52.1312 88.5709ZM52.1312 63.1401C45.607 63.1401 40.2817 68.4865 40.2817 75.0716C40.2817 81.6566 45.5914 87.003 52.1312 87.003C58.671 87.003 63.9807 81.6566 63.9807 75.0716C63.9807 68.4865 58.6554 63.1401 52.1312 63.1401Z" fill="white"/>
<path d="M64.8685 109H39.3945C37.526 109 36 107.464 36 105.567V100.628C36 98.7465 37.526 97.1943 39.3945 97.1943C39.8305 97.1943 40.173 97.5393 40.173 97.9783C40.173 98.4173 39.8305 98.7622 39.3945 98.7622C38.3824 98.7622 37.5571 99.5932 37.5571 100.628V105.567C37.5571 106.586 38.3824 107.432 39.3945 107.432H64.8685C65.8806 107.432 66.7215 106.602 66.7215 105.567V100.628C66.7215 99.6088 65.8962 98.7622 64.8685 98.7622C64.4325 98.7622 64.09 98.4173 64.09 97.9783C64.09 97.5393 64.4325 97.1943 64.8685 97.1943C66.7526 97.1943 68.2785 98.7308 68.2785 100.628V105.567C68.2785 107.464 66.7526 109 64.8685 109Z" fill="white"/>
<path d="M64.8685 98.7777H39.3945C37.526 98.7777 36 97.2412 36 95.3441V90.4053C36 88.5239 37.526 86.9717 39.3945 86.9717H64.8685C66.7526 86.9717 68.2785 88.5082 68.2785 90.4053V95.3441C68.2785 97.2412 66.7526 98.7777 64.8685 98.7777ZM39.3945 88.5709C38.3824 88.5709 37.5571 89.4019 37.5571 90.4367V95.3754C37.5571 96.3946 38.3824 97.2412 39.3945 97.2412H64.8685C65.8806 97.2412 66.7215 96.4102 66.7215 95.3754V90.4367C66.7215 89.4176 65.8962 88.5709 64.8685 88.5709H39.3945Z" fill="white"/>
<path d="M95.5901 98.7777H70.1161C68.232 98.7777 66.7061 97.2412 66.7061 95.3441V90.4053C66.7061 88.5239 68.232 86.9717 70.1161 86.9717H95.5901C97.4586 86.9717 99.0002 88.5082 99.0002 90.4053V95.3441C99.0002 97.2412 97.4742 98.7777 95.5901 98.7777ZM70.1161 88.5709C69.104 88.5709 68.2631 89.4019 68.2631 90.4367V95.3754C68.2631 96.3946 69.0884 97.2412 70.1161 97.2412H95.5901C96.6022 97.2412 97.4431 96.4102 97.4431 95.3754V90.4367C97.4431 89.4176 96.6178 88.5709 95.5901 88.5709H70.1161Z" fill="white"/>
<path d="M95.5901 109H70.1161C68.232 109 66.7061 107.464 66.7061 105.567V100.628C66.7061 98.7465 68.232 97.1943 70.1161 97.1943C70.5521 97.1943 70.8946 97.5393 70.8946 97.9783C70.8946 98.4173 70.5521 98.7622 70.1161 98.7622C69.104 98.7622 68.2631 99.5932 68.2631 100.628V105.567C68.2631 106.586 69.0884 107.432 70.1161 107.432H95.5901C96.6022 107.432 97.4431 106.602 97.4431 105.567V100.628C97.4431 99.6088 96.6178 98.7622 95.5901 98.7622C95.1542 98.7622 94.8116 98.4173 94.8116 97.9783C94.8116 97.5393 95.1542 97.1943 95.5901 97.1943C97.4586 97.1943 99.0002 98.7308 99.0002 100.628V105.567C99.0002 107.464 97.4742 109 95.5901 109Z" fill="white"/>
<path d="M94.329 72.798H74.4294C74.1491 72.798 73.9 72.6569 73.7598 72.406C73.6197 72.1552 73.6197 71.873 73.7598 71.6221L75.9398 67.8279L45.047 49.8758C44.8602 49.7661 44.7356 49.5936 44.6889 49.4054C44.6422 49.2016 44.6577 48.9821 44.7667 48.8097L49.5937 40.3902C49.8117 40.0139 50.2789 39.8885 50.6526 40.108L81.5297 58.0601L83.7097 54.2658C83.8498 54.015 84.0989 53.8739 84.3792 53.8739C84.6595 53.8739 84.9086 54.015 85.0488 54.2658L95.0142 71.6221C95.1543 71.873 95.1543 72.1552 95.0142 72.406C94.874 72.6569 94.6093 72.798 94.329 72.798ZM75.7685 71.2301H92.9899L84.3792 56.2257L82.4951 59.5182C82.3861 59.6906 82.2148 59.8318 82.028 59.8788C81.8256 59.9258 81.6231 59.9101 81.4363 59.8004L50.5436 41.8483L46.4951 48.9037L77.3723 66.8558C77.5436 66.9655 77.6837 67.138 77.7304 67.3261C77.7771 67.53 77.7616 67.7338 77.6526 67.9219L75.7685 71.2301Z" fill="white"/>
<path d="M95.5901 88.5707C95.1542 88.5707 94.8116 88.2257 94.8116 87.7867C94.8116 87.3477 95.1542 87.0028 95.5901 87.0028C96.6022 87.0028 97.4431 86.1718 97.4431 85.137V80.1983C97.4431 79.1792 96.6178 78.3325 95.5901 78.3325H70.1161C69.104 78.3325 68.2631 79.1635 68.2631 80.1983V85.137C68.2631 86.1562 69.0884 87.0028 70.1161 87.0028C70.5521 87.0028 70.8946 87.3477 70.8946 87.7867C70.8946 88.2257 70.5521 88.5707 70.1161 88.5707C68.232 88.5707 66.7061 87.0342 66.7061 85.137V80.1983C66.7061 78.3168 68.232 76.7646 70.1161 76.7646H95.5901C97.4586 76.7646 99.0002 78.3012 99.0002 80.1983V85.137C99.0002 87.0342 97.4742 88.5707 95.5901 88.5707Z" fill="white"/>
</g>
<defs>
<linearGradient id="paint0_linear_2225_3863" x1="-2.00001" y1="314" x2="321.5" y2="-9.49999" gradientUnits="userSpaceOnUse">
<stop stop-color="#11296A"/>
<stop offset="1" stop-color="#2150D0"/>
</linearGradient>
<linearGradient id="paint1_linear_2225_3863" x1="-2.00001" y1="314" x2="321.5" y2="-9.49999" gradientUnits="userSpaceOnUse">
<stop stop-color="#11296A"/>
<stop offset="1" stop-color="#2150D0"/>
</linearGradient>
<linearGradient id="paint2_linear_2225_3863" x1="367.787" y1="-128" x2="367.787" y2="216.727" gradientUnits="userSpaceOnUse">
<stop stop-color="white"/>
<stop offset="1" stop-color="white" stop-opacity="0"/>
</linearGradient>
<linearGradient id="paint3_linear_2225_3863" x1="465.787" y1="-128" x2="465.787" y2="216.727" gradientUnits="userSpaceOnUse">
<stop stop-color="white"/>
<stop offset="1" stop-color="white" stop-opacity="0"/>
</linearGradient>
<clipPath id="clip0_2225_3863">
<rect width="63" height="69" fill="white" transform="translate(36 40)"/>
</clipPath>
</defs>
</svg>
