<svg width="285" height="300" viewBox="0 0 285 300" fill="none" xmlns="http://www.w3.org/2000/svg">
<rect width="285" height="300" rx="10" transform="matrix(1 0 0 -1 0 300)" fill="url(#paint0_linear_2225_3894)"/>
<mask id="mask0_2225_3894" style="mask-type:alpha" maskUnits="userSpaceOnUse" x="0" y="0" width="285" height="300">
<rect width="285" height="300" rx="10" transform="matrix(1 0 0 -1 0 300)" fill="url(#paint1_linear_2225_3894)"/>
</mask>
<g mask="url(#mask0_2225_3894)">
<rect x="338.605" y="-128" width="58.3621" height="344.727" rx="29.1811" transform="rotate(43.8011 338.605 -128)" fill="url(#paint2_linear_2225_3894)" fill-opacity="0.24"/>
<rect x="436.605" y="-128" width="58.3621" height="344.727" rx="29.1811" transform="rotate(43.8011 436.605 -128)" fill="url(#paint3_linear_2225_3894)" fill-opacity="0.24"/>
</g>
<path d="M24.54 239V224.1H30.82C31.7533 224.1 32.56 224.267 33.24 224.6C33.92 224.92 34.44 225.387 34.8 226C35.16 226.6 35.34 227.313 35.34 228.14C35.34 228.86 35.1533 229.52 34.78 230.12C34.42 230.707 33.8533 231.173 33.08 231.52V230.52C33.76 230.787 34.3133 231.127 34.74 231.54C35.1667 231.94 35.4733 232.393 35.66 232.9C35.86 233.407 35.96 233.94 35.96 234.5C35.96 235.9 35.5 237 34.58 237.8C33.6733 238.6 32.4267 239 30.84 239H24.54ZM26.9 236.9H31.02C31.8067 236.9 32.4333 236.687 32.9 236.26C33.3667 235.82 33.6 235.24 33.6 234.52C33.6 233.787 33.3667 233.207 32.9 232.78C32.4333 232.34 31.8067 232.12 31.02 232.12H26.9V236.9ZM26.9 230.04H30.88C31.52 230.04 32.0333 229.86 32.42 229.5C32.8067 229.127 33 228.64 33 228.04C33 227.44 32.8067 226.973 32.42 226.64C32.0333 226.307 31.52 226.14 30.88 226.14H26.9V230.04ZM43.4477 239.24C42.3677 239.24 41.4077 238.993 40.5677 238.5C39.741 237.993 39.0943 237.313 38.6277 236.46C38.161 235.593 37.9277 234.627 37.9277 233.56C37.9277 232.467 38.161 231.5 38.6277 230.66C39.1077 229.82 39.7477 229.16 40.5477 228.68C41.3477 228.187 42.2543 227.94 43.2677 227.94C44.081 227.94 44.8077 228.08 45.4477 228.36C46.0877 228.64 46.6277 229.027 47.0677 229.52C47.5077 230 47.841 230.553 48.0677 231.18C48.3077 231.807 48.4277 232.473 48.4277 233.18C48.4277 233.353 48.421 233.533 48.4077 233.72C48.3943 233.907 48.3677 234.08 48.3277 234.24H39.7077V232.44H47.0477L45.9677 233.26C46.101 232.607 46.0543 232.027 45.8277 231.52C45.6143 231 45.281 230.593 44.8277 230.3C44.3877 229.993 43.8677 229.84 43.2677 229.84C42.6677 229.84 42.1343 229.993 41.6677 230.3C41.201 230.593 40.841 231.02 40.5877 231.58C40.3343 232.127 40.2343 232.793 40.2877 233.58C40.221 234.313 40.321 234.953 40.5877 235.5C40.8677 236.047 41.2543 236.473 41.7477 236.78C42.2543 237.087 42.8277 237.24 43.4677 237.24C44.121 237.24 44.6743 237.093 45.1277 236.8C45.5943 236.507 45.961 236.127 46.2277 235.66L48.0677 236.56C47.8543 237.067 47.521 237.527 47.0677 237.94C46.6277 238.34 46.0943 238.66 45.4677 238.9C44.8543 239.127 44.181 239.24 43.4477 239.24ZM55.5133 239.12C54.3799 239.12 53.4999 238.8 52.8733 238.16C52.2466 237.52 51.9333 236.62 51.9333 235.46V230.22H50.0333V228.18H50.3333C50.8399 228.18 51.2333 228.033 51.5133 227.74C51.7933 227.447 51.9333 227.047 51.9333 226.54V225.7H54.1933V228.18H56.6533V230.22H54.1933V235.36C54.1933 235.733 54.2533 236.053 54.3733 236.32C54.4933 236.573 54.6866 236.773 54.9533 236.92C55.2199 237.053 55.5666 237.12 55.9933 237.12C56.0999 237.12 56.2199 237.113 56.3533 237.1C56.4866 237.087 56.6133 237.073 56.7333 237.06V239C56.5466 239.027 56.3399 239.053 56.1133 239.08C55.8866 239.107 55.6866 239.12 55.5133 239.12ZM63.8187 239.12C62.6854 239.12 61.8054 238.8 61.1787 238.16C60.5521 237.52 60.2387 236.62 60.2387 235.46V230.22H58.3387V228.18H58.6387C59.1454 228.18 59.5387 228.033 59.8187 227.74C60.0987 227.447 60.2387 227.047 60.2387 226.54V225.7H62.4987V228.18H64.9587V230.22H62.4987V235.36C62.4987 235.733 62.5587 236.053 62.6787 236.32C62.7987 236.573 62.9921 236.773 63.2587 236.92C63.5254 237.053 63.8721 237.12 64.2987 237.12C64.4054 237.12 64.5254 237.113 64.6587 237.1C64.7921 237.087 64.9187 237.073 65.0387 237.06V239C64.8521 239.027 64.6454 239.053 64.4187 239.08C64.1921 239.107 63.9921 239.12 63.8187 239.12ZM72.3289 239.24C71.2489 239.24 70.2889 238.993 69.4489 238.5C68.6222 237.993 67.9756 237.313 67.5089 236.46C67.0422 235.593 66.8089 234.627 66.8089 233.56C66.8089 232.467 67.0422 231.5 67.5089 230.66C67.9889 229.82 68.6289 229.16 69.4289 228.68C70.2289 228.187 71.1356 227.94 72.1489 227.94C72.9622 227.94 73.6889 228.08 74.3289 228.36C74.9689 228.64 75.5089 229.027 75.9489 229.52C76.3889 230 76.7222 230.553 76.9489 231.18C77.1889 231.807 77.3089 232.473 77.3089 233.18C77.3089 233.353 77.3022 233.533 77.2889 233.72C77.2756 233.907 77.2489 234.08 77.2089 234.24H68.5889V232.44H75.9289L74.8489 233.26C74.9822 232.607 74.9356 232.027 74.7089 231.52C74.4956 231 74.1622 230.593 73.7089 230.3C73.2689 229.993 72.7489 229.84 72.1489 229.84C71.5489 229.84 71.0156 229.993 70.5489 230.3C70.0822 230.593 69.7222 231.02 69.4689 231.58C69.2156 232.127 69.1156 232.793 69.1689 233.58C69.1022 234.313 69.2022 234.953 69.4689 235.5C69.7489 236.047 70.1356 236.473 70.6289 236.78C71.1356 237.087 71.7089 237.24 72.3489 237.24C73.0022 237.24 73.5556 237.093 74.0089 236.8C74.4756 236.507 74.8422 236.127 75.1089 235.66L76.9489 236.56C76.7356 237.067 76.4022 237.527 75.9489 237.94C75.5089 238.34 74.9756 238.66 74.3489 238.9C73.7356 239.127 73.0622 239.24 72.3289 239.24ZM79.7145 239V228.18H81.8745V230.36L81.6745 230.04C81.9145 229.333 82.3012 228.827 82.8345 228.52C83.3679 228.2 84.0079 228.04 84.7545 228.04H85.4145V230.1H84.4745C83.7279 230.1 83.1212 230.333 82.6545 230.8C82.2012 231.253 81.9745 231.907 81.9745 232.76V239H79.7145ZM91.0767 239V224.1H95.9567C97.5034 224.1 98.8434 224.413 99.9767 225.04C101.123 225.653 102.01 226.52 102.637 227.64C103.263 228.76 103.577 230.06 103.577 231.54C103.577 233.007 103.263 234.307 102.637 235.44C102.01 236.56 101.123 237.433 99.9767 238.06C98.8434 238.687 97.5034 239 95.9567 239H91.0767ZM93.4367 236.9H95.9967C97.0501 236.9 97.9634 236.68 98.7367 236.24C99.5234 235.8 100.13 235.18 100.557 234.38C100.983 233.58 101.197 232.633 101.197 231.54C101.197 230.447 100.977 229.507 100.537 228.72C100.11 227.92 99.5101 227.3 98.7367 226.86C97.9634 226.42 97.0501 226.2 95.9967 226.2H93.4367V236.9ZM109.023 239.24C108.29 239.24 107.643 239.113 107.083 238.86C106.537 238.593 106.11 238.233 105.803 237.78C105.497 237.313 105.343 236.767 105.343 236.14C105.343 235.553 105.47 235.027 105.723 234.56C105.99 234.093 106.397 233.7 106.943 233.38C107.49 233.06 108.177 232.833 109.003 232.7L112.763 232.08V233.86L109.443 234.44C108.843 234.547 108.403 234.74 108.123 235.02C107.843 235.287 107.703 235.633 107.703 236.06C107.703 236.473 107.857 236.813 108.163 237.08C108.483 237.333 108.89 237.46 109.383 237.46C109.997 237.46 110.53 237.327 110.983 237.06C111.45 236.793 111.81 236.44 112.063 236C112.317 235.547 112.443 235.047 112.443 234.5V231.72C112.443 231.187 112.243 230.753 111.843 230.42C111.457 230.073 110.937 229.9 110.283 229.9C109.683 229.9 109.157 230.06 108.703 230.38C108.263 230.687 107.937 231.087 107.723 231.58L105.843 230.64C106.043 230.107 106.37 229.64 106.823 229.24C107.277 228.827 107.803 228.507 108.403 228.28C109.017 228.053 109.663 227.94 110.343 227.94C111.197 227.94 111.95 228.1 112.603 228.42C113.27 228.74 113.783 229.187 114.143 229.76C114.517 230.32 114.703 230.973 114.703 231.72V239H112.543V237.04L113.003 237.1C112.75 237.54 112.423 237.92 112.023 238.24C111.637 238.56 111.19 238.807 110.683 238.98C110.19 239.153 109.637 239.24 109.023 239.24ZM122.03 239.12C120.897 239.12 120.017 238.8 119.39 238.16C118.764 237.52 118.45 236.62 118.45 235.46V230.22H116.55V228.18H116.85C117.357 228.18 117.75 228.033 118.03 227.74C118.31 227.447 118.45 227.047 118.45 226.54V225.7H120.71V228.18H123.17V230.22H120.71V235.36C120.71 235.733 120.77 236.053 120.89 236.32C121.01 236.573 121.204 236.773 121.47 236.92C121.737 237.053 122.084 237.12 122.51 237.12C122.617 237.12 122.737 237.113 122.87 237.1C123.004 237.087 123.13 237.073 123.25 237.06V239C123.064 239.027 122.857 239.053 122.63 239.08C122.404 239.107 122.204 239.12 122.03 239.12ZM128.798 239.24C128.065 239.24 127.418 239.113 126.858 238.86C126.312 238.593 125.885 238.233 125.578 237.78C125.272 237.313 125.118 236.767 125.118 236.14C125.118 235.553 125.245 235.027 125.498 234.56C125.765 234.093 126.172 233.7 126.718 233.38C127.265 233.06 127.952 232.833 128.778 232.7L132.538 232.08V233.86L129.218 234.44C128.618 234.547 128.178 234.74 127.898 235.02C127.618 235.287 127.478 235.633 127.478 236.06C127.478 236.473 127.632 236.813 127.938 237.08C128.258 237.333 128.665 237.46 129.158 237.46C129.772 237.46 130.305 237.327 130.758 237.06C131.225 236.793 131.585 236.44 131.838 236C132.092 235.547 132.218 235.047 132.218 234.5V231.72C132.218 231.187 132.018 230.753 131.618 230.42C131.232 230.073 130.712 229.9 130.058 229.9C129.458 229.9 128.932 230.06 128.478 230.38C128.038 230.687 127.712 231.087 127.498 231.58L125.618 230.64C125.818 230.107 126.145 229.64 126.598 229.24C127.052 228.827 127.578 228.507 128.178 228.28C128.792 228.053 129.438 227.94 130.118 227.94C130.972 227.94 131.725 228.1 132.378 228.42C133.045 228.74 133.558 229.187 133.918 229.76C134.292 230.32 134.478 230.973 134.478 231.72V239H132.318V237.04L132.778 237.1C132.525 237.54 132.198 237.92 131.798 238.24C131.412 238.56 130.965 238.807 130.458 238.98C129.965 239.153 129.412 239.24 128.798 239.24ZM137.661 234.58V232.58H145.661V234.58H137.661ZM149.069 239V224.1H153.949C155.496 224.1 156.836 224.413 157.969 225.04C159.116 225.653 160.002 226.52 160.629 227.64C161.256 228.76 161.569 230.06 161.569 231.54C161.569 233.007 161.256 234.307 160.629 235.44C160.002 236.56 159.116 237.433 157.969 238.06C156.836 238.687 155.496 239 153.949 239H149.069ZM151.429 236.9H153.989C155.042 236.9 155.956 236.68 156.729 236.24C157.516 235.8 158.122 235.18 158.549 234.38C158.976 233.58 159.189 232.633 159.189 231.54C159.189 230.447 158.969 229.507 158.529 228.72C158.102 227.92 157.502 227.3 156.729 226.86C155.956 226.42 155.042 226.2 153.989 226.2H151.429V236.9ZM163.873 239V228.18H166.033V230.36L165.833 230.04C166.073 229.333 166.46 228.827 166.993 228.52C167.526 228.2 168.166 228.04 168.913 228.04H169.573V230.1H168.633C167.886 230.1 167.28 230.333 166.813 230.8C166.36 231.253 166.133 231.907 166.133 232.76V239H163.873ZM171.319 239V228.18H173.579V239H171.319ZM171.319 226.7V224.1H173.579V226.7H171.319ZM179.562 239L175.322 228.18H177.782L181.042 237H180.142L183.402 228.18H185.882L181.622 239H179.562ZM192.502 239.24C191.422 239.24 190.462 238.993 189.622 238.5C188.796 237.993 188.149 237.313 187.682 236.46C187.216 235.593 186.982 234.627 186.982 233.56C186.982 232.467 187.216 231.5 187.682 230.66C188.162 229.82 188.802 229.16 189.602 228.68C190.402 228.187 191.309 227.94 192.322 227.94C193.136 227.94 193.862 228.08 194.502 228.36C195.142 228.64 195.682 229.027 196.122 229.52C196.562 230 196.896 230.553 197.122 231.18C197.362 231.807 197.482 232.473 197.482 233.18C197.482 233.353 197.476 233.533 197.462 233.72C197.449 233.907 197.422 234.08 197.382 234.24H188.762V232.44H196.102L195.022 233.26C195.156 232.607 195.109 232.027 194.882 231.52C194.669 231 194.336 230.593 193.882 230.3C193.442 229.993 192.922 229.84 192.322 229.84C191.722 229.84 191.189 229.993 190.722 230.3C190.256 230.593 189.896 231.02 189.642 231.58C189.389 232.127 189.289 232.793 189.342 233.58C189.276 234.313 189.376 234.953 189.642 235.5C189.922 236.047 190.309 236.473 190.802 236.78C191.309 237.087 191.882 237.24 192.522 237.24C193.176 237.24 193.729 237.093 194.182 236.8C194.649 236.507 195.016 236.127 195.282 235.66L197.122 236.56C196.909 237.067 196.576 237.527 196.122 237.94C195.682 238.34 195.149 238.66 194.522 238.9C193.909 239.127 193.236 239.24 192.502 239.24ZM199.888 239V228.18H202.048V230.3L201.788 230.02C202.055 229.34 202.481 228.827 203.068 228.48C203.655 228.12 204.335 227.94 205.108 227.94C205.908 227.94 206.615 228.113 207.228 228.46C207.841 228.807 208.321 229.287 208.668 229.9C209.015 230.513 209.188 231.22 209.188 232.02V239H206.948V232.62C206.948 232.073 206.848 231.613 206.648 231.24C206.448 230.853 206.161 230.56 205.788 230.36C205.428 230.147 205.015 230.04 204.548 230.04C204.081 230.04 203.661 230.147 203.288 230.36C202.928 230.56 202.648 230.853 202.448 231.24C202.248 231.627 202.148 232.087 202.148 232.62V239H199.888ZM24.54 272V257.1H29.42C30.9667 257.1 32.3067 257.413 33.44 258.04C34.5867 258.653 35.4733 259.52 36.1 260.64C36.7267 261.76 37.04 263.06 37.04 264.54C37.04 266.007 36.7267 267.307 36.1 268.44C35.4733 269.56 34.5867 270.433 33.44 271.06C32.3067 271.687 30.9667 272 29.42 272H24.54ZM26.9 269.9H29.46C30.5133 269.9 31.4267 269.68 32.2 269.24C32.9867 268.8 33.5933 268.18 34.02 267.38C34.4467 266.58 34.66 265.633 34.66 264.54C34.66 263.447 34.44 262.507 34 261.72C33.5733 260.92 32.9733 260.3 32.2 259.86C31.4267 259.42 30.5133 259.2 29.46 259.2H26.9V269.9ZM44.4242 272.24C43.3442 272.24 42.3842 271.993 41.5442 271.5C40.7176 270.993 40.0709 270.313 39.6042 269.46C39.1376 268.593 38.9042 267.627 38.9042 266.56C38.9042 265.467 39.1376 264.5 39.6042 263.66C40.0842 262.82 40.7242 262.16 41.5242 261.68C42.3242 261.187 43.2309 260.94 44.2442 260.94C45.0576 260.94 45.7842 261.08 46.4242 261.36C47.0642 261.64 47.6042 262.027 48.0442 262.52C48.4842 263 48.8176 263.553 49.0442 264.18C49.2842 264.807 49.4042 265.473 49.4042 266.18C49.4042 266.353 49.3976 266.533 49.3842 266.72C49.3709 266.907 49.3442 267.08 49.3042 267.24H40.6842V265.44H48.0242L46.9442 266.26C47.0776 265.607 47.0309 265.027 46.8042 264.52C46.5909 264 46.2576 263.593 45.8042 263.3C45.3642 262.993 44.8442 262.84 44.2442 262.84C43.6442 262.84 43.1109 262.993 42.6442 263.3C42.1776 263.593 41.8176 264.02 41.5642 264.58C41.3109 265.127 41.2109 265.793 41.2642 266.58C41.1976 267.313 41.2976 267.953 41.5642 268.5C41.8442 269.047 42.2309 269.473 42.7242 269.78C43.2309 270.087 43.8042 270.24 44.4442 270.24C45.0976 270.24 45.6509 270.093 46.1042 269.8C46.5709 269.507 46.9376 269.127 47.2042 268.66L49.0442 269.56C48.8309 270.067 48.4976 270.527 48.0442 270.94C47.6042 271.34 47.0709 271.66 46.4442 271.9C45.8309 272.127 45.1576 272.24 44.4242 272.24ZM56.9498 272.24C55.8698 272.24 54.9098 271.993 54.0698 271.5C53.2432 270.993 52.5832 270.313 52.0898 269.46C51.6098 268.607 51.3698 267.64 51.3698 266.56C51.3698 265.493 51.6098 264.533 52.0898 263.68C52.5698 262.827 53.2298 262.16 54.0698 261.68C54.9098 261.187 55.8698 260.94 56.9498 260.94C57.6832 260.94 58.3698 261.073 59.0098 261.34C59.6498 261.593 60.2032 261.947 60.6698 262.4C61.1498 262.853 61.5032 263.38 61.7298 263.98L59.7498 264.9C59.5232 264.34 59.1565 263.893 58.6498 263.56C58.1565 263.213 57.5898 263.04 56.9498 263.04C56.3365 263.04 55.7832 263.193 55.2898 263.5C54.8098 263.793 54.4298 264.213 54.1498 264.76C53.8698 265.293 53.7298 265.9 53.7298 266.58C53.7298 267.26 53.8698 267.873 54.1498 268.42C54.4298 268.953 54.8098 269.373 55.2898 269.68C55.7832 269.987 56.3365 270.14 56.9498 270.14C57.6032 270.14 58.1698 269.973 58.6498 269.64C59.1432 269.293 59.5098 268.833 59.7498 268.26L61.7298 269.2C61.5165 269.773 61.1698 270.293 60.6898 270.76C60.2232 271.213 59.6698 271.573 59.0298 271.84C58.3898 272.107 57.6965 272.24 56.9498 272.24ZM64.1387 272V261.18H66.3987V272H64.1387ZM64.1387 259.7V257.1H66.3987V259.7H64.1387ZM73.2411 272.24C72.1344 272.24 71.1611 271.967 70.3211 271.42C69.4944 270.873 68.9144 270.14 68.5811 269.22L70.3211 268.4C70.6144 269.013 71.0144 269.5 71.5211 269.86C72.0411 270.22 72.6144 270.4 73.2411 270.4C73.7744 270.4 74.2078 270.28 74.5411 270.04C74.8744 269.8 75.0411 269.473 75.0411 269.06C75.0411 268.793 74.9678 268.58 74.8211 268.42C74.6744 268.247 74.4878 268.107 74.2611 268C74.0478 267.893 73.8278 267.813 73.6011 267.76L71.9011 267.28C70.9678 267.013 70.2678 266.613 69.8011 266.08C69.3478 265.533 69.1211 264.9 69.1211 264.18C69.1211 263.527 69.2878 262.96 69.6211 262.48C69.9544 261.987 70.4144 261.607 71.0011 261.34C71.5878 261.073 72.2478 260.94 72.9811 260.94C73.9678 260.94 74.8478 261.187 75.6211 261.68C76.3944 262.16 76.9411 262.833 77.2611 263.7L75.5211 264.52C75.3078 264 74.9678 263.587 74.5011 263.28C74.0478 262.973 73.5344 262.82 72.9611 262.82C72.4678 262.82 72.0744 262.94 71.7811 263.18C71.4878 263.407 71.3411 263.707 71.3411 264.08C71.3411 264.333 71.4078 264.547 71.5411 264.72C71.6744 264.88 71.8478 265.013 72.0611 265.12C72.2744 265.213 72.4944 265.293 72.7211 265.36L74.4811 265.88C75.3744 266.133 76.0611 266.533 76.5411 267.08C77.0211 267.613 77.2611 268.253 77.2611 269C77.2611 269.64 77.0878 270.207 76.7411 270.7C76.4078 271.18 75.9411 271.56 75.3411 271.84C74.7411 272.107 74.0411 272.24 73.2411 272.24ZM79.6755 272V261.18H81.9355V272H79.6755ZM79.6755 259.7V257.1H81.9355V259.7H79.6755ZM89.9978 272.24C88.9578 272.24 88.0045 271.993 87.1378 271.5C86.2845 271.007 85.6045 270.333 85.0978 269.48C84.5911 268.627 84.3378 267.66 84.3378 266.58C84.3378 265.487 84.5911 264.52 85.0978 263.68C85.6045 262.827 86.2845 262.16 87.1378 261.68C87.9911 261.187 88.9445 260.94 89.9978 260.94C91.0645 260.94 92.0178 261.187 92.8578 261.68C93.7111 262.16 94.3845 262.827 94.8778 263.68C95.3845 264.52 95.6378 265.487 95.6378 266.58C95.6378 267.673 95.3845 268.647 94.8778 269.5C94.3711 270.353 93.6911 271.027 92.8378 271.52C91.9845 272 91.0378 272.24 89.9978 272.24ZM89.9978 270.14C90.6378 270.14 91.2045 269.987 91.6978 269.68C92.1911 269.373 92.5778 268.953 92.8578 268.42C93.1511 267.873 93.2978 267.26 93.2978 266.58C93.2978 265.9 93.1511 265.293 92.8578 264.76C92.5778 264.227 92.1911 263.807 91.6978 263.5C91.2045 263.193 90.6378 263.04 89.9978 263.04C89.3711 263.04 88.8045 263.193 88.2978 263.5C87.8045 263.807 87.4111 264.227 87.1178 264.76C86.8378 265.293 86.6978 265.9 86.6978 266.58C86.6978 267.26 86.8378 267.873 87.1178 268.42C87.4111 268.953 87.8045 269.373 88.2978 269.68C88.8045 269.987 89.3711 270.14 89.9978 270.14ZM98.0442 272V261.18H100.204V263.3L99.9442 263.02C100.211 262.34 100.638 261.827 101.224 261.48C101.811 261.12 102.491 260.94 103.264 260.94C104.064 260.94 104.771 261.113 105.384 261.46C105.998 261.807 106.478 262.287 106.824 262.9C107.171 263.513 107.344 264.22 107.344 265.02V272H105.104V265.62C105.104 265.073 105.004 264.613 104.804 264.24C104.604 263.853 104.318 263.56 103.944 263.36C103.584 263.147 103.171 263.04 102.704 263.04C102.238 263.04 101.818 263.147 101.444 263.36C101.084 263.56 100.804 263.853 100.604 264.24C100.404 264.627 100.304 265.087 100.304 265.62V272H98.0442ZM113.963 272.24C112.856 272.24 111.883 271.967 111.043 271.42C110.216 270.873 109.636 270.14 109.303 269.22L111.043 268.4C111.336 269.013 111.736 269.5 112.243 269.86C112.763 270.22 113.336 270.4 113.963 270.4C114.496 270.4 114.93 270.28 115.263 270.04C115.596 269.8 115.763 269.473 115.763 269.06C115.763 268.793 115.69 268.58 115.543 268.42C115.396 268.247 115.21 268.107 114.983 268C114.77 267.893 114.55 267.813 114.323 267.76L112.623 267.28C111.69 267.013 110.99 266.613 110.523 266.08C110.07 265.533 109.843 264.9 109.843 264.18C109.843 263.527 110.01 262.96 110.343 262.48C110.676 261.987 111.136 261.607 111.723 261.34C112.31 261.073 112.97 260.94 113.703 260.94C114.69 260.94 115.57 261.187 116.343 261.68C117.116 262.16 117.663 262.833 117.983 263.7L116.243 264.52C116.03 264 115.69 263.587 115.223 263.28C114.77 262.973 114.256 262.82 113.683 262.82C113.19 262.82 112.796 262.94 112.503 263.18C112.21 263.407 112.063 263.707 112.063 264.08C112.063 264.333 112.13 264.547 112.263 264.72C112.396 264.88 112.57 265.013 112.783 265.12C112.996 265.213 113.216 265.293 113.443 265.36L115.203 265.88C116.096 266.133 116.783 266.533 117.263 267.08C117.743 267.613 117.983 268.253 117.983 269C117.983 269.64 117.81 270.207 117.463 270.7C117.13 271.18 116.663 271.56 116.063 271.84C115.463 272.107 114.763 272.24 113.963 272.24Z" fill="white"/>
<g clip-path="url(#clip0_2225_3894)">
<path fill-rule="evenodd" clip-rule="evenodd" d="M49.7624 40.0002H81.8746C82.4373 40.0002 82.8947 40.462 82.8947 41.0302V46.2385H88.0531C88.6158 46.2385 89.0732 46.7003 89.0732 47.2684V106.97C89.0732 107.538 88.6158 108 88.0531 108L43.1985 107.997C42.6359 107.997 42.1785 107.535 42.1785 106.967V101.759H37.0201C36.4574 101.759 36 101.297 36 100.729V54.1308C36 54.114 36 54.0972 36.0028 54.0832V54.0748L36.0055 54.0552V54.0496C36.0055 54.0412 36.0083 54.0329 36.0083 54.0273C36.0111 54.0105 36.0111 53.9937 36.0139 53.9769L36.0166 53.9545V53.9489L36.0222 53.9265V53.9237C36.0249 53.9153 36.0249 53.9097 36.0277 53.9013V53.8985L36.0333 53.8761V53.8733C36.036 53.8593 36.0416 53.8425 36.0471 53.8285V53.823L36.0527 53.8034V53.8006C36.0582 53.7866 36.0638 53.7726 36.0693 53.7558L36.0721 53.753L36.0748 53.7474L36.0804 53.7306L36.0832 53.725L36.0859 53.7222L36.0915 53.711L36.097 53.7054L36.1053 53.6886V53.683L36.1136 53.6662L36.1192 53.6606L36.1275 53.6466L36.1331 53.6382L36.1414 53.6242L36.1525 53.6019L36.1608 53.5935L36.1691 53.5823V53.5795L36.1746 53.5739L36.1857 53.5599L36.1913 53.5515L36.194 53.5487L36.2023 53.5375L36.2079 53.5291L36.2134 53.5235L36.219 53.5151L36.2273 53.5039L36.2356 53.4955L36.2439 53.4843L36.255 53.4731L36.2633 53.4619L36.2689 53.4535L36.2716 53.4507L36.28 53.4395L36.291 53.4283L36.2994 53.4171L36.3326 53.3836L36.3437 53.3752L36.352 53.3668L36.3631 53.3584L48.9834 40.3638C49.1719 40.1399 49.4519 40.0002 49.7624 40.0002ZM70.3131 61.2757L75.8097 66.0418C76.6358 64.774 77.1181 63.2544 77.1181 61.6227C77.1181 59.4005 76.2256 57.3882 74.7842 55.9329C74.0912 55.2333 73.2735 54.6624 72.3671 54.2593L70.3131 61.2757ZM74.4848 67.6007L68.8828 62.745L61.7095 64.5082C62.1142 65.5689 62.7323 66.5232 63.5168 67.3125C64.9581 68.7678 66.9511 69.669 69.152 69.669C71.2032 69.669 73.0711 68.8853 74.4848 67.6007ZM61.2294 62.5127L68.3396 60.7663L70.4158 53.6772C70.0056 53.61 69.5814 53.5765 69.1518 53.5765C66.9509 53.5765 64.958 54.4776 63.5166 55.933C62.0753 57.3883 61.1827 59.4005 61.1827 61.6227C61.1827 61.9222 61.1962 62.2188 61.2294 62.5127ZM40.2962 95.6635H63.1894C63.752 95.6635 64.2094 95.2018 64.2094 94.6336C64.2094 94.0655 63.752 93.6037 63.1894 93.6037H61.9393V86.1173C61.9393 85.5492 61.4819 85.0874 60.9192 85.0874H57.1189C56.5562 85.0874 56.0989 85.5492 56.0989 86.1173V93.6008H54.6631V82.0005C54.6631 81.4324 54.2057 80.9706 53.643 80.9706H49.8428C49.2801 80.9706 48.8227 81.4324 48.8227 82.0005V93.6037H47.3869V77.696C47.3869 77.1279 46.9295 76.6661 46.3668 76.6661H42.5666C42.0039 76.6661 41.5465 77.1279 41.5465 77.696V93.6037H40.2964C39.7337 93.6037 39.2764 94.0655 39.2764 94.6336C39.2764 95.2018 39.7335 95.6635 40.2962 95.6635ZM43.5864 93.6009H45.3466V78.7256H43.5864V93.6009ZM50.8627 93.6009H52.6228V83.0302H50.8627V93.6009ZM58.1389 93.6009H59.8991V87.1471H58.1389V93.6009ZM67.3886 83.4192H78.9721C79.5348 83.4192 79.9921 82.9574 79.9921 82.3893C79.9921 81.8212 79.5348 81.3594 78.9721 81.3594H67.3886C66.8259 81.3594 66.3685 81.8212 66.3685 82.3893C66.3685 82.9574 66.8259 83.4192 67.3886 83.4192ZM62.0721 54.4776C60.2593 56.3079 59.1394 58.8323 59.1394 61.6255C59.1394 64.4157 60.2593 66.943 62.0721 68.7734C63.8849 70.6037 66.3851 71.7344 69.1515 71.7344C74.6786 71.7344 79.1604 67.2089 79.1604 61.6286C79.1604 58.8383 78.0406 56.3111 76.2278 54.4807C74.415 52.6504 71.9147 51.5197 69.1484 51.5197C66.3848 51.5169 63.8821 52.6472 62.0721 54.4776ZM50.7852 42.0598V54.1308C50.7852 54.6989 50.3278 55.1607 49.7651 55.1607H38.0425V99.6991H80.8598L80.8571 42.0602L50.7852 42.0598ZM39.4479 53.0977H48.7422V43.5429L39.4479 53.0977ZM55.1641 56.9795H43.5778C43.0151 56.9795 42.5577 57.4413 42.5577 58.0094C42.5577 58.5775 43.0151 59.0393 43.5778 59.0393H55.1613C55.724 59.0393 56.1813 58.5775 56.1813 58.0094C56.1841 57.4413 55.7268 56.9795 55.1641 56.9795ZM55.1641 62.3138H43.5778C43.0151 62.3138 42.5577 62.7756 42.5577 63.3437C42.5577 63.9118 43.0151 64.3736 43.5778 64.3736H55.1613C55.724 64.3736 56.1813 63.9118 56.1813 63.3437C56.1841 62.7756 55.7268 62.3138 55.1641 62.3138ZM55.1641 67.6481H46.4524C45.8897 67.6481 45.4323 68.1099 45.4323 68.678C45.4323 69.2461 45.8897 69.7079 46.4524 69.7079H55.1641C55.7268 69.7079 56.1842 69.2461 56.1842 68.678C56.1842 68.1099 55.7268 67.6481 55.1641 67.6481ZM67.3884 94.0871H76.1002C76.6629 94.0871 77.1202 93.6253 77.1202 93.0572C77.1202 92.489 76.6629 92.0273 76.1002 92.0273L67.3884 92.0245C66.8257 92.0245 66.3684 92.4862 66.3684 93.0544C66.3684 93.6253 66.8257 94.0871 67.3884 94.0871ZM82.8967 48.2978V100.729C82.8967 101.297 82.4394 101.759 81.8767 101.759H44.2182V105.937H87.0355V48.2981L82.8967 48.2978ZM67.3884 88.753H78.9719C79.5346 88.753 79.992 88.2912 79.992 87.7231C79.992 87.155 79.5346 86.6932 78.9719 86.6932H67.3884C66.8257 86.6932 66.3684 87.155 66.3684 87.7231C66.3684 88.2912 66.8257 88.753 67.3884 88.753Z" fill="white"/>
</g>
<defs>
<linearGradient id="paint0_linear_2225_3894" x1="-2.00001" y1="314" x2="321.5" y2="-9.49999" gradientUnits="userSpaceOnUse">
<stop stop-color="#11296A"/>
<stop offset="1" stop-color="#2150D0"/>
</linearGradient>
<linearGradient id="paint1_linear_2225_3894" x1="-2.00001" y1="314" x2="321.5" y2="-9.49999" gradientUnits="userSpaceOnUse">
<stop stop-color="#11296A"/>
<stop offset="1" stop-color="#2150D0"/>
</linearGradient>
<linearGradient id="paint2_linear_2225_3894" x1="367.787" y1="-128" x2="367.787" y2="216.727" gradientUnits="userSpaceOnUse">
<stop stop-color="white"/>
<stop offset="1" stop-color="white" stop-opacity="0"/>
</linearGradient>
<linearGradient id="paint3_linear_2225_3894" x1="465.787" y1="-128" x2="465.787" y2="216.727" gradientUnits="userSpaceOnUse">
<stop stop-color="white"/>
<stop offset="1" stop-color="white" stop-opacity="0"/>
</linearGradient>
<clipPath id="clip0_2225_3894">
<rect width="53.0732" height="68" fill="white" transform="translate(36 40)"/>
</clipPath>
</defs>
</svg>
