<svg width="285" height="300" viewBox="0 0 285 300" fill="none" xmlns="http://www.w3.org/2000/svg">
<rect width="285" height="300" rx="10" transform="matrix(1 0 0 -1 0 300)" fill="url(#paint0_linear_2313_3996)"/>
<mask id="mask0_2313_3996" style="mask-type:alpha" maskUnits="userSpaceOnUse" x="0" y="0" width="285" height="300">
<rect width="285" height="300" rx="10" transform="matrix(1 0 0 -1 0 300)" fill="url(#paint1_linear_2313_3996)"/>
</mask>
<g mask="url(#mask0_2313_3996)">
<rect x="338.605" y="-128" width="58.3621" height="344.727" rx="29.1811" transform="rotate(43.8011 338.605 -128)" fill="url(#paint2_linear_2313_3996)" fill-opacity="0.24"/>
<rect x="436.605" y="-128" width="58.3621" height="344.727" rx="29.1811" transform="rotate(43.8011 436.605 -128)" fill="url(#paint3_linear_2313_3996)" fill-opacity="0.24"/>
</g>
<path d="M24.54 239V224.1H29.42C30.9667 224.1 32.3067 224.413 33.44 225.04C34.5867 225.653 35.4733 226.52 36.1 227.64C36.7267 228.76 37.04 230.06 37.04 231.54C37.04 233.007 36.7267 234.307 36.1 235.44C35.4733 236.56 34.5867 237.433 33.44 238.06C32.3067 238.687 30.9667 239 29.42 239H24.54ZM26.9 236.9H29.46C30.5133 236.9 31.4267 236.68 32.2 236.24C32.9867 235.8 33.5933 235.18 34.02 234.38C34.4467 233.58 34.66 232.633 34.66 231.54C34.66 230.447 34.44 229.507 34 228.72C33.5733 227.92 32.9733 227.3 32.2 226.86C31.4267 226.42 30.5133 226.2 29.46 226.2H26.9V236.9ZM42.2866 239.24C41.5532 239.24 40.9066 239.113 40.3466 238.86C39.7999 238.593 39.3732 238.233 39.0666 237.78C38.7599 237.313 38.6066 236.767 38.6066 236.14C38.6066 235.553 38.7332 235.027 38.9866 234.56C39.2532 234.093 39.6599 233.7 40.2066 233.38C40.7532 233.06 41.4399 232.833 42.2666 232.7L46.0266 232.08V233.86L42.7066 234.44C42.1066 234.547 41.6666 234.74 41.3866 235.02C41.1066 235.287 40.9666 235.633 40.9666 236.06C40.9666 236.473 41.1199 236.813 41.4266 237.08C41.7466 237.333 42.1532 237.46 42.6466 237.46C43.2599 237.46 43.7932 237.327 44.2466 237.06C44.7132 236.793 45.0732 236.44 45.3266 236C45.5799 235.547 45.7066 235.047 45.7066 234.5V231.72C45.7066 231.187 45.5066 230.753 45.1066 230.42C44.7199 230.073 44.1999 229.9 43.5466 229.9C42.9466 229.9 42.4199 230.06 41.9666 230.38C41.5266 230.687 41.1999 231.087 40.9866 231.58L39.1066 230.64C39.3066 230.107 39.6332 229.64 40.0866 229.24C40.5399 228.827 41.0666 228.507 41.6666 228.28C42.2799 228.053 42.9266 227.94 43.6066 227.94C44.4599 227.94 45.2132 228.1 45.8666 228.42C46.5332 228.74 47.0466 229.187 47.4066 229.76C47.7799 230.32 47.9666 230.973 47.9666 231.72V239H45.8066V237.04L46.2666 237.1C46.0132 237.54 45.6866 237.92 45.2866 238.24C44.8999 238.56 44.4532 238.807 43.9466 238.98C43.4532 239.153 42.8999 239.24 42.2866 239.24ZM55.0938 239.12C53.9604 239.12 53.0804 238.8 52.4538 238.16C51.8271 237.52 51.5138 236.62 51.5138 235.46V230.22H49.6138V228.18H49.9138C50.4204 228.18 50.8138 228.033 51.0938 227.74C51.3738 227.447 51.5138 227.047 51.5138 226.54V225.7H53.7738V228.18H56.2338V230.22H53.7738V235.36C53.7738 235.733 53.8338 236.053 53.9538 236.32C54.0738 236.573 54.2671 236.773 54.5338 236.92C54.8004 237.053 55.1471 237.12 55.5738 237.12C55.6804 237.12 55.8004 237.113 55.9338 237.1C56.0671 237.087 56.1938 237.073 56.3138 237.06V239C56.1271 239.027 55.9204 239.053 55.6938 239.08C55.4671 239.107 55.2671 239.12 55.0938 239.12ZM61.6616 239.24C60.9282 239.24 60.2816 239.113 59.7216 238.86C59.1749 238.593 58.7482 238.233 58.4416 237.78C58.1349 237.313 57.9816 236.767 57.9816 236.14C57.9816 235.553 58.1082 235.027 58.3616 234.56C58.6282 234.093 59.0349 233.7 59.5816 233.38C60.1282 233.06 60.8149 232.833 61.6416 232.7L65.4016 232.08V233.86L62.0816 234.44C61.4816 234.547 61.0416 234.74 60.7616 235.02C60.4816 235.287 60.3416 235.633 60.3416 236.06C60.3416 236.473 60.4949 236.813 60.8016 237.08C61.1216 237.333 61.5282 237.46 62.0216 237.46C62.6349 237.46 63.1682 237.327 63.6216 237.06C64.0882 236.793 64.4482 236.44 64.7016 236C64.9549 235.547 65.0816 235.047 65.0816 234.5V231.72C65.0816 231.187 64.8816 230.753 64.4816 230.42C64.0949 230.073 63.5749 229.9 62.9216 229.9C62.3216 229.9 61.7949 230.06 61.3416 230.38C60.9016 230.687 60.5749 231.087 60.3616 231.58L58.4816 230.64C58.6816 230.107 59.0082 229.64 59.4616 229.24C59.9149 228.827 60.4416 228.507 61.0416 228.28C61.6549 228.053 62.3016 227.94 62.9816 227.94C63.8349 227.94 64.5882 228.1 65.2416 228.42C65.9082 228.74 66.4216 229.187 66.7816 229.76C67.1549 230.32 67.3416 230.973 67.3416 231.72V239H65.1816V237.04L65.6416 237.1C65.3882 237.54 65.0616 237.92 64.6616 238.24C64.2749 238.56 63.8282 238.807 63.3216 238.98C62.8282 239.153 62.2749 239.24 61.6616 239.24ZM70.3241 234.58V232.58H78.3241V234.58H70.3241ZM81.5322 239V224.1H86.4122C87.9589 224.1 89.2989 224.413 90.4322 225.04C91.5789 225.653 92.4655 226.52 93.0922 227.64C93.7189 228.76 94.0322 230.06 94.0322 231.54C94.0322 233.007 93.7189 234.307 93.0922 235.44C92.4655 236.56 91.5789 237.433 90.4322 238.06C89.2989 238.687 87.9589 239 86.4122 239H81.5322ZM83.8922 236.9H86.4522C87.5055 236.9 88.4189 236.68 89.1922 236.24C89.9789 235.8 90.5855 235.18 91.0122 234.38C91.4389 233.58 91.6522 232.633 91.6522 231.54C91.6522 230.447 91.4322 229.507 90.9922 228.72C90.5655 227.92 89.9655 227.3 89.1922 226.86C88.4189 226.42 87.5055 226.2 86.4522 226.2H83.8922V236.9ZM96.1364 239V228.18H98.2964V230.36L98.0964 230.04C98.3364 229.333 98.7231 228.827 99.2564 228.52C99.7897 228.2 100.43 228.04 101.176 228.04H101.836V230.1H100.896C100.15 230.1 99.5431 230.333 99.0764 230.8C98.6231 231.253 98.3964 231.907 98.3964 232.76V239H96.1364ZM103.382 239V228.18H105.643V239H103.382ZM103.382 226.7V224.1H105.643V226.7H103.382ZM111.425 239L107.185 228.18H109.645L112.905 237H112.005L115.265 228.18H117.745L113.485 239H111.425ZM124.166 239.24C123.086 239.24 122.126 238.993 121.286 238.5C120.459 237.993 119.812 237.313 119.346 236.46C118.879 235.593 118.646 234.627 118.646 233.56C118.646 232.467 118.879 231.5 119.346 230.66C119.826 229.82 120.466 229.16 121.266 228.68C122.066 228.187 122.972 227.94 123.986 227.94C124.799 227.94 125.526 228.08 126.166 228.36C126.806 228.64 127.346 229.027 127.786 229.52C128.226 230 128.559 230.553 128.786 231.18C129.026 231.807 129.146 232.473 129.146 233.18C129.146 233.353 129.139 233.533 129.126 233.72C129.112 233.907 129.086 234.08 129.046 234.24H120.426V232.44H127.766L126.686 233.26C126.819 232.607 126.772 232.027 126.546 231.52C126.332 231 125.999 230.593 125.546 230.3C125.106 229.993 124.586 229.84 123.986 229.84C123.386 229.84 122.852 229.993 122.386 230.3C121.919 230.593 121.559 231.02 121.306 231.58C121.052 232.127 120.952 232.793 121.006 233.58C120.939 234.313 121.039 234.953 121.306 235.5C121.586 236.047 121.972 236.473 122.466 236.78C122.972 237.087 123.546 237.24 124.186 237.24C124.839 237.24 125.392 237.093 125.846 236.8C126.312 236.507 126.679 236.127 126.946 235.66L128.786 236.56C128.572 237.067 128.239 237.527 127.786 237.94C127.346 238.34 126.812 238.66 126.186 238.9C125.572 239.127 124.899 239.24 124.166 239.24ZM131.351 239V228.18H133.511V230.3L133.251 230.02C133.518 229.34 133.945 228.827 134.531 228.48C135.118 228.12 135.798 227.94 136.571 227.94C137.371 227.94 138.078 228.113 138.691 228.46C139.305 228.807 139.785 229.287 140.131 229.9C140.478 230.513 140.651 231.22 140.651 232.02V239H138.411V232.62C138.411 232.073 138.311 231.613 138.111 231.24C137.911 230.853 137.625 230.56 137.251 230.36C136.891 230.147 136.478 230.04 136.011 230.04C135.545 230.04 135.125 230.147 134.751 230.36C134.391 230.56 134.111 230.853 133.911 231.24C133.711 231.627 133.611 232.087 133.611 232.62V239H131.351ZM146.786 239V224.1H151.666C153.213 224.1 154.553 224.413 155.686 225.04C156.833 225.653 157.719 226.52 158.346 227.64C158.973 228.76 159.286 230.06 159.286 231.54C159.286 233.007 158.973 234.307 158.346 235.44C157.719 236.56 156.833 237.433 155.686 238.06C154.553 238.687 153.213 239 151.666 239H146.786ZM149.146 236.9H151.706C152.759 236.9 153.673 236.68 154.446 236.24C155.233 235.8 155.839 235.18 156.266 234.38C156.693 233.58 156.906 232.633 156.906 231.54C156.906 230.447 156.686 229.507 156.246 228.72C155.819 227.92 155.219 227.3 154.446 226.86C153.673 226.42 152.759 226.2 151.706 226.2H149.146V236.9ZM166.47 239.24C165.39 239.24 164.43 238.993 163.59 238.5C162.764 237.993 162.117 237.313 161.65 236.46C161.184 235.593 160.95 234.627 160.95 233.56C160.95 232.467 161.184 231.5 161.65 230.66C162.13 229.82 162.77 229.16 163.57 228.68C164.37 228.187 165.277 227.94 166.29 227.94C167.104 227.94 167.83 228.08 168.47 228.36C169.11 228.64 169.65 229.027 170.09 229.52C170.53 230 170.864 230.553 171.09 231.18C171.33 231.807 171.45 232.473 171.45 233.18C171.45 233.353 171.444 233.533 171.43 233.72C171.417 233.907 171.39 234.08 171.35 234.24H162.73V232.44H170.07L168.99 233.26C169.124 232.607 169.077 232.027 168.85 231.52C168.637 231 168.304 230.593 167.85 230.3C167.41 229.993 166.89 229.84 166.29 229.84C165.69 229.84 165.157 229.993 164.69 230.3C164.224 230.593 163.864 231.02 163.61 231.58C163.357 232.127 163.257 232.793 163.31 233.58C163.244 234.313 163.344 234.953 163.61 235.5C163.89 236.047 164.277 236.473 164.77 236.78C165.277 237.087 165.85 237.24 166.49 237.24C167.144 237.24 167.697 237.093 168.15 236.8C168.617 236.507 168.984 236.127 169.25 235.66L171.09 236.56C170.877 237.067 170.544 237.527 170.09 237.94C169.65 238.34 169.117 238.66 168.49 238.9C167.877 239.127 167.204 239.24 166.47 239.24ZM178.796 239.24C177.716 239.24 176.756 238.993 175.916 238.5C175.089 237.993 174.429 237.313 173.936 236.46C173.456 235.607 173.216 234.64 173.216 233.56C173.216 232.493 173.456 231.533 173.936 230.68C174.416 229.827 175.076 229.16 175.916 228.68C176.756 228.187 177.716 227.94 178.796 227.94C179.529 227.94 180.216 228.073 180.856 228.34C181.496 228.593 182.049 228.947 182.516 229.4C182.996 229.853 183.349 230.38 183.576 230.98L181.596 231.9C181.369 231.34 181.003 230.893 180.496 230.56C180.003 230.213 179.436 230.04 178.796 230.04C178.183 230.04 177.629 230.193 177.136 230.5C176.656 230.793 176.276 231.213 175.996 231.76C175.716 232.293 175.576 232.9 175.576 233.58C175.576 234.26 175.716 234.873 175.996 235.42C176.276 235.953 176.656 236.373 177.136 236.68C177.629 236.987 178.183 237.14 178.796 237.14C179.449 237.14 180.016 236.973 180.496 236.64C180.989 236.293 181.356 235.833 181.596 235.26L183.576 236.2C183.363 236.773 183.016 237.293 182.536 237.76C182.069 238.213 181.516 238.573 180.876 238.84C180.236 239.107 179.543 239.24 178.796 239.24ZM185.785 239V228.18H188.045V239H185.785ZM185.785 226.7V224.1H188.045V226.7H185.785ZM194.687 239.24C193.581 239.24 192.607 238.967 191.767 238.42C190.941 237.873 190.361 237.14 190.027 236.22L191.767 235.4C192.061 236.013 192.461 236.5 192.967 236.86C193.487 237.22 194.061 237.4 194.687 237.4C195.221 237.4 195.654 237.28 195.987 237.04C196.321 236.8 196.487 236.473 196.487 236.06C196.487 235.793 196.414 235.58 196.267 235.42C196.121 235.247 195.934 235.107 195.707 235C195.494 234.893 195.274 234.813 195.047 234.76L193.347 234.28C192.414 234.013 191.714 233.613 191.247 233.08C190.794 232.533 190.567 231.9 190.567 231.18C190.567 230.527 190.734 229.96 191.067 229.48C191.401 228.987 191.861 228.607 192.447 228.34C193.034 228.073 193.694 227.94 194.427 227.94C195.414 227.94 196.294 228.187 197.067 228.68C197.841 229.16 198.387 229.833 198.707 230.7L196.967 231.52C196.754 231 196.414 230.587 195.947 230.28C195.494 229.973 194.981 229.82 194.407 229.82C193.914 229.82 193.521 229.94 193.227 230.18C192.934 230.407 192.787 230.707 192.787 231.08C192.787 231.333 192.854 231.547 192.987 231.72C193.121 231.88 193.294 232.013 193.507 232.12C193.721 232.213 193.941 232.293 194.167 232.36L195.927 232.88C196.821 233.133 197.507 233.533 197.987 234.08C198.467 234.613 198.707 235.253 198.707 236C198.707 236.64 198.534 237.207 198.187 237.7C197.854 238.18 197.387 238.56 196.787 238.84C196.187 239.107 195.487 239.24 194.687 239.24ZM200.922 239V228.18H203.182V239H200.922ZM200.922 226.7V224.1H203.182V226.7H200.922ZM211.044 239.24C210.004 239.24 209.051 238.993 208.184 238.5C207.331 238.007 206.651 237.333 206.144 236.48C205.637 235.627 205.384 234.66 205.384 233.58C205.384 232.487 205.637 231.52 206.144 230.68C206.651 229.827 207.331 229.16 208.184 228.68C209.037 228.187 209.991 227.94 211.044 227.94C212.111 227.94 213.064 228.187 213.904 228.68C214.757 229.16 215.431 229.827 215.924 230.68C216.431 231.52 216.684 232.487 216.684 233.58C216.684 234.673 216.431 235.647 215.924 236.5C215.417 237.353 214.737 238.027 213.884 238.52C213.031 239 212.084 239.24 211.044 239.24ZM211.044 237.14C211.684 237.14 212.251 236.987 212.744 236.68C213.237 236.373 213.624 235.953 213.904 235.42C214.197 234.873 214.344 234.26 214.344 233.58C214.344 232.9 214.197 232.293 213.904 231.76C213.624 231.227 213.237 230.807 212.744 230.5C212.251 230.193 211.684 230.04 211.044 230.04C210.417 230.04 209.851 230.193 209.344 230.5C208.851 230.807 208.457 231.227 208.164 231.76C207.884 232.293 207.744 232.9 207.744 233.58C207.744 234.26 207.884 234.873 208.164 235.42C208.457 235.953 208.851 236.373 209.344 236.68C209.851 236.987 210.417 237.14 211.044 237.14ZM218.89 239V228.18H221.05V230.3L220.79 230.02C221.057 229.34 221.484 228.827 222.07 228.48C222.657 228.12 223.337 227.94 224.11 227.94C224.91 227.94 225.617 228.113 226.23 228.46C226.844 228.807 227.324 229.287 227.67 229.9C228.017 230.513 228.19 231.22 228.19 232.02V239H225.95V232.62C225.95 232.073 225.85 231.613 225.65 231.24C225.45 230.853 225.164 230.56 224.79 230.36C224.43 230.147 224.017 230.04 223.55 230.04C223.084 230.04 222.664 230.147 222.29 230.36C221.93 230.56 221.65 230.853 221.45 231.24C221.25 231.627 221.15 232.087 221.15 232.62V239H218.89ZM24.54 272V257.1H26.74L32.34 264.86H31.24L36.74 257.1H38.94V272H36.6V259.88L37.48 260.12L31.86 267.8H31.62L26.12 260.12L26.9 259.88V272H24.54ZM45.0405 272.24C44.3071 272.24 43.6605 272.113 43.1005 271.86C42.5538 271.593 42.1271 271.233 41.8205 270.78C41.5138 270.313 41.3605 269.767 41.3605 269.14C41.3605 268.553 41.4871 268.027 41.7405 267.56C42.0071 267.093 42.4138 266.7 42.9605 266.38C43.5071 266.06 44.1938 265.833 45.0205 265.7L48.7805 265.08V266.86L45.4605 267.44C44.8605 267.547 44.4205 267.74 44.1405 268.02C43.8605 268.287 43.7205 268.633 43.7205 269.06C43.7205 269.473 43.8738 269.813 44.1805 270.08C44.5005 270.333 44.9071 270.46 45.4005 270.46C46.0138 270.46 46.5471 270.327 47.0005 270.06C47.4671 269.793 47.8271 269.44 48.0805 269C48.3338 268.547 48.4605 268.047 48.4605 267.5V264.72C48.4605 264.187 48.2605 263.753 47.8605 263.42C47.4738 263.073 46.9538 262.9 46.3005 262.9C45.7005 262.9 45.1738 263.06 44.7205 263.38C44.2805 263.687 43.9538 264.087 43.7405 264.58L41.8605 263.64C42.0605 263.107 42.3871 262.64 42.8405 262.24C43.2938 261.827 43.8205 261.507 44.4205 261.28C45.0338 261.053 45.6805 260.94 46.3605 260.94C47.2138 260.94 47.9671 261.1 48.6205 261.42C49.2871 261.74 49.8005 262.187 50.1605 262.76C50.5338 263.32 50.7205 263.973 50.7205 264.72V272H48.5605V270.04L49.0205 270.1C48.7671 270.54 48.4405 270.92 48.0405 271.24C47.6538 271.56 47.2071 271.807 46.7005 271.98C46.2071 272.153 45.6538 272.24 45.0405 272.24ZM53.363 272V256.86H55.623V267L54.743 266.78L60.163 261.18H62.983L58.903 265.52L63.163 272H60.563L56.763 266.26L58.103 266.08L54.903 269.48L55.623 267.98V272H53.363ZM64.7106 272V261.18H66.9706V272H64.7106ZM64.7106 259.7V257.1H66.9706V259.7H64.7106ZM69.613 272V261.18H71.773V263.3L71.513 263.02C71.7796 262.34 72.2063 261.827 72.793 261.48C73.3796 261.12 74.0596 260.94 74.833 260.94C75.633 260.94 76.3396 261.113 76.953 261.46C77.5663 261.807 78.0463 262.287 78.393 262.9C78.7396 263.513 78.913 264.22 78.913 265.02V272H76.673V265.62C76.673 265.073 76.573 264.613 76.373 264.24C76.173 263.853 75.8863 263.56 75.513 263.36C75.153 263.147 74.7396 263.04 74.273 263.04C73.8063 263.04 73.3863 263.147 73.013 263.36C72.653 263.56 72.373 263.853 72.173 264.24C71.973 264.627 71.873 265.087 71.873 265.62V272H69.613ZM86.5517 276.4C85.7651 276.4 85.0384 276.273 84.3717 276.02C83.7051 275.767 83.1317 275.413 82.6517 274.96C82.1717 274.52 81.8117 274 81.5717 273.4L83.6517 272.54C83.8384 273.047 84.1784 273.467 84.6717 273.8C85.1784 274.133 85.7984 274.3 86.5317 274.3C87.1051 274.3 87.6184 274.187 88.0717 273.96C88.5251 273.747 88.8851 273.427 89.1517 273C89.4184 272.587 89.5517 272.087 89.5517 271.5V269.06L89.9517 269.52C89.5784 270.213 89.0584 270.74 88.3917 271.1C87.7384 271.46 86.9984 271.64 86.1717 271.64C85.1717 271.64 84.2717 271.407 83.4717 270.94C82.6717 270.473 82.0384 269.833 81.5717 269.02C81.1184 268.207 80.8917 267.293 80.8917 266.28C80.8917 265.253 81.1184 264.34 81.5717 263.54C82.0384 262.74 82.6651 262.107 83.4517 261.64C84.2384 261.173 85.1384 260.94 86.1517 260.94C86.9784 260.94 87.7117 261.12 88.3517 261.48C89.0051 261.827 89.5384 262.333 89.9517 263L89.6517 263.56V261.18H91.7917V271.5C91.7917 272.433 91.5651 273.267 91.1117 274C90.6717 274.747 90.0584 275.333 89.2717 275.76C88.4851 276.187 87.5784 276.4 86.5517 276.4ZM86.4317 269.54C87.0317 269.54 87.5651 269.4 88.0317 269.12C88.4984 268.827 88.8651 268.44 89.1317 267.96C89.4117 267.467 89.5517 266.913 89.5517 266.3C89.5517 265.687 89.4117 265.133 89.1317 264.64C88.8517 264.147 88.4784 263.76 88.0117 263.48C87.5451 263.187 87.0184 263.04 86.4317 263.04C85.8184 263.04 85.2717 263.187 84.7917 263.48C84.3117 263.76 83.9317 264.147 83.6517 264.64C83.3851 265.12 83.2517 265.673 83.2517 266.3C83.2517 266.9 83.3851 267.447 83.6517 267.94C83.9317 268.433 84.3117 268.827 84.7917 269.12C85.2717 269.4 85.8184 269.54 86.4317 269.54Z" fill="white"/>
<g clip-path="url(#clip0_2313_3996)">
<path d="M25.3258 98.9096H59.7901C61.3418 98.9096 62.6016 97.6462 62.6016 96.0989V93.849C63.1995 93.92 63.7974 93.9555 64.3953 93.9555C65.6338 93.9555 66.851 93.8064 68.0325 93.5296L73.741 103.651C74.346 104.722 75.3354 105.496 76.524 105.83C76.9369 105.943 77.3568 106 77.7768 106C78.5597 106 79.3356 105.801 80.0402 105.404L80.3178 105.248C82.5386 103.998 83.3358 101.181 82.083 98.9663L76.2678 88.6607C77.8622 86.8934 79.0936 84.7571 79.7769 82.3226C82.1471 73.8694 77.186 65.0614 68.7016 62.6979C66.6588 62.1301 64.5875 61.9882 62.6016 62.2153V42.8106C62.6016 41.2634 61.3418 40 59.7901 40H39.4902C39.419 40 39.3549 40.0071 39.2909 40.0213C39.1983 40.0426 39.1129 40.071 39.0346 40.1136C39.0133 40.1207 38.9919 40.1349 38.9706 40.149C38.8923 40.1987 38.814 40.2484 38.7428 40.3194L22.8203 56.1824C22.7562 56.2463 22.6993 56.3243 22.6495 56.4095C22.6352 56.4308 22.6281 56.4521 22.6139 56.4663C22.5712 56.5515 22.5427 56.6366 22.5214 56.7218C22.5071 56.7928 22.5 56.8567 22.5 56.9276V96.0918C22.5 97.6391 23.767 98.9025 25.3186 98.9025L25.3258 98.9096ZM60.4663 42.8106V62.6128C55.1137 63.9826 50.6153 68.0708 49.0209 73.7417C46.6507 82.1949 51.6118 91.0029 60.0962 93.3664C60.2172 93.4019 60.3453 93.4232 60.4663 93.4587V96.0989C60.4663 96.4751 60.1602 96.7803 59.7901 96.7803H25.3258C24.9485 96.7803 24.6425 96.4751 24.6425 96.0989V57.9994H38.1164C39.4617 57.9994 40.5578 56.9063 40.5578 55.5649V42.1293H59.7901C60.1602 42.1293 60.4663 42.4345 60.4663 42.8106ZM68.1322 64.7491C75.4777 66.8003 79.784 74.4302 77.727 81.7548C75.6699 89.0795 68.0183 93.3664 60.6727 91.3223C53.3272 89.2711 49.0209 81.6413 51.0779 74.3166C52.7862 68.234 58.3594 64.2381 64.4024 64.2381C65.6338 64.2381 66.8866 64.4013 68.1251 64.7491H68.1322ZM79.001 103.558C78.4245 103.885 77.7483 103.963 77.1077 103.786C76.4671 103.608 75.9333 103.189 75.6059 102.614L70.118 92.8908C71.7765 92.2521 73.321 91.3507 74.6805 90.208L80.2182 100.031C80.8944 101.223 80.4673 102.742 79.2715 103.416L78.9939 103.573L79.001 103.558ZM38.4225 55.5649C38.4225 55.7281 38.2801 55.8701 38.1164 55.8701H26.1514L38.4225 43.6339V55.5649Z" fill="white"/>
<path d="M36.2294 83.8281H29.9017C29.3109 83.8281 28.834 84.3037 28.834 84.8928V91.2025C28.834 91.7916 29.3109 92.2671 29.9017 92.2671H36.2294C36.8201 92.2671 37.297 91.7916 37.297 91.2025V84.8928C37.297 84.3037 36.8201 83.8281 36.2294 83.8281ZM35.1617 90.1378H30.9693V85.9574H35.1617V90.1378Z" fill="white"/>
<path d="M41.4902 91.1935C41.4902 91.7826 41.9671 92.2582 42.5579 92.2582H50.1668C50.7576 92.2582 51.2345 91.7826 51.2345 91.1935C51.2345 90.6044 50.7576 90.1289 50.1668 90.1289H42.5579C41.9671 90.1289 41.4902 90.6044 41.4902 91.1935Z" fill="white"/>
<path d="M36.2294 72.2734H29.9017C29.3109 72.2734 28.834 72.749 28.834 73.3381V79.6478C28.834 80.2369 29.3109 80.7124 29.9017 80.7124H36.2294C36.8201 80.7124 37.297 80.2369 37.297 79.6478V73.3381C37.297 72.749 36.8201 72.2734 36.2294 72.2734ZM35.1617 78.5831H30.9693V74.4027H35.1617V78.5831Z" fill="white"/>
<path d="M42.5579 80.7113H45.5901C46.1809 80.7113 46.6578 80.2358 46.6578 79.6467C46.6578 79.0576 46.1809 78.582 45.5901 78.582H42.5579C41.9671 78.582 41.4902 79.0576 41.4902 79.6467C41.4902 80.2358 41.9671 80.7113 42.5579 80.7113Z" fill="white"/>
<path d="M36.2294 60.7266H29.9017C29.3109 60.7266 28.834 61.2021 28.834 61.7912V68.1009C28.834 68.69 29.3109 69.1655 29.9017 69.1655H36.2294C36.8201 69.1655 37.297 68.69 37.297 68.1009V61.7912C37.297 61.2021 36.8201 60.7266 36.2294 60.7266ZM35.1617 67.0363H30.9693V62.8558H35.1617V67.0363Z" fill="white"/>
<path d="M42.5579 69.1644H47.6542C48.245 69.1644 48.7219 68.6889 48.7219 68.0998C48.7219 67.5107 48.245 67.0352 47.6542 67.0352H42.5579C41.9671 67.0352 41.4902 67.5107 41.4902 68.0998C41.4902 68.6889 41.9671 69.1644 42.5579 69.1644Z" fill="white"/>
<path d="M44.929 57.6175H55.2071C55.7979 57.6175 56.2748 57.142 56.2748 56.5529C56.2748 55.9638 55.7979 55.4883 55.2071 55.4883H44.929C44.3382 55.4883 43.8613 55.9638 43.8613 56.5529C43.8613 57.142 44.3382 57.6175 44.929 57.6175Z" fill="white"/>
<path d="M59.3769 69.1294C54.4514 71.8904 52.6933 78.1362 55.4692 83.0548C56.8145 85.4325 59.0068 87.1501 61.6403 87.8882C62.5585 88.1437 63.491 88.2715 64.4234 88.2715C66.1601 88.2715 67.8755 87.8243 69.4343 86.9513C74.3598 84.1904 76.1179 77.9446 73.342 73.026C71.9967 70.6483 69.8044 68.9307 67.1709 68.1925C64.5302 67.4544 61.7685 67.788 59.3769 69.1294ZM71.4771 74.0693C73.6694 77.9587 72.2814 82.9057 68.3809 85.0918C64.4803 87.2778 59.5192 85.8938 57.327 82.0043C55.1347 78.1149 56.5226 73.1679 60.4232 70.9819C61.6759 70.2792 63.0425 69.9456 64.3878 69.9456C67.2278 69.9456 69.9895 71.429 71.4771 74.0693Z" fill="white"/>
</g>
<defs>
<linearGradient id="paint0_linear_2313_3996" x1="-2.00001" y1="314" x2="321.5" y2="-9.49999" gradientUnits="userSpaceOnUse">
<stop stop-color="#11296A"/>
<stop offset="1" stop-color="#2150D0"/>
</linearGradient>
<linearGradient id="paint1_linear_2313_3996" x1="-2.00001" y1="314" x2="321.5" y2="-9.49999" gradientUnits="userSpaceOnUse">
<stop stop-color="#11296A"/>
<stop offset="1" stop-color="#2150D0"/>
</linearGradient>
<linearGradient id="paint2_linear_2313_3996" x1="367.787" y1="-128" x2="367.787" y2="216.727" gradientUnits="userSpaceOnUse">
<stop stop-color="white"/>
<stop offset="1" stop-color="white" stop-opacity="0"/>
</linearGradient>
<linearGradient id="paint3_linear_2313_3996" x1="465.787" y1="-128" x2="465.787" y2="216.727" gradientUnits="userSpaceOnUse">
<stop stop-color="white"/>
<stop offset="1" stop-color="white" stop-opacity="0"/>
</linearGradient>
<clipPath id="clip0_2313_3996">
<rect width="60.1765" height="66" fill="white" transform="translate(22.5 40)"/>
</clipPath>
</defs>
</svg>
