<svg width="285" height="300" viewBox="0 0 285 300" fill="none" xmlns="http://www.w3.org/2000/svg">
<rect width="285" height="300" rx="10" transform="matrix(1 0 0 -1 0 300)" fill="url(#paint0_linear_2313_4015)"/>
<mask id="mask0_2313_4015" style="mask-type:alpha" maskUnits="userSpaceOnUse" x="0" y="0" width="285" height="300">
<rect width="285" height="300" rx="10" transform="matrix(1 0 0 -1 0 300)" fill="url(#paint1_linear_2313_4015)"/>
</mask>
<g mask="url(#mask0_2313_4015)">
<rect x="338.605" y="-128" width="58.3621" height="344.727" rx="29.1811" transform="rotate(43.8011 338.605 -128)" fill="url(#paint2_linear_2313_4015)" fill-opacity="0.24"/>
<rect x="436.605" y="-128" width="58.3621" height="344.727" rx="29.1811" transform="rotate(43.8011 436.605 -128)" fill="url(#paint3_linear_2313_4015)" fill-opacity="0.24"/>
</g>
<path d="M24.54 239V224.1H34.36V226.2H26.9V230.48H33.96V232.58H26.9V236.9H34.36V239H24.54ZM36.3317 239V228.18H38.4917V230.3L38.2317 230.02C38.4984 229.34 38.9251 228.827 39.5117 228.48C40.0984 228.12 40.7784 227.94 41.5517 227.94C42.3517 227.94 43.0584 228.113 43.6717 228.46C44.2851 228.807 44.7651 229.287 45.1117 229.9C45.4584 230.513 45.6317 231.22 45.6317 232.02V239H43.3917V232.62C43.3917 232.073 43.2917 231.613 43.0917 231.24C42.8917 230.853 42.6051 230.56 42.2317 230.36C41.8717 230.147 41.4584 230.04 40.9917 230.04C40.5251 230.04 40.1051 230.147 39.7317 230.36C39.3717 230.56 39.0917 230.853 38.8917 231.24C38.6917 231.627 38.5917 232.087 38.5917 232.62V239H36.3317ZM48.0505 239V223.86H50.3105V230.3L49.9505 230.02C50.2171 229.34 50.6438 228.827 51.2305 228.48C51.8171 228.12 52.4971 227.94 53.2705 227.94C54.0705 227.94 54.7771 228.113 55.3905 228.46C56.0038 228.807 56.4838 229.287 56.8305 229.9C57.1771 230.513 57.3505 231.213 57.3505 232V239H55.1105V232.62C55.1105 232.073 55.0038 231.613 54.7905 231.24C54.5905 230.853 54.3105 230.56 53.9505 230.36C53.5905 230.147 53.1771 230.04 52.7105 230.04C52.2571 230.04 51.8438 230.147 51.4705 230.36C51.1105 230.56 50.8238 230.853 50.6105 231.24C50.4105 231.627 50.3105 232.087 50.3105 232.62V239H48.0505ZM63.0092 239.24C62.2759 239.24 61.6292 239.113 61.0692 238.86C60.5226 238.593 60.0959 238.233 59.7892 237.78C59.4826 237.313 59.3292 236.767 59.3292 236.14C59.3292 235.553 59.4559 235.027 59.7092 234.56C59.9759 234.093 60.3826 233.7 60.9292 233.38C61.4759 233.06 62.1626 232.833 62.9892 232.7L66.7492 232.08V233.86L63.4292 234.44C62.8292 234.547 62.3892 234.74 62.1092 235.02C61.8292 235.287 61.6892 235.633 61.6892 236.06C61.6892 236.473 61.8426 236.813 62.1492 237.08C62.4692 237.333 62.8759 237.46 63.3692 237.46C63.9826 237.46 64.5159 237.327 64.9692 237.06C65.4359 236.793 65.7959 236.44 66.0492 236C66.3026 235.547 66.4292 235.047 66.4292 234.5V231.72C66.4292 231.187 66.2292 230.753 65.8292 230.42C65.4426 230.073 64.9226 229.9 64.2692 229.9C63.6692 229.9 63.1426 230.06 62.6892 230.38C62.2492 230.687 61.9226 231.087 61.7092 231.58L59.8292 230.64C60.0292 230.107 60.3559 229.64 60.8092 229.24C61.2626 228.827 61.7892 228.507 62.3892 228.28C63.0026 228.053 63.6492 227.94 64.3292 227.94C65.1826 227.94 65.9359 228.1 66.5892 228.42C67.2559 228.74 67.7692 229.187 68.1292 229.76C68.5026 230.32 68.6892 230.973 68.6892 231.72V239H66.5292V237.04L66.9892 237.1C66.7359 237.54 66.4092 237.92 66.0092 238.24C65.6226 238.56 65.1759 238.807 64.6692 238.98C64.1759 239.153 63.6226 239.24 63.0092 239.24ZM71.3317 239V228.18H73.4917V230.3L73.2317 230.02C73.4984 229.34 73.9251 228.827 74.5117 228.48C75.0984 228.12 75.7784 227.94 76.5517 227.94C77.3517 227.94 78.0584 228.113 78.6717 228.46C79.2851 228.807 79.7651 229.287 80.1117 229.9C80.4584 230.513 80.6317 231.22 80.6317 232.02V239H78.3917V232.62C78.3917 232.073 78.2917 231.613 78.0917 231.24C77.8917 230.853 77.6051 230.56 77.2317 230.36C76.8717 230.147 76.4584 230.04 75.9917 230.04C75.5251 230.04 75.1051 230.147 74.7317 230.36C74.3717 230.56 74.0917 230.853 73.8917 231.24C73.6917 231.627 73.5917 232.087 73.5917 232.62V239H71.3317ZM88.1905 239.24C87.1105 239.24 86.1505 238.993 85.3105 238.5C84.4838 237.993 83.8238 237.313 83.3305 236.46C82.8505 235.607 82.6105 234.64 82.6105 233.56C82.6105 232.493 82.8505 231.533 83.3305 230.68C83.8105 229.827 84.4705 229.16 85.3105 228.68C86.1505 228.187 87.1105 227.94 88.1905 227.94C88.9238 227.94 89.6105 228.073 90.2505 228.34C90.8905 228.593 91.4438 228.947 91.9105 229.4C92.3905 229.853 92.7438 230.38 92.9705 230.98L90.9905 231.9C90.7638 231.34 90.3971 230.893 89.8905 230.56C89.3971 230.213 88.8305 230.04 88.1905 230.04C87.5771 230.04 87.0238 230.193 86.5305 230.5C86.0505 230.793 85.6705 231.213 85.3905 231.76C85.1105 232.293 84.9705 232.9 84.9705 233.58C84.9705 234.26 85.1105 234.873 85.3905 235.42C85.6705 235.953 86.0505 236.373 86.5305 236.68C87.0238 236.987 87.5771 237.14 88.1905 237.14C88.8438 237.14 89.4105 236.973 89.8905 236.64C90.3838 236.293 90.7505 235.833 90.9905 235.26L92.9705 236.2C92.7571 236.773 92.4105 237.293 91.9305 237.76C91.4638 238.213 90.9105 238.573 90.2705 238.84C89.6305 239.107 88.9371 239.24 88.1905 239.24ZM100.259 239.24C99.1794 239.24 98.2194 238.993 97.3794 238.5C96.5527 237.993 95.906 237.313 95.4394 236.46C94.9727 235.593 94.7394 234.627 94.7394 233.56C94.7394 232.467 94.9727 231.5 95.4394 230.66C95.9194 229.82 96.5594 229.16 97.3594 228.68C98.1594 228.187 99.066 227.94 100.079 227.94C100.893 227.94 101.619 228.08 102.259 228.36C102.899 228.64 103.439 229.027 103.879 229.52C104.319 230 104.653 230.553 104.879 231.18C105.119 231.807 105.239 232.473 105.239 233.18C105.239 233.353 105.233 233.533 105.219 233.72C105.206 233.907 105.179 234.08 105.139 234.24H96.5194V232.44H103.859L102.779 233.26C102.913 232.607 102.866 232.027 102.639 231.52C102.426 231 102.093 230.593 101.639 230.3C101.199 229.993 100.679 229.84 100.079 229.84C99.4794 229.84 98.946 229.993 98.4794 230.3C98.0127 230.593 97.6527 231.02 97.3994 231.58C97.146 232.127 97.046 232.793 97.0994 233.58C97.0327 234.313 97.1327 234.953 97.3994 235.5C97.6794 236.047 98.066 236.473 98.5594 236.78C99.066 237.087 99.6394 237.24 100.279 237.24C100.933 237.24 101.486 237.093 101.939 236.8C102.406 236.507 102.773 236.127 103.039 235.66L104.879 236.56C104.666 237.067 104.333 237.527 103.879 237.94C103.439 238.34 102.906 238.66 102.279 238.9C101.666 239.127 100.993 239.24 100.259 239.24ZM112.445 239.24C111.405 239.24 110.472 238.993 109.645 238.5C108.832 237.993 108.185 237.313 107.705 236.46C107.238 235.607 107.005 234.647 107.005 233.58C107.005 232.513 107.245 231.553 107.725 230.7C108.205 229.847 108.852 229.173 109.665 228.68C110.478 228.187 111.398 227.94 112.425 227.94C113.292 227.94 114.058 228.113 114.725 228.46C115.392 228.807 115.918 229.287 116.305 229.9L115.965 230.42V223.86H118.205V239H116.065V236.8L116.325 237.22C115.952 237.873 115.418 238.373 114.725 238.72C114.032 239.067 113.272 239.24 112.445 239.24ZM112.665 237.14C113.292 237.14 113.852 236.987 114.345 236.68C114.852 236.373 115.245 235.953 115.525 235.42C115.818 234.873 115.965 234.26 115.965 233.58C115.965 232.9 115.818 232.293 115.525 231.76C115.245 231.227 114.852 230.807 114.345 230.5C113.852 230.193 113.292 230.04 112.665 230.04C112.038 230.04 111.472 230.193 110.965 230.5C110.458 230.807 110.065 231.227 109.785 231.76C109.505 232.293 109.365 232.9 109.365 233.58C109.365 234.26 109.505 234.873 109.785 235.42C110.065 235.953 110.452 236.373 110.945 236.68C111.452 236.987 112.025 237.14 112.665 237.14ZM124.56 239V224.1H129.98C130.98 224.1 131.86 224.287 132.62 224.66C133.393 225.02 133.993 225.553 134.42 226.26C134.846 226.953 135.06 227.787 135.06 228.76C135.06 229.72 134.84 230.547 134.4 231.24C133.973 231.933 133.38 232.467 132.62 232.84C131.86 233.213 130.98 233.4 129.98 233.4H126.92V239H124.56ZM126.92 231.3H130.04C130.573 231.3 131.04 231.193 131.44 230.98C131.84 230.767 132.153 230.473 132.38 230.1C132.606 229.713 132.72 229.26 132.72 228.74C132.72 228.22 132.606 227.773 132.38 227.4C132.153 227.013 131.84 226.72 131.44 226.52C131.04 226.307 130.573 226.2 130.04 226.2H126.92V231.3ZM137.269 239V228.18H139.429V230.36L139.229 230.04C139.469 229.333 139.856 228.827 140.389 228.52C140.923 228.2 141.563 228.04 142.309 228.04H142.969V230.1H142.029C141.283 230.1 140.676 230.333 140.209 230.8C139.756 231.253 139.529 231.907 139.529 232.76V239H137.269ZM149.735 239.24C148.695 239.24 147.742 238.993 146.875 238.5C146.022 238.007 145.342 237.333 144.835 236.48C144.329 235.627 144.075 234.66 144.075 233.58C144.075 232.487 144.329 231.52 144.835 230.68C145.342 229.827 146.022 229.16 146.875 228.68C147.729 228.187 148.682 227.94 149.735 227.94C150.802 227.94 151.755 228.187 152.595 228.68C153.449 229.16 154.122 229.827 154.615 230.68C155.122 231.52 155.375 232.487 155.375 233.58C155.375 234.673 155.122 235.647 154.615 236.5C154.109 237.353 153.429 238.027 152.575 238.52C151.722 239 150.775 239.24 149.735 239.24ZM149.735 237.14C150.375 237.14 150.942 236.987 151.435 236.68C151.929 236.373 152.315 235.953 152.595 235.42C152.889 234.873 153.035 234.26 153.035 233.58C153.035 232.9 152.889 232.293 152.595 231.76C152.315 231.227 151.929 230.807 151.435 230.5C150.942 230.193 150.375 230.04 149.735 230.04C149.109 230.04 148.542 230.193 148.035 230.5C147.542 230.807 147.149 231.227 146.855 231.76C146.575 232.293 146.435 232.9 146.435 233.58C146.435 234.26 146.575 234.873 146.855 235.42C147.149 235.953 147.542 236.373 148.035 236.68C148.542 236.987 149.109 237.14 149.735 237.14ZM162.582 239.24C161.542 239.24 160.608 238.993 159.782 238.5C158.968 237.993 158.322 237.313 157.842 236.46C157.375 235.607 157.142 234.647 157.142 233.58C157.142 232.513 157.382 231.553 157.862 230.7C158.342 229.847 158.988 229.173 159.802 228.68C160.615 228.187 161.535 227.94 162.562 227.94C163.428 227.94 164.195 228.113 164.862 228.46C165.528 228.807 166.055 229.287 166.442 229.9L166.102 230.42V223.86H168.342V239H166.202V236.8L166.462 237.22C166.088 237.873 165.555 238.373 164.862 238.72C164.168 239.067 163.408 239.24 162.582 239.24ZM162.802 237.14C163.428 237.14 163.988 236.987 164.482 236.68C164.988 236.373 165.382 235.953 165.662 235.42C165.955 234.873 166.102 234.26 166.102 233.58C166.102 232.9 165.955 232.293 165.662 231.76C165.382 231.227 164.988 230.807 164.482 230.5C163.988 230.193 163.428 230.04 162.802 230.04C162.175 230.04 161.608 230.193 161.102 230.5C160.595 230.807 160.202 231.227 159.922 231.76C159.642 232.293 159.502 232.9 159.502 233.58C159.502 234.26 159.642 234.873 159.922 235.42C160.202 235.953 160.588 236.373 161.082 236.68C161.588 236.987 162.162 237.14 162.802 237.14ZM174.84 239.24C174.027 239.24 173.313 239.06 172.7 238.7C172.087 238.327 171.607 237.813 171.26 237.16C170.927 236.493 170.76 235.727 170.76 234.86V228.18H173.02V234.66C173.02 235.153 173.12 235.587 173.32 235.96C173.52 236.333 173.8 236.627 174.16 236.84C174.52 237.04 174.933 237.14 175.4 237.14C175.88 237.14 176.3 237.033 176.66 236.82C177.02 236.607 177.3 236.307 177.5 235.92C177.713 235.533 177.82 235.08 177.82 234.56V228.18H180.06V239H177.92V236.88L178.16 237.16C177.907 237.827 177.487 238.34 176.9 238.7C176.313 239.06 175.627 239.24 174.84 239.24ZM187.839 239.24C186.759 239.24 185.799 238.993 184.959 238.5C184.132 237.993 183.472 237.313 182.979 236.46C182.499 235.607 182.259 234.64 182.259 233.56C182.259 232.493 182.499 231.533 182.979 230.68C183.459 229.827 184.119 229.16 184.959 228.68C185.799 228.187 186.759 227.94 187.839 227.94C188.572 227.94 189.259 228.073 189.899 228.34C190.539 228.593 191.092 228.947 191.559 229.4C192.039 229.853 192.392 230.38 192.619 230.98L190.639 231.9C190.412 231.34 190.046 230.893 189.539 230.56C189.046 230.213 188.479 230.04 187.839 230.04C187.226 230.04 186.672 230.193 186.179 230.5C185.699 230.793 185.319 231.213 185.039 231.76C184.759 232.293 184.619 232.9 184.619 233.58C184.619 234.26 184.759 234.873 185.039 235.42C185.319 235.953 185.699 236.373 186.179 236.68C186.672 236.987 187.226 237.14 187.839 237.14C188.492 237.14 189.059 236.973 189.539 236.64C190.032 236.293 190.399 235.833 190.639 235.26L192.619 236.2C192.406 236.773 192.059 237.293 191.579 237.76C191.112 238.213 190.559 238.573 189.919 238.84C189.279 239.107 188.586 239.24 187.839 239.24ZM199.508 239.12C198.374 239.12 197.494 238.8 196.868 238.16C196.241 237.52 195.928 236.62 195.928 235.46V230.22H194.028V228.18H194.328C194.834 228.18 195.228 228.033 195.508 227.74C195.788 227.447 195.928 227.047 195.928 226.54V225.7H198.188V228.18H200.648V230.22H198.188V235.36C198.188 235.733 198.248 236.053 198.368 236.32C198.488 236.573 198.681 236.773 198.948 236.92C199.214 237.053 199.561 237.12 199.988 237.12C200.094 237.12 200.214 237.113 200.348 237.1C200.481 237.087 200.608 237.073 200.728 237.06V239C200.541 239.027 200.334 239.053 200.108 239.08C199.881 239.107 199.681 239.12 199.508 239.12ZM202.933 239V228.18H205.193V239H202.933ZM202.933 226.7V224.1H205.193V226.7H202.933ZM210.976 239L206.736 228.18H209.196L212.456 237H211.556L214.816 228.18H217.296L213.036 239H210.976ZM218.832 239V228.18H221.092V239H218.832ZM218.832 226.7V224.1H221.092V226.7H218.832ZM228.414 239.12C227.281 239.12 226.401 238.8 225.774 238.16C225.147 237.52 224.834 236.62 224.834 235.46V230.22H222.934V228.18H223.234C223.741 228.18 224.134 228.033 224.414 227.74C224.694 227.447 224.834 227.047 224.834 226.54V225.7H227.094V228.18H229.554V230.22H227.094V235.36C227.094 235.733 227.154 236.053 227.274 236.32C227.394 236.573 227.587 236.773 227.854 236.92C228.121 237.053 228.467 237.12 228.894 237.12C229.001 237.12 229.121 237.113 229.254 237.1C229.387 237.087 229.514 237.073 229.634 237.06V239C229.447 239.027 229.241 239.053 229.014 239.08C228.787 239.107 228.587 239.12 228.414 239.12ZM232.8 243.4C232.533 243.4 232.266 243.373 232 243.32C231.746 243.28 231.513 243.213 231.3 243.12V241.18C231.46 241.22 231.653 241.253 231.88 241.28C232.106 241.32 232.326 241.34 232.54 241.34C233.166 241.34 233.626 241.2 233.92 240.92C234.226 240.653 234.5 240.24 234.74 239.68L235.46 238.04L235.42 239.94L230.74 228.18H233.16L236.62 237.2H235.8L239.24 228.18H241.68L236.9 240.18C236.646 240.82 236.326 241.38 235.94 241.86C235.566 242.353 235.12 242.733 234.6 243C234.093 243.267 233.493 243.4 232.8 243.4Z" fill="white"/>
<path d="M58.0617 54.6082H72.4948V51.9434H67.5273C67.3151 51.9434 67.1143 51.8557 66.9672 51.7058C66.8201 51.5559 66.738 51.355 66.7409 51.1429C66.7409 50.9165 66.8342 50.6987 67.0011 50.5431L76.1382 40.314C76.274 40.1584 76.4692 40.065 76.6785 40.0565C76.8851 40.0452 77.0887 40.1216 77.2387 40.2659C77.2556 40.28 77.2726 40.297 77.2868 40.314L86.4774 50.5996C86.766 50.9306 86.7434 51.4284 86.4237 51.7312C86.2822 51.8669 86.0927 51.9405 85.8975 51.9405H80.93V54.6053H84.4095V54.6025C84.8452 54.6109 85.1959 54.9702 85.1903 55.4087V94.8966V94.8937C85.1959 95.3322 84.8452 95.6915 84.4095 95.7H64.3502V101.284H75.9937C76.2031 101.287 76.4039 101.372 76.551 101.522C76.6981 101.672 76.7802 101.875 76.7802 102.085V107.239C76.783 107.451 76.7038 107.655 76.5538 107.807C76.4067 107.96 76.2059 108.048 75.9937 108.051H32.3048C31.8664 108.045 31.5127 107.683 31.5184 107.245V102.09V102.093C31.5156 101.881 31.5977 101.68 31.7448 101.53C31.8947 101.377 32.0955 101.293 32.3049 101.293H43.9513V95.7056H23.892C23.6826 95.7028 23.479 95.6179 23.3318 95.468C23.1848 95.3153 23.1027 95.1116 23.1055 94.9022V55.4144C23.0999 54.9759 23.4507 54.6166 23.8919 54.611H28.1098V54.2687H28.1069C28.1041 53.8245 28.2427 53.3889 28.5001 53.0268C28.7547 52.6704 29.1168 52.4016 29.5355 52.2658L29.8099 52.1753H29.8071C30.0504 52.0961 30.2682 51.9632 30.4492 51.7878C30.6246 51.6011 30.7576 51.3804 30.834 51.1371C30.9245 50.8599 31.0235 50.5855 31.131 50.3224C31.2385 50.0565 31.3601 49.7962 31.4818 49.5332H31.4846C31.7222 49.0693 31.7194 48.5148 31.4761 48.0537L31.3432 47.7934V47.7906C31.1452 47.3917 31.0744 46.9419 31.1423 46.5007C31.2074 46.0622 31.4139 45.652 31.7279 45.3352L33.2696 43.7538V43.751C33.892 43.1032 34.8707 42.9447 35.6657 43.3663L35.9203 43.4992C36.1409 43.618 36.3899 43.6831 36.6388 43.6887C36.8934 43.6859 37.1423 43.6237 37.3658 43.5049C37.6232 43.3747 37.8807 43.2531 38.1353 43.1484C38.3899 43.0438 38.6614 42.9363 38.9274 42.8429L38.9302 42.8457C39.1707 42.7665 39.3885 42.6307 39.5639 42.4497C39.7421 42.263 39.8722 42.0395 39.9458 41.7934L40.0363 41.5162H40.0335C40.1664 41.0918 40.4267 40.7212 40.7803 40.4525C41.131 40.1922 41.5582 40.0508 41.9939 40.0508H44.1777C44.6162 40.0508 45.0405 40.1894 45.3941 40.4497C45.7477 40.7184 46.008 41.089 46.1409 41.5133L46.2314 41.7906C46.305 42.0367 46.4323 42.2602 46.6077 42.4469C46.7859 42.6279 47.0037 42.7609 47.2414 42.8401C47.5101 42.9334 47.776 43.0353 48.0335 43.1456C48.2937 43.2503 48.5483 43.3747 48.8086 43.502C49.2584 43.7481 49.8043 43.7453 50.2513 43.4964L50.5059 43.3634C51.3037 42.9419 52.2796 43.1003 52.9048 43.7481L54.4493 45.3351C55.083 45.9886 55.2357 46.9702 54.8312 47.7849L54.7011 48.0452V48.048C54.4578 48.5091 54.4521 49.0607 54.6898 49.5275C54.8199 49.7906 54.9359 50.0537 55.0406 50.3168C55.1481 50.5798 55.2471 50.8571 55.3404 51.1315C55.4168 51.3748 55.5469 51.5954 55.7223 51.7821C55.9034 51.9603 56.124 52.0905 56.3645 52.1668L56.636 52.2574L56.6332 52.2602C57.0519 52.396 57.4168 52.6647 57.6714 53.0212C57.9288 53.3833 58.0646 53.8189 58.0618 54.263L58.0617 54.6082ZM43.0884 46.8797C45.3006 46.8797 47.4194 47.7793 48.9611 49.3662C52.2087 52.7213 52.2087 58.0478 48.9611 61.403C47.4194 62.9928 45.3006 63.8924 43.0856 63.8924C40.8706 63.8924 38.7517 62.9928 37.21 61.403C33.9653 58.048 33.9653 52.7214 37.21 49.3662C38.7545 47.7793 40.8734 46.8825 43.0884 46.8797ZM47.8522 50.5063C46.6046 49.2134 44.8847 48.4836 43.0856 48.4836C41.2892 48.4836 39.5693 49.2134 38.3189 50.5063C35.6909 53.2276 35.6909 57.5416 38.3189 60.2633C39.5693 61.5561 41.2893 62.2859 43.0856 62.2859C44.8847 62.2859 46.6047 61.5561 47.8522 60.2633C50.4858 57.5447 50.4858 53.225 47.8522 50.5063ZM28.1093 56.2121H24.675V94.0988H83.6226V56.2121H80.9294V89.4878C80.9323 89.9235 80.5815 90.2828 80.143 90.2884H73.283C72.8445 90.2828 72.4938 89.9263 72.4966 89.4878V56.2121H58.0606V56.5063C58.0635 56.9504 57.9277 57.3832 57.6731 57.7453C57.4156 58.1046 57.0536 58.3733 56.6349 58.5119L56.3633 58.6024C56.1229 58.6788 55.9022 58.8118 55.7212 58.99C55.5458 59.1739 55.4156 59.3974 55.3421 59.6406C55.2487 59.9179 55.1497 60.1866 55.0422 60.4554C54.9347 60.7241 54.8216 60.9787 54.6914 61.2446H54.6886C54.4538 61.7113 54.4567 62.2601 54.6999 62.7241L54.8301 62.9872C55.2346 63.8019 55.0818 64.7835 54.4482 65.437L52.9036 67.0183C52.5981 67.3351 52.1992 67.5445 51.7664 67.6152C51.3336 67.6831 50.8923 67.6095 50.5047 67.4059L50.2501 67.2729C49.8032 67.024 49.26 67.0183 48.8074 67.2616C48.5472 67.3945 48.2926 67.5134 48.038 67.6209C47.7834 67.7312 47.5118 67.833 47.2402 67.9264C47.0026 68.0056 46.7847 68.1414 46.6065 68.3224C46.4311 68.5091 46.3038 68.7326 46.2303 68.9787L46.1398 69.2559V69.2531C46.0068 69.6774 45.7466 70.0509 45.393 70.3168C45.0394 70.5771 44.6151 70.7157 44.1766 70.7157H41.9927C41.5571 70.7157 41.1299 70.5771 40.7791 70.3168C40.4255 70.0509 40.1652 69.6775 40.0323 69.2531L39.9418 68.9759L39.9446 68.9787C39.8711 68.7326 39.7409 68.5063 39.5627 68.3224C39.3873 68.1414 39.1695 68.0056 38.9291 67.9264C38.6632 67.833 38.3944 67.7284 38.1369 67.6209C37.8767 67.5134 37.6221 67.3917 37.3675 67.2616H37.3647C36.912 67.0183 36.3661 67.0211 35.9163 67.2729L35.6617 67.4059C35.2741 67.6095 34.8329 67.6831 34.4028 67.6152C33.9672 67.5445 33.5684 67.3351 33.2628 67.0183L31.7267 65.437C31.4156 65.1201 31.2119 64.7156 31.144 64.2771C31.0761 63.8358 31.144 63.386 31.3448 62.9872L31.4778 62.7241C31.7211 62.2602 31.7239 61.7086 31.4863 61.2446C31.359 60.9787 31.2402 60.7184 31.1383 60.4554C31.0337 60.1951 30.9262 59.915 30.8385 59.6406H30.8356C30.7593 59.3974 30.6263 59.1739 30.4509 58.99C30.2699 58.8146 30.0492 58.6817 29.8088 58.6024L29.5344 58.5119C29.1185 58.3733 28.7564 58.1046 28.5018 57.7453C28.2444 57.3832 28.1058 56.9503 28.1086 56.5063L28.1093 56.2121ZM51.2181 44.7945L50.9607 44.9275C50.0752 45.4027 49.0088 45.4084 48.1149 44.9444C47.897 44.8341 47.6707 44.7266 47.4331 44.6304C47.1955 44.5314 46.9748 44.4437 46.7372 44.3617V44.3589C46.2648 44.1976 45.8376 43.9289 45.4925 43.5696C45.1445 43.2076 44.8871 42.7662 44.74 42.2882L44.6523 42.0081C44.6211 41.9035 44.5589 41.8129 44.474 41.7479C44.3864 41.6885 44.2817 41.6574 44.177 41.6574H41.9932C41.8885 41.6574 41.7838 41.6885 41.6989 41.7479C41.6141 41.8158 41.5519 41.9063 41.5236 42.0081L41.433 42.2882C41.2859 42.7663 41.0257 43.2076 40.6777 43.5696C40.3326 43.9289 39.9054 44.1977 39.433 44.3589C39.1982 44.4437 38.9662 44.5286 38.7371 44.6276C38.5079 44.7266 38.2731 44.8313 38.0553 44.9416V44.9444C37.1614 45.4084 36.0977 45.4027 35.2095 44.9275L34.952 44.7945C34.8615 44.7408 34.754 44.721 34.6493 44.7379C34.5447 44.7577 34.4485 44.8087 34.3778 44.885L32.8332 46.4664V46.4692C32.7568 46.5427 32.7059 46.6418 32.6889 46.7464C32.672 46.8511 32.6918 46.9614 32.7399 47.0576L32.8728 47.3207V47.3179C33.3311 48.2372 33.3368 49.315 32.887 50.2372C32.7795 50.4579 32.6748 50.6955 32.5814 50.9303C32.4881 51.1679 32.3976 51.4055 32.3184 51.6432H32.3212C32.1656 52.1241 31.9025 52.5597 31.5489 52.919C31.1981 53.2754 30.7653 53.5413 30.2929 53.6969L30.0241 53.7874H30.0213C29.9195 53.8185 29.8318 53.8836 29.7695 53.9713C29.7101 54.059 29.679 54.1636 29.679 54.2683V56.5088C29.679 56.6163 29.7101 56.7182 29.7695 56.8087C29.8318 56.8935 29.9195 56.9586 30.0213 56.9897L30.2901 57.0802H30.2929C30.7653 57.2358 31.1953 57.4989 31.5489 57.8525C31.8997 58.2118 32.1656 58.6503 32.3184 59.1311C32.3947 59.3716 32.4853 59.6092 32.5814 59.844C32.6776 60.0788 32.7823 60.3136 32.887 60.5371C33.1076 60.9925 33.2208 61.4904 33.2208 61.9939C33.2179 62.5003 33.0991 62.9982 32.87 63.4508L32.737 63.7111V63.7139C32.6889 63.8101 32.672 63.9204 32.6861 64.0279C32.7059 64.1325 32.7568 64.2287 32.8304 64.3051L34.3749 65.8864C34.4457 65.9657 34.5418 66.0194 34.6465 66.0392C34.7512 66.0534 34.8587 66.0336 34.952 65.9826L35.2095 65.8497H35.2066C35.6479 65.6177 36.1345 65.4961 36.6295 65.4904C37.1274 65.4876 37.6168 65.6064 38.0581 65.8355C38.2731 65.9459 38.5023 66.0505 38.7371 66.1495C38.9719 66.2485 39.201 66.3362 39.433 66.4183C39.9054 66.5795 40.3297 66.8511 40.6777 67.2075C41.0256 67.5724 41.2831 68.0109 41.433 68.489L41.5236 68.769L41.5207 68.7718C41.5801 68.9812 41.7753 69.1254 41.9931 69.1198H44.177H44.1742C44.3948 69.1226 44.5872 68.9812 44.6494 68.7718L44.7371 68.4918V68.489C44.887 68.0109 45.1445 67.5724 45.4896 67.2075C45.8376 66.8482 46.2647 66.5738 46.7372 66.4097C46.9748 66.3277 47.2096 66.24 47.4331 66.141C47.6594 66.042 47.897 65.9373 48.1148 65.827C49.0088 65.3602 50.0724 65.3659 50.9607 65.8411L51.2181 65.9741C51.3086 66.025 51.4161 66.0448 51.5208 66.0307C51.6283 66.0137 51.7245 65.9599 51.7952 65.8807L53.3369 64.2994V64.2966C53.4133 64.223 53.4671 64.1268 53.4869 64.0222C53.501 63.9118 53.4812 63.8015 53.4303 63.7053L53.3002 63.4451C52.8362 62.5285 52.8306 61.4479 53.286 60.5285C53.3935 60.3051 53.4925 60.0703 53.5915 59.8355C53.6877 59.5979 53.7726 59.3602 53.8546 59.1226C54.0074 58.6417 54.2733 58.2032 54.6241 57.844C54.9777 57.4932 55.4048 57.2301 55.8773 57.0745L56.146 56.984L56.1488 56.9812C56.2507 56.9529 56.3384 56.8878 56.4006 56.8001C56.4629 56.7124 56.494 56.6078 56.494 56.5003V54.2655C56.494 54.158 56.4629 54.0533 56.4006 53.9656C56.3384 53.8779 56.2507 53.8129 56.1488 53.7846L55.8801 53.6941H55.8773C55.4049 53.5385 54.9749 53.2726 54.6241 52.919C54.2733 52.5597 54.0074 52.124 53.8546 51.6432C53.7726 51.4027 53.6849 51.1651 53.5915 50.9303C53.4982 50.6955 53.3907 50.455 53.286 50.2372C53.0625 49.7846 52.9465 49.2839 52.9494 48.7804C52.9522 48.2712 53.071 47.7733 53.3002 47.3179L53.4303 47.0548V47.0576C53.4812 46.9614 53.501 46.8511 53.4869 46.7464C53.4671 46.6389 53.4162 46.5427 53.3369 46.4692L51.7952 44.885C51.7217 44.8087 51.6255 44.7577 51.5208 44.7379C51.4161 44.721 51.3086 44.7436 51.2153 44.7945L51.2181 44.7945ZM79.3623 88.684V51.142C79.3566 50.7064 79.7074 50.3499 80.143 50.3414H84.1233L76.7119 42.0328L69.3006 50.3414H73.2808C73.4901 50.3443 73.691 50.432 73.8381 50.5819C73.9852 50.7318 74.0672 50.9355 74.0615 51.1477V88.6838L79.3623 88.684ZM62.1715 63.0491H69.0372C69.4756 63.0548 69.8293 63.4141 69.8236 63.8554V89.4881C69.8264 89.9265 69.4756 90.283 69.0372 90.2887H62.1715C61.7359 90.283 61.3851 89.9237 61.3879 89.4881V63.8554C61.3851 63.6432 61.4671 63.4395 61.6142 63.2896C61.7613 63.1397 61.9622 63.052 62.1715 63.0491ZM68.2535 64.656L62.9551 64.6532V88.6846H68.2507L68.2535 64.656ZM51.0656 71.7677H57.9256C58.3641 71.7734 58.7149 72.1327 58.712 72.5711V89.4875C58.7149 89.9231 58.3641 90.2824 57.9256 90.2881H51.0656C50.6271 90.2824 50.2764 89.9232 50.2792 89.4875V72.5711C50.2764 72.1327 50.6272 71.7734 51.0656 71.7677ZM57.1476 73.3774H51.8464V88.6846H57.1448L57.1476 73.3774ZM39.9568 78.9361H46.8225C47.261 78.9418 47.6146 79.301 47.6089 79.7395V89.4878C47.6117 89.9263 47.261 90.2828 46.8225 90.2884H39.9568C39.5212 90.2828 39.1704 89.9235 39.1733 89.4878V79.7395C39.1704 79.5302 39.2525 79.3265 39.3996 79.1766C39.5467 79.0238 39.7475 78.939 39.9568 78.9361ZM46.0389 80.543L40.7404 80.5401V88.6844H46.0361L46.0389 80.543ZM33.0911 106.439H75.2099V102.897H33.0911V106.439ZM45.5153 95.706V101.29H62.78V95.706H45.5153Z" fill="white"/>
<path d="M47.855 50.5063H47.8522M47.8522 50.5063C46.6046 49.2134 44.8847 48.4836 43.0856 48.4836C41.2892 48.4836 39.5693 49.2134 38.3189 50.5063C35.6909 53.2276 35.6909 57.5416 38.3189 60.2633C39.5693 61.5561 41.2893 62.2859 43.0856 62.2859C44.8847 62.2859 46.6047 61.5561 47.8522 60.2633C50.4858 57.5447 50.4858 53.225 47.8522 50.5063ZM58.0617 54.6082H72.4948V51.9434H67.5273C67.3151 51.9434 67.1143 51.8557 66.9672 51.7058C66.8201 51.5559 66.738 51.355 66.7409 51.1429C66.7409 50.9165 66.8342 50.6987 67.0011 50.5431L76.1382 40.314C76.274 40.1584 76.4692 40.065 76.6785 40.0565C76.8851 40.0452 77.0887 40.1216 77.2387 40.2659C77.2556 40.28 77.2726 40.297 77.2868 40.314L86.4774 50.5996C86.766 50.9306 86.7434 51.4284 86.4237 51.7312C86.2823 51.8669 86.0927 51.9405 85.8975 51.9405H80.93V54.6053H84.4095V54.6025C84.8452 54.6109 85.1959 54.9702 85.1903 55.4087V94.8966V94.8937C85.1959 95.3322 84.8452 95.6915 84.4095 95.7H64.3502V101.284H75.9937C76.2031 101.287 76.4039 101.372 76.551 101.522C76.6981 101.672 76.7802 101.875 76.7802 102.085V107.239C76.783 107.451 76.7038 107.655 76.5538 107.807C76.4067 107.96 76.2059 108.048 75.9937 108.051H32.3048C31.8664 108.045 31.5127 107.683 31.5184 107.245V102.09V102.093C31.5156 101.881 31.5977 101.68 31.7448 101.53C31.8947 101.377 32.0955 101.293 32.3049 101.293H43.9513V95.7056H23.892C23.6826 95.7028 23.479 95.6179 23.3318 95.468C23.1848 95.3153 23.1027 95.1116 23.1055 94.9022V55.4144C23.0999 54.9759 23.4507 54.6166 23.8919 54.611H28.1098V54.2687H28.1069C28.1041 53.8245 28.2427 53.3889 28.5001 53.0268C28.7547 52.6704 29.1168 52.4016 29.5355 52.2658L29.8099 52.1753H29.8071C30.0504 52.0961 30.2682 51.9632 30.4492 51.7878C30.6246 51.6011 30.7576 51.3804 30.834 51.1371C30.9245 50.8599 31.0235 50.5855 31.131 50.3224C31.2385 50.0565 31.3601 49.7962 31.4818 49.5332H31.4846C31.7222 49.0693 31.7194 48.5148 31.4761 48.0537L31.3432 47.7934V47.7906C31.1452 47.3917 31.0744 46.9419 31.1423 46.5007C31.2074 46.0622 31.4139 45.652 31.7279 45.3352L33.2696 43.7538V43.751C33.892 43.1032 34.8707 42.9447 35.6657 43.3663L35.9203 43.4992C36.1409 43.618 36.3899 43.6831 36.6388 43.6887C36.8934 43.6859 37.1423 43.6237 37.3658 43.5049C37.6232 43.3747 37.8807 43.2531 38.1353 43.1484C38.3899 43.0438 38.6614 42.9363 38.9274 42.8429L38.9302 42.8457C39.1707 42.7665 39.3885 42.6307 39.5639 42.4497C39.7421 42.263 39.8722 42.0395 39.9458 41.7934L40.0363 41.5162H40.0335C40.1664 41.0918 40.4267 40.7212 40.7803 40.4525C41.131 40.1922 41.5582 40.0508 41.9939 40.0508H44.1777C44.6162 40.0508 45.0405 40.1894 45.3941 40.4497C45.7477 40.7184 46.008 41.089 46.1409 41.5133L46.2314 41.7906C46.305 42.0367 46.4323 42.2602 46.6077 42.4469C46.7859 42.6279 47.0037 42.7609 47.2414 42.8401C47.5101 42.9334 47.776 43.0353 48.0335 43.1456C48.2937 43.2503 48.5483 43.3747 48.8086 43.502C49.2584 43.7481 49.8043 43.7453 50.2513 43.4964L50.5059 43.3634C51.3037 42.9419 52.2796 43.1003 52.9048 43.7481L54.4493 45.3351C55.083 45.9886 55.2357 46.9702 54.8312 47.7849L54.7011 48.0452V48.048C54.4578 48.5091 54.4521 49.0607 54.6898 49.5275C54.8199 49.7906 54.9359 50.0537 55.0406 50.3168C55.1481 50.5798 55.2471 50.8571 55.3404 51.1315C55.4168 51.3747 55.5469 51.5954 55.7223 51.7821C55.9034 51.9603 56.124 52.0905 56.3645 52.1668L56.636 52.2574L56.6332 52.2602C57.0519 52.396 57.4168 52.6647 57.6714 53.0212C57.9288 53.3833 58.0646 53.8189 58.0618 54.263L58.0617 54.6082ZM43.0884 46.8797C45.3006 46.8797 47.4194 47.7793 48.9611 49.3662C52.2087 52.7213 52.2087 58.0478 48.9611 61.403C47.4194 62.9928 45.3006 63.8924 43.0856 63.8924C40.8706 63.8924 38.7517 62.9928 37.21 61.403C33.9653 58.048 33.9653 52.7214 37.21 49.3662C38.7545 47.7793 40.8734 46.8825 43.0884 46.8797ZM28.1093 56.2121H24.675V94.0988H83.6226V56.2121H80.9294V89.4878C80.9323 89.9235 80.5815 90.2828 80.143 90.2884H73.283C72.8445 90.2828 72.4938 89.9263 72.4966 89.4878V56.2121H58.0606V56.5063C58.0635 56.9504 57.9277 57.3832 57.6731 57.7453C57.4157 58.1046 57.0536 58.3733 56.6349 58.5119L56.3633 58.6024C56.1229 58.6788 55.9022 58.8118 55.7212 58.99C55.5458 59.1739 55.4156 59.3974 55.3421 59.6406C55.2487 59.9179 55.1497 60.1866 55.0422 60.4554C54.9347 60.7241 54.8216 60.9787 54.6914 61.2446H54.6886C54.4538 61.7113 54.4567 62.2601 54.6999 62.7241L54.8301 62.9872C55.2346 63.8019 55.0818 64.7835 54.4482 65.437L52.9036 67.0183C52.5981 67.3351 52.1992 67.5445 51.7664 67.6152C51.3336 67.6831 50.8923 67.6095 50.5047 67.4059L50.2501 67.2729C49.8032 67.024 49.26 67.0183 48.8074 67.2616C48.5472 67.3945 48.2926 67.5134 48.038 67.6209C47.7834 67.7312 47.5118 67.833 47.2402 67.9264C47.0026 68.0056 46.7847 68.1414 46.6065 68.3224C46.4311 68.5091 46.3038 68.7326 46.2303 68.9787L46.1398 69.2559V69.2531C46.0068 69.6774 45.7466 70.0509 45.393 70.3168C45.0394 70.5771 44.6151 70.7157 44.1766 70.7157H41.9927C41.5571 70.7157 41.1299 70.5771 40.7791 70.3168C40.4255 70.0509 40.1652 69.6775 40.0323 69.2531L39.9418 68.9759L39.9446 68.9787C39.8711 68.7326 39.7409 68.5063 39.5627 68.3224C39.3873 68.1414 39.1695 68.0056 38.9291 67.9264C38.6632 67.833 38.3944 67.7284 38.1369 67.6209C37.8767 67.5134 37.6221 67.3917 37.3675 67.2616H37.3647C36.912 67.0183 36.3661 67.0211 35.9163 67.2729L35.6617 67.4059C35.2741 67.6095 34.8329 67.6831 34.4028 67.6152C33.9672 67.5445 33.5684 67.3351 33.2628 67.0183L31.7267 65.437C31.4156 65.1201 31.2119 64.7156 31.144 64.2771C31.0761 63.8358 31.144 63.386 31.3448 62.9872L31.4778 62.7241C31.7211 62.2602 31.7239 61.7086 31.4863 61.2446C31.359 60.9787 31.2402 60.7184 31.1383 60.4554C31.0337 60.1951 30.9262 59.915 30.8385 59.6406H30.8356C30.7593 59.3974 30.6263 59.1739 30.4509 58.99C30.2699 58.8146 30.0492 58.6817 29.8088 58.6024L29.5344 58.5119C29.1185 58.3733 28.7564 58.1046 28.5018 57.7453C28.2444 57.3832 28.1058 56.9503 28.1086 56.5063L28.1093 56.2121ZM51.2181 44.7945L50.9607 44.9275C50.0752 45.4027 49.0088 45.4084 48.1149 44.9444C47.897 44.8341 47.6707 44.7266 47.4331 44.6304C47.1955 44.5314 46.9748 44.4437 46.7372 44.3617V44.3589C46.2648 44.1976 45.8376 43.9289 45.4925 43.5696C45.1445 43.2076 44.8871 42.7662 44.74 42.2882L44.6523 42.0081C44.6211 41.9035 44.5589 41.8129 44.474 41.7479C44.3864 41.6885 44.2817 41.6574 44.177 41.6574H41.9932C41.8885 41.6574 41.7838 41.6885 41.6989 41.7479C41.6141 41.8158 41.5519 41.9063 41.5236 42.0081L41.433 42.2882C41.2859 42.7663 41.0257 43.2076 40.6777 43.5696C40.3326 43.9289 39.9054 44.1977 39.433 44.3589C39.1982 44.4437 38.9662 44.5286 38.7371 44.6276C38.5079 44.7266 38.2731 44.8313 38.0553 44.9416V44.9444C37.1614 45.4084 36.0977 45.4027 35.2095 44.9275L34.952 44.7945C34.8615 44.7408 34.754 44.721 34.6493 44.7379C34.5447 44.7577 34.4485 44.8087 34.3778 44.885L32.8332 46.4664V46.4692C32.7568 46.5427 32.7059 46.6418 32.6889 46.7464C32.672 46.8511 32.6918 46.9614 32.7399 47.0576L32.8728 47.3207V47.3179C33.3311 48.2372 33.3368 49.315 32.887 50.2372C32.7795 50.4579 32.6748 50.6955 32.5814 50.9303C32.4881 51.1679 32.3976 51.4055 32.3184 51.6432H32.3212C32.1656 52.1241 31.9025 52.5597 31.5489 52.919C31.1981 53.2754 30.7653 53.5413 30.2929 53.6969L30.0241 53.7874H30.0213C29.9195 53.8185 29.8318 53.8836 29.7695 53.9713C29.7101 54.059 29.679 54.1636 29.679 54.2683V56.5088C29.679 56.6163 29.7101 56.7182 29.7695 56.8087C29.8318 56.8935 29.9195 56.9586 30.0213 56.9897L30.2901 57.0802H30.2929C30.7653 57.2358 31.1953 57.4989 31.5489 57.8525C31.8997 58.2118 32.1656 58.6503 32.3184 59.1311C32.3947 59.3716 32.4853 59.6092 32.5814 59.844C32.6776 60.0788 32.7823 60.3136 32.887 60.5371C33.1076 60.9925 33.2208 61.4904 33.2208 61.9939C33.2179 62.5003 33.0991 62.9982 32.87 63.4508L32.737 63.7111V63.7139C32.6889 63.8101 32.672 63.9204 32.6861 64.0279C32.7059 64.1325 32.7568 64.2287 32.8304 64.3051L34.3749 65.8864C34.4457 65.9657 34.5418 66.0194 34.6465 66.0392C34.7512 66.0534 34.8587 66.0336 34.952 65.9826L35.2095 65.8497H35.2066C35.6479 65.6177 36.1345 65.4961 36.6295 65.4904C37.1274 65.4876 37.6168 65.6064 38.0581 65.8355C38.2731 65.9459 38.5023 66.0505 38.7371 66.1495C38.9719 66.2485 39.201 66.3362 39.433 66.4183C39.9054 66.5795 40.3297 66.8511 40.6777 67.2075C41.0256 67.5724 41.2831 68.0109 41.433 68.489L41.5235 68.769L41.5207 68.7718C41.5801 68.9812 41.7753 69.1254 41.9931 69.1198H44.177H44.1742C44.3948 69.1226 44.5872 68.9812 44.6494 68.7718L44.7371 68.4918V68.489C44.887 68.0109 45.1445 67.5724 45.4896 67.2075C45.8376 66.8482 46.2647 66.5738 46.7372 66.4097C46.9748 66.3277 47.2096 66.24 47.4331 66.141C47.6594 66.042 47.897 65.9373 48.1148 65.827C49.0088 65.3602 50.0724 65.3659 50.9607 65.8411L51.2181 65.9741C51.3086 66.025 51.4161 66.0448 51.5208 66.0307C51.6283 66.0137 51.7245 65.9599 51.7952 65.8807L53.3369 64.2994V64.2966C53.4133 64.223 53.4671 64.1268 53.4869 64.0222C53.501 63.9118 53.4812 63.8015 53.4303 63.7053L53.3002 63.4451C52.8362 62.5285 52.8306 61.4479 53.286 60.5285C53.3935 60.3051 53.4925 60.0703 53.5915 59.8355C53.6877 59.5979 53.7726 59.3602 53.8546 59.1226C54.0074 58.6417 54.2733 58.2032 54.6241 57.844C54.9777 57.4932 55.4048 57.2301 55.8773 57.0745L56.146 56.984L56.1488 56.9812C56.2507 56.9529 56.3384 56.8878 56.4006 56.8001C56.4629 56.7124 56.494 56.6078 56.494 56.5003V54.2655C56.494 54.158 56.4629 54.0533 56.4006 53.9656C56.3384 53.8779 56.2507 53.8129 56.1488 53.7846L55.8801 53.6941H55.8773C55.4049 53.5385 54.9749 53.2726 54.6241 52.919C54.2733 52.5597 54.0074 52.124 53.8546 51.6432C53.7726 51.4027 53.6849 51.1651 53.5915 50.9303C53.4982 50.6955 53.3907 50.455 53.286 50.2372C53.0625 49.7846 52.9465 49.2839 52.9494 48.7804C52.9522 48.2712 53.071 47.7733 53.3002 47.3179L53.4303 47.0548V47.0576C53.4812 46.9614 53.501 46.8511 53.4869 46.7464C53.4671 46.6389 53.4162 46.5427 53.3369 46.4692L51.7952 44.885C51.7217 44.8086 51.6255 44.7577 51.5208 44.7379C51.4161 44.721 51.3086 44.7436 51.2153 44.7945L51.2181 44.7945ZM79.3623 88.684V51.142C79.3566 50.7064 79.7074 50.3499 80.143 50.3414H84.1233L76.7119 42.0328L69.3006 50.3414H73.2808C73.4901 50.3443 73.691 50.432 73.8381 50.5819C73.9852 50.7318 74.0672 50.9355 74.0615 51.1477V88.6838L79.3623 88.684ZM62.1715 63.0491H69.0372C69.4756 63.0548 69.8293 63.4141 69.8236 63.8554V89.4881C69.8264 89.9265 69.4756 90.283 69.0372 90.2887H62.1715C61.7359 90.283 61.3851 89.9237 61.3879 89.4881V63.8554C61.3851 63.6432 61.4671 63.4395 61.6142 63.2896C61.7613 63.1397 61.9622 63.052 62.1715 63.0491ZM68.2535 64.656L62.9551 64.6532V88.6846H68.2507L68.2535 64.656ZM51.0656 71.7677H57.9256C58.3641 71.7734 58.7149 72.1327 58.712 72.5711V89.4875C58.7149 89.9231 58.3641 90.2824 57.9256 90.2881H51.0656C50.6271 90.2824 50.2764 89.9232 50.2792 89.4875V72.5711C50.2764 72.1327 50.6272 71.7734 51.0656 71.7677ZM57.1476 73.3774H51.8464V88.6846H57.1448L57.1476 73.3774ZM39.9568 78.9361H46.8225C47.261 78.9418 47.6146 79.301 47.6089 79.7395V89.4878C47.6117 89.9263 47.261 90.2828 46.8225 90.2884H39.9568C39.5212 90.2828 39.1704 89.9235 39.1733 89.4878V79.7395C39.1704 79.5302 39.2525 79.3265 39.3996 79.1766C39.5467 79.0238 39.7475 78.939 39.9568 78.9361ZM46.0389 80.543L40.7404 80.5401V88.6844H46.0361L46.0389 80.543ZM33.0911 106.439H75.2099V102.897H33.0911V106.439ZM45.5153 95.706V101.29H62.78V95.706H45.5153Z" stroke="white" stroke-width="0.5"/>
<defs>
<linearGradient id="paint0_linear_2313_4015" x1="-2.00001" y1="314" x2="321.5" y2="-9.49999" gradientUnits="userSpaceOnUse">
<stop stop-color="#11296A"/>
<stop offset="1" stop-color="#2150D0"/>
</linearGradient>
<linearGradient id="paint1_linear_2313_4015" x1="-2.00001" y1="314" x2="321.5" y2="-9.49999" gradientUnits="userSpaceOnUse">
<stop stop-color="#11296A"/>
<stop offset="1" stop-color="#2150D0"/>
</linearGradient>
<linearGradient id="paint2_linear_2313_4015" x1="367.787" y1="-128" x2="367.787" y2="216.727" gradientUnits="userSpaceOnUse">
<stop stop-color="white"/>
<stop offset="1" stop-color="white" stop-opacity="0"/>
</linearGradient>
<linearGradient id="paint3_linear_2313_4015" x1="465.787" y1="-128" x2="465.787" y2="216.727" gradientUnits="userSpaceOnUse">
<stop stop-color="white"/>
<stop offset="1" stop-color="white" stop-opacity="0"/>
</linearGradient>
</defs>
</svg>
