<svg width="285" height="300" viewBox="0 0 285 300" fill="none" xmlns="http://www.w3.org/2000/svg">
<rect width="285" height="300" rx="10" transform="matrix(1 0 0 -1 0 300)" fill="url(#paint0_linear_2313_4031)"/>
<mask id="mask0_2313_4031" style="mask-type:alpha" maskUnits="userSpaceOnUse" x="0" y="0" width="285" height="300">
<rect width="285" height="300" rx="10" transform="matrix(1 0 0 -1 0 300)" fill="url(#paint1_linear_2313_4031)"/>
</mask>
<g mask="url(#mask0_2313_4031)">
<rect x="338.605" y="-128" width="58.3621" height="344.727" rx="29.1811" transform="rotate(43.8011 338.605 -128)" fill="url(#paint2_linear_2313_4031)" fill-opacity="0.24"/>
<rect x="436.605" y="-128" width="58.3621" height="344.727" rx="29.1811" transform="rotate(43.8011 436.605 -128)" fill="url(#paint3_linear_2313_4031)" fill-opacity="0.24"/>
</g>
<path d="M24.54 239V224.1H26.9V239H24.54ZM29.7692 239V228.18H31.9292V230.52L31.6492 230.16C31.8759 229.427 32.2892 228.873 32.8892 228.5C33.4892 228.127 34.1759 227.94 34.9492 227.94C35.8159 227.94 36.5826 228.173 37.2492 228.64C37.9292 229.093 38.3826 229.7 38.6092 230.46L37.9692 230.52C38.2892 229.653 38.7759 229.007 39.4292 228.58C40.0959 228.153 40.8559 227.94 41.7092 227.94C42.4559 227.94 43.1292 228.113 43.7292 228.46C44.3426 228.807 44.8292 229.287 45.1892 229.9C45.5492 230.513 45.7292 231.213 45.7292 232V239H43.4692V232.62C43.4692 232.073 43.3692 231.613 43.1692 231.24C42.9826 230.853 42.7159 230.56 42.3692 230.36C42.0359 230.147 41.6426 230.04 41.1892 230.04C40.7359 230.04 40.3359 230.147 39.9892 230.36C39.6426 230.56 39.3692 230.853 39.1692 231.24C38.9692 231.627 38.8692 232.087 38.8692 232.62V239H36.6292V232.62C36.6292 232.073 36.5292 231.613 36.3292 231.24C36.1426 230.853 35.8759 230.56 35.5292 230.36C35.1959 230.147 34.7959 230.04 34.3292 230.04C33.8759 230.04 33.4759 230.147 33.1292 230.36C32.7826 230.56 32.5092 230.853 32.3092 231.24C32.1226 231.627 32.0292 232.087 32.0292 232.62V239H29.7692ZM48.1481 243V228.18H50.3081V230.42L50.0481 229.9C50.4481 229.287 50.9815 228.807 51.6481 228.46C52.3148 228.113 53.0748 227.94 53.9281 227.94C54.9548 227.94 55.8748 228.187 56.6881 228.68C57.5148 229.173 58.1615 229.847 58.6281 230.7C59.1081 231.553 59.3481 232.513 59.3481 233.58C59.3481 234.647 59.1081 235.607 58.6281 236.46C58.1615 237.313 57.5215 237.993 56.7081 238.5C55.8948 238.993 54.9681 239.24 53.9281 239.24C53.0881 239.24 52.3215 239.067 51.6281 238.72C50.9481 238.373 50.4215 237.873 50.0481 237.22L50.4081 236.8V243H48.1481ZM53.7081 237.14C54.3481 237.14 54.9148 236.987 55.4081 236.68C55.9015 236.373 56.2881 235.953 56.5681 235.42C56.8615 234.873 57.0081 234.26 57.0081 233.58C57.0081 232.9 56.8615 232.293 56.5681 231.76C56.2881 231.227 55.9015 230.807 55.4081 230.5C54.9148 230.193 54.3481 230.04 53.7081 230.04C53.0815 230.04 52.5148 230.193 52.0081 230.5C51.5148 230.807 51.1215 231.227 50.8281 231.76C50.5481 232.293 50.4081 232.9 50.4081 233.58C50.4081 234.26 50.5481 234.873 50.8281 235.42C51.1215 235.953 51.5148 236.373 52.0081 236.68C52.5148 236.987 53.0815 237.14 53.7081 237.14ZM61.5466 239V228.18H63.7066V230.36L63.5066 230.04C63.7466 229.333 64.1332 228.827 64.6666 228.52C65.1999 228.2 65.8399 228.04 66.5866 228.04H67.2466V230.1H66.3066C65.5599 230.1 64.9532 230.333 64.4866 230.8C64.0332 231.253 63.8066 231.907 63.8066 232.76V239H61.5466ZM74.0127 239.24C72.9727 239.24 72.0193 238.993 71.1527 238.5C70.2993 238.007 69.6193 237.333 69.1127 236.48C68.606 235.627 68.3527 234.66 68.3527 233.58C68.3527 232.487 68.606 231.52 69.1127 230.68C69.6193 229.827 70.2993 229.16 71.1527 228.68C72.006 228.187 72.9593 227.94 74.0127 227.94C75.0793 227.94 76.0327 228.187 76.8727 228.68C77.726 229.16 78.3993 229.827 78.8927 230.68C79.3993 231.52 79.6527 232.487 79.6527 233.58C79.6527 234.673 79.3993 235.647 78.8927 236.5C78.386 237.353 77.706 238.027 76.8527 238.52C75.9993 239 75.0527 239.24 74.0127 239.24ZM74.0127 237.14C74.6527 237.14 75.2193 236.987 75.7127 236.68C76.206 236.373 76.5927 235.953 76.8727 235.42C77.166 234.873 77.3127 234.26 77.3127 233.58C77.3127 232.9 77.166 232.293 76.8727 231.76C76.5927 231.227 76.206 230.807 75.7127 230.5C75.2193 230.193 74.6527 230.04 74.0127 230.04C73.386 230.04 72.8193 230.193 72.3127 230.5C71.8193 230.807 71.426 231.227 71.1327 231.76C70.8527 232.293 70.7127 232.9 70.7127 233.58C70.7127 234.26 70.8527 234.873 71.1327 235.42C71.426 235.953 71.8193 236.373 72.3127 236.68C72.8193 236.987 73.386 237.14 74.0127 237.14ZM84.8038 239L80.5638 228.18H83.0238L86.2838 237H85.3838L88.6438 228.18H91.1238L86.8638 239H84.8038ZM97.5445 239.24C96.4645 239.24 95.5045 238.993 94.6645 238.5C93.8379 237.993 93.1912 237.313 92.7245 236.46C92.2579 235.593 92.0245 234.627 92.0245 233.56C92.0245 232.467 92.2579 231.5 92.7245 230.66C93.2045 229.82 93.8445 229.16 94.6445 228.68C95.4445 228.187 96.3512 227.94 97.3645 227.94C98.1779 227.94 98.9045 228.08 99.5445 228.36C100.185 228.64 100.725 229.027 101.165 229.52C101.605 230 101.938 230.553 102.165 231.18C102.405 231.807 102.525 232.473 102.525 233.18C102.525 233.353 102.518 233.533 102.505 233.72C102.491 233.907 102.465 234.08 102.425 234.24H93.8045V232.44H101.145L100.065 233.26C100.198 232.607 100.151 232.027 99.9245 231.52C99.7112 231 99.3779 230.593 98.9245 230.3C98.4845 229.993 97.9645 229.84 97.3645 229.84C96.7645 229.84 96.2312 229.993 95.7645 230.3C95.2979 230.593 94.9379 231.02 94.6845 231.58C94.4312 232.127 94.3312 232.793 94.3845 233.58C94.3179 234.313 94.4179 234.953 94.6845 235.5C94.9645 236.047 95.3512 236.473 95.8445 236.78C96.3512 237.087 96.9245 237.24 97.5645 237.24C98.2179 237.24 98.7712 237.093 99.2245 236.8C99.6912 236.507 100.058 236.127 100.325 235.66L102.165 236.56C101.951 237.067 101.618 237.527 101.165 237.94C100.725 238.34 100.191 238.66 99.5645 238.9C98.9512 239.127 98.2779 239.24 97.5445 239.24ZM109.73 239.24C108.69 239.24 107.757 238.993 106.93 238.5C106.117 237.993 105.47 237.313 104.99 236.46C104.523 235.607 104.29 234.647 104.29 233.58C104.29 232.513 104.53 231.553 105.01 230.7C105.49 229.847 106.137 229.173 106.95 228.68C107.763 228.187 108.683 227.94 109.71 227.94C110.577 227.94 111.343 228.113 112.01 228.46C112.677 228.807 113.203 229.287 113.59 229.9L113.25 230.42V223.86H115.49V239H113.35V236.8L113.61 237.22C113.237 237.873 112.703 238.373 112.01 238.72C111.317 239.067 110.557 239.24 109.73 239.24ZM109.95 237.14C110.577 237.14 111.137 236.987 111.63 236.68C112.137 236.373 112.53 235.953 112.81 235.42C113.103 234.873 113.25 234.26 113.25 233.58C113.25 232.9 113.103 232.293 112.81 231.76C112.53 231.227 112.137 230.807 111.63 230.5C111.137 230.193 110.577 230.04 109.95 230.04C109.323 230.04 108.757 230.193 108.25 230.5C107.743 230.807 107.35 231.227 107.07 231.76C106.79 232.293 106.65 232.9 106.65 233.58C106.65 234.26 106.79 234.873 107.07 235.42C107.35 235.953 107.737 236.373 108.23 236.68C108.737 236.987 109.31 237.14 109.95 237.14ZM128.785 239.24C127.731 239.24 126.751 239.047 125.845 238.66C124.951 238.273 124.171 237.74 123.505 237.06C122.851 236.367 122.338 235.553 121.965 234.62C121.591 233.687 121.405 232.66 121.405 231.54C121.405 230.433 121.585 229.413 121.945 228.48C122.318 227.533 122.838 226.72 123.505 226.04C124.171 225.347 124.951 224.813 125.845 224.44C126.738 224.053 127.718 223.86 128.785 223.86C129.838 223.86 130.778 224.04 131.605 224.4C132.445 224.76 133.151 225.233 133.725 225.82C134.298 226.393 134.711 227.02 134.965 227.7L132.845 228.7C132.525 227.9 132.011 227.253 131.305 226.76C130.611 226.253 129.771 226 128.785 226C127.798 226 126.925 226.233 126.165 226.7C125.405 227.167 124.811 227.813 124.385 228.64C123.971 229.467 123.765 230.433 123.765 231.54C123.765 232.647 123.971 233.62 124.385 234.46C124.811 235.287 125.405 235.933 126.165 236.4C126.925 236.853 127.798 237.08 128.785 237.08C129.771 237.08 130.611 236.833 131.305 236.34C132.011 235.847 132.525 235.2 132.845 234.4L134.965 235.4C134.711 236.067 134.298 236.693 133.725 237.28C133.151 237.867 132.445 238.34 131.605 238.7C130.778 239.06 129.838 239.24 128.785 239.24ZM141.032 239.24C140.218 239.24 139.505 239.06 138.892 238.7C138.278 238.327 137.798 237.813 137.452 237.16C137.118 236.493 136.952 235.727 136.952 234.86V228.18H139.212V234.66C139.212 235.153 139.312 235.587 139.512 235.96C139.712 236.333 139.992 236.627 140.352 236.84C140.712 237.04 141.125 237.14 141.592 237.14C142.072 237.14 142.492 237.033 142.852 236.82C143.212 236.607 143.492 236.307 143.692 235.92C143.905 235.533 144.012 235.08 144.012 234.56V228.18H146.252V239H144.112V236.88L144.352 237.16C144.098 237.827 143.678 238.34 143.092 238.7C142.505 239.06 141.818 239.24 141.032 239.24ZM152.89 239.24C151.784 239.24 150.81 238.967 149.97 238.42C149.144 237.873 148.564 237.14 148.23 236.22L149.97 235.4C150.264 236.013 150.664 236.5 151.17 236.86C151.69 237.22 152.264 237.4 152.89 237.4C153.424 237.4 153.857 237.28 154.19 237.04C154.524 236.8 154.69 236.473 154.69 236.06C154.69 235.793 154.617 235.58 154.47 235.42C154.324 235.247 154.137 235.107 153.91 235C153.697 234.893 153.477 234.813 153.25 234.76L151.55 234.28C150.617 234.013 149.917 233.613 149.45 233.08C148.997 232.533 148.77 231.9 148.77 231.18C148.77 230.527 148.937 229.96 149.27 229.48C149.604 228.987 150.064 228.607 150.65 228.34C151.237 228.073 151.897 227.94 152.63 227.94C153.617 227.94 154.497 228.187 155.27 228.68C156.044 229.16 156.59 229.833 156.91 230.7L155.17 231.52C154.957 231 154.617 230.587 154.15 230.28C153.697 229.973 153.184 229.82 152.61 229.82C152.117 229.82 151.724 229.94 151.43 230.18C151.137 230.407 150.99 230.707 150.99 231.08C150.99 231.333 151.057 231.547 151.19 231.72C151.324 231.88 151.497 232.013 151.71 232.12C151.924 232.213 152.144 232.293 152.37 232.36L154.13 232.88C155.024 233.133 155.71 233.533 156.19 234.08C156.67 234.613 156.91 235.253 156.91 236C156.91 236.64 156.737 237.207 156.39 237.7C156.057 238.18 155.59 238.56 154.99 238.84C154.39 239.107 153.69 239.24 152.89 239.24ZM163.805 239.12C162.671 239.12 161.791 238.8 161.165 238.16C160.538 237.52 160.225 236.62 160.225 235.46V230.22H158.325V228.18H158.625C159.131 228.18 159.525 228.033 159.805 227.74C160.085 227.447 160.225 227.047 160.225 226.54V225.7H162.485V228.18H164.945V230.22H162.485V235.36C162.485 235.733 162.545 236.053 162.665 236.32C162.785 236.573 162.978 236.773 163.245 236.92C163.511 237.053 163.858 237.12 164.285 237.12C164.391 237.12 164.511 237.113 164.645 237.1C164.778 237.087 164.905 237.073 165.025 237.06V239C164.838 239.027 164.631 239.053 164.405 239.08C164.178 239.107 163.978 239.12 163.805 239.12ZM172.255 239.24C171.215 239.24 170.262 238.993 169.395 238.5C168.542 238.007 167.862 237.333 167.355 236.48C166.848 235.627 166.595 234.66 166.595 233.58C166.595 232.487 166.848 231.52 167.355 230.68C167.862 229.827 168.542 229.16 169.395 228.68C170.248 228.187 171.202 227.94 172.255 227.94C173.322 227.94 174.275 228.187 175.115 228.68C175.968 229.16 176.642 229.827 177.135 230.68C177.642 231.52 177.895 232.487 177.895 233.58C177.895 234.673 177.642 235.647 177.135 236.5C176.628 237.353 175.948 238.027 175.095 238.52C174.242 239 173.295 239.24 172.255 239.24ZM172.255 237.14C172.895 237.14 173.462 236.987 173.955 236.68C174.448 236.373 174.835 235.953 175.115 235.42C175.408 234.873 175.555 234.26 175.555 233.58C175.555 232.9 175.408 232.293 175.115 231.76C174.835 231.227 174.448 230.807 173.955 230.5C173.462 230.193 172.895 230.04 172.255 230.04C171.628 230.04 171.062 230.193 170.555 230.5C170.062 230.807 169.668 231.227 169.375 231.76C169.095 232.293 168.955 232.9 168.955 233.58C168.955 234.26 169.095 234.873 169.375 235.42C169.668 235.953 170.062 236.373 170.555 236.68C171.062 236.987 171.628 237.14 172.255 237.14ZM180.101 239V228.18H182.261V230.52L181.981 230.16C182.208 229.427 182.621 228.873 183.221 228.5C183.821 228.127 184.508 227.94 185.281 227.94C186.148 227.94 186.915 228.173 187.581 228.64C188.261 229.093 188.715 229.7 188.941 230.46L188.301 230.52C188.621 229.653 189.108 229.007 189.761 228.58C190.428 228.153 191.188 227.94 192.041 227.94C192.788 227.94 193.461 228.113 194.061 228.46C194.675 228.807 195.161 229.287 195.521 229.9C195.881 230.513 196.061 231.213 196.061 232V239H193.801V232.62C193.801 232.073 193.701 231.613 193.501 231.24C193.315 230.853 193.048 230.56 192.701 230.36C192.368 230.147 191.975 230.04 191.521 230.04C191.068 230.04 190.668 230.147 190.321 230.36C189.975 230.56 189.701 230.853 189.501 231.24C189.301 231.627 189.201 232.087 189.201 232.62V239H186.961V232.62C186.961 232.073 186.861 231.613 186.661 231.24C186.475 230.853 186.208 230.56 185.861 230.36C185.528 230.147 185.128 230.04 184.661 230.04C184.208 230.04 183.808 230.147 183.461 230.36C183.115 230.56 182.841 230.853 182.641 231.24C182.455 231.627 182.361 232.087 182.361 232.62V239H180.101ZM203.56 239.24C202.48 239.24 201.52 238.993 200.68 238.5C199.853 237.993 199.207 237.313 198.74 236.46C198.273 235.593 198.04 234.627 198.04 233.56C198.04 232.467 198.273 231.5 198.74 230.66C199.22 229.82 199.86 229.16 200.66 228.68C201.46 228.187 202.367 227.94 203.38 227.94C204.193 227.94 204.92 228.08 205.56 228.36C206.2 228.64 206.74 229.027 207.18 229.52C207.62 230 207.953 230.553 208.18 231.18C208.42 231.807 208.54 232.473 208.54 233.18C208.54 233.353 208.533 233.533 208.52 233.72C208.507 233.907 208.48 234.08 208.44 234.24H199.82V232.44H207.16L206.08 233.26C206.213 232.607 206.167 232.027 205.94 231.52C205.727 231 205.393 230.593 204.94 230.3C204.5 229.993 203.98 229.84 203.38 229.84C202.78 229.84 202.247 229.993 201.78 230.3C201.313 230.593 200.953 231.02 200.7 231.58C200.447 232.127 200.347 232.793 200.4 233.58C200.333 234.313 200.433 234.953 200.7 235.5C200.98 236.047 201.367 236.473 201.86 236.78C202.367 237.087 202.94 237.24 203.58 237.24C204.233 237.24 204.787 237.093 205.24 236.8C205.707 236.507 206.073 236.127 206.34 235.66L208.18 236.56C207.967 237.067 207.633 237.527 207.18 237.94C206.74 238.34 206.207 238.66 205.58 238.9C204.967 239.127 204.293 239.24 203.56 239.24ZM210.746 239V228.18H212.906V230.36L212.706 230.04C212.946 229.333 213.332 228.827 213.866 228.52C214.399 228.2 215.039 228.04 215.786 228.04H216.446V230.1H215.506C214.759 230.1 214.152 230.333 213.686 230.8C213.232 231.253 213.006 231.907 213.006 232.76V239H210.746ZM24.54 272V257.1H34.36V259.2H26.9V263.48H33.96V265.58H26.9V269.9H34.36V272H24.54ZM36.3317 272V261.18H38.4917V263.3L38.2317 263.02C38.4984 262.34 38.9251 261.827 39.5117 261.48C40.0984 261.12 40.7784 260.94 41.5517 260.94C42.3517 260.94 43.0584 261.113 43.6717 261.46C44.2851 261.807 44.7651 262.287 45.1117 262.9C45.4584 263.513 45.6317 264.22 45.6317 265.02V272H43.3917V265.62C43.3917 265.073 43.2917 264.613 43.0917 264.24C42.8917 263.853 42.6051 263.56 42.2317 263.36C41.8717 263.147 41.4584 263.04 40.9917 263.04C40.5251 263.04 40.1051 263.147 39.7317 263.36C39.3717 263.56 39.0917 263.853 38.8917 264.24C38.6917 264.627 38.5917 265.087 38.5917 265.62V272H36.3317ZM53.2705 276.4C52.4838 276.4 51.7571 276.273 51.0905 276.02C50.4238 275.767 49.8505 275.413 49.3705 274.96C48.8905 274.52 48.5305 274 48.2905 273.4L50.3705 272.54C50.5571 273.047 50.8971 273.467 51.3905 273.8C51.8971 274.133 52.5171 274.3 53.2505 274.3C53.8238 274.3 54.3371 274.187 54.7905 273.96C55.2438 273.747 55.6038 273.427 55.8705 273C56.1371 272.587 56.2705 272.087 56.2705 271.5V269.06L56.6705 269.52C56.2971 270.213 55.7771 270.74 55.1105 271.1C54.4571 271.46 53.7171 271.64 52.8905 271.64C51.8905 271.64 50.9905 271.407 50.1905 270.94C49.3905 270.473 48.7571 269.833 48.2905 269.02C47.8371 268.207 47.6105 267.293 47.6105 266.28C47.6105 265.253 47.8371 264.34 48.2905 263.54C48.7571 262.74 49.3838 262.107 50.1705 261.64C50.9571 261.173 51.8571 260.94 52.8705 260.94C53.6971 260.94 54.4305 261.12 55.0705 261.48C55.7238 261.827 56.2571 262.333 56.6705 263L56.3705 263.56V261.18H58.5105V271.5C58.5105 272.433 58.2838 273.267 57.8305 274C57.3905 274.747 56.7771 275.333 55.9905 275.76C55.2038 276.187 54.2971 276.4 53.2705 276.4ZM53.1505 269.54C53.7505 269.54 54.2838 269.4 54.7505 269.12C55.2171 268.827 55.5838 268.44 55.8505 267.96C56.1305 267.467 56.2705 266.913 56.2705 266.3C56.2705 265.687 56.1305 265.133 55.8505 264.64C55.5705 264.147 55.1971 263.76 54.7305 263.48C54.2638 263.187 53.7371 263.04 53.1505 263.04C52.5371 263.04 51.9905 263.187 51.5105 263.48C51.0305 263.76 50.6505 264.147 50.3705 264.64C50.1038 265.12 49.9705 265.673 49.9705 266.3C49.9705 266.9 50.1038 267.447 50.3705 267.94C50.6505 268.433 51.0305 268.827 51.5105 269.12C51.9905 269.4 52.5371 269.54 53.1505 269.54ZM64.3959 272.24C63.6626 272.24 63.0159 272.113 62.4559 271.86C61.9093 271.593 61.4826 271.233 61.1759 270.78C60.8693 270.313 60.7159 269.767 60.7159 269.14C60.7159 268.553 60.8426 268.027 61.0959 267.56C61.3626 267.093 61.7693 266.7 62.3159 266.38C62.8626 266.06 63.5493 265.833 64.3759 265.7L68.1359 265.08V266.86L64.8159 267.44C64.2159 267.547 63.7759 267.74 63.4959 268.02C63.2159 268.287 63.0759 268.633 63.0759 269.06C63.0759 269.473 63.2293 269.813 63.5359 270.08C63.8559 270.333 64.2626 270.46 64.7559 270.46C65.3693 270.46 65.9026 270.327 66.3559 270.06C66.8226 269.793 67.1826 269.44 67.4359 269C67.6893 268.547 67.8159 268.047 67.8159 267.5V264.72C67.8159 264.187 67.6159 263.753 67.2159 263.42C66.8293 263.073 66.3093 262.9 65.6559 262.9C65.0559 262.9 64.5293 263.06 64.0759 263.38C63.6359 263.687 63.3093 264.087 63.0959 264.58L61.2159 263.64C61.4159 263.107 61.7426 262.64 62.1959 262.24C62.6493 261.827 63.1759 261.507 63.7759 261.28C64.3893 261.053 65.0359 260.94 65.7159 260.94C66.5693 260.94 67.3226 261.1 67.9759 261.42C68.6426 261.74 69.1559 262.187 69.5159 262.76C69.8893 263.32 70.0759 263.973 70.0759 264.72V272H67.9159V270.04L68.3759 270.1C68.1226 270.54 67.7959 270.92 67.3959 271.24C67.0093 271.56 66.5626 271.807 66.0559 271.98C65.5626 272.153 65.0093 272.24 64.3959 272.24ZM77.9384 276.4C77.1518 276.4 76.4251 276.273 75.7584 276.02C75.0918 275.767 74.5184 275.413 74.0384 274.96C73.5584 274.52 73.1984 274 72.9584 273.4L75.0384 272.54C75.2251 273.047 75.5651 273.467 76.0584 273.8C76.5651 274.133 77.1851 274.3 77.9184 274.3C78.4918 274.3 79.0051 274.187 79.4584 273.96C79.9118 273.747 80.2718 273.427 80.5384 273C80.8051 272.587 80.9384 272.087 80.9384 271.5V269.06L81.3384 269.52C80.9651 270.213 80.4451 270.74 79.7784 271.1C79.1251 271.46 78.3851 271.64 77.5584 271.64C76.5584 271.64 75.6584 271.407 74.8584 270.94C74.0584 270.473 73.4251 269.833 72.9584 269.02C72.5051 268.207 72.2784 267.293 72.2784 266.28C72.2784 265.253 72.5051 264.34 72.9584 263.54C73.4251 262.74 74.0518 262.107 74.8384 261.64C75.6251 261.173 76.5251 260.94 77.5384 260.94C78.3651 260.94 79.0984 261.12 79.7384 261.48C80.3918 261.827 80.9251 262.333 81.3384 263L81.0384 263.56V261.18H83.1784V271.5C83.1784 272.433 82.9518 273.267 82.4984 274C82.0584 274.747 81.4451 275.333 80.6584 275.76C79.8718 276.187 78.9651 276.4 77.9384 276.4ZM77.8184 269.54C78.4184 269.54 78.9518 269.4 79.4184 269.12C79.8851 268.827 80.2518 268.44 80.5184 267.96C80.7984 267.467 80.9384 266.913 80.9384 266.3C80.9384 265.687 80.7984 265.133 80.5184 264.64C80.2384 264.147 79.8651 263.76 79.3984 263.48C78.9318 263.187 78.4051 263.04 77.8184 263.04C77.2051 263.04 76.6584 263.187 76.1784 263.48C75.6984 263.76 75.3184 264.147 75.0384 264.64C74.7718 265.12 74.6384 265.673 74.6384 266.3C74.6384 266.9 74.7718 267.447 75.0384 267.94C75.3184 268.433 75.6984 268.827 76.1784 269.12C76.6584 269.4 77.2051 269.54 77.8184 269.54ZM90.9039 272.24C89.8239 272.24 88.8639 271.993 88.0239 271.5C87.1972 270.993 86.5506 270.313 86.0839 269.46C85.6172 268.593 85.3839 267.627 85.3839 266.56C85.3839 265.467 85.6172 264.5 86.0839 263.66C86.5639 262.82 87.2039 262.16 88.0039 261.68C88.8039 261.187 89.7106 260.94 90.7239 260.94C91.5372 260.94 92.2639 261.08 92.9039 261.36C93.5439 261.64 94.0839 262.027 94.5239 262.52C94.9639 263 95.2972 263.553 95.5239 264.18C95.7639 264.807 95.8839 265.473 95.8839 266.18C95.8839 266.353 95.8772 266.533 95.8639 266.72C95.8506 266.907 95.8239 267.08 95.7839 267.24H87.1639V265.44H94.5039L93.4239 266.26C93.5572 265.607 93.5106 265.027 93.2839 264.52C93.0706 264 92.7372 263.593 92.2839 263.3C91.8439 262.993 91.3239 262.84 90.7239 262.84C90.1239 262.84 89.5906 262.993 89.1239 263.3C88.6572 263.593 88.2972 264.02 88.0439 264.58C87.7906 265.127 87.6906 265.793 87.7439 266.58C87.6772 267.313 87.7772 267.953 88.0439 268.5C88.3239 269.047 88.7106 269.473 89.2039 269.78C89.7106 270.087 90.2839 270.24 90.9239 270.24C91.5772 270.24 92.1306 270.093 92.5839 269.8C93.0506 269.507 93.4172 269.127 93.6839 268.66L95.5239 269.56C95.3106 270.067 94.9772 270.527 94.5239 270.94C94.0839 271.34 93.5506 271.66 92.9239 271.9C92.3106 272.127 91.6372 272.24 90.9039 272.24ZM98.0895 272V261.18H100.25V263.52L99.9695 263.16C100.196 262.427 100.61 261.873 101.21 261.5C101.81 261.127 102.496 260.94 103.27 260.94C104.136 260.94 104.903 261.173 105.57 261.64C106.25 262.093 106.703 262.7 106.93 263.46L106.29 263.52C106.61 262.653 107.096 262.007 107.75 261.58C108.416 261.153 109.176 260.94 110.03 260.94C110.776 260.94 111.45 261.113 112.05 261.46C112.663 261.807 113.15 262.287 113.51 262.9C113.87 263.513 114.05 264.213 114.05 265V272H111.79V265.62C111.79 265.073 111.69 264.613 111.49 264.24C111.303 263.853 111.036 263.56 110.69 263.36C110.356 263.147 109.963 263.04 109.51 263.04C109.056 263.04 108.656 263.147 108.31 263.36C107.963 263.56 107.69 263.853 107.49 264.24C107.29 264.627 107.19 265.087 107.19 265.62V272H104.95V265.62C104.95 265.073 104.85 264.613 104.65 264.24C104.463 263.853 104.196 263.56 103.85 263.36C103.516 263.147 103.116 263.04 102.65 263.04C102.196 263.04 101.796 263.147 101.45 263.36C101.103 263.56 100.83 263.853 100.63 264.24C100.443 264.627 100.35 265.087 100.35 265.62V272H98.0895ZM121.548 272.24C120.468 272.24 119.508 271.993 118.668 271.5C117.842 270.993 117.195 270.313 116.728 269.46C116.262 268.593 116.028 267.627 116.028 266.56C116.028 265.467 116.262 264.5 116.728 263.66C117.208 262.82 117.848 262.16 118.648 261.68C119.448 261.187 120.355 260.94 121.368 260.94C122.182 260.94 122.908 261.08 123.548 261.36C124.188 261.64 124.728 262.027 125.168 262.52C125.608 263 125.942 263.553 126.168 264.18C126.408 264.807 126.528 265.473 126.528 266.18C126.528 266.353 126.522 266.533 126.508 266.72C126.495 266.907 126.468 267.08 126.428 267.24H117.808V265.44H125.148L124.068 266.26C124.202 265.607 124.155 265.027 123.928 264.52C123.715 264 123.382 263.593 122.928 263.3C122.488 262.993 121.968 262.84 121.368 262.84C120.768 262.84 120.235 262.993 119.768 263.3C119.302 263.593 118.942 264.02 118.688 264.58C118.435 265.127 118.335 265.793 118.388 266.58C118.322 267.313 118.422 267.953 118.688 268.5C118.968 269.047 119.355 269.473 119.848 269.78C120.355 270.087 120.928 270.24 121.568 270.24C122.222 270.24 122.775 270.093 123.228 269.8C123.695 269.507 124.062 269.127 124.328 268.66L126.168 269.56C125.955 270.067 125.622 270.527 125.168 270.94C124.728 271.34 124.195 271.66 123.568 271.9C122.955 272.127 122.282 272.24 121.548 272.24ZM128.734 272V261.18H130.894V263.3L130.634 263.02C130.901 262.34 131.327 261.827 131.914 261.48C132.501 261.12 133.181 260.94 133.954 260.94C134.754 260.94 135.461 261.113 136.074 261.46C136.687 261.807 137.167 262.287 137.514 262.9C137.861 263.513 138.034 264.22 138.034 265.02V272H135.794V265.62C135.794 265.073 135.694 264.613 135.494 264.24C135.294 263.853 135.007 263.56 134.634 263.36C134.274 263.147 133.861 263.04 133.394 263.04C132.927 263.04 132.507 263.147 132.134 263.36C131.774 263.56 131.494 263.853 131.294 264.24C131.094 264.627 130.994 265.087 130.994 265.62V272H128.734ZM145.133 272.12C143.999 272.12 143.119 271.8 142.493 271.16C141.866 270.52 141.553 269.62 141.553 268.46V263.22H139.653V261.18H139.953C140.459 261.18 140.853 261.033 141.133 260.74C141.413 260.447 141.553 260.047 141.553 259.54V258.7H143.813V261.18H146.273V263.22H143.813V268.36C143.813 268.733 143.873 269.053 143.993 269.32C144.113 269.573 144.306 269.773 144.573 269.92C144.839 270.053 145.186 270.12 145.613 270.12C145.719 270.12 145.839 270.113 145.973 270.1C146.106 270.087 146.233 270.073 146.353 270.06V272C146.166 272.027 145.959 272.053 145.733 272.08C145.506 272.107 145.306 272.12 145.133 272.12Z" fill="white"/>
<path d="M64.985 50.7107C67.3209 50.7107 69.2231 48.7843 69.2231 46.4187C69.2231 44.0531 67.3209 42.1267 64.985 42.1267C62.6492 42.1267 60.747 44.0531 60.747 46.4187C60.7546 48.7843 62.6492 50.7107 64.985 50.7107ZM64.985 43.8605C66.3774 43.8605 67.5111 45.0086 67.5111 46.4187C67.5111 47.8288 66.3774 48.9769 64.985 48.9769C63.5926 48.9769 62.459 47.8288 62.459 46.4187C62.459 45.0086 63.5926 43.8605 64.985 43.8605ZM43.2013 63.471C44.3046 63.471 45.385 63.2861 46.4198 62.9547C48.6111 64.6499 51.3122 65.6054 54.0894 65.6054C56.8742 65.6054 59.5676 64.6499 61.759 62.9547C62.7937 63.2938 63.8742 63.471 64.9774 63.471C67.8916 63.471 70.6079 62.292 72.6166 60.1499C72.9133 59.8263 73.0655 59.4256 73.0427 58.9864C72.8296 54.3014 69.5122 51.0266 64.9774 51.0266C63.0448 51.0266 61.3176 51.6122 59.9329 52.7141C58.3122 51.4812 56.3187 50.8262 54.0894 50.8262C51.8524 50.8262 49.859 51.4812 48.2459 52.7141C46.8611 51.6045 45.134 51.0266 43.2013 51.0266C38.6666 51.0266 35.3492 54.3014 35.1361 58.9864C35.1133 59.4256 35.2655 59.834 35.5622 60.1499C37.5785 62.2843 40.2872 63.471 43.2013 63.471ZM71.3459 59.0018C69.6644 60.7664 67.4122 61.745 64.985 61.745C64.4144 61.745 63.8513 61.6833 63.2959 61.5754C63.3035 61.5677 63.3035 61.5677 63.3111 61.56C63.6079 61.2441 63.7524 60.8434 63.7372 60.4119C63.6383 57.9076 62.7481 55.6114 61.2263 53.9084C62.2687 53.1533 63.5546 52.7526 64.985 52.7526C68.5992 52.7449 71.1481 55.2569 71.3459 59.0018ZM62.0329 60.4196C59.9481 62.6465 57.1329 63.8717 54.097 63.8717C51.0687 63.8717 48.2535 62.6465 46.1611 60.4196C46.3742 55.7809 49.6231 52.5523 54.097 52.5523C58.5633 52.5523 61.8198 55.7809 62.0329 60.4196ZM43.2013 52.7449C44.6394 52.7449 45.9176 53.1456 46.96 53.9007C45.4459 55.6114 44.5481 57.8999 44.4492 60.4042C44.434 60.8357 44.5785 61.2364 44.8753 61.5523C44.8829 61.56 44.8829 61.56 44.8905 61.5677C44.335 61.6756 43.772 61.7372 43.2013 61.7372C40.7742 61.7372 38.522 60.7664 36.8405 58.9941C37.0459 55.2569 39.5948 52.7449 43.2013 52.7449ZM43.2013 50.7107C45.5372 50.7107 47.4394 48.7843 47.4394 46.4187C47.4394 44.0531 45.5372 42.1267 43.2013 42.1267C40.8655 42.1267 38.9633 44.0531 38.9633 46.4187C38.9709 48.7843 40.8655 50.7107 43.2013 50.7107ZM43.2013 43.8605C44.5937 43.8605 45.7274 45.0086 45.7274 46.4187C45.7274 47.8288 44.5937 48.9769 43.2013 48.9769C41.809 48.9769 40.6753 47.8288 40.6753 46.4187C40.6753 45.0086 41.809 43.8605 43.2013 43.8605ZM54.097 50.0711C56.8361 50.0711 59.0731 47.8134 59.0731 45.0394C59.0731 42.2654 56.8361 40 54.097 40C51.3579 40 49.1285 42.2577 49.1285 45.0317C49.1285 47.8057 51.3579 50.0711 54.097 50.0711ZM54.097 41.726C55.9003 41.726 57.3611 43.2132 57.3611 45.0317C57.3611 46.8502 55.8927 48.3374 54.097 48.3374C52.2937 48.3374 50.8329 46.8502 50.8329 45.0317C50.8329 43.2132 52.2937 41.726 54.097 41.726ZM85.2242 84.6997L75.1046 66.9539C74.7318 66.2989 74.1231 65.8289 73.4003 65.6285C72.6774 65.4282 71.9166 65.5284 71.2698 65.9136L67.0546 68.3794C65.7155 69.1654 65.2513 70.9068 66.0274 72.263L66.3166 72.7715L63.2274 74.5823C61.0666 73.727 59.2253 73.2955 57.6046 73.2801C56.2122 73.2647 54.9796 73.5652 53.8992 74.1508C50.8937 73.3032 47.759 73.4419 44.7763 74.59L41.8242 72.864L42.1666 72.2707C42.9426 70.9145 42.4785 69.1731 41.1394 68.3871L36.9242 65.9213C36.2774 65.5438 35.5166 65.4436 34.7937 65.6362C34.0709 65.8366 33.4622 66.3066 33.0894 66.9616L22.9622 84.6997C22.1861 86.0558 22.6503 87.7973 23.9894 88.5833L28.2046 91.049C28.6459 91.3033 29.1253 91.4266 29.6046 91.4266C30.5785 91.4266 31.522 90.918 32.0394 90.0088L32.397 89.3846L35.2731 91.0952L34.9307 91.2956C34.0937 91.7887 33.4926 92.5824 33.2416 93.5302C32.9905 94.478 33.1198 95.4797 33.5992 96.3273C34.36 97.6603 35.8133 98.3307 37.2361 98.1381C37.1372 98.9086 37.2818 99.7254 37.6926 100.45C38.4003 101.69 39.7166 102.353 41.0481 102.284C40.9111 103.108 41.0405 103.979 41.4742 104.749C42.1894 105.998 43.5133 106.668 44.8524 106.583C44.7155 107.4 44.8448 108.263 45.2861 109.034C45.9557 110.213 47.1807 110.875 48.4437 110.875C49.06 110.875 49.684 110.713 50.2546 110.382L53.9981 108.194L57.7948 110.413C58.3503 110.737 58.959 110.891 59.56 110.891C60.8155 110.891 62.0405 110.22 62.7177 109.034C63.1513 108.263 63.2883 107.4 63.1513 106.583C64.4829 106.668 65.8144 105.998 66.5296 104.749C66.9709 103.979 67.1003 103.108 66.9633 102.284C67.3437 102.307 67.7242 102.261 68.1046 102.16C69.0481 101.906 69.8318 101.297 70.3111 100.45C70.722 99.7331 70.859 98.9163 70.76 98.1381C72.1753 98.3307 73.6437 97.6603 74.397 96.3273C74.884 95.4797 75.0057 94.4857 74.7546 93.5302C74.5035 92.5747 73.9024 91.781 73.0655 91.2956L72.7459 91.1107L75.7666 89.3307L76.1546 90.0165C76.672 90.9257 77.6231 91.4343 78.5894 91.4343C79.0687 91.4343 79.5481 91.311 79.9894 91.0567L84.2046 88.591C84.8513 88.2134 85.3155 87.5969 85.5133 86.8649C85.7111 86.1329 85.6046 85.3623 85.2242 84.6997ZM30.5633 89.1458C30.259 89.6774 29.5818 89.8624 29.0568 89.5541L24.8416 87.0884C24.3166 86.7802 24.134 86.0944 24.4383 85.5627L34.5579 67.8169C34.7024 67.5626 34.9383 67.3777 35.2274 67.3006C35.3263 67.2775 35.4176 67.2621 35.5166 67.2621C35.7068 67.2621 35.897 67.316 36.0644 67.4085L40.2796 69.8743C40.5307 70.0207 40.7133 70.2595 40.7894 70.5524C40.8655 70.8375 40.8274 71.138 40.6829 71.4L30.5633 89.1458ZM37.7155 96.1809C36.7948 96.7203 35.6079 96.3966 35.0753 95.4643C34.8166 95.0174 34.7481 94.4857 34.885 93.9848C35.022 93.4763 35.334 93.0524 35.7829 92.7982L42.3796 88.9377C42.684 88.7605 43.0111 88.6757 43.3383 88.6757C44.0079 88.6757 44.6546 89.0302 45.0122 89.6543C45.5372 90.579 45.2329 91.7733 44.3274 92.3127L37.7155 96.1809ZM41.809 100.296C40.8883 100.835 39.7013 100.511 39.1687 99.579C38.6361 98.6467 38.9481 97.4523 39.8687 96.9129L46.4807 93.0524C46.785 92.8752 47.1122 92.7905 47.4394 92.7905C48.109 92.7905 48.7557 93.1449 49.1133 93.7691C49.6459 94.7014 49.3263 95.9035 48.4057 96.4429L41.809 100.296ZM45.5905 104.603C45.1492 104.865 44.6242 104.934 44.1296 104.796C43.6274 104.657 43.209 104.341 42.9579 103.886C42.4329 102.969 42.7372 101.783 43.635 101.236L50.2622 97.3598C51.1829 96.8204 52.3698 97.1441 52.9024 98.0764C53.435 99.0088 53.1155 100.211 52.1948 100.75C51.8524 100.943 45.9329 104.403 45.5905 104.603ZM49.3948 108.887C48.4742 109.427 47.2872 109.103 46.7546 108.171C46.2296 107.246 46.534 106.052 47.447 105.512C49.235 104.464 54.0666 101.644 54.0666 101.644C54.5079 101.382 55.0329 101.313 55.5274 101.451C56.0296 101.59 56.4481 101.906 56.6992 102.361C56.9579 102.808 57.0263 103.339 56.8894 103.84C56.7524 104.349 56.4405 104.773 55.9916 105.027L49.3948 108.887ZM61.234 108.171C60.709 109.088 59.5296 109.427 58.647 108.918L55.7024 107.2L56.8513 106.529C57.6807 106.044 58.2666 105.266 58.5253 104.333L60.5416 105.512C61.4546 106.059 61.759 107.246 61.234 108.171ZM72.9133 95.4643C72.3807 96.3966 71.2013 96.7203 70.2731 96.1809L60.9829 90.7485C60.572 90.5096 60.0546 90.6483 59.8187 91.0644C59.5829 91.4805 59.7198 92.0045 60.1307 92.2434L68.3024 97.0208C69.0861 97.6064 69.3144 98.7237 68.8198 99.5867C68.5611 100.034 68.1503 100.357 67.6481 100.496C67.1459 100.635 66.6285 100.565 66.1872 100.303L58.2818 95.68C57.8709 95.4412 57.3535 95.5799 57.1176 95.996C56.8818 96.4121 57.0187 96.936 57.4296 97.1749L64.3383 101.213L64.3459 101.22C65.2437 101.752 65.5557 102.969 65.0383 103.886C64.7796 104.333 64.3687 104.657 63.8666 104.796C63.3644 104.934 62.847 104.865 62.4057 104.603L58.5177 102.33C58.434 102.045 58.335 101.76 58.1829 101.49C57.6959 100.642 56.9122 100.034 55.9763 99.7794C55.5883 99.6715 55.2003 99.633 54.8122 99.6561C54.9492 98.8393 54.8122 97.9763 54.3785 97.2057C53.6709 95.9651 52.3546 95.2948 51.0307 95.3718C51.1677 94.555 51.0383 93.6843 50.597 92.906C49.8361 91.573 48.3753 90.9026 46.96 91.0952C47.059 90.317 46.922 89.5079 46.5035 88.7836C45.4992 87.0267 43.2698 86.418 41.535 87.4351L36.9774 90.1012L33.2568 87.8898L40.972 74.3589L44.2818 76.293C44.4111 76.37 44.5633 76.4085 44.7079 76.4085C44.8144 76.4085 44.9285 76.3854 45.0274 76.3469C47.2187 75.4376 49.509 75.1448 51.7459 75.4608L48.7481 77.3332C48.6644 77.3871 48.5883 77.4565 48.5274 77.5336C48.1698 77.9882 47.759 78.6354 47.7666 79.5909L47.8046 86.7416C47.7818 87.9437 48.2535 88.9069 49.1361 89.4386C49.585 89.716 50.1176 89.847 50.6731 89.847C51.3046 89.847 51.9742 89.6697 52.5981 89.3153C54.2035 88.3983 55.1546 86.5259 55.1546 84.3221V83.7827L56.3796 83.5438C57.3231 84.5841 58.5633 85.2853 59.9253 85.6166L72.2057 92.7982C73.134 93.3298 73.4459 94.5319 72.9133 95.4643ZM71.0416 90.1089L63.2046 85.5319C63.4253 85.3469 63.5622 85.0541 63.5166 84.7459C63.4405 84.2759 63.0068 83.9522 62.5426 84.0293C60.5111 84.3529 58.5861 83.6209 57.384 82.0721C57.1861 81.8178 56.8666 81.6945 56.5546 81.7562L54.1427 82.2185C53.7394 82.2956 53.4503 82.65 53.4503 83.0661V84.3221C53.4503 86.5952 52.2633 87.5199 51.7535 87.8127C51.1372 88.1672 50.4524 88.2211 50.0187 87.9591C49.585 87.6971 49.509 87.1654 49.5166 86.7725C49.5166 86.7648 49.5166 86.757 49.5166 86.7493L49.4785 79.5909C49.4785 79.2904 49.5622 79.0361 49.7829 78.7279L54.447 75.8152C55.3068 75.2835 56.2959 75.0216 57.4829 75.0216C57.5133 75.0216 57.5513 75.0216 57.5818 75.0216C59.0807 75.037 60.8459 75.4762 62.9687 76.3546C63.2122 76.4548 63.4861 76.4394 63.722 76.3007L67.184 74.2741L74.9144 87.8358L71.0416 90.1089ZM83.8546 86.4103C83.7785 86.6954 83.5959 86.942 83.3448 87.0884L79.1296 89.5541C78.6046 89.8624 77.9274 89.6774 77.6231 89.1458L67.5035 71.4C67.359 71.1457 67.3209 70.8452 67.397 70.5524C67.4731 70.2673 67.6557 70.0207 67.9068 69.8743L72.122 67.4085C72.3731 67.2621 72.6698 67.2236 72.959 67.3006C73.2405 67.3777 73.484 67.5626 73.6285 67.8169L83.7481 85.5627C83.8927 85.8247 83.9307 86.1252 83.8546 86.4103ZM79.9057 82.5961C80.3698 83.4051 80.0959 84.4377 79.297 84.9077C78.4981 85.3778 77.4785 85.1004 77.0144 84.2913C76.5503 83.4822 76.8242 82.4497 77.6231 81.9796C78.422 81.5096 79.4416 81.787 79.9057 82.5961ZM31.1796 84.2913C30.7155 85.1004 29.6959 85.3778 28.897 84.9077C28.0981 84.4377 27.8242 83.4051 28.2883 82.5961C28.7524 81.787 29.772 81.5096 30.5709 81.9796C31.3698 82.4497 31.6437 83.4745 31.1796 84.2913Z" fill="white"/>
<defs>
<linearGradient id="paint0_linear_2313_4031" x1="-2.00001" y1="314" x2="321.5" y2="-9.49999" gradientUnits="userSpaceOnUse">
<stop stop-color="#11296A"/>
<stop offset="1" stop-color="#2150D0"/>
</linearGradient>
<linearGradient id="paint1_linear_2313_4031" x1="-2.00001" y1="314" x2="321.5" y2="-9.49999" gradientUnits="userSpaceOnUse">
<stop stop-color="#11296A"/>
<stop offset="1" stop-color="#2150D0"/>
</linearGradient>
<linearGradient id="paint2_linear_2313_4031" x1="367.787" y1="-128" x2="367.787" y2="216.727" gradientUnits="userSpaceOnUse">
<stop stop-color="white"/>
<stop offset="1" stop-color="white" stop-opacity="0"/>
</linearGradient>
<linearGradient id="paint3_linear_2313_4031" x1="465.787" y1="-128" x2="465.787" y2="216.727" gradientUnits="userSpaceOnUse">
<stop stop-color="white"/>
<stop offset="1" stop-color="white" stop-opacity="0"/>
</linearGradient>
</defs>
</svg>
