<svg width="285" height="300" viewBox="0 0 285 300" fill="none" xmlns="http://www.w3.org/2000/svg">
<rect width="285" height="300" rx="10" transform="matrix(1 0 0 -1 0 300)" fill="url(#paint0_linear_2313_4042)"/>
<mask id="mask0_2313_4042" style="mask-type:alpha" maskUnits="userSpaceOnUse" x="0" y="0" width="285" height="300">
<rect width="285" height="300" rx="10" transform="matrix(1 0 0 -1 0 300)" fill="url(#paint1_linear_2313_4042)"/>
</mask>
<g mask="url(#mask0_2313_4042)">
<rect x="338.605" y="-128" width="58.3621" height="344.727" rx="29.1811" transform="rotate(43.8011 338.605 -128)" fill="url(#paint2_linear_2313_4042)" fill-opacity="0.24"/>
<rect x="436.605" y="-128" width="58.3621" height="344.727" rx="29.1811" transform="rotate(43.8011 436.605 -128)" fill="url(#paint3_linear_2313_4042)" fill-opacity="0.24"/>
</g>
<path d="M31.78 239.24C30.7 239.24 29.6933 239.047 28.76 238.66C27.84 238.273 27.0267 237.733 26.32 237.04C25.6267 236.347 25.08 235.533 24.68 234.6C24.2933 233.667 24.1 232.647 24.1 231.54C24.1 230.433 24.2933 229.413 24.68 228.48C25.08 227.533 25.6267 226.72 26.32 226.04C27.0133 225.347 27.8267 224.813 28.76 224.44C29.6933 224.053 30.7 223.86 31.78 223.86C32.8733 223.86 33.88 224.053 34.8 224.44C35.7333 224.813 36.5467 225.347 37.24 226.04C37.9467 226.733 38.4933 227.547 38.88 228.48C39.2667 229.413 39.46 230.433 39.46 231.54C39.46 232.647 39.26 233.667 38.86 234.6C38.4733 235.533 37.9333 236.347 37.24 237.04C36.5467 237.733 35.7333 238.273 34.8 238.66C33.8667 239.047 32.86 239.24 31.78 239.24ZM31.78 237.08C32.5533 237.08 33.26 236.94 33.9 236.66C34.5533 236.38 35.12 235.993 35.6 235.5C36.08 234.993 36.4533 234.407 36.72 233.74C36.9867 233.06 37.12 232.327 37.12 231.54C37.12 230.753 36.9867 230.027 36.72 229.36C36.4533 228.693 36.08 228.107 35.6 227.6C35.12 227.093 34.5533 226.7 33.9 226.42C33.26 226.14 32.5533 226 31.78 226C31.0067 226 30.2933 226.14 29.64 226.42C29 226.7 28.44 227.093 27.96 227.6C27.48 228.107 27.1067 228.693 26.84 229.36C26.5867 230.027 26.46 230.753 26.46 231.54C26.46 232.327 26.5867 233.06 26.84 233.74C27.1067 234.407 27.48 234.993 27.96 235.5C28.44 235.993 29.0067 236.38 29.66 236.66C30.3133 236.94 31.02 237.08 31.78 237.08ZM42.0786 243V228.18H44.2386V230.42L43.9786 229.9C44.3786 229.287 44.9119 228.807 45.5786 228.46C46.2453 228.113 47.0053 227.94 47.8586 227.94C48.8853 227.94 49.8053 228.187 50.6186 228.68C51.4453 229.173 52.0919 229.847 52.5586 230.7C53.0386 231.553 53.2786 232.513 53.2786 233.58C53.2786 234.647 53.0386 235.607 52.5586 236.46C52.0919 237.313 51.4519 237.993 50.6386 238.5C49.8253 238.993 48.8986 239.24 47.8586 239.24C47.0186 239.24 46.2519 239.067 45.5586 238.72C44.8786 238.373 44.3519 237.873 43.9786 237.22L44.3386 236.8V243H42.0786ZM47.6386 237.14C48.2786 237.14 48.8453 236.987 49.3386 236.68C49.8319 236.373 50.2186 235.953 50.4986 235.42C50.7919 234.873 50.9386 234.26 50.9386 233.58C50.9386 232.9 50.7919 232.293 50.4986 231.76C50.2186 231.227 49.8319 230.807 49.3386 230.5C48.8453 230.193 48.2786 230.04 47.6386 230.04C47.0119 230.04 46.4453 230.193 45.9386 230.5C45.4453 230.807 45.0519 231.227 44.7586 231.76C44.4786 232.293 44.3386 232.9 44.3386 233.58C44.3386 234.26 44.4786 234.873 44.7586 235.42C45.0519 235.953 45.4453 236.373 45.9386 236.68C46.4453 236.987 47.0119 237.14 47.6386 237.14ZM60.757 239.24C59.677 239.24 58.717 238.993 57.877 238.5C57.0504 237.993 56.4037 237.313 55.937 236.46C55.4704 235.593 55.237 234.627 55.237 233.56C55.237 232.467 55.4704 231.5 55.937 230.66C56.417 229.82 57.057 229.16 57.857 228.68C58.657 228.187 59.5637 227.94 60.577 227.94C61.3904 227.94 62.117 228.08 62.757 228.36C63.397 228.64 63.937 229.027 64.377 229.52C64.817 230 65.1504 230.553 65.377 231.18C65.617 231.807 65.737 232.473 65.737 233.18C65.737 233.353 65.7304 233.533 65.717 233.72C65.7037 233.907 65.677 234.08 65.637 234.24H57.017V232.44H64.357L63.277 233.26C63.4104 232.607 63.3637 232.027 63.137 231.52C62.9237 231 62.5904 230.593 62.137 230.3C61.697 229.993 61.177 229.84 60.577 229.84C59.977 229.84 59.4437 229.993 58.977 230.3C58.5104 230.593 58.1504 231.02 57.897 231.58C57.6437 232.127 57.5437 232.793 57.597 233.58C57.5304 234.313 57.6304 234.953 57.897 235.5C58.177 236.047 58.5637 236.473 59.057 236.78C59.5637 237.087 60.137 237.24 60.777 237.24C61.4304 237.24 61.9837 237.093 62.437 236.8C62.9037 236.507 63.2704 236.127 63.537 235.66L65.377 236.56C65.1637 237.067 64.8304 237.527 64.377 237.94C63.937 238.34 63.4037 238.66 62.777 238.9C62.1637 239.127 61.4904 239.24 60.757 239.24ZM68.1427 239V228.18H70.3027V230.36L70.1027 230.04C70.3427 229.333 70.7293 228.827 71.2627 228.52C71.796 228.2 72.436 228.04 73.1827 228.04H73.8427V230.1H72.9027C72.156 230.1 71.5493 230.333 71.0827 230.8C70.6293 231.253 70.4027 231.907 70.4027 232.76V239H68.1427ZM78.8287 239.24C78.0954 239.24 77.4487 239.113 76.8887 238.86C76.3421 238.593 75.9154 238.233 75.6087 237.78C75.3021 237.313 75.1487 236.767 75.1487 236.14C75.1487 235.553 75.2754 235.027 75.5287 234.56C75.7954 234.093 76.2021 233.7 76.7487 233.38C77.2954 233.06 77.9821 232.833 78.8087 232.7L82.5687 232.08V233.86L79.2487 234.44C78.6487 234.547 78.2087 234.74 77.9287 235.02C77.6487 235.287 77.5087 235.633 77.5087 236.06C77.5087 236.473 77.6621 236.813 77.9687 237.08C78.2887 237.333 78.6954 237.46 79.1887 237.46C79.8021 237.46 80.3354 237.327 80.7887 237.06C81.2554 236.793 81.6154 236.44 81.8687 236C82.1221 235.547 82.2487 235.047 82.2487 234.5V231.72C82.2487 231.187 82.0487 230.753 81.6487 230.42C81.2621 230.073 80.7421 229.9 80.0887 229.9C79.4887 229.9 78.9621 230.06 78.5087 230.38C78.0687 230.687 77.7421 231.087 77.5287 231.58L75.6487 230.64C75.8487 230.107 76.1754 229.64 76.6287 229.24C77.0821 228.827 77.6087 228.507 78.2087 228.28C78.8221 228.053 79.4687 227.94 80.1487 227.94C81.0021 227.94 81.7554 228.1 82.4087 228.42C83.0754 228.74 83.5887 229.187 83.9487 229.76C84.3221 230.32 84.5087 230.973 84.5087 231.72V239H82.3487V237.04L82.8087 237.1C82.5554 237.54 82.2287 237.92 81.8287 238.24C81.4421 238.56 80.9954 238.807 80.4887 238.98C79.9954 239.153 79.4421 239.24 78.8287 239.24ZM91.8359 239.12C90.7026 239.12 89.8226 238.8 89.1959 238.16C88.5693 237.52 88.2559 236.62 88.2559 235.46V230.22H86.3559V228.18H86.6559C87.1626 228.18 87.5559 228.033 87.8359 227.74C88.1159 227.447 88.2559 227.047 88.2559 226.54V225.7H90.5159V228.18H92.9759V230.22H90.5159V235.36C90.5159 235.733 90.5759 236.053 90.6959 236.32C90.8159 236.573 91.0093 236.773 91.2759 236.92C91.5426 237.053 91.8893 237.12 92.3159 237.12C92.4226 237.12 92.5426 237.113 92.6759 237.1C92.8093 237.087 92.9359 237.073 93.0559 237.06V239C92.8693 239.027 92.6626 239.053 92.4359 239.08C92.2093 239.107 92.0093 239.12 91.8359 239.12ZM95.4614 239V228.18H97.7214V239H95.4614ZM95.4614 226.7V224.1H97.7214V226.7H95.4614ZM105.784 239.24C104.744 239.24 103.79 238.993 102.924 238.5C102.07 238.007 101.39 237.333 100.884 236.48C100.377 235.627 100.124 234.66 100.124 233.58C100.124 232.487 100.377 231.52 100.884 230.68C101.39 229.827 102.07 229.16 102.924 228.68C103.777 228.187 104.73 227.94 105.784 227.94C106.85 227.94 107.804 228.187 108.644 228.68C109.497 229.16 110.17 229.827 110.664 230.68C111.17 231.52 111.424 232.487 111.424 233.58C111.424 234.673 111.17 235.647 110.664 236.5C110.157 237.353 109.477 238.027 108.624 238.52C107.77 239 106.824 239.24 105.784 239.24ZM105.784 237.14C106.424 237.14 106.99 236.987 107.484 236.68C107.977 236.373 108.364 235.953 108.644 235.42C108.937 234.873 109.084 234.26 109.084 233.58C109.084 232.9 108.937 232.293 108.644 231.76C108.364 231.227 107.977 230.807 107.484 230.5C106.99 230.193 106.424 230.04 105.784 230.04C105.157 230.04 104.59 230.193 104.084 230.5C103.59 230.807 103.197 231.227 102.904 231.76C102.624 232.293 102.484 232.9 102.484 233.58C102.484 234.26 102.624 234.873 102.904 235.42C103.197 235.953 103.59 236.373 104.084 236.68C104.59 236.987 105.157 237.14 105.784 237.14ZM113.83 239V228.18H115.99V230.3L115.73 230.02C115.997 229.34 116.423 228.827 117.01 228.48C117.597 228.12 118.277 227.94 119.05 227.94C119.85 227.94 120.557 228.113 121.17 228.46C121.783 228.807 122.263 229.287 122.61 229.9C122.957 230.513 123.13 231.22 123.13 232.02V239H120.89V232.62C120.89 232.073 120.79 231.613 120.59 231.24C120.39 230.853 120.103 230.56 119.73 230.36C119.37 230.147 118.957 230.04 118.49 230.04C118.023 230.04 117.603 230.147 117.23 230.36C116.87 230.56 116.59 230.853 116.39 231.24C116.19 231.627 116.09 232.087 116.09 232.62V239H113.83ZM128.989 239.24C128.256 239.24 127.609 239.113 127.049 238.86C126.502 238.593 126.076 238.233 125.769 237.78C125.462 237.313 125.309 236.767 125.309 236.14C125.309 235.553 125.436 235.027 125.689 234.56C125.956 234.093 126.362 233.7 126.909 233.38C127.456 233.06 128.142 232.833 128.969 232.7L132.729 232.08V233.86L129.409 234.44C128.809 234.547 128.369 234.74 128.089 235.02C127.809 235.287 127.669 235.633 127.669 236.06C127.669 236.473 127.822 236.813 128.129 237.08C128.449 237.333 128.856 237.46 129.349 237.46C129.962 237.46 130.496 237.327 130.949 237.06C131.416 236.793 131.776 236.44 132.029 236C132.282 235.547 132.409 235.047 132.409 234.5V231.72C132.409 231.187 132.209 230.753 131.809 230.42C131.422 230.073 130.902 229.9 130.249 229.9C129.649 229.9 129.122 230.06 128.669 230.38C128.229 230.687 127.902 231.087 127.689 231.58L125.809 230.64C126.009 230.107 126.336 229.64 126.789 229.24C127.242 228.827 127.769 228.507 128.369 228.28C128.982 228.053 129.629 227.94 130.309 227.94C131.162 227.94 131.916 228.1 132.569 228.42C133.236 228.74 133.749 229.187 134.109 229.76C134.482 230.32 134.669 230.973 134.669 231.72V239H132.509V237.04L132.969 237.1C132.716 237.54 132.389 237.92 131.989 238.24C131.602 238.56 131.156 238.807 130.649 238.98C130.156 239.153 129.602 239.24 128.989 239.24ZM137.511 239V223.86H139.771V239H137.511ZM151.75 239.24C150.817 239.24 149.95 239.067 149.15 238.72C148.35 238.36 147.67 237.873 147.11 237.26C146.55 236.647 146.137 235.94 145.87 235.14L147.87 234.3C148.23 235.22 148.757 235.927 149.45 236.42C150.143 236.913 150.943 237.16 151.85 237.16C152.383 237.16 152.85 237.08 153.25 236.92C153.65 236.747 153.957 236.507 154.17 236.2C154.397 235.893 154.51 235.54 154.51 235.14C154.51 234.593 154.357 234.16 154.05 233.84C153.743 233.52 153.29 233.267 152.69 233.08L149.89 232.2C148.77 231.853 147.917 231.327 147.33 230.62C146.743 229.9 146.45 229.06 146.45 228.1C146.45 227.26 146.657 226.527 147.07 225.9C147.483 225.26 148.05 224.76 148.77 224.4C149.503 224.04 150.337 223.86 151.27 223.86C152.163 223.86 152.977 224.02 153.71 224.34C154.443 224.647 155.07 225.073 155.59 225.62C156.123 226.167 156.51 226.8 156.75 227.52L154.79 228.38C154.497 227.593 154.037 226.987 153.41 226.56C152.797 226.133 152.083 225.92 151.27 225.92C150.777 225.92 150.343 226.007 149.97 226.18C149.597 226.34 149.303 226.58 149.09 226.9C148.89 227.207 148.79 227.567 148.79 227.98C148.79 228.46 148.943 228.887 149.25 229.26C149.557 229.633 150.023 229.913 150.65 230.1L153.25 230.92C154.437 231.28 155.33 231.8 155.93 232.48C156.53 233.147 156.83 233.98 156.83 234.98C156.83 235.807 156.61 236.54 156.17 237.18C155.743 237.82 155.15 238.327 154.39 238.7C153.63 239.06 152.75 239.24 151.75 239.24ZM164.599 239.24C163.519 239.24 162.559 238.993 161.719 238.5C160.892 237.993 160.232 237.313 159.739 236.46C159.259 235.607 159.019 234.64 159.019 233.56C159.019 232.493 159.259 231.533 159.739 230.68C160.219 229.827 160.879 229.16 161.719 228.68C162.559 228.187 163.519 227.94 164.599 227.94C165.332 227.94 166.019 228.073 166.659 228.34C167.299 228.593 167.852 228.947 168.319 229.4C168.799 229.853 169.152 230.38 169.379 230.98L167.399 231.9C167.172 231.34 166.806 230.893 166.299 230.56C165.806 230.213 165.239 230.04 164.599 230.04C163.986 230.04 163.432 230.193 162.939 230.5C162.459 230.793 162.079 231.213 161.799 231.76C161.519 232.293 161.379 232.9 161.379 233.58C161.379 234.26 161.519 234.873 161.799 235.42C162.079 235.953 162.459 236.373 162.939 236.68C163.432 236.987 163.986 237.14 164.599 237.14C165.252 237.14 165.819 236.973 166.299 236.64C166.792 236.293 167.159 235.833 167.399 235.26L169.379 236.2C169.166 236.773 168.819 237.293 168.339 237.76C167.872 238.213 167.319 238.573 166.679 238.84C166.039 239.107 165.346 239.24 164.599 239.24ZM174.93 239.24C174.197 239.24 173.55 239.113 172.99 238.86C172.444 238.593 172.017 238.233 171.71 237.78C171.404 237.313 171.25 236.767 171.25 236.14C171.25 235.553 171.377 235.027 171.63 234.56C171.897 234.093 172.304 233.7 172.85 233.38C173.397 233.06 174.084 232.833 174.91 232.7L178.67 232.08V233.86L175.35 234.44C174.75 234.547 174.31 234.74 174.03 235.02C173.75 235.287 173.61 235.633 173.61 236.06C173.61 236.473 173.764 236.813 174.07 237.08C174.39 237.333 174.797 237.46 175.29 237.46C175.904 237.46 176.437 237.327 176.89 237.06C177.357 236.793 177.717 236.44 177.97 236C178.224 235.547 178.35 235.047 178.35 234.5V231.72C178.35 231.187 178.15 230.753 177.75 230.42C177.364 230.073 176.844 229.9 176.19 229.9C175.59 229.9 175.064 230.06 174.61 230.38C174.17 230.687 173.844 231.087 173.63 231.58L171.75 230.64C171.95 230.107 172.277 229.64 172.73 229.24C173.184 228.827 173.71 228.507 174.31 228.28C174.924 228.053 175.57 227.94 176.25 227.94C177.104 227.94 177.857 228.1 178.51 228.42C179.177 228.74 179.69 229.187 180.05 229.76C180.424 230.32 180.61 230.973 180.61 231.72V239H178.45V237.04L178.91 237.1C178.657 237.54 178.33 237.92 177.93 238.24C177.544 238.56 177.097 238.807 176.59 238.98C176.097 239.153 175.544 239.24 174.93 239.24ZM183.453 239V223.86H185.713V239H183.453ZM191.795 239.24C191.062 239.24 190.415 239.113 189.855 238.86C189.308 238.593 188.882 238.233 188.575 237.78C188.268 237.313 188.115 236.767 188.115 236.14C188.115 235.553 188.242 235.027 188.495 234.56C188.762 234.093 189.168 233.7 189.715 233.38C190.262 233.06 190.948 232.833 191.775 232.7L195.535 232.08V233.86L192.215 234.44C191.615 234.547 191.175 234.74 190.895 235.02C190.615 235.287 190.475 235.633 190.475 236.06C190.475 236.473 190.628 236.813 190.935 237.08C191.255 237.333 191.662 237.46 192.155 237.46C192.768 237.46 193.302 237.327 193.755 237.06C194.222 236.793 194.582 236.44 194.835 236C195.088 235.547 195.215 235.047 195.215 234.5V231.72C195.215 231.187 195.015 230.753 194.615 230.42C194.228 230.073 193.708 229.9 193.055 229.9C192.455 229.9 191.928 230.06 191.475 230.38C191.035 230.687 190.708 231.087 190.495 231.58L188.615 230.64C188.815 230.107 189.142 229.64 189.595 229.24C190.048 228.827 190.575 228.507 191.175 228.28C191.788 228.053 192.435 227.94 193.115 227.94C193.968 227.94 194.722 228.1 195.375 228.42C196.042 228.74 196.555 229.187 196.915 229.76C197.288 230.32 197.475 230.973 197.475 231.72V239H195.315V237.04L195.775 237.1C195.522 237.54 195.195 237.92 194.795 238.24C194.408 238.56 193.962 238.807 193.455 238.98C192.962 239.153 192.408 239.24 191.795 239.24ZM206.098 239.24C205.258 239.24 204.491 239.067 203.798 238.72C203.118 238.373 202.591 237.873 202.218 237.22L202.478 236.8V239H200.318V223.86H202.578V230.42L202.218 229.9C202.618 229.287 203.151 228.807 203.818 228.46C204.484 228.113 205.244 227.94 206.098 227.94C207.124 227.94 208.044 228.187 208.858 228.68C209.684 229.173 210.331 229.847 210.798 230.7C211.278 231.553 211.518 232.513 211.518 233.58C211.518 234.647 211.278 235.607 210.798 236.46C210.331 237.313 209.691 237.993 208.878 238.5C208.064 238.993 207.138 239.24 206.098 239.24ZM205.878 237.14C206.518 237.14 207.084 236.987 207.578 236.68C208.071 236.373 208.458 235.953 208.738 235.42C209.031 234.873 209.178 234.26 209.178 233.58C209.178 232.9 209.031 232.293 208.738 231.76C208.458 231.227 208.071 230.807 207.578 230.5C207.084 230.193 206.518 230.04 205.878 230.04C205.251 230.04 204.684 230.193 204.178 230.5C203.684 230.807 203.291 231.227 202.998 231.76C202.718 232.293 202.578 232.9 202.578 233.58C202.578 234.26 202.718 234.873 202.998 235.42C203.291 235.953 203.684 236.373 204.178 236.68C204.684 236.987 205.251 237.14 205.878 237.14ZM213.916 239V228.18H216.176V239H213.916ZM213.916 226.7V224.1H216.176V226.7H213.916ZM219.018 239V223.86H221.278V239H219.018ZM224.121 239V228.18H226.381V239H224.121ZM224.121 226.7V224.1H226.381V226.7H224.121ZM233.903 239.12C232.77 239.12 231.89 238.8 231.263 238.16C230.636 237.52 230.323 236.62 230.323 235.46V230.22H228.423V228.18H228.723C229.23 228.18 229.623 228.033 229.903 227.74C230.183 227.447 230.323 227.047 230.323 226.54V225.7H232.583V228.18H235.043V230.22H232.583V235.36C232.583 235.733 232.643 236.053 232.763 236.32C232.883 236.573 233.076 236.773 233.343 236.92C233.61 237.053 233.956 237.12 234.383 237.12C234.49 237.12 234.61 237.113 234.743 237.1C234.876 237.087 235.003 237.073 235.123 237.06V239C234.936 239.027 234.73 239.053 234.503 239.08C234.276 239.107 234.076 239.12 233.903 239.12ZM238.489 243.4C238.222 243.4 237.955 243.373 237.689 243.32C237.435 243.28 237.202 243.213 236.989 243.12V241.18C237.149 241.22 237.342 241.253 237.569 241.28C237.795 241.32 238.015 241.34 238.229 241.34C238.855 241.34 239.315 241.2 239.609 240.92C239.915 240.653 240.189 240.24 240.429 239.68L241.149 238.04L241.109 239.94L236.429 228.18H238.849L242.309 237.2H241.489L244.929 228.18H247.369L242.589 240.18C242.335 240.82 242.015 241.38 241.629 241.86C241.255 242.353 240.809 242.733 240.289 243C239.782 243.267 239.182 243.4 238.489 243.4Z" fill="white"/>
<g clip-path="url(#clip0_2313_4042)">
<path d="M83.6666 40H39.3286C38.6446 40 38.0906 40.5569 38.0906 41.2444V68.6419H24.238C23.554 68.6419 23 69.1988 23 69.8863V98.7556C23 99.0854 23.13 99.4027 23.3621 99.636C23.5942 99.8694 23.9099 100 24.238 100H52.9804C53.3084 100 53.621 99.8693 53.8532 99.636C54.0853 99.4027 54.2184 99.0854 54.2184 98.7556V87.0558H83.6699H83.6668C83.9948 87.0558 84.3105 86.9251 84.5427 86.6918C84.7748 86.4585 84.9048 86.1412 84.9048 85.8114V41.2443C84.9048 40.9146 84.7748 40.5973 84.5427 40.3639C84.3105 40.1306 83.9947 40 83.6666 40ZM51.7424 97.5148H25.4759V71.1343H51.7424V97.5148ZM82.4314 84.5702L54.2183 84.5671V69.8832C54.2183 69.5534 54.0852 69.2392 53.8531 69.0059C53.621 68.7726 53.3084 68.6388 52.9803 68.6388H40.5665V42.4884H82.4286L82.4314 84.5702ZM59.8381 64.079L59.835 64.0759C59.3646 63.5781 59.3863 62.7911 59.8815 62.3182L72.3975 50.3723H63.927C63.243 50.3723 62.689 49.8155 62.689 49.128C62.689 48.4404 63.243 47.8836 63.927 47.8836H75.3535C75.4959 47.8836 75.6352 47.9085 75.7683 47.9551H75.7714C75.9416 48.0174 76.0932 48.1169 76.2232 48.2444C76.347 48.372 76.4399 48.5244 76.5018 48.6924V48.6955C76.5513 48.8293 76.5729 48.9724 76.5729 49.1155V49.2275V49.2928L76.5389 60.3181C76.5389 61.0025 75.9849 61.5594 75.3009 61.5594H75.2978C74.9698 61.5563 74.6541 61.4256 74.425 61.1923C74.1929 60.959 74.0629 60.6416 74.0629 60.3119L74.0877 52.1647L61.5717 64.1107C61.0765 64.5835 60.2935 64.5618 59.8231 64.064L59.8381 64.079Z" fill="white"/>
</g>
<defs>
<linearGradient id="paint0_linear_2313_4042" x1="-2.00001" y1="314" x2="321.5" y2="-9.49999" gradientUnits="userSpaceOnUse">
<stop stop-color="#11296A"/>
<stop offset="1" stop-color="#2150D0"/>
</linearGradient>
<linearGradient id="paint1_linear_2313_4042" x1="-2.00001" y1="314" x2="321.5" y2="-9.49999" gradientUnits="userSpaceOnUse">
<stop stop-color="#11296A"/>
<stop offset="1" stop-color="#2150D0"/>
</linearGradient>
<linearGradient id="paint2_linear_2313_4042" x1="367.787" y1="-128" x2="367.787" y2="216.727" gradientUnits="userSpaceOnUse">
<stop stop-color="white"/>
<stop offset="1" stop-color="white" stop-opacity="0"/>
</linearGradient>
<linearGradient id="paint3_linear_2313_4042" x1="465.787" y1="-128" x2="465.787" y2="216.727" gradientUnits="userSpaceOnUse">
<stop stop-color="white"/>
<stop offset="1" stop-color="white" stop-opacity="0"/>
</linearGradient>
<clipPath id="clip0_2313_4042">
<rect width="61.9048" height="60" fill="white" transform="translate(23 40)"/>
</clipPath>
</defs>
</svg>
