<svg width="71" height="65" viewBox="0 0 71 65" fill="none" xmlns="http://www.w3.org/2000/svg">
<path d="M51.3764 5.49856C50.451 2.34773 47.5598 0.183594 44.2759 0.183594H42.1156C38.5436 0.183594 35.4814 2.73494 34.8367 6.2482L31.1367 26.4102L32.0549 23.2687C32.9772 20.1133 35.8705 17.9445 39.1581 17.9445H51.7122L56.9773 19.9955L62.0526 17.9445H60.5713C57.2872 17.9445 54.3962 15.7803 53.4707 12.6295L51.3764 5.49856Z" fill="url(#paint0_radial_3253_6345)"/>
<path d="M19.7112 58.7747C20.6263 61.9407 23.5249 64.1201 26.8206 64.1201H31.4087C35.4219 64.1201 38.7036 60.9215 38.8067 56.9098L39.3064 37.4688L38.2611 41.0383C37.3377 44.1921 34.4451 46.3592 31.1589 46.3592H18.5004L13.9874 43.9109L9.10156 46.3592H10.5582C13.8537 46.3592 16.7523 48.5384 17.6674 51.7045L19.7112 58.7747Z" fill="url(#paint1_radial_3253_6345)"/>
<path d="M43.9571 0.183594H18.3186C10.9933 0.183594 6.59808 9.86495 3.66797 19.5463C0.196546 31.016 -4.3459 46.356 8.79567 46.356H19.8662C23.1744 46.356 26.0787 44.1687 26.9879 40.9878C28.9127 34.2541 32.2858 22.5072 34.9354 13.5648C36.2818 9.02049 37.4033 5.11767 39.1247 2.68726C40.0897 1.32467 41.698 0.183594 43.9571 0.183594Z" fill="url(#paint2_linear_3253_6345)"/>
<path d="M43.9571 0.183594H18.3186C10.9933 0.183594 6.59808 9.86495 3.66797 19.5463C0.196546 31.016 -4.3459 46.356 8.79567 46.356H19.8662C23.1744 46.356 26.0787 44.1687 26.9879 40.9878C28.9127 34.2541 32.2858 22.5072 34.9354 13.5648C36.2818 9.02049 37.4033 5.11767 39.1247 2.68726C40.0897 1.32467 41.698 0.183594 43.9571 0.183594Z" fill="url(#paint3_linear_3253_6345)"/>
<path d="M26.3711 64.1179H52.0098C59.335 64.1179 63.7301 54.435 66.6603 44.752C70.1317 33.2802 74.6741 17.9375 61.5326 17.9375H50.4623C47.1539 17.9375 44.2496 20.1252 43.3406 23.3062C41.4157 30.041 38.0426 41.7903 35.3929 50.7343C34.0464 55.2796 32.9249 59.1829 31.2036 61.6139C30.2386 62.9766 28.6302 64.1179 26.3711 64.1179Z" fill="url(#paint4_radial_3253_6345)"/>
<path d="M26.3711 64.1179H52.0098C59.335 64.1179 63.7301 54.435 66.6603 44.752C70.1317 33.2802 74.6741 17.9375 61.5326 17.9375H50.4623C47.1539 17.9375 44.2496 20.1252 43.3406 23.3062C41.4157 30.041 38.0426 41.7903 35.3929 50.7343C34.0464 55.2796 32.9249 59.1829 31.2036 61.6139C30.2386 62.9766 28.6302 64.1179 26.3711 64.1179Z" fill="url(#paint5_linear_3253_6345)"/>
<defs>
<radialGradient id="paint0_radial_3253_6345" cx="0" cy="0" r="1" gradientUnits="userSpaceOnUse" gradientTransform="translate(57.5508 26.5815) rotate(-129.304) scale(27.659 26.0082)">
<stop offset="0.0955758" stop-color="#00AEFF"/>
<stop offset="0.773185" stop-color="#2253CE"/>
<stop offset="1" stop-color="#0736C4"/>
</radialGradient>
<radialGradient id="paint1_radial_3253_6345" cx="0" cy="0" r="1" gradientUnits="userSpaceOnUse" gradientTransform="translate(14.5814 46.2444) rotate(51.84) scale(25.5616 24.7955)">
<stop stop-color="#FFB657"/>
<stop offset="0.633728" stop-color="#FF5F3D"/>
<stop offset="0.923392" stop-color="#C02B3C"/>
</radialGradient>
<linearGradient id="paint2_linear_3253_6345" x1="16.784" y1="5.77827" x2="20.442" y2="48.0982" gradientUnits="userSpaceOnUse">
<stop offset="0.156162" stop-color="#0D91E1"/>
<stop offset="0.487484" stop-color="#52B471"/>
<stop offset="0.652394" stop-color="#98BD42"/>
<stop offset="0.937361" stop-color="#FFC800"/>
</linearGradient>
<linearGradient id="paint3_linear_3253_6345" x1="19.981" y1="0.183594" x2="21.9785" y2="46.356" gradientUnits="userSpaceOnUse">
<stop stop-color="#3DCBFF"/>
<stop offset="0.246674" stop-color="#0588F7" stop-opacity="0"/>
</linearGradient>
<radialGradient id="paint4_radial_3253_6345" cx="0" cy="0" r="1" gradientUnits="userSpaceOnUse" gradientTransform="translate(62.8495 13.4162) rotate(109.274) scale(61.3613 73.5088)">
<stop offset="0.0661714" stop-color="#8C48FF"/>
<stop offset="0.5" stop-color="#F2598A"/>
<stop offset="0.895833" stop-color="#FFB152"/>
</radialGradient>
<linearGradient id="paint5_linear_3253_6345" x1="64.8751" y1="15.1181" x2="64.8489" y2="27.6961" gradientUnits="userSpaceOnUse">
<stop offset="0.0581535" stop-color="#F8ADFA"/>
<stop offset="0.708063" stop-color="#A86EDD" stop-opacity="0"/>
</linearGradient>
</defs>
</svg>
