<svg width="285" height="300" viewBox="0 0 285 300" fill="none" xmlns="http://www.w3.org/2000/svg">
<rect width="285" height="300" rx="10" transform="matrix(1 0 0 -1 0 300)" fill="url(#paint0_linear_2257_3751)"/>
<mask id="mask0_2257_3751" style="mask-type:alpha" maskUnits="userSpaceOnUse" x="0" y="0" width="285" height="300">
<rect width="285" height="300" rx="10" transform="matrix(1 0 0 -1 0 300)" fill="url(#paint1_linear_2257_3751)"/>
</mask>
<g mask="url(#mask0_2257_3751)">
<rect x="338.605" y="-128" width="58.3621" height="344.727" rx="29.1811" transform="rotate(43.8011 338.605 -128)" fill="url(#paint2_linear_2257_3751)" fill-opacity="0.24"/>
<rect x="436.605" y="-128" width="58.3621" height="344.727" rx="29.1811" transform="rotate(43.8011 436.605 -128)" fill="url(#paint3_linear_2257_3751)" fill-opacity="0.24"/>
</g>
<path d="M29.76 235.24C28.8267 235.24 27.96 235.067 27.16 234.72C26.36 234.36 25.68 233.873 25.12 233.26C24.56 232.647 24.1467 231.94 23.88 231.14L25.88 230.3C26.24 231.22 26.7667 231.927 27.46 232.42C28.1533 232.913 28.9533 233.16 29.86 233.16C30.3933 233.16 30.86 233.08 31.26 232.92C31.66 232.747 31.9667 232.507 32.18 232.2C32.4067 231.893 32.52 231.54 32.52 231.14C32.52 230.593 32.3667 230.16 32.06 229.84C31.7533 229.52 31.3 229.267 30.7 229.08L27.9 228.2C26.78 227.853 25.9267 227.327 25.34 226.62C24.7533 225.9 24.46 225.06 24.46 224.1C24.46 223.26 24.6667 222.527 25.08 221.9C25.4933 221.26 26.06 220.76 26.78 220.4C27.5133 220.04 28.3467 219.86 29.28 219.86C30.1733 219.86 30.9867 220.02 31.72 220.34C32.4533 220.647 33.08 221.073 33.6 221.62C34.1333 222.167 34.52 222.8 34.76 223.52L32.8 224.38C32.5067 223.593 32.0467 222.987 31.42 222.56C30.8067 222.133 30.0933 221.92 29.28 221.92C28.7867 221.92 28.3533 222.007 27.98 222.18C27.6067 222.34 27.3133 222.58 27.1 222.9C26.9 223.207 26.8 223.567 26.8 223.98C26.8 224.46 26.9533 224.887 27.26 225.26C27.5667 225.633 28.0333 225.913 28.66 226.1L31.26 226.92C32.4467 227.28 33.34 227.8 33.94 228.48C34.54 229.147 34.84 229.98 34.84 230.98C34.84 231.807 34.62 232.54 34.18 233.18C33.7533 233.82 33.16 234.327 32.4 234.7C31.64 235.06 30.76 235.24 29.76 235.24ZM42.4092 235.24C41.3292 235.24 40.3692 234.993 39.5292 234.5C38.7026 233.993 38.0426 233.313 37.5492 232.46C37.0692 231.607 36.8292 230.64 36.8292 229.56C36.8292 228.493 37.0692 227.533 37.5492 226.68C38.0292 225.827 38.6892 225.16 39.5292 224.68C40.3692 224.187 41.3292 223.94 42.4092 223.94C43.1426 223.94 43.8292 224.073 44.4692 224.34C45.1092 224.593 45.6626 224.947 46.1292 225.4C46.6092 225.853 46.9626 226.38 47.1892 226.98L45.2092 227.9C44.9826 227.34 44.6159 226.893 44.1092 226.56C43.6159 226.213 43.0492 226.04 42.4092 226.04C41.7959 226.04 41.2426 226.193 40.7492 226.5C40.2692 226.793 39.8892 227.213 39.6092 227.76C39.3292 228.293 39.1892 228.9 39.1892 229.58C39.1892 230.26 39.3292 230.873 39.6092 231.42C39.8892 231.953 40.2692 232.373 40.7492 232.68C41.2426 232.987 41.7959 233.14 42.4092 233.14C43.0626 233.14 43.6292 232.973 44.1092 232.64C44.6026 232.293 44.9692 231.833 45.2092 231.26L47.1892 232.2C46.9759 232.773 46.6292 233.293 46.1492 233.76C45.6826 234.213 45.1292 234.573 44.4892 234.84C43.8492 235.107 43.1559 235.24 42.4092 235.24ZM52.5405 235.24C51.8071 235.24 51.1605 235.113 50.6005 234.86C50.0538 234.593 49.6271 234.233 49.3205 233.78C49.0138 233.313 48.8605 232.767 48.8605 232.14C48.8605 231.553 48.9871 231.027 49.2405 230.56C49.5071 230.093 49.9138 229.7 50.4605 229.38C51.0071 229.06 51.6938 228.833 52.5205 228.7L56.2805 228.08V229.86L52.9605 230.44C52.3605 230.547 51.9205 230.74 51.6405 231.02C51.3605 231.287 51.2205 231.633 51.2205 232.06C51.2205 232.473 51.3738 232.813 51.6805 233.08C52.0005 233.333 52.4071 233.46 52.9005 233.46C53.5138 233.46 54.0471 233.327 54.5005 233.06C54.9671 232.793 55.3271 232.44 55.5805 232C55.8338 231.547 55.9605 231.047 55.9605 230.5V227.72C55.9605 227.187 55.7605 226.753 55.3605 226.42C54.9738 226.073 54.4538 225.9 53.8005 225.9C53.2005 225.9 52.6738 226.06 52.2205 226.38C51.7805 226.687 51.4538 227.087 51.2405 227.58L49.3605 226.64C49.5605 226.107 49.8871 225.64 50.3405 225.24C50.7938 224.827 51.3205 224.507 51.9205 224.28C52.5338 224.053 53.1805 223.94 53.8605 223.94C54.7138 223.94 55.4671 224.1 56.1205 224.42C56.7871 224.74 57.3005 225.187 57.6605 225.76C58.0338 226.32 58.2205 226.973 58.2205 227.72V235H56.0605V233.04L56.5205 233.1C56.2671 233.54 55.9405 233.92 55.5405 234.24C55.1538 234.56 54.7071 234.807 54.2005 234.98C53.7071 235.153 53.1538 235.24 52.5405 235.24ZM60.863 235V219.86H63.123V235H60.863ZM69.0053 235.24C68.272 235.24 67.6253 235.113 67.0653 234.86C66.5186 234.593 66.092 234.233 65.7853 233.78C65.4786 233.313 65.3253 232.767 65.3253 232.14C65.3253 231.553 65.452 231.027 65.7053 230.56C65.972 230.093 66.3786 229.7 66.9253 229.38C67.472 229.06 68.1586 228.833 68.9853 228.7L72.7453 228.08V229.86L69.4253 230.44C68.8253 230.547 68.3853 230.74 68.1053 231.02C67.8253 231.287 67.6853 231.633 67.6853 232.06C67.6853 232.473 67.8386 232.813 68.1453 233.08C68.4653 233.333 68.872 233.46 69.3653 233.46C69.9786 233.46 70.512 233.327 70.9653 233.06C71.432 232.793 71.792 232.44 72.0453 232C72.2986 231.547 72.4253 231.047 72.4253 230.5V227.72C72.4253 227.187 72.2253 226.753 71.8253 226.42C71.4386 226.073 70.9186 225.9 70.2653 225.9C69.6653 225.9 69.1386 226.06 68.6853 226.38C68.2453 226.687 67.9186 227.087 67.7053 227.58L65.8253 226.64C66.0253 226.107 66.352 225.64 66.8053 225.24C67.2586 224.827 67.7853 224.507 68.3853 224.28C68.9986 224.053 69.6453 223.94 70.3253 223.94C71.1786 223.94 71.932 224.1 72.5853 224.42C73.252 224.74 73.7653 225.187 74.1253 225.76C74.4986 226.32 74.6853 226.973 74.6853 227.72V235H72.5253V233.04L72.9853 233.1C72.732 233.54 72.4053 233.92 72.0053 234.24C71.6186 234.56 71.172 234.807 70.6653 234.98C70.172 235.153 69.6186 235.24 69.0053 235.24ZM83.1078 235.24C82.2678 235.24 81.5011 235.067 80.8078 234.72C80.1278 234.373 79.6011 233.873 79.2278 233.22L79.4878 232.8V235H77.3278V219.86H79.5878V226.42L79.2278 225.9C79.6278 225.287 80.1611 224.807 80.8278 224.46C81.4945 224.113 82.2545 223.94 83.1078 223.94C84.1345 223.94 85.0545 224.187 85.8678 224.68C86.6945 225.173 87.3411 225.847 87.8078 226.7C88.2878 227.553 88.5278 228.513 88.5278 229.58C88.5278 230.647 88.2878 231.607 87.8078 232.46C87.3411 233.313 86.7011 233.993 85.8878 234.5C85.0745 234.993 84.1478 235.24 83.1078 235.24ZM82.8878 233.14C83.5278 233.14 84.0945 232.987 84.5878 232.68C85.0811 232.373 85.4678 231.953 85.7478 231.42C86.0411 230.873 86.1878 230.26 86.1878 229.58C86.1878 228.9 86.0411 228.293 85.7478 227.76C85.4678 227.227 85.0811 226.807 84.5878 226.5C84.0945 226.193 83.5278 226.04 82.8878 226.04C82.2611 226.04 81.6945 226.193 81.1878 226.5C80.6945 226.807 80.3011 227.227 80.0078 227.76C79.7278 228.293 79.5878 228.9 79.5878 229.58C79.5878 230.26 79.7278 230.873 80.0078 231.42C80.3011 231.953 80.6945 232.373 81.1878 232.68C81.6945 232.987 82.2611 233.14 82.8878 233.14ZM90.7262 235V224.18H92.9863V235H90.7262ZM90.7262 222.7V220.1H92.9863V222.7H90.7262ZM95.6286 235V219.86H97.8886V235H95.6286ZM100.531 235V224.18H102.791V235H100.531ZM100.531 222.7V220.1H102.791V222.7H100.531ZM110.113 235.12C108.98 235.12 108.1 234.8 107.473 234.16C106.847 233.52 106.533 232.62 106.533 231.46V226.22H104.633V224.18H104.933C105.44 224.18 105.833 224.033 106.113 223.74C106.393 223.447 106.533 223.047 106.533 222.54V221.7H108.793V224.18H111.253V226.22H108.793V231.36C108.793 231.733 108.853 232.053 108.973 232.32C109.093 232.573 109.287 232.773 109.553 232.92C109.82 233.053 110.167 233.12 110.593 233.12C110.7 233.12 110.82 233.113 110.953 233.1C111.087 233.087 111.213 233.073 111.333 233.06V235C111.147 235.027 110.94 235.053 110.713 235.08C110.487 235.107 110.287 235.12 110.113 235.12ZM114.499 239.4C114.232 239.4 113.965 239.373 113.699 239.32C113.445 239.28 113.212 239.213 112.999 239.12V237.18C113.159 237.22 113.352 237.253 113.579 237.28C113.805 237.32 114.025 237.34 114.239 237.34C114.865 237.34 115.325 237.2 115.619 236.92C115.925 236.653 116.199 236.24 116.439 235.68L117.159 234.04L117.119 235.94L112.439 224.18H114.859L118.319 233.2H117.499L120.939 224.18H123.379L118.599 236.18C118.345 236.82 118.025 237.38 117.639 237.86C117.265 238.353 116.819 238.733 116.299 239C115.792 239.267 115.192 239.4 114.499 239.4ZM131.662 235.24C130.928 235.24 130.282 235.113 129.722 234.86C129.175 234.593 128.748 234.233 128.442 233.78C128.135 233.313 127.982 232.767 127.982 232.14C127.982 231.553 128.108 231.027 128.362 230.56C128.628 230.093 129.035 229.7 129.582 229.38C130.128 229.06 130.815 228.833 131.642 228.7L135.402 228.08V229.86L132.082 230.44C131.482 230.547 131.042 230.74 130.762 231.02C130.482 231.287 130.342 231.633 130.342 232.06C130.342 232.473 130.495 232.813 130.802 233.08C131.122 233.333 131.528 233.46 132.022 233.46C132.635 233.46 133.168 233.327 133.622 233.06C134.088 232.793 134.448 232.44 134.702 232C134.955 231.547 135.082 231.047 135.082 230.5V227.72C135.082 227.187 134.882 226.753 134.482 226.42C134.095 226.073 133.575 225.9 132.922 225.9C132.322 225.9 131.795 226.06 131.342 226.38C130.902 226.687 130.575 227.087 130.362 227.58L128.482 226.64C128.682 226.107 129.008 225.64 129.462 225.24C129.915 224.827 130.442 224.507 131.042 224.28C131.655 224.053 132.302 223.94 132.982 223.94C133.835 223.94 134.588 224.1 135.242 224.42C135.908 224.74 136.422 225.187 136.782 225.76C137.155 226.32 137.342 226.973 137.342 227.72V235H135.182V233.04L135.642 233.1C135.388 233.54 135.062 233.92 134.662 234.24C134.275 234.56 133.828 234.807 133.322 234.98C132.828 235.153 132.275 235.24 131.662 235.24ZM139.984 235V224.18H142.144V226.3L141.884 226.02C142.151 225.34 142.577 224.827 143.164 224.48C143.751 224.12 144.431 223.94 145.204 223.94C146.004 223.94 146.711 224.113 147.324 224.46C147.937 224.807 148.417 225.287 148.764 225.9C149.111 226.513 149.284 227.22 149.284 228.02V235H147.044V228.62C147.044 228.073 146.944 227.613 146.744 227.24C146.544 226.853 146.257 226.56 145.884 226.36C145.524 226.147 145.111 226.04 144.644 226.04C144.177 226.04 143.757 226.147 143.384 226.36C143.024 226.56 142.744 226.853 142.544 227.24C142.344 227.627 142.244 228.087 142.244 228.62V235H139.984ZM156.703 235.24C155.663 235.24 154.729 234.993 153.903 234.5C153.089 233.993 152.443 233.313 151.963 232.46C151.496 231.607 151.263 230.647 151.263 229.58C151.263 228.513 151.503 227.553 151.983 226.7C152.463 225.847 153.109 225.173 153.923 224.68C154.736 224.187 155.656 223.94 156.683 223.94C157.549 223.94 158.316 224.113 158.983 224.46C159.649 224.807 160.176 225.287 160.563 225.9L160.223 226.42V219.86H162.463V235H160.323V232.8L160.583 233.22C160.209 233.873 159.676 234.373 158.983 234.72C158.289 235.067 157.529 235.24 156.703 235.24ZM156.923 233.14C157.549 233.14 158.109 232.987 158.603 232.68C159.109 232.373 159.503 231.953 159.783 231.42C160.076 230.873 160.223 230.26 160.223 229.58C160.223 228.9 160.076 228.293 159.783 227.76C159.503 227.227 159.109 226.807 158.603 226.5C158.109 226.193 157.549 226.04 156.923 226.04C156.296 226.04 155.729 226.193 155.223 226.5C154.716 226.807 154.323 227.227 154.043 227.76C153.763 228.293 153.623 228.9 153.623 229.58C153.623 230.26 153.763 230.873 154.043 231.42C154.323 231.953 154.709 232.373 155.203 232.68C155.709 232.987 156.283 233.14 156.923 233.14ZM168.817 235V220.1H178.517V222.2H171.177V226.68H177.717V228.78H171.177V235H168.817ZM180.277 235V219.86H182.537V235H180.277ZM190.259 235.24C189.179 235.24 188.219 234.993 187.379 234.5C186.553 233.993 185.906 233.313 185.439 232.46C184.973 231.593 184.739 230.627 184.739 229.56C184.739 228.467 184.973 227.5 185.439 226.66C185.919 225.82 186.559 225.16 187.359 224.68C188.159 224.187 189.066 223.94 190.079 223.94C190.893 223.94 191.619 224.08 192.259 224.36C192.899 224.64 193.439 225.027 193.879 225.52C194.319 226 194.653 226.553 194.879 227.18C195.119 227.807 195.239 228.473 195.239 229.18C195.239 229.353 195.233 229.533 195.219 229.72C195.206 229.907 195.179 230.08 195.139 230.24H186.519V228.44H193.859L192.779 229.26C192.913 228.607 192.866 228.027 192.639 227.52C192.426 227 192.093 226.593 191.639 226.3C191.199 225.993 190.679 225.84 190.079 225.84C189.479 225.84 188.946 225.993 188.479 226.3C188.013 226.593 187.653 227.02 187.399 227.58C187.146 228.127 187.046 228.793 187.099 229.58C187.033 230.313 187.133 230.953 187.399 231.5C187.679 232.047 188.066 232.473 188.559 232.78C189.066 233.087 189.639 233.24 190.279 233.24C190.933 233.24 191.486 233.093 191.939 232.8C192.406 232.507 192.773 232.127 193.039 231.66L194.879 232.56C194.666 233.067 194.333 233.527 193.879 233.94C193.439 234.34 192.906 234.66 192.279 234.9C191.666 235.127 190.993 235.24 190.259 235.24ZM196.17 235L199.95 229.58L196.17 224.18H198.83L201.93 228.7H200.65L203.75 224.18H206.41L202.61 229.58L206.39 235H203.73L200.67 230.46H201.91L198.83 235H196.17ZM207.953 235V224.18H210.213V235H207.953ZM207.953 222.7V220.1H210.213V222.7H207.953ZM218.635 235.24C217.795 235.24 217.028 235.067 216.335 234.72C215.655 234.373 215.128 233.873 214.755 233.22L215.015 232.8V235H212.855V219.86H215.115V226.42L214.755 225.9C215.155 225.287 215.688 224.807 216.355 224.46C217.022 224.113 217.782 223.94 218.635 223.94C219.662 223.94 220.582 224.187 221.395 224.68C222.222 225.173 222.868 225.847 223.335 226.7C223.815 227.553 224.055 228.513 224.055 229.58C224.055 230.647 223.815 231.607 223.335 232.46C222.868 233.313 222.228 233.993 221.415 234.5C220.602 234.993 219.675 235.24 218.635 235.24ZM218.415 233.14C219.055 233.14 219.622 232.987 220.115 232.68C220.608 232.373 220.995 231.953 221.275 231.42C221.568 230.873 221.715 230.26 221.715 229.58C221.715 228.9 221.568 228.293 221.275 227.76C220.995 227.227 220.608 226.807 220.115 226.5C219.622 226.193 219.055 226.04 218.415 226.04C217.788 226.04 217.222 226.193 216.715 226.5C216.222 226.807 215.828 227.227 215.535 227.76C215.255 228.293 215.115 228.9 215.115 229.58C215.115 230.26 215.255 230.873 215.535 231.42C215.828 231.953 216.222 232.373 216.715 232.68C217.222 232.987 217.788 233.14 218.415 233.14ZM226.254 235V224.18H228.514V235H226.254ZM226.254 222.7V220.1H228.514V222.7H226.254ZM231.156 235V219.86H233.416V235H231.156ZM236.058 235V224.18H238.318V235H236.058ZM236.058 222.7V220.1H238.318V222.7H236.058ZM245.641 235.12C244.507 235.12 243.627 234.8 243.001 234.16C242.374 233.52 242.061 232.62 242.061 231.46V226.22H240.161V224.18H240.461C240.967 224.18 241.361 224.033 241.641 223.74C241.921 223.447 242.061 223.047 242.061 222.54V221.7H244.321V224.18H246.781V226.22H244.321V231.36C244.321 231.733 244.381 232.053 244.501 232.32C244.621 232.573 244.814 232.773 245.081 232.92C245.347 233.053 245.694 233.12 246.121 233.12C246.227 233.12 246.347 233.113 246.481 233.1C246.614 233.087 246.741 233.073 246.861 233.06V235C246.674 235.027 246.467 235.053 246.241 235.08C246.014 235.107 245.814 235.12 245.641 235.12ZM250.026 239.4C249.759 239.4 249.493 239.373 249.226 239.32C248.973 239.28 248.739 239.213 248.526 239.12V237.18C248.686 237.22 248.879 237.253 249.106 237.28C249.333 237.32 249.553 237.34 249.766 237.34C250.393 237.34 250.853 237.2 251.146 236.92C251.453 236.653 251.726 236.24 251.966 235.68L252.686 234.04L252.646 235.94L247.966 224.18H250.386L253.846 233.2H253.026L256.466 224.18H258.906L254.126 236.18C253.873 236.82 253.553 237.38 253.166 237.86C252.793 238.353 252.346 238.733 251.826 239C251.319 239.267 250.719 239.4 250.026 239.4Z" fill="white"/>
<g clip-path="url(#clip0_2257_3751)">
<path d="M99.7 40.0001H53.145C52.4268 40.0001 51.8451 40.5847 51.8451 41.3066V70.0741H37.2999C36.5817 70.0741 36 70.6588 36 71.3806V101.693C36 102.04 36.1365 102.373 36.3802 102.618C36.6239 102.863 36.9554 103 37.2999 103H67.4794C67.8239 103 68.1521 102.863 68.3958 102.618C68.6396 102.373 68.7793 102.04 68.7793 101.693V89.4086H99.7034H99.7001C100.045 89.4086 100.376 89.2714 100.62 89.0264C100.864 88.7814 101 88.4482 101 88.102V41.3066C101 40.9604 100.864 40.6272 100.62 40.3822C100.376 40.1372 100.044 40.0001 99.7 40.0001ZM66.1795 100.391H38.5997V72.691H66.1795V100.391ZM98.403 86.7988L68.7792 86.7955V71.3774C68.7792 71.0311 68.6395 70.7012 68.3958 70.4562C68.152 70.2112 67.8238 70.0708 67.4793 70.0708H54.4448V42.6128H98.4001L98.403 86.7988ZM74.68 65.283L74.6768 65.2797C74.1828 64.7571 74.2056 63.9306 74.7255 63.4342L87.8673 50.891H78.9733C78.2551 50.891 77.6734 50.3063 77.6734 49.5844C77.6734 48.8625 78.2551 48.2778 78.9733 48.2778H90.9712C91.1207 48.2778 91.2669 48.3039 91.4067 48.3529H91.4099C91.5887 48.4183 91.7479 48.5228 91.8844 48.6567C92.0144 48.7906 92.1119 48.9507 92.1769 49.1271V49.1304C92.2288 49.2708 92.2516 49.4211 92.2516 49.5713V49.6889V49.7575L92.2158 61.334C92.2158 62.0527 91.6342 62.6374 90.916 62.6374H90.9127C90.5683 62.6341 90.2368 62.4969 89.9963 62.2519C89.7526 62.0069 89.6161 61.6738 89.6161 61.3275L89.6421 52.773L76.5003 65.3162C75.9803 65.8127 75.1581 65.7899 74.6642 65.2672L74.68 65.283Z" fill="white"/>
</g>
<defs>
<linearGradient id="paint0_linear_2257_3751" x1="-2.00001" y1="314" x2="321.5" y2="-9.49999" gradientUnits="userSpaceOnUse">
<stop stop-color="#11296A"/>
<stop offset="1" stop-color="#2150D0"/>
</linearGradient>
<linearGradient id="paint1_linear_2257_3751" x1="-2.00001" y1="314" x2="321.5" y2="-9.49999" gradientUnits="userSpaceOnUse">
<stop stop-color="#11296A"/>
<stop offset="1" stop-color="#2150D0"/>
</linearGradient>
<linearGradient id="paint2_linear_2257_3751" x1="367.787" y1="-128" x2="367.787" y2="216.727" gradientUnits="userSpaceOnUse">
<stop stop-color="white"/>
<stop offset="1" stop-color="white" stop-opacity="0"/>
</linearGradient>
<linearGradient id="paint3_linear_2257_3751" x1="465.787" y1="-128" x2="465.787" y2="216.727" gradientUnits="userSpaceOnUse">
<stop stop-color="white"/>
<stop offset="1" stop-color="white" stop-opacity="0"/>
</linearGradient>
<clipPath id="clip0_2257_3751">
<rect width="65" height="63" fill="white" transform="translate(36 40)"/>
</clipPath>
</defs>
</svg>
