<svg width="285" height="300" viewBox="0 0 285 300" fill="none" xmlns="http://www.w3.org/2000/svg">
<rect width="285" height="300" rx="10" transform="matrix(1 0 0 -1 0 300)" fill="url(#paint0_linear_2257_3762)"/>
<mask id="mask0_2257_3762" style="mask-type:alpha" maskUnits="userSpaceOnUse" x="0" y="0" width="285" height="300">
<rect width="285" height="300" rx="10" transform="matrix(1 0 0 -1 0 300)" fill="url(#paint1_linear_2257_3762)"/>
</mask>
<g mask="url(#mask0_2257_3762)">
<rect x="338.605" y="-128" width="58.3621" height="344.727" rx="29.1811" transform="rotate(43.8011 338.605 -128)" fill="url(#paint2_linear_2257_3762)" fill-opacity="0.24"/>
<rect x="436.605" y="-128" width="58.3621" height="344.727" rx="29.1811" transform="rotate(43.8011 436.605 -128)" fill="url(#paint3_linear_2257_3762)" fill-opacity="0.24"/>
</g>
<path d="M31.48 235.24C30.4267 235.24 29.4467 235.047 28.54 234.66C27.6467 234.273 26.8667 233.74 26.2 233.06C25.5467 232.367 25.0333 231.553 24.66 230.62C24.2867 229.687 24.1 228.66 24.1 227.54C24.1 226.433 24.28 225.413 24.64 224.48C25.0133 223.533 25.5333 222.72 26.2 222.04C26.8667 221.347 27.6467 220.813 28.54 220.44C29.4333 220.053 30.4133 219.86 31.48 219.86C32.5333 219.86 33.4733 220.04 34.3 220.4C35.14 220.76 35.8467 221.233 36.42 221.82C36.9933 222.393 37.4067 223.02 37.66 223.7L35.54 224.7C35.22 223.9 34.7067 223.253 34 222.76C33.3067 222.253 32.4667 222 31.48 222C30.4933 222 29.62 222.233 28.86 222.7C28.1 223.167 27.5067 223.813 27.08 224.64C26.6667 225.467 26.46 226.433 26.46 227.54C26.46 228.647 26.6667 229.62 27.08 230.46C27.5067 231.287 28.1 231.933 28.86 232.4C29.62 232.853 30.4933 233.08 31.48 233.08C32.4667 233.08 33.3067 232.833 34 232.34C34.7067 231.847 35.22 231.2 35.54 230.4L37.66 231.4C37.4067 232.067 36.9933 232.693 36.42 233.28C35.8467 233.867 35.14 234.34 34.3 234.7C33.4733 235.06 32.5333 235.24 31.48 235.24ZM44.8916 235.24C43.8516 235.24 42.8982 234.993 42.0316 234.5C41.1782 234.007 40.4982 233.333 39.9916 232.48C39.4849 231.627 39.2316 230.66 39.2316 229.58C39.2316 228.487 39.4849 227.52 39.9916 226.68C40.4982 225.827 41.1782 225.16 42.0316 224.68C42.8849 224.187 43.8382 223.94 44.8916 223.94C45.9582 223.94 46.9116 224.187 47.7516 224.68C48.6049 225.16 49.2782 225.827 49.7716 226.68C50.2782 227.52 50.5316 228.487 50.5316 229.58C50.5316 230.673 50.2782 231.647 49.7716 232.5C49.2649 233.353 48.5849 234.027 47.7316 234.52C46.8782 235 45.9316 235.24 44.8916 235.24ZM44.8916 233.14C45.5316 233.14 46.0982 232.987 46.5916 232.68C47.0849 232.373 47.4716 231.953 47.7516 231.42C48.0449 230.873 48.1916 230.26 48.1916 229.58C48.1916 228.9 48.0449 228.293 47.7516 227.76C47.4716 227.227 47.0849 226.807 46.5916 226.5C46.0982 226.193 45.5316 226.04 44.8916 226.04C44.2649 226.04 43.6982 226.193 43.1916 226.5C42.6982 226.807 42.3049 227.227 42.0116 227.76C41.7316 228.293 41.5916 228.9 41.5916 229.58C41.5916 230.26 41.7316 230.873 42.0116 231.42C42.3049 231.953 42.6982 232.373 43.1916 232.68C43.6982 232.987 44.2649 233.14 44.8916 233.14ZM56.738 235.24C55.6313 235.24 54.658 234.967 53.818 234.42C52.9913 233.873 52.4113 233.14 52.078 232.22L53.818 231.4C54.1113 232.013 54.5113 232.5 55.018 232.86C55.538 233.22 56.1113 233.4 56.738 233.4C57.2713 233.4 57.7046 233.28 58.038 233.04C58.3713 232.8 58.538 232.473 58.538 232.06C58.538 231.793 58.4646 231.58 58.318 231.42C58.1713 231.247 57.9846 231.107 57.758 231C57.5446 230.893 57.3246 230.813 57.098 230.76L55.398 230.28C54.4646 230.013 53.7646 229.613 53.298 229.08C52.8446 228.533 52.618 227.9 52.618 227.18C52.618 226.527 52.7846 225.96 53.118 225.48C53.4513 224.987 53.9113 224.607 54.498 224.34C55.0846 224.073 55.7446 223.94 56.478 223.94C57.4646 223.94 58.3446 224.187 59.118 224.68C59.8913 225.16 60.438 225.833 60.758 226.7L59.018 227.52C58.8046 227 58.4646 226.587 57.998 226.28C57.5446 225.973 57.0313 225.82 56.458 225.82C55.9646 225.82 55.5713 225.94 55.278 226.18C54.9846 226.407 54.838 226.707 54.838 227.08C54.838 227.333 54.9046 227.547 55.038 227.72C55.1713 227.88 55.3446 228.013 55.558 228.12C55.7713 228.213 55.9913 228.293 56.218 228.36L57.978 228.88C58.8713 229.133 59.558 229.533 60.038 230.08C60.518 230.613 60.758 231.253 60.758 232C60.758 232.64 60.5846 233.207 60.238 233.7C59.9046 234.18 59.438 234.56 58.838 234.84C58.238 235.107 57.538 235.24 56.738 235.24ZM67.6523 235.12C66.519 235.12 65.639 234.8 65.0123 234.16C64.3857 233.52 64.0723 232.62 64.0723 231.46V226.22H62.1723V224.18H62.4723C62.979 224.18 63.3723 224.033 63.6523 223.74C63.9323 223.447 64.0723 223.047 64.0723 222.54V221.7H66.3323V224.18H68.7923V226.22H66.3323V231.36C66.3323 231.733 66.3923 232.053 66.5123 232.32C66.6323 232.573 66.8257 232.773 67.0923 232.92C67.359 233.053 67.7057 233.12 68.1323 233.12C68.239 233.12 68.359 233.113 68.4923 233.1C68.6257 233.087 68.7523 233.073 68.8723 233.06V235C68.6857 235.027 68.479 235.053 68.2523 235.08C68.0257 235.107 67.8257 235.12 67.6523 235.12ZM74.7939 235V220.1H84.6139V222.2H77.1539V226.48H84.2139V228.58H77.1539V232.9H84.6139V235H74.7939ZM87.8056 235V226.22H85.8056V224.18H87.8056V223.62C87.8056 222.807 87.9723 222.127 88.3056 221.58C88.639 221.02 89.099 220.593 89.6856 220.3C90.2856 220.007 90.9723 219.86 91.7456 219.86C91.8923 219.86 92.059 219.873 92.2456 219.9C92.4323 219.913 92.5856 219.933 92.7056 219.96V221.92C92.599 221.893 92.479 221.88 92.3456 221.88C92.2123 221.867 92.1056 221.86 92.0256 221.86C91.4256 221.86 90.9456 222 90.5856 222.28C90.2256 222.547 90.0456 222.993 90.0456 223.62V224.18H95.2256V226.22H90.0456V235H87.8056ZM101.986 235V224.18H104.246V235H101.986ZM95.6256 235V226.22H93.6456V224.18H95.6256V223.62C95.6256 222.807 95.7923 222.127 96.1256 221.58C96.4723 221.02 96.939 220.593 97.5256 220.3C98.1256 220.007 98.8056 219.86 99.5656 219.86C99.7256 219.86 99.899 219.873 100.086 219.9C100.272 219.913 100.426 219.933 100.546 219.96V221.92C100.426 221.893 100.299 221.88 100.166 221.88C100.046 221.867 99.939 221.86 99.8456 221.86C99.2456 221.86 98.7656 222 98.4056 222.28C98.059 222.547 97.8856 222.993 97.8856 223.62V224.18H103.066V226.22H97.8856V235H95.6256ZM111.765 235.24C110.685 235.24 109.725 234.993 108.885 234.5C108.058 233.993 107.398 233.313 106.905 232.46C106.425 231.607 106.185 230.64 106.185 229.56C106.185 228.493 106.425 227.533 106.905 226.68C107.385 225.827 108.045 225.16 108.885 224.68C109.725 224.187 110.685 223.94 111.765 223.94C112.498 223.94 113.185 224.073 113.825 224.34C114.465 224.593 115.018 224.947 115.485 225.4C115.965 225.853 116.318 226.38 116.545 226.98L114.565 227.9C114.338 227.34 113.971 226.893 113.465 226.56C112.971 226.213 112.405 226.04 111.765 226.04C111.151 226.04 110.598 226.193 110.105 226.5C109.625 226.793 109.245 227.213 108.965 227.76C108.685 228.293 108.545 228.9 108.545 229.58C108.545 230.26 108.685 230.873 108.965 231.42C109.245 231.953 109.625 232.373 110.105 232.68C110.598 232.987 111.151 233.14 111.765 233.14C112.418 233.14 112.985 232.973 113.465 232.64C113.958 232.293 114.325 231.833 114.565 231.26L116.545 232.2C116.331 232.773 115.985 233.293 115.505 233.76C115.038 234.213 114.485 234.573 113.845 234.84C113.205 235.107 112.511 235.24 111.765 235.24ZM118.754 235V224.18H121.014V235H118.754ZM118.754 222.7V220.1H121.014V222.7H118.754ZM128.736 235.24C127.656 235.24 126.696 234.993 125.856 234.5C125.029 233.993 124.383 233.313 123.916 232.46C123.449 231.593 123.216 230.627 123.216 229.56C123.216 228.467 123.449 227.5 123.916 226.66C124.396 225.82 125.036 225.16 125.836 224.68C126.636 224.187 127.543 223.94 128.556 223.94C129.369 223.94 130.096 224.08 130.736 224.36C131.376 224.64 131.916 225.027 132.356 225.52C132.796 226 133.129 226.553 133.356 227.18C133.596 227.807 133.716 228.473 133.716 229.18C133.716 229.353 133.709 229.533 133.696 229.72C133.683 229.907 133.656 230.08 133.616 230.24H124.996V228.44H132.336L131.256 229.26C131.389 228.607 131.343 228.027 131.116 227.52C130.903 227 130.569 226.593 130.116 226.3C129.676 225.993 129.156 225.84 128.556 225.84C127.956 225.84 127.423 225.993 126.956 226.3C126.489 226.593 126.129 227.02 125.876 227.58C125.623 228.127 125.523 228.793 125.576 229.58C125.509 230.313 125.609 230.953 125.876 231.5C126.156 232.047 126.543 232.473 127.036 232.78C127.543 233.087 128.116 233.24 128.756 233.24C129.409 233.24 129.963 233.093 130.416 232.8C130.883 232.507 131.249 232.127 131.516 231.66L133.356 232.56C133.143 233.067 132.809 233.527 132.356 233.94C131.916 234.34 131.383 234.66 130.756 234.9C130.143 235.127 129.469 235.24 128.736 235.24ZM135.922 235V224.18H138.082V226.3L137.822 226.02C138.088 225.34 138.515 224.827 139.102 224.48C139.688 224.12 140.368 223.94 141.142 223.94C141.942 223.94 142.648 224.113 143.262 224.46C143.875 224.807 144.355 225.287 144.702 225.9C145.048 226.513 145.222 227.22 145.222 228.02V235H142.982V228.62C142.982 228.073 142.882 227.613 142.682 227.24C142.482 226.853 142.195 226.56 141.822 226.36C141.462 226.147 141.048 226.04 140.582 226.04C140.115 226.04 139.695 226.147 139.322 226.36C138.962 226.56 138.682 226.853 138.482 227.24C138.282 227.627 138.182 228.087 138.182 228.62V235H135.922ZM152.78 235.24C151.7 235.24 150.74 234.993 149.9 234.5C149.074 233.993 148.414 233.313 147.92 232.46C147.44 231.607 147.2 230.64 147.2 229.56C147.2 228.493 147.44 227.533 147.92 226.68C148.4 225.827 149.06 225.16 149.9 224.68C150.74 224.187 151.7 223.94 152.78 223.94C153.514 223.94 154.2 224.073 154.84 224.34C155.48 224.593 156.034 224.947 156.5 225.4C156.98 225.853 157.334 226.38 157.56 226.98L155.58 227.9C155.354 227.34 154.987 226.893 154.48 226.56C153.987 226.213 153.42 226.04 152.78 226.04C152.167 226.04 151.614 226.193 151.12 226.5C150.64 226.793 150.26 227.213 149.98 227.76C149.7 228.293 149.56 228.9 149.56 229.58C149.56 230.26 149.7 230.873 149.98 231.42C150.26 231.953 150.64 232.373 151.12 232.68C151.614 232.987 152.167 233.14 152.78 233.14C153.434 233.14 154 232.973 154.48 232.64C154.974 232.293 155.34 231.833 155.58 231.26L157.56 232.2C157.347 232.773 157 233.293 156.52 233.76C156.054 234.213 155.5 234.573 154.86 234.84C154.22 235.107 153.527 235.24 152.78 235.24ZM160.729 239.4C160.463 239.4 160.196 239.373 159.929 239.32C159.676 239.28 159.443 239.213 159.229 239.12V237.18C159.389 237.22 159.583 237.253 159.809 237.28C160.036 237.32 160.256 237.34 160.469 237.34C161.096 237.34 161.556 237.2 161.849 236.92C162.156 236.653 162.429 236.24 162.669 235.68L163.389 234.04L163.349 235.94L158.669 224.18H161.089L164.549 233.2H163.729L167.169 224.18H169.609L164.829 236.18C164.576 236.82 164.256 237.38 163.869 237.86C163.496 238.353 163.049 238.733 162.529 239C162.023 239.267 161.423 239.4 160.729 239.4Z" fill="white"/>
<g clip-path="url(#clip0_2257_3762)">
<path d="M52.2561 69.835C51.8201 69.835 51.4775 69.4901 51.4775 69.051V66.9031C51.4775 66.4641 51.8201 66.1191 52.2561 66.1191C52.6921 66.1191 53.0346 66.4641 53.0346 66.9031V69.051C53.0346 69.4901 52.6921 69.835 52.2561 69.835Z" fill="white"/>
<path d="M52.0071 84.0244C51.5711 84.0244 51.2285 83.6795 51.2285 83.2405V81.0925C51.2285 80.6535 51.5711 80.3086 52.0071 80.3086C52.443 80.3086 52.7856 80.6535 52.7856 81.0925V83.2405C52.7856 83.6638 52.4275 84.0244 52.0071 84.0244Z" fill="white"/>
<path d="M51.8355 81.8767C51.7732 81.8767 51.6953 81.8767 51.6331 81.8767C50.076 81.7983 48.2853 80.7322 48.3009 78.0198C48.3009 77.5964 48.659 77.2358 49.0794 77.2358C49.5154 77.2358 49.858 77.5964 49.8424 78.0198C49.8268 79.9169 50.9947 80.2618 51.6953 80.3088C52.8476 80.3716 54.2023 79.666 54.2957 78.6156C54.2957 78.5999 54.2957 78.5999 54.2957 78.5842C54.5137 76.8752 52.3338 75.9345 51.6642 75.6836C49.0327 74.7272 47.9428 73.2848 48.4255 71.4034C49.0639 68.9261 51.1348 68.0481 52.7853 68.299C54.3735 68.5342 56.0396 69.8512 55.9462 72.203C55.9306 72.642 55.5725 72.9712 55.1365 72.9556C54.7005 72.9399 54.3735 72.5793 54.3891 72.1403C54.4358 70.7449 53.5016 69.9923 52.5517 69.8512C51.6019 69.7101 50.3562 70.1334 49.9203 71.811C49.7334 72.5322 49.858 73.3632 52.178 74.2255C53.1279 74.5705 56.1798 75.9188 55.8216 78.788C55.6659 80.6695 53.6729 81.8767 51.8355 81.8767Z" fill="white"/>
<path d="M52.1312 88.5709C44.7506 88.5709 38.7246 82.5189 38.7246 75.0716C38.7246 67.6242 44.735 61.5723 52.1312 61.5723C59.5274 61.5723 65.5378 67.6242 65.5378 75.0716C65.5378 82.5189 59.5274 88.5709 52.1312 88.5709ZM52.1312 63.1401C45.607 63.1401 40.2817 68.4865 40.2817 75.0716C40.2817 81.6566 45.5914 87.003 52.1312 87.003C58.671 87.003 63.9807 81.6566 63.9807 75.0716C63.9807 68.4865 58.6554 63.1401 52.1312 63.1401Z" fill="white"/>
<path d="M64.8685 108.999H39.3945C37.526 108.999 36 107.463 36 105.566V100.627C36 98.7455 37.526 97.1934 39.3945 97.1934C39.8305 97.1934 40.173 97.5383 40.173 97.9773C40.173 98.4163 39.8305 98.7612 39.3945 98.7612C38.3824 98.7612 37.5571 99.5922 37.5571 100.627V105.566C37.5571 106.585 38.3824 107.432 39.3945 107.432H64.8685C65.8806 107.432 66.7215 106.601 66.7215 105.566V100.627C66.7215 99.6079 65.8962 98.7612 64.8685 98.7612C64.4325 98.7612 64.09 98.4163 64.09 97.9773C64.09 97.5383 64.4325 97.1934 64.8685 97.1934C66.7526 97.1934 68.2785 98.7299 68.2785 100.627V105.566C68.2785 107.463 66.7526 108.999 64.8685 108.999Z" fill="white"/>
<path d="M64.8685 98.7767H39.3945C37.526 98.7767 36 97.2402 36 95.3431V90.4043C36 88.5229 37.526 86.9707 39.3945 86.9707H64.8685C66.7526 86.9707 68.2785 88.5072 68.2785 90.4043V95.3431C68.2785 97.2402 66.7526 98.7767 64.8685 98.7767ZM39.3945 88.5699C38.3824 88.5699 37.5571 89.4009 37.5571 90.4357V95.3745C37.5571 96.3936 38.3824 97.2402 39.3945 97.2402H64.8685C65.8806 97.2402 66.7215 96.4093 66.7215 95.3745V90.4357C66.7215 89.4166 65.8962 88.5699 64.8685 88.5699H39.3945Z" fill="white"/>
<path d="M95.5901 98.7767H70.1161C68.232 98.7767 66.7061 97.2402 66.7061 95.3431V90.4043C66.7061 88.5229 68.232 86.9707 70.1161 86.9707H95.5901C97.4586 86.9707 99.0002 88.5072 99.0002 90.4043V95.3431C99.0002 97.2402 97.4742 98.7767 95.5901 98.7767ZM70.1161 88.5699C69.104 88.5699 68.2631 89.4009 68.2631 90.4357V95.3745C68.2631 96.3936 69.0884 97.2402 70.1161 97.2402H95.5901C96.6022 97.2402 97.4431 96.4093 97.4431 95.3745V90.4357C97.4431 89.4166 96.6178 88.5699 95.5901 88.5699H70.1161Z" fill="white"/>
<path d="M95.5901 108.999H70.1161C68.232 108.999 66.7061 107.463 66.7061 105.566V100.627C66.7061 98.7455 68.232 97.1934 70.1161 97.1934C70.5521 97.1934 70.8946 97.5383 70.8946 97.9773C70.8946 98.4163 70.5521 98.7612 70.1161 98.7612C69.104 98.7612 68.2631 99.5922 68.2631 100.627V105.566C68.2631 106.585 69.0884 107.432 70.1161 107.432H95.5901C96.6022 107.432 97.4431 106.601 97.4431 105.566V100.627C97.4431 99.6079 96.6178 98.7612 95.5901 98.7612C95.1542 98.7612 94.8116 98.4163 94.8116 97.9773C94.8116 97.5383 95.1542 97.1934 95.5901 97.1934C97.4586 97.1934 99.0002 98.7299 99.0002 100.627V105.566C99.0002 107.463 97.4742 108.999 95.5901 108.999Z" fill="white"/>
<path d="M94.329 72.798H74.4294C74.1491 72.798 73.9 72.6569 73.7598 72.406C73.6197 72.1552 73.6197 71.873 73.7598 71.6221L75.9398 67.8279L45.047 49.8758C44.8602 49.7661 44.7356 49.5936 44.6889 49.4054C44.6422 49.2016 44.6577 48.9821 44.7667 48.8097L49.5937 40.3902C49.8117 40.0139 50.2789 39.8885 50.6526 40.108L81.5297 58.0601L83.7097 54.2658C83.8498 54.015 84.0989 53.8739 84.3792 53.8739C84.6595 53.8739 84.9086 54.015 85.0488 54.2658L95.0142 71.6221C95.1543 71.873 95.1543 72.1552 95.0142 72.406C94.874 72.6569 94.6093 72.798 94.329 72.798ZM75.7685 71.2301H92.9899L84.3792 56.2257L82.4951 59.5182C82.3861 59.6906 82.2148 59.8318 82.028 59.8788C81.8256 59.9258 81.6231 59.9101 81.4363 59.8004L50.5436 41.8483L46.4951 48.9037L77.3723 66.8558C77.5436 66.9655 77.6837 67.138 77.7304 67.3261C77.7771 67.53 77.7616 67.7338 77.6526 67.9219L75.7685 71.2301Z" fill="white"/>
<path d="M95.5901 88.5716C95.1542 88.5716 94.8116 88.2267 94.8116 87.7877C94.8116 87.3487 95.1542 87.0038 95.5901 87.0038C96.6022 87.0038 97.4431 86.1728 97.4431 85.138V80.1993C97.4431 79.1801 96.6178 78.3335 95.5901 78.3335H70.1161C69.104 78.3335 68.2631 79.1645 68.2631 80.1993V85.138C68.2631 86.1571 69.0884 87.0038 70.1161 87.0038C70.5521 87.0038 70.8946 87.3487 70.8946 87.7877C70.8946 88.2267 70.5521 88.5716 70.1161 88.5716C68.232 88.5716 66.7061 87.0351 66.7061 85.138V80.1993C66.7061 78.3178 68.232 76.7656 70.1161 76.7656H95.5901C97.4586 76.7656 99.0002 78.3021 99.0002 80.1993V85.138C99.0002 87.0351 97.4742 88.5716 95.5901 88.5716Z" fill="white"/>
</g>
<defs>
<linearGradient id="paint0_linear_2257_3762" x1="-2.00001" y1="314" x2="321.5" y2="-9.49999" gradientUnits="userSpaceOnUse">
<stop stop-color="#11296A"/>
<stop offset="1" stop-color="#2150D0"/>
</linearGradient>
<linearGradient id="paint1_linear_2257_3762" x1="-2.00001" y1="314" x2="321.5" y2="-9.49999" gradientUnits="userSpaceOnUse">
<stop stop-color="#11296A"/>
<stop offset="1" stop-color="#2150D0"/>
</linearGradient>
<linearGradient id="paint2_linear_2257_3762" x1="367.787" y1="-128" x2="367.787" y2="216.727" gradientUnits="userSpaceOnUse">
<stop stop-color="white"/>
<stop offset="1" stop-color="white" stop-opacity="0"/>
</linearGradient>
<linearGradient id="paint3_linear_2257_3762" x1="465.787" y1="-128" x2="465.787" y2="216.727" gradientUnits="userSpaceOnUse">
<stop stop-color="white"/>
<stop offset="1" stop-color="white" stop-opacity="0"/>
</linearGradient>
<clipPath id="clip0_2257_3762">
<rect width="63" height="69" fill="white" transform="translate(36 40)"/>
</clipPath>
</defs>
</svg>
