<svg width="285" height="300" viewBox="0 0 285 300" fill="none" xmlns="http://www.w3.org/2000/svg">
<rect width="285" height="300" rx="10" transform="matrix(1 0 0 -1 0 300)" fill="url(#paint0_linear_2257_3793)"/>
<mask id="mask0_2257_3793" style="mask-type:alpha" maskUnits="userSpaceOnUse" x="0" y="0" width="285" height="300">
<rect width="285" height="300" rx="10" transform="matrix(1 0 0 -1 0 300)" fill="url(#paint1_linear_2257_3793)"/>
</mask>
<g mask="url(#mask0_2257_3793)">
<rect x="338.605" y="-128" width="58.3621" height="344.727" rx="29.1811" transform="rotate(43.8011 338.605 -128)" fill="url(#paint2_linear_2257_3793)" fill-opacity="0.24"/>
<rect x="436.605" y="-128" width="58.3621" height="344.727" rx="29.1811" transform="rotate(43.8011 436.605 -128)" fill="url(#paint3_linear_2257_3793)" fill-opacity="0.24"/>
</g>
<path d="M24.54 239V224.1H26.9V239H24.54ZM29.7692 239V228.18H31.9292V230.52L31.6492 230.16C31.8759 229.427 32.2892 228.873 32.8892 228.5C33.4892 228.127 34.1759 227.94 34.9492 227.94C35.8159 227.94 36.5826 228.173 37.2492 228.64C37.9292 229.093 38.3826 229.7 38.6092 230.46L37.9692 230.52C38.2892 229.653 38.7759 229.007 39.4292 228.58C40.0959 228.153 40.8559 227.94 41.7092 227.94C42.4559 227.94 43.1292 228.113 43.7292 228.46C44.3426 228.807 44.8292 229.287 45.1892 229.9C45.5492 230.513 45.7292 231.213 45.7292 232V239H43.4692V232.62C43.4692 232.073 43.3692 231.613 43.1692 231.24C42.9826 230.853 42.7159 230.56 42.3692 230.36C42.0359 230.147 41.6426 230.04 41.1892 230.04C40.7359 230.04 40.3359 230.147 39.9892 230.36C39.6426 230.56 39.3692 230.853 39.1692 231.24C38.9692 231.627 38.8692 232.087 38.8692 232.62V239H36.6292V232.62C36.6292 232.073 36.5292 231.613 36.3292 231.24C36.1426 230.853 35.8759 230.56 35.5292 230.36C35.1959 230.147 34.7959 230.04 34.3292 230.04C33.8759 230.04 33.4759 230.147 33.1292 230.36C32.7826 230.56 32.5092 230.853 32.3092 231.24C32.1226 231.627 32.0292 232.087 32.0292 232.62V239H29.7692ZM48.1481 243V228.18H50.3081V230.42L50.0481 229.9C50.4481 229.287 50.9815 228.807 51.6481 228.46C52.3148 228.113 53.0748 227.94 53.9281 227.94C54.9548 227.94 55.8748 228.187 56.6881 228.68C57.5148 229.173 58.1615 229.847 58.6281 230.7C59.1081 231.553 59.3481 232.513 59.3481 233.58C59.3481 234.647 59.1081 235.607 58.6281 236.46C58.1615 237.313 57.5215 237.993 56.7081 238.5C55.8948 238.993 54.9681 239.24 53.9281 239.24C53.0881 239.24 52.3215 239.067 51.6281 238.72C50.9481 238.373 50.4215 237.873 50.0481 237.22L50.4081 236.8V243H48.1481ZM53.7081 237.14C54.3481 237.14 54.9148 236.987 55.4081 236.68C55.9015 236.373 56.2881 235.953 56.5681 235.42C56.8615 234.873 57.0081 234.26 57.0081 233.58C57.0081 232.9 56.8615 232.293 56.5681 231.76C56.2881 231.227 55.9015 230.807 55.4081 230.5C54.9148 230.193 54.3481 230.04 53.7081 230.04C53.0815 230.04 52.5148 230.193 52.0081 230.5C51.5148 230.807 51.1215 231.227 50.8281 231.76C50.5481 232.293 50.4081 232.9 50.4081 233.58C50.4081 234.26 50.5481 234.873 50.8281 235.42C51.1215 235.953 51.5148 236.373 52.0081 236.68C52.5148 236.987 53.0815 237.14 53.7081 237.14ZM61.5466 239V228.18H63.7066V230.36L63.5066 230.04C63.7466 229.333 64.1332 228.827 64.6666 228.52C65.1999 228.2 65.8399 228.04 66.5866 228.04H67.2466V230.1H66.3066C65.5599 230.1 64.9532 230.333 64.4866 230.8C64.0332 231.253 63.8066 231.907 63.8066 232.76V239H61.5466ZM74.0127 239.24C72.9727 239.24 72.0193 238.993 71.1527 238.5C70.2993 238.007 69.6193 237.333 69.1127 236.48C68.606 235.627 68.3527 234.66 68.3527 233.58C68.3527 232.487 68.606 231.52 69.1127 230.68C69.6193 229.827 70.2993 229.16 71.1527 228.68C72.006 228.187 72.9593 227.94 74.0127 227.94C75.0793 227.94 76.0327 228.187 76.8727 228.68C77.726 229.16 78.3993 229.827 78.8927 230.68C79.3993 231.52 79.6527 232.487 79.6527 233.58C79.6527 234.673 79.3993 235.647 78.8927 236.5C78.386 237.353 77.706 238.027 76.8527 238.52C75.9993 239 75.0527 239.24 74.0127 239.24ZM74.0127 237.14C74.6527 237.14 75.2193 236.987 75.7127 236.68C76.206 236.373 76.5927 235.953 76.8727 235.42C77.166 234.873 77.3127 234.26 77.3127 233.58C77.3127 232.9 77.166 232.293 76.8727 231.76C76.5927 231.227 76.206 230.807 75.7127 230.5C75.2193 230.193 74.6527 230.04 74.0127 230.04C73.386 230.04 72.8193 230.193 72.3127 230.5C71.8193 230.807 71.426 231.227 71.1327 231.76C70.8527 232.293 70.7127 232.9 70.7127 233.58C70.7127 234.26 70.8527 234.873 71.1327 235.42C71.426 235.953 71.8193 236.373 72.3127 236.68C72.8193 236.987 73.386 237.14 74.0127 237.14ZM84.8038 239L80.5638 228.18H83.0238L86.2838 237H85.3838L88.6438 228.18H91.1238L86.8638 239H84.8038ZM97.5445 239.24C96.4645 239.24 95.5045 238.993 94.6645 238.5C93.8379 237.993 93.1912 237.313 92.7245 236.46C92.2579 235.593 92.0245 234.627 92.0245 233.56C92.0245 232.467 92.2579 231.5 92.7245 230.66C93.2045 229.82 93.8445 229.16 94.6445 228.68C95.4445 228.187 96.3512 227.94 97.3645 227.94C98.1779 227.94 98.9045 228.08 99.5445 228.36C100.185 228.64 100.725 229.027 101.165 229.52C101.605 230 101.938 230.553 102.165 231.18C102.405 231.807 102.525 232.473 102.525 233.18C102.525 233.353 102.518 233.533 102.505 233.72C102.491 233.907 102.465 234.08 102.425 234.24H93.8045V232.44H101.145L100.065 233.26C100.198 232.607 100.151 232.027 99.9245 231.52C99.7112 231 99.3779 230.593 98.9245 230.3C98.4845 229.993 97.9645 229.84 97.3645 229.84C96.7645 229.84 96.2312 229.993 95.7645 230.3C95.2979 230.593 94.9379 231.02 94.6845 231.58C94.4312 232.127 94.3312 232.793 94.3845 233.58C94.3179 234.313 94.4179 234.953 94.6845 235.5C94.9645 236.047 95.3512 236.473 95.8445 236.78C96.3512 237.087 96.9245 237.24 97.5645 237.24C98.2179 237.24 98.7712 237.093 99.2245 236.8C99.6912 236.507 100.058 236.127 100.325 235.66L102.165 236.56C101.951 237.067 101.618 237.527 101.165 237.94C100.725 238.34 100.191 238.66 99.5645 238.9C98.9512 239.127 98.2779 239.24 97.5445 239.24ZM109.73 239.24C108.69 239.24 107.757 238.993 106.93 238.5C106.117 237.993 105.47 237.313 104.99 236.46C104.523 235.607 104.29 234.647 104.29 233.58C104.29 232.513 104.53 231.553 105.01 230.7C105.49 229.847 106.137 229.173 106.95 228.68C107.763 228.187 108.683 227.94 109.71 227.94C110.577 227.94 111.343 228.113 112.01 228.46C112.677 228.807 113.203 229.287 113.59 229.9L113.25 230.42V223.86H115.49V239H113.35V236.8L113.61 237.22C113.237 237.873 112.703 238.373 112.01 238.72C111.317 239.067 110.557 239.24 109.73 239.24ZM109.95 237.14C110.577 237.14 111.137 236.987 111.63 236.68C112.137 236.373 112.53 235.953 112.81 235.42C113.103 234.873 113.25 234.26 113.25 233.58C113.25 232.9 113.103 232.293 112.81 231.76C112.53 231.227 112.137 230.807 111.63 230.5C111.137 230.193 110.577 230.04 109.95 230.04C109.323 230.04 108.757 230.193 108.25 230.5C107.743 230.807 107.35 231.227 107.07 231.76C106.79 232.293 106.65 232.9 106.65 233.58C106.65 234.26 106.79 234.873 107.07 235.42C107.35 235.953 107.737 236.373 108.23 236.68C108.737 236.987 109.31 237.14 109.95 237.14ZM127.065 239.24C126.131 239.24 125.265 239.067 124.465 238.72C123.665 238.36 122.985 237.873 122.425 237.26C121.865 236.647 121.451 235.94 121.185 235.14L123.185 234.3C123.545 235.22 124.071 235.927 124.765 236.42C125.458 236.913 126.258 237.16 127.165 237.16C127.698 237.16 128.165 237.08 128.565 236.92C128.965 236.747 129.271 236.507 129.485 236.2C129.711 235.893 129.825 235.54 129.825 235.14C129.825 234.593 129.671 234.16 129.365 233.84C129.058 233.52 128.605 233.267 128.005 233.08L125.205 232.2C124.085 231.853 123.231 231.327 122.645 230.62C122.058 229.9 121.765 229.06 121.765 228.1C121.765 227.26 121.971 226.527 122.385 225.9C122.798 225.26 123.365 224.76 124.085 224.4C124.818 224.04 125.651 223.86 126.585 223.86C127.478 223.86 128.291 224.02 129.025 224.34C129.758 224.647 130.385 225.073 130.905 225.62C131.438 226.167 131.825 226.8 132.065 227.52L130.105 228.38C129.811 227.593 129.351 226.987 128.725 226.56C128.111 226.133 127.398 225.92 126.585 225.92C126.091 225.92 125.658 226.007 125.285 226.18C124.911 226.34 124.618 226.58 124.405 226.9C124.205 227.207 124.105 227.567 124.105 227.98C124.105 228.46 124.258 228.887 124.565 229.26C124.871 229.633 125.338 229.913 125.965 230.1L128.565 230.92C129.751 231.28 130.645 231.8 131.245 232.48C131.845 233.147 132.145 233.98 132.145 234.98C132.145 235.807 131.925 236.54 131.485 237.18C131.058 237.82 130.465 238.327 129.705 238.7C128.945 239.06 128.065 239.24 127.065 239.24ZM139.654 239.24C138.574 239.24 137.614 238.993 136.774 238.5C135.947 237.993 135.301 237.313 134.834 236.46C134.367 235.593 134.134 234.627 134.134 233.56C134.134 232.467 134.367 231.5 134.834 230.66C135.314 229.82 135.954 229.16 136.754 228.68C137.554 228.187 138.461 227.94 139.474 227.94C140.287 227.94 141.014 228.08 141.654 228.36C142.294 228.64 142.834 229.027 143.274 229.52C143.714 230 144.047 230.553 144.274 231.18C144.514 231.807 144.634 232.473 144.634 233.18C144.634 233.353 144.627 233.533 144.614 233.72C144.601 233.907 144.574 234.08 144.534 234.24H135.914V232.44H143.254L142.174 233.26C142.307 232.607 142.261 232.027 142.034 231.52C141.821 231 141.487 230.593 141.034 230.3C140.594 229.993 140.074 229.84 139.474 229.84C138.874 229.84 138.341 229.993 137.874 230.3C137.407 230.593 137.047 231.02 136.794 231.58C136.541 232.127 136.441 232.793 136.494 233.58C136.427 234.313 136.527 234.953 136.794 235.5C137.074 236.047 137.461 236.473 137.954 236.78C138.461 237.087 139.034 237.24 139.674 237.24C140.327 237.24 140.881 237.093 141.334 236.8C141.801 236.507 142.167 236.127 142.434 235.66L144.274 236.56C144.061 237.067 143.727 237.527 143.274 237.94C142.834 238.34 142.301 238.66 141.674 238.9C141.061 239.127 140.387 239.24 139.654 239.24ZM151.98 239.24C150.9 239.24 149.94 238.993 149.1 238.5C148.273 237.993 147.613 237.313 147.12 236.46C146.64 235.607 146.4 234.64 146.4 233.56C146.4 232.493 146.64 231.533 147.12 230.68C147.6 229.827 148.26 229.16 149.1 228.68C149.94 228.187 150.9 227.94 151.98 227.94C152.713 227.94 153.4 228.073 154.04 228.34C154.68 228.593 155.233 228.947 155.7 229.4C156.18 229.853 156.533 230.38 156.76 230.98L154.78 231.9C154.553 231.34 154.186 230.893 153.68 230.56C153.186 230.213 152.62 230.04 151.98 230.04C151.366 230.04 150.813 230.193 150.32 230.5C149.84 230.793 149.46 231.213 149.18 231.76C148.9 232.293 148.76 232.9 148.76 233.58C148.76 234.26 148.9 234.873 149.18 235.42C149.46 235.953 149.84 236.373 150.32 236.68C150.813 236.987 151.366 237.14 151.98 237.14C152.633 237.14 153.2 236.973 153.68 236.64C154.173 236.293 154.54 235.833 154.78 235.26L156.76 236.2C156.546 236.773 156.2 237.293 155.72 237.76C155.253 238.213 154.7 238.573 154.06 238.84C153.42 239.107 152.726 239.24 151.98 239.24ZM162.828 239.24C162.015 239.24 161.302 239.06 160.688 238.7C160.075 238.327 159.595 237.813 159.248 237.16C158.915 236.493 158.748 235.727 158.748 234.86V228.18H161.008V234.66C161.008 235.153 161.108 235.587 161.308 235.96C161.508 236.333 161.788 236.627 162.148 236.84C162.508 237.04 162.922 237.14 163.388 237.14C163.868 237.14 164.288 237.033 164.648 236.82C165.008 236.607 165.288 236.307 165.488 235.92C165.702 235.533 165.808 235.08 165.808 234.56V228.18H168.048V239H165.908V236.88L166.148 237.16C165.895 237.827 165.475 238.34 164.888 238.7C164.302 239.06 163.615 239.24 162.828 239.24ZM170.687 239V228.18H172.847V230.36L172.647 230.04C172.887 229.333 173.274 228.827 173.807 228.52C174.341 228.2 174.981 228.04 175.727 228.04H176.387V230.1H175.447C174.701 230.1 174.094 230.333 173.627 230.8C173.174 231.253 172.947 231.907 172.947 232.76V239H170.687ZM177.933 239V228.18H180.193V239H177.933ZM177.933 226.7V224.1H180.193V226.7H177.933ZM187.516 239.12C186.382 239.12 185.502 238.8 184.876 238.16C184.249 237.52 183.936 236.62 183.936 235.46V230.22H182.036V228.18H182.336C182.842 228.18 183.236 228.033 183.516 227.74C183.796 227.447 183.936 227.047 183.936 226.54V225.7H186.196V228.18H188.656V230.22H186.196V235.36C186.196 235.733 186.256 236.053 186.376 236.32C186.496 236.573 186.689 236.773 186.956 236.92C187.222 237.053 187.569 237.12 187.996 237.12C188.102 237.12 188.222 237.113 188.356 237.1C188.489 237.087 188.616 237.073 188.736 237.06V239C188.549 239.027 188.342 239.053 188.116 239.08C187.889 239.107 187.689 239.12 187.516 239.12ZM191.901 243.4C191.634 243.4 191.368 243.373 191.101 243.32C190.848 243.28 190.614 243.213 190.401 243.12V241.18C190.561 241.22 190.754 241.253 190.981 241.28C191.208 241.32 191.428 241.34 191.641 241.34C192.268 241.34 192.728 241.2 193.021 240.92C193.328 240.653 193.601 240.24 193.841 239.68L194.561 238.04L194.521 239.94L189.841 228.18H192.261L195.721 237.2H194.901L198.341 228.18H200.781L196.001 240.18C195.748 240.82 195.428 241.38 195.041 241.86C194.668 242.353 194.221 242.733 193.701 243C193.194 243.267 192.594 243.4 191.901 243.4ZM209.064 239.24C208.331 239.24 207.684 239.113 207.124 238.86C206.577 238.593 206.151 238.233 205.844 237.78C205.537 237.313 205.384 236.767 205.384 236.14C205.384 235.553 205.511 235.027 205.764 234.56C206.031 234.093 206.437 233.7 206.984 233.38C207.531 233.06 208.217 232.833 209.044 232.7L212.804 232.08V233.86L209.484 234.44C208.884 234.547 208.444 234.74 208.164 235.02C207.884 235.287 207.744 235.633 207.744 236.06C207.744 236.473 207.897 236.813 208.204 237.08C208.524 237.333 208.931 237.46 209.424 237.46C210.037 237.46 210.571 237.327 211.024 237.06C211.491 236.793 211.851 236.44 212.104 236C212.357 235.547 212.484 235.047 212.484 234.5V231.72C212.484 231.187 212.284 230.753 211.884 230.42C211.497 230.073 210.977 229.9 210.324 229.9C209.724 229.9 209.197 230.06 208.744 230.38C208.304 230.687 207.977 231.087 207.764 231.58L205.884 230.64C206.084 230.107 206.411 229.64 206.864 229.24C207.317 228.827 207.844 228.507 208.444 228.28C209.057 228.053 209.704 227.94 210.384 227.94C211.237 227.94 211.991 228.1 212.644 228.42C213.311 228.74 213.824 229.187 214.184 229.76C214.557 230.32 214.744 230.973 214.744 231.72V239H212.584V237.04L213.044 237.1C212.791 237.54 212.464 237.92 212.064 238.24C211.677 238.56 211.231 238.807 210.724 238.98C210.231 239.153 209.677 239.24 209.064 239.24ZM217.386 239V228.18H219.546V230.3L219.286 230.02C219.553 229.34 219.98 228.827 220.566 228.48C221.153 228.12 221.833 227.94 222.606 227.94C223.406 227.94 224.113 228.113 224.726 228.46C225.34 228.807 225.82 229.287 226.166 229.9C226.513 230.513 226.686 231.22 226.686 232.02V239H224.446V232.62C224.446 232.073 224.346 231.613 224.146 231.24C223.946 230.853 223.66 230.56 223.286 230.36C222.926 230.147 222.513 230.04 222.046 230.04C221.58 230.04 221.16 230.147 220.786 230.36C220.426 230.56 220.146 230.853 219.946 231.24C219.746 231.627 219.646 232.087 219.646 232.62V239H217.386ZM234.105 239.24C233.065 239.24 232.132 238.993 231.305 238.5C230.492 237.993 229.845 237.313 229.365 236.46C228.898 235.607 228.665 234.647 228.665 233.58C228.665 232.513 228.905 231.553 229.385 230.7C229.865 229.847 230.512 229.173 231.325 228.68C232.138 228.187 233.058 227.94 234.085 227.94C234.952 227.94 235.718 228.113 236.385 228.46C237.052 228.807 237.578 229.287 237.965 229.9L237.625 230.42V223.86H239.865V239H237.725V236.8L237.985 237.22C237.612 237.873 237.078 238.373 236.385 238.72C235.692 239.067 234.932 239.24 234.105 239.24ZM234.325 237.14C234.952 237.14 235.512 236.987 236.005 236.68C236.512 236.373 236.905 235.953 237.185 235.42C237.478 234.873 237.625 234.26 237.625 233.58C237.625 232.9 237.478 232.293 237.185 231.76C236.905 231.227 236.512 230.807 236.005 230.5C235.512 230.193 234.952 230.04 234.325 230.04C233.698 230.04 233.132 230.193 232.625 230.5C232.118 230.807 231.725 231.227 231.445 231.76C231.165 232.293 231.025 232.9 231.025 233.58C231.025 234.26 231.165 234.873 231.445 235.42C231.725 235.953 232.112 236.373 232.605 236.68C233.112 236.987 233.685 237.14 234.325 237.14ZM31.48 272.24C30.4267 272.24 29.4467 272.047 28.54 271.66C27.6467 271.273 26.8667 270.74 26.2 270.06C25.5467 269.367 25.0333 268.553 24.66 267.62C24.2867 266.687 24.1 265.66 24.1 264.54C24.1 263.433 24.28 262.413 24.64 261.48C25.0133 260.533 25.5333 259.72 26.2 259.04C26.8667 258.347 27.6467 257.813 28.54 257.44C29.4333 257.053 30.4133 256.86 31.48 256.86C32.5333 256.86 33.4733 257.04 34.3 257.4C35.14 257.76 35.8467 258.233 36.42 258.82C36.9933 259.393 37.4067 260.02 37.66 260.7L35.54 261.7C35.22 260.9 34.7067 260.253 34 259.76C33.3067 259.253 32.4667 259 31.48 259C30.4933 259 29.62 259.233 28.86 259.7C28.1 260.167 27.5067 260.813 27.08 261.64C26.6667 262.467 26.46 263.433 26.46 264.54C26.46 265.647 26.6667 266.62 27.08 267.46C27.5067 268.287 28.1 268.933 28.86 269.4C29.62 269.853 30.4933 270.08 31.48 270.08C32.4667 270.08 33.3067 269.833 34 269.34C34.7067 268.847 35.22 268.2 35.54 267.4L37.66 268.4C37.4067 269.067 36.9933 269.693 36.42 270.28C35.8467 270.867 35.14 271.34 34.3 271.7C33.4733 272.06 32.5333 272.24 31.48 272.24ZM44.8916 272.24C43.8516 272.24 42.8982 271.993 42.0316 271.5C41.1782 271.007 40.4982 270.333 39.9916 269.48C39.4849 268.627 39.2316 267.66 39.2316 266.58C39.2316 265.487 39.4849 264.52 39.9916 263.68C40.4982 262.827 41.1782 262.16 42.0316 261.68C42.8849 261.187 43.8382 260.94 44.8916 260.94C45.9582 260.94 46.9116 261.187 47.7516 261.68C48.6049 262.16 49.2782 262.827 49.7716 263.68C50.2782 264.52 50.5316 265.487 50.5316 266.58C50.5316 267.673 50.2782 268.647 49.7716 269.5C49.2649 270.353 48.5849 271.027 47.7316 271.52C46.8782 272 45.9316 272.24 44.8916 272.24ZM44.8916 270.14C45.5316 270.14 46.0982 269.987 46.5916 269.68C47.0849 269.373 47.4716 268.953 47.7516 268.42C48.0449 267.873 48.1916 267.26 48.1916 266.58C48.1916 265.9 48.0449 265.293 47.7516 264.76C47.4716 264.227 47.0849 263.807 46.5916 263.5C46.0982 263.193 45.5316 263.04 44.8916 263.04C44.2649 263.04 43.6982 263.193 43.1916 263.5C42.6982 263.807 42.3049 264.227 42.0116 264.76C41.7316 265.293 41.5916 265.9 41.5916 266.58C41.5916 267.26 41.7316 267.873 42.0116 268.42C42.3049 268.953 42.6982 269.373 43.1916 269.68C43.6982 269.987 44.2649 270.14 44.8916 270.14ZM52.738 272V261.18H54.898V263.52L54.618 263.16C54.8446 262.427 55.258 261.873 55.858 261.5C56.458 261.127 57.1446 260.94 57.918 260.94C58.7846 260.94 59.5513 261.173 60.218 261.64C60.898 262.093 61.3513 262.7 61.578 263.46L60.938 263.52C61.258 262.653 61.7446 262.007 62.398 261.58C63.0646 261.153 63.8246 260.94 64.678 260.94C65.4246 260.94 66.098 261.113 66.698 261.46C67.3113 261.807 67.798 262.287 68.158 262.9C68.518 263.513 68.698 264.213 68.698 265V272H66.438V265.62C66.438 265.073 66.338 264.613 66.138 264.24C65.9513 263.853 65.6846 263.56 65.338 263.36C65.0046 263.147 64.6113 263.04 64.158 263.04C63.7046 263.04 63.3046 263.147 62.958 263.36C62.6113 263.56 62.338 263.853 62.138 264.24C61.938 264.627 61.838 265.087 61.838 265.62V272H59.598V265.62C59.598 265.073 59.498 264.613 59.298 264.24C59.1113 263.853 58.8446 263.56 58.498 263.36C58.1646 263.147 57.7646 263.04 57.298 263.04C56.8446 263.04 56.4446 263.147 56.098 263.36C55.7513 263.56 55.478 263.853 55.278 264.24C55.0913 264.627 54.998 265.087 54.998 265.62V272H52.738ZM71.1169 276V261.18H73.2769V263.42L73.0169 262.9C73.4169 262.287 73.9502 261.807 74.6169 261.46C75.2835 261.113 76.0435 260.94 76.8969 260.94C77.9235 260.94 78.8435 261.187 79.6569 261.68C80.4835 262.173 81.1302 262.847 81.5969 263.7C82.0769 264.553 82.3169 265.513 82.3169 266.58C82.3169 267.647 82.0769 268.607 81.5969 269.46C81.1302 270.313 80.4902 270.993 79.6769 271.5C78.8635 271.993 77.9369 272.24 76.8969 272.24C76.0569 272.24 75.2902 272.067 74.5969 271.72C73.9169 271.373 73.3902 270.873 73.0169 270.22L73.3769 269.8V276H71.1169ZM76.6769 270.14C77.3169 270.14 77.8835 269.987 78.3769 269.68C78.8702 269.373 79.2569 268.953 79.5369 268.42C79.8302 267.873 79.9769 267.26 79.9769 266.58C79.9769 265.9 79.8302 265.293 79.5369 264.76C79.2569 264.227 78.8702 263.807 78.3769 263.5C77.8835 263.193 77.3169 263.04 76.6769 263.04C76.0502 263.04 75.4835 263.193 74.9769 263.5C74.4835 263.807 74.0902 264.227 73.7969 264.76C73.5169 265.293 73.3769 265.9 73.3769 266.58C73.3769 267.26 73.5169 267.873 73.7969 268.42C74.0902 268.953 74.4835 269.373 74.9769 269.68C75.4835 269.987 76.0502 270.14 76.6769 270.14ZM84.5153 272V256.86H86.7753V272H84.5153ZM89.4177 272V261.18H91.6777V272H89.4177ZM89.4177 259.7V257.1H91.6777V259.7H89.4177ZM97.56 272.24C96.8267 272.24 96.18 272.113 95.62 271.86C95.0733 271.593 94.6467 271.233 94.34 270.78C94.0333 270.313 93.88 269.767 93.88 269.14C93.88 268.553 94.0067 268.027 94.26 267.56C94.5267 267.093 94.9333 266.7 95.48 266.38C96.0267 266.06 96.7133 265.833 97.54 265.7L101.3 265.08V266.86L97.98 267.44C97.38 267.547 96.94 267.74 96.66 268.02C96.38 268.287 96.24 268.633 96.24 269.06C96.24 269.473 96.3933 269.813 96.7 270.08C97.02 270.333 97.4267 270.46 97.92 270.46C98.5333 270.46 99.0667 270.327 99.52 270.06C99.9867 269.793 100.347 269.44 100.6 269C100.853 268.547 100.98 268.047 100.98 267.5V264.72C100.98 264.187 100.78 263.753 100.38 263.42C99.9933 263.073 99.4733 262.9 98.82 262.9C98.22 262.9 97.6933 263.06 97.24 263.38C96.8 263.687 96.4733 264.087 96.26 264.58L94.38 263.64C94.58 263.107 94.9067 262.64 95.36 262.24C95.8133 261.827 96.34 261.507 96.94 261.28C97.5533 261.053 98.2 260.94 98.88 260.94C99.7333 260.94 100.487 261.1 101.14 261.42C101.807 261.74 102.32 262.187 102.68 262.76C103.053 263.32 103.24 263.973 103.24 264.72V272H101.08V270.04L101.54 270.1C101.287 270.54 100.96 270.92 100.56 271.24C100.173 271.56 99.7267 271.807 99.22 271.98C98.7267 272.153 98.1733 272.24 97.56 272.24ZM105.882 272V261.18H108.043V263.3L107.783 263.02C108.049 262.34 108.476 261.827 109.063 261.48C109.649 261.12 110.329 260.94 111.103 260.94C111.903 260.94 112.609 261.113 113.223 261.46C113.836 261.807 114.316 262.287 114.662 262.9C115.009 263.513 115.183 264.22 115.183 265.02V272H112.943V265.62C112.943 265.073 112.843 264.613 112.643 264.24C112.443 263.853 112.156 263.56 111.783 263.36C111.423 263.147 111.009 263.04 110.543 263.04C110.076 263.04 109.656 263.147 109.283 263.36C108.923 263.56 108.643 263.853 108.443 264.24C108.243 264.627 108.143 265.087 108.143 265.62V272H105.882ZM122.741 272.24C121.661 272.24 120.701 271.993 119.861 271.5C119.035 270.993 118.375 270.313 117.881 269.46C117.401 268.607 117.161 267.64 117.161 266.56C117.161 265.493 117.401 264.533 117.881 263.68C118.361 262.827 119.021 262.16 119.861 261.68C120.701 261.187 121.661 260.94 122.741 260.94C123.475 260.94 124.161 261.073 124.801 261.34C125.441 261.593 125.995 261.947 126.461 262.4C126.941 262.853 127.295 263.38 127.521 263.98L125.541 264.9C125.315 264.34 124.948 263.893 124.441 263.56C123.948 263.213 123.381 263.04 122.741 263.04C122.128 263.04 121.575 263.193 121.081 263.5C120.601 263.793 120.221 264.213 119.941 264.76C119.661 265.293 119.521 265.9 119.521 266.58C119.521 267.26 119.661 267.873 119.941 268.42C120.221 268.953 120.601 269.373 121.081 269.68C121.575 269.987 122.128 270.14 122.741 270.14C123.395 270.14 123.961 269.973 124.441 269.64C124.935 269.293 125.301 268.833 125.541 268.26L127.521 269.2C127.308 269.773 126.961 270.293 126.481 270.76C126.015 271.213 125.461 271.573 124.821 271.84C124.181 272.107 123.488 272.24 122.741 272.24ZM134.81 272.24C133.73 272.24 132.77 271.993 131.93 271.5C131.103 270.993 130.457 270.313 129.99 269.46C129.523 268.593 129.29 267.627 129.29 266.56C129.29 265.467 129.523 264.5 129.99 263.66C130.47 262.82 131.11 262.16 131.91 261.68C132.71 261.187 133.617 260.94 134.63 260.94C135.443 260.94 136.17 261.08 136.81 261.36C137.45 261.64 137.99 262.027 138.43 262.52C138.87 263 139.203 263.553 139.43 264.18C139.67 264.807 139.79 265.473 139.79 266.18C139.79 266.353 139.783 266.533 139.77 266.72C139.757 266.907 139.73 267.08 139.69 267.24H131.07V265.44H138.41L137.33 266.26C137.463 265.607 137.417 265.027 137.19 264.52C136.977 264 136.643 263.593 136.19 263.3C135.75 262.993 135.23 262.84 134.63 262.84C134.03 262.84 133.497 262.993 133.03 263.3C132.563 263.593 132.203 264.02 131.95 264.58C131.697 265.127 131.597 265.793 131.65 266.58C131.583 267.313 131.683 267.953 131.95 268.5C132.23 269.047 132.617 269.473 133.11 269.78C133.617 270.087 134.19 270.24 134.83 270.24C135.483 270.24 136.037 270.093 136.49 269.8C136.957 269.507 137.323 269.127 137.59 268.66L139.43 269.56C139.217 270.067 138.883 270.527 138.43 270.94C137.99 271.34 137.457 271.66 136.83 271.9C136.217 272.127 135.543 272.24 134.81 272.24Z" fill="white"/>
<path d="M95.5923 40.2782C95.5155 40.2563 95.4497 40.2343 95.373 40.2124C95.362 40.2124 95.351 40.2124 95.351 40.2124C95.3401 40.2124 95.3401 40.2124 95.3291 40.2124C95.3072 40.2014 95.2962 40.2014 95.2743 40.1905C95.2414 40.1795 95.1975 40.1685 95.1646 40.1576C94.9124 40.0918 94.5944 40.004 94.1996 39.9712C93.9912 39.9602 93.7829 39.9492 93.5636 39.9492H42.1212C41.858 39.9492 41.5838 39.9602 41.3097 39.9931C40.9478 40.0479 40.6517 40.1137 40.3995 40.1795C37.5263 40.98 35.5195 43.601 35.5195 46.5618V49.5117V100.362C35.5195 104.595 38.9629 108.049 43.2068 108.049H92.4998C96.7328 108.049 100.187 104.606 100.187 100.362V49.5117V46.5618C100.176 43.6668 98.3448 41.1555 95.5923 40.2782ZM37.6141 46.5618C37.6141 44.544 38.9848 42.7456 40.9807 42.1973C41.1781 42.1425 41.3974 42.0986 41.5729 42.0767C41.7483 42.0547 41.9348 42.0438 42.1212 42.0438H93.5745C93.739 42.0438 93.9035 42.0547 94.0351 42.0657C94.2215 42.0876 94.397 42.1205 94.5615 42.1754C94.6382 42.1973 94.715 42.2192 94.7918 42.2302C94.8356 42.2412 94.8685 42.2521 94.9234 42.274C95.0111 42.3069 95.0879 42.3398 95.1756 42.3508C96.9302 43.0088 98.0816 44.6537 98.0816 46.5618V48.4699H37.6141V46.5618ZM98.0816 100.373C98.0816 103.454 95.5704 105.966 92.4889 105.966H43.2068C40.1253 105.966 37.6141 103.454 37.6141 100.373V50.5645H98.0816V100.373Z" fill="white"/>
<path d="M44.3811 44.7305H43.0213C42.4401 44.7305 41.9795 45.202 41.9795 45.7723C41.9795 46.3425 42.451 46.814 43.0213 46.814H44.3811C44.9623 46.814 45.4229 46.3425 45.4229 45.7723C45.4229 45.202 44.9623 44.7305 44.3811 44.7305Z" fill="white"/>
<path d="M49.2922 44.7305H47.9324C47.3512 44.7305 46.8906 45.202 46.8906 45.7723C46.8906 46.3425 47.3622 46.814 47.9324 46.814H49.2922C49.8734 46.814 50.334 46.3425 50.334 45.7723C50.334 45.202 49.8734 44.7305 49.2922 44.7305Z" fill="white"/>
<path d="M54.2053 44.7305H52.8455C52.2643 44.7305 51.8037 45.202 51.8037 45.7723C51.8037 46.3425 52.2753 46.814 52.8455 46.814H54.2053C54.7865 46.814 55.2471 46.3425 55.2471 45.7723C55.2471 45.202 54.7865 44.7305 54.2053 44.7305Z" fill="white"/>
<path d="M54.6456 97.6963C54.8539 97.9046 55.1171 98.0033 55.3803 98.0033C55.6435 98.0033 55.9177 97.9046 56.115 97.6963L56.5318 97.2795L56.9485 97.6963C57.1568 97.9046 57.42 98.0033 57.6832 98.0033C57.9464 98.0033 58.2206 97.9046 58.4179 97.6963C58.8237 97.2905 58.8237 96.6216 58.4179 96.2158L58.0012 95.7991L58.4179 95.3824C58.8237 94.9767 58.8237 94.3077 58.4179 93.902C58.0122 93.4962 57.3433 93.4962 56.9375 93.902L56.5208 94.3187L56.1041 93.902C55.6983 93.4962 55.0294 93.4962 54.6236 93.902C54.2179 94.3077 54.2179 94.9767 54.6236 95.3824L55.0404 95.7991L54.6236 96.2158C54.2398 96.6216 54.2398 97.2905 54.6456 97.6963Z" fill="white"/>
<path d="M62.1778 97.6963C62.3862 97.9046 62.6494 98.0033 62.9125 98.0033C63.1757 98.0033 63.4499 97.9046 63.6473 97.6963L64.064 97.2795L64.4807 97.6963C64.6891 97.9046 64.9523 98.0033 65.2154 98.0033C65.4786 98.0033 65.7528 97.9046 65.9502 97.6963C66.3559 97.2905 66.3559 96.6216 65.9502 96.2158L65.5335 95.7991L65.9502 95.3824C66.3559 94.9767 66.3559 94.3077 65.9502 93.902C65.5444 93.4962 64.8755 93.4962 64.4697 93.902L64.053 94.3187L63.6363 93.902C63.2306 93.4962 62.5616 93.4962 62.1559 93.902C61.7501 94.3077 61.7501 94.9767 62.1559 95.3824L62.5726 95.7991L62.1559 96.2158C61.7721 96.6216 61.7721 97.2905 62.1778 97.6963Z" fill="white"/>
<path d="M69.713 97.6963C69.9213 97.9046 70.1845 98.0033 70.4477 98.0033C70.7109 98.0033 70.985 97.9046 71.1824 97.6963L71.5991 97.2795L72.0159 97.6963C72.2242 97.9046 72.4874 98.0033 72.7506 98.0033C73.0138 98.0033 73.2879 97.9046 73.4853 97.6963C73.8911 97.2905 73.8911 96.6216 73.4853 96.2158L73.0686 95.7991L73.4853 95.3824C73.8911 94.9767 73.8911 94.3077 73.4853 93.902C73.0796 93.4962 72.4106 93.4962 72.0049 93.902L71.5882 94.3187L71.1715 93.902C70.7657 93.4962 70.0968 93.4962 69.691 93.902C69.2853 94.3077 69.2853 94.9767 69.691 95.3824L70.1077 95.7991L69.691 96.2158C69.3072 96.6216 69.3072 97.2905 69.713 97.6963Z" fill="white"/>
<path d="M77.2462 97.6963C77.4545 97.9046 77.7177 98.0033 77.9809 98.0033C78.2441 98.0033 78.5182 97.9046 78.7156 97.6963L79.1324 97.2795L79.5491 97.6963C79.7574 97.9046 80.0206 98.0033 80.2838 98.0033C80.547 98.0033 80.8211 97.9046 81.0185 97.6963C81.4243 97.2905 81.4243 96.6216 81.0185 96.2158L80.6018 95.7991L81.0185 95.3824C81.4243 94.9767 81.4243 94.3077 81.0185 93.902C80.6128 93.4962 79.9438 93.4962 79.5381 93.902L79.1214 94.3187L78.7047 93.902C78.2989 93.4962 77.63 93.4962 77.2242 93.902C76.8185 94.3077 76.8185 94.9767 77.2242 95.3824L77.6409 95.7991L77.2242 96.2158C76.8404 96.6216 76.8404 97.2905 77.2462 97.6963Z" fill="white"/>
<path d="M67.4417 87.927C67.5733 87.9818 67.7159 88.0147 67.8475 88.0147C67.9791 88.0147 68.1216 87.9818 68.2532 87.927C86.8848 80.0314 82.586 59.8536 82.5312 59.6452C82.4106 59.1188 81.9061 58.7789 81.3688 58.8337C73.199 59.9303 68.8235 54.8859 68.648 54.6666C68.2532 54.1841 67.4308 54.1841 67.036 54.6666C66.9921 54.7214 62.5398 59.9523 54.3152 58.8337C53.7888 58.757 53.2734 59.1079 53.1528 59.6452C53.1089 59.8426 48.8102 80.0204 67.4417 87.927ZM55.028 61.016C61.8051 61.5862 66.1477 58.3951 67.8365 56.8269C69.5363 58.3951 73.8789 61.5862 80.656 61.016C81.2482 64.8432 82.4325 79.3515 67.8365 85.8105C53.2515 79.3515 54.4358 64.8542 55.028 61.016Z" fill="white"/>
<path d="M65.0626 72.8586L64.4046 77.0257C64.3608 77.3328 64.4485 77.6398 64.6459 77.8701C64.8433 78.1004 65.1394 78.232 65.4464 78.232H70.2716C70.5786 78.232 70.8637 78.1004 71.0721 77.8701C71.2695 77.6398 71.3572 77.3328 71.3133 77.0257L70.6554 72.8586C71.9275 71.9703 72.717 70.4899 72.717 68.8998C72.717 66.224 70.5457 64.0527 67.87 64.0527C65.1942 64.0527 63.0229 66.224 63.0229 68.8998C63.001 70.4899 63.7905 71.9703 65.0626 72.8586ZM67.848 66.1473C69.3614 66.1473 70.6005 67.3865 70.6005 68.8998C70.6005 69.9525 69.9864 70.9285 69.0433 71.3672C68.6266 71.5646 68.3854 72.0142 68.4512 72.4748L69.0324 76.1265H66.6637L67.2449 72.4748C67.3217 72.0142 67.0804 71.5646 66.6527 71.3672C65.7096 70.9176 65.0955 69.9525 65.0955 68.8998C65.0955 67.3865 66.3347 66.1473 67.848 66.1473Z" fill="white"/>
<path d="M53.5913 102.304H82.1034C84.0992 102.304 85.7112 100.681 85.7112 98.6851V92.906C85.7112 90.9101 84.0882 89.2871 82.1034 89.2871H53.5913C51.5954 89.2871 49.9834 90.9101 49.9834 92.906V98.6851C49.9834 100.681 51.5954 102.304 53.5913 102.304ZM52.0779 92.906C52.0779 92.0616 52.7578 91.3817 53.5913 91.3817H82.1034C82.9368 91.3817 83.6167 92.0725 83.6167 92.906V98.6851C83.6167 99.5295 82.9368 100.209 82.1034 100.209H53.5913C52.7578 100.209 52.0779 99.5295 52.0779 98.6851V92.906Z" fill="white"/>
<defs>
<linearGradient id="paint0_linear_2257_3793" x1="-2.00001" y1="314" x2="321.5" y2="-9.49999" gradientUnits="userSpaceOnUse">
<stop stop-color="#11296A"/>
<stop offset="1" stop-color="#2150D0"/>
</linearGradient>
<linearGradient id="paint1_linear_2257_3793" x1="-2.00001" y1="314" x2="321.5" y2="-9.49999" gradientUnits="userSpaceOnUse">
<stop stop-color="#11296A"/>
<stop offset="1" stop-color="#2150D0"/>
</linearGradient>
<linearGradient id="paint2_linear_2257_3793" x1="367.787" y1="-128" x2="367.787" y2="216.727" gradientUnits="userSpaceOnUse">
<stop stop-color="white"/>
<stop offset="1" stop-color="white" stop-opacity="0"/>
</linearGradient>
<linearGradient id="paint3_linear_2257_3793" x1="465.787" y1="-128" x2="465.787" y2="216.727" gradientUnits="userSpaceOnUse">
<stop stop-color="white"/>
<stop offset="1" stop-color="white" stop-opacity="0"/>
</linearGradient>
</defs>
</svg>
