<svg width="285" height="300" viewBox="0 0 285 300" fill="none" xmlns="http://www.w3.org/2000/svg">
<rect width="285" height="300" rx="10" transform="matrix(1 0 0 -1 0 300)" fill="url(#paint0_linear_2257_3814)"/>
<mask id="mask0_2257_3814" style="mask-type:alpha" maskUnits="userSpaceOnUse" x="0" y="0" width="285" height="300">
<rect width="285" height="300" rx="10" transform="matrix(1 0 0 -1 0 300)" fill="url(#paint1_linear_2257_3814)"/>
</mask>
<g mask="url(#mask0_2257_3814)">
<rect x="338.605" y="-128" width="58.3621" height="344.727" rx="29.1811" transform="rotate(43.8011 338.605 -128)" fill="url(#paint2_linear_2257_3814)" fill-opacity="0.24"/>
<rect x="436.605" y="-128" width="58.3621" height="344.727" rx="29.1811" transform="rotate(43.8011 436.605 -128)" fill="url(#paint3_linear_2257_3814)" fill-opacity="0.24"/>
</g>
<path d="M24.54 239V224.1H34.24V226.2H26.9V230.68H33.44V232.78H26.9V239H24.54ZM38.9319 239.24C38.1985 239.24 37.5519 239.113 36.9919 238.86C36.4452 238.593 36.0185 238.233 35.7119 237.78C35.4052 237.313 35.2519 236.767 35.2519 236.14C35.2519 235.553 35.3785 235.027 35.6319 234.56C35.8985 234.093 36.3052 233.7 36.8519 233.38C37.3985 233.06 38.0852 232.833 38.9119 232.7L42.6719 232.08V233.86L39.3519 234.44C38.7519 234.547 38.3119 234.74 38.0319 235.02C37.7519 235.287 37.6119 235.633 37.6119 236.06C37.6119 236.473 37.7652 236.813 38.0719 237.08C38.3919 237.333 38.7985 237.46 39.2919 237.46C39.9052 237.46 40.4385 237.327 40.8919 237.06C41.3585 236.793 41.7185 236.44 41.9719 236C42.2252 235.547 42.3519 235.047 42.3519 234.5V231.72C42.3519 231.187 42.1519 230.753 41.7519 230.42C41.3652 230.073 40.8452 229.9 40.1919 229.9C39.5919 229.9 39.0652 230.06 38.6119 230.38C38.1719 230.687 37.8452 231.087 37.6319 231.58L35.7519 230.64C35.9519 230.107 36.2785 229.64 36.7319 229.24C37.1852 228.827 37.7119 228.507 38.3119 228.28C38.9252 228.053 39.5719 227.94 40.2519 227.94C41.1052 227.94 41.8585 228.1 42.5119 228.42C43.1785 228.74 43.6919 229.187 44.0519 229.76C44.4252 230.32 44.6119 230.973 44.6119 231.72V239H42.4519V237.04L42.9119 237.1C42.6585 237.54 42.3319 237.92 41.9319 238.24C41.5452 238.56 41.0985 238.807 40.5919 238.98C40.0985 239.153 39.5452 239.24 38.9319 239.24ZM51.4544 239.24C50.3477 239.24 49.3744 238.967 48.5344 238.42C47.7077 237.873 47.1277 237.14 46.7944 236.22L48.5344 235.4C48.8277 236.013 49.2277 236.5 49.7344 236.86C50.2544 237.22 50.8277 237.4 51.4544 237.4C51.9877 237.4 52.421 237.28 52.7544 237.04C53.0877 236.8 53.2544 236.473 53.2544 236.06C53.2544 235.793 53.181 235.58 53.0344 235.42C52.8877 235.247 52.701 235.107 52.4744 235C52.261 234.893 52.041 234.813 51.8144 234.76L50.1144 234.28C49.181 234.013 48.481 233.613 48.0144 233.08C47.561 232.533 47.3344 231.9 47.3344 231.18C47.3344 230.527 47.501 229.96 47.8344 229.48C48.1677 228.987 48.6277 228.607 49.2144 228.34C49.801 228.073 50.461 227.94 51.1944 227.94C52.181 227.94 53.061 228.187 53.8344 228.68C54.6077 229.16 55.1544 229.833 55.4744 230.7L53.7344 231.52C53.521 231 53.181 230.587 52.7144 230.28C52.261 229.973 51.7477 229.82 51.1744 229.82C50.681 229.82 50.2877 229.94 49.9944 230.18C49.701 230.407 49.5544 230.707 49.5544 231.08C49.5544 231.333 49.621 231.547 49.7544 231.72C49.8877 231.88 50.061 232.013 50.2744 232.12C50.4877 232.213 50.7077 232.293 50.9344 232.36L52.6944 232.88C53.5877 233.133 54.2744 233.533 54.7544 234.08C55.2344 234.613 55.4744 235.253 55.4744 236C55.4744 236.64 55.301 237.207 54.9544 237.7C54.621 238.18 54.1544 238.56 53.5544 238.84C52.9544 239.107 52.2544 239.24 51.4544 239.24ZM62.5687 239.12C61.4354 239.12 60.5554 238.8 59.9287 238.16C59.3021 237.52 58.9887 236.62 58.9887 235.46V230.22H57.0887V228.18H57.3887C57.8954 228.18 58.2887 228.033 58.5687 227.74C58.8487 227.447 58.9887 227.047 58.9887 226.54V225.7H61.2487V228.18H63.7087V230.22H61.2487V235.36C61.2487 235.733 61.3087 236.053 61.4287 236.32C61.5487 236.573 61.7421 236.773 62.0087 236.92C62.2754 237.053 62.6221 237.12 63.0487 237.12C63.1554 237.12 63.2754 237.113 63.4087 237.1C63.5421 237.087 63.6687 237.073 63.7887 237.06V239C63.6021 239.027 63.3954 239.053 63.1687 239.08C62.9421 239.107 62.7421 239.12 62.5687 239.12ZM71.0789 239.24C69.9989 239.24 69.0389 238.993 68.1989 238.5C67.3722 237.993 66.7256 237.313 66.2589 236.46C65.7922 235.593 65.5589 234.627 65.5589 233.56C65.5589 232.467 65.7922 231.5 66.2589 230.66C66.7389 229.82 67.3789 229.16 68.1789 228.68C68.9789 228.187 69.8856 227.94 70.8989 227.94C71.7122 227.94 72.4389 228.08 73.0789 228.36C73.7189 228.64 74.2589 229.027 74.6989 229.52C75.1389 230 75.4722 230.553 75.6989 231.18C75.9389 231.807 76.0589 232.473 76.0589 233.18C76.0589 233.353 76.0522 233.533 76.0389 233.72C76.0256 233.907 75.9989 234.08 75.9589 234.24H67.3389V232.44H74.6789L73.5989 233.26C73.7322 232.607 73.6856 232.027 73.4589 231.52C73.2456 231 72.9122 230.593 72.4589 230.3C72.0189 229.993 71.4989 229.84 70.8989 229.84C70.2989 229.84 69.7656 229.993 69.2989 230.3C68.8322 230.593 68.4722 231.02 68.2189 231.58C67.9656 232.127 67.8656 232.793 67.9189 233.58C67.8522 234.313 67.9522 234.953 68.2189 235.5C68.4989 236.047 68.8856 236.473 69.3789 236.78C69.8856 237.087 70.4589 237.24 71.0989 237.24C71.7522 237.24 72.3056 237.093 72.7589 236.8C73.2256 236.507 73.5922 236.127 73.8589 235.66L75.6989 236.56C75.4856 237.067 75.1522 237.527 74.6989 237.94C74.2589 238.34 73.7256 238.66 73.0989 238.9C72.4856 239.127 71.8122 239.24 71.0789 239.24ZM78.4645 239V228.18H80.6245V230.36L80.4245 230.04C80.6645 229.333 81.0512 228.827 81.5845 228.52C82.1179 228.2 82.7579 228.04 83.5045 228.04H84.1645V230.1H83.2245C82.4779 230.1 81.8712 230.333 81.4045 230.8C80.9512 231.253 80.7245 231.907 80.7245 232.76V239H78.4645ZM92.4667 239V226.2H88.5067V224.1H98.7067V226.2H94.8067V239H92.4667ZM100.451 239V228.18H102.711V239H100.451ZM100.451 226.7V224.1H102.711V226.7H100.451ZM105.554 239V228.18H107.714V230.52L107.434 230.16C107.66 229.427 108.074 228.873 108.674 228.5C109.274 228.127 109.96 227.94 110.734 227.94C111.6 227.94 112.367 228.173 113.034 228.64C113.714 229.093 114.167 229.7 114.394 230.46L113.754 230.52C114.074 229.653 114.56 229.007 115.214 228.58C115.88 228.153 116.64 227.94 117.494 227.94C118.24 227.94 118.914 228.113 119.514 228.46C120.127 228.807 120.614 229.287 120.974 229.9C121.334 230.513 121.514 231.213 121.514 232V239H119.254V232.62C119.254 232.073 119.154 231.613 118.954 231.24C118.767 230.853 118.5 230.56 118.154 230.36C117.82 230.147 117.427 230.04 116.974 230.04C116.52 230.04 116.12 230.147 115.774 230.36C115.427 230.56 115.154 230.853 114.954 231.24C114.754 231.627 114.654 232.087 114.654 232.62V239H112.414V232.62C112.414 232.073 112.314 231.613 112.114 231.24C111.927 230.853 111.66 230.56 111.314 230.36C110.98 230.147 110.58 230.04 110.114 230.04C109.66 230.04 109.26 230.147 108.914 230.36C108.567 230.56 108.294 230.853 108.094 231.24C107.907 231.627 107.814 232.087 107.814 232.62V239H105.554ZM129.213 239.24C128.133 239.24 127.173 238.993 126.333 238.5C125.506 237.993 124.859 237.313 124.393 236.46C123.926 235.593 123.693 234.627 123.693 233.56C123.693 232.467 123.926 231.5 124.393 230.66C124.873 229.82 125.513 229.16 126.313 228.68C127.113 228.187 128.019 227.94 129.033 227.94C129.846 227.94 130.573 228.08 131.213 228.36C131.853 228.64 132.393 229.027 132.833 229.52C133.273 230 133.606 230.553 133.832 231.18C134.073 231.807 134.193 232.473 134.193 233.18C134.193 233.353 134.186 233.533 134.173 233.72C134.159 233.907 134.133 234.08 134.093 234.24H125.473V232.44H132.812L131.733 233.26C131.866 232.607 131.819 232.027 131.593 231.52C131.379 231 131.046 230.593 130.593 230.3C130.153 229.993 129.633 229.84 129.033 229.84C128.433 229.84 127.899 229.993 127.433 230.3C126.966 230.593 126.606 231.02 126.353 231.58C126.099 232.127 125.999 232.793 126.053 233.58C125.986 234.313 126.086 234.953 126.353 235.5C126.633 236.047 127.019 236.473 127.513 236.78C128.019 237.087 128.593 237.24 129.233 237.24C129.886 237.24 130.439 237.093 130.893 236.8C131.359 236.507 131.726 236.127 131.993 235.66L133.832 236.56C133.619 237.067 133.286 237.527 132.833 237.94C132.393 238.34 131.859 238.66 131.233 238.9C130.619 239.127 129.946 239.24 129.213 239.24ZM144.974 239.12C143.841 239.12 142.961 238.8 142.334 238.16C141.708 237.52 141.394 236.62 141.394 235.46V230.22H139.494V228.18H139.794C140.301 228.18 140.694 228.033 140.974 227.74C141.254 227.447 141.394 227.047 141.394 226.54V225.7H143.654V228.18H146.114V230.22H143.654V235.36C143.654 235.733 143.714 236.053 143.834 236.32C143.954 236.573 144.148 236.773 144.414 236.92C144.681 237.053 145.028 237.12 145.454 237.12C145.561 237.12 145.681 237.113 145.814 237.1C145.948 237.087 146.074 237.073 146.194 237.06V239C146.008 239.027 145.801 239.053 145.574 239.08C145.348 239.107 145.148 239.12 144.974 239.12ZM153.624 239.24C152.584 239.24 151.631 238.993 150.764 238.5C149.911 238.007 149.231 237.333 148.724 236.48C148.218 235.627 147.964 234.66 147.964 233.58C147.964 232.487 148.218 231.52 148.724 230.68C149.231 229.827 149.911 229.16 150.764 228.68C151.618 228.187 152.571 227.94 153.624 227.94C154.691 227.94 155.644 228.187 156.484 228.68C157.338 229.16 158.011 229.827 158.504 230.68C159.011 231.52 159.264 232.487 159.264 233.58C159.264 234.673 159.011 235.647 158.504 236.5C157.998 237.353 157.318 238.027 156.464 238.52C155.611 239 154.664 239.24 153.624 239.24ZM153.624 237.14C154.264 237.14 154.831 236.987 155.324 236.68C155.818 236.373 156.204 235.953 156.484 235.42C156.778 234.873 156.924 234.26 156.924 233.58C156.924 232.9 156.778 232.293 156.484 231.76C156.204 231.227 155.818 230.807 155.324 230.5C154.831 230.193 154.264 230.04 153.624 230.04C152.998 230.04 152.431 230.193 151.924 230.5C151.431 230.807 151.038 231.227 150.744 231.76C150.464 232.293 150.324 232.9 150.324 233.58C150.324 234.26 150.464 234.873 150.744 235.42C151.038 235.953 151.431 236.373 151.924 236.68C152.431 236.987 152.998 237.14 153.624 237.14ZM165.587 239V224.1H167.787L173.387 231.86H172.287L177.787 224.1H179.987V239H177.647V226.88L178.527 227.12L172.907 234.8H172.667L167.167 227.12L167.947 226.88V239H165.587ZM186.287 239.24C185.554 239.24 184.907 239.113 184.347 238.86C183.801 238.593 183.374 238.233 183.067 237.78C182.761 237.313 182.607 236.767 182.607 236.14C182.607 235.553 182.734 235.027 182.987 234.56C183.254 234.093 183.661 233.7 184.207 233.38C184.754 233.06 185.441 232.833 186.267 232.7L190.027 232.08V233.86L186.707 234.44C186.107 234.547 185.667 234.74 185.387 235.02C185.107 235.287 184.967 235.633 184.967 236.06C184.967 236.473 185.121 236.813 185.427 237.08C185.747 237.333 186.154 237.46 186.647 237.46C187.261 237.46 187.794 237.327 188.247 237.06C188.714 236.793 189.074 236.44 189.327 236C189.581 235.547 189.707 235.047 189.707 234.5V231.72C189.707 231.187 189.507 230.753 189.107 230.42C188.721 230.073 188.201 229.9 187.547 229.9C186.947 229.9 186.421 230.06 185.967 230.38C185.527 230.687 185.201 231.087 184.987 231.58L183.107 230.64C183.307 230.107 183.634 229.64 184.087 229.24C184.541 228.827 185.067 228.507 185.667 228.28C186.281 228.053 186.927 227.94 187.607 227.94C188.461 227.94 189.214 228.1 189.867 228.42C190.534 228.74 191.047 229.187 191.407 229.76C191.781 230.32 191.967 230.973 191.967 231.72V239H189.807V237.04L190.267 237.1C190.014 237.54 189.687 237.92 189.287 238.24C188.901 238.56 188.454 238.807 187.947 238.98C187.454 239.153 186.901 239.24 186.287 239.24ZM194.81 239V228.18H196.97V230.36L196.77 230.04C197.01 229.333 197.397 228.827 197.93 228.52C198.463 228.2 199.103 228.04 199.85 228.04H200.51V230.1H199.57C198.823 230.1 198.217 230.333 197.75 230.8C197.297 231.253 197.07 231.907 197.07 232.76V239H194.81ZM202.256 239V223.86H204.516V234L203.636 233.78L209.056 228.18H211.876L207.796 232.52L212.056 239H209.456L205.656 233.26L206.996 233.08L203.796 236.48L204.516 234.98V239H202.256ZM218.688 239.24C217.608 239.24 216.648 238.993 215.808 238.5C214.982 237.993 214.335 237.313 213.868 236.46C213.402 235.593 213.168 234.627 213.168 233.56C213.168 232.467 213.402 231.5 213.868 230.66C214.348 229.82 214.988 229.16 215.788 228.68C216.588 228.187 217.495 227.94 218.508 227.94C219.322 227.94 220.048 228.08 220.688 228.36C221.328 228.64 221.868 229.027 222.308 229.52C222.748 230 223.082 230.553 223.308 231.18C223.548 231.807 223.668 232.473 223.668 233.18C223.668 233.353 223.662 233.533 223.648 233.72C223.635 233.907 223.608 234.08 223.568 234.24H214.948V232.44H222.288L221.208 233.26C221.342 232.607 221.295 232.027 221.068 231.52C220.855 231 220.522 230.593 220.068 230.3C219.628 229.993 219.108 229.84 218.508 229.84C217.908 229.84 217.375 229.993 216.908 230.3C216.442 230.593 216.082 231.02 215.828 231.58C215.575 232.127 215.475 232.793 215.528 233.58C215.462 234.313 215.562 234.953 215.828 235.5C216.108 236.047 216.495 236.473 216.988 236.78C217.495 237.087 218.068 237.24 218.708 237.24C219.362 237.24 219.915 237.093 220.368 236.8C220.835 236.507 221.202 236.127 221.468 235.66L223.308 236.56C223.095 237.067 222.762 237.527 222.308 237.94C221.868 238.34 221.335 238.66 220.708 238.9C220.095 239.127 219.422 239.24 218.688 239.24ZM230.754 239.12C229.621 239.12 228.741 238.8 228.114 238.16C227.487 237.52 227.174 236.62 227.174 235.46V230.22H225.274V228.18H225.574C226.081 228.18 226.474 228.033 226.754 227.74C227.034 227.447 227.174 227.047 227.174 226.54V225.7H229.434V228.18H231.894V230.22H229.434V235.36C229.434 235.733 229.494 236.053 229.614 236.32C229.734 236.573 229.927 236.773 230.194 236.92C230.461 237.053 230.807 237.12 231.234 237.12C231.341 237.12 231.461 237.113 231.594 237.1C231.727 237.087 231.854 237.073 231.974 237.06V239C231.787 239.027 231.581 239.053 231.354 239.08C231.127 239.107 230.927 239.12 230.754 239.12Z" fill="white"/>
<g clip-path="url(#clip0_2257_3814)">
<path fill-rule="evenodd" clip-rule="evenodd" d="M79.1813 58.0511C79.1813 57.4289 78.6695 56.9238 78.0389 56.9238H67.4852C66.8546 56.9238 66.3428 57.4289 66.3428 58.0511V68.4651C66.3428 69.0873 66.8546 69.5924 67.4852 69.5924H78.0389C78.6695 69.5924 79.1813 69.0873 79.1813 68.4651V58.0511ZM76.8965 59.1784V67.3378H68.6276V59.1784H76.8965Z" fill="white"/>
<path fill-rule="evenodd" clip-rule="evenodd" d="M60.7116 76.2757C60.7116 75.6535 60.1998 75.1484 59.5692 75.1484H49.0155C48.3849 75.1484 47.873 75.6535 47.873 76.2757V86.6897C47.873 87.3119 48.3849 87.817 49.0155 87.817H59.5692C60.1998 87.817 60.7116 87.3119 60.7116 86.6897V76.2757ZM58.4267 77.4031V85.5624H50.1579V77.4031H58.4267Z" fill="white"/>
<path fill-rule="evenodd" clip-rule="evenodd" d="M60.7132 61.214L63.1086 58.848C63.5566 58.4082 63.5566 57.6932 63.1086 57.2534C62.6629 56.8136 61.9406 56.8136 61.4926 57.2534L60.7109 58.0248C60.6972 57.4136 60.1921 56.9219 59.5704 56.9219H49.0149C48.3841 56.9219 47.8721 57.4271 47.8721 58.0496V68.4653C47.8721 69.0878 48.3841 69.593 49.0149 69.593H59.5704C60.2012 69.593 60.7132 69.0878 60.7132 68.4653V61.214ZM58.4275 60.2802V59.1773H50.1578V67.3375H58.4275V63.4694L55.6481 66.2121C55.2001 66.6519 54.4778 66.6519 54.0321 66.2121L52.1646 64.3716C51.7189 63.9318 51.7189 63.2168 52.1646 62.777C52.6104 62.3349 53.3349 62.3349 53.7806 62.777L54.8389 63.819L58.4275 60.2802Z" fill="white"/>
<path fill-rule="evenodd" clip-rule="evenodd" d="M73.104 93.0234C75.6869 97.0539 80.2446 99.7333 85.4286 99.7333C93.4697 99.7333 100 93.2895 100 85.3548C100 79.3847 96.3063 74.2625 91.0537 72.0883V47.3776C91.0537 46.4551 90.6811 45.571 90.0137 44.9191C89.3486 44.2718 88.4503 43.9064 87.5131 43.9064H80.5006V41.1277C80.5006 40.5052 79.9886 40 79.3577 40C78.7269 40 78.2149 40.5052 78.2149 41.1277V43.9064H64.6697V41.1277C64.6697 40.5052 64.1577 40 63.5269 40C62.896 40 62.384 40.5052 62.384 41.1277V43.9064H48.8389V41.1277C48.8389 40.5052 48.3269 40 47.696 40C47.0651 40 46.5531 40.5052 46.5531 41.1277V43.9064H39.5406C38.6034 43.9064 37.7051 44.2718 37.0423 44.9191C36.3749 45.571 36 46.4551 36 47.3776V89.5545C36 90.4747 36.3749 91.3588 37.0423 92.0107C37.7051 92.6602 38.6034 93.0234 39.5406 93.0234H73.104ZM85.4286 73.2318C92.2103 73.2318 97.7143 78.6629 97.7143 85.3548C97.7143 92.0445 92.2103 97.4779 85.4286 97.4779C78.6491 97.4779 73.1429 92.0445 73.1429 85.3548C73.1429 78.6629 78.6491 73.2318 85.4286 73.2318ZM75.168 75.1489C77.8034 72.5687 81.4286 70.9763 85.4286 70.9763C86.5783 70.9763 87.696 71.1072 88.768 71.3553V53.9725H38.2857V89.5545C38.2857 89.8748 38.416 90.1815 38.6491 90.4093C38.8869 90.6394 39.2069 90.7679 39.5406 90.7679H71.9269C71.5406 89.8297 71.2503 88.8418 71.0697 87.8178H67.4857C66.8526 87.8178 66.3429 87.3126 66.3429 86.6901V76.2767C66.3429 75.6519 66.8526 75.1489 67.4857 75.1489H75.168ZM83.5817 78.8366V87.1163C83.5817 87.7411 84.0937 88.2441 84.7246 88.2441H91.4377C92.0686 88.2441 92.5806 87.7388 92.5806 87.1163C92.5806 86.4938 92.0686 85.9886 91.4377 85.9886H85.8674V78.8366C85.8674 78.2141 85.3554 77.7089 84.7246 77.7089C84.0937 77.7089 83.5817 78.2141 83.5817 78.8366ZM73.2891 77.4044H68.6286V85.5623H70.8594C70.8571 85.4924 70.8571 85.4225 70.8571 85.3548C70.8571 82.416 71.7531 79.6824 73.2891 77.4044ZM80.5006 46.1619V48.9384C80.5006 49.5609 79.9886 50.0661 79.3577 50.0661C78.7269 50.0661 78.2149 49.5609 78.2149 48.9384V46.1619H64.6697V48.9384C64.6697 49.5609 64.1577 50.0661 63.5269 50.0661C62.896 50.0661 62.384 49.5609 62.384 48.9384V46.1619H48.8389V48.9384C48.8389 49.5609 48.3269 50.0661 47.696 50.0661C47.0651 50.0661 46.5531 49.5609 46.5531 48.9384V46.1619H39.5406C39.2069 46.1619 38.8869 46.2905 38.6491 46.5228C38.416 46.7483 38.2857 47.055 38.2857 47.3776V51.7171H88.768V47.3776C88.768 47.055 88.6377 46.7483 88.4046 46.5228C88.1691 46.2905 87.8469 46.1619 87.5131 46.1619H80.5006Z" fill="white"/>
</g>
<defs>
<linearGradient id="paint0_linear_2257_3814" x1="-2.00001" y1="314" x2="321.5" y2="-9.49999" gradientUnits="userSpaceOnUse">
<stop stop-color="#11296A"/>
<stop offset="1" stop-color="#2150D0"/>
</linearGradient>
<linearGradient id="paint1_linear_2257_3814" x1="-2.00001" y1="314" x2="321.5" y2="-9.49999" gradientUnits="userSpaceOnUse">
<stop stop-color="#11296A"/>
<stop offset="1" stop-color="#2150D0"/>
</linearGradient>
<linearGradient id="paint2_linear_2257_3814" x1="367.787" y1="-128" x2="367.787" y2="216.727" gradientUnits="userSpaceOnUse">
<stop stop-color="white"/>
<stop offset="1" stop-color="white" stop-opacity="0"/>
</linearGradient>
<linearGradient id="paint3_linear_2257_3814" x1="465.787" y1="-128" x2="465.787" y2="216.727" gradientUnits="userSpaceOnUse">
<stop stop-color="white"/>
<stop offset="1" stop-color="white" stop-opacity="0"/>
</linearGradient>
<clipPath id="clip0_2257_3814">
<rect width="64" height="59.7333" fill="white" transform="translate(36 40)"/>
</clipPath>
</defs>
</svg>
