<svg width="285" height="300" viewBox="0 0 285 300" fill="none" xmlns="http://www.w3.org/2000/svg">
<rect width="285" height="300" rx="10" transform="matrix(1 0 0 -1 0 300)" fill="url(#paint0_linear_2329_8636)"/>
<mask id="mask0_2329_8636" style="mask-type:alpha" maskUnits="userSpaceOnUse" x="0" y="0" width="285" height="300">
<rect width="285" height="300" rx="10" transform="matrix(1 0 0 -1 0 300)" fill="url(#paint1_linear_2329_8636)"/>
</mask>
<g mask="url(#mask0_2329_8636)">
<rect x="338.605" y="-128" width="58.3621" height="344.727" rx="29.1811" transform="rotate(43.8011 338.605 -128)" fill="url(#paint2_linear_2329_8636)" fill-opacity="0.24"/>
<rect x="436.605" y="-128" width="58.3621" height="344.727" rx="29.1811" transform="rotate(43.8011 436.605 -128)" fill="url(#paint3_linear_2329_8636)" fill-opacity="0.24"/>
</g>
<path d="M23.22 239L28.46 224.1H31.38L36.62 239H34.1L32.96 235.66H26.9L25.74 239H23.22ZM27.58 233.56H32.24L29.6 225.76H30.26L27.58 233.56ZM42.917 239.24C41.837 239.24 40.877 238.993 40.037 238.5C39.2104 237.993 38.5504 237.313 38.057 236.46C37.577 235.607 37.337 234.64 37.337 233.56C37.337 232.493 37.577 231.533 38.057 230.68C38.537 229.827 39.197 229.16 40.037 228.68C40.877 228.187 41.837 227.94 42.917 227.94C43.6504 227.94 44.337 228.073 44.977 228.34C45.617 228.593 46.1704 228.947 46.637 229.4C47.117 229.853 47.4704 230.38 47.697 230.98L45.717 231.9C45.4904 231.34 45.1237 230.893 44.617 230.56C44.1237 230.213 43.557 230.04 42.917 230.04C42.3037 230.04 41.7504 230.193 41.257 230.5C40.777 230.793 40.397 231.213 40.117 231.76C39.837 232.293 39.697 232.9 39.697 233.58C39.697 234.26 39.837 234.873 40.117 235.42C40.397 235.953 40.777 236.373 41.257 236.68C41.7504 236.987 42.3037 237.14 42.917 237.14C43.5704 237.14 44.137 236.973 44.617 236.64C45.1104 236.293 45.477 235.833 45.717 235.26L47.697 236.2C47.4837 236.773 47.137 237.293 46.657 237.76C46.1904 238.213 45.637 238.573 44.997 238.84C44.357 239.107 43.6637 239.24 42.917 239.24ZM55.0459 239.24C53.9659 239.24 53.0059 238.993 52.1659 238.5C51.3393 237.993 50.6793 237.313 50.1859 236.46C49.7059 235.607 49.4659 234.64 49.4659 233.56C49.4659 232.493 49.7059 231.533 50.1859 230.68C50.6659 229.827 51.3259 229.16 52.1659 228.68C53.0059 228.187 53.9659 227.94 55.0459 227.94C55.7793 227.94 56.4659 228.073 57.1059 228.34C57.7459 228.593 58.2993 228.947 58.7659 229.4C59.2459 229.853 59.5993 230.38 59.8259 230.98L57.8459 231.9C57.6193 231.34 57.2526 230.893 56.7459 230.56C56.2526 230.213 55.6859 230.04 55.0459 230.04C54.4326 230.04 53.8793 230.193 53.3859 230.5C52.9059 230.793 52.5259 231.213 52.2459 231.76C51.9659 232.293 51.8259 232.9 51.8259 233.58C51.8259 234.26 51.9659 234.873 52.2459 235.42C52.5259 235.953 52.9059 236.373 53.3859 236.68C53.8793 236.987 54.4326 237.14 55.0459 237.14C55.6993 237.14 56.2659 236.973 56.7459 236.64C57.2393 236.293 57.6059 235.833 57.8459 235.26L59.8259 236.2C59.6126 236.773 59.2659 237.293 58.7859 237.76C58.3193 238.213 57.7659 238.573 57.1259 238.84C56.4859 239.107 55.7926 239.24 55.0459 239.24ZM67.1148 239.24C66.0348 239.24 65.0748 238.993 64.2348 238.5C63.4082 237.993 62.7615 237.313 62.2948 236.46C61.8282 235.593 61.5948 234.627 61.5948 233.56C61.5948 232.467 61.8282 231.5 62.2948 230.66C62.7748 229.82 63.4148 229.16 64.2148 228.68C65.0148 228.187 65.9215 227.94 66.9348 227.94C67.7482 227.94 68.4748 228.08 69.1148 228.36C69.7548 228.64 70.2948 229.027 70.7348 229.52C71.1748 230 71.5082 230.553 71.7348 231.18C71.9748 231.807 72.0948 232.473 72.0948 233.18C72.0948 233.353 72.0882 233.533 72.0748 233.72C72.0615 233.907 72.0348 234.08 71.9948 234.24H63.3748V232.44H70.7148L69.6348 233.26C69.7682 232.607 69.7215 232.027 69.4948 231.52C69.2815 231 68.9482 230.593 68.4948 230.3C68.0548 229.993 67.5348 229.84 66.9348 229.84C66.3348 229.84 65.8015 229.993 65.3348 230.3C64.8682 230.593 64.5082 231.02 64.2548 231.58C64.0015 232.127 63.9015 232.793 63.9548 233.58C63.8882 234.313 63.9882 234.953 64.2548 235.5C64.5348 236.047 64.9215 236.473 65.4148 236.78C65.9215 237.087 66.4948 237.24 67.1348 237.24C67.7882 237.24 68.3415 237.093 68.7948 236.8C69.2615 236.507 69.6282 236.127 69.8948 235.66L71.7348 236.56C71.5215 237.067 71.1882 237.527 70.7348 237.94C70.2948 238.34 69.7615 238.66 69.1348 238.9C68.5215 239.127 67.8482 239.24 67.1148 239.24ZM74.3005 239V223.86H76.5605V239H74.3005ZM84.2828 239.24C83.2028 239.24 82.2428 238.993 81.4028 238.5C80.5761 237.993 79.9295 237.313 79.4628 236.46C78.9961 235.593 78.7628 234.627 78.7628 233.56C78.7628 232.467 78.9961 231.5 79.4628 230.66C79.9428 229.82 80.5828 229.16 81.3828 228.68C82.1828 228.187 83.0895 227.94 84.1028 227.94C84.9161 227.94 85.6428 228.08 86.2828 228.36C86.9228 228.64 87.4628 229.027 87.9028 229.52C88.3428 230 88.6761 230.553 88.9028 231.18C89.1428 231.807 89.2628 232.473 89.2628 233.18C89.2628 233.353 89.2561 233.533 89.2428 233.72C89.2295 233.907 89.2028 234.08 89.1628 234.24H80.5428V232.44H87.8828L86.8028 233.26C86.9361 232.607 86.8895 232.027 86.6628 231.52C86.4495 231 86.1161 230.593 85.6628 230.3C85.2228 229.993 84.7028 229.84 84.1028 229.84C83.5028 229.84 82.9695 229.993 82.5028 230.3C82.0361 230.593 81.6761 231.02 81.4228 231.58C81.1695 232.127 81.0695 232.793 81.1228 233.58C81.0561 234.313 81.1561 234.953 81.4228 235.5C81.7028 236.047 82.0895 236.473 82.5828 236.78C83.0895 237.087 83.6628 237.24 84.3028 237.24C84.9561 237.24 85.5095 237.093 85.9628 236.8C86.4295 236.507 86.7961 236.127 87.0628 235.66L88.9028 236.56C88.6895 237.067 88.3561 237.527 87.9028 237.94C87.4628 238.34 86.9295 238.66 86.3028 238.9C85.6895 239.127 85.0161 239.24 84.2828 239.24ZM91.4684 239V228.18H93.6284V230.36L93.4284 230.04C93.6684 229.333 94.0551 228.827 94.5884 228.52C95.1218 228.2 95.7618 228.04 96.5084 228.04H97.1684V230.1H96.2284C95.4818 230.1 94.8751 230.333 94.4084 230.8C93.9551 231.253 93.7284 231.907 93.7284 232.76V239H91.4684ZM101.955 239.24C101.221 239.24 100.575 239.113 100.015 238.86C99.4679 238.593 99.0412 238.233 98.7345 237.78C98.4279 237.313 98.2745 236.767 98.2745 236.14C98.2745 235.553 98.4012 235.027 98.6545 234.56C98.9212 234.093 99.3279 233.7 99.8745 233.38C100.421 233.06 101.108 232.833 101.935 232.7L105.695 232.08V233.86L102.375 234.44C101.775 234.547 101.335 234.74 101.055 235.02C100.775 235.287 100.635 235.633 100.635 236.06C100.635 236.473 100.788 236.813 101.095 237.08C101.415 237.333 101.821 237.46 102.315 237.46C102.928 237.46 103.461 237.327 103.915 237.06C104.381 236.793 104.741 236.44 104.995 236C105.248 235.547 105.375 235.047 105.375 234.5V231.72C105.375 231.187 105.175 230.753 104.775 230.42C104.388 230.073 103.868 229.9 103.215 229.9C102.615 229.9 102.088 230.06 101.635 230.38C101.195 230.687 100.868 231.087 100.655 231.58L98.7745 230.64C98.9745 230.107 99.3012 229.64 99.7545 229.24C100.208 228.827 100.735 228.507 101.335 228.28C101.948 228.053 102.595 227.94 103.275 227.94C104.128 227.94 104.881 228.1 105.535 228.42C106.201 228.74 106.715 229.187 107.075 229.76C107.448 230.32 107.635 230.973 107.635 231.72V239H105.475V237.04L105.935 237.1C105.681 237.54 105.355 237.92 104.955 238.24C104.568 238.56 104.121 238.807 103.615 238.98C103.121 239.153 102.568 239.24 101.955 239.24ZM114.762 239.12C113.628 239.12 112.748 238.8 112.122 238.16C111.495 237.52 111.182 236.62 111.182 235.46V230.22H109.282V228.18H109.582C110.088 228.18 110.482 228.033 110.762 227.74C111.042 227.447 111.182 227.047 111.182 226.54V225.7H113.442V228.18H115.902V230.22H113.442V235.36C113.442 235.733 113.502 236.053 113.622 236.32C113.742 236.573 113.935 236.773 114.202 236.92C114.468 237.053 114.815 237.12 115.242 237.12C115.348 237.12 115.468 237.113 115.602 237.1C115.735 237.087 115.862 237.073 115.982 237.06V239C115.795 239.027 115.588 239.053 115.362 239.08C115.135 239.107 114.935 239.12 114.762 239.12ZM123.072 239.24C121.992 239.24 121.032 238.993 120.192 238.5C119.365 237.993 118.719 237.313 118.252 236.46C117.785 235.593 117.552 234.627 117.552 233.56C117.552 232.467 117.785 231.5 118.252 230.66C118.732 229.82 119.372 229.16 120.172 228.68C120.972 228.187 121.879 227.94 122.892 227.94C123.705 227.94 124.432 228.08 125.072 228.36C125.712 228.64 126.252 229.027 126.692 229.52C127.132 230 127.465 230.553 127.692 231.18C127.932 231.807 128.052 232.473 128.052 233.18C128.052 233.353 128.045 233.533 128.032 233.72C128.019 233.907 127.992 234.08 127.952 234.24H119.332V232.44H126.672L125.592 233.26C125.725 232.607 125.679 232.027 125.452 231.52C125.239 231 124.905 230.593 124.452 230.3C124.012 229.993 123.492 229.84 122.892 229.84C122.292 229.84 121.759 229.993 121.292 230.3C120.825 230.593 120.465 231.02 120.212 231.58C119.959 232.127 119.859 232.793 119.912 233.58C119.845 234.313 119.945 234.953 120.212 235.5C120.492 236.047 120.879 236.473 121.372 236.78C121.879 237.087 122.452 237.24 123.092 237.24C123.745 237.24 124.299 237.093 124.752 236.8C125.219 236.507 125.585 236.127 125.852 235.66L127.692 236.56C127.479 237.067 127.145 237.527 126.692 237.94C126.252 238.34 125.719 238.66 125.092 238.9C124.479 239.127 123.805 239.24 123.072 239.24ZM135.258 239.24C134.218 239.24 133.284 238.993 132.458 238.5C131.644 237.993 130.998 237.313 130.518 236.46C130.051 235.607 129.818 234.647 129.818 233.58C129.818 232.513 130.058 231.553 130.538 230.7C131.018 229.847 131.664 229.173 132.478 228.68C133.291 228.187 134.211 227.94 135.238 227.94C136.104 227.94 136.871 228.113 137.538 228.46C138.204 228.807 138.731 229.287 139.118 229.9L138.778 230.42V223.86H141.018V239H138.878V236.8L139.138 237.22C138.764 237.873 138.231 238.373 137.538 238.72C136.844 239.067 136.084 239.24 135.258 239.24ZM135.478 237.14C136.104 237.14 136.664 236.987 137.158 236.68C137.664 236.373 138.058 235.953 138.338 235.42C138.631 234.873 138.778 234.26 138.778 233.58C138.778 232.9 138.631 232.293 138.338 231.76C138.058 231.227 137.664 230.807 137.158 230.5C136.664 230.193 136.104 230.04 135.478 230.04C134.851 230.04 134.284 230.193 133.778 230.5C133.271 230.807 132.878 231.227 132.598 231.76C132.318 232.293 132.178 232.9 132.178 233.58C132.178 234.26 132.318 234.873 132.598 235.42C132.878 235.953 133.264 236.373 133.758 236.68C134.264 236.987 134.838 237.14 135.478 237.14ZM147.372 239V224.1H149.732V239H147.372ZM152.601 239V228.18H154.761V230.3L154.501 230.02C154.768 229.34 155.195 228.827 155.781 228.48C156.368 228.12 157.048 227.94 157.821 227.94C158.621 227.94 159.328 228.113 159.941 228.46C160.555 228.807 161.035 229.287 161.381 229.9C161.728 230.513 161.901 231.22 161.901 232.02V239H159.661V232.62C159.661 232.073 159.561 231.613 159.361 231.24C159.161 230.853 158.875 230.56 158.501 230.36C158.141 230.147 157.728 230.04 157.261 230.04C156.795 230.04 156.375 230.147 156.001 230.36C155.641 230.56 155.361 230.853 155.161 231.24C154.961 231.627 154.861 232.087 154.861 232.62V239H152.601ZM164.32 239V228.18H166.48V230.3L166.22 230.02C166.487 229.34 166.913 228.827 167.5 228.48C168.087 228.12 168.767 227.94 169.54 227.94C170.34 227.94 171.047 228.113 171.66 228.46C172.273 228.807 172.753 229.287 173.1 229.9C173.447 230.513 173.62 231.22 173.62 232.02V239H171.38V232.62C171.38 232.073 171.28 231.613 171.08 231.24C170.88 230.853 170.593 230.56 170.22 230.36C169.86 230.147 169.447 230.04 168.98 230.04C168.513 230.04 168.093 230.147 167.72 230.36C167.36 230.56 167.08 230.853 166.88 231.24C166.68 231.627 166.58 232.087 166.58 232.62V239H164.32ZM181.259 239.24C180.219 239.24 179.265 238.993 178.399 238.5C177.545 238.007 176.865 237.333 176.359 236.48C175.852 235.627 175.599 234.66 175.599 233.58C175.599 232.487 175.852 231.52 176.359 230.68C176.865 229.827 177.545 229.16 178.399 228.68C179.252 228.187 180.205 227.94 181.259 227.94C182.325 227.94 183.279 228.187 184.119 228.68C184.972 229.16 185.645 229.827 186.139 230.68C186.645 231.52 186.899 232.487 186.899 233.58C186.899 234.673 186.645 235.647 186.139 236.5C185.632 237.353 184.952 238.027 184.099 238.52C183.245 239 182.299 239.24 181.259 239.24ZM181.259 237.14C181.899 237.14 182.465 236.987 182.959 236.68C183.452 236.373 183.839 235.953 184.119 235.42C184.412 234.873 184.559 234.26 184.559 233.58C184.559 232.9 184.412 232.293 184.119 231.76C183.839 231.227 183.452 230.807 182.959 230.5C182.465 230.193 181.899 230.04 181.259 230.04C180.632 230.04 180.065 230.193 179.559 230.5C179.065 230.807 178.672 231.227 178.379 231.76C178.099 232.293 177.959 232.9 177.959 233.58C177.959 234.26 178.099 234.873 178.379 235.42C178.672 235.953 179.065 236.373 179.559 236.68C180.065 236.987 180.632 237.14 181.259 237.14ZM192.05 239L187.81 228.18H190.27L193.53 237H192.63L195.89 228.18H198.37L194.11 239H192.05ZM202.755 239.24C202.022 239.24 201.375 239.113 200.815 238.86C200.269 238.593 199.842 238.233 199.535 237.78C199.229 237.313 199.075 236.767 199.075 236.14C199.075 235.553 199.202 235.027 199.455 234.56C199.722 234.093 200.129 233.7 200.675 233.38C201.222 233.06 201.909 232.833 202.735 232.7L206.495 232.08V233.86L203.175 234.44C202.575 234.547 202.135 234.74 201.855 235.02C201.575 235.287 201.435 235.633 201.435 236.06C201.435 236.473 201.589 236.813 201.895 237.08C202.215 237.333 202.622 237.46 203.115 237.46C203.729 237.46 204.262 237.327 204.715 237.06C205.182 236.793 205.542 236.44 205.795 236C206.049 235.547 206.175 235.047 206.175 234.5V231.72C206.175 231.187 205.975 230.753 205.575 230.42C205.189 230.073 204.669 229.9 204.015 229.9C203.415 229.9 202.889 230.06 202.435 230.38C201.995 230.687 201.669 231.087 201.455 231.58L199.575 230.64C199.775 230.107 200.102 229.64 200.555 229.24C201.009 228.827 201.535 228.507 202.135 228.28C202.749 228.053 203.395 227.94 204.075 227.94C204.929 227.94 205.682 228.1 206.335 228.42C207.002 228.74 207.515 229.187 207.875 229.76C208.249 230.32 208.435 230.973 208.435 231.72V239H206.275V237.04L206.735 237.1C206.482 237.54 206.155 237.92 205.755 238.24C205.369 238.56 204.922 238.807 204.415 238.98C203.922 239.153 203.369 239.24 202.755 239.24ZM215.563 239.12C214.429 239.12 213.549 238.8 212.923 238.16C212.296 237.52 211.983 236.62 211.983 235.46V230.22H210.083V228.18H210.383C210.889 228.18 211.283 228.033 211.563 227.74C211.843 227.447 211.983 227.047 211.983 226.54V225.7H214.243V228.18H216.703V230.22H214.243V235.36C214.243 235.733 214.303 236.053 214.423 236.32C214.543 236.573 214.736 236.773 215.003 236.92C215.269 237.053 215.616 237.12 216.043 237.12C216.149 237.12 216.269 237.113 216.403 237.1C216.536 237.087 216.663 237.073 216.783 237.06V239C216.596 239.027 216.389 239.053 216.163 239.08C215.936 239.107 215.736 239.12 215.563 239.12ZM218.988 239V228.18H221.248V239H218.988ZM218.988 226.7V224.1H221.248V226.7H218.988ZM229.11 239.24C228.07 239.24 227.117 238.993 226.25 238.5C225.397 238.007 224.717 237.333 224.21 236.48C223.704 235.627 223.45 234.66 223.45 233.58C223.45 232.487 223.704 231.52 224.21 230.68C224.717 229.827 225.397 229.16 226.25 228.68C227.104 228.187 228.057 227.94 229.11 227.94C230.177 227.94 231.13 228.187 231.97 228.68C232.824 229.16 233.497 229.827 233.99 230.68C234.497 231.52 234.75 232.487 234.75 233.58C234.75 234.673 234.497 235.647 233.99 236.5C233.484 237.353 232.804 238.027 231.95 238.52C231.097 239 230.15 239.24 229.11 239.24ZM229.11 237.14C229.75 237.14 230.317 236.987 230.81 236.68C231.304 236.373 231.69 235.953 231.97 235.42C232.264 234.873 232.41 234.26 232.41 233.58C232.41 232.9 232.264 232.293 231.97 231.76C231.69 231.227 231.304 230.807 230.81 230.5C230.317 230.193 229.75 230.04 229.11 230.04C228.484 230.04 227.917 230.193 227.41 230.5C226.917 230.807 226.524 231.227 226.23 231.76C225.95 232.293 225.81 232.9 225.81 233.58C225.81 234.26 225.95 234.873 226.23 235.42C226.524 235.953 226.917 236.373 227.41 236.68C227.917 236.987 228.484 237.14 229.11 237.14ZM236.957 239V228.18H239.117V230.3L238.857 230.02C239.123 229.34 239.55 228.827 240.137 228.48C240.723 228.12 241.403 227.94 242.177 227.94C242.977 227.94 243.683 228.113 244.297 228.46C244.91 228.807 245.39 229.287 245.737 229.9C246.083 230.513 246.257 231.22 246.257 232.02V239H244.017V232.62C244.017 232.073 243.917 231.613 243.717 231.24C243.517 230.853 243.23 230.56 242.857 230.36C242.497 230.147 242.083 230.04 241.617 230.04C241.15 230.04 240.73 230.147 240.357 230.36C239.997 230.56 239.717 230.853 239.517 231.24C239.317 231.627 239.217 232.087 239.217 232.62V239H236.957Z" fill="white"/>
<g clip-path="url(#clip0_2329_8636)">
<path d="M25.3258 98.9096H59.7901C61.3418 98.9096 62.6016 97.6462 62.6016 96.0989V93.849C63.1995 93.92 63.7974 93.9555 64.3953 93.9555C65.6338 93.9555 66.851 93.8064 68.0325 93.5296L73.741 103.651C74.346 104.722 75.3354 105.496 76.524 105.83C76.9369 105.943 77.3568 106 77.7768 106C78.5597 106 79.3356 105.801 80.0402 105.404L80.3178 105.248C82.5386 103.998 83.3358 101.181 82.083 98.9663L76.2678 88.6607C77.8622 86.8934 79.0936 84.7571 79.7769 82.3226C82.1471 73.8694 77.186 65.0614 68.7016 62.6979C66.6588 62.1301 64.5875 61.9882 62.6016 62.2153V42.8106C62.6016 41.2634 61.3418 40 59.7901 40H39.4902C39.419 40 39.3549 40.0071 39.2909 40.0213C39.1983 40.0426 39.1129 40.071 39.0346 40.1136C39.0133 40.1207 38.9919 40.1349 38.9706 40.149C38.8923 40.1987 38.814 40.2484 38.7428 40.3194L22.8203 56.1824C22.7562 56.2463 22.6993 56.3243 22.6495 56.4095C22.6352 56.4308 22.6281 56.4521 22.6139 56.4663C22.5712 56.5515 22.5427 56.6366 22.5214 56.7218C22.5071 56.7928 22.5 56.8567 22.5 56.9276V96.0918C22.5 97.6391 23.767 98.9025 25.3186 98.9025L25.3258 98.9096ZM60.4663 42.8106V62.6128C55.1137 63.9826 50.6153 68.0708 49.0209 73.7417C46.6507 82.1949 51.6118 91.0029 60.0962 93.3664C60.2172 93.4019 60.3453 93.4232 60.4663 93.4587V96.0989C60.4663 96.4751 60.1602 96.7803 59.7901 96.7803H25.3258C24.9485 96.7803 24.6425 96.4751 24.6425 96.0989V57.9994H38.1164C39.4617 57.9994 40.5578 56.9063 40.5578 55.5649V42.1293H59.7901C60.1602 42.1293 60.4663 42.4345 60.4663 42.8106ZM68.1322 64.7491C75.4777 66.8003 79.784 74.4302 77.727 81.7548C75.6699 89.0795 68.0183 93.3664 60.6727 91.3223C53.3272 89.2711 49.0209 81.6413 51.0779 74.3166C52.7862 68.234 58.3594 64.2381 64.4024 64.2381C65.6338 64.2381 66.8866 64.4013 68.1251 64.7491H68.1322ZM79.001 103.558C78.4245 103.885 77.7483 103.963 77.1077 103.786C76.4671 103.608 75.9333 103.189 75.6059 102.614L70.118 92.8908C71.7765 92.2521 73.321 91.3507 74.6805 90.208L80.2182 100.031C80.8944 101.223 80.4673 102.742 79.2715 103.416L78.9939 103.573L79.001 103.558ZM38.4225 55.5649C38.4225 55.7281 38.2801 55.8701 38.1164 55.8701H26.1514L38.4225 43.6339V55.5649Z" fill="white"/>
<path d="M36.2303 83.8281H29.9026C29.3119 83.8281 28.835 84.3037 28.835 84.8928V91.2025C28.835 91.7916 29.3119 92.2671 29.9026 92.2671H36.2303C36.8211 92.2671 37.298 91.7916 37.298 91.2025V84.8928C37.298 84.3037 36.8211 83.8281 36.2303 83.8281ZM35.1627 90.1378H30.9703V85.9574H35.1627V90.1378Z" fill="white"/>
<path d="M41.4902 91.1935C41.4902 91.7826 41.9671 92.2582 42.5579 92.2582H50.1668C50.7576 92.2582 51.2345 91.7826 51.2345 91.1935C51.2345 90.6044 50.7576 90.1289 50.1668 90.1289H42.5579C41.9671 90.1289 41.4902 90.6044 41.4902 91.1935Z" fill="white"/>
<path d="M36.2303 72.2734H29.9026C29.3119 72.2734 28.835 72.749 28.835 73.3381V79.6478C28.835 80.2369 29.3119 80.7124 29.9026 80.7124H36.2303C36.8211 80.7124 37.298 80.2369 37.298 79.6478V73.3381C37.298 72.749 36.8211 72.2734 36.2303 72.2734ZM35.1627 78.5831H30.9703V74.4027H35.1627V78.5831Z" fill="white"/>
<path d="M42.5579 80.7113H45.5901C46.1809 80.7113 46.6578 80.2358 46.6578 79.6467C46.6578 79.0576 46.1809 78.582 45.5901 78.582H42.5579C41.9671 78.582 41.4902 79.0576 41.4902 79.6467C41.4902 80.2358 41.9671 80.7113 42.5579 80.7113Z" fill="white"/>
<path d="M36.2303 60.7266H29.9026C29.3119 60.7266 28.835 61.2021 28.835 61.7912V68.1009C28.835 68.69 29.3119 69.1655 29.9026 69.1655H36.2303C36.8211 69.1655 37.298 68.69 37.298 68.1009V61.7912C37.298 61.2021 36.8211 60.7266 36.2303 60.7266ZM35.1627 67.0363H30.9703V62.8558H35.1627V67.0363Z" fill="white"/>
<path d="M42.5579 69.1644H47.6542C48.245 69.1644 48.7219 68.6889 48.7219 68.0998C48.7219 67.5107 48.245 67.0352 47.6542 67.0352H42.5579C41.9671 67.0352 41.4902 67.5107 41.4902 68.0998C41.4902 68.6889 41.9671 69.1644 42.5579 69.1644Z" fill="white"/>
<path d="M44.928 57.6175H55.2061C55.7969 57.6175 56.2738 57.142 56.2738 56.5529C56.2738 55.9638 55.7969 55.4883 55.2061 55.4883H44.928C44.3372 55.4883 43.8604 55.9638 43.8604 56.5529C43.8604 57.142 44.3372 57.6175 44.928 57.6175Z" fill="white"/>
<path d="M59.3769 69.1294C54.4514 71.8904 52.6933 78.1362 55.4692 83.0548C56.8145 85.4325 59.0068 87.1501 61.6403 87.8882C62.5585 88.1437 63.491 88.2715 64.4234 88.2715C66.1601 88.2715 67.8755 87.8243 69.4343 86.9513C74.3598 84.1904 76.1179 77.9446 73.342 73.026C71.9967 70.6483 69.8044 68.9307 67.1709 68.1925C64.5302 67.4544 61.7685 67.788 59.3769 69.1294ZM71.4771 74.0693C73.6694 77.9587 72.2814 82.9057 68.3809 85.0918C64.4803 87.2778 59.5192 85.8938 57.327 82.0043C55.1347 78.1149 56.5226 73.1679 60.4232 70.9819C61.6759 70.2792 63.0425 69.9456 64.3878 69.9456C67.2278 69.9456 69.9895 71.429 71.4771 74.0693Z" fill="white"/>
</g>
<defs>
<linearGradient id="paint0_linear_2329_8636" x1="-2.00001" y1="314" x2="321.5" y2="-9.49999" gradientUnits="userSpaceOnUse">
<stop stop-color="#11296A"/>
<stop offset="1" stop-color="#2150D0"/>
</linearGradient>
<linearGradient id="paint1_linear_2329_8636" x1="-2.00001" y1="314" x2="321.5" y2="-9.49999" gradientUnits="userSpaceOnUse">
<stop stop-color="#11296A"/>
<stop offset="1" stop-color="#2150D0"/>
</linearGradient>
<linearGradient id="paint2_linear_2329_8636" x1="367.787" y1="-128" x2="367.787" y2="216.727" gradientUnits="userSpaceOnUse">
<stop stop-color="white"/>
<stop offset="1" stop-color="white" stop-opacity="0"/>
</linearGradient>
<linearGradient id="paint3_linear_2329_8636" x1="465.787" y1="-128" x2="465.787" y2="216.727" gradientUnits="userSpaceOnUse">
<stop stop-color="white"/>
<stop offset="1" stop-color="white" stop-opacity="0"/>
</linearGradient>
<clipPath id="clip0_2329_8636">
<rect width="60.1765" height="66" fill="white" transform="translate(22.5 40)"/>
</clipPath>
</defs>
</svg>
