<svg width="285" height="300" viewBox="0 0 285 300" fill="none" xmlns="http://www.w3.org/2000/svg">
<rect width="285" height="300" rx="10" transform="matrix(1 0 0 -1 0 300)" fill="url(#paint0_linear_2329_8655)"/>
<mask id="mask0_2329_8655" style="mask-type:alpha" maskUnits="userSpaceOnUse" x="0" y="0" width="285" height="300">
<rect width="285" height="300" rx="10" transform="matrix(1 0 0 -1 0 300)" fill="url(#paint1_linear_2329_8655)"/>
</mask>
<g mask="url(#mask0_2329_8655)">
<rect x="338.605" y="-128" width="58.3621" height="344.727" rx="29.1811" transform="rotate(43.8011 338.605 -128)" fill="url(#paint2_linear_2329_8655)" fill-opacity="0.24"/>
<rect x="436.605" y="-128" width="58.3621" height="344.727" rx="29.1811" transform="rotate(43.8011 436.605 -128)" fill="url(#paint3_linear_2329_8655)" fill-opacity="0.24"/>
</g>
<path d="M24.54 239V224.1H26.9V239H24.54ZM29.7692 239V228.18H31.9292V230.52L31.6492 230.16C31.8759 229.427 32.2892 228.873 32.8892 228.5C33.4892 228.127 34.1759 227.94 34.9492 227.94C35.8159 227.94 36.5826 228.173 37.2492 228.64C37.9292 229.093 38.3826 229.7 38.6092 230.46L37.9692 230.52C38.2892 229.653 38.7759 229.007 39.4292 228.58C40.0959 228.153 40.8559 227.94 41.7092 227.94C42.4559 227.94 43.1292 228.113 43.7292 228.46C44.3426 228.807 44.8292 229.287 45.1892 229.9C45.5492 230.513 45.7292 231.213 45.7292 232V239H43.4692V232.62C43.4692 232.073 43.3692 231.613 43.1692 231.24C42.9826 230.853 42.7159 230.56 42.3692 230.36C42.0359 230.147 41.6426 230.04 41.1892 230.04C40.7359 230.04 40.3359 230.147 39.9892 230.36C39.6426 230.56 39.3692 230.853 39.1692 231.24C38.9692 231.627 38.8692 232.087 38.8692 232.62V239H36.6292V232.62C36.6292 232.073 36.5292 231.613 36.3292 231.24C36.1426 230.853 35.8759 230.56 35.5292 230.36C35.1959 230.147 34.7959 230.04 34.3292 230.04C33.8759 230.04 33.4759 230.147 33.1292 230.36C32.7826 230.56 32.5092 230.853 32.3092 231.24C32.1226 231.627 32.0292 232.087 32.0292 232.62V239H29.7692ZM48.1481 243V228.18H50.3081V230.42L50.0481 229.9C50.4481 229.287 50.9815 228.807 51.6481 228.46C52.3148 228.113 53.0748 227.94 53.9281 227.94C54.9548 227.94 55.8748 228.187 56.6881 228.68C57.5148 229.173 58.1615 229.847 58.6281 230.7C59.1081 231.553 59.3481 232.513 59.3481 233.58C59.3481 234.647 59.1081 235.607 58.6281 236.46C58.1615 237.313 57.5215 237.993 56.7081 238.5C55.8948 238.993 54.9681 239.24 53.9281 239.24C53.0881 239.24 52.3215 239.067 51.6281 238.72C50.9481 238.373 50.4215 237.873 50.0481 237.22L50.4081 236.8V243H48.1481ZM53.7081 237.14C54.3481 237.14 54.9148 236.987 55.4081 236.68C55.9015 236.373 56.2881 235.953 56.5681 235.42C56.8615 234.873 57.0081 234.26 57.0081 233.58C57.0081 232.9 56.8615 232.293 56.5681 231.76C56.2881 231.227 55.9015 230.807 55.4081 230.5C54.9148 230.193 54.3481 230.04 53.7081 230.04C53.0815 230.04 52.5148 230.193 52.0081 230.5C51.5148 230.807 51.1215 231.227 50.8281 231.76C50.5481 232.293 50.4081 232.9 50.4081 233.58C50.4081 234.26 50.5481 234.873 50.8281 235.42C51.1215 235.953 51.5148 236.373 52.0081 236.68C52.5148 236.987 53.0815 237.14 53.7081 237.14ZM61.5466 239V228.18H63.7066V230.36L63.5066 230.04C63.7466 229.333 64.1332 228.827 64.6666 228.52C65.1999 228.2 65.8399 228.04 66.5866 228.04H67.2466V230.1H66.3066C65.5599 230.1 64.9532 230.333 64.4866 230.8C64.0332 231.253 63.8066 231.907 63.8066 232.76V239H61.5466ZM74.0127 239.24C72.9727 239.24 72.0193 238.993 71.1527 238.5C70.2993 238.007 69.6193 237.333 69.1127 236.48C68.606 235.627 68.3527 234.66 68.3527 233.58C68.3527 232.487 68.606 231.52 69.1127 230.68C69.6193 229.827 70.2993 229.16 71.1527 228.68C72.006 228.187 72.9593 227.94 74.0127 227.94C75.0793 227.94 76.0327 228.187 76.8727 228.68C77.726 229.16 78.3993 229.827 78.8927 230.68C79.3993 231.52 79.6527 232.487 79.6527 233.58C79.6527 234.673 79.3993 235.647 78.8927 236.5C78.386 237.353 77.706 238.027 76.8527 238.52C75.9993 239 75.0527 239.24 74.0127 239.24ZM74.0127 237.14C74.6527 237.14 75.2193 236.987 75.7127 236.68C76.206 236.373 76.5927 235.953 76.8727 235.42C77.166 234.873 77.3127 234.26 77.3127 233.58C77.3127 232.9 77.166 232.293 76.8727 231.76C76.5927 231.227 76.206 230.807 75.7127 230.5C75.2193 230.193 74.6527 230.04 74.0127 230.04C73.386 230.04 72.8193 230.193 72.3127 230.5C71.8193 230.807 71.426 231.227 71.1327 231.76C70.8527 232.293 70.7127 232.9 70.7127 233.58C70.7127 234.26 70.8527 234.873 71.1327 235.42C71.426 235.953 71.8193 236.373 72.3127 236.68C72.8193 236.987 73.386 237.14 74.0127 237.14ZM84.8038 239L80.5638 228.18H83.0238L86.2838 237H85.3838L88.6438 228.18H91.1238L86.8638 239H84.8038ZM97.5445 239.24C96.4645 239.24 95.5045 238.993 94.6645 238.5C93.8379 237.993 93.1912 237.313 92.7245 236.46C92.2579 235.593 92.0245 234.627 92.0245 233.56C92.0245 232.467 92.2579 231.5 92.7245 230.66C93.2045 229.82 93.8445 229.16 94.6445 228.68C95.4445 228.187 96.3512 227.94 97.3645 227.94C98.1779 227.94 98.9045 228.08 99.5445 228.36C100.185 228.64 100.725 229.027 101.165 229.52C101.605 230 101.938 230.553 102.165 231.18C102.405 231.807 102.525 232.473 102.525 233.18C102.525 233.353 102.518 233.533 102.505 233.72C102.491 233.907 102.465 234.08 102.425 234.24H93.8045V232.44H101.145L100.065 233.26C100.198 232.607 100.151 232.027 99.9245 231.52C99.7112 231 99.3779 230.593 98.9245 230.3C98.4845 229.993 97.9645 229.84 97.3645 229.84C96.7645 229.84 96.2312 229.993 95.7645 230.3C95.2979 230.593 94.9379 231.02 94.6845 231.58C94.4312 232.127 94.3312 232.793 94.3845 233.58C94.3179 234.313 94.4179 234.953 94.6845 235.5C94.9645 236.047 95.3512 236.473 95.8445 236.78C96.3512 237.087 96.9245 237.24 97.5645 237.24C98.2179 237.24 98.7712 237.093 99.2245 236.8C99.6912 236.507 100.058 236.127 100.325 235.66L102.165 236.56C101.951 237.067 101.618 237.527 101.165 237.94C100.725 238.34 100.191 238.66 99.5645 238.9C98.9512 239.127 98.2779 239.24 97.5445 239.24ZM109.73 239.24C108.69 239.24 107.757 238.993 106.93 238.5C106.117 237.993 105.47 237.313 104.99 236.46C104.523 235.607 104.29 234.647 104.29 233.58C104.29 232.513 104.53 231.553 105.01 230.7C105.49 229.847 106.137 229.173 106.95 228.68C107.763 228.187 108.683 227.94 109.71 227.94C110.577 227.94 111.343 228.113 112.01 228.46C112.677 228.807 113.203 229.287 113.59 229.9L113.25 230.42V223.86H115.49V239H113.35V236.8L113.61 237.22C113.237 237.873 112.703 238.373 112.01 238.72C111.317 239.067 110.557 239.24 109.73 239.24ZM109.95 237.14C110.577 237.14 111.137 236.987 111.63 236.68C112.137 236.373 112.53 235.953 112.81 235.42C113.103 234.873 113.25 234.26 113.25 233.58C113.25 232.9 113.103 232.293 112.81 231.76C112.53 231.227 112.137 230.807 111.63 230.5C111.137 230.193 110.577 230.04 109.95 230.04C109.323 230.04 108.757 230.193 108.25 230.5C107.743 230.807 107.35 231.227 107.07 231.76C106.79 232.293 106.65 232.9 106.65 233.58C106.65 234.26 106.79 234.873 107.07 235.42C107.35 235.953 107.737 236.373 108.23 236.68C108.737 236.987 109.31 237.14 109.95 237.14ZM129.085 239.24C128.005 239.24 126.998 239.047 126.065 238.66C125.145 238.273 124.331 237.733 123.625 237.04C122.931 236.347 122.385 235.533 121.985 234.6C121.598 233.667 121.405 232.647 121.405 231.54C121.405 230.433 121.598 229.413 121.985 228.48C122.385 227.533 122.931 226.72 123.625 226.04C124.318 225.347 125.131 224.813 126.065 224.44C126.998 224.053 128.005 223.86 129.085 223.86C130.178 223.86 131.185 224.053 132.105 224.44C133.038 224.813 133.851 225.347 134.545 226.04C135.251 226.733 135.798 227.547 136.185 228.48C136.571 229.413 136.765 230.433 136.765 231.54C136.765 232.647 136.565 233.667 136.165 234.6C135.778 235.533 135.238 236.347 134.545 237.04C133.851 237.733 133.038 238.273 132.105 238.66C131.171 239.047 130.165 239.24 129.085 239.24ZM129.085 237.08C129.858 237.08 130.565 236.94 131.205 236.66C131.858 236.38 132.425 235.993 132.905 235.5C133.385 234.993 133.758 234.407 134.025 233.74C134.291 233.06 134.425 232.327 134.425 231.54C134.425 230.753 134.291 230.027 134.025 229.36C133.758 228.693 133.385 228.107 132.905 227.6C132.425 227.093 131.858 226.7 131.205 226.42C130.565 226.14 129.858 226 129.085 226C128.311 226 127.598 226.14 126.945 226.42C126.305 226.7 125.745 227.093 125.265 227.6C124.785 228.107 124.411 228.693 124.145 229.36C123.891 230.027 123.765 230.753 123.765 231.54C123.765 232.327 123.891 233.06 124.145 233.74C124.411 234.407 124.785 234.993 125.265 235.5C125.745 235.993 126.311 236.38 126.965 236.66C127.618 236.94 128.325 237.08 129.085 237.08ZM139.183 243V228.18H141.343V230.42L141.083 229.9C141.483 229.287 142.017 228.807 142.683 228.46C143.35 228.113 144.11 227.94 144.963 227.94C145.99 227.94 146.91 228.187 147.723 228.68C148.55 229.173 149.197 229.847 149.663 230.7C150.143 231.553 150.383 232.513 150.383 233.58C150.383 234.647 150.143 235.607 149.663 236.46C149.197 237.313 148.557 237.993 147.743 238.5C146.93 238.993 146.003 239.24 144.963 239.24C144.123 239.24 143.357 239.067 142.663 238.72C141.983 238.373 141.457 237.873 141.083 237.22L141.443 236.8V243H139.183ZM144.743 237.14C145.383 237.14 145.95 236.987 146.443 236.68C146.937 236.373 147.323 235.953 147.603 235.42C147.897 234.873 148.043 234.26 148.043 233.58C148.043 232.9 147.897 232.293 147.603 231.76C147.323 231.227 146.937 230.807 146.443 230.5C145.95 230.193 145.383 230.04 144.743 230.04C144.117 230.04 143.55 230.193 143.043 230.5C142.55 230.807 142.157 231.227 141.863 231.76C141.583 232.293 141.443 232.9 141.443 233.58C141.443 234.26 141.583 234.873 141.863 235.42C142.157 235.953 142.55 236.373 143.043 236.68C143.55 236.987 144.117 237.14 144.743 237.14ZM157.662 239.24C156.582 239.24 155.622 238.993 154.782 238.5C153.955 237.993 153.308 237.313 152.842 236.46C152.375 235.593 152.142 234.627 152.142 233.56C152.142 232.467 152.375 231.5 152.842 230.66C153.322 229.82 153.962 229.16 154.762 228.68C155.562 228.187 156.468 227.94 157.482 227.94C158.295 227.94 159.022 228.08 159.662 228.36C160.302 228.64 160.842 229.027 161.282 229.52C161.722 230 162.055 230.553 162.282 231.18C162.522 231.807 162.642 232.473 162.642 233.18C162.642 233.353 162.635 233.533 162.622 233.72C162.608 233.907 162.582 234.08 162.542 234.24H153.922V232.44H161.262L160.182 233.26C160.315 232.607 160.268 232.027 160.042 231.52C159.828 231 159.495 230.593 159.042 230.3C158.602 229.993 158.082 229.84 157.482 229.84C156.882 229.84 156.348 229.993 155.882 230.3C155.415 230.593 155.055 231.02 154.802 231.58C154.548 232.127 154.448 232.793 154.502 233.58C154.435 234.313 154.535 234.953 154.802 235.5C155.082 236.047 155.468 236.473 155.962 236.78C156.468 237.087 157.042 237.24 157.682 237.24C158.335 237.24 158.888 237.093 159.342 236.8C159.808 236.507 160.175 236.127 160.442 235.66L162.282 236.56C162.068 237.067 161.735 237.527 161.282 237.94C160.842 238.34 160.308 238.66 159.682 238.9C159.068 239.127 158.395 239.24 157.662 239.24ZM164.847 239V228.18H167.007V230.36L166.807 230.04C167.047 229.333 167.434 228.827 167.967 228.52C168.501 228.2 169.141 228.04 169.887 228.04H170.547V230.1H169.607C168.861 230.1 168.254 230.333 167.787 230.8C167.334 231.253 167.107 231.907 167.107 232.76V239H164.847ZM175.333 239.24C174.6 239.24 173.953 239.113 173.393 238.86C172.847 238.593 172.42 238.233 172.113 237.78C171.807 237.313 171.653 236.767 171.653 236.14C171.653 235.553 171.78 235.027 172.033 234.56C172.3 234.093 172.707 233.7 173.253 233.38C173.8 233.06 174.487 232.833 175.313 232.7L179.073 232.08V233.86L175.753 234.44C175.153 234.547 174.713 234.74 174.433 235.02C174.153 235.287 174.013 235.633 174.013 236.06C174.013 236.473 174.167 236.813 174.473 237.08C174.793 237.333 175.2 237.46 175.693 237.46C176.307 237.46 176.84 237.327 177.293 237.06C177.76 236.793 178.12 236.44 178.373 236C178.627 235.547 178.753 235.047 178.753 234.5V231.72C178.753 231.187 178.553 230.753 178.153 230.42C177.767 230.073 177.247 229.9 176.593 229.9C175.993 229.9 175.467 230.06 175.013 230.38C174.573 230.687 174.247 231.087 174.033 231.58L172.153 230.64C172.353 230.107 172.68 229.64 173.133 229.24C173.587 228.827 174.113 228.507 174.713 228.28C175.327 228.053 175.973 227.94 176.653 227.94C177.507 227.94 178.26 228.1 178.913 228.42C179.58 228.74 180.093 229.187 180.453 229.76C180.827 230.32 181.013 230.973 181.013 231.72V239H178.853V237.04L179.313 237.1C179.06 237.54 178.733 237.92 178.333 238.24C177.947 238.56 177.5 238.807 176.993 238.98C176.5 239.153 175.947 239.24 175.333 239.24ZM188.141 239.12C187.007 239.12 186.127 238.8 185.501 238.16C184.874 237.52 184.561 236.62 184.561 235.46V230.22H182.661V228.18H182.961C183.467 228.18 183.861 228.033 184.141 227.74C184.421 227.447 184.561 227.047 184.561 226.54V225.7H186.821V228.18H189.281V230.22H186.821V235.36C186.821 235.733 186.881 236.053 187.001 236.32C187.121 236.573 187.314 236.773 187.581 236.92C187.847 237.053 188.194 237.12 188.621 237.12C188.727 237.12 188.847 237.113 188.981 237.1C189.114 237.087 189.241 237.073 189.361 237.06V239C189.174 239.027 188.967 239.053 188.741 239.08C188.514 239.107 188.314 239.12 188.141 239.12ZM191.566 239V228.18H193.826V239H191.566ZM191.566 226.7V224.1H193.826V226.7H191.566ZM201.688 239.24C200.648 239.24 199.695 238.993 198.828 238.5C197.975 238.007 197.295 237.333 196.788 236.48C196.282 235.627 196.028 234.66 196.028 233.58C196.028 232.487 196.282 231.52 196.788 230.68C197.295 229.827 197.975 229.16 198.828 228.68C199.682 228.187 200.635 227.94 201.688 227.94C202.755 227.94 203.708 228.187 204.548 228.68C205.402 229.16 206.075 229.827 206.568 230.68C207.075 231.52 207.328 232.487 207.328 233.58C207.328 234.673 207.075 235.647 206.568 236.5C206.062 237.353 205.382 238.027 204.528 238.52C203.675 239 202.728 239.24 201.688 239.24ZM201.688 237.14C202.328 237.14 202.895 236.987 203.388 236.68C203.882 236.373 204.268 235.953 204.548 235.42C204.842 234.873 204.988 234.26 204.988 233.58C204.988 232.9 204.842 232.293 204.548 231.76C204.268 231.227 203.882 230.807 203.388 230.5C202.895 230.193 202.328 230.04 201.688 230.04C201.062 230.04 200.495 230.193 199.988 230.5C199.495 230.807 199.102 231.227 198.808 231.76C198.528 232.293 198.388 232.9 198.388 233.58C198.388 234.26 198.528 234.873 198.808 235.42C199.102 235.953 199.495 236.373 199.988 236.68C200.495 236.987 201.062 237.14 201.688 237.14ZM209.535 239V228.18H211.695V230.3L211.435 230.02C211.702 229.34 212.128 228.827 212.715 228.48C213.302 228.12 213.982 227.94 214.755 227.94C215.555 227.94 216.262 228.113 216.875 228.46C217.488 228.807 217.968 229.287 218.315 229.9C218.662 230.513 218.835 231.22 218.835 232.02V239H216.595V232.62C216.595 232.073 216.495 231.613 216.295 231.24C216.095 230.853 215.808 230.56 215.435 230.36C215.075 230.147 214.662 230.04 214.195 230.04C213.728 230.04 213.308 230.147 212.935 230.36C212.575 230.56 212.295 230.853 212.095 231.24C211.895 231.627 211.795 232.087 211.795 232.62V239H209.535ZM224.494 239.24C223.76 239.24 223.114 239.113 222.554 238.86C222.007 238.593 221.58 238.233 221.274 237.78C220.967 237.313 220.814 236.767 220.814 236.14C220.814 235.553 220.94 235.027 221.194 234.56C221.46 234.093 221.867 233.7 222.414 233.38C222.96 233.06 223.647 232.833 224.474 232.7L228.234 232.08V233.86L224.914 234.44C224.314 234.547 223.874 234.74 223.594 235.02C223.314 235.287 223.174 235.633 223.174 236.06C223.174 236.473 223.327 236.813 223.634 237.08C223.954 237.333 224.36 237.46 224.854 237.46C225.467 237.46 226 237.327 226.454 237.06C226.92 236.793 227.28 236.44 227.534 236C227.787 235.547 227.914 235.047 227.914 234.5V231.72C227.914 231.187 227.714 230.753 227.314 230.42C226.927 230.073 226.407 229.9 225.754 229.9C225.154 229.9 224.627 230.06 224.174 230.38C223.734 230.687 223.407 231.087 223.194 231.58L221.314 230.64C221.514 230.107 221.84 229.64 222.294 229.24C222.747 228.827 223.274 228.507 223.874 228.28C224.487 228.053 225.134 227.94 225.814 227.94C226.667 227.94 227.42 228.1 228.074 228.42C228.74 228.74 229.254 229.187 229.614 229.76C229.987 230.32 230.174 230.973 230.174 231.72V239H228.014V237.04L228.474 237.1C228.22 237.54 227.894 237.92 227.494 238.24C227.107 238.56 226.66 238.807 226.154 238.98C225.66 239.153 225.107 239.24 224.494 239.24ZM232.816 239V223.86H235.076V239H232.816ZM24.54 272V257.1H34.36V259.2H26.9V263.48H33.96V265.58H26.9V269.9H34.36V272H24.54ZM37.5517 272V263.22H35.5517V261.18H37.5517V260.62C37.5517 259.807 37.7184 259.127 38.0517 258.58C38.3851 258.02 38.8451 257.593 39.4317 257.3C40.0317 257.007 40.7184 256.86 41.4917 256.86C41.6384 256.86 41.8051 256.873 41.9917 256.9C42.1784 256.913 42.3317 256.933 42.4517 256.96V258.92C42.3451 258.893 42.2251 258.88 42.0917 258.88C41.9584 258.867 41.8517 258.86 41.7717 258.86C41.1717 258.86 40.6917 259 40.3317 259.28C39.9717 259.547 39.7917 259.993 39.7917 260.62V261.18H44.9717V263.22H39.7917V272H37.5517ZM51.7317 272V261.18H53.9917V272H51.7317ZM45.3717 272V263.22H43.3917V261.18H45.3717V260.62C45.3717 259.807 45.5384 259.127 45.8717 258.58C46.2184 258.02 46.6851 257.593 47.2717 257.3C47.8717 257.007 48.5517 256.86 49.3117 256.86C49.4717 256.86 49.6451 256.873 49.8317 256.9C50.0184 256.913 50.1717 256.933 50.2917 256.96V258.92C50.1717 258.893 50.0451 258.88 49.9117 258.88C49.7917 258.867 49.6851 258.86 49.5917 258.86C48.9917 258.86 48.5117 259 48.1517 259.28C47.8051 259.547 47.6317 259.993 47.6317 260.62V261.18H52.8117V263.22H47.6317V272H45.3717ZM61.5108 272.24C60.4308 272.24 59.4708 271.993 58.6308 271.5C57.8041 270.993 57.1441 270.313 56.6508 269.46C56.1708 268.607 55.9308 267.64 55.9308 266.56C55.9308 265.493 56.1708 264.533 56.6508 263.68C57.1308 262.827 57.7908 262.16 58.6308 261.68C59.4708 261.187 60.4308 260.94 61.5108 260.94C62.2441 260.94 62.9308 261.073 63.5708 261.34C64.2108 261.593 64.7641 261.947 65.2308 262.4C65.7108 262.853 66.0641 263.38 66.2908 263.98L64.3108 264.9C64.0841 264.34 63.7174 263.893 63.2108 263.56C62.7174 263.213 62.1508 263.04 61.5108 263.04C60.8974 263.04 60.3441 263.193 59.8508 263.5C59.3708 263.793 58.9908 264.213 58.7108 264.76C58.4308 265.293 58.2908 265.9 58.2908 266.58C58.2908 267.26 58.4308 267.873 58.7108 268.42C58.9908 268.953 59.3708 269.373 59.8508 269.68C60.3441 269.987 60.8974 270.14 61.5108 270.14C62.1641 270.14 62.7308 269.973 63.2108 269.64C63.7041 269.293 64.0708 268.833 64.3108 268.26L66.2908 269.2C66.0774 269.773 65.7308 270.293 65.2508 270.76C64.7841 271.213 64.2308 271.573 63.5908 271.84C62.9508 272.107 62.2574 272.24 61.5108 272.24ZM68.4997 272V261.18H70.7597V272H68.4997ZM68.4997 259.7V257.1H70.7597V259.7H68.4997ZM78.482 272.24C77.402 272.24 76.442 271.993 75.602 271.5C74.7754 270.993 74.1287 270.313 73.662 269.46C73.1954 268.593 72.962 267.627 72.962 266.56C72.962 265.467 73.1954 264.5 73.662 263.66C74.142 262.82 74.782 262.16 75.582 261.68C76.382 261.187 77.2887 260.94 78.302 260.94C79.1154 260.94 79.842 261.08 80.482 261.36C81.122 261.64 81.662 262.027 82.102 262.52C82.542 263 82.8754 263.553 83.102 264.18C83.342 264.807 83.462 265.473 83.462 266.18C83.462 266.353 83.4554 266.533 83.442 266.72C83.4287 266.907 83.402 267.08 83.362 267.24H74.742V265.44H82.082L81.002 266.26C81.1354 265.607 81.0887 265.027 80.862 264.52C80.6487 264 80.3154 263.593 79.862 263.3C79.422 262.993 78.902 262.84 78.302 262.84C77.702 262.84 77.1687 262.993 76.702 263.3C76.2354 263.593 75.8754 264.02 75.622 264.58C75.3687 265.127 75.2687 265.793 75.322 266.58C75.2554 267.313 75.3554 267.953 75.622 268.5C75.902 269.047 76.2887 269.473 76.782 269.78C77.2887 270.087 77.862 270.24 78.502 270.24C79.1554 270.24 79.7087 270.093 80.162 269.8C80.6287 269.507 80.9954 269.127 81.262 268.66L83.102 269.56C82.8887 270.067 82.5554 270.527 82.102 270.94C81.662 271.34 81.1287 271.66 80.502 271.9C79.8887 272.127 79.2154 272.24 78.482 272.24ZM85.6677 272V261.18H87.8277V263.3L87.5677 263.02C87.8343 262.34 88.261 261.827 88.8477 261.48C89.4343 261.12 90.1143 260.94 90.8877 260.94C91.6877 260.94 92.3943 261.113 93.0077 261.46C93.621 261.807 94.101 262.287 94.4477 262.9C94.7943 263.513 94.9677 264.22 94.9677 265.02V272H92.7277V265.62C92.7277 265.073 92.6277 264.613 92.4277 264.24C92.2277 263.853 91.941 263.56 91.5677 263.36C91.2077 263.147 90.7943 263.04 90.3277 263.04C89.861 263.04 89.441 263.147 89.0677 263.36C88.7077 263.56 88.4277 263.853 88.2277 264.24C88.0277 264.627 87.9277 265.087 87.9277 265.62V272H85.6677ZM102.526 272.24C101.446 272.24 100.486 271.993 99.6464 271.5C98.8197 270.993 98.1597 270.313 97.6664 269.46C97.1864 268.607 96.9464 267.64 96.9464 266.56C96.9464 265.493 97.1864 264.533 97.6664 263.68C98.1464 262.827 98.8064 262.16 99.6464 261.68C100.486 261.187 101.446 260.94 102.526 260.94C103.26 260.94 103.946 261.073 104.586 261.34C105.226 261.593 105.78 261.947 106.246 262.4C106.726 262.853 107.08 263.38 107.306 263.98L105.326 264.9C105.1 264.34 104.733 263.893 104.226 263.56C103.733 263.213 103.166 263.04 102.526 263.04C101.913 263.04 101.36 263.193 100.866 263.5C100.386 263.793 100.006 264.213 99.7264 264.76C99.4464 265.293 99.3064 265.9 99.3064 266.58C99.3064 267.26 99.4464 267.873 99.7264 268.42C100.006 268.953 100.386 269.373 100.866 269.68C101.36 269.987 101.913 270.14 102.526 270.14C103.18 270.14 103.746 269.973 104.226 269.64C104.72 269.293 105.086 268.833 105.326 268.26L107.306 269.2C107.093 269.773 106.746 270.293 106.266 270.76C105.8 271.213 105.246 271.573 104.606 271.84C103.966 272.107 103.273 272.24 102.526 272.24ZM110.475 276.4C110.209 276.4 109.942 276.373 109.675 276.32C109.422 276.28 109.189 276.213 108.975 276.12V274.18C109.135 274.22 109.329 274.253 109.555 274.28C109.782 274.32 110.002 274.34 110.215 274.34C110.842 274.34 111.302 274.2 111.595 273.92C111.902 273.653 112.175 273.24 112.415 272.68L113.135 271.04L113.095 272.94L108.415 261.18H110.835L114.295 270.2H113.475L116.915 261.18H119.355L114.575 273.18C114.322 273.82 114.002 274.38 113.615 274.86C113.242 275.353 112.795 275.733 112.275 276C111.769 276.267 111.169 276.4 110.475 276.4Z" fill="white"/>
<g clip-path="url(#clip0_2329_8655)">
<path fill-rule="evenodd" clip-rule="evenodd" d="M66.1813 58.0531C66.1813 57.4309 65.6695 56.9258 65.0389 56.9258H54.4852C53.8546 56.9258 53.3428 57.4309 53.3428 58.0531V68.467C53.3428 69.0893 53.8546 69.5943 54.4852 69.5943H65.0389C65.6695 69.5943 66.1813 69.0893 66.1813 68.467V58.0531ZM63.8965 59.1804V67.3397H55.6276V59.1804H63.8965Z" fill="white"/>
<path fill-rule="evenodd" clip-rule="evenodd" d="M47.7116 76.2757C47.7116 75.6535 47.1998 75.1484 46.5692 75.1484H36.0155C35.3849 75.1484 34.873 75.6535 34.873 76.2757V86.6897C34.873 87.3119 35.3849 87.817 36.0155 87.817H46.5692C47.1998 87.817 47.7116 87.3119 47.7116 86.6897V76.2757ZM45.4267 77.4031V85.5624H37.1579V77.4031H45.4267Z" fill="white"/>
<path fill-rule="evenodd" clip-rule="evenodd" d="M47.7132 61.214L50.1086 58.848C50.5566 58.4082 50.5566 57.6932 50.1086 57.2534C49.6629 56.8136 48.9406 56.8136 48.4926 57.2534L47.7109 58.0248C47.6972 57.4136 47.1921 56.9219 46.5704 56.9219H36.0149C35.3841 56.9219 34.8721 57.4271 34.8721 58.0496V68.4653C34.8721 69.0878 35.3841 69.593 36.0149 69.593H46.5704C47.2012 69.593 47.7132 69.0878 47.7132 68.4653V61.214ZM45.4275 60.2802V59.1773H37.1578V67.3375H45.4275V63.4694L42.6481 66.2121C42.2001 66.6519 41.4778 66.6519 41.0321 66.2121L39.1646 64.3716C38.7189 63.9318 38.7189 63.2168 39.1646 62.777C39.6104 62.3349 40.3349 62.3349 40.7806 62.777L41.8389 63.819L45.4275 60.2802Z" fill="white"/>
<path fill-rule="evenodd" clip-rule="evenodd" d="M60.104 93.0234C62.6869 97.0539 67.2446 99.7333 72.4286 99.7333C80.4697 99.7333 87 93.2895 87 85.3548C87 79.3847 83.3063 74.2625 78.0537 72.0883V47.3776C78.0537 46.4551 77.6811 45.571 77.0137 44.9191C76.3486 44.2718 75.4503 43.9064 74.5131 43.9064H67.5006V41.1277C67.5006 40.5052 66.9886 40 66.3577 40C65.7269 40 65.2149 40.5052 65.2149 41.1277V43.9064H51.6697V41.1277C51.6697 40.5052 51.1577 40 50.5269 40C49.896 40 49.384 40.5052 49.384 41.1277V43.9064H35.8389V41.1277C35.8389 40.5052 35.3269 40 34.696 40C34.0651 40 33.5531 40.5052 33.5531 41.1277V43.9064H26.5406C25.6034 43.9064 24.7051 44.2718 24.0423 44.9191C23.3749 45.571 23 46.4551 23 47.3776V89.5545C23 90.4747 23.3749 91.3588 24.0423 92.0107C24.7051 92.6602 25.6034 93.0234 26.5406 93.0234H60.104ZM72.4286 73.2318C79.2103 73.2318 84.7143 78.6629 84.7143 85.3548C84.7143 92.0445 79.2103 97.4779 72.4286 97.4779C65.6491 97.4779 60.1429 92.0445 60.1429 85.3548C60.1429 78.6629 65.6491 73.2318 72.4286 73.2318ZM62.168 75.1489C64.8034 72.5687 68.4286 70.9763 72.4286 70.9763C73.5783 70.9763 74.696 71.1072 75.768 71.3553V53.9725H25.2857V89.5545C25.2857 89.8748 25.416 90.1815 25.6491 90.4093C25.8869 90.6394 26.2069 90.7679 26.5406 90.7679H58.9269C58.5406 89.8297 58.2503 88.8418 58.0697 87.8178H54.4857C53.8526 87.8178 53.3429 87.3126 53.3429 86.6901V76.2767C53.3429 75.6519 53.8526 75.1489 54.4857 75.1489H62.168ZM70.5817 78.8366V87.1163C70.5817 87.7411 71.0937 88.2441 71.7246 88.2441H78.4377C79.0686 88.2441 79.5806 87.7388 79.5806 87.1163C79.5806 86.4938 79.0686 85.9886 78.4377 85.9886H72.8674V78.8366C72.8674 78.2141 72.3554 77.7089 71.7246 77.7089C71.0937 77.7089 70.5817 78.2141 70.5817 78.8366ZM60.2891 77.4044H55.6286V85.5623H57.8594C57.8571 85.4924 57.8571 85.4225 57.8571 85.3548C57.8571 82.416 58.7531 79.6824 60.2891 77.4044ZM67.5006 46.1619V48.9384C67.5006 49.5609 66.9886 50.0661 66.3577 50.0661C65.7269 50.0661 65.2149 49.5609 65.2149 48.9384V46.1619H51.6697V48.9384C51.6697 49.5609 51.1577 50.0661 50.5269 50.0661C49.896 50.0661 49.384 49.5609 49.384 48.9384V46.1619H35.8389V48.9384C35.8389 49.5609 35.3269 50.0661 34.696 50.0661C34.0651 50.0661 33.5531 49.5609 33.5531 48.9384V46.1619H26.5406C26.2069 46.1619 25.8869 46.2905 25.6491 46.5228C25.416 46.7483 25.2857 47.055 25.2857 47.3776V51.7171H75.768V47.3776C75.768 47.055 75.6377 46.7483 75.4046 46.5228C75.1691 46.2905 74.8469 46.1619 74.5131 46.1619H67.5006Z" fill="white"/>
</g>
<defs>
<linearGradient id="paint0_linear_2329_8655" x1="-2.00001" y1="314" x2="321.5" y2="-9.49999" gradientUnits="userSpaceOnUse">
<stop stop-color="#11296A"/>
<stop offset="1" stop-color="#2150D0"/>
</linearGradient>
<linearGradient id="paint1_linear_2329_8655" x1="-2.00001" y1="314" x2="321.5" y2="-9.49999" gradientUnits="userSpaceOnUse">
<stop stop-color="#11296A"/>
<stop offset="1" stop-color="#2150D0"/>
</linearGradient>
<linearGradient id="paint2_linear_2329_8655" x1="367.787" y1="-128" x2="367.787" y2="216.727" gradientUnits="userSpaceOnUse">
<stop stop-color="white"/>
<stop offset="1" stop-color="white" stop-opacity="0"/>
</linearGradient>
<linearGradient id="paint3_linear_2329_8655" x1="465.787" y1="-128" x2="465.787" y2="216.727" gradientUnits="userSpaceOnUse">
<stop stop-color="white"/>
<stop offset="1" stop-color="white" stop-opacity="0"/>
</linearGradient>
<clipPath id="clip0_2329_8655">
<rect width="64" height="59.7333" fill="white" transform="translate(23 40)"/>
</clipPath>
</defs>
</svg>
