<svg width="285" height="300" viewBox="0 0 285 300" fill="none" xmlns="http://www.w3.org/2000/svg">
<rect width="285" height="300" rx="10" transform="matrix(1 0 0 -1 0 300)" fill="url(#paint0_linear_2329_8671)"/>
<mask id="mask0_2329_8671" style="mask-type:alpha" maskUnits="userSpaceOnUse" x="0" y="0" width="285" height="300">
<rect width="285" height="300" rx="10" transform="matrix(1 0 0 -1 0 300)" fill="url(#paint1_linear_2329_8671)"/>
</mask>
<g mask="url(#mask0_2329_8671)">
<rect x="338.605" y="-128" width="58.3621" height="344.727" rx="29.1811" transform="rotate(43.8011 338.605 -128)" fill="url(#paint2_linear_2329_8671)" fill-opacity="0.24"/>
<rect x="436.605" y="-128" width="58.3621" height="344.727" rx="29.1811" transform="rotate(43.8011 436.605 -128)" fill="url(#paint3_linear_2329_8671)" fill-opacity="0.24"/>
</g>
<path d="M24.54 239V224.1H26.9V230.66H33.8V224.1H36.14V239H33.8V232.76H26.9V239H24.54ZM39.0075 239V228.18H41.2675V239H39.0075ZM39.0075 226.7V224.1H41.2675V226.7H39.0075ZM49.1298 243.4C48.3432 243.4 47.6165 243.273 46.9498 243.02C46.2832 242.767 45.7098 242.413 45.2298 241.96C44.7498 241.52 44.3898 241 44.1498 240.4L46.2298 239.54C46.4165 240.047 46.7565 240.467 47.2498 240.8C47.7565 241.133 48.3765 241.3 49.1098 241.3C49.6832 241.3 50.1965 241.187 50.6498 240.96C51.1032 240.747 51.4632 240.427 51.7298 240C51.9965 239.587 52.1298 239.087 52.1298 238.5V236.06L52.5298 236.52C52.1565 237.213 51.6365 237.74 50.9698 238.1C50.3165 238.46 49.5765 238.64 48.7498 238.64C47.7498 238.64 46.8498 238.407 46.0498 237.94C45.2498 237.473 44.6165 236.833 44.1498 236.02C43.6965 235.207 43.4698 234.293 43.4698 233.28C43.4698 232.253 43.6965 231.34 44.1498 230.54C44.6165 229.74 45.2432 229.107 46.0298 228.64C46.8165 228.173 47.7165 227.94 48.7298 227.94C49.5565 227.94 50.2898 228.12 50.9298 228.48C51.5832 228.827 52.1165 229.333 52.5298 230L52.2298 230.56V228.18H54.3698V238.5C54.3698 239.433 54.1432 240.267 53.6898 241C53.2498 241.747 52.6365 242.333 51.8498 242.76C51.0632 243.187 50.1565 243.4 49.1298 243.4ZM49.0098 236.54C49.6098 236.54 50.1432 236.4 50.6098 236.12C51.0765 235.827 51.4432 235.44 51.7098 234.96C51.9898 234.467 52.1298 233.913 52.1298 233.3C52.1298 232.687 51.9898 232.133 51.7098 231.64C51.4298 231.147 51.0565 230.76 50.5898 230.48C50.1232 230.187 49.5965 230.04 49.0098 230.04C48.3965 230.04 47.8498 230.187 47.3698 230.48C46.8898 230.76 46.5098 231.147 46.2298 231.64C45.9632 232.12 45.8298 232.673 45.8298 233.3C45.8298 233.9 45.9632 234.447 46.2298 234.94C46.5098 235.433 46.8898 235.827 47.3698 236.12C47.8498 236.4 48.3965 236.54 49.0098 236.54ZM57.0153 239V223.86H59.2753V230.3L58.9153 230.02C59.182 229.34 59.6086 228.827 60.1953 228.48C60.782 228.12 61.462 227.94 62.2353 227.94C63.0353 227.94 63.742 228.113 64.3553 228.46C64.9686 228.807 65.4486 229.287 65.7953 229.9C66.142 230.513 66.3153 231.213 66.3153 232V239H64.0753V232.62C64.0753 232.073 63.9686 231.613 63.7553 231.24C63.5553 230.853 63.2753 230.56 62.9153 230.36C62.5553 230.147 62.142 230.04 61.6753 230.04C61.222 230.04 60.8086 230.147 60.4353 230.36C60.0753 230.56 59.7886 230.853 59.5753 231.24C59.3753 231.627 59.2753 232.087 59.2753 232.62V239H57.0153ZM73.8141 239.24C72.7341 239.24 71.7741 238.993 70.9341 238.5C70.1074 237.993 69.4607 237.313 68.9941 236.46C68.5274 235.593 68.2941 234.627 68.2941 233.56C68.2941 232.467 68.5274 231.5 68.9941 230.66C69.4741 229.82 70.1141 229.16 70.9141 228.68C71.7141 228.187 72.6207 227.94 73.6341 227.94C74.4474 227.94 75.1741 228.08 75.8141 228.36C76.4541 228.64 76.9941 229.027 77.4341 229.52C77.8741 230 78.2074 230.553 78.4341 231.18C78.6741 231.807 78.7941 232.473 78.7941 233.18C78.7941 233.353 78.7874 233.533 78.7741 233.72C78.7607 233.907 78.7341 234.08 78.6941 234.24H70.0741V232.44H77.4141L76.3341 233.26C76.4674 232.607 76.4207 232.027 76.1941 231.52C75.9807 231 75.6474 230.593 75.1941 230.3C74.7541 229.993 74.2341 229.84 73.6341 229.84C73.0341 229.84 72.5007 229.993 72.0341 230.3C71.5674 230.593 71.2074 231.02 70.9541 231.58C70.7007 232.127 70.6007 232.793 70.6541 233.58C70.5874 234.313 70.6874 234.953 70.9541 235.5C71.2341 236.047 71.6207 236.473 72.1141 236.78C72.6207 237.087 73.1941 237.24 73.8341 237.24C74.4874 237.24 75.0407 237.093 75.4941 236.8C75.9607 236.507 76.3274 236.127 76.5941 235.66L78.4341 236.56C78.2207 237.067 77.8874 237.527 77.4341 237.94C76.9941 238.34 76.4607 238.66 75.8341 238.9C75.2207 239.127 74.5474 239.24 73.8141 239.24ZM80.9997 239V228.18H83.1597V230.36L82.9597 230.04C83.1997 229.333 83.5864 228.827 84.1197 228.52C84.653 228.2 85.293 228.04 86.0397 228.04H86.6997V230.1H85.7597C85.013 230.1 84.4064 230.333 83.9397 230.8C83.4864 231.253 83.2597 231.907 83.2597 232.76V239H80.9997ZM99.2019 239.24C98.1219 239.24 97.1152 239.047 96.1819 238.66C95.2619 238.273 94.4485 237.733 93.7419 237.04C93.0485 236.347 92.5019 235.533 92.1019 234.6C91.7152 233.667 91.5219 232.647 91.5219 231.54C91.5219 230.433 91.7152 229.413 92.1019 228.48C92.5019 227.533 93.0485 226.72 93.7419 226.04C94.4352 225.347 95.2485 224.813 96.1819 224.44C97.1152 224.053 98.1219 223.86 99.2019 223.86C100.295 223.86 101.302 224.053 102.222 224.44C103.155 224.813 103.969 225.347 104.662 226.04C105.369 226.733 105.915 227.547 106.302 228.48C106.689 229.413 106.882 230.433 106.882 231.54C106.882 232.647 106.682 233.667 106.282 234.6C105.895 235.533 105.355 236.347 104.662 237.04C103.969 237.733 103.155 238.273 102.222 238.66C101.289 239.047 100.282 239.24 99.2019 239.24ZM99.2019 237.08C99.9752 237.08 100.682 236.94 101.322 236.66C101.975 236.38 102.542 235.993 103.022 235.5C103.502 234.993 103.875 234.407 104.142 233.74C104.409 233.06 104.542 232.327 104.542 231.54C104.542 230.753 104.409 230.027 104.142 229.36C103.875 228.693 103.502 228.107 103.022 227.6C102.542 227.093 101.975 226.7 101.322 226.42C100.682 226.14 99.9752 226 99.2019 226C98.4285 226 97.7152 226.14 97.0619 226.42C96.4219 226.7 95.8619 227.093 95.3819 227.6C94.9019 228.107 94.5285 228.693 94.2619 229.36C94.0085 230.027 93.8819 230.753 93.8819 231.54C93.8819 232.327 94.0085 233.06 94.2619 233.74C94.5285 234.407 94.9019 234.993 95.3819 235.5C95.8619 235.993 96.4285 236.38 97.0819 236.66C97.7352 236.94 98.4419 237.08 99.2019 237.08ZM102.942 240.8L98.0619 233.04H100.582L105.482 240.8H102.942ZM113.16 239.24C112.347 239.24 111.634 239.06 111.02 238.7C110.407 238.327 109.927 237.813 109.58 237.16C109.247 236.493 109.08 235.727 109.08 234.86V228.18H111.34V234.66C111.34 235.153 111.44 235.587 111.64 235.96C111.84 236.333 112.12 236.627 112.48 236.84C112.84 237.04 113.254 237.14 113.72 237.14C114.2 237.14 114.62 237.033 114.98 236.82C115.34 236.607 115.62 236.307 115.82 235.92C116.034 235.533 116.14 235.08 116.14 234.56V228.18H118.38V239H116.24V236.88L116.48 237.16C116.227 237.827 115.807 238.34 115.22 238.7C114.634 239.06 113.947 239.24 113.16 239.24ZM124.259 239.24C123.526 239.24 122.879 239.113 122.319 238.86C121.773 238.593 121.346 238.233 121.039 237.78C120.733 237.313 120.579 236.767 120.579 236.14C120.579 235.553 120.706 235.027 120.959 234.56C121.226 234.093 121.633 233.7 122.179 233.38C122.726 233.06 123.413 232.833 124.239 232.7L127.999 232.08V233.86L124.679 234.44C124.079 234.547 123.639 234.74 123.359 235.02C123.079 235.287 122.939 235.633 122.939 236.06C122.939 236.473 123.093 236.813 123.399 237.08C123.719 237.333 124.126 237.46 124.619 237.46C125.233 237.46 125.766 237.327 126.219 237.06C126.686 236.793 127.046 236.44 127.299 236C127.553 235.547 127.679 235.047 127.679 234.5V231.72C127.679 231.187 127.479 230.753 127.079 230.42C126.693 230.073 126.173 229.9 125.519 229.9C124.919 229.9 124.393 230.06 123.939 230.38C123.499 230.687 123.173 231.087 122.959 231.58L121.079 230.64C121.279 230.107 121.606 229.64 122.059 229.24C122.513 228.827 123.039 228.507 123.639 228.28C124.253 228.053 124.899 227.94 125.579 227.94C126.433 227.94 127.186 228.1 127.839 228.42C128.506 228.74 129.019 229.187 129.379 229.76C129.753 230.32 129.939 230.973 129.939 231.72V239H127.779V237.04L128.239 237.1C127.986 237.54 127.659 237.92 127.259 238.24C126.873 238.56 126.426 238.807 125.919 238.98C125.426 239.153 124.873 239.24 124.259 239.24ZM132.582 239V223.86H134.842V239H132.582ZM137.484 239V228.18H139.744V239H137.484ZM137.484 226.7V224.1H139.744V226.7H137.484ZM147.066 239.12C145.933 239.12 145.053 238.8 144.426 238.16C143.8 237.52 143.486 236.62 143.486 235.46V230.22H141.586V228.18H141.886C142.393 228.18 142.786 228.033 143.066 227.74C143.346 227.447 143.486 227.047 143.486 226.54V225.7H145.746V228.18H148.206V230.22H145.746V235.36C145.746 235.733 145.806 236.053 145.926 236.32C146.046 236.573 146.24 236.773 146.506 236.92C146.773 237.053 147.12 237.12 147.546 237.12C147.653 237.12 147.773 237.113 147.906 237.1C148.04 237.087 148.166 237.073 148.286 237.06V239C148.1 239.027 147.893 239.053 147.666 239.08C147.44 239.107 147.24 239.12 147.066 239.12ZM151.452 243.4C151.185 243.4 150.919 243.373 150.652 243.32C150.399 243.28 150.165 243.213 149.952 243.12V241.18C150.112 241.22 150.305 241.253 150.532 241.28C150.759 241.32 150.979 241.34 151.192 241.34C151.819 241.34 152.279 241.2 152.572 240.92C152.879 240.653 153.152 240.24 153.392 239.68L154.112 238.04L154.072 239.94L149.392 228.18H151.812L155.272 237.2H154.452L157.892 228.18H160.332L155.552 240.18C155.299 240.82 154.979 241.38 154.592 241.86C154.219 242.353 153.772 242.733 153.252 243C152.745 243.267 152.145 243.4 151.452 243.4ZM170.815 239.24C169.881 239.24 169.015 239.067 168.215 238.72C167.415 238.36 166.735 237.873 166.175 237.26C165.615 236.647 165.201 235.94 164.935 235.14L166.935 234.3C167.295 235.22 167.821 235.927 168.515 236.42C169.208 236.913 170.008 237.16 170.915 237.16C171.448 237.16 171.915 237.08 172.315 236.92C172.715 236.747 173.021 236.507 173.235 236.2C173.461 235.893 173.575 235.54 173.575 235.14C173.575 234.593 173.421 234.16 173.115 233.84C172.808 233.52 172.355 233.267 171.755 233.08L168.955 232.2C167.835 231.853 166.981 231.327 166.395 230.62C165.808 229.9 165.515 229.06 165.515 228.1C165.515 227.26 165.721 226.527 166.135 225.9C166.548 225.26 167.115 224.76 167.835 224.4C168.568 224.04 169.401 223.86 170.335 223.86C171.228 223.86 172.041 224.02 172.775 224.34C173.508 224.647 174.135 225.073 174.655 225.62C175.188 226.167 175.575 226.8 175.815 227.52L173.855 228.38C173.561 227.593 173.101 226.987 172.475 226.56C171.861 226.133 171.148 225.92 170.335 225.92C169.841 225.92 169.408 226.007 169.035 226.18C168.661 226.34 168.368 226.58 168.155 226.9C167.955 227.207 167.855 227.567 167.855 227.98C167.855 228.46 168.008 228.887 168.315 229.26C168.621 229.633 169.088 229.913 169.715 230.1L172.315 230.92C173.501 231.28 174.395 231.8 174.995 232.48C175.595 233.147 175.895 233.98 175.895 234.98C175.895 235.807 175.675 236.54 175.235 237.18C174.808 237.82 174.215 238.327 173.455 238.7C172.695 239.06 171.815 239.24 170.815 239.24ZM183.544 239.24C182.504 239.24 181.551 238.993 180.684 238.5C179.831 238.007 179.151 237.333 178.644 236.48C178.137 235.627 177.884 234.66 177.884 233.58C177.884 232.487 178.137 231.52 178.644 230.68C179.151 229.827 179.831 229.16 180.684 228.68C181.537 228.187 182.491 227.94 183.544 227.94C184.611 227.94 185.564 228.187 186.404 228.68C187.257 229.16 187.931 229.827 188.424 230.68C188.931 231.52 189.184 232.487 189.184 233.58C189.184 234.673 188.931 235.647 188.424 236.5C187.917 237.353 187.237 238.027 186.384 238.52C185.531 239 184.584 239.24 183.544 239.24ZM183.544 237.14C184.184 237.14 184.751 236.987 185.244 236.68C185.737 236.373 186.124 235.953 186.404 235.42C186.697 234.873 186.844 234.26 186.844 233.58C186.844 232.9 186.697 232.293 186.404 231.76C186.124 231.227 185.737 230.807 185.244 230.5C184.751 230.193 184.184 230.04 183.544 230.04C182.917 230.04 182.351 230.193 181.844 230.5C181.351 230.807 180.957 231.227 180.664 231.76C180.384 232.293 180.244 232.9 180.244 233.58C180.244 234.26 180.384 234.873 180.664 235.42C180.957 235.953 181.351 236.373 181.844 236.68C182.351 236.987 182.917 237.14 183.544 237.14ZM192.317 239V230.22H190.317V228.18H192.317V227.62C192.317 226.807 192.484 226.127 192.817 225.58C193.151 225.02 193.611 224.593 194.197 224.3C194.797 224.007 195.484 223.86 196.257 223.86C196.404 223.86 196.571 223.873 196.757 223.9C196.944 223.913 197.097 223.933 197.217 223.96V225.92C197.111 225.893 196.991 225.88 196.857 225.88C196.724 225.867 196.617 225.86 196.537 225.86C195.937 225.86 195.457 226 195.097 226.28C194.737 226.547 194.557 226.993 194.557 227.62V228.18H197.037V230.22H194.557V239H192.317ZM204.215 239.12C203.082 239.12 202.202 238.8 201.575 238.16C200.948 237.52 200.635 236.62 200.635 235.46V230.22H198.735V228.18H199.035C199.542 228.18 199.935 228.033 200.215 227.74C200.495 227.447 200.635 227.047 200.635 226.54V225.7H202.895V228.18H205.355V230.22H202.895V235.36C202.895 235.733 202.955 236.053 203.075 236.32C203.195 236.573 203.388 236.773 203.655 236.92C203.922 237.053 204.268 237.12 204.695 237.12C204.802 237.12 204.922 237.113 205.055 237.1C205.188 237.087 205.315 237.073 205.435 237.06V239C205.248 239.027 205.042 239.053 204.815 239.08C204.588 239.107 204.388 239.12 204.215 239.12ZM210.26 239L206.54 228.18H208.94L211.78 236.8H210.94L213.84 228.18H215.9L218.78 236.8H217.94L220.8 228.18H223.2L219.46 239H217.42L214.5 230.18H215.24L212.32 239H210.26ZM227.599 239.24C226.866 239.24 226.219 239.113 225.659 238.86C225.112 238.593 224.686 238.233 224.379 237.78C224.072 237.313 223.919 236.767 223.919 236.14C223.919 235.553 224.046 235.027 224.299 234.56C224.566 234.093 224.972 233.7 225.519 233.38C226.066 233.06 226.752 232.833 227.579 232.7L231.339 232.08V233.86L228.019 234.44C227.419 234.547 226.979 234.74 226.699 235.02C226.419 235.287 226.279 235.633 226.279 236.06C226.279 236.473 226.432 236.813 226.739 237.08C227.059 237.333 227.466 237.46 227.959 237.46C228.572 237.46 229.106 237.327 229.559 237.06C230.026 236.793 230.386 236.44 230.639 236C230.892 235.547 231.019 235.047 231.019 234.5V231.72C231.019 231.187 230.819 230.753 230.419 230.42C230.032 230.073 229.512 229.9 228.859 229.9C228.259 229.9 227.732 230.06 227.279 230.38C226.839 230.687 226.512 231.087 226.299 231.58L224.419 230.64C224.619 230.107 224.946 229.64 225.399 229.24C225.852 228.827 226.379 228.507 226.979 228.28C227.592 228.053 228.239 227.94 228.919 227.94C229.772 227.94 230.526 228.1 231.179 228.42C231.846 228.74 232.359 229.187 232.719 229.76C233.092 230.32 233.279 230.973 233.279 231.72V239H231.119V237.04L231.579 237.1C231.326 237.54 230.999 237.92 230.599 238.24C230.212 238.56 229.766 238.807 229.259 238.98C228.766 239.153 228.212 239.24 227.599 239.24ZM235.922 239V228.18H238.082V230.36L237.882 230.04C238.122 229.333 238.508 228.827 239.042 228.52C239.575 228.2 240.215 228.04 240.962 228.04H241.622V230.1H240.682C239.935 230.1 239.328 230.333 238.862 230.8C238.408 231.253 238.182 231.907 238.182 232.76V239H235.922ZM248.248 239.24C247.168 239.24 246.208 238.993 245.368 238.5C244.541 237.993 243.894 237.313 243.428 236.46C242.961 235.593 242.728 234.627 242.728 233.56C242.728 232.467 242.961 231.5 243.428 230.66C243.908 229.82 244.548 229.16 245.348 228.68C246.148 228.187 247.054 227.94 248.068 227.94C248.881 227.94 249.608 228.08 250.248 228.36C250.888 228.64 251.428 229.027 251.868 229.52C252.308 230 252.641 230.553 252.868 231.18C253.108 231.807 253.228 232.473 253.228 233.18C253.228 233.353 253.221 233.533 253.208 233.72C253.194 233.907 253.168 234.08 253.128 234.24H244.508V232.44H251.848L250.768 233.26C250.901 232.607 250.854 232.027 250.628 231.52C250.414 231 250.081 230.593 249.628 230.3C249.188 229.993 248.668 229.84 248.068 229.84C247.468 229.84 246.934 229.993 246.468 230.3C246.001 230.593 245.641 231.02 245.388 231.58C245.134 232.127 245.034 232.793 245.088 233.58C245.021 234.313 245.121 234.953 245.388 235.5C245.668 236.047 246.054 236.473 246.548 236.78C247.054 237.087 247.628 237.24 248.268 237.24C248.921 237.24 249.474 237.093 249.928 236.8C250.394 236.507 250.761 236.127 251.028 235.66L252.868 236.56C252.654 237.067 252.321 237.527 251.868 237.94C251.428 238.34 250.894 238.66 250.268 238.9C249.654 239.127 248.981 239.24 248.248 239.24Z" fill="white"/>
<path d="M64.985 50.7107C67.3209 50.7107 69.2231 48.7843 69.2231 46.4187C69.2231 44.0531 67.3209 42.1267 64.985 42.1267C62.6492 42.1267 60.747 44.0531 60.747 46.4187C60.7546 48.7843 62.6492 50.7107 64.985 50.7107ZM64.985 43.8605C66.3774 43.8605 67.5111 45.0086 67.5111 46.4187C67.5111 47.8288 66.3774 48.9769 64.985 48.9769C63.5926 48.9769 62.459 47.8288 62.459 46.4187C62.459 45.0086 63.5926 43.8605 64.985 43.8605ZM43.2013 63.471C44.3046 63.471 45.385 63.2861 46.4198 62.9547C48.6111 64.6499 51.3122 65.6054 54.0894 65.6054C56.8742 65.6054 59.5676 64.6499 61.759 62.9547C62.7937 63.2938 63.8742 63.471 64.9774 63.471C67.8916 63.471 70.6079 62.292 72.6166 60.1499C72.9133 59.8263 73.0655 59.4256 73.0427 58.9864C72.8296 54.3014 69.5122 51.0266 64.9774 51.0266C63.0448 51.0266 61.3176 51.6122 59.9329 52.7141C58.3122 51.4812 56.3187 50.8262 54.0894 50.8262C51.8524 50.8262 49.859 51.4812 48.2459 52.7141C46.8611 51.6045 45.134 51.0266 43.2013 51.0266C38.6666 51.0266 35.3492 54.3014 35.1361 58.9864C35.1133 59.4256 35.2655 59.834 35.5622 60.1499C37.5785 62.2843 40.2872 63.471 43.2013 63.471ZM71.3459 59.0018C69.6644 60.7664 67.4122 61.745 64.985 61.745C64.4144 61.745 63.8513 61.6833 63.2959 61.5754C63.3035 61.5677 63.3035 61.5677 63.3111 61.56C63.6079 61.2441 63.7524 60.8434 63.7372 60.4119C63.6383 57.9076 62.7481 55.6114 61.2263 53.9084C62.2687 53.1533 63.5546 52.7526 64.985 52.7526C68.5992 52.7449 71.1481 55.2569 71.3459 59.0018ZM62.0329 60.4196C59.9481 62.6465 57.1329 63.8717 54.097 63.8717C51.0687 63.8717 48.2535 62.6465 46.1611 60.4196C46.3742 55.7809 49.6231 52.5523 54.097 52.5523C58.5633 52.5523 61.8198 55.7809 62.0329 60.4196ZM43.2013 52.7449C44.6394 52.7449 45.9176 53.1456 46.96 53.9007C45.4459 55.6114 44.5481 57.8999 44.4492 60.4042C44.434 60.8357 44.5785 61.2364 44.8753 61.5523C44.8829 61.56 44.8829 61.56 44.8905 61.5677C44.335 61.6756 43.772 61.7372 43.2013 61.7372C40.7742 61.7372 38.522 60.7664 36.8405 58.9941C37.0459 55.2569 39.5948 52.7449 43.2013 52.7449ZM43.2013 50.7107C45.5372 50.7107 47.4394 48.7843 47.4394 46.4187C47.4394 44.0531 45.5372 42.1267 43.2013 42.1267C40.8655 42.1267 38.9633 44.0531 38.9633 46.4187C38.9709 48.7843 40.8655 50.7107 43.2013 50.7107ZM43.2013 43.8605C44.5937 43.8605 45.7274 45.0086 45.7274 46.4187C45.7274 47.8288 44.5937 48.9769 43.2013 48.9769C41.809 48.9769 40.6753 47.8288 40.6753 46.4187C40.6753 45.0086 41.809 43.8605 43.2013 43.8605ZM54.097 50.0711C56.8361 50.0711 59.0731 47.8134 59.0731 45.0394C59.0731 42.2654 56.8361 40 54.097 40C51.3579 40 49.1285 42.2577 49.1285 45.0317C49.1285 47.8057 51.3579 50.0711 54.097 50.0711ZM54.097 41.726C55.9003 41.726 57.3611 43.2132 57.3611 45.0317C57.3611 46.8502 55.8927 48.3374 54.097 48.3374C52.2937 48.3374 50.8329 46.8502 50.8329 45.0317C50.8329 43.2132 52.2937 41.726 54.097 41.726ZM85.2242 84.6997L75.1046 66.9539C74.7318 66.2989 74.1231 65.8289 73.4003 65.6285C72.6774 65.4282 71.9166 65.5284 71.2698 65.9136L67.0546 68.3794C65.7155 69.1654 65.2513 70.9068 66.0274 72.263L66.3166 72.7715L63.2274 74.5823C61.0666 73.727 59.2253 73.2955 57.6046 73.2801C56.2122 73.2647 54.9796 73.5652 53.8992 74.1508C50.8937 73.3032 47.759 73.4419 44.7763 74.59L41.8242 72.864L42.1666 72.2707C42.9426 70.9145 42.4785 69.1731 41.1394 68.3871L36.9242 65.9213C36.2774 65.5438 35.5166 65.4436 34.7937 65.6362C34.0709 65.8366 33.4622 66.3066 33.0894 66.9616L22.9622 84.6997C22.1861 86.0558 22.6503 87.7973 23.9894 88.5833L28.2046 91.049C28.6459 91.3033 29.1253 91.4266 29.6046 91.4266C30.5785 91.4266 31.522 90.918 32.0394 90.0088L32.397 89.3846L35.2731 91.0952L34.9307 91.2956C34.0937 91.7887 33.4926 92.5824 33.2416 93.5302C32.9905 94.478 33.1198 95.4797 33.5992 96.3273C34.36 97.6603 35.8133 98.3307 37.2361 98.1381C37.1372 98.9086 37.2818 99.7254 37.6926 100.45C38.4003 101.69 39.7166 102.353 41.0481 102.284C40.9111 103.108 41.0405 103.979 41.4742 104.749C42.1894 105.998 43.5133 106.668 44.8524 106.583C44.7155 107.4 44.8448 108.263 45.2861 109.034C45.9557 110.213 47.1807 110.875 48.4437 110.875C49.06 110.875 49.684 110.713 50.2546 110.382L53.9981 108.194L57.7948 110.413C58.3503 110.737 58.959 110.891 59.56 110.891C60.8155 110.891 62.0405 110.22 62.7177 109.034C63.1513 108.263 63.2883 107.4 63.1513 106.583C64.4829 106.668 65.8144 105.998 66.5296 104.749C66.9709 103.979 67.1003 103.108 66.9633 102.284C67.3437 102.307 67.7242 102.261 68.1046 102.16C69.0481 101.906 69.8318 101.297 70.3111 100.45C70.722 99.7331 70.859 98.9163 70.76 98.1381C72.1753 98.3307 73.6437 97.6603 74.397 96.3273C74.884 95.4797 75.0057 94.4857 74.7546 93.5302C74.5035 92.5747 73.9024 91.781 73.0655 91.2956L72.7459 91.1107L75.7666 89.3307L76.1546 90.0165C76.672 90.9257 77.6231 91.4343 78.5894 91.4343C79.0687 91.4343 79.5481 91.311 79.9894 91.0567L84.2046 88.591C84.8513 88.2134 85.3155 87.5969 85.5133 86.8649C85.7111 86.1329 85.6046 85.3623 85.2242 84.6997ZM30.5633 89.1458C30.259 89.6774 29.5818 89.8624 29.0568 89.5541L24.8416 87.0884C24.3166 86.7802 24.134 86.0944 24.4383 85.5627L34.5579 67.8169C34.7024 67.5626 34.9383 67.3777 35.2274 67.3006C35.3263 67.2775 35.4176 67.2621 35.5166 67.2621C35.7068 67.2621 35.897 67.316 36.0644 67.4085L40.2796 69.8743C40.5307 70.0207 40.7133 70.2595 40.7894 70.5524C40.8655 70.8375 40.8274 71.138 40.6829 71.4L30.5633 89.1458ZM37.7155 96.1809C36.7948 96.7203 35.6079 96.3966 35.0753 95.4643C34.8166 95.0174 34.7481 94.4857 34.885 93.9848C35.022 93.4763 35.334 93.0524 35.7829 92.7982L42.3796 88.9377C42.684 88.7605 43.0111 88.6757 43.3383 88.6757C44.0079 88.6757 44.6546 89.0302 45.0122 89.6543C45.5372 90.579 45.2329 91.7733 44.3274 92.3127L37.7155 96.1809ZM41.809 100.296C40.8883 100.835 39.7013 100.511 39.1687 99.579C38.6361 98.6467 38.9481 97.4523 39.8687 96.9129L46.4807 93.0524C46.785 92.8752 47.1122 92.7905 47.4394 92.7905C48.109 92.7905 48.7557 93.1449 49.1133 93.7691C49.6459 94.7014 49.3263 95.9035 48.4057 96.4429L41.809 100.296ZM45.5905 104.603C45.1492 104.865 44.6242 104.934 44.1296 104.796C43.6274 104.657 43.209 104.341 42.9579 103.886C42.4329 102.969 42.7372 101.783 43.635 101.236L50.2622 97.3598C51.1829 96.8204 52.3698 97.1441 52.9024 98.0764C53.435 99.0088 53.1155 100.211 52.1948 100.75C51.8524 100.943 45.9329 104.403 45.5905 104.603ZM49.3948 108.887C48.4742 109.427 47.2872 109.103 46.7546 108.171C46.2296 107.246 46.534 106.052 47.447 105.512C49.235 104.464 54.0666 101.644 54.0666 101.644C54.5079 101.382 55.0329 101.313 55.5274 101.451C56.0296 101.59 56.4481 101.906 56.6992 102.361C56.9579 102.808 57.0263 103.339 56.8894 103.84C56.7524 104.349 56.4405 104.773 55.9916 105.027L49.3948 108.887ZM61.234 108.171C60.709 109.088 59.5296 109.427 58.647 108.918L55.7024 107.2L56.8513 106.529C57.6807 106.044 58.2666 105.266 58.5253 104.333L60.5416 105.512C61.4546 106.059 61.759 107.246 61.234 108.171ZM72.9133 95.4643C72.3807 96.3966 71.2013 96.7203 70.2731 96.1809L60.9829 90.7485C60.572 90.5096 60.0546 90.6483 59.8187 91.0644C59.5829 91.4805 59.7198 92.0045 60.1307 92.2434L68.3024 97.0208C69.0861 97.6064 69.3144 98.7237 68.8198 99.5867C68.5611 100.034 68.1503 100.357 67.6481 100.496C67.1459 100.635 66.6285 100.565 66.1872 100.303L58.2818 95.68C57.8709 95.4412 57.3535 95.5799 57.1176 95.996C56.8818 96.4121 57.0187 96.936 57.4296 97.1749L64.3383 101.213L64.3459 101.22C65.2437 101.752 65.5557 102.969 65.0383 103.886C64.7796 104.333 64.3687 104.657 63.8666 104.796C63.3644 104.934 62.847 104.865 62.4057 104.603L58.5177 102.33C58.434 102.045 58.335 101.76 58.1829 101.49C57.6959 100.642 56.9122 100.034 55.9763 99.7794C55.5883 99.6715 55.2003 99.633 54.8122 99.6561C54.9492 98.8393 54.8122 97.9763 54.3785 97.2057C53.6709 95.9651 52.3546 95.2948 51.0307 95.3718C51.1677 94.555 51.0383 93.6843 50.597 92.906C49.8361 91.573 48.3753 90.9026 46.96 91.0952C47.059 90.317 46.922 89.5079 46.5035 88.7836C45.4992 87.0267 43.2698 86.418 41.535 87.4351L36.9774 90.1012L33.2568 87.8898L40.972 74.3589L44.2818 76.293C44.4111 76.37 44.5633 76.4085 44.7079 76.4085C44.8144 76.4085 44.9285 76.3854 45.0274 76.3469C47.2187 75.4376 49.509 75.1448 51.7459 75.4608L48.7481 77.3332C48.6644 77.3871 48.5883 77.4565 48.5274 77.5336C48.1698 77.9882 47.759 78.6354 47.7666 79.5909L47.8046 86.7416C47.7818 87.9437 48.2535 88.9069 49.1361 89.4386C49.585 89.716 50.1176 89.847 50.6731 89.847C51.3046 89.847 51.9742 89.6697 52.5981 89.3153C54.2035 88.3983 55.1546 86.5259 55.1546 84.3221V83.7827L56.3796 83.5438C57.3231 84.5841 58.5633 85.2853 59.9253 85.6166L72.2057 92.7982C73.134 93.3298 73.4459 94.5319 72.9133 95.4643ZM71.0416 90.1089L63.2046 85.5319C63.4253 85.3469 63.5622 85.0541 63.5166 84.7459C63.4405 84.2759 63.0068 83.9522 62.5426 84.0293C60.5111 84.3529 58.5861 83.6209 57.384 82.0721C57.1861 81.8178 56.8666 81.6945 56.5546 81.7562L54.1427 82.2185C53.7394 82.2956 53.4503 82.65 53.4503 83.0661V84.3221C53.4503 86.5952 52.2633 87.5199 51.7535 87.8127C51.1372 88.1672 50.4524 88.2211 50.0187 87.9591C49.585 87.6971 49.509 87.1654 49.5166 86.7725C49.5166 86.7648 49.5166 86.757 49.5166 86.7493L49.4785 79.5909C49.4785 79.2904 49.5622 79.0361 49.7829 78.7279L54.447 75.8152C55.3068 75.2835 56.2959 75.0216 57.4829 75.0216C57.5133 75.0216 57.5513 75.0216 57.5818 75.0216C59.0807 75.037 60.8459 75.4762 62.9687 76.3546C63.2122 76.4548 63.4861 76.4394 63.722 76.3007L67.184 74.2741L74.9144 87.8358L71.0416 90.1089ZM83.8546 86.4103C83.7785 86.6954 83.5959 86.942 83.3448 87.0884L79.1296 89.5541C78.6046 89.8624 77.9274 89.6774 77.6231 89.1458L67.5035 71.4C67.359 71.1457 67.3209 70.8452 67.397 70.5524C67.4731 70.2673 67.6557 70.0207 67.9068 69.8743L72.122 67.4085C72.3731 67.2621 72.6698 67.2236 72.959 67.3006C73.2405 67.3777 73.484 67.5626 73.6285 67.8169L83.7481 85.5627C83.8927 85.8247 83.9307 86.1252 83.8546 86.4103ZM79.9057 82.5961C80.3698 83.4051 80.0959 84.4377 79.297 84.9077C78.4981 85.3778 77.4785 85.1004 77.0144 84.2913C76.5503 83.4822 76.8242 82.4497 77.6231 81.9796C78.422 81.5096 79.4416 81.787 79.9057 82.5961ZM31.1796 84.2913C30.7155 85.1004 29.6959 85.3778 28.897 84.9077C28.0981 84.4377 27.8242 83.4051 28.2883 82.5961C28.7524 81.787 29.772 81.5096 30.5709 81.9796C31.3698 82.4497 31.6437 83.4745 31.1796 84.2913Z" fill="white"/>
<defs>
<linearGradient id="paint0_linear_2329_8671" x1="-2.00001" y1="314" x2="321.5" y2="-9.49999" gradientUnits="userSpaceOnUse">
<stop stop-color="#11296A"/>
<stop offset="1" stop-color="#2150D0"/>
</linearGradient>
<linearGradient id="paint1_linear_2329_8671" x1="-2.00001" y1="314" x2="321.5" y2="-9.49999" gradientUnits="userSpaceOnUse">
<stop stop-color="#11296A"/>
<stop offset="1" stop-color="#2150D0"/>
</linearGradient>
<linearGradient id="paint2_linear_2329_8671" x1="367.787" y1="-128" x2="367.787" y2="216.727" gradientUnits="userSpaceOnUse">
<stop stop-color="white"/>
<stop offset="1" stop-color="white" stop-opacity="0"/>
</linearGradient>
<linearGradient id="paint3_linear_2329_8671" x1="465.787" y1="-128" x2="465.787" y2="216.727" gradientUnits="userSpaceOnUse">
<stop stop-color="white"/>
<stop offset="1" stop-color="white" stop-opacity="0"/>
</linearGradient>
</defs>
</svg>
