<svg width="285" height="300" viewBox="0 0 285 300" fill="none" xmlns="http://www.w3.org/2000/svg">
<rect width="285" height="300" rx="10" transform="matrix(1 0 0 -1 0 300)" fill="url(#paint0_linear_2329_8682)"/>
<mask id="mask0_2329_8682" style="mask-type:alpha" maskUnits="userSpaceOnUse" x="0" y="0" width="285" height="300">
<rect width="285" height="300" rx="10" transform="matrix(1 0 0 -1 0 300)" fill="url(#paint1_linear_2329_8682)"/>
</mask>
<g mask="url(#mask0_2329_8682)">
<rect x="338.605" y="-128" width="58.3621" height="344.727" rx="29.1811" transform="rotate(43.8011 338.605 -128)" fill="url(#paint2_linear_2329_8682)" fill-opacity="0.24"/>
<rect x="436.605" y="-128" width="58.3621" height="344.727" rx="29.1811" transform="rotate(43.8011 436.605 -128)" fill="url(#paint3_linear_2329_8682)" fill-opacity="0.24"/>
</g>
<path d="M31.52 239.24C30.4667 239.24 29.4867 239.047 28.58 238.66C27.6867 238.273 26.9 237.74 26.22 237.06C25.5533 236.367 25.0333 235.553 24.66 234.62C24.2867 233.687 24.1 232.66 24.1 231.54C24.1 230.433 24.28 229.413 24.64 228.48C25.0133 227.533 25.5333 226.72 26.2 226.04C26.8667 225.347 27.6467 224.813 28.54 224.44C29.4333 224.053 30.4133 223.86 31.48 223.86C32.5333 223.86 33.4733 224.04 34.3 224.4C35.14 224.76 35.8467 225.233 36.42 225.82C36.9933 226.393 37.4067 227.02 37.66 227.7L35.56 228.72C35.2533 227.907 34.7467 227.253 34.04 226.76C33.3333 226.253 32.48 226 31.48 226C30.4933 226 29.62 226.233 28.86 226.7C28.1 227.167 27.5067 227.813 27.08 228.64C26.6667 229.467 26.46 230.433 26.46 231.54C26.46 232.647 26.6733 233.62 27.1 234.46C27.54 235.287 28.14 235.933 28.9 236.4C29.66 236.853 30.5333 237.08 31.52 237.08C32.3467 237.08 33.1 236.913 33.78 236.58C34.4733 236.233 35.0267 235.753 35.44 235.14C35.8533 234.513 36.06 233.787 36.06 232.96V231.94L37.12 232.9H31.48V230.9H38.4V232.3C38.4 233.393 38.2133 234.373 37.84 235.24C37.4667 236.093 36.96 236.82 36.32 237.42C35.68 238.02 34.9467 238.473 34.12 238.78C33.2933 239.087 32.4267 239.24 31.52 239.24ZM40.7895 239V228.18H42.9495V230.36L42.7495 230.04C42.9895 229.333 43.3762 228.827 43.9095 228.52C44.4429 228.2 45.0829 228.04 45.8295 228.04H46.4895V230.1H45.5495C44.8029 230.1 44.1962 230.333 43.7295 230.8C43.2762 231.253 43.0495 231.907 43.0495 232.76V239H40.7895ZM53.3156 239.24C52.2356 239.24 51.2756 238.993 50.4356 238.5C49.609 237.993 48.9623 237.313 48.4956 236.46C48.029 235.593 47.7956 234.627 47.7956 233.56C47.7956 232.467 48.029 231.5 48.4956 230.66C48.9756 229.82 49.6156 229.16 50.4156 228.68C51.2156 228.187 52.1223 227.94 53.1356 227.94C53.949 227.94 54.6756 228.08 55.3156 228.36C55.9556 228.64 56.4956 229.027 56.9356 229.52C57.3756 230 57.709 230.553 57.9356 231.18C58.1756 231.807 58.2956 232.473 58.2956 233.18C58.2956 233.353 58.289 233.533 58.2756 233.72C58.2623 233.907 58.2356 234.08 58.1956 234.24H49.5756V232.44H56.9156L55.8356 233.26C55.969 232.607 55.9223 232.027 55.6956 231.52C55.4823 231 55.149 230.593 54.6956 230.3C54.2556 229.993 53.7356 229.84 53.1356 229.84C52.5356 229.84 52.0023 229.993 51.5356 230.3C51.069 230.593 50.709 231.02 50.4556 231.58C50.2023 232.127 50.1023 232.793 50.1556 233.58C50.089 234.313 50.189 234.953 50.4556 235.5C50.7356 236.047 51.1223 236.473 51.6156 236.78C52.1223 237.087 52.6956 237.24 53.3356 237.24C53.989 237.24 54.5423 237.093 54.9956 236.8C55.4623 236.507 55.829 236.127 56.0956 235.66L57.9356 236.56C57.7223 237.067 57.389 237.527 56.9356 237.94C56.4956 238.34 55.9623 238.66 55.3356 238.9C54.7223 239.127 54.049 239.24 53.3156 239.24ZM63.8436 239.24C63.1103 239.24 62.4636 239.113 61.9036 238.86C61.3569 238.593 60.9303 238.233 60.6236 237.78C60.3169 237.313 60.1636 236.767 60.1636 236.14C60.1636 235.553 60.2903 235.027 60.5436 234.56C60.8103 234.093 61.2169 233.7 61.7636 233.38C62.3103 233.06 62.9969 232.833 63.8236 232.7L67.5836 232.08V233.86L64.2636 234.44C63.6636 234.547 63.2236 234.74 62.9436 235.02C62.6636 235.287 62.5236 235.633 62.5236 236.06C62.5236 236.473 62.6769 236.813 62.9836 237.08C63.3036 237.333 63.7103 237.46 64.2036 237.46C64.8169 237.46 65.3503 237.327 65.8036 237.06C66.2703 236.793 66.6303 236.44 66.8836 236C67.1369 235.547 67.2636 235.047 67.2636 234.5V231.72C67.2636 231.187 67.0636 230.753 66.6636 230.42C66.2769 230.073 65.7569 229.9 65.1036 229.9C64.5036 229.9 63.9769 230.06 63.5236 230.38C63.0836 230.687 62.7569 231.087 62.5436 231.58L60.6636 230.64C60.8636 230.107 61.1903 229.64 61.6436 229.24C62.0969 228.827 62.6236 228.507 63.2236 228.28C63.8369 228.053 64.4836 227.94 65.1636 227.94C66.0169 227.94 66.7703 228.1 67.4236 228.42C68.0903 228.74 68.6036 229.187 68.9636 229.76C69.3369 230.32 69.5236 230.973 69.5236 231.72V239H67.3636V237.04L67.8236 237.1C67.5703 237.54 67.2436 237.92 66.8436 238.24C66.4569 238.56 66.0103 238.807 65.5036 238.98C65.0103 239.153 64.4569 239.24 63.8436 239.24ZM76.8508 239.12C75.7174 239.12 74.8374 238.8 74.2108 238.16C73.5841 237.52 73.2708 236.62 73.2708 235.46V230.22H71.3708V228.18H71.6708C72.1774 228.18 72.5708 228.033 72.8508 227.74C73.1308 227.447 73.2708 227.047 73.2708 226.54V225.7H75.5308V228.18H77.9908V230.22H75.5308V235.36C75.5308 235.733 75.5908 236.053 75.7108 236.32C75.8308 236.573 76.0241 236.773 76.2908 236.92C76.5574 237.053 76.9041 237.12 77.3308 237.12C77.4374 237.12 77.5574 237.113 77.6908 237.1C77.8241 237.087 77.9508 237.073 78.0708 237.06V239C77.8841 239.027 77.6774 239.053 77.4508 239.08C77.2241 239.107 77.0241 239.12 76.8508 239.12ZM85.3609 239.24C84.2809 239.24 83.3209 238.993 82.4809 238.5C81.6543 237.993 81.0076 237.313 80.5409 236.46C80.0743 235.593 79.8409 234.627 79.8409 233.56C79.8409 232.467 80.0743 231.5 80.5409 230.66C81.0209 229.82 81.6609 229.16 82.4609 228.68C83.2609 228.187 84.1676 227.94 85.1809 227.94C85.9943 227.94 86.7209 228.08 87.3609 228.36C88.0009 228.64 88.5409 229.027 88.9809 229.52C89.4209 230 89.7543 230.553 89.9809 231.18C90.2209 231.807 90.3409 232.473 90.3409 233.18C90.3409 233.353 90.3343 233.533 90.3209 233.72C90.3076 233.907 90.2809 234.08 90.2409 234.24H81.6209V232.44H88.9609L87.8809 233.26C88.0143 232.607 87.9676 232.027 87.7409 231.52C87.5276 231 87.1943 230.593 86.7409 230.3C86.3009 229.993 85.7809 229.84 85.1809 229.84C84.5809 229.84 84.0476 229.993 83.5809 230.3C83.1143 230.593 82.7543 231.02 82.5009 231.58C82.2476 232.127 82.1476 232.793 82.2009 233.58C82.1343 234.313 82.2343 234.953 82.5009 235.5C82.7809 236.047 83.1676 236.473 83.6609 236.78C84.1676 237.087 84.7409 237.24 85.3809 237.24C86.0343 237.24 86.5876 237.093 87.0409 236.8C87.5076 236.507 87.8743 236.127 88.1409 235.66L89.9809 236.56C89.7676 237.067 89.4343 237.527 88.9809 237.94C88.5409 238.34 88.0076 238.66 87.3809 238.9C86.7676 239.127 86.0943 239.24 85.3609 239.24ZM92.7466 239V228.18H94.9066V230.36L94.7066 230.04C94.9466 229.333 95.3332 228.827 95.8666 228.52C96.3999 228.2 97.0399 228.04 97.7866 228.04H98.4466V230.1H97.5066C96.7599 230.1 96.1532 230.333 95.6866 230.8C95.2332 231.253 95.0066 231.907 95.0066 232.76V239H92.7466ZM102.789 239L108.029 224.1H110.949L116.189 239H113.669L112.529 235.66H106.469L105.309 239H102.789ZM107.149 233.56H111.809L109.169 225.76H109.829L107.149 233.56ZM122.766 243.4C121.979 243.4 121.252 243.273 120.586 243.02C119.919 242.767 119.346 242.413 118.866 241.96C118.386 241.52 118.026 241 117.786 240.4L119.866 239.54C120.052 240.047 120.392 240.467 120.886 240.8C121.392 241.133 122.012 241.3 122.746 241.3C123.319 241.3 123.832 241.187 124.286 240.96C124.739 240.747 125.099 240.427 125.366 240C125.632 239.587 125.766 239.087 125.766 238.5V236.06L126.166 236.52C125.792 237.213 125.272 237.74 124.606 238.1C123.952 238.46 123.212 238.64 122.386 238.64C121.386 238.64 120.486 238.407 119.686 237.94C118.886 237.473 118.252 236.833 117.786 236.02C117.332 235.207 117.106 234.293 117.106 233.28C117.106 232.253 117.332 231.34 117.786 230.54C118.252 229.74 118.879 229.107 119.666 228.64C120.452 228.173 121.352 227.94 122.366 227.94C123.192 227.94 123.926 228.12 124.566 228.48C125.219 228.827 125.752 229.333 126.166 230L125.866 230.56V228.18H128.006V238.5C128.006 239.433 127.779 240.267 127.326 241C126.886 241.747 126.272 242.333 125.486 242.76C124.699 243.187 123.792 243.4 122.766 243.4ZM122.646 236.54C123.246 236.54 123.779 236.4 124.246 236.12C124.712 235.827 125.079 235.44 125.346 234.96C125.626 234.467 125.766 233.913 125.766 233.3C125.766 232.687 125.626 232.133 125.346 231.64C125.066 231.147 124.692 230.76 124.226 230.48C123.759 230.187 123.232 230.04 122.646 230.04C122.032 230.04 121.486 230.187 121.006 230.48C120.526 230.76 120.146 231.147 119.866 231.64C119.599 232.12 119.466 232.673 119.466 233.3C119.466 233.9 119.599 234.447 119.866 234.94C120.146 235.433 120.526 235.827 121.006 236.12C121.486 236.4 122.032 236.54 122.646 236.54ZM130.851 239V228.18H133.111V239H130.851ZM130.851 226.7V224.1H133.111V226.7H130.851ZM135.954 239V223.86H138.214V239H135.954ZM141.056 239V228.18H143.316V239H141.056ZM141.056 226.7V224.1H143.316V226.7H141.056ZM150.838 239.12C149.705 239.12 148.825 238.8 148.198 238.16C147.572 237.52 147.258 236.62 147.258 235.46V230.22H145.358V228.18H145.658C146.165 228.18 146.558 228.033 146.838 227.74C147.118 227.447 147.258 227.047 147.258 226.54V225.7H149.518V228.18H151.978V230.22H149.518V235.36C149.518 235.733 149.578 236.053 149.698 236.32C149.818 236.573 150.012 236.773 150.278 236.92C150.545 237.053 150.892 237.12 151.318 237.12C151.425 237.12 151.545 237.113 151.678 237.1C151.812 237.087 151.938 237.073 152.058 237.06V239C151.872 239.027 151.665 239.053 151.438 239.08C151.212 239.107 151.012 239.12 150.838 239.12ZM155.424 243.4C155.157 243.4 154.89 243.373 154.624 243.32C154.37 243.28 154.137 243.213 153.924 243.12V241.18C154.084 241.22 154.277 241.253 154.504 241.28C154.73 241.32 154.95 241.34 155.164 241.34C155.79 241.34 156.25 241.2 156.544 240.92C156.85 240.653 157.124 240.24 157.364 239.68L158.084 238.04L158.044 239.94L153.364 228.18H155.784L159.244 237.2H158.424L161.864 228.18H164.304L159.524 240.18C159.27 240.82 158.95 241.38 158.564 241.86C158.19 242.353 157.744 242.733 157.224 243C156.717 243.267 156.117 243.4 155.424 243.4Z" fill="white"/>
<g clip-path="url(#clip0_2329_8682)">
<path d="M83.6666 40H39.3286C38.6446 40 38.0906 40.5569 38.0906 41.2444V68.6419H24.238C23.554 68.6419 23 69.1988 23 69.8863V98.7556C23 99.0854 23.13 99.4027 23.3621 99.636C23.5942 99.8694 23.9099 100 24.238 100H52.9804C53.3084 100 53.621 99.8693 53.8532 99.636C54.0853 99.4027 54.2184 99.0854 54.2184 98.7556V87.0558H83.6699H83.6668C83.9948 87.0558 84.3105 86.9251 84.5427 86.6918C84.7748 86.4585 84.9048 86.1412 84.9048 85.8114V41.2443C84.9048 40.9146 84.7748 40.5973 84.5427 40.3639C84.3105 40.1306 83.9947 40 83.6666 40ZM51.7424 97.5148H25.4759V71.1343H51.7424V97.5148ZM82.4314 84.5702L54.2183 84.5671V69.8832C54.2183 69.5534 54.0852 69.2392 53.8531 69.0059C53.621 68.7726 53.3084 68.6388 52.9803 68.6388H40.5665V42.4884H82.4286L82.4314 84.5702ZM59.8381 64.079L59.835 64.0759C59.3646 63.5781 59.3863 62.7911 59.8815 62.3182L72.3975 50.3723H63.927C63.243 50.3723 62.689 49.8155 62.689 49.128C62.689 48.4404 63.243 47.8836 63.927 47.8836H75.3535C75.4959 47.8836 75.6352 47.9085 75.7683 47.9551H75.7714C75.9416 48.0174 76.0932 48.1169 76.2232 48.2444C76.347 48.372 76.4399 48.5244 76.5018 48.6924V48.6955C76.5513 48.8293 76.5729 48.9724 76.5729 49.1155V49.2275V49.2928L76.5389 60.3181C76.5389 61.0025 75.9849 61.5594 75.3009 61.5594H75.2978C74.9698 61.5563 74.6541 61.4256 74.425 61.1923C74.1929 60.959 74.0629 60.6416 74.0629 60.3119L74.0877 52.1647L61.5717 64.1107C61.0765 64.5835 60.2935 64.5618 59.8231 64.064L59.8381 64.079Z" fill="white"/>
</g>
<defs>
<linearGradient id="paint0_linear_2329_8682" x1="-2.00001" y1="314" x2="321.5" y2="-9.49999" gradientUnits="userSpaceOnUse">
<stop stop-color="#11296A"/>
<stop offset="1" stop-color="#2150D0"/>
</linearGradient>
<linearGradient id="paint1_linear_2329_8682" x1="-2.00001" y1="314" x2="321.5" y2="-9.49999" gradientUnits="userSpaceOnUse">
<stop stop-color="#11296A"/>
<stop offset="1" stop-color="#2150D0"/>
</linearGradient>
<linearGradient id="paint2_linear_2329_8682" x1="367.787" y1="-128" x2="367.787" y2="216.727" gradientUnits="userSpaceOnUse">
<stop stop-color="white"/>
<stop offset="1" stop-color="white" stop-opacity="0"/>
</linearGradient>
<linearGradient id="paint3_linear_2329_8682" x1="465.787" y1="-128" x2="465.787" y2="216.727" gradientUnits="userSpaceOnUse">
<stop stop-color="white"/>
<stop offset="1" stop-color="white" stop-opacity="0"/>
</linearGradient>
<clipPath id="clip0_2329_8682">
<rect width="61.9048" height="60" fill="white" transform="translate(23 40)"/>
</clipPath>
</defs>
</svg>
