<svg width="65" height="64" viewBox="0 0 65 64" fill="none" xmlns="http://www.w3.org/2000/svg">
<g clip-path="url(#clip0_1982_2788)">
<path fill-rule="evenodd" clip-rule="evenodd" d="M33.7137 40.2762L55.9596 62.5352C57.9237 64.4883 61.0795 64.4883 63.0437 62.5352V62.533C64.9858 60.5776 64.9858 57.4085 63.0437 55.4554L40.7762 33.1964C42.8507 29.8728 44.0203 25.9555 44.0203 21.7624C44.0203 9.75015 34.2876 0 22.2599 0C10.2543 0 0.5 9.75015 0.5 21.7624C0.5 33.7724 10.2543 43.5226 22.2599 43.5226C26.453 43.5226 30.3812 42.3353 33.7137 40.2762ZM44.175 39.7068L40.2024 43.666L57.5264 60.9727C58.6078 62.0673 60.3955 62.0673 61.4769 60.9749C62.5803 59.8825 62.5803 58.1081 61.4769 57.0157L44.175 39.7068ZM39.496 35.0392C38.3705 36.5222 37.0242 37.8552 35.5456 38.9984L38.6577 42.1057L42.6076 38.1465L39.496 35.0392ZM22.2599 2.20692C33.0517 2.20692 41.8134 10.9684 41.8134 21.7624C41.8134 32.5542 33.0517 41.3157 22.2599 41.3157C11.4681 41.3157 2.70692 32.5542 2.70692 21.7624C2.70692 10.9684 11.4681 2.20692 22.2599 2.20692ZM21.1564 10.6109C15.8598 11.1295 11.6445 15.3535 11.1149 20.6589H7.6283C7.03243 20.6589 6.52484 21.1533 6.52484 21.7624C6.52484 22.3715 7.03243 22.8659 7.6283 22.8659H11.1149C11.6445 28.1691 15.8598 32.3931 21.1564 32.9117V36.3942C21.1564 37.0033 21.664 37.4977 22.2599 37.4977C22.8778 37.4977 23.3634 37.0033 23.3634 36.3942V32.9117C28.682 32.3931 32.8974 28.1691 33.427 22.8659H36.892C37.51 22.8659 37.9955 22.3715 37.9955 21.7624C37.9955 21.1533 37.51 20.6589 36.892 20.6589H33.427C32.8974 15.3535 28.682 11.1295 23.3634 10.6109V7.13054C23.3634 6.52144 22.8778 6.02709 22.2599 6.02709C21.664 6.02709 21.1564 6.52144 21.1564 7.13054V10.6109ZM23.3634 12.831V16.7086C23.3634 17.3177 22.8778 17.812 22.2599 17.812C21.664 17.812 21.1564 17.3177 21.1564 16.7086V12.831C17.0736 13.332 13.8294 16.5739 13.3439 20.6589H17.206C17.8239 20.6589 18.3094 21.1533 18.3094 21.7624C18.3094 22.3715 17.8239 22.8659 17.206 22.8659H13.3439C13.8294 26.9509 17.0736 30.1928 21.1564 30.6916V26.814C21.1564 26.2049 21.664 25.7106 22.2599 25.7106C22.8778 25.7106 23.3634 26.2049 23.3634 26.814V30.6916C27.4462 30.1928 30.6904 26.9486 31.198 22.8659H27.3138C26.718 22.8659 26.2104 22.3715 26.2104 21.7624C26.2104 21.1533 26.718 20.6589 27.3138 20.6589H31.198C30.6904 16.5739 27.4462 13.332 23.3634 12.831Z" fill="#3564DF"/>
</g>
<defs>
<clipPath id="clip0_1982_2788">
<rect width="64" height="64" fill="white" transform="translate(0.5)"/>
</clipPath>
</defs>
</svg>
