<svg width="285" height="300" viewBox="0 0 285 300" fill="none" xmlns="http://www.w3.org/2000/svg">
<rect width="285" height="300" rx="10" transform="matrix(1 0 0 -1 0 300)" fill="url(#paint0_linear_2388_15434)"/>
<mask id="mask0_2388_15434" style="mask-type:alpha" maskUnits="userSpaceOnUse" x="0" y="0" width="285" height="300">
<rect width="285" height="300" rx="10" transform="matrix(1 0 0 -1 0 300)" fill="url(#paint1_linear_2388_15434)"/>
</mask>
<g mask="url(#mask0_2388_15434)">
<rect x="338.605" y="-128" width="58.3621" height="344.727" rx="29.1811" transform="rotate(43.8011 338.605 -128)" fill="url(#paint2_linear_2388_15434)" fill-opacity="0.24"/>
<rect x="436.605" y="-128" width="58.3621" height="344.727" rx="29.1811" transform="rotate(43.8011 436.605 -128)" fill="url(#paint3_linear_2388_15434)" fill-opacity="0.24"/>
</g>
<path d="M31.48 235.24C30.4267 235.24 29.4467 235.047 28.54 234.66C27.6467 234.273 26.8667 233.74 26.2 233.06C25.5467 232.367 25.0333 231.553 24.66 230.62C24.2867 229.687 24.1 228.66 24.1 227.54C24.1 226.433 24.28 225.413 24.64 224.48C25.0133 223.533 25.5333 222.72 26.2 222.04C26.8667 221.347 27.6467 220.813 28.54 220.44C29.4333 220.053 30.4133 219.86 31.48 219.86C32.5333 219.86 33.4733 220.04 34.3 220.4C35.14 220.76 35.8467 221.233 36.42 221.82C36.9933 222.393 37.4067 223.02 37.66 223.7L35.54 224.7C35.22 223.9 34.7067 223.253 34 222.76C33.3067 222.253 32.4667 222 31.48 222C30.4933 222 29.62 222.233 28.86 222.7C28.1 223.167 27.5067 223.813 27.08 224.64C26.6667 225.467 26.46 226.433 26.46 227.54C26.46 228.647 26.6667 229.62 27.08 230.46C27.5067 231.287 28.1 231.933 28.86 232.4C29.62 232.853 30.4933 233.08 31.48 233.08C32.4667 233.08 33.3067 232.833 34 232.34C34.7067 231.847 35.22 231.2 35.54 230.4L37.66 231.4C37.4067 232.067 36.9933 232.693 36.42 233.28C35.8467 233.867 35.14 234.34 34.3 234.7C33.4733 235.06 32.5333 235.24 31.48 235.24ZM44.8916 235.24C43.8516 235.24 42.8982 234.993 42.0316 234.5C41.1782 234.007 40.4982 233.333 39.9916 232.48C39.4849 231.627 39.2316 230.66 39.2316 229.58C39.2316 228.487 39.4849 227.52 39.9916 226.68C40.4982 225.827 41.1782 225.16 42.0316 224.68C42.8849 224.187 43.8382 223.94 44.8916 223.94C45.9582 223.94 46.9116 224.187 47.7516 224.68C48.6049 225.16 49.2782 225.827 49.7716 226.68C50.2782 227.52 50.5316 228.487 50.5316 229.58C50.5316 230.673 50.2782 231.647 49.7716 232.5C49.2649 233.353 48.5849 234.027 47.7316 234.52C46.8782 235 45.9316 235.24 44.8916 235.24ZM44.8916 233.14C45.5316 233.14 46.0982 232.987 46.5916 232.68C47.0849 232.373 47.4716 231.953 47.7516 231.42C48.0449 230.873 48.1916 230.26 48.1916 229.58C48.1916 228.9 48.0449 228.293 47.7516 227.76C47.4716 227.227 47.0849 226.807 46.5916 226.5C46.0982 226.193 45.5316 226.04 44.8916 226.04C44.2649 226.04 43.6982 226.193 43.1916 226.5C42.6982 226.807 42.3049 227.227 42.0116 227.76C41.7316 228.293 41.5916 228.9 41.5916 229.58C41.5916 230.26 41.7316 230.873 42.0116 231.42C42.3049 231.953 42.6982 232.373 43.1916 232.68C43.6982 232.987 44.2649 233.14 44.8916 233.14ZM52.738 235V224.18H54.898V226.52L54.618 226.16C54.8446 225.427 55.258 224.873 55.858 224.5C56.458 224.127 57.1446 223.94 57.918 223.94C58.7846 223.94 59.5513 224.173 60.218 224.64C60.898 225.093 61.3513 225.7 61.578 226.46L60.938 226.52C61.258 225.653 61.7446 225.007 62.398 224.58C63.0646 224.153 63.8246 223.94 64.678 223.94C65.4246 223.94 66.098 224.113 66.698 224.46C67.3113 224.807 67.798 225.287 68.158 225.9C68.518 226.513 68.698 227.213 68.698 228V235H66.438V228.62C66.438 228.073 66.338 227.613 66.138 227.24C65.9513 226.853 65.6846 226.56 65.338 226.36C65.0046 226.147 64.6113 226.04 64.158 226.04C63.7046 226.04 63.3046 226.147 62.958 226.36C62.6113 226.56 62.338 226.853 62.138 227.24C61.938 227.627 61.838 228.087 61.838 228.62V235H59.598V228.62C59.598 228.073 59.498 227.613 59.298 227.24C59.1113 226.853 58.8446 226.56 58.498 226.36C58.1646 226.147 57.7646 226.04 57.298 226.04C56.8446 226.04 56.4446 226.147 56.098 226.36C55.7513 226.56 55.478 226.853 55.278 227.24C55.0913 227.627 54.998 228.087 54.998 228.62V235H52.738ZM71.1169 239V224.18H73.2769V226.42L73.0169 225.9C73.4169 225.287 73.9502 224.807 74.6169 224.46C75.2835 224.113 76.0435 223.94 76.8969 223.94C77.9235 223.94 78.8435 224.187 79.6569 224.68C80.4835 225.173 81.1302 225.847 81.5969 226.7C82.0769 227.553 82.3169 228.513 82.3169 229.58C82.3169 230.647 82.0769 231.607 81.5969 232.46C81.1302 233.313 80.4902 233.993 79.6769 234.5C78.8635 234.993 77.9369 235.24 76.8969 235.24C76.0569 235.24 75.2902 235.067 74.5969 234.72C73.9169 234.373 73.3902 233.873 73.0169 233.22L73.3769 232.8V239H71.1169ZM76.6769 233.14C77.3169 233.14 77.8835 232.987 78.3769 232.68C78.8702 232.373 79.2569 231.953 79.5369 231.42C79.8302 230.873 79.9769 230.26 79.9769 229.58C79.9769 228.9 79.8302 228.293 79.5369 227.76C79.2569 227.227 78.8702 226.807 78.3769 226.5C77.8835 226.193 77.3169 226.04 76.6769 226.04C76.0502 226.04 75.4835 226.193 74.9769 226.5C74.4835 226.807 74.0902 227.227 73.7969 227.76C73.5169 228.293 73.3769 228.9 73.3769 229.58C73.3769 230.26 73.5169 230.873 73.7969 231.42C74.0902 231.953 74.4835 232.373 74.9769 232.68C75.4835 232.987 76.0502 233.14 76.6769 233.14ZM84.5153 235V224.18H86.6753V226.36L86.4753 226.04C86.7153 225.333 87.102 224.827 87.6353 224.52C88.1686 224.2 88.8086 224.04 89.5553 224.04H90.2153V226.1H89.2753C88.5286 226.1 87.922 226.333 87.4553 226.8C87.002 227.253 86.7753 227.907 86.7753 228.76V235H84.5153ZM96.8414 235.24C95.7614 235.24 94.8014 234.993 93.9614 234.5C93.1347 233.993 92.4881 233.313 92.0214 232.46C91.5547 231.593 91.3214 230.627 91.3214 229.56C91.3214 228.467 91.5547 227.5 92.0214 226.66C92.5014 225.82 93.1414 225.16 93.9414 224.68C94.7414 224.187 95.6481 223.94 96.6614 223.94C97.4747 223.94 98.2014 224.08 98.8414 224.36C99.4814 224.64 100.021 225.027 100.461 225.52C100.901 226 101.235 226.553 101.461 227.18C101.701 227.807 101.821 228.473 101.821 229.18C101.821 229.353 101.815 229.533 101.801 229.72C101.788 229.907 101.761 230.08 101.721 230.24H93.1014V228.44H100.441L99.3614 229.26C99.4947 228.607 99.4481 228.027 99.2214 227.52C99.0081 227 98.6747 226.593 98.2214 226.3C97.7814 225.993 97.2614 225.84 96.6614 225.84C96.0614 225.84 95.5281 225.993 95.0614 226.3C94.5947 226.593 94.2347 227.02 93.9814 227.58C93.7281 228.127 93.6281 228.793 93.6814 229.58C93.6147 230.313 93.7147 230.953 93.9814 231.5C94.2614 232.047 94.6481 232.473 95.1414 232.78C95.6481 233.087 96.2214 233.24 96.8614 233.24C97.5147 233.24 98.0681 233.093 98.5214 232.8C98.9881 232.507 99.3547 232.127 99.6214 231.66L101.461 232.56C101.248 233.067 100.915 233.527 100.461 233.94C100.021 234.34 99.4881 234.66 98.8614 234.9C98.2481 235.127 97.5747 235.24 96.8414 235.24ZM104.027 235V219.86H106.287V226.3L105.927 226.02C106.194 225.34 106.62 224.827 107.207 224.48C107.794 224.12 108.474 223.94 109.247 223.94C110.047 223.94 110.754 224.113 111.367 224.46C111.98 224.807 112.46 225.287 112.807 225.9C113.154 226.513 113.327 227.213 113.327 228V235H111.087V228.62C111.087 228.073 110.98 227.613 110.767 227.24C110.567 226.853 110.287 226.56 109.927 226.36C109.567 226.147 109.154 226.04 108.687 226.04C108.234 226.04 107.82 226.147 107.447 226.36C107.087 226.56 106.8 226.853 106.587 227.24C106.387 227.627 106.287 228.087 106.287 228.62V235H104.027ZM120.826 235.24C119.746 235.24 118.786 234.993 117.946 234.5C117.119 233.993 116.472 233.313 116.006 232.46C115.539 231.593 115.306 230.627 115.306 229.56C115.306 228.467 115.539 227.5 116.006 226.66C116.486 225.82 117.126 225.16 117.926 224.68C118.726 224.187 119.632 223.94 120.646 223.94C121.459 223.94 122.186 224.08 122.826 224.36C123.466 224.64 124.006 225.027 124.446 225.52C124.886 226 125.219 226.553 125.446 227.18C125.686 227.807 125.806 228.473 125.806 229.18C125.806 229.353 125.799 229.533 125.786 229.72C125.772 229.907 125.746 230.08 125.706 230.24H117.086V228.44H124.426L123.346 229.26C123.479 228.607 123.432 228.027 123.206 227.52C122.992 227 122.659 226.593 122.206 226.3C121.766 225.993 121.246 225.84 120.646 225.84C120.046 225.84 119.512 225.993 119.046 226.3C118.579 226.593 118.219 227.02 117.966 227.58C117.712 228.127 117.612 228.793 117.666 229.58C117.599 230.313 117.699 230.953 117.966 231.5C118.246 232.047 118.632 232.473 119.126 232.78C119.632 233.087 120.206 233.24 120.846 233.24C121.499 233.24 122.052 233.093 122.506 232.8C122.972 232.507 123.339 232.127 123.606 231.66L125.446 232.56C125.232 233.067 124.899 233.527 124.446 233.94C124.006 234.34 123.472 234.66 122.846 234.9C122.232 235.127 121.559 235.24 120.826 235.24ZM128.011 235V224.18H130.171V226.3L129.911 226.02C130.178 225.34 130.605 224.827 131.191 224.48C131.778 224.12 132.458 223.94 133.231 223.94C134.031 223.94 134.738 224.113 135.351 224.46C135.965 224.807 136.445 225.287 136.791 225.9C137.138 226.513 137.311 227.22 137.311 228.02V235H135.071V228.62C135.071 228.073 134.971 227.613 134.771 227.24C134.571 226.853 134.285 226.56 133.911 226.36C133.551 226.147 133.138 226.04 132.671 226.04C132.205 226.04 131.785 226.147 131.411 226.36C131.051 226.56 130.771 226.853 130.571 227.24C130.371 227.627 130.271 228.087 130.271 228.62V235H128.011ZM143.73 235.24C142.623 235.24 141.65 234.967 140.81 234.42C139.983 233.873 139.403 233.14 139.07 232.22L140.81 231.4C141.103 232.013 141.503 232.5 142.01 232.86C142.53 233.22 143.103 233.4 143.73 233.4C144.263 233.4 144.697 233.28 145.03 233.04C145.363 232.8 145.53 232.473 145.53 232.06C145.53 231.793 145.457 231.58 145.31 231.42C145.163 231.247 144.977 231.107 144.75 231C144.537 230.893 144.317 230.813 144.09 230.76L142.39 230.28C141.457 230.013 140.757 229.613 140.29 229.08C139.837 228.533 139.61 227.9 139.61 227.18C139.61 226.527 139.777 225.96 140.11 225.48C140.443 224.987 140.903 224.607 141.49 224.34C142.077 224.073 142.737 223.94 143.47 223.94C144.457 223.94 145.337 224.187 146.11 224.68C146.883 225.16 147.43 225.833 147.75 226.7L146.01 227.52C145.797 227 145.457 226.587 144.99 226.28C144.537 225.973 144.023 225.82 143.45 225.82C142.957 225.82 142.563 225.94 142.27 226.18C141.977 226.407 141.83 226.707 141.83 227.08C141.83 227.333 141.897 227.547 142.03 227.72C142.163 227.88 142.337 228.013 142.55 228.12C142.763 228.213 142.983 228.293 143.21 228.36L144.97 228.88C145.863 229.133 146.55 229.533 147.03 230.08C147.51 230.613 147.75 231.253 147.75 232C147.75 232.64 147.577 233.207 147.23 233.7C146.897 234.18 146.43 234.56 145.83 234.84C145.23 235.107 144.53 235.24 143.73 235.24ZM149.965 235V224.18H152.225V235H149.965ZM149.965 222.7V220.1H152.225V222.7H149.965ZM158.007 235L153.767 224.18H156.227L159.487 233H158.587L161.847 224.18H164.327L160.067 235H158.007ZM170.748 235.24C169.668 235.24 168.708 234.993 167.868 234.5C167.041 233.993 166.394 233.313 165.928 232.46C165.461 231.593 165.228 230.627 165.228 229.56C165.228 228.467 165.461 227.5 165.928 226.66C166.408 225.82 167.048 225.16 167.848 224.68C168.648 224.187 169.554 223.94 170.568 223.94C171.381 223.94 172.108 224.08 172.748 224.36C173.388 224.64 173.928 225.027 174.368 225.52C174.808 226 175.141 226.553 175.368 227.18C175.608 227.807 175.728 228.473 175.728 229.18C175.728 229.353 175.721 229.533 175.708 229.72C175.694 229.907 175.668 230.08 175.628 230.24H167.008V228.44H174.348L173.268 229.26C173.401 228.607 173.354 228.027 173.128 227.52C172.914 227 172.581 226.593 172.128 226.3C171.688 225.993 171.168 225.84 170.568 225.84C169.968 225.84 169.434 225.993 168.968 226.3C168.501 226.593 168.141 227.02 167.888 227.58C167.634 228.127 167.534 228.793 167.588 229.58C167.521 230.313 167.621 230.953 167.888 231.5C168.168 232.047 168.554 232.473 169.048 232.78C169.554 233.087 170.128 233.24 170.768 233.24C171.421 233.24 171.974 233.093 172.428 232.8C172.894 232.507 173.261 232.127 173.528 231.66L175.368 232.56C175.154 233.067 174.821 233.527 174.368 233.94C173.928 234.34 173.394 234.66 172.768 234.9C172.154 235.127 171.481 235.24 170.748 235.24ZM186.869 235.24C185.936 235.24 185.069 235.067 184.269 234.72C183.469 234.36 182.789 233.873 182.229 233.26C181.669 232.647 181.256 231.94 180.989 231.14L182.989 230.3C183.349 231.22 183.876 231.927 184.569 232.42C185.263 232.913 186.063 233.16 186.969 233.16C187.503 233.16 187.969 233.08 188.369 232.92C188.769 232.747 189.076 232.507 189.289 232.2C189.516 231.893 189.629 231.54 189.629 231.14C189.629 230.593 189.476 230.16 189.169 229.84C188.863 229.52 188.409 229.267 187.809 229.08L185.009 228.2C183.889 227.853 183.036 227.327 182.449 226.62C181.863 225.9 181.569 225.06 181.569 224.1C181.569 223.26 181.776 222.527 182.189 221.9C182.603 221.26 183.169 220.76 183.889 220.4C184.623 220.04 185.456 219.86 186.389 219.86C187.283 219.86 188.096 220.02 188.829 220.34C189.563 220.647 190.189 221.073 190.709 221.62C191.243 222.167 191.629 222.8 191.869 223.52L189.909 224.38C189.616 223.593 189.156 222.987 188.529 222.56C187.916 222.133 187.203 221.92 186.389 221.92C185.896 221.92 185.463 222.007 185.089 222.18C184.716 222.34 184.423 222.58 184.209 222.9C184.009 223.207 183.909 223.567 183.909 223.98C183.909 224.46 184.063 224.887 184.369 225.26C184.676 225.633 185.143 225.913 185.769 226.1L188.369 226.92C189.556 227.28 190.449 227.8 191.049 228.48C191.649 229.147 191.949 229.98 191.949 230.98C191.949 231.807 191.729 232.54 191.289 233.18C190.863 233.82 190.269 234.327 189.509 234.7C188.749 235.06 187.869 235.24 186.869 235.24ZM199.599 235.24C198.559 235.24 197.605 234.993 196.739 234.5C195.885 234.007 195.205 233.333 194.699 232.48C194.192 231.627 193.939 230.66 193.939 229.58C193.939 228.487 194.192 227.52 194.699 226.68C195.205 225.827 195.885 225.16 196.739 224.68C197.592 224.187 198.545 223.94 199.599 223.94C200.665 223.94 201.619 224.187 202.459 224.68C203.312 225.16 203.985 225.827 204.479 226.68C204.985 227.52 205.239 228.487 205.239 229.58C205.239 230.673 204.985 231.647 204.479 232.5C203.972 233.353 203.292 234.027 202.439 234.52C201.585 235 200.639 235.24 199.599 235.24ZM199.599 233.14C200.239 233.14 200.805 232.987 201.299 232.68C201.792 232.373 202.179 231.953 202.459 231.42C202.752 230.873 202.899 230.26 202.899 229.58C202.899 228.9 202.752 228.293 202.459 227.76C202.179 227.227 201.792 226.807 201.299 226.5C200.805 226.193 200.239 226.04 199.599 226.04C198.972 226.04 198.405 226.193 197.899 226.5C197.405 226.807 197.012 227.227 196.719 227.76C196.439 228.293 196.299 228.9 196.299 229.58C196.299 230.26 196.439 230.873 196.719 231.42C197.012 231.953 197.405 232.373 197.899 232.68C198.405 232.987 198.972 233.14 199.599 233.14ZM207.445 235V219.86H209.705V235H207.445ZM216.207 235.24C215.394 235.24 214.681 235.06 214.067 234.7C213.454 234.327 212.974 233.813 212.627 233.16C212.294 232.493 212.127 231.727 212.127 230.86V224.18H214.387V230.66C214.387 231.153 214.487 231.587 214.687 231.96C214.887 232.333 215.167 232.627 215.527 232.84C215.887 233.04 216.301 233.14 216.767 233.14C217.247 233.14 217.667 233.033 218.027 232.82C218.387 232.607 218.667 232.307 218.867 231.92C219.081 231.533 219.187 231.08 219.187 230.56V224.18H221.427V235H219.287V232.88L219.527 233.16C219.274 233.827 218.854 234.34 218.267 234.7C217.681 235.06 216.994 235.24 216.207 235.24ZM228.746 235.12C227.613 235.12 226.733 234.8 226.106 234.16C225.479 233.52 225.166 232.62 225.166 231.46V226.22H223.266V224.18H223.566C224.073 224.18 224.466 224.033 224.746 223.74C225.026 223.447 225.166 223.047 225.166 222.54V221.7H227.426V224.18H229.886V226.22H227.426V231.36C227.426 231.733 227.486 232.053 227.606 232.32C227.726 232.573 227.919 232.773 228.186 232.92C228.453 233.053 228.799 233.12 229.226 233.12C229.333 233.12 229.453 233.113 229.586 233.1C229.719 233.087 229.846 233.073 229.966 233.06V235C229.779 235.027 229.573 235.053 229.346 235.08C229.119 235.107 228.919 235.12 228.746 235.12ZM232.172 235V224.18H234.432V235H232.172ZM232.172 222.7V220.1H234.432V222.7H232.172ZM242.294 235.24C241.254 235.24 240.301 234.993 239.434 234.5C238.581 234.007 237.901 233.333 237.394 232.48C236.887 231.627 236.634 230.66 236.634 229.58C236.634 228.487 236.887 227.52 237.394 226.68C237.901 225.827 238.581 225.16 239.434 224.68C240.287 224.187 241.241 223.94 242.294 223.94C243.361 223.94 244.314 224.187 245.154 224.68C246.007 225.16 246.681 225.827 247.174 226.68C247.681 227.52 247.934 228.487 247.934 229.58C247.934 230.673 247.681 231.647 247.174 232.5C246.667 233.353 245.987 234.027 245.134 234.52C244.281 235 243.334 235.24 242.294 235.24ZM242.294 233.14C242.934 233.14 243.501 232.987 243.994 232.68C244.487 232.373 244.874 231.953 245.154 231.42C245.447 230.873 245.594 230.26 245.594 229.58C245.594 228.9 245.447 228.293 245.154 227.76C244.874 227.227 244.487 226.807 243.994 226.5C243.501 226.193 242.934 226.04 242.294 226.04C241.667 226.04 241.101 226.193 240.594 226.5C240.101 226.807 239.707 227.227 239.414 227.76C239.134 228.293 238.994 228.9 238.994 229.58C238.994 230.26 239.134 230.873 239.414 231.42C239.707 231.953 240.101 232.373 240.594 232.68C241.101 232.987 241.667 233.14 242.294 233.14ZM250.14 235V224.18H252.3V226.3L252.04 226.02C252.307 225.34 252.734 224.827 253.32 224.48C253.907 224.12 254.587 223.94 255.36 223.94C256.16 223.94 256.867 224.113 257.48 224.46C258.094 224.807 258.574 225.287 258.92 225.9C259.267 226.513 259.44 227.22 259.44 228.02V235H257.2V228.62C257.2 228.073 257.1 227.613 256.9 227.24C256.7 226.853 256.414 226.56 256.04 226.36C255.68 226.147 255.267 226.04 254.8 226.04C254.334 226.04 253.914 226.147 253.54 226.36C253.18 226.56 252.9 226.853 252.7 227.24C252.5 227.627 252.4 228.087 252.4 228.62V235H250.14Z" fill="white"/>
<path d="M52.6695 49.7168C41.7507 49.7168 32.8652 58.6023 32.8652 69.5211C32.8652 74.9906 35.1561 80.2666 39.1505 84.0059C41.7131 86.3922 42.9511 89.1284 43.116 92.7699C41.1202 93.2298 40.0847 95.0057 40.0847 96.7672C40.0847 98.815 41.4817 100.886 44.1659 100.886H44.5824C45.0538 104.932 48.4987 108.082 52.6696 108.082C56.8406 108.082 60.2852 104.933 60.754 100.883H61.1531C63.8286 100.883 65.2343 98.8121 65.2343 96.7643C65.2343 95.0028 64.1988 93.2269 62.203 92.767C62.3621 89.1255 63.6 86.3893 66.1685 84.003C70.1716 80.2718 72.4768 74.9902 72.4768 69.5182C72.4739 58.6024 63.5883 49.7168 52.6695 49.7168ZM52.6695 106.186C49.5428 106.186 46.9512 103.88 46.4884 100.881H58.8503C58.3875 103.883 55.7962 106.186 52.6695 106.186ZM63.3365 96.7647C63.3365 97.8667 62.6655 98.9861 61.1528 98.9861H44.163C42.659 98.9861 41.9792 97.8667 41.9792 96.7647C41.9792 95.6627 42.6503 94.5433 44.163 94.5433H61.1557C62.6656 94.5433 63.3365 95.6627 63.3365 96.7647ZM64.8724 82.6205C61.9626 85.3336 60.4991 88.5355 60.3081 92.6544H45.0073C44.8193 88.5443 43.3528 85.3337 40.4431 82.6205C36.8305 79.2421 34.7537 74.4666 34.7537 69.5181C34.7537 59.6434 42.7862 51.6109 52.6609 51.6109C62.5356 51.6109 70.5681 59.6434 70.5681 69.5181C70.5768 74.467 68.4994 79.2425 64.8724 82.6205Z" fill="white" stroke="white" stroke-width="0.2"/>
<path d="M52.1783 47.125C52.6989 47.125 53.1241 46.7027 53.1241 46.1792V41.0249C53.1241 40.5043 52.6989 40.082 52.1783 40.082C51.6576 40.082 51.2325 40.5043 51.2325 41.0278V46.1734C51.2267 46.694 51.649 47.125 52.1783 47.125Z" fill="white" stroke="white" stroke-width="0.2"/>
<path d="M39.7278 50.0392C39.9014 50.34 40.2195 50.5164 40.5522 50.5164C40.7113 50.5164 40.8761 50.4788 41.0294 50.3892C41.4835 50.126 41.6426 49.5504 41.3765 49.0963L38.7907 44.613C38.5275 44.1589 37.9519 43.9998 37.4978 44.2659C37.0437 44.5291 36.8846 45.1047 37.1507 45.5588L39.7278 50.0392Z" fill="white" stroke="white" stroke-width="0.2"/>
<path d="M27.2374 56.5309L31.6946 59.1081C31.845 59.192 32.0041 59.2354 32.1719 59.2354C32.4958 59.2354 32.814 59.0705 32.9962 58.7581C33.2594 58.304 33.1032 57.7227 32.6491 57.4652L28.1919 54.8881C27.7378 54.6306 27.1565 54.781 26.899 55.2351C26.6329 55.6921 26.7833 56.2735 27.2374 56.5309Z" fill="white" stroke="white" stroke-width="0.2"/>
<path d="M30.2509 70.0473C30.2509 69.5267 29.8286 69.1016 29.3051 69.1016H24.145C23.6244 69.1016 23.1992 69.5239 23.1992 70.0473C23.1992 70.568 23.6215 70.9931 24.145 70.9931H29.3051C29.8286 70.9931 30.2509 70.5679 30.2509 70.0473Z" fill="white" stroke="white" stroke-width="0.2"/>
<path d="M32.2089 80.8361L27.7517 83.4133C27.2976 83.6765 27.1472 84.2521 27.4047 84.7062C27.5782 85.007 27.8964 85.1834 28.229 85.1834C28.3881 85.1834 28.553 85.1458 28.7062 85.0562L33.1634 82.479C33.6175 82.2158 33.7679 81.6402 33.5105 81.1861C33.2444 80.7233 32.663 80.5729 32.2089 80.8361Z" fill="white" stroke="white" stroke-width="0.2"/>
<path d="M63.436 49.8719C63.5864 49.9558 63.7455 49.9992 63.9133 49.9992C64.2372 49.9992 64.5554 49.8343 64.7376 49.5219L67.3148 45.0648C67.578 44.6106 67.4218 44.0293 66.9677 43.7718C66.5136 43.5144 65.9322 43.6648 65.6748 44.1189L63.0976 48.5761C62.8315 49.0331 62.9848 49.6173 63.436 49.8719Z" fill="white" stroke="white" stroke-width="0.2"/>
<path d="M72.6539 58.3819C72.813 58.3819 72.9779 58.3443 73.1312 58.2546L77.5883 55.6775C78.0424 55.4143 78.1929 54.8387 77.9354 54.3846C77.6722 53.9304 77.0966 53.78 76.6425 54.0375L72.1853 56.6146C71.7312 56.8778 71.5808 57.4534 71.8382 57.9075C72.0118 58.2083 72.3299 58.3819 72.6539 58.3819Z" fill="white" stroke="white" stroke-width="0.2"/>
<path d="M81.1918 68.0977H76.0317C75.5111 68.0977 75.0859 68.5199 75.0859 69.0434C75.0859 69.5641 75.5082 69.9892 76.0317 69.9892H81.1918C81.7124 69.9892 82.1376 69.5669 82.1376 69.0434C82.1376 68.5199 81.7124 68.0977 81.1918 68.0977Z" fill="white" stroke="white" stroke-width="0.2"/>
<path d="M78.0792 82.5508L73.622 79.9736C73.1679 79.7104 72.5866 79.8666 72.3291 80.3207C72.0659 80.7748 72.2221 81.3562 72.6762 81.6136L77.1334 84.1908C77.2838 84.2747 77.4429 84.3181 77.6106 84.3181C77.9346 84.3181 78.2527 84.1532 78.435 83.8408C78.6924 83.3983 78.5333 82.8169 78.0792 82.5508Z" fill="white" stroke="white" stroke-width="0.2"/>
<path d="M46.7699 65.4299C46.3014 65.1869 45.7345 65.3691 45.4943 65.8377C45.2514 66.3063 45.4336 66.8732 45.9022 67.1133C46.9434 67.6484 47.5884 68.7157 47.5884 69.8871C47.5884 71.0673 46.9376 72.1374 45.9022 72.6754C45.4336 72.9184 45.2514 73.4911 45.4943 73.951C45.6592 74.2749 45.9918 74.4658 46.3331 74.4658C46.4777 74.4658 46.6282 74.4282 46.7728 74.3588C48.4417 73.4911 49.4859 71.7816 49.4859 69.8871C49.4743 67.9983 48.4388 66.2918 46.7699 65.4299Z" fill="white" stroke="white" stroke-width="0.2"/>
<path d="M64.6538 64.236C65.0385 62.8014 64.7377 61.2452 63.7918 60.042C62.8778 58.8937 61.5097 58.2429 60.0809 58.2429C59.5371 56.7157 58.2008 55.5906 56.5435 55.3273C55.2506 55.1306 53.9288 55.4777 53.0003 56.2731C52.8788 56.3715 52.7746 56.4843 52.6676 56.5971C52.5606 56.4843 52.4565 56.3772 52.335 56.2731C51.4123 55.4806 50.0847 55.1248 48.7918 55.3273C47.1459 55.5848 45.801 56.7099 45.2485 58.2429H45.2399C43.8197 58.2429 42.4602 58.8937 41.5462 60.042C40.5859 61.2423 40.2765 62.7985 40.6698 64.2418C39.1426 65.6243 38.2981 67.6114 38.3964 69.6882C38.4803 71.6146 39.3567 73.3818 40.8231 74.6227C40.6958 75.4326 40.7479 76.2772 41.0053 77.1015C41.6619 79.1638 43.4899 80.6216 45.5984 80.8414C46.1133 82.276 47.3281 83.3491 48.8698 83.6673C49.1561 83.728 49.4454 83.7512 49.7375 83.7512C50.7499 83.7512 51.7709 83.4185 52.5027 82.8227C52.5634 82.7764 52.6155 82.7244 52.6676 82.6723C52.7196 82.7244 52.7746 82.7793 52.8324 82.8227C53.5584 83.4185 54.5766 83.7512 55.5976 83.7512C55.8926 83.7512 56.1876 83.7222 56.4653 83.6673C57.9839 83.3578 59.216 82.2616 59.7222 80.8414C61.8452 80.6216 63.6732 79.1638 64.3298 77.1015C64.5872 76.2858 64.6306 75.4384 64.5034 74.6314C65.9553 73.3848 66.8375 71.6233 66.9359 69.6912C67.0256 67.5913 66.181 65.6041 64.6538 64.236ZM51.3026 81.3502C50.8109 81.758 49.9432 81.946 49.2461 81.8043C48.2193 81.5931 47.4413 80.7919 47.2677 79.7565C47.1925 79.2879 46.7702 78.9466 46.293 78.9697C44.7051 79.0392 43.2791 78.0239 42.8105 76.5285C42.3333 75.01 42.932 73.3614 44.2625 72.5167C44.7021 72.2362 44.8381 71.649 44.5575 71.2094C44.277 70.7697 43.6898 70.6338 43.2502 70.9143C42.5329 71.3685 41.9573 71.9788 41.535 72.6758C40.7859 71.8284 40.3404 70.7552 40.2883 69.6012C40.2045 67.915 40.9767 66.3154 42.3361 65.3175C42.3506 65.3031 42.3651 65.2886 42.3824 65.2799C42.4114 65.2568 42.4432 65.2279 42.4721 65.196C42.4952 65.1729 42.5097 65.1498 42.5242 65.1266C42.5473 65.1035 42.5618 65.0746 42.5849 65.0514C42.5994 65.0225 42.6138 64.9907 42.6312 64.9676C42.6456 64.9444 42.6601 64.9155 42.6688 64.8923C42.6774 64.8634 42.6832 64.8316 42.6919 64.8027C42.7006 64.7738 42.7064 64.7506 42.7151 64.7188C42.7237 64.6899 42.7237 64.6581 42.7237 64.6291C42.7237 64.6002 42.7324 64.5684 42.7324 64.5395C42.7324 64.5106 42.7237 64.4701 42.7179 64.4411C42.7179 64.4122 42.7093 64.3891 42.7093 64.3573C42.7006 64.3197 42.6861 64.2734 42.6717 64.2358C42.663 64.2213 42.663 64.1982 42.6572 64.1837C42.2262 63.209 42.3709 62.0839 43.0419 61.245C43.7071 60.4062 44.7657 60.0128 45.7984 60.2182C46.0471 60.2703 46.3132 60.2095 46.5244 60.0678C46.7355 59.9174 46.8802 59.6889 46.9178 59.4401C47.0913 58.3005 47.9764 57.4154 49.1015 57.2419C49.8564 57.1204 50.6114 57.3171 51.1176 57.7567C51.3981 57.9997 51.7307 58.4278 51.7307 59.1249V60.3802C51.0279 60.0013 50.2209 59.8219 49.3879 59.8653C48.8672 59.8942 48.4652 60.3483 48.497 60.869C48.5259 61.3896 48.9743 61.783 49.5007 61.7599C50.3858 61.6991 51.2159 62.1214 51.7307 62.8561V76.5397C51.2159 77.2715 50.3858 77.688 49.5007 77.636C48.9714 77.6071 48.526 77.9975 48.497 78.5268C48.4681 79.0475 48.8672 79.5016 49.3879 79.5305C49.4775 79.5392 49.5701 79.5392 49.6597 79.5392C50.3915 79.5392 51.103 79.3512 51.7365 79.0099V80.5603C51.7249 80.8437 51.5832 81.1246 51.3026 81.3502ZM63.8008 72.6757C63.3843 71.9815 62.8116 71.377 62.1 70.9142C61.6604 70.6337 61.0732 70.7638 60.7927 71.2006C60.5121 71.6402 60.6423 72.2274 61.079 72.5079C62.4096 73.3612 63.0054 75.0099 62.5368 76.5197C62.0596 78.0238 60.6162 79.0419 59.0312 78.961C58.5626 78.9378 58.1317 79.2849 58.0565 79.7621C57.8974 80.7745 57.1107 81.5902 56.0983 81.8013C55.3955 81.9459 54.5278 81.7492 54.036 81.3472C53.7555 81.1129 53.6137 80.841 53.6137 80.4997V78.9493C54.2472 79.2906 54.9587 79.4787 55.6905 79.4787C55.7744 79.4787 55.864 79.4787 55.9479 79.47C56.4685 79.441 56.8706 78.9869 56.8388 78.4663C56.8098 77.9457 56.3557 77.5436 55.8351 77.5754C54.95 77.6217 54.1054 77.2052 53.605 76.4879L53.6079 62.8094C54.1054 62.0921 54.9529 61.6698 55.838 61.7218C56.3586 61.745 56.8127 61.3516 56.8417 60.831C56.8706 60.3103 56.4714 59.8562 55.9508 59.8273C55.1265 59.7752 54.3195 59.9632 53.6079 60.3421V59.0868C53.6079 58.3926 53.9406 57.9617 54.2211 57.7187C54.736 57.279 55.4822 57.091 56.2372 57.2038C57.3565 57.3774 58.2474 58.2856 58.4065 59.3963C58.4441 59.6537 58.58 59.8793 58.7912 60.0297C59.0023 60.1801 59.2684 60.2408 59.5172 60.1888C60.5584 59.9834 61.6258 60.3855 62.291 61.2156C62.9562 62.063 63.1009 63.1882 62.6612 64.163C62.6525 64.1774 62.6525 64.1919 62.6468 64.2092C62.6323 64.2555 62.6178 64.2989 62.6005 64.3452C62.5918 64.3741 62.5918 64.3972 62.5918 64.4291C62.5831 64.458 62.5831 64.4985 62.5773 64.5274C62.5773 64.5563 62.5773 64.5881 62.586 64.6171C62.586 64.646 62.586 64.6778 62.5947 64.7067C62.6034 64.7356 62.6092 64.7675 62.6178 64.7906C62.6265 64.8195 62.6323 64.8513 62.641 64.8803C62.6496 64.9092 62.6641 64.9323 62.6786 64.9555C62.693 64.9844 62.7017 65.0162 62.7248 65.0393C62.7393 65.0683 62.7624 65.0914 62.7856 65.1232C62.8001 65.1464 62.8145 65.1695 62.8377 65.1926C62.8666 65.2302 62.9071 65.2621 62.9447 65.2823C62.9591 65.291 62.9678 65.3054 62.9736 65.3112C64.333 66.2946 65.1053 67.9028 65.0359 69.5949C64.9954 70.749 64.547 71.8224 63.8008 72.6757Z" fill="white" stroke="white" stroke-width="0.2"/>
<path d="M59.4469 67.1166C59.9154 66.8737 60.0977 66.301 59.8547 65.8411C59.6117 65.3812 59.0448 65.1989 58.5791 65.4332C56.8929 66.301 55.8516 68.0104 55.8516 69.8904C55.8516 71.7792 56.8928 73.4944 58.5791 74.3621C58.7151 74.4373 58.8655 74.4691 59.0188 74.4691C59.3601 74.4691 59.6898 74.2811 59.8575 73.9543C60.1005 73.4857 59.9183 72.9188 59.4497 72.6787C58.3997 72.1349 57.749 71.0705 57.749 69.8904C57.7403 68.7335 58.4114 67.643 59.4469 67.1166Z" fill="white" stroke="white" stroke-width="0.2"/>
<defs>
<linearGradient id="paint0_linear_2388_15434" x1="-2.00001" y1="314" x2="321.5" y2="-9.49999" gradientUnits="userSpaceOnUse">
<stop stop-color="#11296A"/>
<stop offset="1" stop-color="#2150D0"/>
</linearGradient>
<linearGradient id="paint1_linear_2388_15434" x1="-2.00001" y1="314" x2="321.5" y2="-9.49999" gradientUnits="userSpaceOnUse">
<stop stop-color="#11296A"/>
<stop offset="1" stop-color="#2150D0"/>
</linearGradient>
<linearGradient id="paint2_linear_2388_15434" x1="367.787" y1="-128" x2="367.787" y2="216.727" gradientUnits="userSpaceOnUse">
<stop stop-color="white"/>
<stop offset="1" stop-color="white" stop-opacity="0"/>
</linearGradient>
<linearGradient id="paint3_linear_2388_15434" x1="465.787" y1="-128" x2="465.787" y2="216.727" gradientUnits="userSpaceOnUse">
<stop stop-color="white"/>
<stop offset="1" stop-color="white" stop-opacity="0"/>
</linearGradient>
</defs>
</svg>
