<svg width="285" height="300" viewBox="0 0 285 300" fill="none" xmlns="http://www.w3.org/2000/svg">
<rect width="285" height="300" rx="10" transform="matrix(1 0 0 -1 0 300)" fill="url(#paint0_linear_2388_15457)"/>
<mask id="mask0_2388_15457" style="mask-type:alpha" maskUnits="userSpaceOnUse" x="0" y="0" width="285" height="300">
<rect width="285" height="300" rx="10" transform="matrix(1 0 0 -1 0 300)" fill="url(#paint1_linear_2388_15457)"/>
</mask>
<g mask="url(#mask0_2388_15457)">
<rect x="338.605" y="-128" width="58.3621" height="344.727" rx="29.1811" transform="rotate(43.8011 338.605 -128)" fill="url(#paint2_linear_2388_15457)" fill-opacity="0.24"/>
<rect x="436.605" y="-128" width="58.3621" height="344.727" rx="29.1811" transform="rotate(43.8011 436.605 -128)" fill="url(#paint3_linear_2388_15457)" fill-opacity="0.24"/>
</g>
<path d="M24.54 239V224.1H34.24V226.2H26.9V230.68H33.44V232.78H26.9V239H24.54ZM38.7319 239.24C37.9985 239.24 37.3519 239.113 36.7919 238.86C36.2452 238.593 35.8185 238.233 35.5119 237.78C35.2052 237.313 35.0519 236.767 35.0519 236.14C35.0519 235.553 35.1785 235.027 35.4319 234.56C35.6985 234.093 36.1052 233.7 36.6519 233.38C37.1985 233.06 37.8852 232.833 38.7119 232.7L42.4719 232.08V233.86L39.1519 234.44C38.5519 234.547 38.1119 234.74 37.8319 235.02C37.5519 235.287 37.4119 235.633 37.4119 236.06C37.4119 236.473 37.5652 236.813 37.8719 237.08C38.1919 237.333 38.5985 237.46 39.0919 237.46C39.7052 237.46 40.2385 237.327 40.6919 237.06C41.1585 236.793 41.5185 236.44 41.7719 236C42.0252 235.547 42.1519 235.047 42.1519 234.5V231.72C42.1519 231.187 41.9519 230.753 41.5519 230.42C41.1652 230.073 40.6452 229.9 39.9919 229.9C39.3919 229.9 38.8652 230.06 38.4119 230.38C37.9719 230.687 37.6452 231.087 37.4319 231.58L35.5519 230.64C35.7519 230.107 36.0785 229.64 36.5319 229.24C36.9852 228.827 37.5119 228.507 38.1119 228.28C38.7252 228.053 39.3719 227.94 40.0519 227.94C40.9052 227.94 41.6585 228.1 42.3119 228.42C42.9785 228.74 43.4919 229.187 43.8519 229.76C44.2252 230.32 44.4119 230.973 44.4119 231.72V239H42.2519V237.04L42.7119 237.1C42.4585 237.54 42.1319 237.92 41.7319 238.24C41.3452 238.56 40.8985 238.807 40.3919 238.98C39.8985 239.153 39.3452 239.24 38.7319 239.24ZM51.0544 239.24C49.9477 239.24 48.9744 238.967 48.1344 238.42C47.3077 237.873 46.7277 237.14 46.3944 236.22L48.1344 235.4C48.4277 236.013 48.8277 236.5 49.3344 236.86C49.8544 237.22 50.4277 237.4 51.0544 237.4C51.5877 237.4 52.021 237.28 52.3544 237.04C52.6877 236.8 52.8544 236.473 52.8544 236.06C52.8544 235.793 52.781 235.58 52.6344 235.42C52.4877 235.247 52.301 235.107 52.0744 235C51.861 234.893 51.641 234.813 51.4144 234.76L49.7144 234.28C48.781 234.013 48.081 233.613 47.6144 233.08C47.161 232.533 46.9344 231.9 46.9344 231.18C46.9344 230.527 47.101 229.96 47.4344 229.48C47.7677 228.987 48.2277 228.607 48.8144 228.34C49.401 228.073 50.061 227.94 50.7944 227.94C51.781 227.94 52.661 228.187 53.4344 228.68C54.2077 229.16 54.7544 229.833 55.0744 230.7L53.3344 231.52C53.121 231 52.781 230.587 52.3144 230.28C51.861 229.973 51.3477 229.82 50.7744 229.82C50.281 229.82 49.8877 229.94 49.5944 230.18C49.301 230.407 49.1544 230.707 49.1544 231.08C49.1544 231.333 49.221 231.547 49.3544 231.72C49.4877 231.88 49.661 232.013 49.8744 232.12C50.0877 232.213 50.3077 232.293 50.5344 232.36L52.2944 232.88C53.1877 233.133 53.8744 233.533 54.3544 234.08C54.8344 234.613 55.0744 235.253 55.0744 236C55.0744 236.64 54.901 237.207 54.5544 237.7C54.221 238.18 53.7544 238.56 53.1544 238.84C52.5544 239.107 51.8544 239.24 51.0544 239.24ZM61.9688 239.12C60.8354 239.12 59.9554 238.8 59.3288 238.16C58.7021 237.52 58.3888 236.62 58.3888 235.46V230.22H56.4888V228.18H56.7888C57.2954 228.18 57.6888 228.033 57.9688 227.74C58.2488 227.447 58.3888 227.047 58.3888 226.54V225.7H60.6488V228.18H63.1088V230.22H60.6488V235.36C60.6488 235.733 60.7088 236.053 60.8288 236.32C60.9488 236.573 61.1421 236.773 61.4088 236.92C61.6754 237.053 62.0221 237.12 62.4488 237.12C62.5554 237.12 62.6754 237.113 62.8088 237.1C62.9421 237.087 63.0688 237.073 63.1888 237.06V239C63.0021 239.027 62.7954 239.053 62.5688 239.08C62.3421 239.107 62.1421 239.12 61.9688 239.12ZM70.2789 239.24C69.1989 239.24 68.2389 238.993 67.3989 238.5C66.5722 237.993 65.9256 237.313 65.4589 236.46C64.9922 235.593 64.7589 234.627 64.7589 233.56C64.7589 232.467 64.9922 231.5 65.4589 230.66C65.9389 229.82 66.5789 229.16 67.3789 228.68C68.1789 228.187 69.0856 227.94 70.0989 227.94C70.9122 227.94 71.6389 228.08 72.2789 228.36C72.9189 228.64 73.4589 229.027 73.8989 229.52C74.3389 230 74.6722 230.553 74.8989 231.18C75.1389 231.807 75.2589 232.473 75.2589 233.18C75.2589 233.353 75.2522 233.533 75.2389 233.72C75.2256 233.907 75.1989 234.08 75.1589 234.24H66.5389V232.44H73.8789L72.7989 233.26C72.9322 232.607 72.8856 232.027 72.6589 231.52C72.4456 231 72.1122 230.593 71.6589 230.3C71.2189 229.993 70.6989 229.84 70.0989 229.84C69.4989 229.84 68.9656 229.993 68.4989 230.3C68.0322 230.593 67.6722 231.02 67.4189 231.58C67.1656 232.127 67.0656 232.793 67.1189 233.58C67.0522 234.313 67.1522 234.953 67.4189 235.5C67.6989 236.047 68.0856 236.473 68.5789 236.78C69.0856 237.087 69.6589 237.24 70.2989 237.24C70.9522 237.24 71.5056 237.093 71.9589 236.8C72.4256 236.507 72.7922 236.127 73.0589 235.66L74.8989 236.56C74.6856 237.067 74.3522 237.527 73.8989 237.94C73.4589 238.34 72.9256 238.66 72.2989 238.9C71.6856 239.127 71.0122 239.24 70.2789 239.24ZM77.4645 239V228.18H79.6245V230.36L79.4245 230.04C79.6645 229.333 80.0512 228.827 80.5845 228.52C81.1179 228.2 81.7579 228.04 82.5045 228.04H83.1645V230.1H82.2245C81.4779 230.1 80.8712 230.333 80.4045 230.8C79.9512 231.253 79.7245 231.907 79.7245 232.76V239H77.4645ZM88.4267 239V224.1H93.3067C94.8534 224.1 96.1934 224.413 97.3267 225.04C98.4734 225.653 99.3601 226.52 99.9867 227.64C100.613 228.76 100.927 230.06 100.927 231.54C100.927 233.007 100.613 234.307 99.9867 235.44C99.3601 236.56 98.4734 237.433 97.3267 238.06C96.1934 238.687 94.8534 239 93.3067 239H88.4267ZM90.7867 236.9H93.3467C94.4001 236.9 95.3134 236.68 96.0867 236.24C96.8734 235.8 97.4801 235.18 97.9067 234.38C98.3334 233.58 98.5467 232.633 98.5467 231.54C98.5467 230.447 98.3267 229.507 97.8867 228.72C97.4601 227.92 96.8601 227.3 96.0867 226.86C95.3134 226.42 94.4001 226.2 93.3467 226.2H90.7867V236.9ZM108.111 239.24C107.031 239.24 106.071 238.993 105.231 238.5C104.404 237.993 103.758 237.313 103.291 236.46C102.824 235.593 102.591 234.627 102.591 233.56C102.591 232.467 102.824 231.5 103.291 230.66C103.771 229.82 104.411 229.16 105.211 228.68C106.011 228.187 106.918 227.94 107.931 227.94C108.744 227.94 109.471 228.08 110.111 228.36C110.751 228.64 111.291 229.027 111.731 229.52C112.171 230 112.504 230.553 112.731 231.18C112.971 231.807 113.091 232.473 113.091 233.18C113.091 233.353 113.084 233.533 113.071 233.72C113.058 233.907 113.031 234.08 112.991 234.24H104.371V232.44H111.711L110.631 233.26C110.764 232.607 110.718 232.027 110.491 231.52C110.278 231 109.944 230.593 109.491 230.3C109.051 229.993 108.531 229.84 107.931 229.84C107.331 229.84 106.798 229.993 106.331 230.3C105.864 230.593 105.504 231.02 105.251 231.58C104.998 232.127 104.898 232.793 104.951 233.58C104.884 234.313 104.984 234.953 105.251 235.5C105.531 236.047 105.918 236.473 106.411 236.78C106.918 237.087 107.491 237.24 108.131 237.24C108.784 237.24 109.338 237.093 109.791 236.8C110.258 236.507 110.624 236.127 110.891 235.66L112.731 236.56C112.518 237.067 112.184 237.527 111.731 237.94C111.291 238.34 110.758 238.66 110.131 238.9C109.518 239.127 108.844 239.24 108.111 239.24ZM118.241 239L114.001 228.18H116.461L119.721 237H118.821L122.081 228.18H124.561L120.301 239H118.241ZM130.982 239.24C129.902 239.24 128.942 238.993 128.102 238.5C127.275 237.993 126.629 237.313 126.162 236.46C125.695 235.593 125.462 234.627 125.462 233.56C125.462 232.467 125.695 231.5 126.162 230.66C126.642 229.82 127.282 229.16 128.082 228.68C128.882 228.187 129.789 227.94 130.802 227.94C131.615 227.94 132.342 228.08 132.982 228.36C133.622 228.64 134.162 229.027 134.602 229.52C135.042 230 135.375 230.553 135.602 231.18C135.842 231.807 135.962 232.473 135.962 233.18C135.962 233.353 135.955 233.533 135.942 233.72C135.929 233.907 135.902 234.08 135.862 234.24H127.242V232.44H134.582L133.502 233.26C133.635 232.607 133.589 232.027 133.362 231.52C133.149 231 132.815 230.593 132.362 230.3C131.922 229.993 131.402 229.84 130.802 229.84C130.202 229.84 129.669 229.993 129.202 230.3C128.735 230.593 128.375 231.02 128.122 231.58C127.869 232.127 127.769 232.793 127.822 233.58C127.755 234.313 127.855 234.953 128.122 235.5C128.402 236.047 128.789 236.473 129.282 236.78C129.789 237.087 130.362 237.24 131.002 237.24C131.655 237.24 132.209 237.093 132.662 236.8C133.129 236.507 133.495 236.127 133.762 235.66L135.602 236.56C135.389 237.067 135.055 237.527 134.602 237.94C134.162 238.34 133.629 238.66 133.002 238.9C132.389 239.127 131.715 239.24 130.982 239.24ZM138.168 239V223.86H140.428V239H138.168ZM148.29 239.24C147.25 239.24 146.297 238.993 145.43 238.5C144.577 238.007 143.897 237.333 143.39 236.48C142.883 235.627 142.63 234.66 142.63 233.58C142.63 232.487 142.883 231.52 143.39 230.68C143.897 229.827 144.577 229.16 145.43 228.68C146.283 228.187 147.237 227.94 148.29 227.94C149.357 227.94 150.31 228.187 151.15 228.68C152.003 229.16 152.677 229.827 153.17 230.68C153.677 231.52 153.93 232.487 153.93 233.58C153.93 234.673 153.677 235.647 153.17 236.5C152.663 237.353 151.983 238.027 151.13 238.52C150.277 239 149.33 239.24 148.29 239.24ZM148.29 237.14C148.93 237.14 149.497 236.987 149.99 236.68C150.483 236.373 150.87 235.953 151.15 235.42C151.443 234.873 151.59 234.26 151.59 233.58C151.59 232.9 151.443 232.293 151.15 231.76C150.87 231.227 150.483 230.807 149.99 230.5C149.497 230.193 148.93 230.04 148.29 230.04C147.663 230.04 147.097 230.193 146.59 230.5C146.097 230.807 145.703 231.227 145.41 231.76C145.13 232.293 144.99 232.9 144.99 233.58C144.99 234.26 145.13 234.873 145.41 235.42C145.703 235.953 146.097 236.373 146.59 236.68C147.097 236.987 147.663 237.14 148.29 237.14ZM156.136 243V228.18H158.296V230.42L158.036 229.9C158.436 229.287 158.97 228.807 159.636 228.46C160.303 228.113 161.063 227.94 161.916 227.94C162.943 227.94 163.863 228.187 164.676 228.68C165.503 229.173 166.15 229.847 166.616 230.7C167.096 231.553 167.336 232.513 167.336 233.58C167.336 234.647 167.096 235.607 166.616 236.46C166.15 237.313 165.51 237.993 164.696 238.5C163.883 238.993 162.956 239.24 161.916 239.24C161.076 239.24 160.31 239.067 159.616 238.72C158.936 238.373 158.41 237.873 158.036 237.22L158.396 236.8V243H156.136ZM161.696 237.14C162.336 237.14 162.903 236.987 163.396 236.68C163.89 236.373 164.276 235.953 164.556 235.42C164.85 234.873 164.996 234.26 164.996 233.58C164.996 232.9 164.85 232.293 164.556 231.76C164.276 231.227 163.89 230.807 163.396 230.5C162.903 230.193 162.336 230.04 161.696 230.04C161.07 230.04 160.503 230.193 159.996 230.5C159.503 230.807 159.11 231.227 158.816 231.76C158.536 232.293 158.396 232.9 158.396 233.58C158.396 234.26 158.536 234.873 158.816 235.42C159.11 235.953 159.503 236.373 159.996 236.68C160.503 236.987 161.07 237.14 161.696 237.14ZM169.535 239V228.18H171.695V230.52L171.415 230.16C171.642 229.427 172.055 228.873 172.655 228.5C173.255 228.127 173.942 227.94 174.715 227.94C175.582 227.94 176.348 228.173 177.015 228.64C177.695 229.093 178.148 229.7 178.375 230.46L177.735 230.52C178.055 229.653 178.542 229.007 179.195 228.58C179.862 228.153 180.622 227.94 181.475 227.94C182.222 227.94 182.895 228.113 183.495 228.46C184.108 228.807 184.595 229.287 184.955 229.9C185.315 230.513 185.495 231.213 185.495 232V239H183.235V232.62C183.235 232.073 183.135 231.613 182.935 231.24C182.748 230.853 182.482 230.56 182.135 230.36C181.802 230.147 181.408 230.04 180.955 230.04C180.502 230.04 180.102 230.147 179.755 230.36C179.408 230.56 179.135 230.853 178.935 231.24C178.735 231.627 178.635 232.087 178.635 232.62V239H176.395V232.62C176.395 232.073 176.295 231.613 176.095 231.24C175.908 230.853 175.642 230.56 175.295 230.36C174.962 230.147 174.562 230.04 174.095 230.04C173.642 230.04 173.242 230.147 172.895 230.36C172.548 230.56 172.275 230.853 172.075 231.24C171.888 231.627 171.795 232.087 171.795 232.62V239H169.535ZM192.994 239.24C191.914 239.24 190.954 238.993 190.114 238.5C189.287 237.993 188.64 237.313 188.174 236.46C187.707 235.593 187.474 234.627 187.474 233.56C187.474 232.467 187.707 231.5 188.174 230.66C188.654 229.82 189.294 229.16 190.094 228.68C190.894 228.187 191.8 227.94 192.814 227.94C193.627 227.94 194.354 228.08 194.994 228.36C195.634 228.64 196.174 229.027 196.614 229.52C197.054 230 197.387 230.553 197.614 231.18C197.854 231.807 197.974 232.473 197.974 233.18C197.974 233.353 197.967 233.533 197.954 233.72C197.94 233.907 197.914 234.08 197.874 234.24H189.254V232.44H196.594L195.514 233.26C195.647 232.607 195.6 232.027 195.374 231.52C195.16 231 194.827 230.593 194.374 230.3C193.934 229.993 193.414 229.84 192.814 229.84C192.214 229.84 191.68 229.993 191.214 230.3C190.747 230.593 190.387 231.02 190.134 231.58C189.88 232.127 189.78 232.793 189.834 233.58C189.767 234.313 189.867 234.953 190.134 235.5C190.414 236.047 190.8 236.473 191.294 236.78C191.8 237.087 192.374 237.24 193.014 237.24C193.667 237.24 194.22 237.093 194.674 236.8C195.14 236.507 195.507 236.127 195.774 235.66L197.614 236.56C197.4 237.067 197.067 237.527 196.614 237.94C196.174 238.34 195.64 238.66 195.014 238.9C194.4 239.127 193.727 239.24 192.994 239.24ZM200.179 239V228.18H202.339V230.3L202.079 230.02C202.346 229.34 202.773 228.827 203.359 228.48C203.946 228.12 204.626 227.94 205.399 227.94C206.199 227.94 206.906 228.113 207.519 228.46C208.133 228.807 208.613 229.287 208.959 229.9C209.306 230.513 209.479 231.22 209.479 232.02V239H207.239V232.62C207.239 232.073 207.139 231.613 206.939 231.24C206.739 230.853 206.453 230.56 206.079 230.36C205.719 230.147 205.306 230.04 204.839 230.04C204.373 230.04 203.953 230.147 203.579 230.36C203.219 230.56 202.939 230.853 202.739 231.24C202.539 231.627 202.439 232.087 202.439 232.62V239H200.179ZM216.578 239.12C215.445 239.12 214.565 238.8 213.938 238.16C213.311 237.52 212.998 236.62 212.998 235.46V230.22H211.098V228.18H211.398C211.905 228.18 212.298 228.033 212.578 227.74C212.858 227.447 212.998 227.047 212.998 226.54V225.7H215.258V228.18H217.718V230.22H215.258V235.36C215.258 235.733 215.318 236.053 215.438 236.32C215.558 236.573 215.751 236.773 216.018 236.92C216.285 237.053 216.631 237.12 217.058 237.12C217.165 237.12 217.285 237.113 217.418 237.1C217.551 237.087 217.678 237.073 217.798 237.06V239C217.611 239.027 217.405 239.053 217.178 239.08C216.951 239.107 216.751 239.12 216.578 239.12ZM31.48 272.24C30.4267 272.24 29.4467 272.047 28.54 271.66C27.6467 271.273 26.8667 270.74 26.2 270.06C25.5467 269.367 25.0333 268.553 24.66 267.62C24.2867 266.687 24.1 265.66 24.1 264.54C24.1 263.433 24.28 262.413 24.64 261.48C25.0133 260.533 25.5333 259.72 26.2 259.04C26.8667 258.347 27.6467 257.813 28.54 257.44C29.4333 257.053 30.4133 256.86 31.48 256.86C32.5333 256.86 33.4733 257.04 34.3 257.4C35.14 257.76 35.8467 258.233 36.42 258.82C36.9933 259.393 37.4067 260.02 37.66 260.7L35.54 261.7C35.22 260.9 34.7067 260.253 34 259.76C33.3067 259.253 32.4667 259 31.48 259C30.4933 259 29.62 259.233 28.86 259.7C28.1 260.167 27.5067 260.813 27.08 261.64C26.6667 262.467 26.46 263.433 26.46 264.54C26.46 265.647 26.6667 266.62 27.08 267.46C27.5067 268.287 28.1 268.933 28.86 269.4C29.62 269.853 30.4933 270.08 31.48 270.08C32.4667 270.08 33.3067 269.833 34 269.34C34.7067 268.847 35.22 268.2 35.54 267.4L37.66 268.4C37.4067 269.067 36.9933 269.693 36.42 270.28C35.8467 270.867 35.14 271.34 34.3 271.7C33.4733 272.06 32.5333 272.24 31.48 272.24ZM40.8269 276.4C40.5602 276.4 40.2935 276.373 40.0269 276.32C39.7735 276.28 39.5402 276.213 39.3269 276.12V274.18C39.4869 274.22 39.6802 274.253 39.9069 274.28C40.1335 274.32 40.3535 274.34 40.5669 274.34C41.1935 274.34 41.6535 274.2 41.9469 273.92C42.2535 273.653 42.5269 273.24 42.7669 272.68L43.4869 271.04L43.4469 272.94L38.7669 261.18H41.1869L44.6469 270.2H43.8269L47.2669 261.18H49.7069L44.9269 273.18C44.6735 273.82 44.3535 274.38 43.9669 274.86C43.5935 275.353 43.1469 275.733 42.6269 276C42.1202 276.267 41.5202 276.4 40.8269 276.4ZM56.1983 272.24C55.1183 272.24 54.1583 271.993 53.3183 271.5C52.4916 270.993 51.8316 270.313 51.3383 269.46C50.8583 268.607 50.6183 267.64 50.6183 266.56C50.6183 265.493 50.8583 264.533 51.3383 263.68C51.8183 262.827 52.4783 262.16 53.3183 261.68C54.1583 261.187 55.1183 260.94 56.1983 260.94C56.9316 260.94 57.6183 261.073 58.2583 261.34C58.8983 261.593 59.4516 261.947 59.9183 262.4C60.3983 262.853 60.7516 263.38 60.9783 263.98L58.9983 264.9C58.7716 264.34 58.4049 263.893 57.8983 263.56C57.4049 263.213 56.8383 263.04 56.1983 263.04C55.5849 263.04 55.0316 263.193 54.5383 263.5C54.0583 263.793 53.6783 264.213 53.3983 264.76C53.1183 265.293 52.9783 265.9 52.9783 266.58C52.9783 267.26 53.1183 267.873 53.3983 268.42C53.6783 268.953 54.0583 269.373 54.5383 269.68C55.0316 269.987 55.5849 270.14 56.1983 270.14C56.8516 270.14 57.4183 269.973 57.8983 269.64C58.3916 269.293 58.7583 268.833 58.9983 268.26L60.9783 269.2C60.7649 269.773 60.4183 270.293 59.9383 270.76C59.4716 271.213 58.9183 271.573 58.2783 271.84C57.6383 272.107 56.9449 272.24 56.1983 272.24ZM63.1872 272V256.86H65.4472V272H63.1872ZM73.1695 272.24C72.0895 272.24 71.1295 271.993 70.2895 271.5C69.4629 270.993 68.8162 270.313 68.3495 269.46C67.8829 268.593 67.6495 267.627 67.6495 266.56C67.6495 265.467 67.8829 264.5 68.3495 263.66C68.8295 262.82 69.4695 262.16 70.2695 261.68C71.0695 261.187 71.9762 260.94 72.9895 260.94C73.8029 260.94 74.5295 261.08 75.1695 261.36C75.8095 261.64 76.3495 262.027 76.7895 262.52C77.2295 263 77.5629 263.553 77.7895 264.18C78.0295 264.807 78.1495 265.473 78.1495 266.18C78.1495 266.353 78.1429 266.533 78.1295 266.72C78.1162 266.907 78.0895 267.08 78.0495 267.24H69.4295V265.44H76.7695L75.6895 266.26C75.8229 265.607 75.7762 265.027 75.5495 264.52C75.3362 264 75.0029 263.593 74.5495 263.3C74.1095 262.993 73.5895 262.84 72.9895 262.84C72.3895 262.84 71.8562 262.993 71.3895 263.3C70.9229 263.593 70.5629 264.02 70.3095 264.58C70.0562 265.127 69.9562 265.793 70.0095 266.58C69.9429 267.313 70.0429 267.953 70.3095 268.5C70.5895 269.047 70.9762 269.473 71.4695 269.78C71.9762 270.087 72.5495 270.24 73.1895 270.24C73.8429 270.24 74.3962 270.093 74.8495 269.8C75.3162 269.507 75.6829 269.127 75.9495 268.66L77.7895 269.56C77.5762 270.067 77.2429 270.527 76.7895 270.94C76.3495 271.34 75.8162 271.66 75.1895 271.9C74.5762 272.127 73.9029 272.24 73.1695 272.24ZM84.3552 272.24C83.2485 272.24 82.2752 271.967 81.4352 271.42C80.6085 270.873 80.0285 270.14 79.6952 269.22L81.4352 268.4C81.7285 269.013 82.1285 269.5 82.6352 269.86C83.1552 270.22 83.7285 270.4 84.3552 270.4C84.8885 270.4 85.3218 270.28 85.6552 270.04C85.9885 269.8 86.1552 269.473 86.1552 269.06C86.1552 268.793 86.0818 268.58 85.9352 268.42C85.7885 268.247 85.6018 268.107 85.3752 268C85.1618 267.893 84.9418 267.813 84.7152 267.76L83.0152 267.28C82.0818 267.013 81.3818 266.613 80.9152 266.08C80.4618 265.533 80.2352 264.9 80.2352 264.18C80.2352 263.527 80.4018 262.96 80.7352 262.48C81.0685 261.987 81.5285 261.607 82.1152 261.34C82.7018 261.073 83.3618 260.94 84.0952 260.94C85.0818 260.94 85.9618 261.187 86.7352 261.68C87.5085 262.16 88.0552 262.833 88.3752 263.7L86.6352 264.52C86.4218 264 86.0818 263.587 85.6152 263.28C85.1618 262.973 84.6485 262.82 84.0752 262.82C83.5818 262.82 83.1885 262.94 82.8952 263.18C82.6018 263.407 82.4552 263.707 82.4552 264.08C82.4552 264.333 82.5218 264.547 82.6552 264.72C82.7885 264.88 82.9618 265.013 83.1752 265.12C83.3885 265.213 83.6085 265.293 83.8352 265.36L85.5952 265.88C86.4885 266.133 87.1752 266.533 87.6552 267.08C88.1352 267.613 88.3752 268.253 88.3752 269C88.3752 269.64 88.2018 270.207 87.8552 270.7C87.5218 271.18 87.0552 271.56 86.4552 271.84C85.8552 272.107 85.1552 272.24 84.3552 272.24Z" fill="white"/>
<path d="M91.9727 101.837C91.9727 102.065 91.8832 102.282 91.7216 102.443L86.9938 107.137C86.8235 107.307 86.6099 107.388 86.3876 107.388C86.1654 107.388 85.9431 107.307 85.7815 107.137C85.4496 106.796 85.4496 106.256 85.7902 105.924L89.0344 102.703H74.2969C73.8236 102.703 73.4396 102.319 73.4396 101.846C73.4396 101.373 73.8235 100.989 74.2969 100.989H89.0603L85.816 97.7212C85.4841 97.3806 85.4841 96.8409 85.8247 96.509C86.1653 96.177 86.705 96.177 87.0369 96.5176L91.7302 101.245C91.8832 101.387 91.9727 101.609 91.9727 101.837ZM86.5839 73.1292C86.5839 65.3131 83.5619 57.938 78.0717 52.3733C72.9513 47.1779 66.2262 44.1042 59.0071 43.6335L61.1488 41.4601C61.4807 41.1195 61.4807 40.5798 61.1401 40.2479C60.7995 39.9159 60.2598 39.9159 59.9279 40.2565L56.4037 43.8183C56.242 43.9799 56.1525 44.2022 56.1525 44.4244C56.1525 44.6524 56.2478 44.8689 56.4123 45.0306L59.9741 48.5548C60.1444 48.7164 60.3579 48.8059 60.5802 48.8059C60.8024 48.8059 61.0247 48.7164 61.1921 48.5461C61.524 48.2055 61.524 47.6658 61.1834 47.3339L59.1947 45.3682C73.4992 46.491 84.8629 58.5932 84.8629 73.1289C84.8629 88.4842 72.368 100.979 57.0128 100.979H23.8573C23.3839 100.979 23 101.363 23 101.836C23 102.31 23.3839 102.694 23.8573 102.694H57.0128C73.3204 102.694 86.5839 89.4317 86.5839 73.1292ZM38.6443 96.2954C38.8002 96.4224 38.9907 96.4801 39.1754 96.4801C39.4265 96.4801 39.6777 96.3705 39.848 96.154C40.1424 95.7845 40.0846 95.2448 39.7065 94.9504C33.0044 89.6308 29.1623 81.673 29.1623 73.1297C29.1623 60.1989 37.9339 49.0635 50.4864 46.0503C50.9454 45.9406 51.234 45.473 51.1214 45.017C51.0117 44.5581 50.5442 44.2694 50.0881 44.382C43.7411 45.9031 37.9915 49.5687 33.8987 54.6979C29.6789 59.9799 27.4477 66.3586 27.4477 73.1328C27.4506 82.2044 31.529 90.6501 38.6436 96.2961L38.6443 96.2954ZM47.9472 62.3057C49.1652 61.2926 50.5333 60.5017 52.0256 59.9562L52.2478 55.9673C52.2709 55.5084 52.6461 55.1533 53.1051 55.1533H60.7543C61.2132 55.1533 61.5884 55.5083 61.6115 55.9673L61.8338 59.9562C62.5727 60.2304 63.2885 60.5681 63.9697 60.9607C64.6508 61.3532 65.3061 61.8092 65.9122 62.3057L69.4797 60.5017C69.8867 60.2939 70.3803 60.444 70.6111 60.8423L74.4384 67.4636C74.6664 67.8562 74.5481 68.3642 74.1642 68.6095L70.8161 70.7973C71.0816 72.3646 71.0816 73.9463 70.8161 75.5107L74.1642 77.6986C74.5481 77.9497 74.6665 78.4519 74.4384 78.8445L70.6111 85.4657C70.3831 85.8583 69.8866 86.0055 69.4797 85.8063L65.9122 84.0024C64.6942 85.0155 63.326 85.8063 61.8338 86.3519L61.6115 90.3408C61.5884 90.7997 61.2132 91.1548 60.7543 91.1548L53.111 91.1519C52.6521 91.1519 52.2769 90.7968 52.2537 90.3379L52.0315 86.349C51.2926 86.0748 50.5767 85.7371 49.8956 85.3445C49.2144 84.952 48.5592 84.4959 47.9531 83.9995L44.3856 85.8034C43.9786 86.0113 43.485 85.8612 43.2542 85.4629L39.4268 78.8416C39.1988 78.449 39.3172 77.941 39.701 77.6957L43.0492 75.5079C42.7836 73.9406 42.7836 72.3589 43.0492 70.7944L39.701 68.6066C39.3172 68.3555 39.1988 67.8533 39.4268 67.4607L43.2542 60.8395C43.4822 60.4469 43.9786 60.2997 44.3856 60.4989L47.9472 62.3057ZM47.6874 64.0953L44.3334 62.4038L41.3201 67.6195L44.4691 69.6804C44.7635 69.8738 44.9136 70.2346 44.8386 70.5751C44.4778 72.281 44.4778 74.0186 44.8386 75.7331C44.9136 76.0794 44.7635 76.4344 44.4691 76.6278L41.3201 78.6887L44.3334 83.9043L47.6874 82.2129C48.0049 82.0513 48.383 82.1032 48.6486 82.3399C49.2922 82.9172 49.9994 83.4338 50.7469 83.861C51.5002 84.2968 52.2998 84.6519 53.1195 84.9174C53.4601 85.0271 53.6881 85.3302 53.7112 85.6852L53.919 89.4375H59.9399L60.1477 85.6766C60.1708 85.3216 60.4075 85.0185 60.7394 84.9088C62.4106 84.369 63.9087 83.4973 65.2104 82.3313C65.4759 82.0946 65.8541 82.0426 66.1716 82.2042L69.5255 83.8957L72.5389 78.68L69.3899 76.6192C69.0955 76.4258 68.9454 76.065 69.0204 75.7244C69.3812 74.0186 69.3812 72.281 69.0204 70.5665C68.9454 70.2201 69.0955 69.8651 69.3899 69.6717L72.5389 67.6108L69.5255 62.3952L66.1716 64.0866C65.8541 64.2483 65.476 64.1963 65.2104 63.9596C64.5667 63.3824 63.8596 62.8657 63.112 62.4385C62.3587 62.0027 61.5592 61.6477 60.7395 61.3821C60.3989 61.2724 60.1709 60.9693 60.1478 60.6143L59.94 56.8621H53.9191L53.7113 60.6143C53.6882 60.9693 53.4515 61.2724 53.1195 61.3821C51.4484 61.9218 49.9503 62.7936 48.6486 63.9596C48.3917 64.205 48.0078 64.2569 47.6874 64.0953ZM50.467 76.8902C49.4682 75.1613 49.2028 73.1523 49.7194 71.2214C50.2361 69.2933 51.4714 67.6827 53.2003 66.684C54.9292 65.6853 56.9381 65.4198 58.8691 65.9365C60.7972 66.4531 62.4078 67.6885 63.4065 69.4174C64.4052 71.1463 64.6707 73.1552 64.154 75.0862C63.6374 77.0143 62.402 78.6249 60.6731 79.6235C59.5214 80.2874 58.2428 80.628 56.9497 80.628C56.3002 80.628 55.6479 80.5385 55.0072 80.3682C53.0762 79.8545 51.4656 78.622 50.467 76.8902ZM51.9534 76.0359C52.7212 77.3665 53.9623 78.3189 55.4488 78.7173C56.9353 79.1156 58.4853 78.9107 59.8159 78.14C61.1465 77.3722 62.099 76.1311 62.4973 74.6446C62.8956 73.1581 62.6907 71.6081 61.92 70.2775C61.1522 68.9469 59.9111 67.9944 58.4246 67.5961C57.9282 67.4633 57.4259 67.3969 56.9238 67.3969C55.9251 67.3969 54.9437 67.6567 54.0576 68.1734C52.727 68.9412 51.7746 70.1823 51.3762 71.6688C50.9779 73.1524 51.1828 74.6966 51.9534 76.0359Z" fill="white" stroke="white"/>
<defs>
<linearGradient id="paint0_linear_2388_15457" x1="-2.00001" y1="314" x2="321.5" y2="-9.49999" gradientUnits="userSpaceOnUse">
<stop stop-color="#11296A"/>
<stop offset="1" stop-color="#2150D0"/>
</linearGradient>
<linearGradient id="paint1_linear_2388_15457" x1="-2.00001" y1="314" x2="321.5" y2="-9.49999" gradientUnits="userSpaceOnUse">
<stop stop-color="#11296A"/>
<stop offset="1" stop-color="#2150D0"/>
</linearGradient>
<linearGradient id="paint2_linear_2388_15457" x1="367.787" y1="-128" x2="367.787" y2="216.727" gradientUnits="userSpaceOnUse">
<stop stop-color="white"/>
<stop offset="1" stop-color="white" stop-opacity="0"/>
</linearGradient>
<linearGradient id="paint3_linear_2388_15457" x1="465.787" y1="-128" x2="465.787" y2="216.727" gradientUnits="userSpaceOnUse">
<stop stop-color="white"/>
<stop offset="1" stop-color="white" stop-opacity="0"/>
</linearGradient>
</defs>
</svg>
