<svg width="285" height="300" viewBox="0 0 285 300" fill="none" xmlns="http://www.w3.org/2000/svg">
<rect width="285" height="300" rx="10" transform="matrix(1 0 0 -1 0 300)" fill="url(#paint0_linear_2388_15470)"/>
<mask id="mask0_2388_15470" style="mask-type:alpha" maskUnits="userSpaceOnUse" x="0" y="0" width="285" height="300">
<rect width="285" height="300" rx="10" transform="matrix(1 0 0 -1 0 300)" fill="url(#paint1_linear_2388_15470)"/>
</mask>
<g mask="url(#mask0_2388_15470)">
<rect x="338.605" y="-128" width="58.3621" height="344.727" rx="29.1811" transform="rotate(43.8011 338.605 -128)" fill="url(#paint2_linear_2388_15470)" fill-opacity="0.24"/>
<rect x="436.605" y="-128" width="58.3621" height="344.727" rx="29.1811" transform="rotate(43.8011 436.605 -128)" fill="url(#paint3_linear_2388_15470)" fill-opacity="0.24"/>
</g>
<path d="M24.54 239V224.1H34.36V226.2H26.9V230.48H33.96V232.58H26.9V236.9H34.36V239H24.54ZM36.3317 239V228.18H38.4917V230.3L38.2317 230.02C38.4984 229.34 38.9251 228.827 39.5117 228.48C40.0984 228.12 40.7784 227.94 41.5517 227.94C42.3517 227.94 43.0584 228.113 43.6717 228.46C44.2851 228.807 44.7651 229.287 45.1117 229.9C45.4584 230.513 45.6317 231.22 45.6317 232.02V239H43.3917V232.62C43.3917 232.073 43.2917 231.613 43.0917 231.24C42.8917 230.853 42.6051 230.56 42.2317 230.36C41.8717 230.147 41.4584 230.04 40.9917 230.04C40.5251 230.04 40.1051 230.147 39.7317 230.36C39.3717 230.56 39.0917 230.853 38.8917 231.24C38.6917 231.627 38.5917 232.087 38.5917 232.62V239H36.3317ZM48.0505 239V223.86H50.3105V230.3L49.9505 230.02C50.2171 229.34 50.6438 228.827 51.2305 228.48C51.8171 228.12 52.4971 227.94 53.2705 227.94C54.0705 227.94 54.7771 228.113 55.3905 228.46C56.0038 228.807 56.4838 229.287 56.8305 229.9C57.1771 230.513 57.3505 231.213 57.3505 232V239H55.1105V232.62C55.1105 232.073 55.0038 231.613 54.7905 231.24C54.5905 230.853 54.3105 230.56 53.9505 230.36C53.5905 230.147 53.1771 230.04 52.7105 230.04C52.2571 230.04 51.8438 230.147 51.4705 230.36C51.1105 230.56 50.8238 230.853 50.6105 231.24C50.4105 231.627 50.3105 232.087 50.3105 232.62V239H48.0505ZM63.0092 239.24C62.2759 239.24 61.6292 239.113 61.0692 238.86C60.5226 238.593 60.0959 238.233 59.7892 237.78C59.4826 237.313 59.3292 236.767 59.3292 236.14C59.3292 235.553 59.4559 235.027 59.7092 234.56C59.9759 234.093 60.3826 233.7 60.9292 233.38C61.4759 233.06 62.1626 232.833 62.9892 232.7L66.7492 232.08V233.86L63.4292 234.44C62.8292 234.547 62.3892 234.74 62.1092 235.02C61.8292 235.287 61.6892 235.633 61.6892 236.06C61.6892 236.473 61.8426 236.813 62.1492 237.08C62.4692 237.333 62.8759 237.46 63.3692 237.46C63.9826 237.46 64.5159 237.327 64.9692 237.06C65.4359 236.793 65.7959 236.44 66.0492 236C66.3026 235.547 66.4292 235.047 66.4292 234.5V231.72C66.4292 231.187 66.2292 230.753 65.8292 230.42C65.4426 230.073 64.9226 229.9 64.2692 229.9C63.6692 229.9 63.1426 230.06 62.6892 230.38C62.2492 230.687 61.9226 231.087 61.7092 231.58L59.8292 230.64C60.0292 230.107 60.3559 229.64 60.8092 229.24C61.2626 228.827 61.7892 228.507 62.3892 228.28C63.0026 228.053 63.6492 227.94 64.3292 227.94C65.1826 227.94 65.9359 228.1 66.5892 228.42C67.2559 228.74 67.7692 229.187 68.1292 229.76C68.5026 230.32 68.6892 230.973 68.6892 231.72V239H66.5292V237.04L66.9892 237.1C66.7359 237.54 66.4092 237.92 66.0092 238.24C65.6226 238.56 65.1759 238.807 64.6692 238.98C64.1759 239.153 63.6226 239.24 63.0092 239.24ZM71.3317 239V228.18H73.4917V230.3L73.2317 230.02C73.4984 229.34 73.9251 228.827 74.5117 228.48C75.0984 228.12 75.7784 227.94 76.5517 227.94C77.3517 227.94 78.0584 228.113 78.6717 228.46C79.2851 228.807 79.7651 229.287 80.1117 229.9C80.4584 230.513 80.6317 231.22 80.6317 232.02V239H78.3917V232.62C78.3917 232.073 78.2917 231.613 78.0917 231.24C77.8917 230.853 77.6051 230.56 77.2317 230.36C76.8717 230.147 76.4584 230.04 75.9917 230.04C75.5251 230.04 75.1051 230.147 74.7317 230.36C74.3717 230.56 74.0917 230.853 73.8917 231.24C73.6917 231.627 73.5917 232.087 73.5917 232.62V239H71.3317ZM88.1905 239.24C87.1105 239.24 86.1505 238.993 85.3105 238.5C84.4838 237.993 83.8238 237.313 83.3305 236.46C82.8505 235.607 82.6105 234.64 82.6105 233.56C82.6105 232.493 82.8505 231.533 83.3305 230.68C83.8105 229.827 84.4705 229.16 85.3105 228.68C86.1505 228.187 87.1105 227.94 88.1905 227.94C88.9238 227.94 89.6105 228.073 90.2505 228.34C90.8905 228.593 91.4438 228.947 91.9105 229.4C92.3905 229.853 92.7438 230.38 92.9705 230.98L90.9905 231.9C90.7638 231.34 90.3971 230.893 89.8905 230.56C89.3971 230.213 88.8305 230.04 88.1905 230.04C87.5771 230.04 87.0238 230.193 86.5305 230.5C86.0505 230.793 85.6705 231.213 85.3905 231.76C85.1105 232.293 84.9705 232.9 84.9705 233.58C84.9705 234.26 85.1105 234.873 85.3905 235.42C85.6705 235.953 86.0505 236.373 86.5305 236.68C87.0238 236.987 87.5771 237.14 88.1905 237.14C88.8438 237.14 89.4105 236.973 89.8905 236.64C90.3838 236.293 90.7505 235.833 90.9905 235.26L92.9705 236.2C92.7571 236.773 92.4105 237.293 91.9305 237.76C91.4638 238.213 90.9105 238.573 90.2705 238.84C89.6305 239.107 88.9371 239.24 88.1905 239.24ZM100.259 239.24C99.1794 239.24 98.2194 238.993 97.3794 238.5C96.5527 237.993 95.906 237.313 95.4394 236.46C94.9727 235.593 94.7394 234.627 94.7394 233.56C94.7394 232.467 94.9727 231.5 95.4394 230.66C95.9194 229.82 96.5594 229.16 97.3594 228.68C98.1594 228.187 99.066 227.94 100.079 227.94C100.893 227.94 101.619 228.08 102.259 228.36C102.899 228.64 103.439 229.027 103.879 229.52C104.319 230 104.653 230.553 104.879 231.18C105.119 231.807 105.239 232.473 105.239 233.18C105.239 233.353 105.233 233.533 105.219 233.72C105.206 233.907 105.179 234.08 105.139 234.24H96.5194V232.44H103.859L102.779 233.26C102.913 232.607 102.866 232.027 102.639 231.52C102.426 231 102.093 230.593 101.639 230.3C101.199 229.993 100.679 229.84 100.079 229.84C99.4794 229.84 98.946 229.993 98.4794 230.3C98.0127 230.593 97.6527 231.02 97.3994 231.58C97.146 232.127 97.046 232.793 97.0994 233.58C97.0327 234.313 97.1327 234.953 97.3994 235.5C97.6794 236.047 98.066 236.473 98.5594 236.78C99.066 237.087 99.6394 237.24 100.279 237.24C100.933 237.24 101.486 237.093 101.939 236.8C102.406 236.507 102.773 236.127 103.039 235.66L104.879 236.56C104.666 237.067 104.333 237.527 103.879 237.94C103.439 238.34 102.906 238.66 102.279 238.9C101.666 239.127 100.993 239.24 100.259 239.24ZM112.445 239.24C111.405 239.24 110.472 238.993 109.645 238.5C108.832 237.993 108.185 237.313 107.705 236.46C107.238 235.607 107.005 234.647 107.005 233.58C107.005 232.513 107.245 231.553 107.725 230.7C108.205 229.847 108.852 229.173 109.665 228.68C110.478 228.187 111.398 227.94 112.425 227.94C113.292 227.94 114.058 228.113 114.725 228.46C115.392 228.807 115.918 229.287 116.305 229.9L115.965 230.42V223.86H118.205V239H116.065V236.8L116.325 237.22C115.952 237.873 115.418 238.373 114.725 238.72C114.032 239.067 113.272 239.24 112.445 239.24ZM112.665 237.14C113.292 237.14 113.852 236.987 114.345 236.68C114.852 236.373 115.245 235.953 115.525 235.42C115.818 234.873 115.965 234.26 115.965 233.58C115.965 232.9 115.818 232.293 115.525 231.76C115.245 231.227 114.852 230.807 114.345 230.5C113.852 230.193 113.292 230.04 112.665 230.04C112.038 230.04 111.472 230.193 110.965 230.5C110.458 230.807 110.065 231.227 109.785 231.76C109.505 232.293 109.365 232.9 109.365 233.58C109.365 234.26 109.505 234.873 109.785 235.42C110.065 235.953 110.452 236.373 110.945 236.68C111.452 236.987 112.025 237.14 112.665 237.14ZM124.56 239V224.1H129.98C130.98 224.1 131.86 224.287 132.62 224.66C133.393 225.02 133.993 225.553 134.42 226.26C134.846 226.953 135.06 227.787 135.06 228.76C135.06 229.72 134.84 230.547 134.4 231.24C133.973 231.933 133.38 232.467 132.62 232.84C131.86 233.213 130.98 233.4 129.98 233.4H126.92V239H124.56ZM126.92 231.3H130.04C130.573 231.3 131.04 231.193 131.44 230.98C131.84 230.767 132.153 230.473 132.38 230.1C132.606 229.713 132.72 229.26 132.72 228.74C132.72 228.22 132.606 227.773 132.38 227.4C132.153 227.013 131.84 226.72 131.44 226.52C131.04 226.307 130.573 226.2 130.04 226.2H126.92V231.3ZM141.959 239.24C140.879 239.24 139.919 238.993 139.079 238.5C138.252 237.993 137.605 237.313 137.139 236.46C136.672 235.593 136.439 234.627 136.439 233.56C136.439 232.467 136.672 231.5 137.139 230.66C137.619 229.82 138.259 229.16 139.059 228.68C139.859 228.187 140.765 227.94 141.779 227.94C142.592 227.94 143.319 228.08 143.959 228.36C144.599 228.64 145.139 229.027 145.579 229.52C146.019 230 146.352 230.553 146.579 231.18C146.819 231.807 146.939 232.473 146.939 233.18C146.939 233.353 146.932 233.533 146.919 233.72C146.905 233.907 146.879 234.08 146.839 234.24H138.219V232.44H145.559L144.479 233.26C144.612 232.607 144.565 232.027 144.339 231.52C144.125 231 143.792 230.593 143.339 230.3C142.899 229.993 142.379 229.84 141.779 229.84C141.179 229.84 140.645 229.993 140.179 230.3C139.712 230.593 139.352 231.02 139.099 231.58C138.845 232.127 138.745 232.793 138.799 233.58C138.732 234.313 138.832 234.953 139.099 235.5C139.379 236.047 139.765 236.473 140.259 236.78C140.765 237.087 141.339 237.24 141.979 237.24C142.632 237.24 143.185 237.093 143.639 236.8C144.105 236.507 144.472 236.127 144.739 235.66L146.579 236.56C146.365 237.067 146.032 237.527 145.579 237.94C145.139 238.34 144.605 238.66 143.979 238.9C143.365 239.127 142.692 239.24 141.959 239.24ZM149.144 239V228.18H151.304V230.36L151.104 230.04C151.344 229.333 151.731 228.827 152.264 228.52C152.798 228.2 153.438 228.04 154.184 228.04H154.844V230.1H153.904C153.158 230.1 152.551 230.333 152.084 230.8C151.631 231.253 151.404 231.907 151.404 232.76V239H149.144ZM157.61 239V230.22H155.61V228.18H157.61V227.62C157.61 226.807 157.777 226.127 158.11 225.58C158.444 225.02 158.904 224.593 159.49 224.3C160.09 224.007 160.777 223.86 161.55 223.86C161.697 223.86 161.864 223.873 162.05 223.9C162.237 223.913 162.39 223.933 162.51 223.96V225.92C162.404 225.893 162.284 225.88 162.15 225.88C162.017 225.867 161.91 225.86 161.83 225.86C161.23 225.86 160.75 226 160.39 226.28C160.03 226.547 159.85 226.993 159.85 227.62V228.18H162.33V230.22H159.85V239H157.61ZM169.267 239.24C168.227 239.24 167.273 238.993 166.407 238.5C165.553 238.007 164.873 237.333 164.367 236.48C163.86 235.627 163.607 234.66 163.607 233.58C163.607 232.487 163.86 231.52 164.367 230.68C164.873 229.827 165.553 229.16 166.407 228.68C167.26 228.187 168.213 227.94 169.267 227.94C170.333 227.94 171.287 228.187 172.127 228.68C172.98 229.16 173.653 229.827 174.147 230.68C174.653 231.52 174.907 232.487 174.907 233.58C174.907 234.673 174.653 235.647 174.147 236.5C173.64 237.353 172.96 238.027 172.107 238.52C171.253 239 170.307 239.24 169.267 239.24ZM169.267 237.14C169.907 237.14 170.473 236.987 170.967 236.68C171.46 236.373 171.847 235.953 172.127 235.42C172.42 234.873 172.567 234.26 172.567 233.58C172.567 232.9 172.42 232.293 172.127 231.76C171.847 231.227 171.46 230.807 170.967 230.5C170.473 230.193 169.907 230.04 169.267 230.04C168.64 230.04 168.073 230.193 167.567 230.5C167.073 230.807 166.68 231.227 166.387 231.76C166.107 232.293 165.967 232.9 165.967 233.58C165.967 234.26 166.107 234.873 166.387 235.42C166.68 235.953 167.073 236.373 167.567 236.68C168.073 236.987 168.64 237.14 169.267 237.14ZM177.113 239V228.18H179.273V230.36L179.073 230.04C179.313 229.333 179.7 228.827 180.233 228.52C180.766 228.2 181.406 228.04 182.153 228.04H182.813V230.1H181.873C181.126 230.1 180.52 230.333 180.053 230.8C179.6 231.253 179.373 231.907 179.373 232.76V239H177.113ZM184.359 239V228.18H186.519V230.52L186.239 230.16C186.466 229.427 186.879 228.873 187.479 228.5C188.079 228.127 188.766 227.94 189.539 227.94C190.406 227.94 191.172 228.173 191.839 228.64C192.519 229.093 192.972 229.7 193.199 230.46L192.559 230.52C192.879 229.653 193.366 229.007 194.019 228.58C194.686 228.153 195.446 227.94 196.299 227.94C197.046 227.94 197.719 228.113 198.319 228.46C198.932 228.807 199.419 229.287 199.779 229.9C200.139 230.513 200.319 231.213 200.319 232V239H198.059V232.62C198.059 232.073 197.959 231.613 197.759 231.24C197.572 230.853 197.306 230.56 196.959 230.36C196.626 230.147 196.232 230.04 195.779 230.04C195.326 230.04 194.926 230.147 194.579 230.36C194.232 230.56 193.959 230.853 193.759 231.24C193.559 231.627 193.459 232.087 193.459 232.62V239H191.219V232.62C191.219 232.073 191.119 231.613 190.919 231.24C190.732 230.853 190.466 230.56 190.119 230.36C189.786 230.147 189.386 230.04 188.919 230.04C188.466 230.04 188.066 230.147 187.719 230.36C187.372 230.56 187.099 230.853 186.899 231.24C186.712 231.627 186.619 232.087 186.619 232.62V239H184.359ZM205.978 239.24C205.245 239.24 204.598 239.113 204.038 238.86C203.491 238.593 203.065 238.233 202.758 237.78C202.451 237.313 202.298 236.767 202.298 236.14C202.298 235.553 202.425 235.027 202.678 234.56C202.945 234.093 203.351 233.7 203.898 233.38C204.445 233.06 205.131 232.833 205.958 232.7L209.718 232.08V233.86L206.398 234.44C205.798 234.547 205.358 234.74 205.078 235.02C204.798 235.287 204.658 235.633 204.658 236.06C204.658 236.473 204.811 236.813 205.118 237.08C205.438 237.333 205.845 237.46 206.338 237.46C206.951 237.46 207.485 237.327 207.938 237.06C208.405 236.793 208.765 236.44 209.018 236C209.271 235.547 209.398 235.047 209.398 234.5V231.72C209.398 231.187 209.198 230.753 208.798 230.42C208.411 230.073 207.891 229.9 207.238 229.9C206.638 229.9 206.111 230.06 205.658 230.38C205.218 230.687 204.891 231.087 204.678 231.58L202.798 230.64C202.998 230.107 203.325 229.64 203.778 229.24C204.231 228.827 204.758 228.507 205.358 228.28C205.971 228.053 206.618 227.94 207.298 227.94C208.151 227.94 208.905 228.1 209.558 228.42C210.225 228.74 210.738 229.187 211.098 229.76C211.471 230.32 211.658 230.973 211.658 231.72V239H209.498V237.04L209.958 237.1C209.705 237.54 209.378 237.92 208.978 238.24C208.591 238.56 208.145 238.807 207.638 238.98C207.145 239.153 206.591 239.24 205.978 239.24ZM214.3 239V228.18H216.46V230.3L216.2 230.02C216.467 229.34 216.894 228.827 217.48 228.48C218.067 228.12 218.747 227.94 219.52 227.94C220.32 227.94 221.027 228.113 221.64 228.46C222.254 228.807 222.734 229.287 223.08 229.9C223.427 230.513 223.6 231.22 223.6 232.02V239H221.36V232.62C221.36 232.073 221.26 231.613 221.06 231.24C220.86 230.853 220.574 230.56 220.2 230.36C219.84 230.147 219.427 230.04 218.96 230.04C218.494 230.04 218.074 230.147 217.7 230.36C217.34 230.56 217.06 230.853 216.86 231.24C216.66 231.627 216.56 232.087 216.56 232.62V239H214.3ZM231.159 239.24C230.079 239.24 229.119 238.993 228.279 238.5C227.453 237.993 226.793 237.313 226.299 236.46C225.819 235.607 225.579 234.64 225.579 233.56C225.579 232.493 225.819 231.533 226.299 230.68C226.779 229.827 227.439 229.16 228.279 228.68C229.119 228.187 230.079 227.94 231.159 227.94C231.893 227.94 232.579 228.073 233.219 228.34C233.859 228.593 234.413 228.947 234.879 229.4C235.359 229.853 235.713 230.38 235.939 230.98L233.959 231.9C233.733 231.34 233.366 230.893 232.859 230.56C232.366 230.213 231.799 230.04 231.159 230.04C230.546 230.04 229.993 230.193 229.499 230.5C229.019 230.793 228.639 231.213 228.359 231.76C228.079 232.293 227.939 232.9 227.939 233.58C227.939 234.26 228.079 234.873 228.359 235.42C228.639 235.953 229.019 236.373 229.499 236.68C229.993 236.987 230.546 237.14 231.159 237.14C231.813 237.14 232.379 236.973 232.859 236.64C233.353 236.293 233.719 235.833 233.959 235.26L235.939 236.2C235.726 236.773 235.379 237.293 234.899 237.76C234.433 238.213 233.879 238.573 233.239 238.84C232.599 239.107 231.906 239.24 231.159 239.24ZM243.228 239.24C242.148 239.24 241.188 238.993 240.348 238.5C239.521 237.993 238.875 237.313 238.408 236.46C237.941 235.593 237.708 234.627 237.708 233.56C237.708 232.467 237.941 231.5 238.408 230.66C238.888 229.82 239.528 229.16 240.328 228.68C241.128 228.187 242.035 227.94 243.048 227.94C243.861 227.94 244.588 228.08 245.228 228.36C245.868 228.64 246.408 229.027 246.848 229.52C247.288 230 247.621 230.553 247.848 231.18C248.088 231.807 248.208 232.473 248.208 233.18C248.208 233.353 248.201 233.533 248.188 233.72C248.175 233.907 248.148 234.08 248.108 234.24H239.488V232.44H246.828L245.748 233.26C245.881 232.607 245.835 232.027 245.608 231.52C245.395 231 245.061 230.593 244.608 230.3C244.168 229.993 243.648 229.84 243.048 229.84C242.448 229.84 241.915 229.993 241.448 230.3C240.981 230.593 240.621 231.02 240.368 231.58C240.115 232.127 240.015 232.793 240.068 233.58C240.001 234.313 240.101 234.953 240.368 235.5C240.648 236.047 241.035 236.473 241.528 236.78C242.035 237.087 242.608 237.24 243.248 237.24C243.901 237.24 244.455 237.093 244.908 236.8C245.375 236.507 245.741 236.127 246.008 235.66L247.848 236.56C247.635 237.067 247.301 237.527 246.848 237.94C246.408 238.34 245.875 238.66 245.248 238.9C244.635 239.127 243.961 239.24 243.228 239.24ZM27.56 272.24C26.8267 272.24 26.18 272.113 25.62 271.86C25.0733 271.593 24.6467 271.233 24.34 270.78C24.0333 270.313 23.88 269.767 23.88 269.14C23.88 268.553 24.0067 268.027 24.26 267.56C24.5267 267.093 24.9333 266.7 25.48 266.38C26.0267 266.06 26.7133 265.833 27.54 265.7L31.3 265.08V266.86L27.98 267.44C27.38 267.547 26.94 267.74 26.66 268.02C26.38 268.287 26.24 268.633 26.24 269.06C26.24 269.473 26.3933 269.813 26.7 270.08C27.02 270.333 27.4267 270.46 27.92 270.46C28.5333 270.46 29.0667 270.327 29.52 270.06C29.9867 269.793 30.3467 269.44 30.6 269C30.8533 268.547 30.98 268.047 30.98 267.5V264.72C30.98 264.187 30.78 263.753 30.38 263.42C29.9933 263.073 29.4733 262.9 28.82 262.9C28.22 262.9 27.6933 263.06 27.24 263.38C26.8 263.687 26.4733 264.087 26.26 264.58L24.38 263.64C24.58 263.107 24.9067 262.64 25.36 262.24C25.8133 261.827 26.34 261.507 26.94 261.28C27.5533 261.053 28.2 260.94 28.88 260.94C29.7333 260.94 30.4867 261.1 31.14 261.42C31.8067 261.74 32.32 262.187 32.68 262.76C33.0533 263.32 33.24 263.973 33.24 264.72V272H31.08V270.04L31.54 270.1C31.2867 270.54 30.96 270.92 30.56 271.24C30.1733 271.56 29.7267 271.807 29.22 271.98C28.7267 272.153 28.1733 272.24 27.56 272.24ZM35.8825 272V261.18H38.0425V263.3L37.7825 263.02C38.0492 262.34 38.4758 261.827 39.0625 261.48C39.6492 261.12 40.3292 260.94 41.1025 260.94C41.9025 260.94 42.6092 261.113 43.2225 261.46C43.8358 261.807 44.3158 262.287 44.6625 262.9C45.0092 263.513 45.1825 264.22 45.1825 265.02V272H42.9425V265.62C42.9425 265.073 42.8425 264.613 42.6425 264.24C42.4425 263.853 42.1558 263.56 41.7825 263.36C41.4225 263.147 41.0092 263.04 40.5425 263.04C40.0758 263.04 39.6558 263.147 39.2825 263.36C38.9225 263.56 38.6425 263.853 38.4425 264.24C38.2425 264.627 38.1425 265.087 38.1425 265.62V272H35.8825ZM52.6013 272.24C51.5613 272.24 50.6279 271.993 49.8013 271.5C48.9879 270.993 48.3413 270.313 47.8613 269.46C47.3946 268.607 47.1613 267.647 47.1613 266.58C47.1613 265.513 47.4013 264.553 47.8813 263.7C48.3613 262.847 49.0079 262.173 49.8213 261.68C50.6346 261.187 51.5546 260.94 52.5813 260.94C53.4479 260.94 54.2146 261.113 54.8813 261.46C55.5479 261.807 56.0746 262.287 56.4613 262.9L56.1213 263.42V256.86H58.3613V272H56.2213V269.8L56.4813 270.22C56.1079 270.873 55.5746 271.373 54.8813 271.72C54.1879 272.067 53.4279 272.24 52.6013 272.24ZM52.8213 270.14C53.4479 270.14 54.0079 269.987 54.5013 269.68C55.0079 269.373 55.4013 268.953 55.6813 268.42C55.9746 267.873 56.1213 267.26 56.1213 266.58C56.1213 265.9 55.9746 265.293 55.6813 264.76C55.4013 264.227 55.0079 263.807 54.5013 263.5C54.0079 263.193 53.4479 263.04 52.8213 263.04C52.1946 263.04 51.6279 263.193 51.1213 263.5C50.6146 263.807 50.2213 264.227 49.9413 264.76C49.6613 265.293 49.5213 265.9 49.5213 266.58C49.5213 267.26 49.6613 267.873 49.9413 268.42C50.2213 268.953 50.6079 269.373 51.1013 269.68C51.6079 269.987 52.1813 270.14 52.8213 270.14ZM69.9358 272.24C69.0024 272.24 68.1358 272.067 67.3358 271.72C66.5358 271.36 65.8558 270.873 65.2958 270.26C64.7358 269.647 64.3224 268.94 64.0558 268.14L66.0558 267.3C66.4158 268.22 66.9424 268.927 67.6358 269.42C68.3291 269.913 69.1291 270.16 70.0358 270.16C70.5691 270.16 71.0358 270.08 71.4358 269.92C71.8358 269.747 72.1424 269.507 72.3558 269.2C72.5824 268.893 72.6958 268.54 72.6958 268.14C72.6958 267.593 72.5424 267.16 72.2358 266.84C71.9291 266.52 71.4758 266.267 70.8758 266.08L68.0758 265.2C66.9558 264.853 66.1024 264.327 65.5158 263.62C64.9291 262.9 64.6358 262.06 64.6358 261.1C64.6358 260.26 64.8424 259.527 65.2558 258.9C65.6691 258.26 66.2358 257.76 66.9558 257.4C67.6891 257.04 68.5224 256.86 69.4558 256.86C70.3491 256.86 71.1624 257.02 71.8958 257.34C72.6291 257.647 73.2558 258.073 73.7758 258.62C74.3091 259.167 74.6958 259.8 74.9358 260.52L72.9758 261.38C72.6824 260.593 72.2224 259.987 71.5958 259.56C70.9824 259.133 70.2691 258.92 69.4558 258.92C68.9624 258.92 68.5291 259.007 68.1558 259.18C67.7824 259.34 67.4891 259.58 67.2758 259.9C67.0758 260.207 66.9758 260.567 66.9758 260.98C66.9758 261.46 67.1291 261.887 67.4358 262.26C67.7424 262.633 68.2091 262.913 68.8358 263.1L71.4358 263.92C72.6224 264.28 73.5158 264.8 74.1158 265.48C74.7158 266.147 75.0158 266.98 75.0158 267.98C75.0158 268.807 74.7958 269.54 74.3558 270.18C73.9291 270.82 73.3358 271.327 72.5758 271.7C71.8158 272.06 70.9358 272.24 69.9358 272.24ZM82.585 272.24C81.505 272.24 80.545 271.993 79.705 271.5C78.8783 270.993 78.2183 270.313 77.725 269.46C77.245 268.607 77.005 267.64 77.005 266.56C77.005 265.493 77.245 264.533 77.725 263.68C78.205 262.827 78.865 262.16 79.705 261.68C80.545 261.187 81.505 260.94 82.585 260.94C83.3183 260.94 84.005 261.073 84.645 261.34C85.285 261.593 85.8383 261.947 86.305 262.4C86.785 262.853 87.1383 263.38 87.365 263.98L85.385 264.9C85.1583 264.34 84.7917 263.893 84.285 263.56C83.7917 263.213 83.225 263.04 82.585 263.04C81.9717 263.04 81.4183 263.193 80.925 263.5C80.445 263.793 80.065 264.213 79.785 264.76C79.505 265.293 79.365 265.9 79.365 266.58C79.365 267.26 79.505 267.873 79.785 268.42C80.065 268.953 80.445 269.373 80.925 269.68C81.4183 269.987 81.9717 270.14 82.585 270.14C83.2383 270.14 83.805 269.973 84.285 269.64C84.7783 269.293 85.145 268.833 85.385 268.26L87.365 269.2C87.1517 269.773 86.805 270.293 86.325 270.76C85.8583 271.213 85.305 271.573 84.665 271.84C84.025 272.107 83.3317 272.24 82.585 272.24ZM92.7163 272.24C91.9829 272.24 91.3363 272.113 90.7763 271.86C90.2296 271.593 89.8029 271.233 89.4963 270.78C89.1896 270.313 89.0363 269.767 89.0363 269.14C89.0363 268.553 89.1629 268.027 89.4163 267.56C89.6829 267.093 90.0896 266.7 90.6363 266.38C91.1829 266.06 91.8696 265.833 92.6963 265.7L96.4563 265.08V266.86L93.1363 267.44C92.5363 267.547 92.0963 267.74 91.8163 268.02C91.5363 268.287 91.3963 268.633 91.3963 269.06C91.3963 269.473 91.5496 269.813 91.8563 270.08C92.1763 270.333 92.5829 270.46 93.0763 270.46C93.6896 270.46 94.2229 270.327 94.6763 270.06C95.1429 269.793 95.5029 269.44 95.7563 269C96.0096 268.547 96.1363 268.047 96.1363 267.5V264.72C96.1363 264.187 95.9363 263.753 95.5363 263.42C95.1496 263.073 94.6296 262.9 93.9763 262.9C93.3763 262.9 92.8496 263.06 92.3963 263.38C91.9563 263.687 91.6296 264.087 91.4163 264.58L89.5363 263.64C89.7363 263.107 90.0629 262.64 90.5163 262.24C90.9696 261.827 91.4963 261.507 92.0963 261.28C92.7096 261.053 93.3563 260.94 94.0362 260.94C94.8896 260.94 95.6429 261.1 96.2963 261.42C96.9629 261.74 97.4763 262.187 97.8363 262.76C98.2096 263.32 98.3963 263.973 98.3963 264.72V272H96.2363V270.04L96.6963 270.1C96.4429 270.54 96.1163 270.92 95.7163 271.24C95.3296 271.56 94.8829 271.807 94.3763 271.98C93.8829 272.153 93.3296 272.24 92.7163 272.24ZM101.039 272V256.86H103.299V272H101.039ZM109.181 272.24C108.448 272.24 107.801 272.113 107.241 271.86C106.694 271.593 106.268 271.233 105.961 270.78C105.654 270.313 105.501 269.767 105.501 269.14C105.501 268.553 105.628 268.027 105.881 267.56C106.148 267.093 106.554 266.7 107.101 266.38C107.648 266.06 108.334 265.833 109.161 265.7L112.921 265.08V266.86L109.601 267.44C109.001 267.547 108.561 267.74 108.281 268.02C108.001 268.287 107.861 268.633 107.861 269.06C107.861 269.473 108.014 269.813 108.321 270.08C108.641 270.333 109.048 270.46 109.541 270.46C110.154 270.46 110.688 270.327 111.141 270.06C111.608 269.793 111.968 269.44 112.221 269C112.474 268.547 112.601 268.047 112.601 267.5V264.72C112.601 264.187 112.401 263.753 112.001 263.42C111.614 263.073 111.094 262.9 110.441 262.9C109.841 262.9 109.314 263.06 108.861 263.38C108.421 263.687 108.094 264.087 107.881 264.58L106.001 263.64C106.201 263.107 106.528 262.64 106.981 262.24C107.434 261.827 107.961 261.507 108.561 261.28C109.174 261.053 109.821 260.94 110.501 260.94C111.354 260.94 112.108 261.1 112.761 261.42C113.428 261.74 113.941 262.187 114.301 262.76C114.674 263.32 114.861 263.973 114.861 264.72V272H112.701V270.04L113.161 270.1C112.908 270.54 112.581 270.92 112.181 271.24C111.794 271.56 111.348 271.807 110.841 271.98C110.348 272.153 109.794 272.24 109.181 272.24ZM123.284 272.24C122.444 272.24 121.677 272.067 120.984 271.72C120.304 271.373 119.777 270.873 119.404 270.22L119.664 269.8V272H117.504V256.86H119.764V263.42L119.404 262.9C119.804 262.287 120.337 261.807 121.004 261.46C121.67 261.113 122.43 260.94 123.284 260.94C124.31 260.94 125.23 261.187 126.044 261.68C126.87 262.173 127.517 262.847 127.984 263.7C128.464 264.553 128.704 265.513 128.704 266.58C128.704 267.647 128.464 268.607 127.984 269.46C127.517 270.313 126.877 270.993 126.064 271.5C125.25 271.993 124.324 272.24 123.284 272.24ZM123.064 270.14C123.704 270.14 124.27 269.987 124.764 269.68C125.257 269.373 125.644 268.953 125.924 268.42C126.217 267.873 126.364 267.26 126.364 266.58C126.364 265.9 126.217 265.293 125.924 264.76C125.644 264.227 125.257 263.807 124.764 263.5C124.27 263.193 123.704 263.04 123.064 263.04C122.437 263.04 121.87 263.193 121.364 263.5C120.87 263.807 120.477 264.227 120.184 264.76C119.904 265.293 119.764 265.9 119.764 266.58C119.764 267.26 119.904 267.873 120.184 268.42C120.477 268.953 120.87 269.373 121.364 269.68C121.87 269.987 122.437 270.14 123.064 270.14ZM130.902 272V261.18H133.162V272H130.902ZM130.902 259.7V257.1H133.162V259.7H130.902ZM135.804 272V256.86H138.064V272H135.804ZM140.707 272V261.18H142.967V272H140.707ZM140.707 259.7V257.1H142.967V259.7H140.707ZM150.289 272.12C149.156 272.12 148.276 271.8 147.649 271.16C147.022 270.52 146.709 269.62 146.709 268.46V263.22H144.809V261.18H145.109C145.616 261.18 146.009 261.033 146.289 260.74C146.569 260.447 146.709 260.047 146.709 259.54V258.7H148.969V261.18H151.429V263.22H148.969V268.36C148.969 268.733 149.029 269.053 149.149 269.32C149.269 269.573 149.462 269.773 149.729 269.92C149.996 270.053 150.342 270.12 150.769 270.12C150.876 270.12 150.996 270.113 151.129 270.1C151.262 270.087 151.389 270.073 151.509 270.06V272C151.322 272.027 151.116 272.053 150.889 272.08C150.662 272.107 150.462 272.12 150.289 272.12ZM154.675 276.4C154.408 276.4 154.141 276.373 153.875 276.32C153.621 276.28 153.388 276.213 153.175 276.12V274.18C153.335 274.22 153.528 274.253 153.755 274.28C153.981 274.32 154.201 274.34 154.415 274.34C155.041 274.34 155.501 274.2 155.795 273.92C156.101 273.653 156.375 273.24 156.615 272.68L157.335 271.04L157.295 272.94L152.615 261.18H155.035L158.495 270.2H157.675L161.115 261.18H163.555L158.775 273.18C158.521 273.82 158.201 274.38 157.815 274.86C157.441 275.353 156.995 275.733 156.475 276C155.968 276.267 155.368 276.4 154.675 276.4Z" fill="white"/>
<g clip-path="url(#clip0_2388_15470)">
<path d="M86.7 40.0001H40.145C39.4268 40.0001 38.8451 40.5847 38.8451 41.3066V70.0741H24.2999C23.5817 70.0741 23 70.6588 23 71.3806V101.693C23 102.04 23.1365 102.373 23.3802 102.618C23.6239 102.863 23.9554 103 24.2999 103H54.4794C54.8239 103 55.1521 102.863 55.3958 102.618C55.6396 102.373 55.7793 102.04 55.7793 101.693V89.4086H86.7034H86.7001C87.0446 89.4086 87.376 89.2714 87.6198 89.0264C87.8635 88.7814 88 88.4482 88 88.102V41.3066C88 40.9604 87.8635 40.6272 87.6198 40.3822C87.3761 40.1372 87.0445 40.0001 86.7 40.0001ZM53.1795 100.391H25.5997V72.691H53.1795V100.391ZM85.403 86.7988L55.7792 86.7955V71.3774C55.7792 71.0311 55.6395 70.7012 55.3958 70.4562C55.152 70.2112 54.8238 70.0708 54.4793 70.0708H41.4448V42.6128H85.4001L85.403 86.7988ZM61.68 65.283L61.6768 65.2797C61.1828 64.7571 61.2056 63.9306 61.7255 63.4342L74.8673 50.891H65.9733C65.2551 50.891 64.6734 50.3063 64.6734 49.5844C64.6734 48.8625 65.2551 48.2778 65.9733 48.2778H77.9712C78.1207 48.2778 78.2669 48.3039 78.4067 48.3529H78.4099C78.5887 48.4183 78.7479 48.5228 78.8844 48.6567C79.0144 48.7906 79.1119 48.9507 79.1769 49.1271V49.1304C79.2288 49.2708 79.2516 49.4211 79.2516 49.5713V49.6889V49.7575L79.2158 61.334C79.2158 62.0527 78.6342 62.6374 77.916 62.6374H77.9127C77.5683 62.6341 77.2368 62.4969 76.9963 62.2519C76.7526 62.0069 76.6161 61.6738 76.6161 61.3275L76.6421 52.773L63.5003 65.3162C62.9803 65.8127 62.1581 65.7899 61.6642 65.2672L61.68 65.283Z" fill="white"/>
</g>
<defs>
<linearGradient id="paint0_linear_2388_15470" x1="-2.00001" y1="314" x2="321.5" y2="-9.49999" gradientUnits="userSpaceOnUse">
<stop stop-color="#11296A"/>
<stop offset="1" stop-color="#2150D0"/>
</linearGradient>
<linearGradient id="paint1_linear_2388_15470" x1="-2.00001" y1="314" x2="321.5" y2="-9.49999" gradientUnits="userSpaceOnUse">
<stop stop-color="#11296A"/>
<stop offset="1" stop-color="#2150D0"/>
</linearGradient>
<linearGradient id="paint2_linear_2388_15470" x1="367.787" y1="-128" x2="367.787" y2="216.727" gradientUnits="userSpaceOnUse">
<stop stop-color="white"/>
<stop offset="1" stop-color="white" stop-opacity="0"/>
</linearGradient>
<linearGradient id="paint3_linear_2388_15470" x1="465.787" y1="-128" x2="465.787" y2="216.727" gradientUnits="userSpaceOnUse">
<stop stop-color="white"/>
<stop offset="1" stop-color="white" stop-opacity="0"/>
</linearGradient>
<clipPath id="clip0_2388_15470">
<rect width="65" height="63" fill="white" transform="translate(23 40)"/>
</clipPath>
</defs>
</svg>
