<svg width="285" height="300" viewBox="0 0 285 300" fill="none" xmlns="http://www.w3.org/2000/svg">
<rect width="285" height="300" rx="10" transform="matrix(1 0 0 -1 0 300)" fill="url(#paint0_linear_2388_15481)"/>
<mask id="mask0_2388_15481" style="mask-type:alpha" maskUnits="userSpaceOnUse" x="0" y="0" width="285" height="300">
<rect width="285" height="300" rx="10" transform="matrix(1 0 0 -1 0 300)" fill="url(#paint1_linear_2388_15481)"/>
</mask>
<g mask="url(#mask0_2388_15481)">
<rect x="338.605" y="-128" width="58.3621" height="344.727" rx="29.1811" transform="rotate(43.8011 338.605 -128)" fill="url(#paint2_linear_2388_15481)" fill-opacity="0.24"/>
<rect x="436.605" y="-128" width="58.3621" height="344.727" rx="29.1811" transform="rotate(43.8011 436.605 -128)" fill="url(#paint3_linear_2388_15481)" fill-opacity="0.24"/>
</g>
<path d="M24.54 239V224.1H34.24V226.2H26.9V230.68H33.44V232.78H26.9V239H24.54ZM39.8644 239.24C39.051 239.24 38.3377 239.06 37.7244 238.7C37.111 238.327 36.631 237.813 36.2844 237.16C35.951 236.493 35.7844 235.727 35.7844 234.86V228.18H38.0444V234.66C38.0444 235.153 38.1444 235.587 38.3444 235.96C38.5444 236.333 38.8244 236.627 39.1844 236.84C39.5444 237.04 39.9577 237.14 40.4244 237.14C40.9044 237.14 41.3244 237.033 41.6844 236.82C42.0444 236.607 42.3244 236.307 42.5244 235.92C42.7377 235.533 42.8444 235.08 42.8444 234.56V228.18H45.0844V239H42.9444V236.88L43.1844 237.16C42.931 237.827 42.511 238.34 41.9244 238.7C41.3377 239.06 40.651 239.24 39.8644 239.24ZM52.6031 239.12C51.4698 239.12 50.5898 238.8 49.9631 238.16C49.3365 237.52 49.0231 236.62 49.0231 235.46V230.22H47.1231V228.18H47.4231C47.9298 228.18 48.3231 228.033 48.6031 227.74C48.8831 227.447 49.0231 227.047 49.0231 226.54V225.7H51.2831V228.18H53.7431V230.22H51.2831V235.36C51.2831 235.733 51.3431 236.053 51.4631 236.32C51.5831 236.573 51.7765 236.773 52.0431 236.92C52.3098 237.053 52.6565 237.12 53.0831 237.12C53.1898 237.12 53.3098 237.113 53.4431 237.1C53.5765 237.087 53.7031 237.073 53.8231 237.06V239C53.6365 239.027 53.4298 239.053 53.2031 239.08C52.9765 239.107 52.7765 239.12 52.6031 239.12ZM60.0886 239.24C59.2753 239.24 58.5619 239.06 57.9486 238.7C57.3353 238.327 56.8553 237.813 56.5086 237.16C56.1753 236.493 56.0086 235.727 56.0086 234.86V228.18H58.2686V234.66C58.2686 235.153 58.3686 235.587 58.5686 235.96C58.7686 236.333 59.0486 236.627 59.4086 236.84C59.7686 237.04 60.1819 237.14 60.6486 237.14C61.1286 237.14 61.5486 237.033 61.9086 236.82C62.2686 236.607 62.5486 236.307 62.7486 235.92C62.9619 235.533 63.0686 235.08 63.0686 234.56V228.18H65.3086V239H63.1686V236.88L63.4086 237.16C63.1553 237.827 62.7353 238.34 62.1486 238.7C61.5619 239.06 60.8753 239.24 60.0886 239.24ZM68.1473 239V228.18H70.3073V230.36L70.1073 230.04C70.3473 229.333 70.734 228.827 71.2673 228.52C71.8007 228.2 72.4407 228.04 73.1873 228.04H73.8473V230.1H72.9073C72.1607 230.1 71.554 230.333 71.0873 230.8C70.634 231.253 70.4073 231.907 70.4073 232.76V239H68.1473ZM80.6734 239.24C79.5934 239.24 78.6334 238.993 77.7934 238.5C76.9668 237.993 76.3201 237.313 75.8534 236.46C75.3868 235.593 75.1534 234.627 75.1534 233.56C75.1534 232.467 75.3868 231.5 75.8534 230.66C76.3334 229.82 76.9734 229.16 77.7734 228.68C78.5734 228.187 79.4801 227.94 80.4934 227.94C81.3068 227.94 82.0334 228.08 82.6734 228.36C83.3134 228.64 83.8534 229.027 84.2934 229.52C84.7334 230 85.0668 230.553 85.2934 231.18C85.5334 231.807 85.6534 232.473 85.6534 233.18C85.6534 233.353 85.6468 233.533 85.6334 233.72C85.6201 233.907 85.5934 234.08 85.5534 234.24H76.9334V232.44H84.2734L83.1934 233.26C83.3268 232.607 83.2801 232.027 83.0534 231.52C82.8401 231 82.5068 230.593 82.0534 230.3C81.6134 229.993 81.0934 229.84 80.4934 229.84C79.8934 229.84 79.3601 229.993 78.8934 230.3C78.4268 230.593 78.0668 231.02 77.8134 231.58C77.5601 232.127 77.4601 232.793 77.5134 233.58C77.4468 234.313 77.5468 234.953 77.8134 235.5C78.0934 236.047 78.4801 236.473 78.9734 236.78C79.4801 237.087 80.0534 237.24 80.6934 237.24C81.3468 237.24 81.9001 237.093 82.3534 236.8C82.8201 236.507 83.1868 236.127 83.4534 235.66L85.2934 236.56C85.0801 237.067 84.7468 237.527 84.2934 237.94C83.8534 238.34 83.3201 238.66 82.6934 238.9C82.0801 239.127 81.4068 239.24 80.6734 239.24ZM88.3991 234.58V232.58H96.3991V234.58H88.3991ZM99.8072 239V224.1H105.227C106.227 224.1 107.107 224.287 107.867 224.66C108.641 225.02 109.241 225.553 109.667 226.26C110.094 226.953 110.307 227.787 110.307 228.76C110.307 229.72 110.087 230.547 109.647 231.24C109.221 231.933 108.627 232.467 107.867 232.84C107.107 233.213 106.227 233.4 105.227 233.4H102.167V239H99.8072ZM102.167 231.3H105.287C105.821 231.3 106.287 231.193 106.687 230.98C107.087 230.767 107.401 230.473 107.627 230.1C107.854 229.713 107.967 229.26 107.967 228.74C107.967 228.22 107.854 227.773 107.627 227.4C107.401 227.013 107.087 226.72 106.687 226.52C106.287 226.307 105.821 226.2 105.287 226.2H102.167V231.3ZM112.717 239V228.18H114.877V230.36L114.677 230.04C114.917 229.333 115.304 228.827 115.837 228.52C116.37 228.2 117.01 228.04 117.757 228.04H118.417V230.1H117.477C116.73 230.1 116.124 230.333 115.657 230.8C115.204 231.253 114.977 231.907 114.977 232.76V239H112.717ZM125.383 239.24C124.343 239.24 123.39 238.993 122.523 238.5C121.67 238.007 120.99 237.333 120.483 236.48C119.976 235.627 119.723 234.66 119.723 233.58C119.723 232.487 119.976 231.52 120.483 230.68C120.99 229.827 121.67 229.16 122.523 228.68C123.376 228.187 124.33 227.94 125.383 227.94C126.45 227.94 127.403 228.187 128.243 228.68C129.096 229.16 129.77 229.827 130.263 230.68C130.77 231.52 131.023 232.487 131.023 233.58C131.023 234.673 130.77 235.647 130.263 236.5C129.756 237.353 129.076 238.027 128.223 238.52C127.37 239 126.423 239.24 125.383 239.24ZM125.383 237.14C126.023 237.14 126.59 236.987 127.083 236.68C127.576 236.373 127.963 235.953 128.243 235.42C128.536 234.873 128.683 234.26 128.683 233.58C128.683 232.9 128.536 232.293 128.243 231.76C127.963 231.227 127.576 230.807 127.083 230.5C126.59 230.193 126.023 230.04 125.383 230.04C124.756 230.04 124.19 230.193 123.683 230.5C123.19 230.807 122.796 231.227 122.503 231.76C122.223 232.293 122.083 232.9 122.083 233.58C122.083 234.26 122.223 234.873 122.503 235.42C122.796 235.953 123.19 236.373 123.683 236.68C124.19 236.987 124.756 237.14 125.383 237.14ZM138.649 239.24C137.609 239.24 136.656 238.993 135.789 238.5C134.936 238.007 134.256 237.333 133.749 236.48C133.243 235.627 132.989 234.66 132.989 233.58C132.989 232.487 133.243 231.52 133.749 230.68C134.256 229.827 134.936 229.16 135.789 228.68C136.643 228.187 137.596 227.94 138.649 227.94C139.716 227.94 140.669 228.187 141.509 228.68C142.363 229.16 143.036 229.827 143.529 230.68C144.036 231.52 144.289 232.487 144.289 233.58C144.289 234.673 144.036 235.647 143.529 236.5C143.023 237.353 142.343 238.027 141.489 238.52C140.636 239 139.689 239.24 138.649 239.24ZM138.649 237.14C139.289 237.14 139.856 236.987 140.349 236.68C140.843 236.373 141.229 235.953 141.509 235.42C141.803 234.873 141.949 234.26 141.949 233.58C141.949 232.9 141.803 232.293 141.509 231.76C141.229 231.227 140.843 230.807 140.349 230.5C139.856 230.193 139.289 230.04 138.649 230.04C138.023 230.04 137.456 230.193 136.949 230.5C136.456 230.807 136.063 231.227 135.769 231.76C135.489 232.293 135.349 232.9 135.349 233.58C135.349 234.26 135.489 234.873 135.769 235.42C136.063 235.953 136.456 236.373 136.949 236.68C137.456 236.987 138.023 237.14 138.649 237.14ZM147.623 239V230.22H145.623V228.18H147.623V227.62C147.623 226.807 147.789 226.127 148.123 225.58C148.456 225.02 148.916 224.593 149.503 224.3C150.103 224.007 150.789 223.86 151.563 223.86C151.709 223.86 151.876 223.873 152.063 223.9C152.249 223.913 152.403 223.933 152.523 223.96V225.92C152.416 225.893 152.296 225.88 152.163 225.88C152.029 225.867 151.923 225.86 151.843 225.86C151.243 225.86 150.763 226 150.403 226.28C150.043 226.547 149.863 226.993 149.863 227.62V228.18H152.343V230.22H149.863V239H147.623ZM27.18 272V259.2H23.22V257.1H33.42V259.2H29.52V272H27.18ZM38.8383 272.24C37.7583 272.24 36.7983 271.993 35.9583 271.5C35.1316 270.993 34.4849 270.313 34.0183 269.46C33.5516 268.593 33.3183 267.627 33.3183 266.56C33.3183 265.467 33.5516 264.5 34.0183 263.66C34.4983 262.82 35.1383 262.16 35.9383 261.68C36.7383 261.187 37.6449 260.94 38.6583 260.94C39.4716 260.94 40.1983 261.08 40.8383 261.36C41.4783 261.64 42.0183 262.027 42.4583 262.52C42.8983 263 43.2316 263.553 43.4583 264.18C43.6983 264.807 43.8183 265.473 43.8183 266.18C43.8183 266.353 43.8116 266.533 43.7983 266.72C43.7849 266.907 43.7583 267.08 43.7183 267.24H35.0983V265.44H42.4383L41.3583 266.26C41.4916 265.607 41.4449 265.027 41.2183 264.52C41.0049 264 40.6716 263.593 40.2183 263.3C39.7783 262.993 39.2583 262.84 38.6583 262.84C38.0583 262.84 37.5249 262.993 37.0583 263.3C36.5916 263.593 36.2316 264.02 35.9783 264.58C35.7249 265.127 35.6249 265.793 35.6783 266.58C35.6116 267.313 35.7116 267.953 35.9783 268.5C36.2583 269.047 36.6449 269.473 37.1383 269.78C37.6449 270.087 38.2183 270.24 38.8583 270.24C39.5116 270.24 40.0649 270.093 40.5183 269.8C40.9849 269.507 41.3516 269.127 41.6183 268.66L43.4583 269.56C43.2449 270.067 42.9116 270.527 42.4583 270.94C42.0183 271.34 41.4849 271.66 40.8583 271.9C40.2449 272.127 39.5716 272.24 38.8383 272.24ZM51.3639 272.24C50.2839 272.24 49.3239 271.993 48.4839 271.5C47.6572 270.993 46.9972 270.313 46.5039 269.46C46.0239 268.607 45.7839 267.64 45.7839 266.56C45.7839 265.493 46.0239 264.533 46.5039 263.68C46.9839 262.827 47.6439 262.16 48.4839 261.68C49.3239 261.187 50.2839 260.94 51.3639 260.94C52.0972 260.94 52.7839 261.073 53.4239 261.34C54.0639 261.593 54.6172 261.947 55.0839 262.4C55.5639 262.853 55.9172 263.38 56.1439 263.98L54.1639 264.9C53.9372 264.34 53.5706 263.893 53.0639 263.56C52.5706 263.213 52.0039 263.04 51.3639 263.04C50.7506 263.04 50.1972 263.193 49.7039 263.5C49.2239 263.793 48.8439 264.213 48.5639 264.76C48.2839 265.293 48.1439 265.9 48.1439 266.58C48.1439 267.26 48.2839 267.873 48.5639 268.42C48.8439 268.953 49.2239 269.373 49.7039 269.68C50.1972 269.987 50.7506 270.14 51.3639 270.14C52.0172 270.14 52.5839 269.973 53.0639 269.64C53.5572 269.293 53.9239 268.833 54.1639 268.26L56.1439 269.2C55.9306 269.773 55.5839 270.293 55.1039 270.76C54.6372 271.213 54.0839 271.573 53.4439 271.84C52.8039 272.107 52.1106 272.24 51.3639 272.24ZM58.5528 272V256.86H60.8128V263.3L60.4528 263.02C60.7195 262.34 61.1461 261.827 61.7328 261.48C62.3195 261.12 62.9995 260.94 63.7728 260.94C64.5728 260.94 65.2795 261.113 65.8928 261.46C66.5061 261.807 66.9861 262.287 67.3328 262.9C67.6795 263.513 67.8528 264.213 67.8528 265V272H65.6128V265.62C65.6128 265.073 65.5061 264.613 65.2928 264.24C65.0928 263.853 64.8128 263.56 64.4528 263.36C64.0928 263.147 63.6795 263.04 63.2128 263.04C62.7595 263.04 62.3461 263.147 61.9728 263.36C61.6128 263.56 61.3261 263.853 61.1128 264.24C60.9128 264.627 60.8128 265.087 60.8128 265.62V272H58.5528ZM70.4716 272V261.18H72.6316V263.3L72.3716 263.02C72.6382 262.34 73.0649 261.827 73.6516 261.48C74.2382 261.12 74.9182 260.94 75.6916 260.94C76.4916 260.94 77.1982 261.113 77.8116 261.46C78.4249 261.807 78.9049 262.287 79.2516 262.9C79.5982 263.513 79.7716 264.22 79.7716 265.02V272H77.5316V265.62C77.5316 265.073 77.4316 264.613 77.2316 264.24C77.0316 263.853 76.7449 263.56 76.3716 263.36C76.0116 263.147 75.5982 263.04 75.1316 263.04C74.6649 263.04 74.2449 263.147 73.8716 263.36C73.5116 263.56 73.2316 263.853 73.0316 264.24C72.8316 264.627 72.7316 265.087 72.7316 265.62V272H70.4716ZM87.6103 272.24C86.5703 272.24 85.617 271.993 84.7503 271.5C83.897 271.007 83.217 270.333 82.7103 269.48C82.2036 268.627 81.9503 267.66 81.9503 266.58C81.9503 265.487 82.2036 264.52 82.7103 263.68C83.217 262.827 83.897 262.16 84.7503 261.68C85.6036 261.187 86.557 260.94 87.6103 260.94C88.677 260.94 89.6303 261.187 90.4703 261.68C91.3236 262.16 91.997 262.827 92.4903 263.68C92.997 264.52 93.2503 265.487 93.2503 266.58C93.2503 267.673 92.997 268.647 92.4903 269.5C91.9836 270.353 91.3036 271.027 90.4503 271.52C89.597 272 88.6503 272.24 87.6103 272.24ZM87.6103 270.14C88.2503 270.14 88.817 269.987 89.3103 269.68C89.8036 269.373 90.1903 268.953 90.4703 268.42C90.7636 267.873 90.9103 267.26 90.9103 266.58C90.9103 265.9 90.7636 265.293 90.4703 264.76C90.1903 264.227 89.8036 263.807 89.3103 263.5C88.817 263.193 88.2503 263.04 87.6103 263.04C86.9836 263.04 86.417 263.193 85.9103 263.5C85.417 263.807 85.0236 264.227 84.7303 264.76C84.4503 265.293 84.3103 265.9 84.3103 266.58C84.3103 267.26 84.4503 267.873 84.7303 268.42C85.0236 268.953 85.417 269.373 85.9103 269.68C86.417 269.987 86.9836 270.14 87.6103 270.14ZM95.6567 272V256.86H97.9167V272H95.6567ZM105.979 272.24C104.939 272.24 103.986 271.993 103.119 271.5C102.266 271.007 101.586 270.333 101.079 269.48C100.572 268.627 100.319 267.66 100.319 266.58C100.319 265.487 100.572 264.52 101.079 263.68C101.586 262.827 102.266 262.16 103.119 261.68C103.972 261.187 104.926 260.94 105.979 260.94C107.046 260.94 107.999 261.187 108.839 261.68C109.692 262.16 110.366 262.827 110.859 263.68C111.366 264.52 111.619 265.487 111.619 266.58C111.619 267.673 111.366 268.647 110.859 269.5C110.352 270.353 109.672 271.027 108.819 271.52C107.966 272 107.019 272.24 105.979 272.24ZM105.979 270.14C106.619 270.14 107.186 269.987 107.679 269.68C108.172 269.373 108.559 268.953 108.839 268.42C109.132 267.873 109.279 267.26 109.279 266.58C109.279 265.9 109.132 265.293 108.839 264.76C108.559 264.227 108.172 263.807 107.679 263.5C107.186 263.193 106.619 263.04 105.979 263.04C105.352 263.04 104.786 263.193 104.279 263.5C103.786 263.807 103.392 264.227 103.099 264.76C102.819 265.293 102.679 265.9 102.679 266.58C102.679 267.26 102.819 267.873 103.099 268.42C103.392 268.953 103.786 269.373 104.279 269.68C104.786 269.987 105.352 270.14 105.979 270.14ZM119.245 276.4C118.459 276.4 117.732 276.273 117.065 276.02C116.399 275.767 115.825 275.413 115.345 274.96C114.865 274.52 114.505 274 114.265 273.4L116.345 272.54C116.532 273.047 116.872 273.467 117.365 273.8C117.872 274.133 118.492 274.3 119.225 274.3C119.799 274.3 120.312 274.187 120.765 273.96C121.219 273.747 121.579 273.427 121.845 273C122.112 272.587 122.245 272.087 122.245 271.5V269.06L122.645 269.52C122.272 270.213 121.752 270.74 121.085 271.1C120.432 271.46 119.692 271.64 118.865 271.64C117.865 271.64 116.965 271.407 116.165 270.94C115.365 270.473 114.732 269.833 114.265 269.02C113.812 268.207 113.585 267.293 113.585 266.28C113.585 265.253 113.812 264.34 114.265 263.54C114.732 262.74 115.359 262.107 116.145 261.64C116.932 261.173 117.832 260.94 118.845 260.94C119.672 260.94 120.405 261.12 121.045 261.48C121.699 261.827 122.232 262.333 122.645 263L122.345 263.56V261.18H124.485V271.5C124.485 272.433 124.259 273.267 123.805 274C123.365 274.747 122.752 275.333 121.965 275.76C121.179 276.187 120.272 276.4 119.245 276.4ZM119.125 269.54C119.725 269.54 120.259 269.4 120.725 269.12C121.192 268.827 121.559 268.44 121.825 267.96C122.105 267.467 122.245 266.913 122.245 266.3C122.245 265.687 122.105 265.133 121.825 264.64C121.545 264.147 121.172 263.76 120.705 263.48C120.239 263.187 119.712 263.04 119.125 263.04C118.512 263.04 117.965 263.187 117.485 263.48C117.005 263.76 116.625 264.147 116.345 264.64C116.079 265.12 115.945 265.673 115.945 266.3C115.945 266.9 116.079 267.447 116.345 267.94C116.625 268.433 117.005 268.827 117.485 269.12C117.965 269.4 118.512 269.54 119.125 269.54ZM128.291 276.4C128.024 276.4 127.758 276.373 127.491 276.32C127.238 276.28 127.004 276.213 126.791 276.12V274.18C126.951 274.22 127.144 274.253 127.371 274.28C127.598 274.32 127.818 274.34 128.031 274.34C128.658 274.34 129.118 274.2 129.411 273.92C129.718 273.653 129.991 273.24 130.231 272.68L130.951 271.04L130.911 272.94L126.231 261.18H128.651L132.111 270.2H131.291L134.731 261.18H137.171L132.391 273.18C132.138 273.82 131.818 274.38 131.431 274.86C131.058 275.353 130.611 275.733 130.091 276C129.584 276.267 128.984 276.4 128.291 276.4Z" fill="white"/>
<path d="M84.0859 43.0103H25.9127V50.6679H84.0859V43.0103ZM77.682 48.0996C76.8509 48.0996 76.1769 47.4257 76.1769 46.5945C76.1769 45.7633 76.8509 45.0893 77.682 45.0893H80.6256C81.4568 45.0893 82.1308 45.7633 82.1308 46.5945C82.1308 47.4257 81.4568 48.0996 80.6256 48.0996H77.682ZM55.4306 66.3229C55.6055 65.5113 56.4052 64.9965 57.2168 65.1714C58.0283 65.3463 58.5431 66.146 58.3683 66.9576L54.568 84.3692C54.3931 85.1808 53.5934 85.6956 52.7818 85.5207C51.9703 85.3458 51.4555 84.5461 51.6303 83.7346L55.4306 66.3248V66.3229ZM62.9565 67.7632C62.3355 67.215 62.2786 66.2678 62.8268 65.6489C63.375 65.0279 64.3221 64.971 64.9411 65.5192L74.8112 74.224C75.4321 74.7723 75.4891 75.7194 74.9409 76.3403C74.8957 76.3914 74.8485 76.4386 74.7994 76.4818L64.9431 85.1749C64.3241 85.7231 63.377 85.6661 62.8288 85.0452C62.2805 84.4262 62.3375 83.4791 62.9584 82.9309L71.5552 75.348L62.9584 67.7652L62.9565 67.7632ZM45.0555 65.5172C45.6745 64.969 46.6216 65.026 47.1698 65.6469C47.7181 66.2659 47.6611 67.213 47.0401 67.7612L38.4434 75.3441L47.0401 82.9269C47.6611 83.4752 47.7181 84.4223 47.1698 85.0413C46.6216 85.6602 45.6745 85.7192 45.0555 85.171L35.1992 76.4779C35.1481 76.4347 35.1009 76.3875 35.0557 76.3364C34.5075 75.7155 34.5645 74.7683 35.1854 74.2201L45.0555 65.5153V65.5172ZM25.9127 53.6763V95.1747H84.0859V53.6763H25.9127ZM24.4095 40H85.5891C86.4203 40 87.0943 40.674 87.0943 41.5052V52.1711V96.6779C87.0943 97.5091 86.4203 98.183 85.5891 98.183H24.4095C23.5783 98.183 22.9043 97.5091 22.9043 96.6779V52.1711V41.5052C22.9043 40.674 23.5783 40 24.4095 40Z" fill="white"/>
<rect x="26.3262" y="53.6904" width="57.3274" height="41.0704" fill="#153282"/>
<path d="M65.8779 65.8112C65.2356 65.1775 64.1981 65.1775 63.5559 65.8112C62.9137 66.4448 62.9137 67.4684 63.5559 68.1021L70.0113 74.4712L63.5559 80.8403C62.9137 81.474 62.9137 82.4976 63.5559 83.1312C63.8853 83.4562 64.297 83.6024 64.7251 83.6024C65.1533 83.6024 65.565 83.4399 65.8943 83.1312L73.5189 75.6086C74.1612 74.9749 74.1612 73.9513 73.5189 73.3176L65.8779 65.8112Z" fill="white"/>
<path d="M47.022 65.8112C46.3798 65.1775 45.3423 65.1775 44.7 65.8112L37.0754 73.3339C36.4332 73.9675 36.4332 74.9911 37.0754 75.6248L44.7 83.1475C45.0294 83.4724 45.4411 83.6187 45.8693 83.6187C46.2974 83.6187 46.7091 83.4562 47.0385 83.1475C47.6807 82.5138 47.6807 81.4902 47.0385 80.8566L40.5666 74.4712L47.022 68.1021C47.6642 67.4684 47.6642 66.4448 47.022 65.8112Z" fill="white"/>
<path d="M59.3886 62.334C58.5158 62.0416 57.5936 62.5128 57.3137 63.3576L50.1502 84.5772C49.8702 85.422 50.3313 86.3482 51.1877 86.6406C51.3688 86.7056 51.5335 86.7218 51.7146 86.7218C52.4063 86.7218 53.0485 86.2832 53.2791 85.617L60.4426 64.3975C60.7225 63.5364 60.2614 62.6102 59.3886 62.334Z" fill="white"/>
<defs>
<linearGradient id="paint0_linear_2388_15481" x1="-2.00001" y1="314" x2="321.5" y2="-9.49999" gradientUnits="userSpaceOnUse">
<stop stop-color="#11296A"/>
<stop offset="1" stop-color="#2150D0"/>
</linearGradient>
<linearGradient id="paint1_linear_2388_15481" x1="-2.00001" y1="314" x2="321.5" y2="-9.49999" gradientUnits="userSpaceOnUse">
<stop stop-color="#11296A"/>
<stop offset="1" stop-color="#2150D0"/>
</linearGradient>
<linearGradient id="paint2_linear_2388_15481" x1="367.787" y1="-128" x2="367.787" y2="216.727" gradientUnits="userSpaceOnUse">
<stop stop-color="white"/>
<stop offset="1" stop-color="white" stop-opacity="0"/>
</linearGradient>
<linearGradient id="paint3_linear_2388_15481" x1="465.787" y1="-128" x2="465.787" y2="216.727" gradientUnits="userSpaceOnUse">
<stop stop-color="white"/>
<stop offset="1" stop-color="white" stop-opacity="0"/>
</linearGradient>
</defs>
</svg>
