<svg width="57" height="64" viewBox="0 0 57 64" fill="none" xmlns="http://www.w3.org/2000/svg">
<g clip-path="url(#clip0_2257_4103)">
<path d="M51.6951 0H5.31142C2.65662 0 0.5 2.13333 0.5 4.75151V46.7265C0.5 49.3446 2.65662 51.4715 5.31142 51.4715H12.817C12.8825 51.5879 12.9481 51.7042 13.0136 51.8206L11.4142 54.9042C11.211 55.2921 11.2896 55.7576 11.5977 56.0679L15.1506 59.5717C15.4587 59.8756 15.9372 59.9531 16.3239 59.7527L19.4573 58.1818C20.86 58.9899 22.3612 59.6105 23.9409 60.0113L25.0225 63.3083C25.1602 63.722 25.5469 64 25.9861 64H31.0073C31.4465 64 31.8332 63.722 31.9709 63.3083L33.059 60.0113C34.6322 59.604 36.1399 58.9899 37.5427 58.1818L40.6695 59.7527C41.0628 59.9467 41.5347 59.8756 41.8428 59.5717L45.3957 56.0679C45.7037 55.764 45.7824 55.2921 45.5792 54.9107L43.9863 51.8271C44.0519 51.7107 44.1174 51.5943 44.183 51.478H51.6885C54.3433 51.478 56.4999 49.3511 56.4999 46.7329V4.75151C56.5131 2.13333 54.3499 0 51.6951 0ZM5.31142 1.99758H51.6951C53.2355 1.99758 54.481 3.23232 54.481 4.75151V11.5135H2.52552V4.75151C2.52552 3.23232 3.77098 1.99758 5.31142 1.99758ZM40.9382 57.6453L37.9622 56.1519C37.641 55.9903 37.2674 56.0097 36.9593 56.1972C35.4451 57.141 33.7932 57.8133 32.0495 58.2077C31.7021 58.2853 31.4203 58.5374 31.3088 58.8735L30.2731 62.0089H26.7268L25.6977 58.88C25.5862 58.5438 25.3044 58.2917 24.957 58.2141C23.2133 57.8263 21.5614 57.1475 20.0472 56.2036C19.7457 56.0162 19.3655 55.9968 19.0443 56.1584L16.0617 57.6517L13.5511 55.1758L15.0719 52.2408C15.2358 51.924 15.2161 51.5556 15.026 51.2517C14.0755 49.7584 13.3873 48.1293 12.9874 46.4032C12.9087 46.0606 12.6531 45.7826 12.3122 45.6792L9.13958 44.6578V41.1604L12.3122 40.1455C12.6531 40.0356 12.9087 39.7576 12.9874 39.415C13.3807 37.6954 14.069 36.0663 15.026 34.5729C15.2161 34.2756 15.2358 33.9006 15.0719 33.5838L13.5577 30.6424L16.0683 28.1665L19.0508 29.6663C19.372 29.8279 19.7457 29.8085 20.0538 29.621C21.568 28.6772 23.2199 28.0048 24.9635 27.6105C25.3109 27.5329 25.5928 27.2808 25.7042 26.9446L26.7334 23.8158H30.2797L31.3154 26.9511C31.4268 27.2873 31.7087 27.5394 32.0561 27.617C33.7997 28.0048 35.4516 28.6836 36.9658 29.6275C37.2674 29.815 37.6476 29.8343 37.9688 29.6727L40.9448 28.1729L43.4554 30.6489L41.9411 33.5903C41.7773 33.9071 41.7969 34.2756 41.987 34.5794C42.9441 36.0727 43.6258 37.7018 44.0256 39.4214C44.1043 39.764 44.36 40.042 44.7008 40.1519L47.8735 41.1669V44.6642L44.6943 45.6857C44.3534 45.7956 44.0978 46.0735 44.0191 46.4162C43.6258 48.1293 42.9375 49.7584 41.9805 51.2646C41.7904 51.562 41.7707 51.937 41.9346 52.2473L43.4488 55.1822L40.9382 57.6453ZM51.6951 49.4804H45.1531C45.4284 48.8016 45.6644 48.1099 45.848 47.4053L49.191 46.3321C49.6106 46.1964 49.8924 45.8149 49.8924 45.3818V40.4299C49.8924 39.9968 49.6106 39.6154 49.191 39.4796L45.848 38.4129C45.435 36.8614 44.8123 35.381 43.9929 33.9911L45.5858 30.901C45.7824 30.5131 45.7103 30.0477 45.4022 29.7438L41.8494 26.24C41.5413 25.9362 41.0628 25.8586 40.6695 26.059L37.5427 27.6364C36.1399 26.8218 34.6322 26.2077 33.059 25.8069L31.9709 22.5099C31.8332 22.0962 31.4465 21.8182 31.0073 21.8182H25.9861C25.5469 21.8182 25.1602 22.0962 25.0225 22.5099L23.9409 25.8069C22.3677 26.2141 20.8666 26.8283 19.4573 27.6364L16.3239 26.059C15.9306 25.8651 15.4587 25.9362 15.144 26.24L11.5912 29.7438C11.2831 30.0477 11.2044 30.5196 11.4076 30.9075L13.0071 33.9976C12.1877 35.381 11.5584 36.8614 11.152 38.4194L7.8089 39.4861C7.38938 39.6218 7.10751 40.0032 7.10751 40.4364V45.3883C7.10751 45.8214 7.38938 46.2028 7.8089 46.3386L11.1454 47.4117C11.3355 48.1164 11.5715 48.8081 11.8403 49.4869H5.29831C3.75787 49.4869 2.51241 48.2521 2.51241 46.7394V13.5111H54.4744V46.7329C54.481 48.2457 53.2355 49.4804 51.6951 49.4804ZM8.66106 9.71636C10.3129 9.71636 11.6633 8.39111 11.6633 6.75556C11.6633 5.12646 10.3195 3.79475 8.66106 3.79475C7.00918 3.79475 5.66539 5.12 5.66539 6.75556C5.66539 8.39111 7.00918 9.71636 8.66106 9.71636ZM8.66106 5.79879C9.19857 5.79879 9.63776 6.23192 9.63776 6.76202C9.63776 7.29212 9.19857 7.72525 8.66106 7.72525C8.12354 7.72525 7.69091 7.29212 7.69091 6.76202C7.69091 6.22545 8.1301 5.79879 8.66106 5.79879ZM16.5271 9.71636C18.179 9.71636 19.5294 8.39111 19.5294 6.75556C19.5294 5.12646 18.1856 3.79475 16.5271 3.79475C14.8687 3.79475 13.5249 5.12 13.5249 6.75556C13.5249 8.39111 14.8753 9.71636 16.5271 9.71636ZM16.5271 5.79879C17.0647 5.79879 17.5038 6.23192 17.5038 6.76202C17.5038 7.29212 17.0647 7.72525 16.5271 7.72525C15.9896 7.72525 15.5504 7.29212 15.5504 6.76202C15.557 6.22545 15.9896 5.79879 16.5271 5.79879ZM24.3932 9.71636C26.0451 9.71636 27.3954 8.39111 27.3954 6.75556C27.3954 5.12646 26.0517 3.79475 24.3932 3.79475C22.7413 3.79475 21.391 5.12 21.391 6.75556C21.391 8.39111 22.7413 9.71636 24.3932 9.71636ZM24.3932 5.79879C24.9307 5.79879 25.3699 6.23192 25.3699 6.76202C25.3699 7.29212 24.9307 7.72525 24.3932 7.72525C23.8557 7.72525 23.4165 7.29212 23.4165 6.76202C23.4165 6.22545 23.8557 5.79879 24.3932 5.79879ZM29.4472 6.75556C29.4472 6.20606 29.8995 5.75354 30.4632 5.75354H50.3316C50.8888 5.75354 51.3477 6.1996 51.3477 6.75556C51.3477 7.30505 50.8954 7.75758 50.3316 7.75758H30.4632C29.8995 7.75758 29.4472 7.31151 29.4472 6.75556ZM28.5032 33.6485C23.3247 33.6485 19.1164 37.8053 19.1164 42.9059C19.1164 48.0065 23.3247 52.1697 28.5032 52.1697C33.6818 52.1697 37.8901 48.0194 37.8901 42.9123C37.8901 37.8053 33.6818 33.6485 28.5032 33.6485ZM28.5032 50.1721C24.4457 50.1721 21.1419 46.9139 21.1419 42.9123C21.1419 38.9107 24.4457 35.6525 28.5032 35.6525C32.5608 35.6525 35.8646 38.9107 35.8646 42.9123C35.8646 46.9139 32.5608 50.1721 28.5032 50.1721Z" fill="#3564DF"/>
</g>
<defs>
<clipPath id="clip0_2257_4103">
<rect width="56" height="64" fill="white" transform="translate(0.5)"/>
</clipPath>
</defs>
</svg>
