<svg width="64" height="69" viewBox="0 0 64 69" fill="none" xmlns="http://www.w3.org/2000/svg">
<g clip-path="url(#clip0_2189_2826)">
<path fill-rule="evenodd" clip-rule="evenodd" d="M62.2082 44.3899C62.2255 44.3555 62.2458 44.3212 62.266 44.2897C62.6075 43.6716 62.674 42.9733 62.5033 42.3379C61.9044 40.1258 58.8546 39.6106 57.5988 41.7341C56.8899 42.9303 57.3008 44.5559 58.6289 45.3256C59.8153 46.0125 61.4559 45.6118 62.2082 44.3899ZM25.779 31.1368H23.2241C22.2953 31.1368 22.2953 29.7431 23.2241 29.7431H25.779V27.5195C25.779 27.136 26.0944 26.8241 26.4821 26.8241H28.7304V25.3703C28.7304 24.4516 30.1395 24.4516 30.1395 25.3703V26.8241H31.2216V24.2971C31.2216 23.3785 32.6307 23.3785 32.6307 24.2971V26.8241H33.7128V25.3703C33.7128 24.4516 35.1219 24.4516 35.1219 25.3703V26.8241H36.2041V24.2971C36.2041 23.3785 37.6132 23.3785 37.6132 24.2971V26.8241H39.8614C40.2492 26.8241 40.5645 27.136 40.5645 27.5195V29.7431H43.1195C44.0483 29.7431 44.0483 31.1368 43.1195 31.1368H40.5645V32.2071H42.0345C42.9633 32.2071 42.9633 33.6007 42.0345 33.6007H40.5645V34.671H43.1195C44.0483 34.671 44.0483 36.0647 43.1195 36.0647H40.5645V37.135H42.0345C42.9633 37.135 42.9633 38.5286 42.0345 38.5286H40.5645V40.7493C40.5645 41.1328 40.2492 41.4448 39.8614 41.4448H37.6132V43.9717C37.6132 44.8904 36.2041 44.8904 36.2041 43.9717V41.4448L35.1161 41.4419V42.8957C35.1161 43.8143 33.707 43.8143 33.707 42.8957V41.4419H32.6249V43.9689C32.6249 44.8875 31.2158 44.8875 31.2158 43.9689V41.4419H30.1336V42.8957C30.1336 43.8143 28.7245 43.8143 28.7245 42.8957V41.4419H26.4763C26.0885 41.4419 25.7731 41.13 25.7731 40.7465V38.5258H24.3061C23.3773 38.5258 23.3773 37.1321 24.3061 37.1321H25.776V36.0618H23.2211C22.2923 36.0618 22.2923 34.6682 23.2211 34.6682H25.776V33.5979L24.3061 33.6007C23.3773 33.6007 23.3773 32.2071 24.3061 32.2071H25.776L25.779 31.1368ZM30.0903 30.3927C29.7025 30.3927 29.3872 30.7047 29.3872 31.0882V37.1752C29.3872 37.5587 29.7025 37.8706 30.0903 37.8706H36.2447C36.6324 37.8706 36.9478 37.5587 36.9478 37.1752V31.0882C36.9478 30.7047 36.6324 30.3927 36.2447 30.3927H30.0903ZM35.5416 31.7864H30.7934V36.4826H35.5416V31.7864ZM39.1498 28.2177H27.1885V40.0481H39.1498V28.2177ZM9.55239 56.8441C9.22253 56.3662 9.01131 55.542 8.98237 54.9868C6.60974 54.4087 4.48013 53.2554 3.27934 51.2006C3.27066 51.1834 3.26197 51.1691 3.25329 51.152C1.18154 47.5375 2.72379 42.3803 6.89621 36.9575C7.29262 36.4452 7.70931 35.9272 8.15197 35.4092C6.79495 34.0384 5.59126 32.6647 4.54957 31.3111C-4.48364 19.5664 0.377183 11.1758 15.2124 13.0469C17.0556 13.2787 19.0144 13.665 21.0601 14.2002C21.497 12.7893 21.9802 11.4585 22.5039 10.2222C25.1804 3.90626 28.9448 0 33.1668 0C34.7669 0 36.2484 0.560908 37.5735 1.48238C40.2529 -0.412099 44.0144 1.48238 44.0144 4.76203C44.0144 5.94682 43.4965 7.01425 42.666 7.7583C43.5775 9.49256 44.3992 11.4815 45.1082 13.6793C46.3726 13.4075 47.5966 13.1957 48.7742 13.0469C63.6088 11.1753 68.4732 19.566 59.437 31.314C58.3954 32.6677 57.1888 34.0385 55.8346 35.4122C56.9197 36.6857 57.8688 37.9505 58.6673 39.1897C60.8838 38.4771 63.2564 39.7506 63.8611 41.9799C64.3762 43.8802 63.4213 45.8748 61.6158 46.6876C61.7576 48.2788 61.5059 49.8356 60.7072 51.2035C58.2738 55.3732 51.8533 56.1402 44.9726 55.0126C39.0062 72.9244 27.0358 72.6013 21.2255 54.5948C19.7961 54.9038 18.4159 55.1328 17.0965 55.2816C16.7927 57.7113 14.3853 59.3139 12.0011 58.6814C11.0087 58.4124 10.1174 57.7828 9.55321 56.8441L9.55239 56.8441ZM9.16177 53.5988C10.2005 50.2648 14.7925 49.7182 16.5809 52.7718C16.7864 53.1209 16.9368 53.5158 17.0265 53.8907C18.2389 53.7505 19.5063 53.5387 20.8199 53.2583C20.0126 50.4851 19.3761 47.4144 18.942 44.1349C15.2123 41.6766 11.9108 39.0467 9.15619 36.3941C8.75689 36.8663 8.37783 37.3327 8.01902 37.7993C4.19092 42.7759 2.70945 47.3922 4.48321 50.4772C5.49305 52.1714 7.18261 53.0895 9.16177 53.5988ZM10.4783 54.1025C10.0963 55.5163 10.9412 56.9557 12.362 57.3335C13.7885 57.7113 15.2467 56.8756 15.6287 55.4705C16.2393 53.2182 13.7971 51.3323 11.7197 52.5028C11.0831 52.8634 10.6548 53.45 10.4783 54.1025ZM57.4221 39.8391C57.0199 40.1482 56.6698 40.5403 56.4007 41.0039C54.7543 43.8228 57.0055 47.2769 60.2317 47.0365C60.3098 48.2671 60.1073 49.4491 59.491 50.5051C57.4366 54.0251 51.6407 54.6661 45.3971 53.6731C46.4098 50.3075 47.1679 46.4899 47.6048 42.3746C50.2987 40.4372 52.7263 38.4225 54.8356 36.3963C55.8223 37.5581 56.6872 38.7116 57.4221 39.8391ZM36.5742 2.49018C35.5355 1.80907 34.3983 1.39125 33.1657 1.39125C29.5662 1.39125 26.2503 4.96849 23.7991 10.7549C23.2957 11.9397 22.8327 13.216 22.4132 14.5725C25.4745 15.4567 28.7036 16.6616 31.9908 18.1755C36.0648 16.301 40.0492 14.8959 43.7351 13.9916C43.0725 11.9569 42.3115 10.1081 41.4695 8.49407C38.8075 9.56436 35.862 7.62694 35.862 4.7594C35.8648 3.92091 36.1286 3.13987 36.5742 2.49018ZM41.8259 2.89941C40.1506 1.24245 37.2745 2.4215 37.2745 4.76247C37.2745 7.10344 40.1506 8.28249 41.8259 6.62552C42.8675 5.59817 42.8675 3.92677 41.8259 2.89941ZM18.7239 42.3151C18.2234 37.5645 18.1655 32.5566 18.5561 27.7484C15.2431 30.2153 12.3786 32.7938 10.0725 35.3435C12.5349 37.7188 15.4483 40.08 18.7239 42.3151ZM9.07962 34.3596C11.6722 31.5064 14.939 28.6217 18.7321 25.8942C19.1314 22.1566 19.7911 18.6652 20.6678 15.5342C14.3022 13.8715 5.06656 12.8784 2.13253 17.795C0.358846 20.8771 1.83739 25.4933 5.66833 30.473C6.65499 31.7522 7.79779 33.0546 9.07962 34.3596ZM22.0224 15.9042C21.2644 18.6171 20.6683 21.6135 20.2719 24.8128C23.4373 22.655 26.8777 20.6546 30.3473 18.9576C27.4885 17.6955 24.6871 16.674 22.0224 15.9042ZM53.9146 35.3442C52.1352 33.3782 50.0778 31.4607 47.9106 29.6864C48.1132 33.2779 48.0669 36.9754 47.7775 40.5241C50.0431 38.8327 52.1003 37.0928 53.9146 35.3442ZM46.4236 28.5017C42.092 25.1505 37.0919 22.1113 31.9942 19.7132C27.8652 21.6592 23.7654 24.0431 20.0669 26.6531C19.5316 32.1306 19.5953 37.9259 20.255 43.3319C21.5744 44.1876 22.6971 44.8486 24.0889 45.6643V45.6614C26.8001 47.2011 29.3289 48.4659 31.991 49.6107C36.9214 47.493 41.8634 44.7227 46.2649 41.6149C46.6844 37.3394 46.7394 32.8381 46.424 28.5024L46.4236 28.5017ZM33.7734 50.3513C37.3642 51.7822 40.8248 52.8125 44.0021 53.4278C44.9107 50.4401 45.6138 47.0774 46.0623 43.4546C42.2082 46.0846 38.0185 48.4368 33.7734 50.3513ZM43.5762 54.7585C39.9883 54.0516 36.0593 52.8297 31.9964 51.124C28.9206 52.4176 25.7378 53.5051 22.6009 54.2749C24.5338 60.216 28.1766 66.8752 33.1682 66.8752C37.9801 66.8752 41.5792 60.6566 43.5762 54.7585ZM30.2142 50.3485C27.9746 49.3383 25.7033 48.185 23.4319 46.8914C23.403 46.8771 23.3769 46.8628 23.348 46.8428V46.8399C22.3758 46.2847 21.4267 45.7152 20.4979 45.1343C20.9145 47.9303 21.4845 50.5516 22.1847 52.9411C24.8438 52.2972 27.5694 51.4016 30.2142 50.3485ZM33.6401 18.9601C38.07 21.1265 42.4162 23.7651 46.2643 26.6299C45.8853 22.7665 45.1967 18.9088 44.1463 15.3227C40.8449 16.1269 37.2919 17.3461 33.6401 18.9601ZM47.7806 27.7889C50.3558 29.8151 52.795 32.0301 54.9073 34.3567C56.1891 33.0546 57.3291 31.7496 58.3187 30.4675C62.1468 25.4908 63.6283 20.8746 61.8545 17.7895L61.8372 17.7609C59.2707 13.4911 51.7358 13.6829 45.5181 15.0079C46.6928 19.0402 47.4276 23.4218 47.7806 27.7889Z" fill="#11296A"/>
<path fill-rule="evenodd" clip-rule="evenodd" d="M62.2082 44.6868C62.2255 44.6524 62.2458 44.6181 62.266 44.5866C62.6075 43.9684 62.674 43.2701 62.5033 42.6348C61.9044 40.4227 58.8546 39.9075 57.5988 42.031C56.8899 43.2272 57.3008 44.8527 58.6289 45.6225C59.8153 46.3093 61.4559 45.9087 62.2082 44.6868ZM9.55239 57.141C9.22253 56.6631 9.01131 55.8389 8.98237 55.2837C6.60974 54.7056 4.48013 53.5523 3.27934 51.4975C3.27066 51.4803 3.26197 51.466 3.25329 51.4488C1.18154 47.8344 2.72379 42.6772 6.89621 37.2543C7.29262 36.7421 7.70931 36.2241 8.15197 35.7061C6.79495 34.3353 5.59126 32.9616 4.54957 31.608C-4.48364 19.8633 0.377183 11.4726 15.2124 13.3437C17.0556 13.5755 19.0144 13.9619 21.0601 14.497C21.497 13.0861 21.9802 11.7554 22.5039 10.5191C25.1804 4.20313 28.9448 0.296875 33.1668 0.296875C34.7669 0.296875 36.2484 0.857783 37.5735 1.77926C40.2529 -0.115224 44.0144 1.77926 44.0144 5.0589C44.0144 6.2437 43.4965 7.31112 42.666 8.05517C43.5775 9.78943 44.3992 11.7783 45.1082 13.9762C46.3726 13.7043 47.5966 13.4926 48.7742 13.3438C63.6088 11.4721 68.4732 19.8629 59.437 31.6109C58.3954 32.9646 57.1888 34.3354 55.8346 35.709C56.9197 36.9825 57.8688 38.2474 58.6673 39.4866C60.8838 38.774 63.2564 40.0475 63.8611 42.2768C64.3762 44.1771 63.4213 46.1717 61.6158 46.9845C61.7576 48.5757 61.5059 50.1325 60.7072 51.5004C58.2738 55.6701 51.8533 56.437 44.9726 55.3095C39.0062 73.2213 27.0358 72.8982 21.2255 54.8916C19.7961 55.2007 18.4159 55.4297 17.0965 55.5785C16.7927 58.0081 14.3853 59.6107 12.0011 58.9783C11.0087 58.7093 10.1174 58.0796 9.55321 57.141L9.55239 57.141ZM9.16177 53.8957C10.2005 50.5617 14.7925 50.0151 16.5809 53.0687C16.7864 53.4178 16.9368 53.8127 17.0265 54.1876C18.2389 54.0474 19.5063 53.8356 20.8199 53.5551C20.0126 50.782 19.3761 47.7113 18.942 44.4318C15.2123 41.9735 11.9108 39.3436 9.15619 36.691C8.75689 37.1632 8.37783 37.6296 8.01902 38.0961C4.19092 43.0728 2.70945 47.689 4.48321 50.7741C5.49305 52.4683 7.18261 53.3863 9.16177 53.8957ZM10.4783 54.3994C10.0963 55.8131 10.9412 57.2526 12.362 57.6304C13.7885 58.0082 15.2467 57.1725 15.6287 55.7673C16.2393 53.5151 13.7971 51.6292 11.7197 52.7996C11.0831 53.1602 10.6548 53.7469 10.4783 54.3994ZM57.4221 40.136C57.0199 40.4451 56.6698 40.8372 56.4007 41.3007C54.7543 44.1196 57.0055 47.5738 60.2317 47.3334C60.3098 48.564 60.1073 49.7459 59.491 50.8019C57.4366 54.322 51.6407 54.963 45.3971 53.9699C46.4098 50.6044 47.1679 46.7868 47.6048 42.6715C50.2987 40.7341 52.7263 38.7193 54.8356 36.6931C55.8223 37.855 56.6872 39.0085 57.4221 40.136ZM36.5742 2.78706C35.5355 2.10595 34.3983 1.68813 33.1657 1.68813C29.5662 1.68813 26.2503 5.26536 23.7991 11.0517C23.2957 12.2365 22.8327 13.5129 22.4132 14.8693C25.4745 15.7536 28.7036 16.9585 31.9908 18.4724C36.0648 16.5979 40.0492 15.1927 43.7351 14.2885C43.0725 12.2537 42.3115 10.405 41.4695 8.79095C38.8075 9.86123 35.862 7.92382 35.862 5.05627C35.8648 4.21779 36.1286 3.43674 36.5742 2.78706ZM41.8259 3.19629C40.1506 1.53932 37.2745 2.71837 37.2745 5.05934C37.2745 7.40031 40.1506 8.57936 41.8259 6.92239C42.8675 5.89504 42.8675 4.22364 41.8259 3.19629ZM18.7239 42.612C18.2234 37.8614 18.1655 32.8535 18.5561 28.0453C15.2431 30.5122 12.3786 33.0906 10.0725 35.6404C12.5349 38.0157 15.4483 40.3769 18.7239 42.612ZM9.07962 34.6565C11.6722 31.8033 14.939 28.9186 18.7321 26.191C19.1314 22.4535 19.7911 18.9621 20.6678 15.8311C14.3022 14.1684 5.06656 13.1753 2.13253 18.0918C0.358846 21.174 1.83739 25.7902 5.66833 30.7698C6.65499 32.0491 7.79779 33.3514 9.07962 34.6565ZM22.0224 16.201C21.2644 18.914 20.6683 21.9103 20.2719 25.1097C23.4373 22.9519 26.8777 20.9515 30.3473 19.2544C27.4885 17.9924 24.6871 16.9709 22.0224 16.201ZM53.9146 35.6411C52.1352 33.675 50.0778 31.7576 47.9106 29.9833C48.1132 33.5748 48.0669 37.2723 47.7775 40.8209C50.0431 39.1296 52.1003 37.3896 53.9146 35.6411ZM46.4236 28.7986C42.092 25.4474 37.0919 22.4081 31.9942 20.0101C27.8652 21.956 23.7654 24.34 20.0669 26.95C19.5316 32.4275 19.5953 38.2228 20.255 43.6288C21.5744 44.4845 22.6971 45.1455 24.0889 45.9611V45.9583C26.8001 47.498 29.3289 48.7628 31.991 49.9075C36.9214 47.7898 41.8634 45.0196 46.2649 41.9117C46.6844 37.6362 46.7394 33.1349 46.424 28.7993L46.4236 28.7986ZM33.7734 50.6482C37.3642 52.0791 40.8248 53.1094 44.0021 53.7246C44.9107 50.7369 45.6138 47.3743 46.0623 43.7515C42.2082 46.3815 38.0185 48.7337 33.7734 50.6482ZM43.5762 55.0554C39.9883 54.3485 36.0593 53.1265 31.9964 51.4209C28.9206 52.7144 25.7378 53.8019 22.6009 54.5718C24.5338 60.5129 28.1766 67.1721 33.1682 67.1721C37.9801 67.1721 41.5792 60.9535 43.5762 55.0554ZM30.2142 50.6454C27.9746 49.6352 25.7033 48.4819 23.4319 47.1883C23.403 47.174 23.3769 47.1597 23.348 47.1396V47.1368C22.3758 46.5816 21.4267 46.0121 20.4979 45.4312C20.9145 48.2271 21.4845 50.8485 22.1847 53.2379C24.8438 52.594 27.5694 51.6985 30.2142 50.6454ZM33.6401 19.257C38.07 21.4234 42.4162 24.062 46.2643 26.9268C45.8853 23.0634 45.1967 19.2057 44.1463 15.6195C40.8449 16.4237 37.2919 17.643 33.6401 19.257ZM47.7806 28.0858C50.3558 30.1119 52.795 32.327 54.9073 34.6536C56.1891 33.3515 57.3291 32.0465 58.3187 30.7644C62.1468 25.7877 63.6283 21.1715 61.8545 18.0864L61.8372 18.0578C59.2707 13.788 51.7358 13.9797 45.5181 15.3048C46.6928 19.337 47.4276 23.7187 47.7806 28.0858Z" fill="#3564DF"/>
</g>
<defs>
<clipPath id="clip0_2189_2826">
<rect width="64" height="68.5714" fill="white"/>
</clipPath>
</defs>
</svg>
