<svg width="80" height="66" viewBox="0 0 80 66" fill="none" xmlns="http://www.w3.org/2000/svg">
<g clip-path="url(#clip0_2257_4109)">
<path d="M39.9956 46.472C35.8113 46.472 31.8535 45.6324 28.8611 44.103C25.6001 42.4411 23.8022 40.1312 23.8022 37.6017C23.8022 35.0723 25.6 32.7659 28.8611 31.1005C31.8573 29.5746 35.8117 28.7314 39.9956 28.7314C44.1796 28.7314 48.1378 29.5711 51.1302 31.1005C54.3912 32.7624 56.189 35.0723 56.189 37.6017C56.189 40.1312 54.3913 42.4411 51.1302 44.103C48.1374 45.6289 44.1796 46.472 39.9956 46.472ZM39.9956 31.2329C36.1981 31.2329 32.6444 31.9785 29.9929 33.3268C27.6447 34.5254 26.2964 36.0826 26.2964 37.6017C26.2964 39.1208 27.6447 40.6781 29.9929 41.8767C32.6443 43.2284 36.1979 43.9741 39.9956 43.9741C43.7934 43.9741 47.3469 43.2285 49.9984 41.8767C52.3466 40.6781 53.6949 39.1208 53.6949 37.6017C53.6949 36.0826 52.3466 34.5254 49.9984 33.3268C47.347 31.9751 43.7969 31.2294 39.9956 31.2294V31.2329Z" fill="#3564DF"/>
<path d="M39.9958 56.2406C35.3341 56.2406 30.9161 55.178 27.8712 53.321C25.2442 51.7149 23.7983 49.607 23.7983 47.3703H23.8018C23.8018 46.6805 24.3593 46.123 25.0491 46.123C25.7389 46.123 26.2963 46.6805 26.2963 47.3703C26.2963 48.7012 27.3171 50.0565 29.1707 51.1887C31.836 52.8123 35.7799 53.7425 39.9958 53.7425C44.2116 53.7425 48.1553 52.8123 50.8173 51.1887C52.6708 50.0565 53.6917 48.7011 53.6917 47.3703H53.6951C53.6951 46.6805 54.2526 46.123 54.9424 46.123C55.6322 46.123 56.1896 46.6805 56.1896 47.3703C56.1896 49.607 54.7438 51.7183 52.1168 53.321C49.0752 55.1745 44.6575 56.2406 39.9958 56.2406Z" fill="#3564DF"/>
<path d="M39.9958 66.0105C35.3341 66.0105 30.9161 64.9478 27.8712 63.0909C25.2442 61.4847 23.7983 59.3769 23.7983 57.1402V37.6091L23.8018 37.6056C23.8018 36.9193 24.3593 36.3584 25.0491 36.3584C25.7389 36.3584 26.2963 36.9193 26.2963 37.6056V57.1367C26.2963 58.4676 27.3171 59.8228 29.1707 60.9551C31.8325 62.5787 35.7763 63.5089 39.9922 63.5089C44.2079 63.5089 48.1517 62.5787 50.8137 60.9551C52.6672 59.8228 53.6881 58.4675 53.6881 57.1367V37.6056H53.6951C53.6951 36.9193 54.2525 36.3584 54.9423 36.3584C55.6321 36.3584 56.1895 36.9193 56.1895 37.6056V57.1367C56.1895 59.3734 54.7437 61.4847 52.1167 63.0874C49.0751 64.9444 44.6575 66.0105 39.9958 66.0105Z" fill="#3564DF"/>
<path d="M67.042 48.6178H54.9424C54.2526 48.6178 53.6952 48.0603 53.6952 47.3705C53.6952 46.6807 54.2526 46.1233 54.9424 46.1233H67.042C71.8744 46.1128 75.9472 42.5208 76.5605 37.7302C77.1737 32.9397 74.1356 28.4383 69.4636 27.212C69.1117 27.1214 68.8156 26.881 68.6553 26.5535C68.495 26.226 68.488 25.8462 68.6309 25.5117C70.3276 21.5747 69.2127 16.9863 65.8959 14.2692C62.5791 11.5551 57.8653 11.3601 54.3359 13.7989C53.9875 14.0428 53.5346 14.0915 53.1409 13.9243C52.7472 13.7571 52.465 13.4017 52.3954 12.9801C51.3641 6.93538 46.1276 2.51445 39.996 2.51445C33.8644 2.51445 28.6278 6.93565 27.6003 12.9801C27.5306 13.4017 27.2484 13.757 26.8547 13.9243C26.461 14.0915 26.0081 14.0427 25.6562 13.7989C22.1304 11.3635 17.4164 11.5587 14.0997 14.2727C10.7864 16.9903 9.67155 21.5752 11.3647 25.5125C11.5111 25.847 11.5006 26.2268 11.3404 26.5543C11.1801 26.8818 10.8874 27.1222 10.5321 27.2163C5.85998 28.4392 2.82196 32.9405 3.43515 37.731C4.04834 42.5215 8.12115 46.1135 12.9536 46.124H25.0497C25.7395 46.124 26.2969 46.6815 26.2969 47.3713C26.2969 48.0611 25.7395 48.622 25.0497 48.622H12.95C6.27463 48.6185 0.843265 43.1904 0.843265 36.5116C0.839781 31.5016 3.92659 27.011 8.60216 25.2094C8.25724 24.0736 8.08304 22.8925 8.08653 21.7044C8.08653 15.029 13.5181 9.59766 20.1933 9.59766C22.0468 9.59417 23.8724 10.0192 25.5343 10.8379C26.7642 6.63973 29.757 3.1801 33.7357 1.36141C37.7144 -0.453803 42.2854 -0.453803 46.2643 1.36141C50.243 3.1801 53.2358 6.63973 54.4657 10.8379C56.1276 10.0192 57.9532 9.59418 59.8067 9.59766C66.4821 9.59766 71.9135 15.0292 71.9135 21.7044C71.9135 22.8925 71.7428 24.0735 71.3979 25.2094C76.0734 27.0106 79.1602 31.5015 79.1567 36.5116C79.1498 43.1905 73.7181 48.6184 67.0428 48.6184L67.042 48.6178Z" fill="#3564DF"/>
</g>
<defs>
<clipPath id="clip0_2257_4109">
<rect width="78.3135" height="66.01" fill="white" transform="translate(0.843262)"/>
</clipPath>
</defs>
</svg>
