<svg width="63" height="68" viewBox="0 0 63 68" fill="none" xmlns="http://www.w3.org/2000/svg">
<g clip-path="url(#clip0_2305_5261)">
<path d="M3.41139 60.6947H38.9201C40.5188 60.6947 41.8168 59.3931 41.8168 57.7989V55.4808C42.4329 55.5539 43.0489 55.5905 43.6649 55.5905C44.9409 55.5905 46.1949 55.4369 47.4123 55.1517L53.2938 65.5795C53.9171 66.6837 54.9365 67.4808 56.1611 67.8245C56.5865 67.9415 57.0192 68 57.4518 68C58.2585 68 59.0579 67.7952 59.7839 67.3857L60.0699 67.2249C62.3579 65.9378 63.1793 63.0347 61.8886 60.7532L55.8971 50.1353C57.5398 48.3144 58.8085 46.1133 59.5126 43.6051C61.9546 34.8958 56.8432 25.8208 48.1016 23.3857C45.9969 22.8007 43.8629 22.6545 41.8168 22.8885V2.8958C41.8168 1.30165 40.5188 0 38.9201 0H18.005C17.9317 0 17.8657 0.00731259 17.7997 0.0219378C17.7044 0.0438757 17.6164 0.0731262 17.5357 0.117002C17.5137 0.124315 17.4917 0.13894 17.4697 0.153565C17.389 0.204753 17.3083 0.255942 17.235 0.329068L0.830007 16.6728C0.764006 16.7386 0.705338 16.819 0.654003 16.9068C0.639336 16.9287 0.632003 16.9506 0.617336 16.9653C0.573335 17.053 0.544001 17.1408 0.522001 17.2285C0.507334 17.3016 0.5 17.3675 0.5 17.4406V57.7916C0.5 59.3857 1.80536 60.6874 3.40406 60.6874L3.41139 60.6947ZM39.6168 2.8958V23.298C34.102 24.7093 29.4673 28.9214 27.8246 34.7642C25.3825 43.4735 30.4939 52.5484 39.2355 54.9835C39.3601 55.0201 39.4921 55.042 39.6168 55.0786V57.7989C39.6168 58.1865 39.3015 58.5009 38.9201 58.5009H3.41139C3.02272 58.5009 2.70738 58.1865 2.70738 57.7989V18.5448H16.5897C17.9757 18.5448 19.1051 17.4186 19.1051 16.0366V2.19378H38.9201C39.3015 2.19378 39.6168 2.50823 39.6168 2.8958ZM47.515 25.4991C55.0831 27.6124 59.5199 35.4735 57.4005 43.0201C55.2811 50.5667 47.3976 54.9835 39.8295 52.8775C32.2613 50.7642 27.8246 42.9031 29.9439 35.3565C31.704 29.0896 37.4461 24.9726 43.6722 24.9726C44.9409 24.9726 46.2316 25.1408 47.5076 25.4991H47.515ZM58.7132 65.4845C58.1192 65.8208 57.4225 65.9013 56.7625 65.7185C56.1025 65.5357 55.5525 65.1042 55.2151 64.5119L49.561 54.4936C51.2697 53.8355 52.8611 52.9068 54.2618 51.7294L59.9672 61.8501C60.6639 63.0786 60.2239 64.6435 58.9919 65.3382L58.7059 65.4991L58.7132 65.4845ZM16.905 16.0366C16.905 16.2048 16.7583 16.351 16.5897 16.351H4.26208L16.905 3.74406V16.0366Z" fill="#3564DF"/>
<path d="M14.6468 45.1562H8.12737C7.51869 45.1562 7.02734 45.6462 7.02734 46.2531V52.7541C7.02734 53.361 7.51869 53.8509 8.12737 53.8509H14.6468C15.2555 53.8509 15.7469 53.361 15.7469 52.7541V46.2531C15.7469 45.6462 15.2555 45.1562 14.6468 45.1562ZM13.5468 51.6572H9.22739V47.35H13.5468V51.6572Z" fill="#3564DF"/>
<path d="M20.0654 52.7453C20.0654 53.3523 20.5568 53.8422 21.1655 53.8422H29.0049C29.6136 53.8422 30.105 53.3523 30.105 52.7453C30.105 52.1384 29.6136 51.6484 29.0049 51.6484H21.1655C20.5568 51.6484 20.0654 52.1384 20.0654 52.7453Z" fill="#3564DF"/>
<path d="M14.6468 33.25H8.12737C7.51869 33.25 7.02734 33.7399 7.02734 34.3469V40.8478C7.02734 41.4548 7.51869 41.9447 8.12737 41.9447H14.6468C15.2555 41.9447 15.7469 41.4548 15.7469 40.8478V34.3469C15.7469 33.7399 15.2555 33.25 14.6468 33.25ZM13.5468 39.7509H9.22739V35.4438H13.5468V39.7509Z" fill="#3564DF"/>
<path d="M21.1655 41.9457H24.2895C24.8982 41.9457 25.3895 41.4558 25.3895 40.8488C25.3895 40.2419 24.8982 39.752 24.2895 39.752H21.1655C20.5568 39.752 20.0654 40.2419 20.0654 40.8488C20.0654 41.4558 20.5568 41.9457 21.1655 41.9457Z" fill="#3564DF"/>
<path d="M14.6468 21.3535H8.12737C7.51869 21.3535 7.02734 21.8435 7.02734 22.4504V28.9513C7.02734 29.5583 7.51869 30.0482 8.12737 30.0482H14.6468C15.2555 30.0482 15.7469 29.5583 15.7469 28.9513V22.4504C15.7469 21.8435 15.2555 21.3535 14.6468 21.3535ZM13.5468 27.8544H9.22739V23.5473H13.5468V27.8544Z" fill="#3564DF"/>
<path d="M21.1655 30.0473H26.4162C27.0249 30.0473 27.5162 29.5574 27.5162 28.9504C27.5162 28.3435 27.0249 27.8535 26.4162 27.8535H21.1655C20.5568 27.8535 20.0654 28.3435 20.0654 28.9504C20.0654 29.5574 20.5568 30.0473 21.1655 30.0473Z" fill="#3564DF"/>
<path d="M23.6078 18.1508H34.1974C34.8061 18.1508 35.2974 17.6609 35.2974 17.0539C35.2974 16.447 34.8061 15.957 34.1974 15.957H23.6078C22.9992 15.957 22.5078 16.447 22.5078 17.0539C22.5078 17.6609 22.9992 18.1508 23.6078 18.1508Z" fill="#3564DF"/>
<path d="M38.4952 30.0112C33.4204 32.8558 31.609 39.2909 34.4691 44.3586C35.8551 46.8083 38.1138 48.578 40.8272 49.3385C41.7732 49.6017 42.7339 49.7334 43.6946 49.7334C45.484 49.7334 47.2513 49.2727 48.8574 48.3732C53.9321 45.5286 55.7435 39.0935 52.8835 34.0259C51.4974 31.5761 49.2387 29.8065 46.5253 29.046C43.8046 28.2855 40.9592 28.6291 38.4952 30.0112ZM50.9621 35.1008C53.2208 39.1081 51.7908 44.205 47.772 46.4573C43.7533 48.7096 38.6418 47.2836 36.3831 43.2763C34.1244 39.269 35.5544 34.1721 39.5732 31.9198C40.8639 31.1959 42.2719 30.8522 43.6579 30.8522C46.584 30.8522 49.4294 32.3805 50.9621 35.1008Z" fill="#3564DF"/>
</g>
<defs>
<clipPath id="clip0_2305_5261">
<rect width="62" height="68" fill="white" transform="translate(0.5)"/>
</clipPath>
</defs>
</svg>
