<svg width="63" height="68" viewBox="0 0 63 68" fill="none" xmlns="http://www.w3.org/2000/svg">
<g clip-path="url(#clip0_2225_4177)">
<path d="M3.41139 60.6947H38.9201C40.5188 60.6947 41.8168 59.3931 41.8168 57.7989V55.4808C42.4329 55.5539 43.0489 55.5905 43.6649 55.5905C44.9409 55.5905 46.1949 55.4369 47.4123 55.1517L53.2938 65.5795C53.9171 66.6837 54.9365 67.4808 56.1611 67.8245C56.5865 67.9415 57.0192 68 57.4518 68C58.2585 68 59.0579 67.7952 59.7839 67.3857L60.0699 67.2249C62.3579 65.9378 63.1793 63.0347 61.8886 60.7532L55.8971 50.1353C57.5398 48.3144 58.8085 46.1133 59.5126 43.6051C61.9546 34.8958 56.8432 25.8208 48.1016 23.3857C45.9969 22.8007 43.8629 22.6545 41.8168 22.8885V2.8958C41.8168 1.30165 40.5188 0 38.9201 0H18.005C17.9317 0 17.8657 0.00731259 17.7997 0.0219378C17.7044 0.0438757 17.6164 0.0731262 17.5357 0.117002C17.5137 0.124315 17.4917 0.13894 17.4697 0.153565C17.389 0.204753 17.3083 0.255942 17.235 0.329068L0.830007 16.6728C0.764006 16.7386 0.705338 16.819 0.654003 16.9068C0.639336 16.9287 0.632003 16.9506 0.617336 16.9653C0.573335 17.053 0.544001 17.1408 0.522001 17.2285C0.507334 17.3016 0.5 17.3675 0.5 17.4406V57.7916C0.5 59.3857 1.80536 60.6874 3.40406 60.6874L3.41139 60.6947ZM39.6168 2.8958V23.298C34.102 24.7093 29.4673 28.9214 27.8246 34.7642C25.3825 43.4735 30.4939 52.5484 39.2355 54.9835C39.3601 55.0201 39.4921 55.042 39.6168 55.0786V57.7989C39.6168 58.1865 39.3015 58.5009 38.9201 58.5009H3.41139C3.02272 58.5009 2.70738 58.1865 2.70738 57.7989V18.5448H16.5897C17.9757 18.5448 19.1051 17.4186 19.1051 16.0366V2.19378H38.9201C39.3015 2.19378 39.6168 2.50823 39.6168 2.8958ZM47.515 25.4991C55.0831 27.6124 59.5199 35.4735 57.4005 43.0201C55.2811 50.5667 47.3976 54.9835 39.8295 52.8775C32.2613 50.7642 27.8246 42.9031 29.9439 35.3565C31.704 29.0896 37.4461 24.9726 43.6722 24.9726C44.9409 24.9726 46.2316 25.1408 47.5076 25.4991H47.515ZM58.7132 65.4845C58.1192 65.8208 57.4225 65.9013 56.7625 65.7185C56.1025 65.5357 55.5525 65.1042 55.2151 64.5119L49.561 54.4936C51.2697 53.8355 52.8611 52.9068 54.2618 51.7294L59.9672 61.8501C60.6639 63.0786 60.2239 64.6435 58.9919 65.3382L58.7059 65.4991L58.7132 65.4845ZM16.905 16.0366C16.905 16.2048 16.7583 16.351 16.5897 16.351H4.26208L16.905 3.74406V16.0366Z" fill="#3564DF"/>
<path d="M14.6463 45.1553H8.12688C7.5182 45.1553 7.02686 45.6452 7.02686 46.2522V52.7531C7.02686 53.36 7.5182 53.85 8.12688 53.85H14.6463C15.255 53.85 15.7464 53.36 15.7464 52.7531V46.2522C15.7464 45.6452 15.255 45.1553 14.6463 45.1553ZM13.5463 51.6562H9.2269V47.3491H13.5463V51.6562Z" fill="#3564DF"/>
<path d="M20.0659 52.7458C20.0659 53.3528 20.5573 53.8427 21.1659 53.8427H29.0054C29.6141 53.8427 30.1055 53.3528 30.1055 52.7458C30.1055 52.1389 29.6141 51.6489 29.0054 51.6489H21.1659C20.5573 51.6489 20.0659 52.1389 20.0659 52.7458Z" fill="#3564DF"/>
<path d="M14.6463 33.2505H8.12688C7.5182 33.2505 7.02686 33.7404 7.02686 34.3474V40.8483C7.02686 41.4552 7.5182 41.9452 8.12688 41.9452H14.6463C15.255 41.9452 15.7464 41.4552 15.7464 40.8483V34.3474C15.7464 33.7404 15.255 33.2505 14.6463 33.2505ZM13.5463 39.7514H9.2269V35.4443H13.5463V39.7514Z" fill="#3564DF"/>
<path d="M21.1659 41.9452H24.29C24.8987 41.9452 25.39 41.4553 25.39 40.8484C25.39 40.2414 24.8987 39.7515 24.29 39.7515H21.1659C20.5573 39.7515 20.0659 40.2414 20.0659 40.8484C20.0659 41.4553 20.5573 41.9452 21.1659 41.9452Z" fill="#3564DF"/>
<path d="M14.6463 21.3528H8.12688C7.5182 21.3528 7.02686 21.8427 7.02686 22.4497V28.9506C7.02686 29.5575 7.5182 30.0475 8.12688 30.0475H14.6463C15.255 30.0475 15.7464 29.5575 15.7464 28.9506V22.4497C15.7464 21.8427 15.255 21.3528 14.6463 21.3528ZM13.5463 27.8537H9.2269V23.5466H13.5463V27.8537Z" fill="#3564DF"/>
<path d="M21.1659 30.0475H26.4167C27.0254 30.0475 27.5167 29.5576 27.5167 28.9507C27.5167 28.3437 27.0254 27.8538 26.4167 27.8538H21.1659C20.5573 27.8538 20.0659 28.3437 20.0659 28.9507C20.0659 29.5576 20.5573 30.0475 21.1659 30.0475Z" fill="#3564DF"/>
<path d="M23.6078 18.1498H34.1974C34.8061 18.1498 35.2974 17.6599 35.2974 17.0529C35.2974 16.446 34.8061 15.9561 34.1974 15.9561H23.6078C22.9992 15.9561 22.5078 16.446 22.5078 17.0529C22.5078 17.6599 22.9992 18.1498 23.6078 18.1498Z" fill="#3564DF"/>
<path d="M38.4947 30.011C33.4199 32.8556 31.6085 39.2907 34.4686 44.3583C35.8546 46.8081 38.1133 48.5777 40.8267 49.3382C41.7727 49.6015 42.7334 49.7331 43.6941 49.7331C45.4835 49.7331 47.2509 49.2724 48.8569 48.373C53.9317 45.5284 55.743 39.0933 52.883 34.0256C51.4969 31.5759 49.2382 29.8062 46.5248 29.0457C43.8041 28.2852 40.9587 28.6289 38.4947 30.011ZM50.9616 35.1006C53.2203 39.1079 51.7903 44.2048 47.7715 46.4571C43.7528 48.7093 38.6413 47.2834 36.3826 43.2761C34.1239 39.2688 35.5539 34.1719 39.5727 31.9196C40.8634 31.1956 42.2714 30.8519 43.6574 30.8519C46.5835 30.8519 49.4289 32.3803 50.9616 35.1006Z" fill="#3564DF"/>
</g>
<defs>
<clipPath id="clip0_2225_4177">
<rect width="62" height="68" fill="white" transform="translate(0.5)"/>
</clipPath>
</defs>
</svg>
