<svg width="60" height="69" viewBox="0 0 60 69" fill="none" xmlns="http://www.w3.org/2000/svg">
<g clip-path="url(#clip0_2305_5275)">
<path fill-rule="evenodd" clip-rule="evenodd" d="M31.536 49.4112C31.172 49.6716 31.021 50.1422 31.1601 50.5713L31.5064 51.6249L30.6096 50.9708C30.2486 50.7104 29.7543 50.7104 29.3932 50.9708L28.4965 51.6249L28.8427 50.5713C28.9818 50.1451 28.8309 49.6745 28.4669 49.4112L27.5671 48.766H28.677C29.1209 48.766 29.5234 48.4789 29.6596 48.0497L29.9999 46.9961L30.3403 48.0497C30.4794 48.4789 30.876 48.766 31.3258 48.766H32.4357L31.536 49.4112ZM35.632 46.6913L32.0746 46.7002L30.9855 43.3174C30.6806 42.3674 29.3252 42.3674 29.0203 43.3174L27.9282 46.7002L24.3707 46.6913C23.3763 46.6913 22.959 47.9728 23.764 48.5558L26.6437 50.6394L25.5398 54.0222C25.232 54.9663 26.3211 55.7684 27.1292 55.1735L30 53.081L32.8708 55.1735C33.6581 55.7624 34.7709 54.9811 34.4602 54.0222L33.3563 50.6394L36.236 48.5558C37.041 47.9758 36.6235 46.6913 35.632 46.6913ZM20.4289 53.1255C25.8449 57.9497 34.0016 58.0739 39.5688 53.4481V51.1219C39.5688 45.8479 35.2744 41.5504 29.9973 41.5504C24.7203 41.5504 20.4259 45.8477 20.4259 51.1219L20.4289 53.1255ZM26.0906 35.5781C26.0906 33.4235 27.8457 31.6626 30.0003 31.6626C32.1549 31.6626 33.91 33.4235 33.91 35.5781C33.91 37.7328 32.1549 39.4937 30.0003 39.4937C27.8427 39.4908 26.0906 37.7298 26.0906 35.5781ZM15.4834 42.1248C15.4834 45.3241 16.4956 48.3666 18.372 50.8848C18.4726 45.9156 21.6956 41.7134 26.1554 40.1442C24.8562 39.0462 24.0275 37.4066 24.0275 35.5776C24.0275 32.2835 26.7089 29.6052 30.0029 29.6052C33.2969 29.6052 35.9783 32.2806 35.9783 35.5776C35.9783 37.4096 35.1496 39.0462 33.8503 40.1442C38.3815 41.7306 41.6368 46.0546 41.6368 51.1182V51.3549C46.2952 45.5837 45.946 37.0837 40.5861 31.7331C37.81 28.9511 34.1164 27.4269 30.1888 27.4269C22.0644 27.4269 15.4827 34.0002 15.4827 42.1239L15.4834 42.1248ZM42.0461 30.2689C35.4877 23.7164 24.8746 23.7223 18.3307 30.2689C11.7782 36.8244 11.7811 47.4375 18.3307 53.9904C24.8803 60.54 35.4962 60.5371 42.0461 53.9904C48.5809 47.4527 48.5809 36.8068 42.0461 30.2689ZM57.8774 48.6717H49.2204C51.5763 41.9268 50.2355 34.38 45.6156 28.8839C46.9001 28.0375 48.4065 27.5847 49.9485 27.5847C54.3198 27.5847 57.8774 31.1421 57.8774 35.5075V48.6717ZM54.1009 63.3778L51.4314 66.0355L46.1367 60.7437L48.8032 58.0772L54.1009 63.3778ZM44.3961 56.334L44.9229 55.7835L46.5536 57.4142L45.4733 58.4944L43.8426 56.8637C44.0291 56.6921 44.2126 56.5175 44.3961 56.334ZM30.0006 60.2317C31.9598 60.2317 33.9043 59.9358 35.7541 59.3172C38.8558 58.2902 41.3596 56.6063 43.6057 54.1734C49.8446 47.2331 49.8416 36.6435 43.6027 29.7124C43.0937 29.1472 42.7711 28.8542 42.2324 28.3451C35.1856 21.9997 24.3502 22.1033 17.4283 28.6588C13.6341 32.2784 11.7162 37.0491 11.7162 41.9443C11.7162 52.0007 19.8344 60.2317 30.0006 60.2317ZM2.1241 48.6714V35.5071C2.1241 31.1387 5.68153 27.5842 10.053 27.5842C11.5979 27.5842 13.1014 28.0371 14.3888 28.8835C9.73637 34.4386 8.46077 42.0001 10.7959 48.6712L2.1241 48.6714ZM5.96565 21.4283C5.96565 19.1789 7.80063 17.3411 10.0528 17.3411C12.3081 17.3411 14.14 19.182 14.14 21.4283C14.14 23.6865 12.3051 25.5155 10.0528 25.5155C7.7976 25.5184 5.96565 23.6864 5.96565 21.4283ZM21.6128 21.2122C21.6128 16.5923 25.3744 12.825 30.0001 12.825C34.6257 12.825 38.3873 16.5896 38.3873 21.2122V23.3816C33.0896 20.9873 26.9103 20.9843 21.6151 23.3816L21.6128 21.2122ZM30.0001 2.06621C32.3974 2.06621 34.3507 4.01953 34.3507 6.41683C34.3507 8.81414 32.4003 10.7675 30.0001 10.7675C27.6028 10.7675 25.6494 8.81414 25.6494 6.41683C25.6494 4.01953 27.6028 2.06621 30.0001 2.06621ZM49.9477 17.3406C52.2029 17.3406 54.0349 19.1815 54.0349 21.4278C54.0349 23.686 52.1999 25.515 49.9477 25.515C47.6955 25.515 45.8605 23.6829 45.8605 21.4278C45.8605 19.1784 47.6955 17.3406 49.9477 17.3406ZM53.7419 26.2666C55.1773 25.1419 56.1007 23.3898 56.1007 21.4276C56.1007 18.0359 53.3394 15.2717 49.9477 15.2717C46.5559 15.2717 43.7947 18.0359 43.7947 21.4276C43.7947 23.3898 44.7211 25.1419 46.1594 26.2754C45.4698 26.5536 44.8099 26.9206 44.1942 27.3557C42.9393 26.1719 41.9508 25.3639 40.4503 24.4612V21.2086C40.4503 16.8224 37.7274 13.0577 33.8829 11.5159C35.4189 10.3379 36.4133 8.49115 36.4133 6.41645C36.4133 2.87675 33.5366 0 29.9999 0C26.4632 0 23.5865 2.87675 23.5865 6.41645C23.5865 8.49115 24.578 10.3379 26.1169 11.5159C22.2724 13.0579 19.5495 16.8254 19.5495 21.2086V24.4612C18.1467 25.2988 16.9865 26.2133 15.8057 27.3557C15.1901 26.9206 14.5301 26.5536 13.8404 26.2754C15.2788 25.1419 16.2052 23.3898 16.2052 21.4276C16.2052 18.0359 13.4439 15.2717 10.0522 15.2717C6.66043 15.2717 3.89914 18.0359 3.89914 21.4276C3.89914 23.3898 4.82258 25.1419 6.25796 26.2666C2.62651 27.7671 0.0605469 31.3393 0.0605469 35.5062V49.7062C0.0605469 50.2715 0.522248 50.7362 1.09051 50.7362H11.6447C15.1459 58.0671 22.761 62.6958 31.015 62.27C35.1229 62.0569 38.9378 60.7014 42.2556 58.1976L44.1674 60.1065C43.9336 60.8139 44.0994 61.6248 44.6587 62.1901L49.986 67.5173C50.7792 68.3076 52.0784 68.3076 52.8716 67.5173L55.5737 64.8152C56.3728 64.0161 56.3669 62.7198 55.5737 61.9296L50.2465 56.6023C49.6752 56.0311 48.9265 55.8772 48.1659 56.1051L46.254 54.1962C47.0767 53.1071 47.7841 51.9469 48.3642 50.7364H58.9032C59.4744 50.7364 59.9361 50.2747 59.9361 49.7065L59.9391 35.5065C59.9391 31.3393 57.3733 27.7667 53.7419 26.2666Z" fill="#3564DF"/>
</g>
<defs>
<clipPath id="clip0_2305_5275">
<rect width="59.8786" height="68.11" fill="white" transform="translate(0.0605469)"/>
</clipPath>
</defs>
</svg>
