<svg width="77" height="60" viewBox="0 0 77 60" fill="none" xmlns="http://www.w3.org/2000/svg">
<g clip-path="url(#clip0_2257_4136)">
<path d="M31.6466 36.674C32.3239 36.674 32.8728 36.1169 32.8728 35.4294V30.5206H37.2752V37.2775C36.0347 37.7763 35.1517 38.9989 35.1517 40.434C35.1517 42.3085 36.6545 43.8339 38.5013 43.8339C40.3482 43.8339 41.851 42.3085 41.851 40.434C41.851 38.9989 40.968 37.7763 39.7275 37.2775V30.5206H44.1299V35.4294C44.1299 36.1169 44.6788 36.674 45.3561 36.674H50.8068C51.2981 37.9331 52.5027 38.8293 53.9166 38.8293C55.7634 38.8293 57.2662 37.304 57.2662 35.4294C57.2662 33.5549 55.7634 32.0295 53.9166 32.0295C52.5036 32.0295 51.2981 32.9258 50.8068 34.1849H46.5822V30.5206H48.4371C52.9276 30.5206 56.5808 26.8125 56.5808 22.2547C56.5808 18.0844 53.5007 14.6089 49.5285 14.0636C48.4084 8.86853 43.8344 5.06747 38.5004 5.06747C33.1665 5.06747 28.5916 8.86944 27.4724 14.0646C23.5038 14.6125 20.4272 18.0872 20.4272 22.2538C20.4272 26.8116 24.0805 30.5197 28.5701 30.5197H30.4241V34.184H26.2004C25.7091 32.9249 24.5036 32.0286 23.0906 32.0286C21.2438 32.0286 19.741 33.554 19.741 35.4285C19.741 37.3031 21.2438 38.8284 23.0906 38.8284C24.5045 38.8284 25.71 37.9322 26.2004 36.673L31.6466 36.674ZM38.5004 41.3466C38.0055 41.3466 37.6022 40.9373 37.6022 40.4349C37.6022 39.9325 38.0055 39.5232 38.5004 39.5232C38.9954 39.5232 39.3978 39.9325 39.3978 40.4349C39.3978 40.9373 38.9954 41.3466 38.5004 41.3466ZM53.9139 34.5186C54.4088 34.5186 54.8121 34.928 54.8121 35.4303C54.8121 35.9327 54.4088 36.3412 53.9139 36.3412C53.4189 36.3412 53.0165 35.9327 53.0165 35.4303C53.0156 34.928 53.4189 34.5186 53.9139 34.5186ZM22.875 22.2557C22.875 19.0946 25.4081 16.5035 28.5225 16.4788C29.1369 16.4743 29.6525 16.0093 29.7288 15.3902C30.284 10.9245 34.054 7.55653 38.4969 7.55653C42.9397 7.55653 46.7088 10.9245 47.2649 15.3902C47.3421 16.0084 47.8577 16.4743 48.4722 16.4779C51.5892 16.4998 54.1259 19.091 54.1259 22.2547C54.1259 25.4404 51.5721 28.0325 48.4335 28.0325H28.5665C25.4288 28.0334 22.875 25.4413 22.875 22.2557ZM23.087 36.3412C22.5921 36.3412 22.1887 35.9327 22.1887 35.4303C22.1887 34.928 22.5921 34.5186 23.087 34.5186C23.582 34.5186 23.9844 34.9271 23.9853 35.4285C23.9853 35.4294 23.9853 35.4294 23.9853 35.4303C23.9853 35.4313 23.9853 35.4313 23.9853 35.4322C23.9844 35.9336 23.582 36.3412 23.087 36.3412ZM75.2748 44.8468H71.6395V1.24453C71.6395 0.557075 71.0906 0 70.4133 0H6.58668C5.90939 0 5.36054 0.557075 5.36054 1.24453V44.8468H1.72614C1.04884 44.8468 0.5 45.4039 0.5 46.0914V52.4234C0.5 56.601 3.84875 60 7.96373 60H69.0354C73.1512 60 76.5 56.601 76.5 52.4234V46.0914C76.5 45.4039 75.9512 44.8468 75.2748 44.8468ZM7.81282 2.48906H69.1881V44.8477H47.7374C47.2685 44.8477 46.8409 45.1194 46.6352 45.5471L44.7318 49.5113H32.2691L30.3657 45.5471C30.16 45.1194 29.7324 44.8477 29.2635 44.8477H7.81282V2.48906ZM74.0486 52.4234C74.0486 55.2289 71.7993 57.5109 69.0363 57.5109H7.96463C5.20065 57.5109 2.95228 55.2279 2.95228 52.4234V47.335H28.4973L30.4007 51.3001C30.6064 51.7278 31.034 51.9995 31.5029 51.9995H45.498C45.9669 51.9995 46.3945 51.7278 46.6002 51.3001L48.5036 47.335H74.0486V52.4234Z" fill="#3564DF"/>
</g>
<defs>
<clipPath id="clip0_2257_4136">
<rect width="76" height="60" fill="white" transform="translate(0.5)"/>
</clipPath>
</defs>
</svg>
