<svg width="206" height="54" viewBox="0 0 206 54" fill="none" xmlns="http://www.w3.org/2000/svg">
<path d="M81.4078 8.875V13.0449H74.39V32.7309H70.1535V13.0449H63.1357V8.875H81.4078Z" fill="white"/>
<path d="M96.3671 14.0664C100.819 14.0664 102.71 16.1846 102.71 19.7894C102.71 23.2184 100.963 25.1609 96.3336 25.1609H87.3915V26.5049C87.3915 27.9915 88.2101 29.0838 90.278 29.0838H101.781V32.7218H90.278C85.5772 32.7218 83.7246 30.1049 83.7246 26.5714V20.2168C83.7246 16.6833 85.5772 14.0664 90.278 14.0664H96.3671ZM87.3915 22.2305H96.2235C98.2532 22.2305 99 21.3804 99 20.0031C99 18.5878 98.1814 17.6712 96.3288 17.6712H90.2733C88.2053 17.6712 87.3867 18.8015 87.3867 20.25V22.2305H87.3915Z" fill="white"/>
<path d="M124.295 14.0664V17.6712H114.961C111.681 17.6712 110.26 19.3667 110.26 23.3941C110.26 27.4215 111.686 29.0838 114.961 29.0838H124.295V32.7218H114.606C109.585 32.7218 106.449 29.6822 106.449 23.3941C106.449 17.1012 109.585 14.0664 114.606 14.0664H124.295Z" fill="white"/>
<path d="M132.552 5.97852V14.0714H139.178C145.516 14.0714 148.651 17.111 148.651 22.2355V32.7316H144.841V22.2355C144.841 19.3717 143.098 17.6761 139.178 17.6761H132.552V32.7316H128.775V5.97852H132.552Z" fill="white"/>
<path d="M157.311 14.0664L163.544 20.8152L170.026 14.0664H174.726L165.894 23.3609L174.837 32.7266H170.026L163.4 25.5503L156.632 32.7266H151.931L161.083 23.0094L152.534 14.0712H157.311V14.0664Z" fill="white"/>
<path d="M181.993 5.97852V32.7316H178.216V5.97852H181.993Z" fill="white"/>
<path d="M199.657 14.0664C204.109 14.0664 206 16.1846 206 19.7894C206 23.2184 204.253 25.1609 199.624 25.1609H190.681V26.5049C190.681 27.9915 191.5 29.0838 193.568 29.0838H205.071V32.7218H193.568C188.867 32.7218 187.015 30.1049 187.015 26.5714V20.2168C187.015 16.6833 188.867 14.0664 193.568 14.0664H199.657ZM190.681 22.2305H199.514C201.543 22.2305 202.29 21.3804 202.29 20.0031C202.29 18.5878 201.471 17.6712 199.619 17.6712H193.563C191.495 17.6712 190.677 18.8015 190.677 20.25V22.2305H190.681Z" fill="white"/>
<path d="M24.7102 19.7145C23.4991 20.2417 22.2449 20.7736 21.0146 21.2628V8.45383C21.0146 6.1124 21.9673 4.00369 23.5087 2.47441C25.0501 0.945119 27.1755 0 29.5356 0V17.7055C29.3728 17.7625 29.21 17.829 29.0329 17.8955C27.5872 18.4702 26.1272 19.1018 24.7102 19.7145Z" fill="#3564DF"/>
<path d="M50.5075 53.8958H42.4701C30.6174 53.8958 21.0146 44.3639 21.0146 32.6093C21.1104 32.5808 21.2061 32.5428 21.3019 32.5048C21.3785 32.4953 21.4551 32.4668 21.5316 32.4383C21.5412 32.4288 21.5604 32.4288 21.5699 32.4288C22.9773 31.8589 24.4134 31.2509 25.7873 30.6478C27.1851 30.0446 28.6356 29.4272 30.0525 28.862C31.0052 28.4821 31.9003 28.1544 32.7476 27.8789C32.5753 28.0404 32.403 28.2019 32.2354 28.3871C30.311 30.472 29.2531 33.3739 29.593 36.4515C30.1674 41.633 34.7917 45.4467 40.0479 45.4467H41.9866C44.3466 45.4467 46.472 46.3918 48.0135 47.9211C49.5549 49.4457 50.5075 51.5544 50.5075 53.8958Z" fill="#3564DF"/>
<path d="M50.5079 29.5937V29.6317C48.9282 28.2639 47.3485 27.2808 45.7735 26.6159C45.764 26.6159 45.764 26.6064 45.764 26.6064C45.29 26.4069 44.8209 26.2454 44.347 26.0982C44.1076 26.0222 43.8731 25.9557 43.6337 25.8987C43.3944 25.8417 43.1598 25.7847 42.9205 25.7372C42.5662 25.6707 42.2072 25.6138 41.8434 25.5663C40.9482 25.4523 40.0435 25.4143 39.1483 25.4618H38.9377C38.8994 25.4618 38.8706 25.4713 38.8323 25.4713C38.7557 25.4713 38.6696 25.4808 38.593 25.4903C38.5068 25.4903 38.4207 25.4998 38.3345 25.5093C35.4 25.7657 32.4704 26.6919 29.5455 27.8602C26.7116 28.9715 23.8825 30.2871 21.0629 31.408C21.0438 31.4174 21.0342 31.4175 21.015 31.4269V31.408C19.1002 32.1631 17.195 32.8233 15.285 33.2602C14.3324 33.4787 13.3797 33.5832 12.4463 33.5832C6.08431 33.5832 0.57923 28.6913 0.0478702 22.2085C0.00957405 21.876 0 21.5293 0 21.1779C0.0191481 21.1874 0.0287221 21.2064 0.0478702 21.2159C2.57063 23.3816 5.10297 24.5784 7.6353 25.0723C7.98954 25.1483 8.34857 25.1958 8.71238 25.2433C10.0097 25.4143 11.3117 25.4048 12.609 25.2623C15.4286 24.9773 18.2386 24.0702 21.0629 22.9494C23.8825 21.8333 26.7116 20.513 29.5455 19.3969C31.6805 18.5467 33.8107 17.8201 35.9458 17.3926C35.9649 17.3926 35.9841 17.3831 36.0032 17.3831C43.5188 16.1341 50.4887 21.914 50.5079 29.5937Z" fill="#3564DF"/>
<path d="M70.9338 41.8887V43.5034H67.3387C65.5484 43.5034 64.7633 44.3916 64.7633 46.5098C64.7633 48.6137 65.534 49.5019 67.3387 49.5019H70.9338V51.1166H67.3387C64.6245 51.1166 63.1357 49.6016 63.1357 46.5098C63.1357 43.4085 64.6389 41.8887 67.3387 41.8887H70.9338Z" fill="white"/>
<path d="M77.0997 43.8965C79.0288 43.8965 80.2543 45.0696 80.2543 47.506C80.2543 49.9424 79.0288 51.1155 77.0997 51.1155H75.5726C73.6291 51.1155 72.418 49.9376 72.418 47.506C72.418 45.0743 73.6291 43.8965 75.5726 43.8965H77.0997ZM75.7067 45.2928C74.4381 45.2928 73.8876 45.9482 73.8876 47.506C73.8876 49.0638 74.4381 49.7049 75.7067 49.7049H76.9609C78.2151 49.7049 78.7799 49.0638 78.7799 47.506C78.7799 45.9482 78.2151 45.2928 76.9609 45.2928H75.7067Z" fill="white"/>
<path d="M85.9938 43.8965C88.4591 43.8965 89.6606 45.0601 89.6606 47.0548V51.1155H88.1862V47.0548C88.1862 45.9197 87.5256 45.2928 85.9938 45.2928H83.6098C83.4854 45.2928 83.4327 45.3593 83.4327 45.497V51.1155H81.9727V45.0173C81.9727 44.1672 82.2599 43.8965 82.9923 43.8965H85.9938Z" fill="white"/>
<path d="M97.741 43.8965V45.2928H93.7199C93.0449 45.2928 92.7673 45.5635 92.7673 46.1144C92.7673 46.6226 92.9875 46.8933 93.8013 46.8933H95.5102C97.5208 46.8933 98.033 47.8099 98.033 48.9308C98.033 50.2131 97.358 51.1155 95.649 51.1155H91.4221V49.7097H95.649C96.324 49.7097 96.6017 49.477 96.6017 48.9165C96.6017 48.3419 96.3001 48.1092 95.5677 48.1092H93.8443C91.8338 48.1092 91.3359 47.1118 91.3359 46.0052C91.3359 44.7086 92.0109 43.9012 93.7055 43.9012H97.741V43.8965Z" fill="white"/>
<path d="M101.149 43.8965V48.2136C101.149 49.059 101.781 49.7049 102.939 49.7049H104.122C105.28 49.7049 105.898 49.0638 105.898 48.2136V43.8965H107.329V48.2706C107.329 49.9376 106.252 51.1107 104.175 51.1107H102.825C100.742 51.1107 99.6699 49.9329 99.6699 48.2706V43.8965H101.149Z" fill="white"/>
<path d="M110.815 40.7676V51.1116H109.354V40.7676H110.815Z" fill="white"/>
<path d="M113.141 43.8973V42.1875H114.616V43.8973H116.626V45.2936H114.616V48.7083C114.616 49.5157 114.908 49.7912 115.592 49.7912H116.598V51.1163H115.291C113.788 51.1163 113.141 50.5131 113.141 48.6276V45.2936H112.15V43.8973H113.141Z" fill="white"/>
<path d="M119.489 41.1816V42.8629H118.015V41.1816H119.489ZM119.479 43.8983V51.1125H118.019V43.8983H119.479Z" fill="white"/>
<path d="M125.563 43.8965C128.028 43.8965 129.225 45.0601 129.225 47.0548V51.1155H127.751V47.0548C127.751 45.9197 127.09 45.2928 125.563 45.2928H123.179C123.055 45.2928 123.002 45.3593 123.002 45.497V51.1155H121.542V45.0173C121.542 44.1672 121.829 43.8965 122.562 43.8965H125.563Z" fill="white"/>
<path d="M136.07 43.8973C137.808 43.8973 138.742 44.9089 138.742 46.9844V51.1401C138.742 53.1918 138.023 53.9944 135.984 53.9944H131.657V52.5981H135.817C136.903 52.5981 137.262 52.1754 137.262 51.1353V50.8076H134.055C132.112 50.8076 130.9 49.6725 130.9 47.3359C130.9 45.0134 132.112 43.8926 134.055 43.8926H136.07V43.8973ZM134.194 49.5016H137.267V46.9749C137.267 45.7971 136.812 45.2936 135.644 45.2936H134.199C132.944 45.2936 132.38 45.9205 132.38 47.3976C132.375 48.8746 132.94 49.5016 134.194 49.5016Z" fill="white"/>
<path d="M151.657 41.8887V43.5034H146.889C146.047 43.5034 145.678 43.9546 145.678 44.5958C145.678 45.1562 145.966 45.6881 147.057 45.6881H149.235C151.767 45.6881 152.361 47.0845 152.361 48.4095C152.361 49.9673 151.519 51.1166 149.398 51.1166H144.218V49.5019H149.451C150.331 49.5019 150.733 49.0222 150.733 48.3525C150.733 47.7494 150.418 47.2032 149.273 47.2032H147.11C144.63 47.2032 144.051 45.8211 144.051 44.5388C144.051 43.0095 144.879 41.8887 146.942 41.8887H151.657Z" fill="white"/>
<path d="M158.785 43.8982C160.508 43.8982 161.236 44.7198 161.236 46.1114C161.236 47.4364 160.561 48.1868 158.771 48.1868H155.314V48.7045C155.314 49.2792 155.63 49.7019 156.43 49.7019H160.882V51.1077H156.43C154.611 51.1077 153.893 50.0961 153.893 48.7282V46.2681C153.893 44.9003 154.611 43.8887 156.43 43.8887H158.785V43.8982ZM155.314 47.0565H158.732C159.517 47.0565 159.805 46.7288 159.805 46.1968C159.805 45.6507 159.489 45.2945 158.771 45.2945H156.43C155.63 45.2945 155.314 45.7314 155.314 46.2918V47.0565Z" fill="white"/>
<path d="M167.943 43.8965V45.2928H165.382C164.735 45.2928 164.443 45.592 164.443 46.2237V51.1155H162.983V46.0004C162.983 44.5519 163.52 43.8965 164.951 43.8965H167.943Z" fill="white"/>
<path d="M170.38 43.8965L172.807 49.6907C172.859 49.8427 172.984 49.9091 173.166 49.9091C173.357 49.9091 173.481 49.8427 173.553 49.6907L176.076 43.8965H177.646L174.836 50.3318C174.535 51.0157 173.994 51.277 173.17 51.277C172.333 51.277 171.792 51.0015 171.519 50.3318L168.848 43.8965H170.38Z" fill="white"/>
<path d="M180.385 41.1816V42.8629H178.91V41.1816H180.385ZM180.375 43.8983V51.1125H178.915V43.8983H180.375Z" fill="white"/>
<path d="M188.997 43.8973V45.2936H185.387C184.119 45.2936 183.568 45.949 183.568 47.5068C183.568 49.0646 184.119 49.7058 185.387 49.7058H188.997V51.1116H185.248C183.305 51.1116 182.094 49.9337 182.094 47.5021C182.094 45.0704 183.305 43.8926 185.248 43.8926H188.997V43.8973Z" fill="white"/>
<path d="M195.439 43.8982C197.163 43.8982 197.89 44.7198 197.89 46.1114C197.89 47.4364 197.215 48.1868 195.425 48.1868H191.969V48.7045C191.969 49.2792 192.285 49.7019 193.084 49.7019H197.536V51.1077H193.084C191.265 51.1077 190.547 50.0961 190.547 48.7282V46.2681C190.547 44.9003 191.265 43.8887 193.084 43.8887H195.439V43.8982ZM191.964 47.0565H195.382C196.167 47.0565 196.454 46.7288 196.454 46.1968C196.454 45.6507 196.138 45.2945 195.42 45.2945H193.079C192.28 45.2945 191.964 45.7314 191.964 46.2918V47.0565Z" fill="white"/>
<path d="M205.708 43.8965V45.2928H201.687C201.012 45.2928 200.734 45.5635 200.734 46.1144C200.734 46.6226 200.954 46.8933 201.768 46.8933H203.477C205.488 46.8933 206 47.8099 206 48.9308C206 50.2131 205.325 51.1155 203.616 51.1155H199.389V49.7097H203.616C204.291 49.7097 204.568 49.477 204.568 48.9165C204.568 48.3419 204.267 48.1092 203.534 48.1092H201.811C199.801 48.1092 199.303 47.1118 199.303 46.0052C199.303 44.7086 199.978 43.9012 201.672 43.9012H205.708V43.8965Z" fill="white"/>
</svg>
