<svg width="58" height="69" viewBox="0 0 58 69" fill="none" xmlns="http://www.w3.org/2000/svg">
<path fill-rule="evenodd" clip-rule="evenodd" d="M27.4607 43.5421C27.7276 43.5421 27.9524 43.3172 27.9524 43.0504V37.4862C27.9524 37.2194 27.7276 36.9946 27.4607 36.9946H2.7004C2.43358 36.9946 2.20874 37.2194 2.20874 37.4862V43.0504C2.20874 43.3173 2.43358 43.5421 2.7004 43.5421H8.84321C9.42181 43.5421 9.88951 44.0098 9.88951 44.5854V66.4677C9.88951 66.7075 10.0904 66.9084 10.3302 66.9084H19.8369C20.0768 66.9084 20.2776 66.7075 20.2776 66.4677L20.2746 44.5885C20.2746 44.0129 20.7423 43.5452 21.318 43.5452L27.4607 43.5421ZM14.8572 34.9018H27.2205C27.967 34.9018 28.5756 34.2963 28.5756 33.5468C28.5756 32.8003 27.967 32.1917 27.2205 32.1917L17.0338 32.1947C16.668 32.1947 16.3263 32.0029 16.1404 31.6911L7.01738 16.5695C6.38182 15.5142 4.82285 15.721 4.51709 16.9022C4.42715 17.247 4.47512 17.5978 4.652 17.8916L14.8572 34.9018ZM27.4607 45.6342H22.3642V66.4697C22.3642 67.8667 21.228 69 19.8339 69H10.3272C8.93315 69 7.7969 67.8667 7.7969 66.4697V45.6342H2.7004C1.27634 45.6342 0.119141 44.477 0.119141 43.05V37.4858C0.119141 36.0617 1.27634 34.9015 2.7004 34.9015H12.4167L2.85926 18.9641C1.8729 17.3212 2.47252 15.1897 4.1124 14.2453C5.72533 13.313 7.8329 13.8706 8.80721 15.4895L17.6271 30.1046H27.2205C29.1213 30.1046 30.6652 31.6485 30.6652 33.5492C30.6652 34.5295 30.2545 35.411 29.5979 36.0405C29.8797 36.4543 30.0416 36.9519 30.0416 37.4855V43.0498C30.0446 44.4738 28.8848 45.6342 27.4607 45.6342ZM55.7883 22.4986V37.971C55.7883 39.8417 54.7121 41.4456 52.9792 42.1561L40.1631 47.4025C38.4333 48.11 37.2071 49.3482 36.5206 51.084L30.7046 65.7528C30.5247 66.2055 30.1769 66.5623 29.7273 66.7571C28.2133 67.4107 26.7053 65.8967 27.2959 64.4007L34.2032 46.9798C34.5779 46.0354 35.1176 45.3549 35.948 44.7703L41.3323 40.9988C42.7383 40.0155 43.6407 38.6154 43.9495 36.9966C46.156 36.9846 48.0897 36.0013 49.3969 34.2235L54.0587 27.8828C54.6792 27.0403 54.9311 26.0061 54.7722 24.9658C54.2415 21.4942 49.7836 20.4419 47.7329 23.233L44.1324 28.1256L44.1834 22.5105C44.2104 19.3056 46.8156 16.6974 49.9874 16.6974C53.1863 16.6974 55.7883 19.2998 55.7883 22.4986ZM55.7883 45.5467C55.7883 45.2499 55.5425 45.0041 55.2457 45.0041H51.5402L40.9544 49.3331C40.8345 49.3811 40.7176 49.4351 40.6037 49.492V66.3643C40.6037 66.6581 40.8495 66.9069 41.1463 66.9069H55.2456C55.5424 66.9069 55.7882 66.6581 55.7882 66.3643L55.7883 45.5467ZM35.2376 34.9011H43.9108C45.4697 34.9011 46.7829 34.2385 47.7092 32.9794L52.3711 26.6387C53.3184 25.3496 52.2571 23.4938 50.6142 23.7427C50.1286 23.8177 49.6999 24.0755 49.412 24.4652L45.1939 30.2004C44.2495 31.4865 42.8525 32.194 41.2576 32.194H35.2347C34.4882 32.194 33.8796 32.7996 33.8796 33.5491C33.8826 34.2956 34.4911 34.9011 35.2376 34.9011ZM46.102 10.7194C46.102 12.863 47.8438 14.6048 49.9844 14.6048C52.1279 14.6048 53.8697 12.863 53.8697 10.7194C53.8697 8.57883 52.1279 6.83704 49.9844 6.83704C47.8438 6.83704 46.102 8.57883 46.102 10.7194ZM55.6448 42.9473C56.9099 43.1392 57.8813 44.2304 57.8813 45.5495V66.3673C57.8813 67.8213 56.7001 68.9995 55.2461 68.9995H41.1468C39.6928 68.9995 38.5116 67.8183 38.5116 66.3673V51.7315C38.4936 51.7735 38.4786 51.8125 38.4606 51.8545L32.6446 66.5232C31.3644 69.746 26.7896 69.8539 25.3955 66.6312C24.9788 65.6658 24.9608 64.6016 25.3476 63.6302L32.2549 46.2092C32.7735 44.8991 33.589 43.8678 34.7432 43.0583L40.1275 39.2839C40.9699 38.6963 41.5365 37.9138 41.8004 36.9934H35.2378C33.3371 36.9934 31.7931 35.4495 31.7931 33.5488C31.7931 31.648 33.3371 30.1041 35.2378 30.1041H41.2607C41.5306 30.1041 41.7824 30.0711 42.0222 30.0052L42.0912 22.4893C42.1182 19.4464 43.863 16.7991 46.3873 15.486C44.9453 14.3948 44.0099 12.6649 44.0099 10.7193C44.0099 7.42453 46.6901 4.74435 49.9848 4.74435C53.2796 4.74435 55.9598 7.42453 55.9598 10.7193C55.9598 12.6619 55.0275 14.3858 53.5914 15.48C56.1367 16.7931 57.8785 19.4434 57.8785 22.4982V37.9706C57.8785 39.9492 57.0569 41.7211 55.6448 42.9473ZM24.9818 18.322C25.3685 18.322 25.6803 18.6368 25.6803 19.0206C25.6803 19.4073 25.3655 19.7221 24.9818 19.7221C24.5951 19.7221 24.2803 19.4073 24.2803 19.0206C24.2803 18.6368 24.5951 18.322 24.9818 18.322ZM24.9818 16.2324C26.5197 16.2324 27.7729 17.4856 27.7729 19.0235C27.7729 20.5615 26.5227 21.8146 24.9818 21.8146C23.4438 21.8146 22.1907 20.5644 22.1907 19.0235C22.1907 17.4826 23.4438 16.2324 24.9818 16.2324ZM10.7627 7.98511C11.0296 7.98511 11.2964 7.88318 11.5002 7.67932C18.9112 0.238398 31.0141 0.223433 38.4609 7.67932C38.8687 8.08704 39.5312 8.08704 39.9389 7.67932C40.3437 7.2716 40.3437 6.61207 39.9389 6.20131C31.7039 -2.06135 18.2846 -2.07286 10.0227 6.20131C9.36314 6.86087 9.83938 7.98511 10.7627 7.98511ZM32.2912 13.8491C32.4951 14.053 32.7619 14.1549 33.0317 14.1549C33.9551 14.1549 34.4288 13.0307 33.7692 12.3711C28.9245 7.52642 21.0399 7.52343 16.1955 12.3711C15.7878 12.7788 15.7878 13.4414 16.1955 13.8491C16.6033 14.2569 17.2658 14.2569 17.6736 13.8491C21.7028 9.81987 28.262 9.81984 32.2912 13.8491Z" fill="#3564DF"/>
</svg>
