<svg width="62" height="64" viewBox="0 0 62 64" fill="none" xmlns="http://www.w3.org/2000/svg">
<path fill-rule="evenodd" clip-rule="evenodd" d="M21.6208 52.8375V60.6897C21.6208 62.517 23.1016 64 24.9311 64H37.4464C39.2759 64 40.7568 62.517 40.7568 60.6897V52.8375C40.9819 52.7007 41.1893 52.5374 41.3791 52.3498C41.9993 51.7275 42.3479 50.8866 42.3479 50.0083V46.1131C47.4105 42.5843 50.7253 36.7161 50.7253 30.0822C50.7253 19.2993 41.9706 10.5468 31.1899 10.5468C20.407 10.5468 11.6544 19.2993 11.6544 30.0822C11.6544 36.7161 14.967 42.5821 20.0296 46.1131V50.0083C20.0296 50.8866 20.3783 51.7275 20.9984 52.3498C21.1882 52.5374 21.3957 52.7007 21.6208 52.8375ZM38.5499 58.6593H23.8277V60.6897C23.8277 61.2988 24.3198 61.7931 24.9311 61.7931H37.4486C38.0577 61.7931 38.5499 61.2988 38.5499 60.6897V58.6593ZM38.5499 53.3186H23.8277V56.4524H38.5499V53.3186ZM35.8707 51.1117H39.0376C39.3311 51.1117 39.6114 50.9948 39.8188 50.7873C40.0263 50.5821 40.141 50.3018 40.141 50.0083V45.5283C40.141 45.1553 40.3286 44.8066 40.642 44.6036C45.3824 41.5095 48.5184 36.16 48.5184 30.0822C48.5184 20.5175 40.7523 12.7537 31.1899 12.7537C21.6252 12.7537 13.8613 20.5175 13.8613 30.0822C13.8613 36.16 16.9951 41.5095 21.7355 44.6036C22.0489 44.8066 22.2365 45.1553 22.2365 45.5283V50.0083C22.2365 50.3018 22.3535 50.5821 22.5587 50.7873C22.7661 50.9948 23.0464 51.1117 23.3399 51.1117H26.5179V45.4996H26.1339C25.5248 45.4996 25.0304 45.0052 25.0304 44.3961V40.6753C25.0304 40.1611 25.3813 39.7286 25.858 39.6072L23.7328 34.5909C23.6092 34.304 23.6158 33.9752 23.7482 33.6927L28.813 22.8921C28.994 22.5059 29.3846 22.2566 29.8128 22.2566H32.5758C33.0039 22.2566 33.3923 22.5059 33.5733 22.8921L38.6381 33.6927C38.7705 33.9752 38.7772 34.304 38.6558 34.5909L36.5284 39.6072C37.005 39.7286 37.3559 40.1611 37.3559 40.6753V44.3961C37.3559 45.0052 36.8638 45.4996 36.2525 45.4996H35.8707V51.1117ZM28.7248 45.4996V51.1117H33.6638V45.4996H28.7248ZM10.2045 50.6527L13.3581 47.819C13.8105 47.4108 13.8481 46.7134 13.442 46.261C13.0359 45.8063 12.3363 45.7688 11.8839 46.1771L8.72808 49.0108C8.27566 49.4168 8.23814 50.1142 8.64642 50.5688C9.05249 51.0212 9.74985 51.0588 10.2045 50.6527ZM54.4837 47.9691L51.2042 45.2833C50.7319 44.8971 50.0368 44.9655 49.6506 45.4378C49.2644 45.9079 49.335 46.603 49.805 46.9892L53.0845 49.6772C53.5568 50.0634 54.2519 49.9928 54.6381 49.5228C55.0243 49.0527 54.9559 48.3553 54.4837 47.9691ZM35.149 41.7788H27.2373V43.2927H35.149V41.7788ZM25.9551 34.1826L28.2414 39.5719H34.1449C34.8158 37.9939 36.4312 34.1826 36.4312 34.1826L32.2977 25.3683V33.8405C32.2977 34.4474 31.8034 34.944 31.1943 34.944C30.5852 34.944 30.0908 34.4474 30.0908 33.8405V25.3661L25.9551 34.1826ZM1.98821 31.4174H6.22767C6.83678 31.4174 7.33112 30.923 7.33112 30.3139C7.33112 29.7048 6.83678 29.2105 6.22767 29.2105H1.98821C1.37911 29.2105 0.884766 29.7048 0.884766 30.3139C0.884766 30.923 1.37911 31.4174 1.98821 31.4174ZM60.3981 29.2105H56.1587C55.5496 29.2105 55.0553 29.7048 55.0553 30.3139C55.0553 30.923 55.5496 31.4174 56.1587 31.4174H60.3981C61.0072 31.4174 61.5016 30.923 61.5016 30.3139C61.5016 29.7048 61.0072 29.2105 60.3981 29.2105ZM9.7631 10.4386L12.7623 13.4378C13.1926 13.8681 13.8922 13.8681 14.3226 13.4378C14.7529 13.0074 14.7529 12.3079 14.3226 11.8775L11.3234 8.87834C10.893 8.448 10.1934 8.448 9.7631 8.87834C9.33276 9.30869 9.33276 10.0083 9.7631 10.4386ZM51.063 8.87834L48.0638 11.8775C47.6335 12.3079 47.6335 13.0074 48.0638 13.4378C48.4942 13.8681 49.1938 13.8681 49.6241 13.4378L52.6233 10.4386C53.0536 10.0083 53.0536 9.30869 52.6233 8.87834C52.1929 8.448 51.4933 8.448 51.063 8.87834ZM30.0864 1.10345V5.3429C30.0864 5.952 30.5808 6.44634 31.1899 6.44634C31.7968 6.44634 32.2933 5.952 32.2933 5.3429V1.10345C32.2933 0.494345 31.7968 0 31.1899 0C30.5808 0 30.0864 0.494345 30.0864 1.10345Z" fill="#3564DF"/>
</svg>
