<svg width="44" height="44" viewBox="0 0 44 44" fill="none" xmlns="http://www.w3.org/2000/svg">
<rect x="0.5" y="0.5" width="43" height="43" rx="21.5" stroke="white" stroke-opacity="0.16"/>
<path d="M18.2051 16.7502C18.2048 17.3609 17.8343 17.9105 17.2683 18.1398C16.7022 18.3691 16.0537 18.2323 15.6284 17.7939C15.2032 17.3555 15.0862 16.7031 15.3326 16.1443C15.5791 15.5855 16.1397 15.2319 16.7501 15.2502C17.5609 15.2745 18.2055 15.939 18.2051 16.7502ZM18.2501 19.3602H15.2501V28.7502H18.2501V19.3602ZM22.9901 19.3602H20.0051V28.7502H22.9601V23.8227C22.9601 21.0777 26.5376 20.8227 26.5376 23.8227V28.7502H29.5001V22.8027C29.5001 18.1752 24.2051 18.3477 22.9601 20.6202L22.9901 19.3602Z" fill="white"/>
</svg>
