<svg width="44" height="59" viewBox="0 0 44 59" fill="none" xmlns="http://www.w3.org/2000/svg">
<path fill-rule="evenodd" clip-rule="evenodd" d="M22 58.8906C9.87032 58.8906 0 49.0227 0 36.8906C0 24.7609 9.86796 14.8906 22 14.8906C34.1297 14.8906 44 24.7586 44 36.8906C44 49.0203 34.132 58.8906 22 58.8906ZM22 16.4603C10.7332 16.4603 1.56907 25.6262 1.56907 36.8912C1.56907 48.158 10.735 57.3221 22 57.3221C33.2668 57.3221 42.4309 48.1563 42.4309 36.8912C42.4309 25.6262 33.265 16.4603 22 16.4603Z" fill="#3564DF"/>
<path fill-rule="evenodd" clip-rule="evenodd" d="M21.9999 43.1927C18.5258 43.1927 15.6982 40.365 15.6982 36.8934C15.6982 33.4193 18.5259 30.5918 21.9999 30.5918C25.4738 30.5918 28.2991 33.4194 28.2991 36.8934C28.2991 40.3675 25.4738 43.1927 21.9999 43.1927ZM21.9999 32.1585C19.3908 32.1585 17.2672 34.2821 17.2672 36.8912C17.2672 39.5002 19.3908 41.6238 21.9999 41.6238C24.6089 41.6238 26.7325 39.5002 26.7325 36.8912C26.7325 34.2821 24.6089 32.1585 21.9999 32.1585Z" fill="#3564DF"/>
<path fill-rule="evenodd" clip-rule="evenodd" d="M21.9998 53.6633C12.7533 53.6633 5.22949 46.1401 5.22949 36.8929C5.22949 27.6457 12.7527 20.1226 21.9998 20.1226C31.247 20.1226 38.7702 27.6457 38.7702 36.8929C38.7702 46.1401 31.247 53.6633 21.9998 53.6633ZM21.9998 21.6899C13.6161 21.6899 6.7968 28.5092 6.7968 36.8929C6.7968 45.2766 13.6161 52.096 21.9998 52.096C30.3812 52.096 37.2029 45.2766 37.2029 36.8929C37.2029 28.5092 30.3835 21.6899 21.9998 21.6899Z" fill="#3564DF"/>
<path fill-rule="evenodd" clip-rule="evenodd" d="M21.9997 48.431C15.6356 48.431 10.459 43.2543 10.459 36.8903C10.459 30.5263 15.6357 25.3496 21.9997 25.3496C28.3637 25.3496 33.5404 30.5263 33.5404 36.8903C33.5404 43.2543 28.3637 48.431 21.9997 48.431ZM21.9997 26.9193C16.5009 26.9193 12.0257 31.392 12.0257 36.8932C12.0257 42.392 16.4984 46.8649 21.9997 46.8649C27.4984 46.8649 31.9737 42.3899 31.9737 36.8909C31.9737 31.3919 27.501 26.9193 21.9997 26.9193Z" fill="#3564DF"/>
<path fill-rule="evenodd" clip-rule="evenodd" d="M22.0004 37.6757C21.5678 37.6757 21.2158 37.3237 21.2158 36.8912V4.11266C21.2158 3.68012 21.5678 3.32812 22.0004 3.32812C22.4329 3.32812 22.7849 3.68014 22.7849 4.11266V36.8912C22.7849 37.3237 22.4352 37.6757 22.0004 37.6757Z" fill="#3564DF"/>
<path fill-rule="evenodd" clip-rule="evenodd" d="M21.9698 11.9967C21.7765 11.9967 21.5809 11.9254 21.4314 11.7827L17.9112 8.45586C17.7548 8.30862 17.665 8.10155 17.665 7.88528V0.784989C17.665 0.472087 17.8514 0.189106 18.139 0.0648291C18.4266 -0.0594127 18.7602 0.000405236 18.988 0.21438L21.9743 3.03742L25.0159 0.209786C25.2437 -0.00188003 25.5773 -0.0594009 25.8626 0.0648409C26.1479 0.189083 26.3343 0.472075 26.3343 0.782703V7.88299C26.3343 8.10156 26.2445 8.30863 26.0835 8.45588L22.5035 11.7827C22.3517 11.9231 22.1607 11.9944 21.9698 11.9944L21.9698 11.9967ZM19.2342 7.54704L21.9744 10.1377L24.7675 7.54244V2.58202L22.5035 4.68489C22.1998 4.96558 21.7305 4.96558 21.4314 4.68029L19.2341 2.60274L19.2342 7.54704Z" fill="#3564DF"/>
</svg>
