<svg width="52" height="64" viewBox="0 0 52 64" fill="none" xmlns="http://www.w3.org/2000/svg">
<path fill-rule="evenodd" clip-rule="evenodd" d="M41.6363 9.93324H49.3604V30.8966H41.6363V24.2737C41.6363 23.6646 41.1508 23.1702 40.5329 23.1702H11.5124C10.9165 23.1702 10.4089 23.6646 10.4089 24.2737V30.8966H1.60345C0.985517 30.8966 0.5 31.3909 0.5 32V55.1702C0.5 55.7793 0.985517 56.2737 1.60345 56.2737H10.4089V62.8966C10.4089 63.5057 10.9165 64 11.5124 64H40.5329C41.1508 64 41.6363 63.5057 41.6363 62.8966V47.4439C41.6363 46.8348 41.1508 46.3404 40.5329 46.3404H11.5124C10.9165 46.3404 10.4089 46.8348 10.4089 47.4439V54.0668H2.7069V33.1034H10.4089V39.7263C10.4089 40.3354 10.9165 40.8298 11.5124 40.8298H40.5329C41.1508 40.8298 41.6363 40.3354 41.6363 39.7263V33.1034H50.4639C51.0598 33.1034 51.5673 32.6091 51.5673 32V8.82979C51.5673 8.22069 51.0598 7.72634 50.4639 7.72634H41.6363V1.10345C41.6363 0.494345 41.1508 0 40.5329 0H11.5124C10.9165 0 10.4089 0.494345 10.4089 1.10345V16.5561C10.4089 17.1652 10.9165 17.6596 11.5124 17.6596H40.5329C41.1508 17.6596 41.6363 17.1652 41.6363 16.5561V9.93324ZM12.6158 55.1724V48.5473H39.4294V61.7931H12.6158V55.1724ZM12.6158 32V25.3771H39.4294V38.6229H12.6158V32ZM39.4294 2.2069V15.4527H12.6158V2.2069H39.4294Z" fill="#3564DF"/>
</svg>
