<svg width="285" height="300" viewBox="0 0 285 300" fill="none" xmlns="http://www.w3.org/2000/svg">
<rect width="285" height="300" rx="10" transform="matrix(1 0 0 -1 0 300)" fill="url(#paint0_linear_2305_3923)"/>
<mask id="mask0_2305_3923" style="mask-type:alpha" maskUnits="userSpaceOnUse" x="0" y="0" width="285" height="300">
<rect width="285" height="300" rx="10" transform="matrix(1 0 0 -1 0 300)" fill="url(#paint1_linear_2305_3923)"/>
</mask>
<g mask="url(#mask0_2305_3923)">
<rect x="338.605" y="-128" width="58.3621" height="344.727" rx="29.1811" transform="rotate(43.8011 338.605 -128)" fill="url(#paint2_linear_2305_3923)" fill-opacity="0.24"/>
<rect x="436.605" y="-128" width="58.3621" height="344.727" rx="29.1811" transform="rotate(43.8011 436.605 -128)" fill="url(#paint3_linear_2305_3923)" fill-opacity="0.24"/>
</g>
<path d="M23.22 239L28.46 224.1H31.38L36.62 239H34.1L32.96 235.66H26.9L25.74 239H23.22ZM27.58 233.56H32.24L29.6 225.76H30.26L27.58 233.56ZM42.917 239.24C41.837 239.24 40.877 238.993 40.037 238.5C39.2104 237.993 38.5504 237.313 38.057 236.46C37.577 235.607 37.337 234.64 37.337 233.56C37.337 232.493 37.577 231.533 38.057 230.68C38.537 229.827 39.197 229.16 40.037 228.68C40.877 228.187 41.837 227.94 42.917 227.94C43.6504 227.94 44.337 228.073 44.977 228.34C45.617 228.593 46.1704 228.947 46.637 229.4C47.117 229.853 47.4704 230.38 47.697 230.98L45.717 231.9C45.4904 231.34 45.1237 230.893 44.617 230.56C44.1237 230.213 43.557 230.04 42.917 230.04C42.3037 230.04 41.7504 230.193 41.257 230.5C40.777 230.793 40.397 231.213 40.117 231.76C39.837 232.293 39.697 232.9 39.697 233.58C39.697 234.26 39.837 234.873 40.117 235.42C40.397 235.953 40.777 236.373 41.257 236.68C41.7504 236.987 42.3037 237.14 42.917 237.14C43.5704 237.14 44.137 236.973 44.617 236.64C45.1104 236.293 45.477 235.833 45.717 235.26L47.697 236.2C47.4837 236.773 47.137 237.293 46.657 237.76C46.1904 238.213 45.637 238.573 44.997 238.84C44.357 239.107 43.6637 239.24 42.917 239.24ZM55.0459 239.24C53.9659 239.24 53.0059 238.993 52.1659 238.5C51.3393 237.993 50.6793 237.313 50.1859 236.46C49.7059 235.607 49.4659 234.64 49.4659 233.56C49.4659 232.493 49.7059 231.533 50.1859 230.68C50.6659 229.827 51.3259 229.16 52.1659 228.68C53.0059 228.187 53.9659 227.94 55.0459 227.94C55.7793 227.94 56.4659 228.073 57.1059 228.34C57.7459 228.593 58.2993 228.947 58.7659 229.4C59.2459 229.853 59.5993 230.38 59.8259 230.98L57.8459 231.9C57.6193 231.34 57.2526 230.893 56.7459 230.56C56.2526 230.213 55.6859 230.04 55.0459 230.04C54.4326 230.04 53.8793 230.193 53.3859 230.5C52.9059 230.793 52.5259 231.213 52.2459 231.76C51.9659 232.293 51.8259 232.9 51.8259 233.58C51.8259 234.26 51.9659 234.873 52.2459 235.42C52.5259 235.953 52.9059 236.373 53.3859 236.68C53.8793 236.987 54.4326 237.14 55.0459 237.14C55.6993 237.14 56.2659 236.973 56.7459 236.64C57.2393 236.293 57.6059 235.833 57.8459 235.26L59.8259 236.2C59.6126 236.773 59.2659 237.293 58.7859 237.76C58.3193 238.213 57.7659 238.573 57.1259 238.84C56.4859 239.107 55.7926 239.24 55.0459 239.24ZM67.1148 239.24C66.0348 239.24 65.0748 238.993 64.2348 238.5C63.4082 237.993 62.7615 237.313 62.2948 236.46C61.8282 235.593 61.5948 234.627 61.5948 233.56C61.5948 232.467 61.8282 231.5 62.2948 230.66C62.7748 229.82 63.4148 229.16 64.2148 228.68C65.0148 228.187 65.9215 227.94 66.9348 227.94C67.7482 227.94 68.4748 228.08 69.1148 228.36C69.7548 228.64 70.2948 229.027 70.7348 229.52C71.1748 230 71.5082 230.553 71.7348 231.18C71.9748 231.807 72.0948 232.473 72.0948 233.18C72.0948 233.353 72.0882 233.533 72.0748 233.72C72.0615 233.907 72.0348 234.08 71.9948 234.24H63.3748V232.44H70.7148L69.6348 233.26C69.7682 232.607 69.7215 232.027 69.4948 231.52C69.2815 231 68.9482 230.593 68.4948 230.3C68.0548 229.993 67.5348 229.84 66.9348 229.84C66.3348 229.84 65.8015 229.993 65.3348 230.3C64.8682 230.593 64.5082 231.02 64.2548 231.58C64.0015 232.127 63.9015 232.793 63.9548 233.58C63.8882 234.313 63.9882 234.953 64.2548 235.5C64.5348 236.047 64.9215 236.473 65.4148 236.78C65.9215 237.087 66.4948 237.24 67.1348 237.24C67.7882 237.24 68.3415 237.093 68.7948 236.8C69.2615 236.507 69.6282 236.127 69.8948 235.66L71.7348 236.56C71.5215 237.067 71.1882 237.527 70.7348 237.94C70.2948 238.34 69.7615 238.66 69.1348 238.9C68.5215 239.127 67.8482 239.24 67.1148 239.24ZM78.3005 239.24C77.1938 239.24 76.2205 238.967 75.3805 238.42C74.5538 237.873 73.9738 237.14 73.6405 236.22L75.3805 235.4C75.6738 236.013 76.0738 236.5 76.5805 236.86C77.1005 237.22 77.6738 237.4 78.3005 237.4C78.8338 237.4 79.2671 237.28 79.6005 237.04C79.9338 236.8 80.1005 236.473 80.1005 236.06C80.1005 235.793 80.0271 235.58 79.8805 235.42C79.7338 235.247 79.5471 235.107 79.3205 235C79.1071 234.893 78.8871 234.813 78.6605 234.76L76.9605 234.28C76.0271 234.013 75.3271 233.613 74.8605 233.08C74.4071 232.533 74.1805 231.9 74.1805 231.18C74.1805 230.527 74.3471 229.96 74.6805 229.48C75.0138 228.987 75.4738 228.607 76.0605 228.34C76.6471 228.073 77.3071 227.94 78.0405 227.94C79.0271 227.94 79.9071 228.187 80.6805 228.68C81.4538 229.16 82.0005 229.833 82.3205 230.7L80.5805 231.52C80.3671 231 80.0271 230.587 79.5605 230.28C79.1071 229.973 78.5938 229.82 78.0205 229.82C77.5271 229.82 77.1338 229.94 76.8405 230.18C76.5471 230.407 76.4005 230.707 76.4005 231.08C76.4005 231.333 76.4671 231.547 76.6005 231.72C76.7338 231.88 76.9071 232.013 77.1205 232.12C77.3338 232.213 77.5538 232.293 77.7805 232.36L79.5405 232.88C80.4338 233.133 81.1205 233.533 81.6005 234.08C82.0805 234.613 82.3205 235.253 82.3205 236C82.3205 236.64 82.1471 237.207 81.8005 237.7C81.4671 238.18 81.0005 238.56 80.4005 238.84C79.8005 239.107 79.1005 239.24 78.3005 239.24ZM88.5348 239.24C87.4282 239.24 86.4548 238.967 85.6148 238.42C84.7882 237.873 84.2082 237.14 83.8748 236.22L85.6148 235.4C85.9082 236.013 86.3082 236.5 86.8148 236.86C87.3348 237.22 87.9082 237.4 88.5348 237.4C89.0682 237.4 89.5015 237.28 89.8348 237.04C90.1682 236.8 90.3348 236.473 90.3348 236.06C90.3348 235.793 90.2615 235.58 90.1148 235.42C89.9682 235.247 89.7815 235.107 89.5548 235C89.3415 234.893 89.1215 234.813 88.8948 234.76L87.1948 234.28C86.2615 234.013 85.5615 233.613 85.0948 233.08C84.6415 232.533 84.4148 231.9 84.4148 231.18C84.4148 230.527 84.5815 229.96 84.9148 229.48C85.2482 228.987 85.7082 228.607 86.2948 228.34C86.8815 228.073 87.5415 227.94 88.2748 227.94C89.2615 227.94 90.1415 228.187 90.9148 228.68C91.6882 229.16 92.2348 229.833 92.5548 230.7L90.8148 231.52C90.6015 231 90.2615 230.587 89.7948 230.28C89.3415 229.973 88.8282 229.82 88.2548 229.82C87.7615 229.82 87.3682 229.94 87.0748 230.18C86.7815 230.407 86.6348 230.707 86.6348 231.08C86.6348 231.333 86.7015 231.547 86.8348 231.72C86.9682 231.88 87.1415 232.013 87.3548 232.12C87.5682 232.213 87.7882 232.293 88.0148 232.36L89.7748 232.88C90.6682 233.133 91.3548 233.533 91.8348 234.08C92.3148 234.613 92.5548 235.253 92.5548 236C92.5548 236.64 92.3815 237.207 92.0348 237.7C91.7015 238.18 91.2348 238.56 90.6348 238.84C90.0348 239.107 89.3348 239.24 88.5348 239.24ZM102.945 239.12C101.812 239.12 100.932 238.8 100.305 238.16C99.6786 237.52 99.3653 236.62 99.3653 235.46V230.22H97.4653V228.18H97.7653C98.272 228.18 98.6653 228.033 98.9453 227.74C99.2253 227.447 99.3653 227.047 99.3653 226.54V225.7H101.625V228.18H104.085V230.22H101.625V235.36C101.625 235.733 101.685 236.053 101.805 236.32C101.925 236.573 102.119 236.773 102.385 236.92C102.652 237.053 102.999 237.12 103.425 237.12C103.532 237.12 103.652 237.113 103.785 237.1C103.919 237.087 104.045 237.073 104.165 237.06V239C103.979 239.027 103.772 239.053 103.545 239.08C103.319 239.107 103.119 239.12 102.945 239.12ZM111.395 239.24C110.355 239.24 109.402 238.993 108.535 238.5C107.682 238.007 107.002 237.333 106.495 236.48C105.989 235.627 105.735 234.66 105.735 233.58C105.735 232.487 105.989 231.52 106.495 230.68C107.002 229.827 107.682 229.16 108.535 228.68C109.389 228.187 110.342 227.94 111.395 227.94C112.462 227.94 113.415 228.187 114.255 228.68C115.109 229.16 115.782 229.827 116.275 230.68C116.782 231.52 117.035 232.487 117.035 233.58C117.035 234.673 116.782 235.647 116.275 236.5C115.769 237.353 115.089 238.027 114.235 238.52C113.382 239 112.435 239.24 111.395 239.24ZM111.395 237.14C112.035 237.14 112.602 236.987 113.095 236.68C113.589 236.373 113.975 235.953 114.255 235.42C114.549 234.873 114.695 234.26 114.695 233.58C114.695 232.9 114.549 232.293 114.255 231.76C113.975 231.227 113.589 230.807 113.095 230.5C112.602 230.193 112.035 230.04 111.395 230.04C110.769 230.04 110.202 230.193 109.695 230.5C109.202 230.807 108.809 231.227 108.515 231.76C108.235 232.293 108.095 232.9 108.095 233.58C108.095 234.26 108.235 234.873 108.515 235.42C108.809 235.953 109.202 236.373 109.695 236.68C110.202 236.987 110.769 237.14 111.395 237.14ZM125.598 239V226.2H121.638V224.1H131.838V226.2H127.938V239H125.598ZM137.196 239.24C136.156 239.24 135.203 238.993 134.336 238.5C133.483 238.007 132.803 237.333 132.296 236.48C131.79 235.627 131.536 234.66 131.536 233.58C131.536 232.487 131.79 231.52 132.296 230.68C132.803 229.827 133.483 229.16 134.336 228.68C135.19 228.187 136.143 227.94 137.196 227.94C138.263 227.94 139.216 228.187 140.056 228.68C140.91 229.16 141.583 229.827 142.076 230.68C142.583 231.52 142.836 232.487 142.836 233.58C142.836 234.673 142.583 235.647 142.076 236.5C141.57 237.353 140.89 238.027 140.036 238.52C139.183 239 138.236 239.24 137.196 239.24ZM137.196 237.14C137.836 237.14 138.403 236.987 138.896 236.68C139.39 236.373 139.776 235.953 140.056 235.42C140.35 234.873 140.496 234.26 140.496 233.58C140.496 232.9 140.35 232.293 140.056 231.76C139.776 231.227 139.39 230.807 138.896 230.5C138.403 230.193 137.836 230.04 137.196 230.04C136.57 230.04 136.003 230.193 135.496 230.5C135.003 230.807 134.61 231.227 134.316 231.76C134.036 232.293 133.896 232.9 133.896 233.58C133.896 234.26 134.036 234.873 134.316 235.42C134.61 235.953 135.003 236.373 135.496 236.68C136.003 236.987 136.57 237.14 137.196 237.14ZM145.043 243V228.18H147.203V230.42L146.943 229.9C147.343 229.287 147.876 228.807 148.543 228.46C149.209 228.113 149.969 227.94 150.823 227.94C151.849 227.94 152.769 228.187 153.583 228.68C154.409 229.173 155.056 229.847 155.523 230.7C156.003 231.553 156.243 232.513 156.243 233.58C156.243 234.647 156.003 235.607 155.523 236.46C155.056 237.313 154.416 237.993 153.603 238.5C152.789 238.993 151.863 239.24 150.823 239.24C149.983 239.24 149.216 239.067 148.523 238.72C147.843 238.373 147.316 237.873 146.943 237.22L147.303 236.8V243H145.043ZM150.603 237.14C151.243 237.14 151.809 236.987 152.303 236.68C152.796 236.373 153.183 235.953 153.463 235.42C153.756 234.873 153.903 234.26 153.903 233.58C153.903 232.9 153.756 232.293 153.463 231.76C153.183 231.227 152.796 230.807 152.303 230.5C151.809 230.193 151.243 230.04 150.603 230.04C149.976 230.04 149.409 230.193 148.903 230.5C148.409 230.807 148.016 231.227 147.723 231.76C147.443 232.293 147.303 232.9 147.303 233.58C147.303 234.26 147.443 234.873 147.723 235.42C148.016 235.953 148.409 236.373 148.903 236.68C149.409 236.987 149.976 237.14 150.603 237.14ZM164.797 239V226.2H160.837V224.1H171.037V226.2H167.137V239H164.797ZM174.63 239.24C173.897 239.24 173.25 239.113 172.69 238.86C172.144 238.593 171.717 238.233 171.41 237.78C171.104 237.313 170.95 236.767 170.95 236.14C170.95 235.553 171.077 235.027 171.33 234.56C171.597 234.093 172.004 233.7 172.55 233.38C173.097 233.06 173.784 232.833 174.61 232.7L178.37 232.08V233.86L175.05 234.44C174.45 234.547 174.01 234.74 173.73 235.02C173.45 235.287 173.31 235.633 173.31 236.06C173.31 236.473 173.464 236.813 173.77 237.08C174.09 237.333 174.497 237.46 174.99 237.46C175.604 237.46 176.137 237.327 176.59 237.06C177.057 236.793 177.417 236.44 177.67 236C177.924 235.547 178.05 235.047 178.05 234.5V231.72C178.05 231.187 177.85 230.753 177.45 230.42C177.064 230.073 176.544 229.9 175.89 229.9C175.29 229.9 174.764 230.06 174.31 230.38C173.87 230.687 173.544 231.087 173.33 231.58L171.45 230.64C171.65 230.107 171.977 229.64 172.43 229.24C172.884 228.827 173.41 228.507 174.01 228.28C174.624 228.053 175.27 227.94 175.95 227.94C176.804 227.94 177.557 228.1 178.21 228.42C178.877 228.74 179.39 229.187 179.75 229.76C180.124 230.32 180.31 230.973 180.31 231.72V239H178.15V237.04L178.61 237.1C178.357 237.54 178.03 237.92 177.63 238.24C177.244 238.56 176.797 238.807 176.29 238.98C175.797 239.153 175.244 239.24 174.63 239.24ZM182.953 239V223.86H185.213V239H182.953ZM192.935 239.24C191.855 239.24 190.895 238.993 190.055 238.5C189.228 237.993 188.582 237.313 188.115 236.46C187.648 235.593 187.415 234.627 187.415 233.56C187.415 232.467 187.648 231.5 188.115 230.66C188.595 229.82 189.235 229.16 190.035 228.68C190.835 228.187 191.742 227.94 192.755 227.94C193.568 227.94 194.295 228.08 194.935 228.36C195.575 228.64 196.115 229.027 196.555 229.52C196.995 230 197.328 230.553 197.555 231.18C197.795 231.807 197.915 232.473 197.915 233.18C197.915 233.353 197.908 233.533 197.895 233.72C197.882 233.907 197.855 234.08 197.815 234.24H189.195V232.44H196.535L195.455 233.26C195.588 232.607 195.542 232.027 195.315 231.52C195.102 231 194.768 230.593 194.315 230.3C193.875 229.993 193.355 229.84 192.755 229.84C192.155 229.84 191.622 229.993 191.155 230.3C190.688 230.593 190.328 231.02 190.075 231.58C189.822 232.127 189.722 232.793 189.775 233.58C189.708 234.313 189.808 234.953 190.075 235.5C190.355 236.047 190.742 236.473 191.235 236.78C191.742 237.087 192.315 237.24 192.955 237.24C193.608 237.24 194.162 237.093 194.615 236.8C195.082 236.507 195.448 236.127 195.715 235.66L197.555 236.56C197.342 237.067 197.008 237.527 196.555 237.94C196.115 238.34 195.582 238.66 194.955 238.9C194.342 239.127 193.668 239.24 192.935 239.24ZM200.121 239V228.18H202.281V230.3L202.021 230.02C202.287 229.34 202.714 228.827 203.301 228.48C203.887 228.12 204.567 227.94 205.341 227.94C206.141 227.94 206.847 228.113 207.461 228.46C208.074 228.807 208.554 229.287 208.901 229.9C209.247 230.513 209.421 231.22 209.421 232.02V239H207.181V232.62C207.181 232.073 207.081 231.613 206.881 231.24C206.681 230.853 206.394 230.56 206.021 230.36C205.661 230.147 205.247 230.04 204.781 230.04C204.314 230.04 203.894 230.147 203.521 230.36C203.161 230.56 202.881 230.853 202.681 231.24C202.481 231.627 202.381 232.087 202.381 232.62V239H200.121ZM216.52 239.12C215.386 239.12 214.506 238.8 213.88 238.16C213.253 237.52 212.94 236.62 212.94 235.46V230.22H211.04V228.18H211.34C211.846 228.18 212.24 228.033 212.52 227.74C212.8 227.447 212.94 227.047 212.94 226.54V225.7H215.2V228.18H217.66V230.22H215.2V235.36C215.2 235.733 215.26 236.053 215.38 236.32C215.5 236.573 215.693 236.773 215.96 236.92C216.226 237.053 216.573 237.12 217 237.12C217.106 237.12 217.226 237.113 217.36 237.1C217.493 237.087 217.62 237.073 217.74 237.06V239C217.553 239.027 217.346 239.053 217.12 239.08C216.893 239.107 216.693 239.12 216.52 239.12Z" fill="white"/>
<path fill-rule="evenodd" clip-rule="evenodd" d="M77.0997 83.9027L71.063 89.4402C70.6223 89.8439 69.9228 89.81 69.5253 89.357L67.1093 86.5898C66.7211 86.1461 66.7642 85.465 67.2141 85.0737C67.664 84.6823 68.3389 84.7285 68.7303 85.1723L70.4189 87.1136L75.6453 82.3218C76.0828 81.9212 76.7608 81.949 77.1614 82.3865C77.5651 82.821 77.5373 83.5021 77.0997 83.9027ZM77.2969 92.4881C80.6712 89.1107 80.6712 83.629 77.2969 80.251C73.9227 76.873 68.4378 76.8736 65.0598 80.251C61.6793 83.6346 61.6793 89.1046 65.0598 92.4881C68.4341 95.8654 73.9221 95.8654 77.2969 92.4881ZM78.8162 78.7292C74.6068 74.5168 67.7537 74.526 63.5411 78.7292C59.3255 82.9417 59.3132 89.7862 63.5411 94.0043C67.7629 98.2199 74.6067 98.2137 78.8162 94.0043C83.0286 89.7919 83.0286 82.9387 78.8162 78.7292ZM89.4873 107.058L83.7618 101.329L86.1438 98.9503L91.8693 104.679L89.4873 107.058ZM62.185 95.3667C64.5886 97.7734 67.7842 99.0893 71.1798 99.0893C78.2273 99.0893 83.9005 93.3945 83.9005 86.3717C83.9005 79.2841 78.1533 73.6542 71.1798 73.6542C64.1169 73.6542 58.4591 79.3705 58.4591 86.3717C58.4591 89.7645 59.7814 92.9603 62.185 95.3667ZM37.5878 85.5183C37.8497 85.7556 38.1918 85.8912 38.5708 85.8912H56.3174C56.3636 84.4213 56.6225 82.9853 57.0816 81.6264L41.0579 81.6233C40.4632 81.6233 39.9825 81.1426 39.9825 80.5417C39.9825 79.9531 40.4632 79.4693 41.0579 79.4693H58.0007C58.9375 77.6851 60.3242 75.984 61.9358 74.7206L41.0582 74.7268C40.4665 74.7268 39.9827 74.246 39.9827 73.6451C39.9827 73.0566 40.4634 72.5727 41.0582 72.5727H65.6365C66.943 72.0458 68.3082 71.7192 69.6887 71.5836V43.8987C69.6887 43.082 69.0231 42.4195 68.2034 42.4195H38.5716C37.7549 42.4195 37.0893 43.082 37.0893 43.8987V84.0636L37.5878 85.5183ZM34.9407 48.176V77.8205L25.4805 50.3359L34.9407 48.176ZM81.2999 50.3362L73.9227 71.7653C73.2324 71.6297 72.536 71.5557 71.8365 71.5187V48.1758L81.2999 50.3362ZM93.4755 103.246L87.5743 97.345C86.7885 96.5593 85.5004 96.5562 84.7115 97.345L84.1938 97.8627L82.4281 96.1031C87.5157 90.2328 87.2291 81.4008 81.6977 75.8605C80.0429 74.1995 78.0893 73.0193 76.0123 72.3106L83.7254 49.8985C83.9349 49.2915 83.5682 48.6381 82.9488 48.4995L71.843 45.9665V43.8957C71.843 41.8896 70.2129 40.2656 68.2098 40.2656H38.578C36.5749 40.2656 34.9448 41.8896 34.9448 43.8957V45.9665L23.8358 48.5026C23.2164 48.6382 22.8497 49.2946 23.0593 49.9016L34.9445 84.4308C34.9476 85.2567 35.2311 86.0178 35.6995 86.628L35.7149 86.6742C35.832 87.0194 36.1124 87.2721 36.4606 87.3645C37.0584 87.7898 37.7857 88.0455 38.5746 88.0455H56.4048C57.2368 95.5276 63.5818 101.243 71.1805 101.243C74.7921 101.243 78.2064 99.9646 80.9058 97.6227L82.6715 99.3823C82.0891 99.9739 81.5591 100.393 81.5591 101.333C81.5591 101.878 81.7686 102.387 82.1507 102.766L88.0519 108.667C88.85 109.465 90.1166 109.465 90.9147 108.667L93.4724 106.116C94.2674 105.324 94.2674 104.035 93.4755 103.246ZM58.7924 66.748C58.7924 66.1594 59.2732 65.6756 59.8679 65.6756H65.7229C66.3176 65.6756 66.7984 66.1563 66.7984 66.748C66.7984 67.3458 66.3177 67.8296 65.7229 67.8296H59.8679C59.2732 67.8265 58.7924 67.3458 58.7924 66.748ZM58.7924 52.9584C58.7924 52.3606 59.2732 51.8768 59.8679 51.8768H65.7229C66.3176 51.8768 66.7984 52.3575 66.7984 52.9584C66.7984 53.547 66.3177 54.0308 65.7229 54.0308H59.8679C59.2732 54.0308 58.7924 53.5501 58.7924 52.9584ZM58.7924 59.858C58.7924 59.2602 59.2732 58.7764 59.8679 58.7764H65.7229C66.3176 58.7764 66.7984 59.2571 66.7984 59.858C66.7984 60.4466 66.3177 60.9304 65.7229 60.9304H59.8679C59.2732 60.9304 58.7924 60.4466 58.7924 59.858ZM42.1337 61.4296C42.1337 58.5083 44.5096 56.1293 47.4309 56.1293C50.3522 56.1293 52.7312 58.5082 52.7312 61.4296V66.8562H42.1334L42.1337 61.4296ZM44.8639 51.4085C44.8639 49.991 46.0164 48.8385 47.4309 48.8385C48.8484 48.8385 49.9978 49.991 49.9978 51.4085C49.9978 52.823 48.8453 53.9785 47.4309 53.9785C46.0164 53.9754 44.8639 52.823 44.8639 51.4085ZM41.0582 69.0076C40.4666 69.0076 39.9827 68.5269 39.9827 67.9352V61.4269C39.9827 58.5056 41.6683 55.9819 44.1151 54.7554C43.2522 53.9018 42.7161 52.7124 42.7161 51.4057C42.7161 48.811 44.8332 46.6848 47.4309 46.6848C50.0318 46.6848 52.1488 48.808 52.1488 51.4057C52.1488 52.7123 51.6126 53.9018 50.7498 54.7554C53.1966 55.9819 54.8822 58.5056 54.8822 61.4269V67.9352C54.8822 68.5238 54.4015 69.0076 53.8098 69.0076H41.0582Z" fill="white"/>
<defs>
<linearGradient id="paint0_linear_2305_3923" x1="-2.00001" y1="314" x2="321.5" y2="-9.49999" gradientUnits="userSpaceOnUse">
<stop stop-color="#11296A"/>
<stop offset="1" stop-color="#2150D0"/>
</linearGradient>
<linearGradient id="paint1_linear_2305_3923" x1="-2.00001" y1="314" x2="321.5" y2="-9.49999" gradientUnits="userSpaceOnUse">
<stop stop-color="#11296A"/>
<stop offset="1" stop-color="#2150D0"/>
</linearGradient>
<linearGradient id="paint2_linear_2305_3923" x1="367.787" y1="-128" x2="367.787" y2="216.727" gradientUnits="userSpaceOnUse">
<stop stop-color="white"/>
<stop offset="1" stop-color="white" stop-opacity="0"/>
</linearGradient>
<linearGradient id="paint3_linear_2305_3923" x1="465.787" y1="-128" x2="465.787" y2="216.727" gradientUnits="userSpaceOnUse">
<stop stop-color="white"/>
<stop offset="1" stop-color="white" stop-opacity="0"/>
</linearGradient>
</defs>
</svg>
