<svg width="285" height="300" viewBox="0 0 285 300" fill="none" xmlns="http://www.w3.org/2000/svg">
<rect width="285" height="300" rx="10" transform="matrix(1 0 0 -1 0 300)" fill="url(#paint0_linear_2305_3934)"/>
<mask id="mask0_2305_3934" style="mask-type:alpha" maskUnits="userSpaceOnUse" x="0" y="0" width="285" height="300">
<rect width="285" height="300" rx="10" transform="matrix(1 0 0 -1 0 300)" fill="url(#paint1_linear_2305_3934)"/>
</mask>
<g mask="url(#mask0_2305_3934)">
<rect x="338.605" y="-128" width="58.3621" height="344.727" rx="29.1811" transform="rotate(43.8011 338.605 -128)" fill="url(#paint2_linear_2305_3934)" fill-opacity="0.24"/>
<rect x="436.605" y="-128" width="58.3621" height="344.727" rx="29.1811" transform="rotate(43.8011 436.605 -128)" fill="url(#paint3_linear_2305_3934)" fill-opacity="0.24"/>
</g>
<path d="M24.54 239V224.1H26.9V239H24.54ZM29.7692 239V228.18H31.9292V230.3L31.6692 230.02C31.9359 229.34 32.3626 228.827 32.9492 228.48C33.5359 228.12 34.2159 227.94 34.9892 227.94C35.7892 227.94 36.4959 228.113 37.1092 228.46C37.7226 228.807 38.2026 229.287 38.5492 229.9C38.8959 230.513 39.0692 231.22 39.0692 232.02V239H36.8292V232.62C36.8292 232.073 36.7292 231.613 36.5292 231.24C36.3292 230.853 36.0426 230.56 35.6692 230.36C35.3092 230.147 34.8959 230.04 34.4292 230.04C33.9626 230.04 33.5426 230.147 33.1692 230.36C32.8092 230.56 32.5292 230.853 32.3292 231.24C32.1292 231.627 32.0292 232.087 32.0292 232.62V239H29.7692ZM46.628 239.24C45.548 239.24 44.588 238.993 43.748 238.5C42.9213 237.993 42.2613 237.313 41.768 236.46C41.288 235.607 41.048 234.64 41.048 233.56C41.048 232.493 41.288 231.533 41.768 230.68C42.248 229.827 42.908 229.16 43.748 228.68C44.588 228.187 45.548 227.94 46.628 227.94C47.3613 227.94 48.048 228.073 48.688 228.34C49.328 228.593 49.8813 228.947 50.348 229.4C50.828 229.853 51.1813 230.38 51.408 230.98L49.428 231.9C49.2013 231.34 48.8346 230.893 48.328 230.56C47.8346 230.213 47.268 230.04 46.628 230.04C46.0146 230.04 45.4613 230.193 44.968 230.5C44.488 230.793 44.108 231.213 43.828 231.76C43.548 232.293 43.408 232.9 43.408 233.58C43.408 234.26 43.548 234.873 43.828 235.42C44.108 235.953 44.488 236.373 44.968 236.68C45.4613 236.987 46.0146 237.14 46.628 237.14C47.2813 237.14 47.848 236.973 48.328 236.64C48.8213 236.293 49.188 235.833 49.428 235.26L51.408 236.2C51.1946 236.773 50.848 237.293 50.368 237.76C49.9013 238.213 49.348 238.573 48.708 238.84C48.068 239.107 47.3746 239.24 46.628 239.24ZM53.6169 239V228.18H55.7769V230.36L55.5769 230.04C55.8169 229.333 56.2035 228.827 56.7369 228.52C57.2702 228.2 57.9102 228.04 58.6569 228.04H59.3169V230.1H58.3769C57.6302 230.1 57.0235 230.333 56.5569 230.8C56.1035 231.253 55.8769 231.907 55.8769 232.76V239H53.6169ZM65.943 239.24C64.863 239.24 63.903 238.993 63.063 238.5C62.2363 237.993 61.5896 237.313 61.123 236.46C60.6563 235.593 60.423 234.627 60.423 233.56C60.423 232.467 60.6563 231.5 61.123 230.66C61.603 229.82 62.243 229.16 63.043 228.68C63.843 228.187 64.7496 227.94 65.763 227.94C66.5763 227.94 67.303 228.08 67.943 228.36C68.583 228.64 69.123 229.027 69.563 229.52C70.003 230 70.3363 230.553 70.563 231.18C70.803 231.807 70.923 232.473 70.923 233.18C70.923 233.353 70.9163 233.533 70.903 233.72C70.8896 233.907 70.863 234.08 70.823 234.24H62.203V232.44H69.543L68.463 233.26C68.5963 232.607 68.5496 232.027 68.323 231.52C68.1096 231 67.7763 230.593 67.323 230.3C66.883 229.993 66.363 229.84 65.763 229.84C65.163 229.84 64.6296 229.993 64.163 230.3C63.6963 230.593 63.3363 231.02 63.083 231.58C62.8296 232.127 62.7296 232.793 62.783 233.58C62.7163 234.313 62.8163 234.953 63.083 235.5C63.363 236.047 63.7496 236.473 64.243 236.78C64.7496 237.087 65.323 237.24 65.963 237.24C66.6163 237.24 67.1696 237.093 67.623 236.8C68.0896 236.507 68.4563 236.127 68.723 235.66L70.563 236.56C70.3496 237.067 70.0163 237.527 69.563 237.94C69.123 238.34 68.5896 238.66 67.963 238.9C67.3496 239.127 66.6763 239.24 65.943 239.24ZM76.2709 239.24C75.5376 239.24 74.8909 239.113 74.3309 238.86C73.7843 238.593 73.3576 238.233 73.0509 237.78C72.7443 237.313 72.5909 236.767 72.5909 236.14C72.5909 235.553 72.7176 235.027 72.9709 234.56C73.2376 234.093 73.6443 233.7 74.1909 233.38C74.7376 233.06 75.4243 232.833 76.2509 232.7L80.0109 232.08V233.86L76.6909 234.44C76.0909 234.547 75.6509 234.74 75.3709 235.02C75.0909 235.287 74.9509 235.633 74.9509 236.06C74.9509 236.473 75.1043 236.813 75.4109 237.08C75.7309 237.333 76.1376 237.46 76.6309 237.46C77.2443 237.46 77.7776 237.327 78.2309 237.06C78.6976 236.793 79.0576 236.44 79.3109 236C79.5643 235.547 79.6909 235.047 79.6909 234.5V231.72C79.6909 231.187 79.4909 230.753 79.0909 230.42C78.7043 230.073 78.1843 229.9 77.5309 229.9C76.9309 229.9 76.4043 230.06 75.9509 230.38C75.5109 230.687 75.1843 231.087 74.9709 231.58L73.0909 230.64C73.2909 230.107 73.6176 229.64 74.0709 229.24C74.5243 228.827 75.0509 228.507 75.6509 228.28C76.2643 228.053 76.9109 227.94 77.5909 227.94C78.4443 227.94 79.1976 228.1 79.8509 228.42C80.5176 228.74 81.0309 229.187 81.3909 229.76C81.7643 230.32 81.9509 230.973 81.9509 231.72V239H79.7909V237.04L80.2509 237.1C79.9976 237.54 79.6709 237.92 79.2709 238.24C78.8843 238.56 78.4376 238.807 77.9309 238.98C77.4376 239.153 76.8843 239.24 76.2709 239.24ZM88.5934 239.24C87.4868 239.24 86.5134 238.967 85.6734 238.42C84.8468 237.873 84.2668 237.14 83.9334 236.22L85.6734 235.4C85.9668 236.013 86.3668 236.5 86.8734 236.86C87.3934 237.22 87.9668 237.4 88.5934 237.4C89.1268 237.4 89.5601 237.28 89.8934 237.04C90.2268 236.8 90.3934 236.473 90.3934 236.06C90.3934 235.793 90.3201 235.58 90.1734 235.42C90.0268 235.247 89.8401 235.107 89.6134 235C89.4001 234.893 89.1801 234.813 88.9534 234.76L87.2534 234.28C86.3201 234.013 85.6201 233.613 85.1534 233.08C84.7001 232.533 84.4734 231.9 84.4734 231.18C84.4734 230.527 84.6401 229.96 84.9734 229.48C85.3068 228.987 85.7668 228.607 86.3534 228.34C86.9401 228.073 87.6001 227.94 88.3334 227.94C89.3201 227.94 90.2001 228.187 90.9734 228.68C91.7468 229.16 92.2934 229.833 92.6134 230.7L90.8734 231.52C90.6601 231 90.3201 230.587 89.8534 230.28C89.4001 229.973 88.8868 229.82 88.3134 229.82C87.8201 229.82 87.4268 229.94 87.1334 230.18C86.8401 230.407 86.6934 230.707 86.6934 231.08C86.6934 231.333 86.7601 231.547 86.8934 231.72C87.0268 231.88 87.2001 232.013 87.4134 232.12C87.6268 232.213 87.8468 232.293 88.0734 232.36L89.8334 232.88C90.7268 233.133 91.4134 233.533 91.8934 234.08C92.3734 234.613 92.6134 235.253 92.6134 236C92.6134 236.64 92.4401 237.207 92.0934 237.7C91.7601 238.18 91.2934 238.56 90.6934 238.84C90.0934 239.107 89.3934 239.24 88.5934 239.24ZM99.9078 239.24C98.8278 239.24 97.8678 238.993 97.0278 238.5C96.2011 237.993 95.5545 237.313 95.0878 236.46C94.6211 235.593 94.3878 234.627 94.3878 233.56C94.3878 232.467 94.6211 231.5 95.0878 230.66C95.5678 229.82 96.2078 229.16 97.0078 228.68C97.8078 228.187 98.7145 227.94 99.7278 227.94C100.541 227.94 101.268 228.08 101.908 228.36C102.548 228.64 103.088 229.027 103.528 229.52C103.968 230 104.301 230.553 104.528 231.18C104.768 231.807 104.888 232.473 104.888 233.18C104.888 233.353 104.881 233.533 104.868 233.72C104.854 233.907 104.828 234.08 104.788 234.24H96.1678V232.44H103.508L102.428 233.26C102.561 232.607 102.514 232.027 102.288 231.52C102.074 231 101.741 230.593 101.288 230.3C100.848 229.993 100.328 229.84 99.7278 229.84C99.1278 229.84 98.5945 229.993 98.1278 230.3C97.6611 230.593 97.3011 231.02 97.0478 231.58C96.7945 232.127 96.6945 232.793 96.7478 233.58C96.6811 234.313 96.7811 234.953 97.0478 235.5C97.3278 236.047 97.7145 236.473 98.2078 236.78C98.7145 237.087 99.2878 237.24 99.9278 237.24C100.581 237.24 101.134 237.093 101.588 236.8C102.054 236.507 102.421 236.127 102.688 235.66L104.528 236.56C104.314 237.067 103.981 237.527 103.528 237.94C103.088 238.34 102.554 238.66 101.928 238.9C101.314 239.127 100.641 239.24 99.9078 239.24ZM112.093 239.24C111.053 239.24 110.12 238.993 109.293 238.5C108.48 237.993 107.833 237.313 107.353 236.46C106.887 235.607 106.653 234.647 106.653 233.58C106.653 232.513 106.893 231.553 107.373 230.7C107.853 229.847 108.5 229.173 109.313 228.68C110.127 228.187 111.047 227.94 112.073 227.94C112.94 227.94 113.707 228.113 114.373 228.46C115.04 228.807 115.567 229.287 115.953 229.9L115.613 230.42V223.86H117.853V239H115.713V236.8L115.973 237.22C115.6 237.873 115.067 238.373 114.373 238.72C113.68 239.067 112.92 239.24 112.093 239.24ZM112.313 237.14C112.94 237.14 113.5 236.987 113.993 236.68C114.5 236.373 114.893 235.953 115.173 235.42C115.467 234.873 115.613 234.26 115.613 233.58C115.613 232.9 115.467 232.293 115.173 231.76C114.893 231.227 114.5 230.807 113.993 230.5C113.5 230.193 112.94 230.04 112.313 230.04C111.687 230.04 111.12 230.193 110.613 230.5C110.107 230.807 109.713 231.227 109.433 231.76C109.153 232.293 109.013 232.9 109.013 233.58C109.013 234.26 109.153 234.873 109.433 235.42C109.713 235.953 110.1 236.373 110.593 236.68C111.1 236.987 111.673 237.14 112.313 237.14ZM124.208 239V224.1H133.908V226.2H126.568V230.68H133.108V232.78H126.568V239H124.208ZM135.668 239V223.86H137.928V239H135.668ZM145.65 239.24C144.57 239.24 143.61 238.993 142.77 238.5C141.943 237.993 141.297 237.313 140.83 236.46C140.363 235.593 140.13 234.627 140.13 233.56C140.13 232.467 140.363 231.5 140.83 230.66C141.31 229.82 141.95 229.16 142.75 228.68C143.55 228.187 144.457 227.94 145.47 227.94C146.283 227.94 147.01 228.08 147.65 228.36C148.29 228.64 148.83 229.027 149.27 229.52C149.71 230 150.043 230.553 150.27 231.18C150.51 231.807 150.63 232.473 150.63 233.18C150.63 233.353 150.623 233.533 150.61 233.72C150.597 233.907 150.57 234.08 150.53 234.24H141.91V232.44H149.25L148.17 233.26C148.303 232.607 148.257 232.027 148.03 231.52C147.817 231 147.483 230.593 147.03 230.3C146.59 229.993 146.07 229.84 145.47 229.84C144.87 229.84 144.337 229.993 143.87 230.3C143.403 230.593 143.043 231.02 142.79 231.58C142.537 232.127 142.437 232.793 142.49 233.58C142.423 234.313 142.523 234.953 142.79 235.5C143.07 236.047 143.457 236.473 143.95 236.78C144.457 237.087 145.03 237.24 145.67 237.24C146.323 237.24 146.877 237.093 147.33 236.8C147.797 236.507 148.163 236.127 148.43 235.66L150.27 236.56C150.057 237.067 149.723 237.527 149.27 237.94C148.83 238.34 148.297 238.66 147.67 238.9C147.057 239.127 146.383 239.24 145.65 239.24ZM151.56 239L155.34 233.58L151.56 228.18H154.22L157.32 232.7H156.04L159.14 228.18H161.8L158 233.58L161.78 239H159.12L156.06 234.46H157.3L154.22 239H151.56ZM163.343 239V228.18H165.603V239H163.343ZM163.343 226.7V224.1H165.603V226.7H163.343ZM174.026 239.24C173.186 239.24 172.419 239.067 171.726 238.72C171.046 238.373 170.519 237.873 170.146 237.22L170.406 236.8V239H168.246V223.86H170.506V230.42L170.146 229.9C170.546 229.287 171.079 228.807 171.746 228.46C172.412 228.113 173.172 227.94 174.026 227.94C175.052 227.94 175.972 228.187 176.786 228.68C177.612 229.173 178.259 229.847 178.726 230.7C179.206 231.553 179.446 232.513 179.446 233.58C179.446 234.647 179.206 235.607 178.726 236.46C178.259 237.313 177.619 237.993 176.806 238.5C175.992 238.993 175.066 239.24 174.026 239.24ZM173.806 237.14C174.446 237.14 175.012 236.987 175.506 236.68C175.999 236.373 176.386 235.953 176.666 235.42C176.959 234.873 177.106 234.26 177.106 233.58C177.106 232.9 176.959 232.293 176.666 231.76C176.386 231.227 175.999 230.807 175.506 230.5C175.012 230.193 174.446 230.04 173.806 230.04C173.179 230.04 172.612 230.193 172.106 230.5C171.612 230.807 171.219 231.227 170.926 231.76C170.646 232.293 170.506 232.9 170.506 233.58C170.506 234.26 170.646 234.873 170.926 235.42C171.219 235.953 171.612 236.373 172.106 236.68C172.612 236.987 173.179 237.14 173.806 237.14ZM181.644 239V228.18H183.904V239H181.644ZM181.644 226.7V224.1H183.904V226.7H181.644ZM186.547 239V223.86H188.807V239H186.547ZM191.449 239V228.18H193.709V239H191.449ZM191.449 226.7V224.1H193.709V226.7H191.449ZM201.031 239.12C199.898 239.12 199.018 238.8 198.391 238.16C197.765 237.52 197.451 236.62 197.451 235.46V230.22H195.551V228.18H195.851C196.358 228.18 196.751 228.033 197.031 227.74C197.311 227.447 197.451 227.047 197.451 226.54V225.7H199.711V228.18H202.171V230.22H199.711V235.36C199.711 235.733 199.771 236.053 199.891 236.32C200.011 236.573 200.205 236.773 200.471 236.92C200.738 237.053 201.085 237.12 201.511 237.12C201.618 237.12 201.738 237.113 201.871 237.1C202.005 237.087 202.131 237.073 202.251 237.06V239C202.065 239.027 201.858 239.053 201.631 239.08C201.405 239.107 201.205 239.12 201.031 239.12ZM205.417 243.4C205.15 243.4 204.883 243.373 204.617 243.32C204.363 243.28 204.13 243.213 203.917 243.12V241.18C204.077 241.22 204.27 241.253 204.497 241.28C204.723 241.32 204.943 241.34 205.157 241.34C205.783 241.34 206.243 241.2 206.537 240.92C206.843 240.653 207.117 240.24 207.357 239.68L208.077 238.04L208.037 239.94L203.357 228.18H205.777L209.237 237.2H208.417L211.857 228.18H214.297L209.517 240.18C209.263 240.82 208.943 241.38 208.557 241.86C208.183 242.353 207.737 242.733 207.217 243C206.71 243.267 206.11 243.4 205.417 243.4Z" fill="white"/>
<g clip-path="url(#clip0_2305_3934)">
<path d="M83.6666 40H39.3286C38.6446 40 38.0906 40.5569 38.0906 41.2444V68.642H24.238C23.554 68.642 23 69.1988 23 69.8863V98.7556C23 99.0854 23.13 99.4027 23.3621 99.636C23.5942 99.8694 23.9099 100 24.238 100H52.9804C53.3084 100 53.621 99.8693 53.8532 99.636C54.0853 99.4027 54.2184 99.0854 54.2184 98.7556V87.0558H83.6699H83.6668C83.9948 87.0558 84.3105 86.9251 84.5427 86.6918C84.7748 86.4585 84.9048 86.1412 84.9048 85.8114V41.2444C84.9048 40.9146 84.7748 40.5973 84.5427 40.364C84.3105 40.1307 83.9947 40 83.6666 40ZM51.7424 97.5148H25.4759V71.1343H51.7424V97.5148ZM82.4314 84.5702L54.2183 84.5671V69.8832C54.2183 69.5535 54.0852 69.2393 53.8531 69.0059C53.621 68.7726 53.3084 68.6388 52.9803 68.6388H40.5665V42.4884H82.4286L82.4314 84.5702ZM59.8381 64.079L59.835 64.0759C59.3646 63.5782 59.3863 62.7911 59.8815 62.3183L72.3975 50.3724H63.927C63.243 50.3724 62.689 49.8155 62.689 49.128C62.689 48.4405 63.243 47.8836 63.927 47.8836H75.3535C75.4959 47.8836 75.6352 47.9085 75.7683 47.9552H75.7714C75.9416 48.0174 76.0932 48.1169 76.2232 48.2445C76.347 48.372 76.4399 48.5245 76.5018 48.6925V48.6956C76.5513 48.8293 76.5729 48.9724 76.5729 49.1155V49.2275V49.2929L76.5389 60.3181C76.5389 61.0025 75.9849 61.5594 75.3009 61.5594H75.2978C74.9698 61.5563 74.6541 61.4256 74.425 61.1923C74.1929 60.959 74.0629 60.6417 74.0629 60.3119L74.0877 52.1648L61.5717 64.1107C61.0765 64.5836 60.2935 64.5618 59.8231 64.064L59.8381 64.079Z" fill="white"/>
</g>
<defs>
<linearGradient id="paint0_linear_2305_3934" x1="-2.00001" y1="314" x2="321.5" y2="-9.49999" gradientUnits="userSpaceOnUse">
<stop stop-color="#11296A"/>
<stop offset="1" stop-color="#2150D0"/>
</linearGradient>
<linearGradient id="paint1_linear_2305_3934" x1="-2.00001" y1="314" x2="321.5" y2="-9.49999" gradientUnits="userSpaceOnUse">
<stop stop-color="#11296A"/>
<stop offset="1" stop-color="#2150D0"/>
</linearGradient>
<linearGradient id="paint2_linear_2305_3934" x1="367.787" y1="-128" x2="367.787" y2="216.727" gradientUnits="userSpaceOnUse">
<stop stop-color="white"/>
<stop offset="1" stop-color="white" stop-opacity="0"/>
</linearGradient>
<linearGradient id="paint3_linear_2305_3934" x1="465.787" y1="-128" x2="465.787" y2="216.727" gradientUnits="userSpaceOnUse">
<stop stop-color="white"/>
<stop offset="1" stop-color="white" stop-opacity="0"/>
</linearGradient>
<clipPath id="clip0_2305_3934">
<rect width="61.9048" height="60" fill="white" transform="translate(23 40)"/>
</clipPath>
</defs>
</svg>
