<svg width="285" height="300" viewBox="0 0 285 300" fill="none" xmlns="http://www.w3.org/2000/svg">
<rect width="285" height="300" rx="10" transform="matrix(1 0 0 -1 0 300)" fill="url(#paint0_linear_2305_3945)"/>
<mask id="mask0_2305_3945" style="mask-type:alpha" maskUnits="userSpaceOnUse" x="0" y="0" width="285" height="300">
<rect width="285" height="300" rx="10" transform="matrix(1 0 0 -1 0 300)" fill="url(#paint1_linear_2305_3945)"/>
</mask>
<g mask="url(#mask0_2305_3945)">
<rect x="338.605" y="-128" width="58.3621" height="344.727" rx="29.1811" transform="rotate(43.8011 338.605 -128)" fill="url(#paint2_linear_2305_3945)" fill-opacity="0.24"/>
<rect x="436.605" y="-128" width="58.3621" height="344.727" rx="29.1811" transform="rotate(43.8011 436.605 -128)" fill="url(#paint3_linear_2305_3945)" fill-opacity="0.24"/>
</g>
<path d="M24.54 239V224.1H29.96C30.96 224.1 31.84 224.287 32.6 224.66C33.36 225.02 33.9533 225.553 34.38 226.26C34.82 226.953 35.04 227.787 35.04 228.76C35.04 229.787 34.78 230.667 34.26 231.4C33.7533 232.133 33.0667 232.667 32.2 233L35.64 239H32.96L29.3 232.5L30.84 233.4H26.9V239H24.54ZM26.9 231.3H30C30.5467 231.3 31.02 231.193 31.42 230.98C31.82 230.767 32.1267 230.473 32.34 230.1C32.5667 229.713 32.68 229.26 32.68 228.74C32.68 228.22 32.5667 227.773 32.34 227.4C32.1267 227.013 31.82 226.72 31.42 226.52C31.02 226.307 30.5467 226.2 30 226.2H26.9V231.3ZM41.8805 239.24C40.8005 239.24 39.8405 238.993 39.0005 238.5C38.1738 237.993 37.5271 237.313 37.0605 236.46C36.5938 235.593 36.3605 234.627 36.3605 233.56C36.3605 232.467 36.5938 231.5 37.0605 230.66C37.5405 229.82 38.1805 229.16 38.9805 228.68C39.7805 228.187 40.6871 227.94 41.7005 227.94C42.5138 227.94 43.2405 228.08 43.8805 228.36C44.5205 228.64 45.0605 229.027 45.5005 229.52C45.9405 230 46.2738 230.553 46.5005 231.18C46.7405 231.807 46.8605 232.473 46.8605 233.18C46.8605 233.353 46.8538 233.533 46.8405 233.72C46.8271 233.907 46.8005 234.08 46.7605 234.24H38.1405V232.44H45.4805L44.4005 233.26C44.5338 232.607 44.4871 232.027 44.2605 231.52C44.0471 231 43.7138 230.593 43.2605 230.3C42.8205 229.993 42.3005 229.84 41.7005 229.84C41.1005 229.84 40.5671 229.993 40.1005 230.3C39.6338 230.593 39.2738 231.02 39.0205 231.58C38.7671 232.127 38.6671 232.793 38.7205 233.58C38.6538 234.313 38.7538 234.953 39.0205 235.5C39.3005 236.047 39.6871 236.473 40.1805 236.78C40.6871 237.087 41.2605 237.24 41.9005 237.24C42.5538 237.24 43.1071 237.093 43.5605 236.8C44.0271 236.507 44.3938 236.127 44.6605 235.66L46.5005 236.56C46.2871 237.067 45.9538 237.527 45.5005 237.94C45.0605 238.34 44.5271 238.66 43.9005 238.9C43.2871 239.127 42.6138 239.24 41.8805 239.24ZM54.0661 239.24C53.0261 239.24 52.0928 238.993 51.2661 238.5C50.4528 237.993 49.8061 237.313 49.3261 236.46C48.8594 235.607 48.6261 234.647 48.6261 233.58C48.6261 232.513 48.8661 231.553 49.3461 230.7C49.8261 229.847 50.4728 229.173 51.2861 228.68C52.0994 228.187 53.0194 227.94 54.0461 227.94C54.9128 227.94 55.6794 228.113 56.3461 228.46C57.0128 228.807 57.5394 229.287 57.9261 229.9L57.5861 230.42V223.86H59.8261V239H57.6861V236.8L57.9461 237.22C57.5728 237.873 57.0394 238.373 56.3461 238.72C55.6528 239.067 54.8928 239.24 54.0661 239.24ZM54.2861 237.14C54.9128 237.14 55.4728 236.987 55.9661 236.68C56.4728 236.373 56.8661 235.953 57.1461 235.42C57.4394 234.873 57.5861 234.26 57.5861 233.58C57.5861 232.9 57.4394 232.293 57.1461 231.76C56.8661 231.227 56.4728 230.807 55.9661 230.5C55.4728 230.193 54.9128 230.04 54.2861 230.04C53.6594 230.04 53.0928 230.193 52.5861 230.5C52.0794 230.807 51.6861 231.227 51.4061 231.76C51.1261 232.293 50.9861 232.9 50.9861 233.58C50.9861 234.26 51.1261 234.873 51.4061 235.42C51.6861 235.953 52.0728 236.373 52.5661 236.68C53.0728 236.987 53.6461 237.14 54.2861 237.14ZM66.3245 239.24C65.5112 239.24 64.7979 239.06 64.1845 238.7C63.5712 238.327 63.0912 237.813 62.7445 237.16C62.4112 236.493 62.2445 235.727 62.2445 234.86V228.18H64.5045V234.66C64.5045 235.153 64.6045 235.587 64.8045 235.96C65.0045 236.333 65.2845 236.627 65.6445 236.84C66.0045 237.04 66.4179 237.14 66.8845 237.14C67.3645 237.14 67.7845 237.033 68.1445 236.82C68.5045 236.607 68.7845 236.307 68.9845 235.92C69.1979 235.533 69.3045 235.08 69.3045 234.56V228.18H71.5445V239H69.4045V236.88L69.6445 237.16C69.3912 237.827 68.9712 238.34 68.3845 238.7C67.7979 239.06 67.1112 239.24 66.3245 239.24ZM79.3233 239.24C78.2433 239.24 77.2833 238.993 76.4433 238.5C75.6166 237.993 74.9566 237.313 74.4633 236.46C73.9833 235.607 73.7433 234.64 73.7433 233.56C73.7433 232.493 73.9833 231.533 74.4633 230.68C74.9433 229.827 75.6033 229.16 76.4433 228.68C77.2833 228.187 78.2433 227.94 79.3233 227.94C80.0566 227.94 80.7433 228.073 81.3833 228.34C82.0233 228.593 82.5766 228.947 83.0433 229.4C83.5233 229.853 83.8766 230.38 84.1033 230.98L82.1233 231.9C81.8966 231.34 81.5299 230.893 81.0233 230.56C80.5299 230.213 79.9633 230.04 79.3233 230.04C78.7099 230.04 78.1566 230.193 77.6633 230.5C77.1833 230.793 76.8033 231.213 76.5233 231.76C76.2433 232.293 76.1033 232.9 76.1033 233.58C76.1033 234.26 76.2433 234.873 76.5233 235.42C76.8033 235.953 77.1833 236.373 77.6633 236.68C78.1566 236.987 78.7099 237.14 79.3233 237.14C79.9766 237.14 80.5433 236.973 81.0233 236.64C81.5166 236.293 81.8833 235.833 82.1233 235.26L84.1033 236.2C83.8899 236.773 83.5433 237.293 83.0633 237.76C82.5966 238.213 82.0433 238.573 81.4033 238.84C80.7633 239.107 80.0699 239.24 79.3233 239.24ZM91.3922 239.24C90.3122 239.24 89.3522 238.993 88.5122 238.5C87.6855 237.993 87.0389 237.313 86.5722 236.46C86.1055 235.593 85.8722 234.627 85.8722 233.56C85.8722 232.467 86.1055 231.5 86.5722 230.66C87.0522 229.82 87.6922 229.16 88.4922 228.68C89.2922 228.187 90.1989 227.94 91.2122 227.94C92.0255 227.94 92.7522 228.08 93.3922 228.36C94.0322 228.64 94.5722 229.027 95.0122 229.52C95.4522 230 95.7855 230.553 96.0122 231.18C96.2522 231.807 96.3722 232.473 96.3722 233.18C96.3722 233.353 96.3655 233.533 96.3522 233.72C96.3389 233.907 96.3122 234.08 96.2722 234.24H87.6522V232.44H94.9922L93.9122 233.26C94.0455 232.607 93.9989 232.027 93.7722 231.52C93.5589 231 93.2255 230.593 92.7722 230.3C92.3322 229.993 91.8122 229.84 91.2122 229.84C90.6122 229.84 90.0789 229.993 89.6122 230.3C89.1455 230.593 88.7855 231.02 88.5322 231.58C88.2789 232.127 88.1789 232.793 88.2322 233.58C88.1655 234.313 88.2655 234.953 88.5322 235.5C88.8122 236.047 89.1989 236.473 89.6922 236.78C90.1989 237.087 90.7722 237.24 91.4122 237.24C92.0655 237.24 92.6189 237.093 93.0722 236.8C93.5389 236.507 93.9055 236.127 94.1722 235.66L96.0122 236.56C95.7989 237.067 95.4655 237.527 95.0122 237.94C94.5722 238.34 94.0389 238.66 93.4122 238.9C92.7989 239.127 92.1255 239.24 91.3922 239.24ZM103.578 239.24C102.538 239.24 101.604 238.993 100.778 238.5C99.9645 237.993 99.3178 237.313 98.8378 236.46C98.3711 235.607 98.1378 234.647 98.1378 233.58C98.1378 232.513 98.3778 231.553 98.8578 230.7C99.3378 229.847 99.9845 229.173 100.798 228.68C101.611 228.187 102.531 227.94 103.558 227.94C104.424 227.94 105.191 228.113 105.858 228.46C106.524 228.807 107.051 229.287 107.438 229.9L107.098 230.42V223.86H109.338V239H107.198V236.8L107.458 237.22C107.084 237.873 106.551 238.373 105.858 238.72C105.164 239.067 104.404 239.24 103.578 239.24ZM103.798 237.14C104.424 237.14 104.984 236.987 105.478 236.68C105.984 236.373 106.378 235.953 106.658 235.42C106.951 234.873 107.098 234.26 107.098 233.58C107.098 232.9 106.951 232.293 106.658 231.76C106.378 231.227 105.984 230.807 105.478 230.5C104.984 230.193 104.424 230.04 103.798 230.04C103.171 230.04 102.604 230.193 102.098 230.5C101.591 230.807 101.198 231.227 100.918 231.76C100.638 232.293 100.498 232.9 100.498 233.58C100.498 234.26 100.638 234.873 100.918 235.42C101.198 235.953 101.584 236.373 102.078 236.68C102.584 236.987 103.158 237.14 103.798 237.14ZM115.692 239V224.1H118.052V230.66H124.952V224.1H127.292V239H124.952V232.76H118.052V239H115.692ZM130.16 239V228.18H132.42V239H130.16ZM130.16 226.7V224.1H132.42V226.7H130.16ZM135.062 239V228.18H137.222V230.36L137.022 230.04C137.262 229.333 137.649 228.827 138.182 228.52C138.716 228.2 139.356 228.04 140.102 228.04H140.762V230.1H139.822C139.076 230.1 138.469 230.333 138.002 230.8C137.549 231.253 137.322 231.907 137.322 232.76V239H135.062ZM142.308 239V228.18H144.568V239H142.308ZM142.308 226.7V224.1H144.568V226.7H142.308ZM147.211 239V228.18H149.371V230.3L149.111 230.02C149.377 229.34 149.804 228.827 150.391 228.48C150.977 228.12 151.657 227.94 152.431 227.94C153.231 227.94 153.937 228.113 154.551 228.46C155.164 228.807 155.644 229.287 155.991 229.9C156.337 230.513 156.511 231.22 156.511 232.02V239H154.271V232.62C154.271 232.073 154.171 231.613 153.971 231.24C153.771 230.853 153.484 230.56 153.111 230.36C152.751 230.147 152.337 230.04 151.871 230.04C151.404 230.04 150.984 230.147 150.611 230.36C150.251 230.56 149.971 230.853 149.771 231.24C149.571 231.627 149.471 232.087 149.471 232.62V239H147.211ZM164.149 243.4C163.363 243.4 162.636 243.273 161.969 243.02C161.303 242.767 160.729 242.413 160.249 241.96C159.769 241.52 159.409 241 159.169 240.4L161.249 239.54C161.436 240.047 161.776 240.467 162.269 240.8C162.776 241.133 163.396 241.3 164.129 241.3C164.703 241.3 165.216 241.187 165.669 240.96C166.123 240.747 166.483 240.427 166.749 240C167.016 239.587 167.149 239.087 167.149 238.5V236.06L167.549 236.52C167.176 237.213 166.656 237.74 165.989 238.1C165.336 238.46 164.596 238.64 163.769 238.64C162.769 238.64 161.869 238.407 161.069 237.94C160.269 237.473 159.636 236.833 159.169 236.02C158.716 235.207 158.489 234.293 158.489 233.28C158.489 232.253 158.716 231.34 159.169 230.54C159.636 229.74 160.263 229.107 161.049 228.64C161.836 228.173 162.736 227.94 163.749 227.94C164.576 227.94 165.309 228.12 165.949 228.48C166.603 228.827 167.136 229.333 167.549 230L167.249 230.56V228.18H169.389V238.5C169.389 239.433 169.163 240.267 168.709 241C168.269 241.747 167.656 242.333 166.869 242.76C166.083 243.187 165.176 243.4 164.149 243.4ZM164.029 236.54C164.629 236.54 165.163 236.4 165.629 236.12C166.096 235.827 166.463 235.44 166.729 234.96C167.009 234.467 167.149 233.913 167.149 233.3C167.149 232.687 167.009 232.133 166.729 231.64C166.449 231.147 166.076 230.76 165.609 230.48C165.143 230.187 164.616 230.04 164.029 230.04C163.416 230.04 162.869 230.187 162.389 230.48C161.909 230.76 161.529 231.147 161.249 231.64C160.983 232.12 160.849 232.673 160.849 233.3C160.849 233.9 160.983 234.447 161.249 234.94C161.529 235.433 161.909 235.827 162.389 236.12C162.869 236.4 163.416 236.54 164.029 236.54ZM178.391 239V226.2H174.431V224.1H184.631V226.2H180.731V239H178.391ZM186.175 239V228.18H188.435V239H186.175ZM186.175 226.7V224.1H188.435V226.7H186.175ZM191.078 239V228.18H193.238V230.52L192.958 230.16C193.184 229.427 193.598 228.873 194.198 228.5C194.798 228.127 195.484 227.94 196.258 227.94C197.124 227.94 197.891 228.173 198.558 228.64C199.238 229.093 199.691 229.7 199.918 230.46L199.278 230.52C199.598 229.653 200.084 229.007 200.738 228.58C201.404 228.153 202.164 227.94 203.018 227.94C203.764 227.94 204.438 228.113 205.038 228.46C205.651 228.807 206.138 229.287 206.498 229.9C206.858 230.513 207.038 231.213 207.038 232V239H204.778V232.62C204.778 232.073 204.678 231.613 204.478 231.24C204.291 230.853 204.024 230.56 203.678 230.36C203.344 230.147 202.951 230.04 202.498 230.04C202.044 230.04 201.644 230.147 201.298 230.36C200.951 230.56 200.678 230.853 200.478 231.24C200.278 231.627 200.178 232.087 200.178 232.62V239H197.938V232.62C197.938 232.073 197.838 231.613 197.638 231.24C197.451 230.853 197.184 230.56 196.838 230.36C196.504 230.147 196.104 230.04 195.638 230.04C195.184 230.04 194.784 230.147 194.438 230.36C194.091 230.56 193.818 230.853 193.618 231.24C193.431 231.627 193.338 232.087 193.338 232.62V239H191.078ZM214.537 239.24C213.457 239.24 212.497 238.993 211.657 238.5C210.83 237.993 210.183 237.313 209.717 236.46C209.25 235.593 209.017 234.627 209.017 233.56C209.017 232.467 209.25 231.5 209.717 230.66C210.197 229.82 210.837 229.16 211.637 228.68C212.437 228.187 213.343 227.94 214.357 227.94C215.17 227.94 215.897 228.08 216.537 228.36C217.177 228.64 217.717 229.027 218.157 229.52C218.597 230 218.93 230.553 219.157 231.18C219.397 231.807 219.517 232.473 219.517 233.18C219.517 233.353 219.51 233.533 219.497 233.72C219.483 233.907 219.457 234.08 219.417 234.24H210.797V232.44H218.137L217.057 233.26C217.19 232.607 217.143 232.027 216.917 231.52C216.703 231 216.37 230.593 215.917 230.3C215.477 229.993 214.957 229.84 214.357 229.84C213.757 229.84 213.223 229.993 212.757 230.3C212.29 230.593 211.93 231.02 211.677 231.58C211.423 232.127 211.323 232.793 211.377 233.58C211.31 234.313 211.41 234.953 211.677 235.5C211.957 236.047 212.343 236.473 212.837 236.78C213.343 237.087 213.917 237.24 214.557 237.24C215.21 237.24 215.763 237.093 216.217 236.8C216.683 236.507 217.05 236.127 217.317 235.66L219.157 236.56C218.943 237.067 218.61 237.527 218.157 237.94C217.717 238.34 217.183 238.66 216.557 238.9C215.943 239.127 215.27 239.24 214.537 239.24ZM228.458 239.24C227.725 239.24 227.078 239.113 226.518 238.86C225.972 238.593 225.545 238.233 225.238 237.78C224.932 237.313 224.778 236.767 224.778 236.14C224.778 235.553 224.905 235.027 225.158 234.56C225.425 234.093 225.832 233.7 226.378 233.38C226.925 233.06 227.612 232.833 228.438 232.7L232.198 232.08V233.86L228.878 234.44C228.278 234.547 227.838 234.74 227.558 235.02C227.278 235.287 227.138 235.633 227.138 236.06C227.138 236.473 227.292 236.813 227.598 237.08C227.918 237.333 228.325 237.46 228.818 237.46C229.432 237.46 229.965 237.327 230.418 237.06C230.885 236.793 231.245 236.44 231.498 236C231.752 235.547 231.878 235.047 231.878 234.5V231.72C231.878 231.187 231.678 230.753 231.278 230.42C230.892 230.073 230.372 229.9 229.718 229.9C229.118 229.9 228.592 230.06 228.138 230.38C227.698 230.687 227.372 231.087 227.158 231.58L225.278 230.64C225.478 230.107 225.805 229.64 226.258 229.24C226.712 228.827 227.238 228.507 227.838 228.28C228.452 228.053 229.098 227.94 229.778 227.94C230.632 227.94 231.385 228.1 232.038 228.42C232.705 228.74 233.218 229.187 233.578 229.76C233.952 230.32 234.138 230.973 234.138 231.72V239H231.978V237.04L232.438 237.1C232.185 237.54 231.858 237.92 231.458 238.24C231.072 238.56 230.625 238.807 230.118 238.98C229.625 239.153 229.072 239.24 228.458 239.24ZM236.781 239V228.18H238.941V230.3L238.681 230.02C238.948 229.34 239.374 228.827 239.961 228.48C240.548 228.12 241.228 227.94 242.001 227.94C242.801 227.94 243.508 228.113 244.121 228.46C244.734 228.807 245.214 229.287 245.561 229.9C245.908 230.513 246.081 231.22 246.081 232.02V239H243.841V232.62C243.841 232.073 243.741 231.613 243.541 231.24C243.341 230.853 243.054 230.56 242.681 230.36C242.321 230.147 241.908 230.04 241.441 230.04C240.974 230.04 240.554 230.147 240.181 230.36C239.821 230.56 239.541 230.853 239.341 231.24C239.141 231.627 239.041 232.087 239.041 232.62V239H236.781ZM253.5 239.24C252.46 239.24 251.526 238.993 250.7 238.5C249.886 237.993 249.24 237.313 248.76 236.46C248.293 235.607 248.06 234.647 248.06 233.58C248.06 232.513 248.3 231.553 248.78 230.7C249.26 229.847 249.906 229.173 250.72 228.68C251.533 228.187 252.453 227.94 253.48 227.94C254.346 227.94 255.113 228.113 255.78 228.46C256.446 228.807 256.973 229.287 257.36 229.9L257.02 230.42V223.86H259.26V239H257.12V236.8L257.38 237.22C257.006 237.873 256.473 238.373 255.78 238.72C255.086 239.067 254.326 239.24 253.5 239.24ZM253.72 237.14C254.346 237.14 254.906 236.987 255.4 236.68C255.906 236.373 256.3 235.953 256.58 235.42C256.873 234.873 257.02 234.26 257.02 233.58C257.02 232.9 256.873 232.293 256.58 231.76C256.3 231.227 255.906 230.807 255.4 230.5C254.906 230.193 254.346 230.04 253.72 230.04C253.093 230.04 252.526 230.193 252.02 230.5C251.513 230.807 251.12 231.227 250.84 231.76C250.56 232.293 250.42 232.9 250.42 233.58C250.42 234.26 250.56 234.873 250.84 235.42C251.12 235.953 251.506 236.373 252 236.68C252.506 236.987 253.08 237.14 253.72 237.14ZM31.48 272.24C30.4267 272.24 29.4467 272.047 28.54 271.66C27.6467 271.273 26.8667 270.74 26.2 270.06C25.5467 269.367 25.0333 268.553 24.66 267.62C24.2867 266.687 24.1 265.66 24.1 264.54C24.1 263.433 24.28 262.413 24.64 261.48C25.0133 260.533 25.5333 259.72 26.2 259.04C26.8667 258.347 27.6467 257.813 28.54 257.44C29.4333 257.053 30.4133 256.86 31.48 256.86C32.5333 256.86 33.4733 257.04 34.3 257.4C35.14 257.76 35.8467 258.233 36.42 258.82C36.9933 259.393 37.4067 260.02 37.66 260.7L35.54 261.7C35.22 260.9 34.7067 260.253 34 259.76C33.3067 259.253 32.4667 259 31.48 259C30.4933 259 29.62 259.233 28.86 259.7C28.1 260.167 27.5067 260.813 27.08 261.64C26.6667 262.467 26.46 263.433 26.46 264.54C26.46 265.647 26.6667 266.62 27.08 267.46C27.5067 268.287 28.1 268.933 28.86 269.4C29.62 269.853 30.4933 270.08 31.48 270.08C32.4667 270.08 33.3067 269.833 34 269.34C34.7067 268.847 35.22 268.2 35.54 267.4L37.66 268.4C37.4067 269.067 36.9933 269.693 36.42 270.28C35.8467 270.867 35.14 271.34 34.3 271.7C33.4733 272.06 32.5333 272.24 31.48 272.24ZM44.8916 272.24C43.8516 272.24 42.8982 271.993 42.0316 271.5C41.1782 271.007 40.4982 270.333 39.9916 269.48C39.4849 268.627 39.2316 267.66 39.2316 266.58C39.2316 265.487 39.4849 264.52 39.9916 263.68C40.4982 262.827 41.1782 262.16 42.0316 261.68C42.8849 261.187 43.8382 260.94 44.8916 260.94C45.9582 260.94 46.9116 261.187 47.7516 261.68C48.6049 262.16 49.2782 262.827 49.7716 263.68C50.2782 264.52 50.5316 265.487 50.5316 266.58C50.5316 267.673 50.2782 268.647 49.7716 269.5C49.2649 270.353 48.5849 271.027 47.7316 271.52C46.8782 272 45.9316 272.24 44.8916 272.24ZM44.8916 270.14C45.5316 270.14 46.0982 269.987 46.5916 269.68C47.0849 269.373 47.4716 268.953 47.7516 268.42C48.0449 267.873 48.1916 267.26 48.1916 266.58C48.1916 265.9 48.0449 265.293 47.7516 264.76C47.4716 264.227 47.0849 263.807 46.5916 263.5C46.0982 263.193 45.5316 263.04 44.8916 263.04C44.2649 263.04 43.6982 263.193 43.1916 263.5C42.6982 263.807 42.3049 264.227 42.0116 264.76C41.7316 265.293 41.5916 265.9 41.5916 266.58C41.5916 267.26 41.7316 267.873 42.0116 268.42C42.3049 268.953 42.6982 269.373 43.1916 269.68C43.6982 269.987 44.2649 270.14 44.8916 270.14ZM56.738 272.24C55.6313 272.24 54.658 271.967 53.818 271.42C52.9913 270.873 52.4113 270.14 52.078 269.22L53.818 268.4C54.1113 269.013 54.5113 269.5 55.018 269.86C55.538 270.22 56.1113 270.4 56.738 270.4C57.2713 270.4 57.7046 270.28 58.038 270.04C58.3713 269.8 58.538 269.473 58.538 269.06C58.538 268.793 58.4646 268.58 58.318 268.42C58.1713 268.247 57.9846 268.107 57.758 268C57.5446 267.893 57.3246 267.813 57.098 267.76L55.398 267.28C54.4646 267.013 53.7646 266.613 53.298 266.08C52.8446 265.533 52.618 264.9 52.618 264.18C52.618 263.527 52.7846 262.96 53.118 262.48C53.4513 261.987 53.9113 261.607 54.498 261.34C55.0846 261.073 55.7446 260.94 56.478 260.94C57.4646 260.94 58.3446 261.187 59.118 261.68C59.8913 262.16 60.438 262.833 60.758 263.7L59.018 264.52C58.8046 264 58.4646 263.587 57.998 263.28C57.5446 262.973 57.0313 262.82 56.458 262.82C55.9646 262.82 55.5713 262.94 55.278 263.18C54.9846 263.407 54.838 263.707 54.838 264.08C54.838 264.333 54.9046 264.547 55.038 264.72C55.1713 264.88 55.3446 265.013 55.558 265.12C55.7713 265.213 55.9913 265.293 56.218 265.36L57.978 265.88C58.8713 266.133 59.558 266.533 60.038 267.08C60.518 267.613 60.758 268.253 60.758 269C60.758 269.64 60.5846 270.207 60.238 270.7C59.9046 271.18 59.438 271.56 58.838 271.84C58.238 272.107 57.538 272.24 56.738 272.24ZM67.6523 272.12C66.519 272.12 65.639 271.8 65.0123 271.16C64.3857 270.52 64.0723 269.62 64.0723 268.46V263.22H62.1723V261.18H62.4723C62.979 261.18 63.3723 261.033 63.6523 260.74C63.9323 260.447 64.0723 260.047 64.0723 259.54V258.7H66.3323V261.18H68.7923V263.22H66.3323V268.36C66.3323 268.733 66.3923 269.053 66.5123 269.32C66.6323 269.573 66.8257 269.773 67.0923 269.92C67.359 270.053 67.7057 270.12 68.1323 270.12C68.239 270.12 68.359 270.113 68.4923 270.1C68.6257 270.087 68.7523 270.073 68.8723 270.06V272C68.6857 272.027 68.479 272.053 68.2523 272.08C68.0257 272.107 67.8257 272.12 67.6523 272.12ZM75.0778 272.24C73.9711 272.24 72.9978 271.967 72.1578 271.42C71.3311 270.873 70.7511 270.14 70.4178 269.22L72.1578 268.4C72.4511 269.013 72.8511 269.5 73.3578 269.86C73.8778 270.22 74.4511 270.4 75.0778 270.4C75.6111 270.4 76.0445 270.28 76.3778 270.04C76.7111 269.8 76.8778 269.473 76.8778 269.06C76.8778 268.793 76.8045 268.58 76.6578 268.42C76.5111 268.247 76.3245 268.107 76.0978 268C75.8845 267.893 75.6645 267.813 75.4378 267.76L73.7378 267.28C72.8045 267.013 72.1045 266.613 71.6378 266.08C71.1845 265.533 70.9578 264.9 70.9578 264.18C70.9578 263.527 71.1245 262.96 71.4578 262.48C71.7911 261.987 72.2511 261.607 72.8378 261.34C73.4245 261.073 74.0845 260.94 74.8178 260.94C75.8045 260.94 76.6845 261.187 77.4578 261.68C78.2311 262.16 78.7778 262.833 79.0978 263.7L77.3578 264.52C77.1445 264 76.8045 263.587 76.3378 263.28C75.8845 262.973 75.3711 262.82 74.7978 262.82C74.3045 262.82 73.9111 262.94 73.6178 263.18C73.3245 263.407 73.1778 263.707 73.1778 264.08C73.1778 264.333 73.2445 264.547 73.3778 264.72C73.5111 264.88 73.6845 265.013 73.8978 265.12C74.1111 265.213 74.3311 265.293 74.5578 265.36L76.3178 265.88C77.2111 266.133 77.8978 266.533 78.3778 267.08C78.8578 267.613 79.0978 268.253 79.0978 269C79.0978 269.64 78.9245 270.207 78.5778 270.7C78.2445 271.18 77.7778 271.56 77.1778 271.84C76.5778 272.107 75.8778 272.24 75.0778 272.24Z" fill="white"/>
<path d="M51.7551 53.0694V50.9292C51.7551 50.7091 51.6677 50.4981 51.5122 50.3426C51.3566 50.187 51.1456 50.0996 50.9256 50.0996C50.7056 50.0996 50.4946 50.187 50.339 50.3426C50.1834 50.4981 50.096 50.7091 50.096 50.9292V53.0694C48.1815 53.2679 46.4085 54.1689 45.1195 55.5984C43.8306 57.0279 43.1172 58.8843 43.1172 60.8091C43.1172 62.7339 43.8306 64.5904 45.1195 66.0199C46.4085 67.4493 48.1815 68.3504 50.096 68.5488V80.7847C48.6307 80.5825 47.2879 79.8574 46.3152 78.7429C45.3425 77.6285 44.8056 76.1999 44.8035 74.7207C44.8035 74.5007 44.7161 74.2897 44.5605 74.1341C44.4049 73.9785 44.1939 73.8911 43.9739 73.8911C43.7539 73.8911 43.5429 73.9785 43.3874 74.1341C43.2318 74.2897 43.1444 74.5007 43.1444 74.7207C43.1455 76.6407 43.8557 78.4927 45.1387 79.9212C46.4217 81.3496 48.1871 82.2539 50.096 82.4604V84.5923C50.096 84.8124 50.1834 85.0234 50.339 85.1789C50.4946 85.3345 50.7056 85.4219 50.9256 85.4219C51.1456 85.4219 51.3566 85.3345 51.5122 85.1789C51.6677 85.0234 51.7551 84.8124 51.7551 84.5923V82.4604C53.6697 82.2619 55.4427 81.3609 56.7316 79.9314C58.0206 78.5019 58.734 76.6455 58.734 74.7207C58.734 72.7959 58.0206 70.9394 56.7316 69.5099C55.4427 68.0805 53.6697 67.1794 51.7551 66.981V54.7451C53.2182 54.9507 54.5581 55.6772 55.5288 56.7911C56.4994 57.905 57.0358 59.3316 57.0394 60.8091C57.0394 61.0291 57.1268 61.2401 57.2823 61.3957C57.4379 61.5513 57.6489 61.6387 57.8689 61.6387C58.0889 61.6387 58.2999 61.5513 58.4555 61.3957C58.6111 61.2401 58.6985 61.0291 58.6985 60.8091C58.6957 58.8909 57.986 57.0409 56.7051 55.6131C55.4241 54.1852 53.6618 53.2796 51.7551 53.0694ZM51.7551 68.6567C53.2191 68.8597 54.5601 69.5856 55.5307 70.7001C56.5014 71.8147 57.036 73.2427 57.036 74.7207C57.036 76.1986 56.5014 77.6267 55.5307 78.7413C54.5601 79.8558 53.2191 80.5816 51.7551 80.7847V68.6567ZM50.096 66.8731C48.6321 66.6701 47.291 65.9442 46.3204 64.8297C45.3498 63.7151 44.8151 62.2871 44.8151 60.8091C44.8151 59.3312 45.3498 57.9031 46.3204 56.7885C47.291 55.674 48.6321 54.9482 50.096 54.7451V66.8731Z" fill="white" stroke="white" stroke-width="0.5"/>
<path d="M85.9313 66.3671C85.9313 65.4255 85.5572 64.5224 84.8913 63.8566C84.2255 63.1907 83.3224 62.8167 82.3808 62.8167H78.233C77.214 57.2227 74.5022 52.0765 70.4639 48.0736C66.4257 44.0706 61.2558 41.404 55.6531 40.4342C50.0505 39.4644 44.2851 40.2381 39.1363 42.6507C33.9876 45.0634 29.7037 48.9987 26.8637 53.9246C24.0237 58.8506 22.7646 64.5298 23.2565 70.1944C23.7484 75.8591 25.9676 81.2362 29.6142 85.5989C33.2608 89.9616 38.1589 93.0995 43.6465 94.5886C49.134 96.0776 54.9465 95.8459 60.2981 93.9248C59.7816 96.2739 59.589 98.6826 59.7257 101.084C58.9147 101.318 58.2141 101.835 57.7502 102.541C57.2863 103.246 57.0897 104.094 57.1958 104.932C57.3019 105.769 57.7037 106.541 58.3288 107.109C58.9538 107.677 59.7611 108.002 60.6051 108.027H82.3808C83.2533 108.035 84.098 107.72 84.7529 107.144C85.4078 106.567 85.8268 105.769 85.9296 104.902C86.0324 104.036 85.8117 103.162 85.3099 102.448C84.8081 101.734 84.0605 101.231 83.2103 101.034C83.3265 98.8192 83.3597 92.5395 80.3235 88.8231C79.6888 88.0291 78.8986 87.373 78.0013 86.8951C77.1041 86.4173 76.1187 86.1277 75.1056 86.0441C75.0914 86.0452 75.0772 86.0436 75.0637 86.0392C75.0502 86.0348 75.0376 86.0277 75.0268 86.0185C75.0161 86.0092 75.0072 85.9979 75.0008 85.9852C74.9944 85.9726 74.9905 85.9587 74.9895 85.9446V84.9076C74.9894 84.8927 74.9925 84.878 74.9984 84.8643C75.0043 84.8507 75.013 84.8384 75.0239 84.8283C75.0349 84.8181 75.0477 84.8104 75.0618 84.8055C75.0759 84.8006 75.0908 84.7986 75.1056 84.7998C76.1187 84.7162 77.1041 84.4266 78.0013 83.9487C78.8986 83.4709 79.6888 82.8148 80.3235 82.0208C83.3597 78.3044 83.3265 72.0662 83.2103 69.8098C83.9833 69.6225 84.6714 69.1817 85.1645 68.5577C85.6577 67.9337 85.9277 67.1625 85.9313 66.3671ZM74.948 83.1407C74.5086 83.18 74.0999 83.3823 73.8021 83.7077C73.5043 84.0331 73.339 84.4582 73.3387 84.8993V85.9363C73.3411 86.3759 73.5073 86.799 73.8049 87.1226C74.1025 87.4463 74.5101 87.6474 74.948 87.6866C75.7438 87.7478 76.5184 87.9724 77.2234 88.3464C77.9285 88.7203 78.5489 89.2356 79.046 89.86C81.6757 93.0953 81.6591 98.9021 81.5595 100.926H61.3765C61.2853 98.8773 61.2604 93.0953 63.8652 89.8766C64.3615 89.2507 64.9816 88.7338 65.6867 88.3584C66.3918 87.983 67.1668 87.7571 67.9632 87.6949C68.4003 87.6556 68.807 87.4542 69.1032 87.1303C69.3995 86.8064 69.5639 86.3835 69.5642 85.9446V84.9076C69.5686 84.4697 69.4095 84.0459 69.118 83.7192C68.8265 83.3924 68.4236 83.1861 67.9881 83.1407C67.1937 83.0784 66.4207 82.8532 65.7172 82.4793C65.0136 82.1054 64.3945 81.5907 63.8984 80.9673C61.2687 77.7569 61.2853 71.9666 61.4097 69.9093H81.5595C81.6591 71.9666 81.6757 77.7569 79.0709 80.9673C78.571 81.5946 77.9467 82.1117 77.2371 82.4857C76.5275 82.8598 75.7481 83.0828 74.948 83.1407ZM82.414 106.368H60.6051C60.1034 106.368 59.6224 106.169 59.2677 105.814C58.913 105.459 58.7137 104.978 58.7137 104.477C58.7137 103.975 58.913 103.494 59.2677 103.139C59.6224 102.785 60.1034 102.585 60.6051 102.585H82.3808C82.8824 102.585 83.3635 102.785 83.7182 103.139C84.0729 103.494 84.2722 103.975 84.2722 104.477C84.2722 104.978 84.0729 105.459 83.7182 105.814C83.3635 106.169 82.8824 106.368 82.3808 106.368H82.414ZM24.8265 67.7608C24.8186 61.2665 27.2322 55.0026 31.5959 50.1928C35.9597 45.3831 41.9599 42.3732 48.4243 41.7511C54.8887 41.129 61.3529 42.9395 66.5537 46.8288C71.7545 50.7182 75.3184 56.4069 76.549 62.7835H73.0898C72.0038 57.9012 69.3372 53.5136 65.5035 50.3012C61.6697 47.0889 56.8832 45.2313 51.8861 45.0165C46.8891 44.8017 41.9608 46.2418 37.8656 49.1133C33.7704 51.9849 30.7371 56.1275 29.2362 60.8986C27.7353 65.6698 27.8506 70.8028 29.5643 75.5018C31.278 80.2007 34.4942 84.2029 38.7143 86.8876C42.9343 89.5724 47.9223 90.7896 52.9047 90.3506C57.887 89.9117 62.5853 87.841 66.2709 84.4597C66.776 84.6219 67.2955 84.7358 67.8222 84.7998C67.8508 84.7998 67.8782 84.8111 67.8984 84.8314C67.9186 84.8516 67.93 84.879 67.93 84.9076V85.9446C67.9279 85.9717 67.9156 85.997 67.8956 86.0155C67.8756 86.034 67.8494 86.0442 67.8222 86.0441C66.809 86.1277 65.8237 86.4173 64.9264 86.8951C64.0292 87.373 63.239 88.0291 62.6043 88.8231C61.8884 89.7433 61.3279 90.7746 60.9452 91.8758C56.9798 93.5207 52.6699 94.1616 48.3975 93.7417C44.1252 93.3219 40.0224 91.8543 36.4531 89.469C32.8839 87.0837 29.9583 83.8545 27.936 80.0678C25.9136 76.281 24.857 72.0537 24.8597 67.7608H24.8265ZM57.038 66.3671C57.0396 67.1537 57.303 67.9174 57.7867 68.5377C58.2703 69.1581 58.9467 69.5998 59.7092 69.7932C59.593 71.9998 59.5515 78.2961 62.596 82.0208C63.1529 82.7087 63.8269 83.2928 64.5869 83.7462C61.1 86.72 56.7374 88.4737 52.1624 88.7409C47.5875 89.0081 43.0504 87.7741 39.241 85.2266C35.4316 82.679 32.5583 78.9572 31.0579 74.627C29.5575 70.2968 29.5121 65.5951 30.9286 61.2368C32.3451 56.8784 35.146 53.1018 38.9055 50.4812C42.665 47.8605 47.1774 46.5391 51.7567 46.7179C56.336 46.8967 60.7316 48.566 64.2753 51.4718C67.819 54.3776 70.3169 58.3611 71.3892 62.8167H60.6051C60.1374 62.8145 59.6739 62.9047 59.2413 63.0822C58.8086 63.2596 58.4152 63.5208 58.0838 63.8507C57.7523 64.1806 57.4893 64.5727 57.3098 65.0046C57.1304 65.4364 57.038 65.8995 57.038 66.3671ZM82.3642 68.2585H60.6051C60.1034 68.2585 59.6224 68.0593 59.2677 67.7046C58.913 67.3499 58.7137 66.8688 58.7137 66.3671C58.7137 65.8655 58.913 65.3844 59.2677 65.0297C59.6224 64.675 60.1034 64.4758 60.6051 64.4758H82.3808C82.8824 64.4758 83.3635 64.675 83.7182 65.0297C84.0729 65.3844 84.2722 65.8655 84.2722 66.3671C84.2722 66.8688 84.0729 67.3499 83.7182 67.7046C83.3635 68.0593 82.8824 68.2585 82.3808 68.2585H82.3642Z" fill="white" stroke="white" stroke-width="0.5"/>
<defs>
<linearGradient id="paint0_linear_2305_3945" x1="-2.00001" y1="314" x2="321.5" y2="-9.49999" gradientUnits="userSpaceOnUse">
<stop stop-color="#11296A"/>
<stop offset="1" stop-color="#2150D0"/>
</linearGradient>
<linearGradient id="paint1_linear_2305_3945" x1="-2.00001" y1="314" x2="321.5" y2="-9.49999" gradientUnits="userSpaceOnUse">
<stop stop-color="#11296A"/>
<stop offset="1" stop-color="#2150D0"/>
</linearGradient>
<linearGradient id="paint2_linear_2305_3945" x1="367.787" y1="-128" x2="367.787" y2="216.727" gradientUnits="userSpaceOnUse">
<stop stop-color="white"/>
<stop offset="1" stop-color="white" stop-opacity="0"/>
</linearGradient>
<linearGradient id="paint3_linear_2305_3945" x1="465.787" y1="-128" x2="465.787" y2="216.727" gradientUnits="userSpaceOnUse">
<stop stop-color="white"/>
<stop offset="1" stop-color="white" stop-opacity="0"/>
</linearGradient>
</defs>
</svg>
