<svg width="285" height="300" viewBox="0 0 285 300" fill="none" xmlns="http://www.w3.org/2000/svg">
<rect width="285" height="300" rx="10" transform="matrix(1 0 0 -1 0 300)" fill="url(#paint0_linear_2305_3961)"/>
<mask id="mask0_2305_3961" style="mask-type:alpha" maskUnits="userSpaceOnUse" x="0" y="0" width="285" height="300">
<rect width="285" height="300" rx="10" transform="matrix(1 0 0 -1 0 300)" fill="url(#paint1_linear_2305_3961)"/>
</mask>
<g mask="url(#mask0_2305_3961)">
<rect x="338.605" y="-128" width="58.3621" height="344.727" rx="29.1811" transform="rotate(43.8011 338.605 -128)" fill="url(#paint2_linear_2305_3961)" fill-opacity="0.24"/>
<rect x="436.605" y="-128" width="58.3621" height="344.727" rx="29.1811" transform="rotate(43.8011 436.605 -128)" fill="url(#paint3_linear_2305_3961)" fill-opacity="0.24"/>
</g>
<path d="M24.54 239V224.1H26.9V239H24.54ZM29.9692 239V228.18H32.1292V230.52L31.8492 230.16C32.0759 229.427 32.4892 228.873 33.0892 228.5C33.6892 228.127 34.3759 227.94 35.1492 227.94C36.0159 227.94 36.7826 228.173 37.4492 228.64C38.1292 229.093 38.5826 229.7 38.8092 230.46L38.1692 230.52C38.4892 229.653 38.9759 229.007 39.6292 228.58C40.2959 228.153 41.0559 227.94 41.9092 227.94C42.6559 227.94 43.3292 228.113 43.9292 228.46C44.5426 228.807 45.0292 229.287 45.3892 229.9C45.7492 230.513 45.9292 231.213 45.9292 232V239H43.6692V232.62C43.6692 232.073 43.5692 231.613 43.3692 231.24C43.1826 230.853 42.9159 230.56 42.5692 230.36C42.2359 230.147 41.8426 230.04 41.3892 230.04C40.9359 230.04 40.5359 230.147 40.1892 230.36C39.8426 230.56 39.5692 230.853 39.3692 231.24C39.1692 231.627 39.0692 232.087 39.0692 232.62V239H36.8292V232.62C36.8292 232.073 36.7292 231.613 36.5292 231.24C36.3426 230.853 36.0759 230.56 35.7292 230.36C35.3959 230.147 34.9959 230.04 34.5292 230.04C34.0759 230.04 33.6759 230.147 33.3292 230.36C32.9826 230.56 32.7092 230.853 32.5092 231.24C32.3226 231.627 32.2292 232.087 32.2292 232.62V239H29.9692ZM48.5481 243V228.18H50.7081V230.42L50.4481 229.9C50.8481 229.287 51.3815 228.807 52.0481 228.46C52.7148 228.113 53.4748 227.94 54.3281 227.94C55.3548 227.94 56.2748 228.187 57.0881 228.68C57.9148 229.173 58.5615 229.847 59.0281 230.7C59.5081 231.553 59.7481 232.513 59.7481 233.58C59.7481 234.647 59.5081 235.607 59.0281 236.46C58.5615 237.313 57.9215 237.993 57.1081 238.5C56.2948 238.993 55.3681 239.24 54.3281 239.24C53.4881 239.24 52.7215 239.067 52.0281 238.72C51.3481 238.373 50.8215 237.873 50.4481 237.22L50.8081 236.8V243H48.5481ZM54.1081 237.14C54.7481 237.14 55.3148 236.987 55.8081 236.68C56.3015 236.373 56.6881 235.953 56.9681 235.42C57.2615 234.873 57.4081 234.26 57.4081 233.58C57.4081 232.9 57.2615 232.293 56.9681 231.76C56.6881 231.227 56.3015 230.807 55.8081 230.5C55.3148 230.193 54.7481 230.04 54.1081 230.04C53.4815 230.04 52.9148 230.193 52.4081 230.5C51.9148 230.807 51.5215 231.227 51.2281 231.76C50.9481 232.293 50.8081 232.9 50.8081 233.58C50.8081 234.26 50.9481 234.873 51.2281 235.42C51.5215 235.953 51.9148 236.373 52.4081 236.68C52.9148 236.987 53.4815 237.14 54.1081 237.14ZM62.1466 239V228.18H64.3066V230.36L64.1066 230.04C64.3466 229.333 64.7332 228.827 65.2666 228.52C65.7999 228.2 66.4399 228.04 67.1866 228.04H67.8466V230.1H66.9066C66.1599 230.1 65.5532 230.333 65.0866 230.8C64.6332 231.253 64.4066 231.907 64.4066 232.76V239H62.1466ZM74.8127 239.24C73.7727 239.24 72.8193 238.993 71.9527 238.5C71.0993 238.007 70.4193 237.333 69.9127 236.48C69.406 235.627 69.1527 234.66 69.1527 233.58C69.1527 232.487 69.406 231.52 69.9127 230.68C70.4193 229.827 71.0993 229.16 71.9527 228.68C72.806 228.187 73.7593 227.94 74.8127 227.94C75.8793 227.94 76.8327 228.187 77.6727 228.68C78.526 229.16 79.1993 229.827 79.6927 230.68C80.1993 231.52 80.4527 232.487 80.4527 233.58C80.4527 234.673 80.1993 235.647 79.6927 236.5C79.186 237.353 78.506 238.027 77.6527 238.52C76.7993 239 75.8527 239.24 74.8127 239.24ZM74.8127 237.14C75.4527 237.14 76.0193 236.987 76.5127 236.68C77.006 236.373 77.3927 235.953 77.6727 235.42C77.966 234.873 78.1127 234.26 78.1127 233.58C78.1127 232.9 77.966 232.293 77.6727 231.76C77.3927 231.227 77.006 230.807 76.5127 230.5C76.0193 230.193 75.4527 230.04 74.8127 230.04C74.186 230.04 73.6193 230.193 73.1127 230.5C72.6193 230.807 72.226 231.227 71.9327 231.76C71.6527 232.293 71.5127 232.9 71.5127 233.58C71.5127 234.26 71.6527 234.873 71.9327 235.42C72.226 235.953 72.6193 236.373 73.1127 236.68C73.6193 236.987 74.186 237.14 74.8127 237.14ZM85.8038 239L81.5638 228.18H84.0238L87.2838 237H86.3838L89.6438 228.18H92.1238L87.8638 239H85.8038ZM98.7445 239.24C97.6645 239.24 96.7045 238.993 95.8645 238.5C95.0379 237.993 94.3912 237.313 93.9245 236.46C93.4579 235.593 93.2245 234.627 93.2245 233.56C93.2245 232.467 93.4579 231.5 93.9245 230.66C94.4045 229.82 95.0445 229.16 95.8445 228.68C96.6445 228.187 97.5512 227.94 98.5645 227.94C99.3779 227.94 100.105 228.08 100.745 228.36C101.385 228.64 101.925 229.027 102.365 229.52C102.805 230 103.138 230.553 103.365 231.18C103.605 231.807 103.725 232.473 103.725 233.18C103.725 233.353 103.718 233.533 103.705 233.72C103.691 233.907 103.665 234.08 103.625 234.24H95.0045V232.44H102.345L101.265 233.26C101.398 232.607 101.351 232.027 101.125 231.52C100.911 231 100.578 230.593 100.125 230.3C99.6845 229.993 99.1645 229.84 98.5645 229.84C97.9645 229.84 97.4312 229.993 96.9645 230.3C96.4979 230.593 96.1379 231.02 95.8845 231.58C95.6312 232.127 95.5312 232.793 95.5845 233.58C95.5179 234.313 95.6179 234.953 95.8845 235.5C96.1645 236.047 96.5512 236.473 97.0445 236.78C97.5512 237.087 98.1245 237.24 98.7645 237.24C99.4179 237.24 99.9712 237.093 100.425 236.8C100.891 236.507 101.258 236.127 101.525 235.66L103.365 236.56C103.151 237.067 102.818 237.527 102.365 237.94C101.925 238.34 101.391 238.66 100.765 238.9C100.151 239.127 99.4779 239.24 98.7445 239.24ZM111.13 239.24C110.09 239.24 109.157 238.993 108.33 238.5C107.517 237.993 106.87 237.313 106.39 236.46C105.923 235.607 105.69 234.647 105.69 233.58C105.69 232.513 105.93 231.553 106.41 230.7C106.89 229.847 107.537 229.173 108.35 228.68C109.163 228.187 110.083 227.94 111.11 227.94C111.977 227.94 112.743 228.113 113.41 228.46C114.077 228.807 114.603 229.287 114.99 229.9L114.65 230.42V223.86H116.89V239H114.75V236.8L115.01 237.22C114.637 237.873 114.103 238.373 113.41 238.72C112.717 239.067 111.957 239.24 111.13 239.24ZM111.35 237.14C111.977 237.14 112.537 236.987 113.03 236.68C113.537 236.373 113.93 235.953 114.21 235.42C114.503 234.873 114.65 234.26 114.65 233.58C114.65 232.9 114.503 232.293 114.21 231.76C113.93 231.227 113.537 230.807 113.03 230.5C112.537 230.193 111.977 230.04 111.35 230.04C110.723 230.04 110.157 230.193 109.65 230.5C109.143 230.807 108.75 231.227 108.47 231.76C108.19 232.293 108.05 232.9 108.05 233.58C108.05 234.26 108.19 234.873 108.47 235.42C108.75 235.953 109.137 236.373 109.63 236.68C110.137 236.987 110.71 237.14 111.35 237.14ZM126.425 239L122.325 224.1H124.825L128.145 237H127.525L130.965 224.1H133.425L136.865 237H136.225L139.565 224.1H142.045L137.965 239H135.305L131.845 226.3H132.545L129.065 239H126.425ZM148.298 239.24C147.258 239.24 146.304 238.993 145.438 238.5C144.584 238.007 143.904 237.333 143.398 236.48C142.891 235.627 142.638 234.66 142.638 233.58C142.638 232.487 142.891 231.52 143.398 230.68C143.904 229.827 144.584 229.16 145.438 228.68C146.291 228.187 147.244 227.94 148.298 227.94C149.364 227.94 150.318 228.187 151.158 228.68C152.011 229.16 152.684 229.827 153.178 230.68C153.684 231.52 153.938 232.487 153.938 233.58C153.938 234.673 153.684 235.647 153.178 236.5C152.671 237.353 151.991 238.027 151.138 238.52C150.284 239 149.338 239.24 148.298 239.24ZM148.298 237.14C148.938 237.14 149.504 236.987 149.998 236.68C150.491 236.373 150.878 235.953 151.158 235.42C151.451 234.873 151.598 234.26 151.598 233.58C151.598 232.9 151.451 232.293 151.158 231.76C150.878 231.227 150.491 230.807 149.998 230.5C149.504 230.193 148.938 230.04 148.298 230.04C147.671 230.04 147.104 230.193 146.598 230.5C146.104 230.807 145.711 231.227 145.418 231.76C145.138 232.293 144.998 232.9 144.998 233.58C144.998 234.26 145.138 234.873 145.418 235.42C145.711 235.953 146.104 236.373 146.598 236.68C147.104 236.987 147.671 237.14 148.298 237.14ZM156.344 239V228.18H158.504V230.36L158.304 230.04C158.544 229.333 158.931 228.827 159.464 228.52C159.998 228.2 160.638 228.04 161.384 228.04H162.044V230.1H161.104C160.358 230.1 159.751 230.333 159.284 230.8C158.831 231.253 158.604 231.907 158.604 232.76V239H156.344ZM163.79 239V223.86H166.05V234L165.17 233.78L170.59 228.18H173.41L169.33 232.52L173.59 239H170.99L167.19 233.26L168.53 233.08L165.33 236.48L166.05 234.98V239H163.79ZM176.558 239V230.22H174.558V228.18H176.558V227.62C176.558 226.807 176.725 226.127 177.058 225.58C177.391 225.02 177.851 224.593 178.438 224.3C179.038 224.007 179.725 223.86 180.498 223.86C180.645 223.86 180.811 223.873 180.998 223.9C181.185 223.913 181.338 223.933 181.458 223.96V225.92C181.351 225.893 181.231 225.88 181.098 225.88C180.965 225.867 180.858 225.86 180.778 225.86C180.178 225.86 179.698 226 179.338 226.28C178.978 226.547 178.798 226.993 178.798 227.62V228.18H181.278V230.22H178.798V239H176.558ZM188.395 239.24C187.355 239.24 186.401 238.993 185.535 238.5C184.681 238.007 184.001 237.333 183.495 236.48C182.988 235.627 182.735 234.66 182.735 233.58C182.735 232.487 182.988 231.52 183.495 230.68C184.001 229.827 184.681 229.16 185.535 228.68C186.388 228.187 187.341 227.94 188.395 227.94C189.461 227.94 190.415 228.187 191.255 228.68C192.108 229.16 192.781 229.827 193.275 230.68C193.781 231.52 194.035 232.487 194.035 233.58C194.035 234.673 193.781 235.647 193.275 236.5C192.768 237.353 192.088 238.027 191.235 238.52C190.381 239 189.435 239.24 188.395 239.24ZM188.395 237.14C189.035 237.14 189.601 236.987 190.095 236.68C190.588 236.373 190.975 235.953 191.255 235.42C191.548 234.873 191.695 234.26 191.695 233.58C191.695 232.9 191.548 232.293 191.255 231.76C190.975 231.227 190.588 230.807 190.095 230.5C189.601 230.193 189.035 230.04 188.395 230.04C187.768 230.04 187.201 230.193 186.695 230.5C186.201 230.807 185.808 231.227 185.515 231.76C185.235 232.293 185.095 232.9 185.095 233.58C185.095 234.26 185.235 234.873 185.515 235.42C185.808 235.953 186.201 236.373 186.695 236.68C187.201 236.987 187.768 237.14 188.395 237.14ZM196.441 239V228.18H198.601V230.36L198.401 230.04C198.641 229.333 199.028 228.827 199.561 228.52C200.094 228.2 200.734 228.04 201.481 228.04H202.141V230.1H201.201C200.454 230.1 199.848 230.333 199.381 230.8C198.928 231.253 198.701 231.907 198.701 232.76V239H196.441ZM209.027 239.24C207.947 239.24 206.987 238.993 206.147 238.5C205.321 237.993 204.661 237.313 204.167 236.46C203.687 235.607 203.447 234.64 203.447 233.56C203.447 232.493 203.687 231.533 204.167 230.68C204.647 229.827 205.307 229.16 206.147 228.68C206.987 228.187 207.947 227.94 209.027 227.94C209.761 227.94 210.447 228.073 211.087 228.34C211.727 228.593 212.281 228.947 212.747 229.4C213.227 229.853 213.581 230.38 213.807 230.98L211.827 231.9C211.601 231.34 211.234 230.893 210.727 230.56C210.234 230.213 209.667 230.04 209.027 230.04C208.414 230.04 207.861 230.193 207.367 230.5C206.887 230.793 206.507 231.213 206.227 231.76C205.947 232.293 205.807 232.9 205.807 233.58C205.807 234.26 205.947 234.873 206.227 235.42C206.507 235.953 206.887 236.373 207.367 236.68C207.861 236.987 208.414 237.14 209.027 237.14C209.681 237.14 210.247 236.973 210.727 236.64C211.221 236.293 211.587 235.833 211.827 235.26L213.807 236.2C213.594 236.773 213.247 237.293 212.767 237.76C212.301 238.213 211.747 238.573 211.107 238.84C210.467 239.107 209.774 239.24 209.027 239.24ZM221.296 239.24C220.216 239.24 219.256 238.993 218.416 238.5C217.589 237.993 216.943 237.313 216.476 236.46C216.009 235.593 215.776 234.627 215.776 233.56C215.776 232.467 216.009 231.5 216.476 230.66C216.956 229.82 217.596 229.16 218.396 228.68C219.196 228.187 220.103 227.94 221.116 227.94C221.929 227.94 222.656 228.08 223.296 228.36C223.936 228.64 224.476 229.027 224.916 229.52C225.356 230 225.689 230.553 225.916 231.18C226.156 231.807 226.276 232.473 226.276 233.18C226.276 233.353 226.269 233.533 226.256 233.72C226.243 233.907 226.216 234.08 226.176 234.24H217.556V232.44H224.896L223.816 233.26C223.949 232.607 223.903 232.027 223.676 231.52C223.463 231 223.129 230.593 222.676 230.3C222.236 229.993 221.716 229.84 221.116 229.84C220.516 229.84 219.983 229.993 219.516 230.3C219.049 230.593 218.689 231.02 218.436 231.58C218.183 232.127 218.083 232.793 218.136 233.58C218.069 234.313 218.169 234.953 218.436 235.5C218.716 236.047 219.103 236.473 219.596 236.78C220.103 237.087 220.676 237.24 221.316 237.24C221.969 237.24 222.523 237.093 222.976 236.8C223.443 236.507 223.809 236.127 224.076 235.66L225.916 236.56C225.703 237.067 225.369 237.527 224.916 237.94C224.476 238.34 223.943 238.66 223.316 238.9C222.703 239.127 222.029 239.24 221.296 239.24ZM24.54 272V257.1H29.96C30.96 257.1 31.84 257.287 32.6 257.66C33.3733 258.02 33.9733 258.553 34.4 259.26C34.8267 259.953 35.04 260.787 35.04 261.76C35.04 262.72 34.82 263.547 34.38 264.24C33.9533 264.933 33.36 265.467 32.6 265.84C31.84 266.213 30.96 266.4 29.96 266.4H26.9V272H24.54ZM26.9 264.3H30.02C30.5533 264.3 31.02 264.193 31.42 263.98C31.82 263.767 32.1333 263.473 32.36 263.1C32.5867 262.713 32.7 262.26 32.7 261.74C32.7 261.22 32.5867 260.773 32.36 260.4C32.1333 260.013 31.82 259.72 31.42 259.52C31.02 259.307 30.5533 259.2 30.02 259.2H26.9V264.3ZM37.4497 272V261.18H39.6097V263.36L39.4097 263.04C39.6497 262.333 40.0364 261.827 40.5697 261.52C41.103 261.2 41.743 261.04 42.4897 261.04H43.1497V263.1H42.2097C41.463 263.1 40.8564 263.333 40.3897 263.8C39.9364 264.253 39.7097 264.907 39.7097 265.76V272H37.4497ZM50.1158 272.24C49.0758 272.24 48.1224 271.993 47.2558 271.5C46.4024 271.007 45.7224 270.333 45.2158 269.48C44.7091 268.627 44.4558 267.66 44.4558 266.58C44.4558 265.487 44.7091 264.52 45.2158 263.68C45.7224 262.827 46.4024 262.16 47.2558 261.68C48.1091 261.187 49.0624 260.94 50.1158 260.94C51.1824 260.94 52.1358 261.187 52.9758 261.68C53.8291 262.16 54.5024 262.827 54.9958 263.68C55.5024 264.52 55.7558 265.487 55.7558 266.58C55.7558 267.673 55.5024 268.647 54.9958 269.5C54.4891 270.353 53.8091 271.027 52.9558 271.52C52.1024 272 51.1558 272.24 50.1158 272.24ZM50.1158 270.14C50.7558 270.14 51.3224 269.987 51.8158 269.68C52.3091 269.373 52.6958 268.953 52.9758 268.42C53.2691 267.873 53.4158 267.26 53.4158 266.58C53.4158 265.9 53.2691 265.293 52.9758 264.76C52.6958 264.227 52.3091 263.807 51.8158 263.5C51.3224 263.193 50.7558 263.04 50.1158 263.04C49.4891 263.04 48.9224 263.193 48.4158 263.5C47.9224 263.807 47.5291 264.227 47.2358 264.76C46.9558 265.293 46.8158 265.9 46.8158 266.58C46.8158 267.26 46.9558 267.873 47.2358 268.42C47.5291 268.953 47.9224 269.373 48.4158 269.68C48.9224 269.987 49.4891 270.14 50.1158 270.14ZM63.1622 272.24C62.1222 272.24 61.1889 271.993 60.3622 271.5C59.5489 270.993 58.9022 270.313 58.4222 269.46C57.9555 268.607 57.7222 267.647 57.7222 266.58C57.7222 265.513 57.9622 264.553 58.4422 263.7C58.9222 262.847 59.5689 262.173 60.3822 261.68C61.1955 261.187 62.1155 260.94 63.1422 260.94C64.0089 260.94 64.7755 261.113 65.4422 261.46C66.1089 261.807 66.6355 262.287 67.0222 262.9L66.6822 263.42V256.86H68.9222V272H66.7822V269.8L67.0422 270.22C66.6689 270.873 66.1355 271.373 65.4422 271.72C64.7489 272.067 63.9889 272.24 63.1622 272.24ZM63.3822 270.14C64.0089 270.14 64.5689 269.987 65.0622 269.68C65.5689 269.373 65.9622 268.953 66.2422 268.42C66.5355 267.873 66.6822 267.26 66.6822 266.58C66.6822 265.9 66.5355 265.293 66.2422 264.76C65.9622 264.227 65.5689 263.807 65.0622 263.5C64.5689 263.193 64.0089 263.04 63.3822 263.04C62.7555 263.04 62.1889 263.193 61.6822 263.5C61.1755 263.807 60.7822 264.227 60.5022 264.76C60.2222 265.293 60.0822 265.9 60.0822 266.58C60.0822 267.26 60.2222 267.873 60.5022 268.42C60.7822 268.953 61.1689 269.373 61.6622 269.68C62.1689 269.987 62.7422 270.14 63.3822 270.14ZM75.6206 272.24C74.8073 272.24 74.094 272.06 73.4806 271.7C72.8673 271.327 72.3873 270.813 72.0406 270.16C71.7073 269.493 71.5406 268.727 71.5406 267.86V261.18H73.8006V267.66C73.8006 268.153 73.9006 268.587 74.1006 268.96C74.3006 269.333 74.5806 269.627 74.9406 269.84C75.3006 270.04 75.714 270.14 76.1806 270.14C76.6606 270.14 77.0806 270.033 77.4406 269.82C77.8006 269.607 78.0806 269.307 78.2806 268.92C78.494 268.533 78.6006 268.08 78.6006 267.56V261.18H80.8406V272H78.7006V269.88L78.9406 270.16C78.6873 270.827 78.2673 271.34 77.6806 271.7C77.094 272.06 76.4073 272.24 75.6206 272.24ZM88.8194 272.24C87.7394 272.24 86.7794 271.993 85.9394 271.5C85.1127 270.993 84.4527 270.313 83.9594 269.46C83.4794 268.607 83.2394 267.64 83.2394 266.56C83.2394 265.493 83.4794 264.533 83.9594 263.68C84.4394 262.827 85.0994 262.16 85.9394 261.68C86.7794 261.187 87.7394 260.94 88.8194 260.94C89.5527 260.94 90.2394 261.073 90.8794 261.34C91.5194 261.593 92.0727 261.947 92.5394 262.4C93.0194 262.853 93.3727 263.38 93.5994 263.98L91.6194 264.9C91.3927 264.34 91.026 263.893 90.5194 263.56C90.026 263.213 89.4594 263.04 88.8194 263.04C88.206 263.04 87.6527 263.193 87.1594 263.5C86.6794 263.793 86.2994 264.213 86.0194 264.76C85.7394 265.293 85.5994 265.9 85.5994 266.58C85.5994 267.26 85.7394 267.873 86.0194 268.42C86.2994 268.953 86.6794 269.373 87.1594 269.68C87.6527 269.987 88.206 270.14 88.8194 270.14C89.4727 270.14 90.0394 269.973 90.5194 269.64C91.0127 269.293 91.3794 268.833 91.6194 268.26L93.5994 269.2C93.386 269.773 93.0394 270.293 92.5594 270.76C92.0927 271.213 91.5394 271.573 90.8994 271.84C90.2594 272.107 89.566 272.24 88.8194 272.24ZM100.688 272.12C99.5549 272.12 98.6749 271.8 98.0483 271.16C97.4216 270.52 97.1083 269.62 97.1083 268.46V263.22H95.2083V261.18H95.5083C96.0149 261.18 96.4083 261.033 96.6883 260.74C96.9683 260.447 97.1083 260.047 97.1083 259.54V258.7H99.3683V261.18H101.828V263.22H99.3683V268.36C99.3683 268.733 99.4283 269.053 99.5483 269.32C99.6683 269.573 99.8616 269.773 100.128 269.92C100.395 270.053 100.742 270.12 101.168 270.12C101.275 270.12 101.395 270.113 101.528 270.1C101.662 270.087 101.788 270.073 101.908 270.06V272C101.722 272.027 101.515 272.053 101.288 272.08C101.062 272.107 100.862 272.12 100.688 272.12ZM104.314 272V261.18H106.574V272H104.314ZM104.314 259.7V257.1H106.574V259.7H104.314ZM112.556 272L108.316 261.18H110.776L114.036 270H113.136L116.396 261.18H118.876L114.616 272H112.556ZM120.612 272V261.18H122.872V272H120.612ZM120.612 259.7V257.1H122.872V259.7H120.612ZM130.395 272.12C129.261 272.12 128.381 271.8 127.755 271.16C127.128 270.52 126.815 269.62 126.815 268.46V263.22H124.915V261.18H125.215C125.721 261.18 126.115 261.033 126.395 260.74C126.675 260.447 126.815 260.047 126.815 259.54V258.7H129.075V261.18H131.535V263.22H129.075V268.36C129.075 268.733 129.135 269.053 129.255 269.32C129.375 269.573 129.568 269.773 129.835 269.92C130.101 270.053 130.448 270.12 130.875 270.12C130.981 270.12 131.101 270.113 131.235 270.1C131.368 270.087 131.495 270.073 131.615 270.06V272C131.428 272.027 131.221 272.053 130.995 272.08C130.768 272.107 130.568 272.12 130.395 272.12ZM134.98 276.4C134.713 276.4 134.447 276.373 134.18 276.32C133.927 276.28 133.693 276.213 133.48 276.12V274.18C133.64 274.22 133.833 274.253 134.06 274.28C134.287 274.32 134.507 274.34 134.72 274.34C135.347 274.34 135.807 274.2 136.1 273.92C136.407 273.653 136.68 273.24 136.92 272.68L137.64 271.04L137.6 272.94L132.92 261.18H135.34L138.8 270.2H137.98L141.42 261.18H143.86L139.08 273.18C138.827 273.82 138.507 274.38 138.12 274.86C137.747 275.353 137.3 275.733 136.78 276C136.273 276.267 135.673 276.4 134.98 276.4Z" fill="white"/>
<g clip-path="url(#clip0_2305_3961)">
<path fill-rule="evenodd" clip-rule="evenodd" d="M108.867 84.9139L103.461 79.5077L104.723 78.246L110.129 83.6522L108.867 84.9139ZM87.8671 93.2186H35.8871V52.4846C35.8871 51.6213 36.5902 50.9182 37.4535 50.9182H67.7035C63.6449 58.5901 64.8402 68.3322 71.2894 74.7812C75.7816 79.2734 81.9024 81.246 87.8714 80.5937L87.8671 93.2186ZM55.4141 95.9413H68.3441L67.9417 97.1796H55.8207L55.4141 95.9413ZM92.2731 101.144C95.0153 101.144 97.3083 98.91 97.8551 95.9413H71.2071L70.2227 98.9647C70.0391 99.5272 69.5157 99.9061 68.9258 99.9061L54.8238 99.9022C54.2339 99.9022 53.7105 99.5233 53.5269 98.9608L52.5425 95.9374L25.8975 95.9413C26.4444 98.9101 28.7413 101.144 31.4795 101.144H92.2731ZM73.2141 47.9964C66.343 54.8636 66.343 65.9884 73.2141 72.8554C80.0696 79.7109 91.2221 79.7109 98.0771 72.8554C104.932 65.9999 104.933 54.8474 98.0771 47.9964C91.206 41.1292 80.0811 41.1292 73.2141 47.9964ZM112.222 81.8914L106.484 76.1531C105.57 75.239 104.113 75.1882 103.136 75.9968L100.933 73.7898C107.906 65.825 107.593 53.6648 100.003 46.0708C91.3119 37.3794 76.9093 38.3481 69.4373 48.1958H37.4493C35.086 48.1958 33.1602 50.1216 33.1602 52.4849V93.2149L24.4102 93.2188C23.6563 93.2188 23.0469 93.8282 23.0469 94.5821C23.0469 99.7032 26.8281 103.871 31.4766 103.871L92.2736 103.867C96.9259 103.867 100.703 99.6993 100.703 94.5782C100.703 93.8243 100.094 93.2149 99.34 93.2149H90.59L90.5939 80.1129C93.6291 79.3551 96.5236 77.8902 99.008 75.7145L101.211 77.9215C100.402 78.8981 100.453 80.3551 101.371 81.2692L107.11 87.0075C108.082 87.9802 109.656 87.9802 110.629 87.0075L112.223 85.4137C113.192 84.4372 113.192 82.859 112.223 81.8903L112.222 81.8914ZM85.6441 47.9814C78.7847 47.9814 73.1991 53.5634 73.1991 60.4264C73.1991 63.9772 74.6952 67.1803 77.0858 69.4498V67.4928C77.0858 64.2155 78.9413 61.3639 81.6522 59.9264C80.7342 58.9459 80.1678 57.6334 80.1678 56.1881C80.1678 53.1725 82.6248 50.7154 85.6405 50.7154C88.66 50.7154 91.1132 53.1724 91.1132 56.1881C91.1132 57.6334 90.5468 58.9498 89.6288 59.9264C92.3436 61.3639 94.1952 64.2155 94.1952 67.4928V69.4498C96.5897 67.1803 98.0858 63.9771 98.0858 60.4264C98.0897 53.567 92.507 47.9814 85.6441 47.9814ZM82.8941 56.1884C82.8941 57.704 84.1285 58.9384 85.6402 58.9384C87.1558 58.9384 88.3902 57.704 88.3902 56.1884C88.3902 54.6728 87.1558 53.4423 85.6402 53.4423C84.1285 53.4423 82.8941 54.6767 82.8941 56.1884ZM79.8121 71.4184C83.4488 73.3598 87.8394 73.3598 91.4761 71.4184V67.4965C91.4761 64.2777 88.8589 61.6645 85.6441 61.6645C82.4293 61.6645 79.8121 64.2817 79.8121 67.4965V71.4184ZM85.6441 75.5981C94.0074 75.5981 100.816 68.7934 100.816 60.4301C100.816 52.0668 94.0114 45.2581 85.6441 45.2581C77.2808 45.2581 70.4761 52.0628 70.4761 60.4301C70.4761 68.7934 77.2808 75.5981 85.6441 75.5981ZM50.7221 87.1021V85.8209C50.7221 83.5553 48.8783 81.7115 46.6127 81.7115C44.3471 81.7115 42.5033 83.5553 42.5033 85.8209V87.1021H50.7221ZM44.8471 77.2271C44.8471 78.1997 45.64 78.9888 46.6127 78.9888C47.5853 78.9888 48.3783 78.1997 48.3783 77.2271C48.3783 76.2544 47.5853 75.4654 46.6127 75.4654C45.64 75.4654 44.8471 76.2544 44.8471 77.2271ZM50.1518 79.981C52.433 77.0591 50.3471 72.7388 46.6127 72.7388C42.8783 72.7388 40.7924 77.0552 43.0736 79.981C41.1009 81.1802 39.7806 83.3482 39.7806 85.8208V88.4614C39.7806 89.2153 40.3899 89.8247 41.1439 89.8247H52.0849C52.8388 89.8247 53.4482 89.2153 53.4482 88.4614L53.4443 85.8208C53.4443 83.3481 52.1245 81.1802 50.1518 79.981ZM55.4799 59.856C55.4799 60.606 56.0892 61.2193 56.8432 61.2193H61.1362C61.8862 61.2193 62.4956 60.6099 62.4956 59.856C62.4956 59.1021 61.8862 58.4927 61.1362 58.4927H56.8432C56.0893 58.4927 55.4799 59.1059 55.4799 59.856ZM55.4799 65.1099C55.4799 65.8599 56.0892 66.4732 56.8432 66.4732H62.1752C62.9291 66.4732 63.5385 65.8638 63.5385 65.1099C63.5385 64.3599 62.9291 63.7466 62.1752 63.7466H56.8432C56.0893 63.7466 55.4799 64.3598 55.4799 65.1099ZM55.4799 78.6569C55.4799 79.4108 56.0892 80.0202 56.8432 80.0202H71.0072C71.7572 80.0202 72.3705 79.4108 72.3705 78.6569C72.3705 77.9069 71.7611 77.2936 71.0072 77.2936H56.8392C56.0892 77.2936 55.4799 77.9029 55.4799 78.6569ZM84.1949 83.9108C84.1949 83.1569 83.5855 82.5475 82.8316 82.5475H56.8396C56.0857 82.5475 55.4763 83.1568 55.4763 83.9108C55.4763 84.6647 56.0856 85.2702 56.8396 85.2702H82.8316C83.5855 85.2702 84.1949 84.6647 84.1949 83.9108ZM50.7219 68.3058V67.0246C50.7219 64.759 48.8781 62.9191 46.6164 62.9152C44.3469 62.9152 42.507 64.755 42.507 67.0246V68.3058H50.7219ZM44.8469 58.4269C44.8469 59.3995 45.6359 60.1886 46.6086 60.1925C47.5812 60.1925 48.3742 59.4034 48.3742 58.4269C48.3742 57.4542 47.5812 56.6652 46.6086 56.6652C45.6398 56.6652 44.8469 57.4542 44.8469 58.4269ZM50.1516 61.1808C52.4368 58.255 50.343 53.9386 46.6125 53.9386C42.882 53.9386 40.7883 58.255 43.0734 61.1808C41.1007 62.3839 39.7804 64.548 39.7804 67.0246V69.6691C39.7804 70.4191 40.3897 71.0324 41.1437 71.0324H52.0847C52.8386 71.0324 53.448 70.423 53.448 69.6691V67.0246C53.4441 64.548 52.1243 62.3801 50.1516 61.1808Z" fill="white"/>
</g>
<defs>
<linearGradient id="paint0_linear_2305_3961" x1="-2.00001" y1="314" x2="321.5" y2="-9.49999" gradientUnits="userSpaceOnUse">
<stop stop-color="#11296A"/>
<stop offset="1" stop-color="#2150D0"/>
</linearGradient>
<linearGradient id="paint1_linear_2305_3961" x1="-2.00001" y1="314" x2="321.5" y2="-9.49999" gradientUnits="userSpaceOnUse">
<stop stop-color="#11296A"/>
<stop offset="1" stop-color="#2150D0"/>
</linearGradient>
<linearGradient id="paint2_linear_2305_3961" x1="367.787" y1="-128" x2="367.787" y2="216.727" gradientUnits="userSpaceOnUse">
<stop stop-color="white"/>
<stop offset="1" stop-color="white" stop-opacity="0"/>
</linearGradient>
<linearGradient id="paint3_linear_2305_3961" x1="465.787" y1="-128" x2="465.787" y2="216.727" gradientUnits="userSpaceOnUse">
<stop stop-color="white"/>
<stop offset="1" stop-color="white" stop-opacity="0"/>
</linearGradient>
<clipPath id="clip0_2305_3961">
<rect width="89.9025" height="63.7384" fill="white" transform="translate(23.0469 40.1328)"/>
</clipPath>
</defs>
</svg>
