<svg width="72" height="69" viewBox="0 0 72 69" fill="none" xmlns="http://www.w3.org/2000/svg">
<g clip-path="url(#clip0_2313_5934)">
<path d="M70.1709 0H19.1822C18.3956 0 17.7585 0.640383 17.7585 1.43102V32.9382H1.82797C1.04139 32.9382 0.404297 33.5786 0.404297 34.3692V67.569C0.404297 67.9482 0.55378 68.3131 0.820719 68.5814C1.08766 68.8498 1.4507 69 1.82799 69H34.8817C35.259 69 35.6185 68.8497 35.8854 68.5814C36.1524 68.3131 36.3054 67.9482 36.3054 67.569V54.1141H70.1746H70.1711C70.5483 54.1141 70.9114 53.9639 71.1784 53.6956C71.4453 53.4272 71.5948 53.0623 71.5948 52.6831V1.43099C71.5948 1.05178 71.4453 0.686863 71.1784 0.418518C70.9114 0.1502 70.5482 0 70.1709 0ZM33.458 66.1421H3.25164V35.8044H33.458V66.1421ZM68.7505 51.2558L36.3054 51.2522V34.3657C36.3054 33.9865 36.1523 33.6251 35.8854 33.3568C35.6184 33.0884 35.259 32.9346 34.8817 32.9346H20.6058V2.86164H68.7472L68.7505 51.2558ZM42.7681 27.6908L42.7646 27.6873C42.2236 27.1149 42.2485 26.2097 42.818 25.666L57.2114 11.9282H47.4703C46.6837 11.9282 46.0466 11.2878 46.0466 10.4971C46.0466 9.70651 46.6837 9.06612 47.4703 9.06612H60.6109C60.7746 9.06612 60.9348 9.09474 61.0878 9.14841H61.0914C61.2871 9.21996 61.4615 9.33443 61.611 9.48112C61.7534 9.6278 61.8601 9.8031 61.9313 9.99629V9.99986C61.9883 10.1537 62.0132 10.3183 62.0132 10.4828V10.6116V10.6867L61.974 23.3658C61.974 24.1529 61.3369 24.7933 60.5504 24.7933H60.5468C60.1695 24.7897 59.8065 24.6394 59.5431 24.3711C59.2762 24.1028 59.1267 23.7379 59.1267 23.3586L59.1551 13.9895L44.7617 27.7273C44.1923 28.2711 43.2918 28.246 42.7508 27.6736L42.7681 27.6908Z" fill="#3564DF"/>
</g>
<defs>
<clipPath id="clip0_2313_5934">
<rect width="71.1905" height="69" fill="white" transform="translate(0.404297)"/>
</clipPath>
</defs>
</svg>
