<svg width="285" height="300" viewBox="0 0 285 300" fill="none" xmlns="http://www.w3.org/2000/svg">
<rect width="285" height="300" rx="10" transform="matrix(1 0 0 -1 0 300)" fill="url(#paint0_linear_2388_12387)"/>
<mask id="mask0_2388_12387" style="mask-type:alpha" maskUnits="userSpaceOnUse" x="0" y="0" width="285" height="300">
<rect width="285" height="300" rx="10" transform="matrix(1 0 0 -1 0 300)" fill="url(#paint1_linear_2388_12387)"/>
</mask>
<g mask="url(#mask0_2388_12387)">
<rect x="338.605" y="-128" width="58.3621" height="344.727" rx="29.1811" transform="rotate(43.8011 338.605 -128)" fill="url(#paint2_linear_2388_12387)" fill-opacity="0.24"/>
<rect x="436.605" y="-128" width="58.3621" height="344.727" rx="29.1811" transform="rotate(43.8011 436.605 -128)" fill="url(#paint3_linear_2388_12387)" fill-opacity="0.24"/>
</g>
<path d="M27.18 239V226.2H23.22V224.1H33.42V226.2H29.52V239H27.18ZM33.7731 239V228.18H35.9331V230.36L35.7331 230.04C35.9731 229.333 36.3598 228.827 36.8931 228.52C37.4265 228.2 38.0665 228.04 38.8131 228.04H39.4731V230.1H38.5331C37.7865 230.1 37.1798 230.333 36.7131 230.8C36.2598 231.253 36.0331 231.907 36.0331 232.76V239H33.7731ZM44.2592 239.24C43.5259 239.24 42.8792 239.113 42.3192 238.86C41.7726 238.593 41.3459 238.233 41.0392 237.78C40.7326 237.313 40.5792 236.767 40.5792 236.14C40.5792 235.553 40.7059 235.027 40.9592 234.56C41.2259 234.093 41.6326 233.7 42.1792 233.38C42.7259 233.06 43.4126 232.833 44.2392 232.7L47.9992 232.08V233.86L44.6792 234.44C44.0792 234.547 43.6392 234.74 43.3592 235.02C43.0792 235.287 42.9392 235.633 42.9392 236.06C42.9392 236.473 43.0926 236.813 43.3992 237.08C43.7192 237.333 44.1259 237.46 44.6192 237.46C45.2326 237.46 45.7659 237.327 46.2192 237.06C46.6859 236.793 47.0459 236.44 47.2992 236C47.5526 235.547 47.6792 235.047 47.6792 234.5V231.72C47.6792 231.187 47.4792 230.753 47.0792 230.42C46.6926 230.073 46.1726 229.9 45.5192 229.9C44.9192 229.9 44.3926 230.06 43.9392 230.38C43.4992 230.687 43.1726 231.087 42.9592 231.58L41.0792 230.64C41.2792 230.107 41.6059 229.64 42.0592 229.24C42.5126 228.827 43.0392 228.507 43.6392 228.28C44.2526 228.053 44.8992 227.94 45.5792 227.94C46.4326 227.94 47.1859 228.1 47.8392 228.42C48.5059 228.74 49.0192 229.187 49.3792 229.76C49.7526 230.32 49.9392 230.973 49.9392 231.72V239H47.7792V237.04L48.2392 237.1C47.9859 237.54 47.6592 237.92 47.2592 238.24C46.8726 238.56 46.4259 238.807 45.9192 238.98C45.4259 239.153 44.8726 239.24 44.2592 239.24ZM52.5817 239V228.18H54.7417V230.3L54.4817 230.02C54.7484 229.34 55.1751 228.827 55.7617 228.48C56.3484 228.12 57.0284 227.94 57.8017 227.94C58.6017 227.94 59.3084 228.113 59.9217 228.46C60.5351 228.807 61.0151 229.287 61.3617 229.9C61.7084 230.513 61.8817 231.22 61.8817 232.02V239H59.6417V232.62C59.6417 232.073 59.5417 231.613 59.3417 231.24C59.1417 230.853 58.8551 230.56 58.4817 230.36C58.1217 230.147 57.7084 230.04 57.2417 230.04C56.7751 230.04 56.3551 230.147 55.9817 230.36C55.6217 230.56 55.3417 230.853 55.1417 231.24C54.9417 231.627 54.8417 232.087 54.8417 232.62V239H52.5817ZM68.3005 239.24C67.1938 239.24 66.2205 238.967 65.3805 238.42C64.5538 237.873 63.9738 237.14 63.6405 236.22L65.3805 235.4C65.6738 236.013 66.0738 236.5 66.5805 236.86C67.1005 237.22 67.6738 237.4 68.3005 237.4C68.8338 237.4 69.2671 237.28 69.6005 237.04C69.9338 236.8 70.1005 236.473 70.1005 236.06C70.1005 235.793 70.0271 235.58 69.8805 235.42C69.7338 235.247 69.5471 235.107 69.3205 235C69.1071 234.893 68.8871 234.813 68.6605 234.76L66.9605 234.28C66.0271 234.013 65.3271 233.613 64.8605 233.08C64.4071 232.533 64.1805 231.9 64.1805 231.18C64.1805 230.527 64.3471 229.96 64.6805 229.48C65.0138 228.987 65.4738 228.607 66.0605 228.34C66.6471 228.073 67.3071 227.94 68.0405 227.94C69.0271 227.94 69.9071 228.187 70.6805 228.68C71.4538 229.16 72.0005 229.833 72.3205 230.7L70.5805 231.52C70.3671 231 70.0271 230.587 69.5605 230.28C69.1071 229.973 68.5938 229.82 68.0205 229.82C67.5271 229.82 67.1338 229.94 66.8405 230.18C66.5471 230.407 66.4005 230.707 66.4005 231.08C66.4005 231.333 66.4671 231.547 66.6005 231.72C66.7338 231.88 66.9071 232.013 67.1205 232.12C67.3338 232.213 67.5538 232.293 67.7805 232.36L69.5405 232.88C70.4338 233.133 71.1205 233.533 71.6005 234.08C72.0805 234.613 72.3205 235.253 72.3205 236C72.3205 236.64 72.1471 237.207 71.8005 237.7C71.4671 238.18 71.0005 238.56 70.4005 238.84C69.8005 239.107 69.1005 239.24 68.3005 239.24ZM75.7548 239V230.22H73.7548V228.18H75.7548V227.62C75.7548 226.807 75.9215 226.127 76.2548 225.58C76.5882 225.02 77.0482 224.593 77.6348 224.3C78.2348 224.007 78.9215 223.86 79.6948 223.86C79.8415 223.86 80.0082 223.873 80.1948 223.9C80.3815 223.913 80.5348 223.933 80.6548 223.96V225.92C80.5482 225.893 80.4282 225.88 80.2948 225.88C80.1615 225.867 80.0548 225.86 79.9748 225.86C79.3748 225.86 78.8948 226 78.5348 226.28C78.1748 226.547 77.9948 226.993 77.9948 227.62V228.18H80.4748V230.22H77.9948V239H75.7548ZM87.3916 239.24C86.3516 239.24 85.3982 238.993 84.5316 238.5C83.6782 238.007 82.9982 237.333 82.4916 236.48C81.9849 235.627 81.7316 234.66 81.7316 233.58C81.7316 232.487 81.9849 231.52 82.4916 230.68C82.9982 229.827 83.6782 229.16 84.5316 228.68C85.3849 228.187 86.3382 227.94 87.3916 227.94C88.4582 227.94 89.4116 228.187 90.2516 228.68C91.1049 229.16 91.7782 229.827 92.2716 230.68C92.7782 231.52 93.0316 232.487 93.0316 233.58C93.0316 234.673 92.7782 235.647 92.2716 236.5C91.7649 237.353 91.0849 238.027 90.2316 238.52C89.3782 239 88.4316 239.24 87.3916 239.24ZM87.3916 237.14C88.0316 237.14 88.5982 236.987 89.0916 236.68C89.5849 236.373 89.9716 235.953 90.2516 235.42C90.5449 234.873 90.6916 234.26 90.6916 233.58C90.6916 232.9 90.5449 232.293 90.2516 231.76C89.9716 231.227 89.5849 230.807 89.0916 230.5C88.5982 230.193 88.0316 230.04 87.3916 230.04C86.7649 230.04 86.1982 230.193 85.6916 230.5C85.1982 230.807 84.8049 231.227 84.5116 231.76C84.2316 232.293 84.0916 232.9 84.0916 233.58C84.0916 234.26 84.2316 234.873 84.5116 235.42C84.8049 235.953 85.1982 236.373 85.6916 236.68C86.1982 236.987 86.7649 237.14 87.3916 237.14ZM95.238 239V228.18H97.398V230.36L97.198 230.04C97.438 229.333 97.8246 228.827 98.358 228.52C98.8913 228.2 99.5313 228.04 100.278 228.04H100.938V230.1H99.998C99.2513 230.1 98.6446 230.333 98.178 230.8C97.7246 231.253 97.498 231.907 97.498 232.76V239H95.238ZM102.484 239V228.18H104.644V230.52L104.364 230.16C104.591 229.427 105.004 228.873 105.604 228.5C106.204 228.127 106.891 227.94 107.664 227.94C108.531 227.94 109.297 228.173 109.964 228.64C110.644 229.093 111.097 229.7 111.324 230.46L110.684 230.52C111.004 229.653 111.491 229.007 112.144 228.58C112.811 228.153 113.571 227.94 114.424 227.94C115.171 227.94 115.844 228.113 116.444 228.46C117.057 228.807 117.544 229.287 117.904 229.9C118.264 230.513 118.444 231.213 118.444 232V239H116.184V232.62C116.184 232.073 116.084 231.613 115.884 231.24C115.697 230.853 115.431 230.56 115.084 230.36C114.751 230.147 114.357 230.04 113.904 230.04C113.451 230.04 113.051 230.147 112.704 230.36C112.357 230.56 112.084 230.853 111.884 231.24C111.684 231.627 111.584 232.087 111.584 232.62V239H109.344V232.62C109.344 232.073 109.244 231.613 109.044 231.24C108.857 230.853 108.591 230.56 108.244 230.36C107.911 230.147 107.511 230.04 107.044 230.04C106.591 230.04 106.191 230.147 105.844 230.36C105.497 230.56 105.224 230.853 105.024 231.24C104.837 231.627 104.744 232.087 104.744 232.62V239H102.484ZM128.539 239L123.259 224.1H125.799L130.119 236.82H129.619L133.919 224.1H136.459L131.179 239H128.539ZM137.992 239V228.18H140.252V239H137.992ZM137.992 226.7V224.1H140.252V226.7H137.992ZM146.894 239.24C145.788 239.24 144.814 238.967 143.974 238.42C143.148 237.873 142.568 237.14 142.234 236.22L143.974 235.4C144.268 236.013 144.668 236.5 145.174 236.86C145.694 237.22 146.268 237.4 146.894 237.4C147.428 237.4 147.861 237.28 148.194 237.04C148.528 236.8 148.694 236.473 148.694 236.06C148.694 235.793 148.621 235.58 148.474 235.42C148.328 235.247 148.141 235.107 147.914 235C147.701 234.893 147.481 234.813 147.254 234.76L145.554 234.28C144.621 234.013 143.921 233.613 143.454 233.08C143.001 232.533 142.774 231.9 142.774 231.18C142.774 230.527 142.941 229.96 143.274 229.48C143.608 228.987 144.068 228.607 144.654 228.34C145.241 228.073 145.901 227.94 146.634 227.94C147.621 227.94 148.501 228.187 149.274 228.68C150.048 229.16 150.594 229.833 150.914 230.7L149.174 231.52C148.961 231 148.621 230.587 148.154 230.28C147.701 229.973 147.188 229.82 146.614 229.82C146.121 229.82 145.728 229.94 145.434 230.18C145.141 230.407 144.994 230.707 144.994 231.08C144.994 231.333 145.061 231.547 145.194 231.72C145.328 231.88 145.501 232.013 145.714 232.12C145.928 232.213 146.148 232.293 146.374 232.36L148.134 232.88C149.028 233.133 149.714 233.533 150.194 234.08C150.674 234.613 150.914 235.253 150.914 236C150.914 236.64 150.741 237.207 150.394 237.7C150.061 238.18 149.594 238.56 148.994 238.84C148.394 239.107 147.694 239.24 146.894 239.24ZM153.129 239V228.18H155.389V239H153.129ZM153.129 226.7V224.1H155.389V226.7H153.129ZM163.251 239.24C162.211 239.24 161.258 238.993 160.391 238.5C159.538 238.007 158.858 237.333 158.351 236.48C157.844 235.627 157.591 234.66 157.591 233.58C157.591 232.487 157.844 231.52 158.351 230.68C158.858 229.827 159.538 229.16 160.391 228.68C161.244 228.187 162.198 227.94 163.251 227.94C164.318 227.94 165.271 228.187 166.111 228.68C166.964 229.16 167.638 229.827 168.131 230.68C168.638 231.52 168.891 232.487 168.891 233.58C168.891 234.673 168.638 235.647 168.131 236.5C167.624 237.353 166.944 238.027 166.091 238.52C165.238 239 164.291 239.24 163.251 239.24ZM163.251 237.14C163.891 237.14 164.458 236.987 164.951 236.68C165.444 236.373 165.831 235.953 166.111 235.42C166.404 234.873 166.551 234.26 166.551 233.58C166.551 232.9 166.404 232.293 166.111 231.76C165.831 231.227 165.444 230.807 164.951 230.5C164.458 230.193 163.891 230.04 163.251 230.04C162.624 230.04 162.058 230.193 161.551 230.5C161.058 230.807 160.664 231.227 160.371 231.76C160.091 232.293 159.951 232.9 159.951 233.58C159.951 234.26 160.091 234.873 160.371 235.42C160.664 235.953 161.058 236.373 161.551 236.68C162.058 236.987 162.624 237.14 163.251 237.14ZM171.097 239V228.18H173.257V230.3L172.997 230.02C173.264 229.34 173.691 228.827 174.277 228.48C174.864 228.12 175.544 227.94 176.317 227.94C177.117 227.94 177.824 228.113 178.437 228.46C179.051 228.807 179.531 229.287 179.877 229.9C180.224 230.513 180.397 231.22 180.397 232.02V239H178.157V232.62C178.157 232.073 178.057 231.613 177.857 231.24C177.657 230.853 177.371 230.56 176.997 230.36C176.637 230.147 176.224 230.04 175.757 230.04C175.291 230.04 174.871 230.147 174.497 230.36C174.137 230.56 173.857 230.853 173.657 231.24C173.457 231.627 173.357 232.087 173.357 232.62V239H171.097ZM186.312 239V228.18H188.572V239H186.312ZM186.312 226.7V224.1H188.572V226.7H186.312ZM191.215 239V228.18H193.375V230.3L193.115 230.02C193.381 229.34 193.808 228.827 194.395 228.48C194.981 228.12 195.661 227.94 196.435 227.94C197.235 227.94 197.941 228.113 198.555 228.46C199.168 228.807 199.648 229.287 199.995 229.9C200.341 230.513 200.515 231.22 200.515 232.02V239H198.275V232.62C198.275 232.073 198.175 231.613 197.975 231.24C197.775 230.853 197.488 230.56 197.115 230.36C196.755 230.147 196.341 230.04 195.875 230.04C195.408 230.04 194.988 230.147 194.615 230.36C194.255 230.56 193.975 230.853 193.775 231.24C193.575 231.627 193.475 232.087 193.475 232.62V239H191.215ZM207.613 239.12C206.48 239.12 205.6 238.8 204.973 238.16C204.347 237.52 204.033 236.62 204.033 235.46V230.22H202.133V228.18H202.433C202.94 228.18 203.333 228.033 203.613 227.74C203.893 227.447 204.033 227.047 204.033 226.54V225.7H206.293V228.18H208.753V230.22H206.293V235.36C206.293 235.733 206.353 236.053 206.473 236.32C206.593 236.573 206.787 236.773 207.053 236.92C207.32 237.053 207.667 237.12 208.093 237.12C208.2 237.12 208.32 237.113 208.453 237.1C208.587 237.087 208.713 237.073 208.833 237.06V239C208.647 239.027 208.44 239.053 208.213 239.08C207.987 239.107 207.787 239.12 207.613 239.12ZM216.063 239.24C215.023 239.24 214.07 238.993 213.203 238.5C212.35 238.007 211.67 237.333 211.163 236.48C210.657 235.627 210.403 234.66 210.403 233.58C210.403 232.487 210.657 231.52 211.163 230.68C211.67 229.827 212.35 229.16 213.203 228.68C214.057 228.187 215.01 227.94 216.063 227.94C217.13 227.94 218.083 228.187 218.923 228.68C219.777 229.16 220.45 229.827 220.943 230.68C221.45 231.52 221.703 232.487 221.703 233.58C221.703 234.673 221.45 235.647 220.943 236.5C220.437 237.353 219.757 238.027 218.903 238.52C218.05 239 217.103 239.24 216.063 239.24ZM216.063 237.14C216.703 237.14 217.27 236.987 217.763 236.68C218.257 236.373 218.643 235.953 218.923 235.42C219.217 234.873 219.363 234.26 219.363 233.58C219.363 232.9 219.217 232.293 218.923 231.76C218.643 231.227 218.257 230.807 217.763 230.5C217.27 230.193 216.703 230.04 216.063 230.04C215.437 230.04 214.87 230.193 214.363 230.5C213.87 230.807 213.477 231.227 213.183 231.76C212.903 232.293 212.763 232.9 212.763 233.58C212.763 234.26 212.903 234.873 213.183 235.42C213.477 235.953 213.87 236.373 214.363 236.68C214.87 236.987 215.437 237.14 216.063 237.14ZM24.54 272V257.1H29.96C30.96 257.1 31.84 257.287 32.6 257.66C33.36 258.02 33.9533 258.553 34.38 259.26C34.82 259.953 35.04 260.787 35.04 261.76C35.04 262.787 34.78 263.667 34.26 264.4C33.7533 265.133 33.0667 265.667 32.2 266L35.64 272H32.96L29.3 265.5L30.84 266.4H26.9V272H24.54ZM26.9 264.3H30C30.5467 264.3 31.02 264.193 31.42 263.98C31.82 263.767 32.1267 263.473 32.34 263.1C32.5667 262.713 32.68 262.26 32.68 261.74C32.68 261.22 32.5667 260.773 32.34 260.4C32.1267 260.013 31.82 259.72 31.42 259.52C31.02 259.307 30.5467 259.2 30 259.2H26.9V264.3ZM41.8805 272.24C40.8005 272.24 39.8405 271.993 39.0005 271.5C38.1738 270.993 37.5271 270.313 37.0605 269.46C36.5938 268.593 36.3605 267.627 36.3605 266.56C36.3605 265.467 36.5938 264.5 37.0605 263.66C37.5405 262.82 38.1805 262.16 38.9805 261.68C39.7805 261.187 40.6871 260.94 41.7005 260.94C42.5138 260.94 43.2405 261.08 43.8805 261.36C44.5205 261.64 45.0605 262.027 45.5005 262.52C45.9405 263 46.2738 263.553 46.5005 264.18C46.7405 264.807 46.8605 265.473 46.8605 266.18C46.8605 266.353 46.8538 266.533 46.8405 266.72C46.8271 266.907 46.8005 267.08 46.7605 267.24H38.1405V265.44H45.4805L44.4005 266.26C44.5338 265.607 44.4871 265.027 44.2605 264.52C44.0471 264 43.7138 263.593 43.2605 263.3C42.8205 262.993 42.3005 262.84 41.7005 262.84C41.1005 262.84 40.5671 262.993 40.1005 263.3C39.6338 263.593 39.2738 264.02 39.0205 264.58C38.7671 265.127 38.6671 265.793 38.7205 266.58C38.6538 267.313 38.7538 267.953 39.0205 268.5C39.3005 269.047 39.6871 269.473 40.1805 269.78C40.6871 270.087 41.2605 270.24 41.9005 270.24C42.5538 270.24 43.1071 270.093 43.5605 269.8C44.0271 269.507 44.3938 269.127 44.6605 268.66L46.5005 269.56C46.2871 270.067 45.9538 270.527 45.5005 270.94C45.0605 271.34 44.5271 271.66 43.9005 271.9C43.2871 272.127 42.6138 272.24 41.8805 272.24ZM52.2084 272.24C51.4751 272.24 50.8284 272.113 50.2684 271.86C49.7218 271.593 49.2951 271.233 48.9884 270.78C48.6818 270.313 48.5284 269.767 48.5284 269.14C48.5284 268.553 48.6551 268.027 48.9084 267.56C49.1751 267.093 49.5818 266.7 50.1284 266.38C50.6751 266.06 51.3618 265.833 52.1884 265.7L55.9484 265.08V266.86L52.6284 267.44C52.0284 267.547 51.5884 267.74 51.3084 268.02C51.0284 268.287 50.8884 268.633 50.8884 269.06C50.8884 269.473 51.0418 269.813 51.3484 270.08C51.6684 270.333 52.0751 270.46 52.5684 270.46C53.1818 270.46 53.7151 270.327 54.1684 270.06C54.6351 269.793 54.9951 269.44 55.2484 269C55.5018 268.547 55.6284 268.047 55.6284 267.5V264.72C55.6284 264.187 55.4284 263.753 55.0284 263.42C54.6418 263.073 54.1218 262.9 53.4684 262.9C52.8684 262.9 52.3418 263.06 51.8884 263.38C51.4484 263.687 51.1218 264.087 50.9084 264.58L49.0284 263.64C49.2284 263.107 49.5551 262.64 50.0084 262.24C50.4618 261.827 50.9884 261.507 51.5884 261.28C52.2018 261.053 52.8484 260.94 53.5284 260.94C54.3818 260.94 55.1351 261.1 55.7884 261.42C56.4551 261.74 56.9684 262.187 57.3284 262.76C57.7018 263.32 57.8884 263.973 57.8884 264.72V272H55.7284V270.04L56.1884 270.1C55.9351 270.54 55.6084 270.92 55.2084 271.24C54.8218 271.56 54.3751 271.807 53.8684 271.98C53.3751 272.153 52.8218 272.24 52.2084 272.24ZM60.5309 272V256.86H62.7909V272H60.5309ZM65.4333 272V261.18H67.6933V272H65.4333ZM65.4333 259.7V257.1H67.6933V259.7H65.4333ZM75.0156 272.12C73.8823 272.12 73.0023 271.8 72.3756 271.16C71.749 270.52 71.4356 269.62 71.4356 268.46V263.22H69.5356V261.18H69.8356C70.3423 261.18 70.7356 261.033 71.0156 260.74C71.2956 260.447 71.4356 260.047 71.4356 259.54V258.7H73.6956V261.18H76.1556V263.22H73.6956V268.36C73.6956 268.733 73.7556 269.053 73.8756 269.32C73.9956 269.573 74.189 269.773 74.4556 269.92C74.7223 270.053 75.069 270.12 75.4956 270.12C75.6023 270.12 75.7223 270.113 75.8556 270.1C75.989 270.087 76.1156 270.073 76.2356 270.06V272C76.049 272.027 75.8423 272.053 75.6156 272.08C75.389 272.107 75.189 272.12 75.0156 272.12ZM79.4011 276.4C79.1344 276.4 78.8678 276.373 78.6011 276.32C78.3478 276.28 78.1144 276.213 77.9011 276.12V274.18C78.0611 274.22 78.2544 274.253 78.4811 274.28C78.7078 274.32 78.9278 274.34 79.1411 274.34C79.7678 274.34 80.2278 274.2 80.5211 273.92C80.8278 273.653 81.1011 273.24 81.3411 272.68L82.0611 271.04L82.0211 272.94L77.3411 261.18H79.7611L83.2211 270.2H82.4011L85.8411 261.18H88.2811L83.5011 273.18C83.2478 273.82 82.9278 274.38 82.5411 274.86C82.1678 275.353 81.7211 275.733 81.2011 276C80.6944 276.267 80.0944 276.4 79.4011 276.4Z" fill="white"/>
<path fill-rule="evenodd" clip-rule="evenodd" d="M49.7274 76.6698V85.1266L45.3793 80.7834C43.4152 78.8171 40.2378 78.8171 38.2737 80.7834C38.2737 80.7834 38.2731 80.7879 38.2511 80.7901C36.2869 82.7564 36.2869 85.9454 38.2511 87.9117L50.3006 99.9592L52.375 102.314C53.324 103.386 54.6921 104 56.1045 104H72.0388C74.7974 104 77.0259 101.773 77.0259 99.0279V83.5288C77.0259 80.2891 75.2391 77.3098 72.3922 75.7606L66.8966 72.768C70.8469 69.3451 73.3405 64.2957 73.3405 58.6681C73.3405 48.3641 64.9765 40 54.6703 40C44.3641 40 36 48.3641 36 58.6681C36 67.2574 41.8267 74.5004 49.7274 76.6698ZM57.2522 76.2306V59.189C57.2522 57.7214 56.0611 56.5297 54.6045 56.5297C53.1259 56.5297 51.9343 57.7214 51.9343 59.189V87.7903C51.9343 88.2383 51.6693 88.64 51.25 88.8099C50.8528 88.9821 50.3672 88.8872 50.0582 88.5716L43.8351 82.3437C42.7317 81.2403 40.9213 81.2403 39.8179 82.3437V82.3503C38.7144 83.4538 38.7144 85.2458 39.8179 86.3514L51.8901 98.4232L54.0302 100.855C54.5598 101.451 55.31 101.793 56.1045 101.793H72.0388C73.5616 101.793 74.819 100.555 74.819 99.0279V83.5288C74.819 81.0968 73.4731 78.8612 71.3545 77.6982L59.4591 71.2298V76.2306C59.4591 76.8397 58.9735 77.3341 58.3556 77.3341C57.7597 77.3341 57.2522 76.8397 57.2522 76.2306ZM64.8222 71.6314C68.6622 68.6168 71.1336 63.9294 71.1336 58.6681C71.1336 49.5823 63.7627 42.2069 54.6703 42.2069C45.5999 42.2069 38.2069 49.5823 38.2069 58.6681C38.2069 66.0281 43.0625 72.2692 49.7274 74.3702V69.3628C45.6888 67.4913 42.8858 63.4041 42.8858 58.6681C42.8858 52.1644 48.182 46.8855 54.6703 46.8855C61.1806 46.8855 66.4558 52.1644 66.4558 58.6681C66.4558 63.1901 63.9177 67.1206 60.1659 69.0957L64.8222 71.6314ZM59.4591 66.9594C62.328 65.3021 64.2489 62.208 64.2489 58.6681C64.2489 53.3826 59.9668 49.0924 54.6703 49.0924C49.3958 49.0924 45.0927 53.3826 45.0927 58.6681C45.0927 62.1418 46.9467 65.1873 49.7274 66.8668V59.189C49.7274 56.501 51.9121 54.3228 54.6045 54.3228C57.2969 54.3228 59.4591 56.501 59.4591 59.189V66.9594Z" fill="white"/>
<defs>
<linearGradient id="paint0_linear_2388_12387" x1="-2.00001" y1="314" x2="321.5" y2="-9.49999" gradientUnits="userSpaceOnUse">
<stop stop-color="#11296A"/>
<stop offset="1" stop-color="#2150D0"/>
</linearGradient>
<linearGradient id="paint1_linear_2388_12387" x1="-2.00001" y1="314" x2="321.5" y2="-9.49999" gradientUnits="userSpaceOnUse">
<stop stop-color="#11296A"/>
<stop offset="1" stop-color="#2150D0"/>
</linearGradient>
<linearGradient id="paint2_linear_2388_12387" x1="367.787" y1="-128" x2="367.787" y2="216.727" gradientUnits="userSpaceOnUse">
<stop stop-color="white"/>
<stop offset="1" stop-color="white" stop-opacity="0"/>
</linearGradient>
<linearGradient id="paint3_linear_2388_12387" x1="465.787" y1="-128" x2="465.787" y2="216.727" gradientUnits="userSpaceOnUse">
<stop stop-color="white"/>
<stop offset="1" stop-color="white" stop-opacity="0"/>
</linearGradient>
</defs>
</svg>
