<svg width="285" height="300" viewBox="0 0 285 300" fill="none" xmlns="http://www.w3.org/2000/svg">
<rect width="285" height="300" rx="10" transform="matrix(1 0 0 -1 0 300)" fill="url(#paint0_linear_2388_12398)"/>
<mask id="mask0_2388_12398" style="mask-type:alpha" maskUnits="userSpaceOnUse" x="0" y="0" width="285" height="300">
<rect width="285" height="300" rx="10" transform="matrix(1 0 0 -1 0 300)" fill="url(#paint1_linear_2388_12398)"/>
</mask>
<g mask="url(#mask0_2388_12398)">
<rect x="338.605" y="-128" width="58.3621" height="344.727" rx="29.1811" transform="rotate(43.8011 338.605 -128)" fill="url(#paint2_linear_2388_12398)" fill-opacity="0.24"/>
<rect x="436.605" y="-128" width="58.3621" height="344.727" rx="29.1811" transform="rotate(43.8011 436.605 -128)" fill="url(#paint3_linear_2388_12398)" fill-opacity="0.24"/>
</g>
<path d="M29.76 239.24C28.8267 239.24 27.96 239.067 27.16 238.72C26.36 238.36 25.68 237.873 25.12 237.26C24.56 236.647 24.1467 235.94 23.88 235.14L25.88 234.3C26.24 235.22 26.7667 235.927 27.46 236.42C28.1533 236.913 28.9533 237.16 29.86 237.16C30.3933 237.16 30.86 237.08 31.26 236.92C31.66 236.747 31.9667 236.507 32.18 236.2C32.4067 235.893 32.52 235.54 32.52 235.14C32.52 234.593 32.3667 234.16 32.06 233.84C31.7533 233.52 31.3 233.267 30.7 233.08L27.9 232.2C26.78 231.853 25.9267 231.327 25.34 230.62C24.7533 229.9 24.46 229.06 24.46 228.1C24.46 227.26 24.6667 226.527 25.08 225.9C25.4933 225.26 26.06 224.76 26.78 224.4C27.5133 224.04 28.3467 223.86 29.28 223.86C30.1733 223.86 30.9867 224.02 31.72 224.34C32.4533 224.647 33.08 225.073 33.6 225.62C34.1333 226.167 34.52 226.8 34.76 227.52L32.8 228.38C32.5067 227.593 32.0467 226.987 31.42 226.56C30.8067 226.133 30.0933 225.92 29.28 225.92C28.7867 225.92 28.3533 226.007 27.98 226.18C27.6067 226.34 27.3133 226.58 27.1 226.9C26.9 227.207 26.8 227.567 26.8 227.98C26.8 228.46 26.9533 228.887 27.26 229.26C27.5667 229.633 28.0333 229.913 28.66 230.1L31.26 230.92C32.4467 231.28 33.34 231.8 33.94 232.48C34.54 233.147 34.84 233.98 34.84 234.98C34.84 235.807 34.62 236.54 34.18 237.18C33.7533 237.82 33.16 238.327 32.4 238.7C31.64 239.06 30.76 239.24 29.76 239.24ZM41.9492 239.12C40.8159 239.12 39.9359 238.8 39.3092 238.16C38.6826 237.52 38.3692 236.62 38.3692 235.46V230.22H36.4692V228.18H36.7692C37.2759 228.18 37.6692 228.033 37.9492 227.74C38.2292 227.447 38.3692 227.047 38.3692 226.54V225.7H40.6292V228.18H43.0892V230.22H40.6292V235.36C40.6292 235.733 40.6892 236.053 40.8092 236.32C40.9292 236.573 41.1226 236.773 41.3892 236.92C41.6559 237.053 42.0026 237.12 42.4292 237.12C42.5359 237.12 42.6559 237.113 42.7892 237.1C42.9226 237.087 43.0492 237.073 43.1692 237.06V239C42.9826 239.027 42.7759 239.053 42.5492 239.08C42.3226 239.107 42.1226 239.12 41.9492 239.12ZM45.3747 239V228.18H47.5347V230.36L47.3347 230.04C47.5747 229.333 47.9614 228.827 48.4947 228.52C49.028 228.2 49.668 228.04 50.4147 228.04H51.0747V230.1H50.1347C49.388 230.1 48.7814 230.333 48.3147 230.8C47.8614 231.253 47.6347 231.907 47.6347 232.76V239H45.3747ZM57.7008 239.24C56.6208 239.24 55.6608 238.993 54.8208 238.5C53.9941 237.993 53.3474 237.313 52.8808 236.46C52.4141 235.593 52.1808 234.627 52.1808 233.56C52.1808 232.467 52.4141 231.5 52.8808 230.66C53.3608 229.82 54.0008 229.16 54.8008 228.68C55.6008 228.187 56.5074 227.94 57.5208 227.94C58.3341 227.94 59.0608 228.08 59.7008 228.36C60.3408 228.64 60.8808 229.027 61.3208 229.52C61.7608 230 62.0941 230.553 62.3208 231.18C62.5608 231.807 62.6808 232.473 62.6808 233.18C62.6808 233.353 62.6741 233.533 62.6608 233.72C62.6474 233.907 62.6208 234.08 62.5808 234.24H53.9608V232.44H61.3008L60.2208 233.26C60.3541 232.607 60.3074 232.027 60.0808 231.52C59.8674 231 59.5341 230.593 59.0808 230.3C58.6408 229.993 58.1208 229.84 57.5208 229.84C56.9208 229.84 56.3874 229.993 55.9208 230.3C55.4541 230.593 55.0941 231.02 54.8408 231.58C54.5874 232.127 54.4874 232.793 54.5408 233.58C54.4741 234.313 54.5741 234.953 54.8408 235.5C55.1208 236.047 55.5074 236.473 56.0008 236.78C56.5074 237.087 57.0808 237.24 57.7208 237.24C58.3741 237.24 58.9274 237.093 59.3808 236.8C59.8474 236.507 60.2141 236.127 60.4808 235.66L62.3208 236.56C62.1074 237.067 61.7741 237.527 61.3208 237.94C60.8808 238.34 60.3474 238.66 59.7208 238.9C59.1074 239.127 58.4341 239.24 57.7008 239.24ZM68.0288 239.24C67.2954 239.24 66.6488 239.113 66.0888 238.86C65.5421 238.593 65.1154 238.233 64.8088 237.78C64.5021 237.313 64.3488 236.767 64.3488 236.14C64.3488 235.553 64.4754 235.027 64.7288 234.56C64.9954 234.093 65.4021 233.7 65.9488 233.38C66.4954 233.06 67.1821 232.833 68.0088 232.7L71.7688 232.08V233.86L68.4488 234.44C67.8488 234.547 67.4088 234.74 67.1288 235.02C66.8488 235.287 66.7088 235.633 66.7088 236.06C66.7088 236.473 66.8621 236.813 67.1688 237.08C67.4888 237.333 67.8954 237.46 68.3888 237.46C69.0021 237.46 69.5354 237.327 69.9888 237.06C70.4554 236.793 70.8154 236.44 71.0688 236C71.3221 235.547 71.4488 235.047 71.4488 234.5V231.72C71.4488 231.187 71.2488 230.753 70.8488 230.42C70.4621 230.073 69.9421 229.9 69.2888 229.9C68.6888 229.9 68.1621 230.06 67.7088 230.38C67.2688 230.687 66.9421 231.087 66.7288 231.58L64.8488 230.64C65.0488 230.107 65.3754 229.64 65.8288 229.24C66.2821 228.827 66.8088 228.507 67.4088 228.28C68.0221 228.053 68.6688 227.94 69.3487 227.94C70.2021 227.94 70.9554 228.1 71.6088 228.42C72.2754 228.74 72.7888 229.187 73.1488 229.76C73.5221 230.32 73.7088 230.973 73.7088 231.72V239H71.5488V237.04L72.0088 237.1C71.7554 237.54 71.4288 237.92 71.0288 238.24C70.6421 238.56 70.1954 238.807 69.6888 238.98C69.1954 239.153 68.6421 239.24 68.0288 239.24ZM76.3512 239V228.18H78.5113V230.52L78.2313 230.16C78.4579 229.427 78.8713 228.873 79.4713 228.5C80.0713 228.127 80.7579 227.94 81.5313 227.94C82.3979 227.94 83.1646 228.173 83.8313 228.64C84.5113 229.093 84.9646 229.7 85.1913 230.46L84.5513 230.52C84.8713 229.653 85.3579 229.007 86.0113 228.58C86.6779 228.153 87.4379 227.94 88.2913 227.94C89.0379 227.94 89.7113 228.113 90.3113 228.46C90.9246 228.807 91.4113 229.287 91.7713 229.9C92.1313 230.513 92.3113 231.213 92.3113 232V239H90.0513V232.62C90.0513 232.073 89.9513 231.613 89.7513 231.24C89.5646 230.853 89.2979 230.56 88.9513 230.36C88.6179 230.147 88.2246 230.04 87.7713 230.04C87.3179 230.04 86.9179 230.147 86.5713 230.36C86.2246 230.56 85.9513 230.853 85.7513 231.24C85.5513 231.627 85.4513 232.087 85.4513 232.62V239H83.2113V232.62C83.2113 232.073 83.1113 231.613 82.9113 231.24C82.7246 230.853 82.4579 230.56 82.1113 230.36C81.7779 230.147 81.3779 230.04 80.9112 230.04C80.4579 230.04 80.0579 230.147 79.7113 230.36C79.3646 230.56 79.0913 230.853 78.8913 231.24C78.7046 231.627 78.6113 232.087 78.6113 232.62V239H76.3512ZM94.7302 239V223.86H96.9902V239H94.7302ZM99.6325 239V228.18H101.893V239H99.6325ZM99.6325 226.7V224.1H101.893V226.7H99.6325ZM104.535 239V228.18H106.695V230.3L106.435 230.02C106.702 229.34 107.128 228.827 107.715 228.48C108.302 228.12 108.982 227.94 109.755 227.94C110.555 227.94 111.262 228.113 111.875 228.46C112.488 228.807 112.968 229.287 113.315 229.9C113.662 230.513 113.835 231.22 113.835 232.02V239H111.595V232.62C111.595 232.073 111.495 231.613 111.295 231.24C111.095 230.853 110.808 230.56 110.435 230.36C110.075 230.147 109.662 230.04 109.195 230.04C108.728 230.04 108.308 230.147 107.935 230.36C107.575 230.56 107.295 230.853 107.095 231.24C106.895 231.627 106.795 232.087 106.795 232.62V239H104.535ZM121.334 239.24C120.254 239.24 119.294 238.993 118.454 238.5C117.627 237.993 116.98 237.313 116.514 236.46C116.047 235.593 115.814 234.627 115.814 233.56C115.814 232.467 116.047 231.5 116.514 230.66C116.994 229.82 117.634 229.16 118.434 228.68C119.234 228.187 120.14 227.94 121.154 227.94C121.967 227.94 122.694 228.08 123.334 228.36C123.974 228.64 124.514 229.027 124.954 229.52C125.394 230 125.727 230.553 125.954 231.18C126.194 231.807 126.314 232.473 126.314 233.18C126.314 233.353 126.307 233.533 126.294 233.72C126.28 233.907 126.254 234.08 126.214 234.24H117.594V232.44H124.934L123.854 233.26C123.987 232.607 123.94 232.027 123.714 231.52C123.5 231 123.167 230.593 122.714 230.3C122.274 229.993 121.754 229.84 121.154 229.84C120.554 229.84 120.02 229.993 119.554 230.3C119.087 230.593 118.727 231.02 118.474 231.58C118.22 232.127 118.12 232.793 118.174 233.58C118.107 234.313 118.207 234.953 118.474 235.5C118.754 236.047 119.14 236.473 119.634 236.78C120.14 237.087 120.714 237.24 121.354 237.24C122.007 237.24 122.56 237.093 123.014 236.8C123.48 236.507 123.847 236.127 124.114 235.66L125.954 236.56C125.74 237.067 125.407 237.527 124.954 237.94C124.514 238.34 123.98 238.66 123.354 238.9C122.74 239.127 122.067 239.24 121.334 239.24ZM132.235 239V224.1H137.655C138.655 224.1 139.535 224.287 140.295 224.66C141.069 225.02 141.669 225.553 142.095 226.26C142.522 226.953 142.735 227.787 142.735 228.76C142.735 229.72 142.515 230.547 142.075 231.24C141.649 231.933 141.055 232.467 140.295 232.84C139.535 233.213 138.655 233.4 137.655 233.4H134.595V239H132.235ZM134.595 231.3H137.715C138.249 231.3 138.715 231.193 139.115 230.98C139.515 230.767 139.829 230.473 140.055 230.1C140.282 229.713 140.395 229.26 140.395 228.74C140.395 228.22 140.282 227.773 140.055 227.4C139.829 227.013 139.515 226.72 139.115 226.52C138.715 226.307 138.249 226.2 137.715 226.2H134.595V231.3ZM144.945 239V228.18H147.105V230.36L146.905 230.04C147.145 229.333 147.532 228.827 148.065 228.52C148.598 228.2 149.238 228.04 149.985 228.04H150.645V230.1H149.705C148.958 230.1 148.352 230.333 147.885 230.8C147.432 231.253 147.205 231.907 147.205 232.76V239H144.945ZM157.411 239.24C156.371 239.24 155.418 238.993 154.551 238.5C153.698 238.007 153.018 237.333 152.511 236.48C152.004 235.627 151.751 234.66 151.751 233.58C151.751 232.487 152.004 231.52 152.511 230.68C153.018 229.827 153.698 229.16 154.551 228.68C155.404 228.187 156.358 227.94 157.411 227.94C158.478 227.94 159.431 228.187 160.271 228.68C161.124 229.16 161.798 229.827 162.291 230.68C162.798 231.52 163.051 232.487 163.051 233.58C163.051 234.673 162.798 235.647 162.291 236.5C161.784 237.353 161.104 238.027 160.251 238.52C159.398 239 158.451 239.24 157.411 239.24ZM157.411 237.14C158.051 237.14 158.618 236.987 159.111 236.68C159.604 236.373 159.991 235.953 160.271 235.42C160.564 234.873 160.711 234.26 160.711 233.58C160.711 232.9 160.564 232.293 160.271 231.76C159.991 231.227 159.604 230.807 159.111 230.5C158.618 230.193 158.051 230.04 157.411 230.04C156.784 230.04 156.218 230.193 155.711 230.5C155.218 230.807 154.824 231.227 154.531 231.76C154.251 232.293 154.111 232.9 154.111 233.58C154.111 234.26 154.251 234.873 154.531 235.42C154.824 235.953 155.218 236.373 155.711 236.68C156.218 236.987 156.784 237.14 157.411 237.14ZM170.398 239.24C169.318 239.24 168.358 238.993 167.518 238.5C166.691 237.993 166.031 237.313 165.538 236.46C165.058 235.607 164.818 234.64 164.818 233.56C164.818 232.493 165.058 231.533 165.538 230.68C166.018 229.827 166.678 229.16 167.518 228.68C168.358 228.187 169.318 227.94 170.398 227.94C171.131 227.94 171.818 228.073 172.458 228.34C173.098 228.593 173.651 228.947 174.118 229.4C174.598 229.853 174.951 230.38 175.178 230.98L173.198 231.9C172.971 231.34 172.604 230.893 172.098 230.56C171.604 230.213 171.038 230.04 170.398 230.04C169.784 230.04 169.231 230.193 168.738 230.5C168.258 230.793 167.878 231.213 167.598 231.76C167.318 232.293 167.178 232.9 167.178 233.58C167.178 234.26 167.318 234.873 167.598 235.42C167.878 235.953 168.258 236.373 168.738 236.68C169.231 236.987 169.784 237.14 170.398 237.14C171.051 237.14 171.618 236.973 172.098 236.64C172.591 236.293 172.958 235.833 173.198 235.26L175.178 236.2C174.964 236.773 174.618 237.293 174.138 237.76C173.671 238.213 173.118 238.573 172.478 238.84C171.838 239.107 171.144 239.24 170.398 239.24ZM182.466 239.24C181.386 239.24 180.426 238.993 179.586 238.5C178.76 237.993 178.113 237.313 177.646 236.46C177.18 235.593 176.946 234.627 176.946 233.56C176.946 232.467 177.18 231.5 177.646 230.66C178.126 229.82 178.766 229.16 179.566 228.68C180.366 228.187 181.273 227.94 182.286 227.94C183.1 227.94 183.826 228.08 184.466 228.36C185.106 228.64 185.646 229.027 186.086 229.52C186.526 230 186.86 230.553 187.086 231.18C187.326 231.807 187.446 232.473 187.446 233.18C187.446 233.353 187.44 233.533 187.426 233.72C187.413 233.907 187.386 234.08 187.346 234.24H178.726V232.44H186.066L184.986 233.26C185.12 232.607 185.073 232.027 184.846 231.52C184.633 231 184.3 230.593 183.846 230.3C183.406 229.993 182.886 229.84 182.286 229.84C181.686 229.84 181.153 229.993 180.686 230.3C180.22 230.593 179.86 231.02 179.606 231.58C179.353 232.127 179.253 232.793 179.306 233.58C179.24 234.313 179.34 234.953 179.606 235.5C179.886 236.047 180.273 236.473 180.766 236.78C181.273 237.087 181.846 237.24 182.486 237.24C183.14 237.24 183.693 237.093 184.146 236.8C184.613 236.507 184.98 236.127 185.246 235.66L187.086 236.56C186.873 237.067 186.54 237.527 186.086 237.94C185.646 238.34 185.113 238.66 184.486 238.9C183.873 239.127 183.2 239.24 182.466 239.24ZM193.652 239.24C192.545 239.24 191.572 238.967 190.732 238.42C189.905 237.873 189.325 237.14 188.992 236.22L190.732 235.4C191.025 236.013 191.425 236.5 191.932 236.86C192.452 237.22 193.025 237.4 193.652 237.4C194.185 237.4 194.619 237.28 194.952 237.04C195.285 236.8 195.452 236.473 195.452 236.06C195.452 235.793 195.379 235.58 195.232 235.42C195.085 235.247 194.899 235.107 194.672 235C194.459 234.893 194.239 234.813 194.012 234.76L192.312 234.28C191.379 234.013 190.679 233.613 190.212 233.08C189.759 232.533 189.532 231.9 189.532 231.18C189.532 230.527 189.699 229.96 190.032 229.48C190.365 228.987 190.825 228.607 191.412 228.34C191.999 228.073 192.659 227.94 193.392 227.94C194.379 227.94 195.259 228.187 196.032 228.68C196.805 229.16 197.352 229.833 197.672 230.7L195.932 231.52C195.719 231 195.379 230.587 194.912 230.28C194.459 229.973 193.945 229.82 193.372 229.82C192.879 229.82 192.485 229.94 192.192 230.18C191.899 230.407 191.752 230.707 191.752 231.08C191.752 231.333 191.819 231.547 191.952 231.72C192.085 231.88 192.259 232.013 192.472 232.12C192.685 232.213 192.905 232.293 193.132 232.36L194.892 232.88C195.785 233.133 196.472 233.533 196.952 234.08C197.432 234.613 197.672 235.253 197.672 236C197.672 236.64 197.499 237.207 197.152 237.7C196.819 238.18 196.352 238.56 195.752 238.84C195.152 239.107 194.452 239.24 193.652 239.24ZM203.886 239.24C202.78 239.24 201.806 238.967 200.966 238.42C200.14 237.873 199.56 237.14 199.226 236.22L200.966 235.4C201.26 236.013 201.66 236.5 202.166 236.86C202.686 237.22 203.26 237.4 203.886 237.4C204.42 237.4 204.853 237.28 205.186 237.04C205.52 236.8 205.686 236.473 205.686 236.06C205.686 235.793 205.613 235.58 205.466 235.42C205.32 235.247 205.133 235.107 204.906 235C204.693 234.893 204.473 234.813 204.246 234.76L202.546 234.28C201.613 234.013 200.913 233.613 200.446 233.08C199.993 232.533 199.766 231.9 199.766 231.18C199.766 230.527 199.933 229.96 200.266 229.48C200.6 228.987 201.06 228.607 201.646 228.34C202.233 228.073 202.893 227.94 203.626 227.94C204.613 227.94 205.493 228.187 206.266 228.68C207.04 229.16 207.586 229.833 207.906 230.7L206.166 231.52C205.953 231 205.613 230.587 205.146 230.28C204.693 229.973 204.18 229.82 203.606 229.82C203.113 229.82 202.72 229.94 202.426 230.18C202.133 230.407 201.986 230.707 201.986 231.08C201.986 231.333 202.053 231.547 202.186 231.72C202.32 231.88 202.493 232.013 202.706 232.12C202.92 232.213 203.14 232.293 203.366 232.36L205.126 232.88C206.02 233.133 206.706 233.533 207.186 234.08C207.666 234.613 207.906 235.253 207.906 236C207.906 236.64 207.733 237.207 207.386 237.7C207.053 238.18 206.586 238.56 205.986 238.84C205.386 239.107 204.686 239.24 203.886 239.24ZM215.201 239.24C214.121 239.24 213.161 238.993 212.321 238.5C211.494 237.993 210.847 237.313 210.381 236.46C209.914 235.593 209.681 234.627 209.681 233.56C209.681 232.467 209.914 231.5 210.381 230.66C210.861 229.82 211.501 229.16 212.301 228.68C213.101 228.187 214.007 227.94 215.021 227.94C215.834 227.94 216.561 228.08 217.201 228.36C217.841 228.64 218.381 229.027 218.821 229.52C219.261 230 219.594 230.553 219.821 231.18C220.061 231.807 220.181 232.473 220.181 233.18C220.181 233.353 220.174 233.533 220.161 233.72C220.147 233.907 220.121 234.08 220.081 234.24H211.461V232.44H218.801L217.721 233.26C217.854 232.607 217.807 232.027 217.581 231.52C217.367 231 217.034 230.593 216.581 230.3C216.141 229.993 215.621 229.84 215.021 229.84C214.421 229.84 213.887 229.993 213.421 230.3C212.954 230.593 212.594 231.02 212.341 231.58C212.087 232.127 211.987 232.793 212.041 233.58C211.974 234.313 212.074 234.953 212.341 235.5C212.621 236.047 213.007 236.473 213.501 236.78C214.007 237.087 214.581 237.24 215.221 237.24C215.874 237.24 216.427 237.093 216.881 236.8C217.347 236.507 217.714 236.127 217.981 235.66L219.821 236.56C219.607 237.067 219.274 237.527 218.821 237.94C218.381 238.34 217.847 238.66 217.221 238.9C216.607 239.127 215.934 239.24 215.201 239.24ZM226.386 239.24C225.28 239.24 224.306 238.967 223.466 238.42C222.64 237.873 222.06 237.14 221.726 236.22L223.466 235.4C223.76 236.013 224.16 236.5 224.666 236.86C225.186 237.22 225.76 237.4 226.386 237.4C226.92 237.4 227.353 237.28 227.686 237.04C228.02 236.8 228.186 236.473 228.186 236.06C228.186 235.793 228.113 235.58 227.966 235.42C227.82 235.247 227.633 235.107 227.406 235C227.193 234.893 226.973 234.813 226.746 234.76L225.046 234.28C224.113 234.013 223.413 233.613 222.946 233.08C222.493 232.533 222.266 231.9 222.266 231.18C222.266 230.527 222.433 229.96 222.766 229.48C223.1 228.987 223.56 228.607 224.146 228.34C224.733 228.073 225.393 227.94 226.126 227.94C227.113 227.94 227.993 228.187 228.766 228.68C229.54 229.16 230.086 229.833 230.406 230.7L228.666 231.52C228.453 231 228.113 230.587 227.646 230.28C227.193 229.973 226.68 229.82 226.106 229.82C225.613 229.82 225.22 229.94 224.926 230.18C224.633 230.407 224.486 230.707 224.486 231.08C224.486 231.333 224.553 231.547 224.686 231.72C224.82 231.88 224.993 232.013 225.206 232.12C225.42 232.213 225.64 232.293 225.866 232.36L227.626 232.88C228.52 233.133 229.206 233.533 229.686 234.08C230.166 234.613 230.406 235.253 230.406 236C230.406 236.64 230.233 237.207 229.886 237.7C229.553 238.18 229.086 238.56 228.486 238.84C227.886 239.107 227.186 239.24 226.386 239.24ZM24.54 272V257.1H34.36V259.2H26.9V263.48H33.96V265.58H26.9V269.9H34.36V272H24.54ZM37.5517 272V263.22H35.5517V261.18H37.5517V260.62C37.5517 259.807 37.7184 259.127 38.0517 258.58C38.3851 258.02 38.8451 257.593 39.4317 257.3C40.0317 257.007 40.7184 256.86 41.4917 256.86C41.6384 256.86 41.8051 256.873 41.9917 256.9C42.1784 256.913 42.3317 256.933 42.4517 256.96V258.92C42.3451 258.893 42.2251 258.88 42.0917 258.88C41.9584 258.867 41.8517 258.86 41.7717 258.86C41.1717 258.86 40.6917 259 40.3317 259.28C39.9717 259.547 39.7917 259.993 39.7917 260.62V261.18H44.9717V263.22H39.7917V272H37.5517ZM51.7317 272V261.18H53.9917V272H51.7317ZM45.3717 272V263.22H43.3917V261.18H45.3717V260.62C45.3717 259.807 45.5384 259.127 45.8717 258.58C46.2184 258.02 46.6851 257.593 47.2717 257.3C47.8717 257.007 48.5517 256.86 49.3117 256.86C49.4717 256.86 49.6451 256.873 49.8317 256.9C50.0184 256.913 50.1717 256.933 50.2917 256.96V258.92C50.1717 258.893 50.0451 258.88 49.9117 258.88C49.7917 258.867 49.6851 258.86 49.5917 258.86C48.9917 258.86 48.5117 259 48.1517 259.28C47.8051 259.547 47.6317 259.993 47.6317 260.62V261.18H52.8117V263.22H47.6317V272H45.3717ZM61.5108 272.24C60.4308 272.24 59.4708 271.993 58.6308 271.5C57.8041 270.993 57.1441 270.313 56.6508 269.46C56.1708 268.607 55.9308 267.64 55.9308 266.56C55.9308 265.493 56.1708 264.533 56.6508 263.68C57.1308 262.827 57.7908 262.16 58.6308 261.68C59.4708 261.187 60.4308 260.94 61.5108 260.94C62.2441 260.94 62.9308 261.073 63.5708 261.34C64.2108 261.593 64.7641 261.947 65.2308 262.4C65.7108 262.853 66.0641 263.38 66.2908 263.98L64.3108 264.9C64.0841 264.34 63.7174 263.893 63.2108 263.56C62.7174 263.213 62.1508 263.04 61.5108 263.04C60.8974 263.04 60.3441 263.193 59.8508 263.5C59.3708 263.793 58.9908 264.213 58.7108 264.76C58.4308 265.293 58.2908 265.9 58.2908 266.58C58.2908 267.26 58.4308 267.873 58.7108 268.42C58.9908 268.953 59.3708 269.373 59.8508 269.68C60.3441 269.987 60.8974 270.14 61.5108 270.14C62.1641 270.14 62.7308 269.973 63.2108 269.64C63.7041 269.293 64.0708 268.833 64.3108 268.26L66.2908 269.2C66.0774 269.773 65.7308 270.293 65.2508 270.76C64.7841 271.213 64.2308 271.573 63.5908 271.84C62.9508 272.107 62.2574 272.24 61.5108 272.24ZM68.4997 272V261.18H70.7597V272H68.4997ZM68.4997 259.7V257.1H70.7597V259.7H68.4997ZM78.482 272.24C77.402 272.24 76.442 271.993 75.602 271.5C74.7754 270.993 74.1287 270.313 73.662 269.46C73.1954 268.593 72.962 267.627 72.962 266.56C72.962 265.467 73.1954 264.5 73.662 263.66C74.142 262.82 74.782 262.16 75.582 261.68C76.382 261.187 77.2887 260.94 78.302 260.94C79.1154 260.94 79.842 261.08 80.482 261.36C81.122 261.64 81.662 262.027 82.102 262.52C82.542 263 82.8754 263.553 83.102 264.18C83.342 264.807 83.462 265.473 83.462 266.18C83.462 266.353 83.4554 266.533 83.442 266.72C83.4287 266.907 83.402 267.08 83.362 267.24H74.742V265.44H82.082L81.002 266.26C81.1354 265.607 81.0887 265.027 80.862 264.52C80.6487 264 80.3154 263.593 79.862 263.3C79.422 262.993 78.902 262.84 78.302 262.84C77.702 262.84 77.1687 262.993 76.702 263.3C76.2354 263.593 75.8754 264.02 75.622 264.58C75.3687 265.127 75.2687 265.793 75.322 266.58C75.2554 267.313 75.3554 267.953 75.622 268.5C75.902 269.047 76.2887 269.473 76.782 269.78C77.2887 270.087 77.862 270.24 78.502 270.24C79.1554 270.24 79.7087 270.093 80.162 269.8C80.6287 269.507 80.9954 269.127 81.262 268.66L83.102 269.56C82.8887 270.067 82.5554 270.527 82.102 270.94C81.662 271.34 81.1287 271.66 80.502 271.9C79.8887 272.127 79.2154 272.24 78.482 272.24ZM85.6677 272V261.18H87.8277V263.3L87.5677 263.02C87.8343 262.34 88.261 261.827 88.8477 261.48C89.4343 261.12 90.1143 260.94 90.8877 260.94C91.6877 260.94 92.3943 261.113 93.0077 261.46C93.621 261.807 94.101 262.287 94.4477 262.9C94.7943 263.513 94.9677 264.22 94.9677 265.02V272H92.7277V265.62C92.7277 265.073 92.6277 264.613 92.4277 264.24C92.2277 263.853 91.941 263.56 91.5677 263.36C91.2077 263.147 90.7943 263.04 90.3277 263.04C89.861 263.04 89.441 263.147 89.0677 263.36C88.7077 263.56 88.4277 263.853 88.2277 264.24C88.0277 264.627 87.9277 265.087 87.9277 265.62V272H85.6677ZM102.066 272.12C100.933 272.12 100.053 271.8 99.4264 271.16C98.7997 270.52 98.4864 269.62 98.4864 268.46V263.22H96.5864V261.18H96.8864C97.3931 261.18 97.7864 261.033 98.0664 260.74C98.3464 260.447 98.4864 260.047 98.4864 259.54V258.7H100.746V261.18H103.206V263.22H100.746V268.36C100.746 268.733 100.806 269.053 100.926 269.32C101.046 269.573 101.24 269.773 101.506 269.92C101.773 270.053 102.12 270.12 102.546 270.12C102.653 270.12 102.773 270.113 102.906 270.1C103.04 270.087 103.166 270.073 103.286 270.06V272C103.1 272.027 102.893 272.053 102.666 272.08C102.44 272.107 102.24 272.12 102.066 272.12ZM105.492 272V256.86H107.752V272H105.492ZM111.354 276.4C111.088 276.4 110.821 276.373 110.554 276.32C110.301 276.28 110.068 276.213 109.854 276.12V274.18C110.014 274.22 110.208 274.253 110.434 274.28C110.661 274.32 110.881 274.34 111.094 274.34C111.721 274.34 112.181 274.2 112.474 273.92C112.781 273.653 113.054 273.24 113.294 272.68L114.014 271.04L113.974 272.94L109.294 261.18H111.714L115.174 270.2H114.354L117.794 261.18H120.234L115.454 273.18C115.201 273.82 114.881 274.38 114.494 274.86C114.121 275.353 113.674 275.733 113.154 276C112.648 276.267 112.048 276.4 111.354 276.4Z" fill="white"/>
<path fill-rule="evenodd" clip-rule="evenodd" d="M74.5321 49.3124H81.7735V68.9655H74.5321V62.7565C74.5321 62.1855 74.0769 61.7221 73.4976 61.7221H46.2909C45.7323 61.7221 45.2564 62.1855 45.2564 62.7565V68.9655H37.0013C36.422 68.9655 35.9668 69.429 35.9668 70V91.7221C35.9668 92.2931 36.422 92.7565 37.0013 92.7565H45.2564V98.9655C45.2564 99.5365 45.7323 100 46.2909 100H73.4976C74.0769 100 74.5321 99.5365 74.5321 98.9655V84.4786C74.5321 83.9076 74.0769 83.4441 73.4976 83.4441H46.2909C45.7323 83.4441 45.2564 83.9076 45.2564 84.4786V90.6876H38.0358V71.0345H45.2564V77.2434C45.2564 77.8145 45.7323 78.2779 46.2909 78.2779H73.4976C74.0769 78.2779 74.5321 77.8145 74.5321 77.2434V71.0345H82.8079C83.3666 71.0345 83.8424 70.571 83.8424 70V48.2779C83.8424 47.7069 83.3666 47.2434 82.8079 47.2434H74.5321V41.0345C74.5321 40.4634 74.0769 40 73.4976 40H46.2909C45.7323 40 45.2564 40.4634 45.2564 41.0345V55.5214C45.2564 56.0924 45.7323 56.5559 46.2909 56.5559H73.4976C74.0769 56.5559 74.5321 56.0924 74.5321 55.5214V49.3124ZM47.3254 91.7241V85.5131H72.4631V97.931H47.3254V91.7241ZM47.3254 70V63.791H72.4631V76.209H47.3254V70ZM72.4631 42.069V54.4869H47.3254V42.069H72.4631Z" fill="white"/>
<defs>
<linearGradient id="paint0_linear_2388_12398" x1="-2.00001" y1="314" x2="321.5" y2="-9.49999" gradientUnits="userSpaceOnUse">
<stop stop-color="#11296A"/>
<stop offset="1" stop-color="#2150D0"/>
</linearGradient>
<linearGradient id="paint1_linear_2388_12398" x1="-2.00001" y1="314" x2="321.5" y2="-9.49999" gradientUnits="userSpaceOnUse">
<stop stop-color="#11296A"/>
<stop offset="1" stop-color="#2150D0"/>
</linearGradient>
<linearGradient id="paint2_linear_2388_12398" x1="367.787" y1="-128" x2="367.787" y2="216.727" gradientUnits="userSpaceOnUse">
<stop stop-color="white"/>
<stop offset="1" stop-color="white" stop-opacity="0"/>
</linearGradient>
<linearGradient id="paint3_linear_2388_12398" x1="465.787" y1="-128" x2="465.787" y2="216.727" gradientUnits="userSpaceOnUse">
<stop stop-color="white"/>
<stop offset="1" stop-color="white" stop-opacity="0"/>
</linearGradient>
</defs>
</svg>
