<svg width="285" height="300" viewBox="0 0 285 300" fill="none" xmlns="http://www.w3.org/2000/svg">
<rect width="285" height="300" rx="10" transform="matrix(1 0 0 -1 0 300)" fill="url(#paint0_linear_2388_12409)"/>
<mask id="mask0_2388_12409" style="mask-type:alpha" maskUnits="userSpaceOnUse" x="0" y="0" width="285" height="300">
<rect width="285" height="300" rx="10" transform="matrix(1 0 0 -1 0 300)" fill="url(#paint1_linear_2388_12409)"/>
</mask>
<g mask="url(#mask0_2388_12409)">
<rect x="338.605" y="-139" width="58.3621" height="344.727" rx="29.1811" transform="rotate(43.8011 338.605 -139)" fill="url(#paint2_linear_2388_12409)" fill-opacity="0.24"/>
<rect x="436.605" y="-128" width="58.3621" height="344.727" rx="29.1811" transform="rotate(43.8011 436.605 -128)" fill="url(#paint3_linear_2388_12409)" fill-opacity="0.24"/>
</g>
<path d="M24.54 239V224.1H30.82C31.7533 224.1 32.56 224.267 33.24 224.6C33.92 224.92 34.44 225.387 34.8 226C35.16 226.6 35.34 227.313 35.34 228.14C35.34 228.86 35.1533 229.52 34.78 230.12C34.42 230.707 33.8533 231.173 33.08 231.52V230.52C33.76 230.787 34.3133 231.127 34.74 231.54C35.1667 231.94 35.4733 232.393 35.66 232.9C35.86 233.407 35.96 233.94 35.96 234.5C35.96 235.9 35.5 237 34.58 237.8C33.6733 238.6 32.4267 239 30.84 239H24.54ZM26.9 236.9H31.02C31.8067 236.9 32.4333 236.687 32.9 236.26C33.3667 235.82 33.6 235.24 33.6 234.52C33.6 233.787 33.3667 233.207 32.9 232.78C32.4333 232.34 31.8067 232.12 31.02 232.12H26.9V236.9ZM26.9 230.04H30.88C31.52 230.04 32.0333 229.86 32.42 229.5C32.8067 229.127 33 228.64 33 228.04C33 227.44 32.8067 226.973 32.42 226.64C32.0333 226.307 31.52 226.14 30.88 226.14H26.9V230.04ZM43.3877 239.24C42.3477 239.24 41.3943 238.993 40.5277 238.5C39.6743 238.007 38.9943 237.333 38.4877 236.48C37.981 235.627 37.7277 234.66 37.7277 233.58C37.7277 232.487 37.981 231.52 38.4877 230.68C38.9943 229.827 39.6743 229.16 40.5277 228.68C41.381 228.187 42.3343 227.94 43.3877 227.94C44.4543 227.94 45.4077 228.187 46.2477 228.68C47.101 229.16 47.7743 229.827 48.2677 230.68C48.7743 231.52 49.0277 232.487 49.0277 233.58C49.0277 234.673 48.7743 235.647 48.2677 236.5C47.761 237.353 47.081 238.027 46.2277 238.52C45.3743 239 44.4277 239.24 43.3877 239.24ZM43.3877 237.14C44.0277 237.14 44.5943 236.987 45.0877 236.68C45.581 236.373 45.9677 235.953 46.2477 235.42C46.541 234.873 46.6877 234.26 46.6877 233.58C46.6877 232.9 46.541 232.293 46.2477 231.76C45.9677 231.227 45.581 230.807 45.0877 230.5C44.5943 230.193 44.0277 230.04 43.3877 230.04C42.761 230.04 42.1943 230.193 41.6877 230.5C41.1943 230.807 40.801 231.227 40.5077 231.76C40.2277 232.293 40.0877 232.9 40.0877 233.58C40.0877 234.26 40.2277 234.873 40.5077 235.42C40.801 235.953 41.1943 236.373 41.6877 236.68C42.1943 236.987 42.761 237.14 43.3877 237.14ZM56.4541 239.24C55.4141 239.24 54.4607 238.993 53.5941 238.5C52.7407 238.007 52.0607 237.333 51.5541 236.48C51.0474 235.627 50.7941 234.66 50.7941 233.58C50.7941 232.487 51.0474 231.52 51.5541 230.68C52.0607 229.827 52.7407 229.16 53.5941 228.68C54.4474 228.187 55.4007 227.94 56.4541 227.94C57.5207 227.94 58.4741 228.187 59.3141 228.68C60.1674 229.16 60.8407 229.827 61.3341 230.68C61.8407 231.52 62.0941 232.487 62.0941 233.58C62.0941 234.673 61.8407 235.647 61.3341 236.5C60.8274 237.353 60.1474 238.027 59.2941 238.52C58.4407 239 57.4941 239.24 56.4541 239.24ZM56.4541 237.14C57.0941 237.14 57.6607 236.987 58.1541 236.68C58.6474 236.373 59.0341 235.953 59.3141 235.42C59.6074 234.873 59.7541 234.26 59.7541 233.58C59.7541 232.9 59.6074 232.293 59.3141 231.76C59.0341 231.227 58.6474 230.807 58.1541 230.5C57.6607 230.193 57.0941 230.04 56.4541 230.04C55.8274 230.04 55.2607 230.193 54.7541 230.5C54.2607 230.807 53.8674 231.227 53.5741 231.76C53.2941 232.293 53.1541 232.9 53.1541 233.58C53.1541 234.26 53.2941 234.873 53.5741 235.42C53.8674 235.953 54.2607 236.373 54.7541 236.68C55.2607 236.987 55.8274 237.14 56.4541 237.14ZM68.3005 239.24C67.1938 239.24 66.2205 238.967 65.3805 238.42C64.5538 237.873 63.9738 237.14 63.6405 236.22L65.3805 235.4C65.6738 236.013 66.0738 236.5 66.5805 236.86C67.1005 237.22 67.6738 237.4 68.3005 237.4C68.8338 237.4 69.2671 237.28 69.6005 237.04C69.9338 236.8 70.1005 236.473 70.1005 236.06C70.1005 235.793 70.0271 235.58 69.8805 235.42C69.7338 235.247 69.5471 235.107 69.3205 235C69.1071 234.893 68.8871 234.813 68.6605 234.76L66.9605 234.28C66.0271 234.013 65.3271 233.613 64.8605 233.08C64.4071 232.533 64.1805 231.9 64.1805 231.18C64.1805 230.527 64.3471 229.96 64.6805 229.48C65.0138 228.987 65.4738 228.607 66.0605 228.34C66.6471 228.073 67.3071 227.94 68.0405 227.94C69.0271 227.94 69.9071 228.187 70.6805 228.68C71.4538 229.16 72.0005 229.833 72.3205 230.7L70.5805 231.52C70.3671 231 70.0271 230.587 69.5605 230.28C69.1071 229.973 68.5938 229.82 68.0205 229.82C67.5271 229.82 67.1338 229.94 66.8405 230.18C66.5471 230.407 66.4005 230.707 66.4005 231.08C66.4005 231.333 66.4671 231.547 66.6005 231.72C66.7338 231.88 66.9071 232.013 67.1205 232.12C67.3338 232.213 67.5538 232.293 67.7805 232.36L69.5405 232.88C70.4338 233.133 71.1205 233.533 71.6005 234.08C72.0805 234.613 72.3205 235.253 72.3205 236C72.3205 236.64 72.1471 237.207 71.8005 237.7C71.4671 238.18 71.0005 238.56 70.4005 238.84C69.8005 239.107 69.1005 239.24 68.3005 239.24ZM79.2148 239.12C78.0815 239.12 77.2015 238.8 76.5748 238.16C75.9482 237.52 75.6348 236.62 75.6348 235.46V230.22H73.7348V228.18H74.0348C74.5415 228.18 74.9348 228.033 75.2148 227.74C75.4948 227.447 75.6348 227.047 75.6348 226.54V225.7H77.8948V228.18H80.3548V230.22H77.8948V235.36C77.8948 235.733 77.9548 236.053 78.0748 236.32C78.1948 236.573 78.3882 236.773 78.6548 236.92C78.9215 237.053 79.2682 237.12 79.6948 237.12C79.8015 237.12 79.9215 237.113 80.0548 237.1C80.1882 237.087 80.3148 237.073 80.4348 237.06V239C80.2482 239.027 80.0415 239.053 79.8148 239.08C79.5882 239.107 79.3882 239.12 79.2148 239.12ZM86.3564 239V224.1H91.7764C92.7764 224.1 93.6564 224.287 94.4164 224.66C95.1897 225.02 95.7897 225.553 96.2164 226.26C96.6431 226.953 96.8564 227.787 96.8564 228.76C96.8564 229.72 96.6364 230.547 96.1964 231.24C95.7697 231.933 95.1764 232.467 94.4164 232.84C93.6564 233.213 92.7764 233.4 91.7764 233.4H88.7164V239H86.3564ZM88.7164 231.3H91.8364C92.3697 231.3 92.8364 231.193 93.2364 230.98C93.6364 230.767 93.9497 230.473 94.1764 230.1C94.4031 229.713 94.5164 229.26 94.5164 228.74C94.5164 228.22 94.4031 227.773 94.1764 227.4C93.9497 227.013 93.6364 226.72 93.2364 226.52C92.8364 226.307 92.3697 226.2 91.8364 226.2H88.7164V231.3ZM99.0661 239V228.18H101.226V230.36L101.026 230.04C101.266 229.333 101.653 228.827 102.186 228.52C102.719 228.2 103.359 228.04 104.106 228.04H104.766V230.1H103.826C103.079 230.1 102.473 230.333 102.006 230.8C101.553 231.253 101.326 231.907 101.326 232.76V239H99.0661ZM111.532 239.24C110.492 239.24 109.539 238.993 108.672 238.5C107.819 238.007 107.139 237.333 106.632 236.48C106.126 235.627 105.872 234.66 105.872 233.58C105.872 232.487 106.126 231.52 106.632 230.68C107.139 229.827 107.819 229.16 108.672 228.68C109.526 228.187 110.479 227.94 111.532 227.94C112.599 227.94 113.552 228.187 114.392 228.68C115.246 229.16 115.919 229.827 116.412 230.68C116.919 231.52 117.172 232.487 117.172 233.58C117.172 234.673 116.919 235.647 116.412 236.5C115.906 237.353 115.226 238.027 114.372 238.52C113.519 239 112.572 239.24 111.532 239.24ZM111.532 237.14C112.172 237.14 112.739 236.987 113.232 236.68C113.726 236.373 114.112 235.953 114.392 235.42C114.686 234.873 114.832 234.26 114.832 233.58C114.832 232.9 114.686 232.293 114.392 231.76C114.112 231.227 113.726 230.807 113.232 230.5C112.739 230.193 112.172 230.04 111.532 230.04C110.906 230.04 110.339 230.193 109.832 230.5C109.339 230.807 108.946 231.227 108.652 231.76C108.372 232.293 108.232 232.9 108.232 233.58C108.232 234.26 108.372 234.873 108.652 235.42C108.946 235.953 109.339 236.373 109.832 236.68C110.339 236.987 110.906 237.14 111.532 237.14ZM124.379 239.24C123.339 239.24 122.405 238.993 121.579 238.5C120.765 237.993 120.119 237.313 119.639 236.46C119.172 235.607 118.939 234.647 118.939 233.58C118.939 232.513 119.179 231.553 119.659 230.7C120.139 229.847 120.785 229.173 121.599 228.68C122.412 228.187 123.332 227.94 124.359 227.94C125.225 227.94 125.992 228.113 126.659 228.46C127.325 228.807 127.852 229.287 128.239 229.9L127.899 230.42V223.86H130.139V239H127.999V236.8L128.259 237.22C127.885 237.873 127.352 238.373 126.659 238.72C125.965 239.067 125.205 239.24 124.379 239.24ZM124.599 237.14C125.225 237.14 125.785 236.987 126.279 236.68C126.785 236.373 127.179 235.953 127.459 235.42C127.752 234.873 127.899 234.26 127.899 233.58C127.899 232.9 127.752 232.293 127.459 231.76C127.179 231.227 126.785 230.807 126.279 230.5C125.785 230.193 125.225 230.04 124.599 230.04C123.972 230.04 123.405 230.193 122.899 230.5C122.392 230.807 121.999 231.227 121.719 231.76C121.439 232.293 121.299 232.9 121.299 233.58C121.299 234.26 121.439 234.873 121.719 235.42C121.999 235.953 122.385 236.373 122.879 236.68C123.385 236.987 123.959 237.14 124.599 237.14ZM136.637 239.24C135.824 239.24 135.11 239.06 134.497 238.7C133.884 238.327 133.404 237.813 133.057 237.16C132.724 236.493 132.557 235.727 132.557 234.86V228.18H134.817V234.66C134.817 235.153 134.917 235.587 135.117 235.96C135.317 236.333 135.597 236.627 135.957 236.84C136.317 237.04 136.73 237.14 137.197 237.14C137.677 237.14 138.097 237.033 138.457 236.82C138.817 236.607 139.097 236.307 139.297 235.92C139.51 235.533 139.617 235.08 139.617 234.56V228.18H141.857V239H139.717V236.88L139.957 237.16C139.704 237.827 139.284 238.34 138.697 238.7C138.11 239.06 137.424 239.24 136.637 239.24ZM149.636 239.24C148.556 239.24 147.596 238.993 146.756 238.5C145.929 237.993 145.269 237.313 144.776 236.46C144.296 235.607 144.056 234.64 144.056 233.56C144.056 232.493 144.296 231.533 144.776 230.68C145.256 229.827 145.916 229.16 146.756 228.68C147.596 228.187 148.556 227.94 149.636 227.94C150.369 227.94 151.056 228.073 151.696 228.34C152.336 228.593 152.889 228.947 153.356 229.4C153.836 229.853 154.189 230.38 154.416 230.98L152.436 231.9C152.209 231.34 151.842 230.893 151.336 230.56C150.842 230.213 150.276 230.04 149.636 230.04C149.022 230.04 148.469 230.193 147.976 230.5C147.496 230.793 147.116 231.213 146.836 231.76C146.556 232.293 146.416 232.9 146.416 233.58C146.416 234.26 146.556 234.873 146.836 235.42C147.116 235.953 147.496 236.373 147.976 236.68C148.469 236.987 149.022 237.14 149.636 237.14C150.289 237.14 150.856 236.973 151.336 236.64C151.829 236.293 152.196 235.833 152.436 235.26L154.416 236.2C154.202 236.773 153.856 237.293 153.376 237.76C152.909 238.213 152.356 238.573 151.716 238.84C151.076 239.107 150.382 239.24 149.636 239.24ZM161.305 239.12C160.171 239.12 159.291 238.8 158.665 238.16C158.038 237.52 157.725 236.62 157.725 235.46V230.22H155.825V228.18H156.125C156.631 228.18 157.025 228.033 157.305 227.74C157.585 227.447 157.725 227.047 157.725 226.54V225.7H159.985V228.18H162.445V230.22H159.985V235.36C159.985 235.733 160.045 236.053 160.165 236.32C160.285 236.573 160.478 236.773 160.745 236.92C161.011 237.053 161.358 237.12 161.785 237.12C161.891 237.12 162.011 237.113 162.145 237.1C162.278 237.087 162.405 237.073 162.525 237.06V239C162.338 239.027 162.131 239.053 161.905 239.08C161.678 239.107 161.478 239.12 161.305 239.12ZM164.73 239V228.18H166.99V239H164.73ZM164.73 226.7V224.1H166.99V226.7H164.73ZM172.773 239L168.533 228.18H170.993L174.253 237H173.353L176.613 228.18H179.093L174.833 239H172.773ZM180.629 239V228.18H182.889V239H180.629ZM180.629 226.7V224.1H182.889V226.7H180.629ZM190.211 239.12C189.078 239.12 188.198 238.8 187.571 238.16C186.944 237.52 186.631 236.62 186.631 235.46V230.22H184.731V228.18H185.031C185.538 228.18 185.931 228.033 186.211 227.74C186.491 227.447 186.631 227.047 186.631 226.54V225.7H188.891V228.18H191.351V230.22H188.891V235.36C188.891 235.733 188.951 236.053 189.071 236.32C189.191 236.573 189.384 236.773 189.651 236.92C189.918 237.053 190.264 237.12 190.691 237.12C190.798 237.12 190.918 237.113 191.051 237.1C191.184 237.087 191.311 237.073 191.431 237.06V239C191.244 239.027 191.038 239.053 190.811 239.08C190.584 239.107 190.384 239.12 190.211 239.12ZM194.596 243.4C194.33 243.4 194.063 243.373 193.796 243.32C193.543 243.28 193.31 243.213 193.096 243.12V241.18C193.256 241.22 193.45 241.253 193.676 241.28C193.903 241.32 194.123 241.34 194.336 241.34C194.963 241.34 195.423 241.2 195.716 240.92C196.023 240.653 196.296 240.24 196.536 239.68L197.256 238.04L197.216 239.94L192.536 228.18H194.956L198.416 237.2H197.596L201.036 228.18H203.476L198.696 240.18C198.443 240.82 198.123 241.38 197.736 241.86C197.363 242.353 196.916 242.733 196.396 243C195.89 243.267 195.29 243.4 194.596 243.4ZM211.139 239L207.419 228.18H209.819L212.659 236.8H211.819L214.719 228.18H216.779L219.659 236.8H218.819L221.679 228.18H224.079L220.339 239H218.299L215.379 230.18H216.119L213.199 239H211.139ZM225.629 239V228.18H227.889V239H225.629ZM225.629 226.7V224.1H227.889V226.7H225.629ZM235.211 239.12C234.078 239.12 233.198 238.8 232.571 238.16C231.944 237.52 231.631 236.62 231.631 235.46V230.22H229.731V228.18H230.031C230.538 228.18 230.931 228.033 231.211 227.74C231.491 227.447 231.631 227.047 231.631 226.54V225.7H233.891V228.18H236.351V230.22H233.891V235.36C233.891 235.733 233.951 236.053 234.071 236.32C234.191 236.573 234.384 236.773 234.651 236.92C234.918 237.053 235.264 237.12 235.691 237.12C235.798 237.12 235.918 237.113 236.051 237.1C236.184 237.087 236.311 237.073 236.431 237.06V239C236.244 239.027 236.038 239.053 235.811 239.08C235.584 239.107 235.384 239.12 235.211 239.12ZM238.636 239V223.86H240.896V230.3L240.536 230.02C240.803 229.34 241.23 228.827 241.816 228.48C242.403 228.12 243.083 227.94 243.856 227.94C244.656 227.94 245.363 228.113 245.976 228.46C246.59 228.807 247.07 229.287 247.416 229.9C247.763 230.513 247.936 231.213 247.936 232V239H245.696V232.62C245.696 232.073 245.59 231.613 245.376 231.24C245.176 230.853 244.896 230.56 244.536 230.36C244.176 230.147 243.763 230.04 243.296 230.04C242.843 230.04 242.43 230.147 242.056 230.36C241.696 230.56 241.41 230.853 241.196 231.24C240.996 231.627 240.896 232.087 240.896 232.62V239H238.636ZM24.54 272V257.1H26.9V272H24.54ZM29.7692 272V261.18H31.9292V263.3L31.6692 263.02C31.9359 262.34 32.3626 261.827 32.9492 261.48C33.5359 261.12 34.2159 260.94 34.9892 260.94C35.7892 260.94 36.4959 261.113 37.1092 261.46C37.7226 261.807 38.2026 262.287 38.5492 262.9C38.8959 263.513 39.0692 264.22 39.0692 265.02V272H36.8292V265.62C36.8292 265.073 36.7292 264.613 36.5292 264.24C36.3292 263.853 36.0426 263.56 35.6692 263.36C35.3092 263.147 34.8959 263.04 34.4292 263.04C33.9626 263.04 33.5426 263.147 33.1692 263.36C32.8092 263.56 32.5292 263.853 32.3292 264.24C32.1292 264.627 32.0292 265.087 32.0292 265.62V272H29.7692ZM41.488 272V261.18H43.648V263.3L43.388 263.02C43.6546 262.34 44.0813 261.827 44.668 261.48C45.2546 261.12 45.9346 260.94 46.708 260.94C47.508 260.94 48.2146 261.113 48.828 261.46C49.4413 261.807 49.9213 262.287 50.268 262.9C50.6146 263.513 50.788 264.22 50.788 265.02V272H48.548V265.62C48.548 265.073 48.448 264.613 48.248 264.24C48.048 263.853 47.7613 263.56 47.388 263.36C47.028 263.147 46.6146 263.04 46.148 263.04C45.6813 263.04 45.2613 263.147 44.888 263.36C44.528 263.56 44.248 263.853 44.048 264.24C43.848 264.627 43.748 265.087 43.748 265.62V272H41.488ZM58.4267 272.24C57.3867 272.24 56.4334 271.993 55.5667 271.5C54.7134 271.007 54.0334 270.333 53.5267 269.48C53.0201 268.627 52.7667 267.66 52.7667 266.58C52.7667 265.487 53.0201 264.52 53.5267 263.68C54.0334 262.827 54.7134 262.16 55.5667 261.68C56.4201 261.187 57.3734 260.94 58.4267 260.94C59.4934 260.94 60.4467 261.187 61.2867 261.68C62.1401 262.16 62.8134 262.827 63.3067 263.68C63.8134 264.52 64.0667 265.487 64.0667 266.58C64.0667 267.673 63.8134 268.647 63.3067 269.5C62.8001 270.353 62.1201 271.027 61.2667 271.52C60.4134 272 59.4667 272.24 58.4267 272.24ZM58.4267 270.14C59.0667 270.14 59.6334 269.987 60.1267 269.68C60.6201 269.373 61.0067 268.953 61.2867 268.42C61.5801 267.873 61.7267 267.26 61.7267 266.58C61.7267 265.9 61.5801 265.293 61.2867 264.76C61.0067 264.227 60.6201 263.807 60.1267 263.5C59.6334 263.193 59.0667 263.04 58.4267 263.04C57.8001 263.04 57.2334 263.193 56.7267 263.5C56.2334 263.807 55.8401 264.227 55.5467 264.76C55.2667 265.293 55.1267 265.9 55.1267 266.58C55.1267 267.26 55.2667 267.873 55.5467 268.42C55.8401 268.953 56.2334 269.373 56.7267 269.68C57.2334 269.987 57.8001 270.14 58.4267 270.14ZM69.2178 272L64.9778 261.18H67.4378L70.6978 270H69.7978L73.0578 261.18H75.5378L71.2778 272H69.2178ZM79.9233 272.24C79.1899 272.24 78.5433 272.113 77.9833 271.86C77.4366 271.593 77.0099 271.233 76.7033 270.78C76.3966 270.313 76.2433 269.767 76.2433 269.14C76.2433 268.553 76.3699 268.027 76.6233 267.56C76.8899 267.093 77.2966 266.7 77.8433 266.38C78.3899 266.06 79.0766 265.833 79.9033 265.7L83.6633 265.08V266.86L80.3433 267.44C79.7433 267.547 79.3033 267.74 79.0233 268.02C78.7433 268.287 78.6033 268.633 78.6033 269.06C78.6033 269.473 78.7566 269.813 79.0633 270.08C79.3833 270.333 79.7899 270.46 80.2833 270.46C80.8966 270.46 81.4299 270.327 81.8833 270.06C82.3499 269.793 82.7099 269.44 82.9633 269C83.2166 268.547 83.3433 268.047 83.3433 267.5V264.72C83.3433 264.187 83.1433 263.753 82.7433 263.42C82.3566 263.073 81.8366 262.9 81.1833 262.9C80.5833 262.9 80.0566 263.06 79.6033 263.38C79.1633 263.687 78.8366 264.087 78.6233 264.58L76.7433 263.64C76.9433 263.107 77.2699 262.64 77.7233 262.24C78.1766 261.827 78.7033 261.507 79.3033 261.28C79.9166 261.053 80.5633 260.94 81.2433 260.94C82.0966 260.94 82.8499 261.1 83.5033 261.42C84.1699 261.74 84.6833 262.187 85.0433 262.76C85.4166 263.32 85.6033 263.973 85.6033 264.72V272H83.4433V270.04L83.9033 270.1C83.6499 270.54 83.3233 270.92 82.9233 271.24C82.5366 271.56 82.0899 271.807 81.5833 271.98C81.0899 272.153 80.5366 272.24 79.9233 272.24ZM92.7305 272.12C91.5971 272.12 90.7171 271.8 90.0905 271.16C89.4638 270.52 89.1505 269.62 89.1505 268.46V263.22H87.2505V261.18H87.5505C88.0571 261.18 88.4505 261.033 88.7305 260.74C89.0105 260.447 89.1505 260.047 89.1505 259.54V258.7H91.4105V261.18H93.8705V263.22H91.4105V268.36C91.4105 268.733 91.4705 269.053 91.5905 269.32C91.7105 269.573 91.9038 269.773 92.1705 269.92C92.4371 270.053 92.7838 270.12 93.2105 270.12C93.3171 270.12 93.4371 270.113 93.5705 270.1C93.7038 270.087 93.8305 270.073 93.9505 270.06V272C93.7638 272.027 93.5571 272.053 93.3305 272.08C93.1038 272.107 92.9038 272.12 92.7305 272.12ZM96.1559 272V261.18H98.4159V272H96.1559ZM96.1559 259.7V257.1H98.4159V259.7H96.1559ZM106.278 272.24C105.238 272.24 104.285 271.993 103.418 271.5C102.565 271.007 101.885 270.333 101.378 269.48C100.872 268.627 100.618 267.66 100.618 266.58C100.618 265.487 100.872 264.52 101.378 263.68C101.885 262.827 102.565 262.16 103.418 261.68C104.272 261.187 105.225 260.94 106.278 260.94C107.345 260.94 108.298 261.187 109.138 261.68C109.992 262.16 110.665 262.827 111.158 263.68C111.665 264.52 111.918 265.487 111.918 266.58C111.918 267.673 111.665 268.647 111.158 269.5C110.652 270.353 109.972 271.027 109.118 271.52C108.265 272 107.318 272.24 106.278 272.24ZM106.278 270.14C106.918 270.14 107.485 269.987 107.978 269.68C108.472 269.373 108.858 268.953 109.138 268.42C109.432 267.873 109.578 267.26 109.578 266.58C109.578 265.9 109.432 265.293 109.138 264.76C108.858 264.227 108.472 263.807 107.978 263.5C107.485 263.193 106.918 263.04 106.278 263.04C105.652 263.04 105.085 263.193 104.578 263.5C104.085 263.807 103.692 264.227 103.398 264.76C103.118 265.293 102.978 265.9 102.978 266.58C102.978 267.26 103.118 267.873 103.398 268.42C103.692 268.953 104.085 269.373 104.578 269.68C105.085 269.987 105.652 270.14 106.278 270.14ZM114.125 272V261.18H116.285V263.3L116.025 263.02C116.291 262.34 116.718 261.827 117.305 261.48C117.891 261.12 118.571 260.94 119.345 260.94C120.145 260.94 120.851 261.113 121.465 261.46C122.078 261.807 122.558 262.287 122.905 262.9C123.251 263.513 123.425 264.22 123.425 265.02V272H121.185V265.62C121.185 265.073 121.085 264.613 120.885 264.24C120.685 263.853 120.398 263.56 120.025 263.36C119.665 263.147 119.251 263.04 118.785 263.04C118.318 263.04 117.898 263.147 117.525 263.36C117.165 263.56 116.885 263.853 116.685 264.24C116.485 264.627 116.385 265.087 116.385 265.62V272H114.125Z" fill="white"/>
<path fill-rule="evenodd" clip-rule="evenodd" d="M53.2073 60.2829C53.2073 59.849 53.5604 59.4958 53.9943 59.4958C54.4282 59.4958 54.7814 59.849 54.7814 60.2829V70.2118L61.1789 70.1782C61.6128 70.1748 61.9626 70.5246 61.9659 70.9585C61.9693 71.3924 61.6195 71.7423 61.1856 71.7456L54.0684 71.7826C54.0448 71.786 54.0179 71.786 53.9944 71.786C53.5605 71.786 53.2073 71.4328 53.2073 70.9989L53.2073 60.2829ZM68.8615 97.9477V82.8618H64.2534V97.9477H68.8615ZM62.6826 97.9477H60.8428C60.4089 97.9477 60.0557 98.3009 60.0557 98.7348C60.0557 99.1687 60.4089 99.5218 60.8428 99.5218H94.3203C94.7542 99.5218 95.1073 99.1687 95.1073 98.7348C95.1073 98.3009 94.7542 97.9477 94.3203 97.9477H92.4804L92.4771 73.6862C92.4771 73.2523 92.1239 72.8992 91.69 72.8992H85.5078C85.0739 72.8992 84.7207 73.2523 84.7207 73.6862V97.9477H81.4547V77.8805C81.4547 77.4466 81.1015 77.0934 80.6676 77.0934H74.4854C74.0515 77.0934 73.6983 77.4466 73.6983 77.8805V97.9477H70.4323L70.4357 82.0782C70.4357 81.6443 70.0825 81.2911 69.6486 81.2911H63.4697C63.0358 81.2911 62.6827 81.6443 62.6827 82.0782V84.1333C61.4752 84.9339 60.1466 85.5729 58.7305 86.0203C57.476 86.4138 56.1507 86.656 54.7818 86.7233V85.0617C54.7818 84.6278 54.4286 84.2746 53.9947 84.2746C53.5608 84.2746 53.2076 84.6278 53.2076 85.0617V86.7233C49.4539 86.5383 46.0433 85.0381 43.4328 82.6736L44.6067 81.4997C44.9128 81.1936 44.9128 80.6958 44.6067 80.3863C44.3006 80.0802 43.8028 80.0802 43.4933 80.3863L42.3194 81.5602C39.9548 78.9501 38.4547 75.5394 38.2697 71.7854H39.9313C40.3652 71.7854 40.7184 71.4322 40.7184 70.9983C40.7184 70.5644 40.3652 70.2112 39.9313 70.2112H38.2697C38.4547 66.4575 39.9548 63.0502 42.3194 60.4364L43.4933 61.6103C43.7994 61.9164 44.2972 61.9164 44.6067 61.6103C44.9128 61.3042 44.9128 60.8064 44.6067 60.4969L43.4328 59.323C46.0428 56.9584 49.4535 55.4583 53.2076 55.2733V56.9349C53.2076 57.3688 53.5608 57.722 53.9947 57.722C54.4286 57.722 54.7818 57.3688 54.7818 56.9349V55.2733C58.5355 55.4583 61.9427 56.9584 64.5566 59.323L63.3827 60.4969C63.0766 60.803 63.0766 61.3008 63.3827 61.6103C63.6888 61.9164 64.1866 61.9164 64.4961 61.6103L65.67 60.4364C68.0345 63.0464 69.5347 66.4571 69.7197 70.2112H68.0581C67.6242 70.2112 67.271 70.5644 67.271 70.9983C67.271 71.4322 67.6242 71.7854 68.0581 71.7854H69.7197C69.7096 71.9838 69.6961 72.1823 69.6793 72.3773C65.865 74.3585 61.7985 75.9931 57.614 77.1603C57.1969 77.2747 56.9514 77.7086 57.0657 78.1257C57.1768 78.5259 57.577 78.7681 57.9773 78.684C64.2066 77.7086 69.972 75.862 75.3097 73.225C80.4425 70.6856 85.1819 67.4128 89.5578 63.4639L90.3415 64.3284C90.4323 64.4427 90.5602 64.5302 90.7082 64.5773C91.1185 64.7084 91.5625 64.4831 91.6936 64.0694L92.7733 60.7059L93.8362 57.3927C93.8934 57.2515 93.9069 57.0934 93.8732 56.9387C93.7824 56.5149 93.3653 56.2458 92.9382 56.3366L86.0362 57.83V57.8334C85.9051 57.8603 85.7806 57.9242 85.6763 58.0184C85.3568 58.3076 85.3299 58.8054 85.6191 59.125L86.275 59.8482C84.5798 61.7048 82.6794 63.4977 80.6108 65.1928L78.6567 64.8329C78.3371 63.4 77.8965 62.011 77.3415 60.6723C76.7798 59.3168 76.1038 58.0218 75.3234 56.7974L78.2261 52.5762C78.4279 52.2836 78.4044 51.9035 78.1925 51.6378C77.3751 50.6153 76.4905 49.6466 75.5521 48.7351C74.6171 47.8303 73.6214 46.9793 72.572 46.1889C72.2962 45.9804 71.9262 45.9837 71.6571 46.1721L67.5368 49.0076C66.3124 48.2306 65.0174 47.5512 63.662 46.9894C62.3266 46.4344 60.9341 45.9939 59.5013 45.6743L58.6167 40.888C58.5528 40.5314 58.2568 40.2758 57.9104 40.2489C57.2545 40.1648 56.6087 40.1043 55.9729 40.0639C55.3002 40.0202 54.641 40 53.9918 40C53.3426 40 52.6834 40.0202 52.0107 40.0639C51.3649 40.1043 50.709 40.1682 50.0429 40.2523C49.6965 40.296 49.4308 40.5617 49.3702 40.888L48.4857 45.6743C47.0528 45.9938 45.6637 46.4345 44.325 46.9894C42.9695 47.5511 41.6745 48.2272 40.4502 49.0076L36.3264 46.1721C36.0338 45.9669 35.647 45.9938 35.3846 46.2091C34.3453 46.9928 33.3563 47.8337 32.4314 48.7351C31.493 49.6467 30.6083 50.6154 29.791 51.6379C29.5623 51.9238 29.5656 52.3207 29.7742 52.5999L32.6601 56.7976C31.8832 58.0219 31.2037 59.3169 30.642 60.6724C30.087 62.0077 29.6464 63.4002 29.3269 64.8331L23.962 65.8253C23.6223 65.8858 23.3734 66.1616 23.3263 66.4879C23.2186 67.2312 23.1379 67.9813 23.0841 68.7381C23.0269 69.4949 23 70.2483 23 70.9984C23 71.7451 23.0269 72.4986 23.0841 73.252C23.1379 74.0088 23.222 74.7622 23.3296 75.5056C23.3801 75.8621 23.666 76.1312 24.0057 76.1749L29.3269 77.1604C29.6464 78.5933 30.087 79.9824 30.642 81.3211C31.2037 82.6766 31.8797 83.9716 32.6601 85.1959L29.7574 89.4171C29.5455 89.7232 29.5825 90.1302 29.8247 90.3925C30.6386 91.4084 31.5098 92.3636 32.4314 93.2549C33.3664 94.1631 34.3621 95.0141 35.4148 95.8011C35.6906 96.0096 36.0606 96.0063 36.3297 95.8179L40.4534 92.9824C41.6778 93.7628 42.9761 94.4388 44.3316 95.0006C45.6669 95.5556 47.0561 95.9961 48.4889 96.3157L49.3735 101.102C49.4374 101.459 49.7334 101.714 50.0798 101.741C50.7357 101.825 51.3815 101.886 52.0172 101.926C52.6866 101.97 53.3492 101.99 53.9984 101.99C54.6476 101.99 55.3068 101.97 55.9795 101.926C56.6253 101.886 57.2846 101.822 57.9506 101.738C58.297 101.694 58.5628 101.428 58.6233 101.102L59.5079 96.3157C60.147 96.1744 60.7827 96.0029 61.4184 95.8078C61.849 95.6766 62.2728 95.532 62.6865 95.384L62.6798 97.947L62.6826 97.9477ZM62.6826 93.7063V85.9734C61.5895 86.6091 60.4223 87.1271 59.198 87.514C57.5532 88.032 55.8042 88.3111 53.9945 88.3111C49.2149 88.3111 44.8827 86.3737 41.751 83.2389C38.6196 80.1075 36.6788 75.7785 36.6788 70.9988C36.6788 66.2293 38.6061 61.9103 41.7275 58.7794L41.751 58.7559L41.7746 58.7357C44.906 55.6143 49.2248 53.687 53.994 53.687C58.7669 53.687 63.0886 55.6177 66.2203 58.7424L66.254 58.776C69.3787 61.9075 71.3094 66.2296 71.3094 71.0023C71.3094 71.1705 71.306 71.3387 71.3027 71.5102C72.1032 71.0663 72.8868 70.6054 73.6605 70.1345C75.5206 68.9976 77.2999 67.78 78.9817 66.4951L77.8616 66.2866C77.5353 66.226 77.2931 65.9738 77.2326 65.6677H77.2292C76.9231 64.144 76.4758 62.6775 75.8972 61.2816C75.3053 59.852 74.5788 58.4965 73.7311 57.2252C73.5428 56.9393 73.563 56.576 73.7614 56.317L76.6103 52.1765C75.9376 51.3692 75.2212 50.5956 74.4677 49.8657C73.7109 49.1325 72.9138 48.4362 72.0864 47.7904L67.9997 50.5989C67.7272 50.7873 67.3808 50.7805 67.1218 50.609C65.8503 49.7647 64.4949 49.0349 63.0654 48.4429C61.6695 47.8644 60.203 47.4137 58.6793 47.1109C58.3328 47.0403 58.0839 46.7544 58.0503 46.4214L57.1859 41.746C56.7621 41.7023 56.3282 41.6619 55.8842 41.635C55.2788 41.598 54.6531 41.5779 54.004 41.5779C53.3548 41.5779 52.7258 41.598 52.1204 41.635C51.6764 41.6619 51.2425 41.6989 50.8187 41.746L49.9408 46.4819C49.8803 46.8082 49.628 47.0504 49.322 47.1109V47.1143C47.7983 47.4203 46.3317 47.8677 44.9358 48.4462C43.5063 49.0382 42.1508 49.7647 40.8794 50.6123C40.5935 50.8007 40.2303 50.7805 39.9713 50.5821L35.9115 47.7903C35.0841 48.4361 34.2869 49.129 33.5301 49.8657C32.7767 50.5956 32.0603 51.3692 31.3875 52.1764L34.2566 56.3473C34.445 56.6197 34.4382 56.9662 34.2667 57.2251C33.4225 58.4966 32.6926 59.8521 32.1006 61.2815C31.5221 62.6774 31.0714 64.1439 30.7686 65.6676C30.698 66.0141 30.4121 66.263 30.0791 66.2966L24.805 67.2687C24.7378 67.79 24.6873 68.3182 24.647 68.8495C24.5965 69.5491 24.573 70.2656 24.573 70.9988C24.573 71.7287 24.5999 72.4452 24.6503 73.1414C24.6873 73.6762 24.7411 74.2043 24.8084 74.7291L30.1329 75.7146C30.4592 75.7751 30.7014 76.0274 30.7619 76.3335H30.7653C31.0713 77.8571 31.5187 79.3237 32.0972 80.7196C32.6892 82.1457 33.4157 83.5046 34.2633 84.776C34.4517 85.0619 34.4315 85.4251 34.2331 85.6841L31.3841 89.828C32.0535 90.6286 32.7666 91.3988 33.5267 92.1354C34.2869 92.8687 35.0807 93.565 35.9115 94.2108L39.9982 91.4022C40.2706 91.2139 40.6171 91.2206 40.876 91.3922C42.1475 92.2398 43.5064 92.9663 44.9325 93.5583C46.3283 94.1368 47.7948 94.5875 49.3186 94.8902C49.665 94.9609 49.9139 95.2468 49.9475 95.5798L50.812 100.255C51.2358 100.299 51.6697 100.336 52.117 100.366C52.7224 100.403 53.3481 100.423 53.9972 100.423C54.6464 100.423 55.272 100.403 55.8775 100.366C56.3214 100.336 56.7587 100.302 57.1825 100.255L58.0604 95.5192C58.1209 95.193 58.3732 94.9508 58.6793 94.8903V94.8869C59.4663 94.7288 60.2265 94.5371 60.9563 94.3117C61.5315 94.1368 62.1074 93.935 62.6826 93.7063ZM79.8842 78.6677V97.9479H75.2761V78.6677H79.8842ZM90.9033 97.9479H86.2952V74.4734H90.9033V97.9479ZM87.94 59.3514L87.9333 59.3446C87.9198 59.3312 87.9097 59.3144 87.8963 59.3009L87.6978 59.0823L89.8236 58.6215L91.946 58.1606L91.2834 60.2292L90.6174 62.3011L90.2205 61.8638C90.0792 61.7091 89.8909 61.6217 89.6958 61.6082C89.4671 61.5746 89.2282 61.6385 89.0466 61.8067C84.6269 65.8799 79.8271 69.2401 74.6168 71.82C73.48 72.3817 72.3229 72.9064 71.1457 73.3941L71.149 73.3773C72.2826 72.7685 73.3959 72.1328 74.4823 71.4668C76.9041 69.9834 79.1981 68.3656 81.3238 66.6434L81.3372 66.6333C83.7052 64.7161 85.8646 62.671 87.7649 60.5487C87.8087 60.5218 87.849 60.4915 87.886 60.4579C88.2055 60.1686 88.2293 59.6743 87.94 59.3514Z" fill="white" stroke="white" stroke-width="0.5"/>
<defs>
<linearGradient id="paint0_linear_2388_12409" x1="-2.00001" y1="314" x2="321.5" y2="-9.49999" gradientUnits="userSpaceOnUse">
<stop stop-color="#11296A"/>
<stop offset="1" stop-color="#2150D0"/>
</linearGradient>
<linearGradient id="paint1_linear_2388_12409" x1="-2.00001" y1="314" x2="321.5" y2="-9.49999" gradientUnits="userSpaceOnUse">
<stop stop-color="#11296A"/>
<stop offset="1" stop-color="#2150D0"/>
</linearGradient>
<linearGradient id="paint2_linear_2388_12409" x1="367.787" y1="-139" x2="367.787" y2="205.727" gradientUnits="userSpaceOnUse">
<stop stop-color="white"/>
<stop offset="1" stop-color="white" stop-opacity="0"/>
</linearGradient>
<linearGradient id="paint3_linear_2388_12409" x1="465.787" y1="-128" x2="465.787" y2="216.727" gradientUnits="userSpaceOnUse">
<stop stop-color="white"/>
<stop offset="1" stop-color="white" stop-opacity="0"/>
</linearGradient>
</defs>
</svg>
