<svg width="285" height="300" viewBox="0 0 285 300" fill="none" xmlns="http://www.w3.org/2000/svg">
<rect width="285" height="300" rx="10" transform="matrix(1 0 0 -1 0 300)" fill="url(#paint0_linear_2388_12427)"/>
<mask id="mask0_2388_12427" style="mask-type:alpha" maskUnits="userSpaceOnUse" x="0" y="0" width="285" height="300">
<rect width="285" height="300" rx="10" transform="matrix(1 0 0 -1 0 300)" fill="url(#paint1_linear_2388_12427)"/>
</mask>
<g mask="url(#mask0_2388_12427)">
<rect x="338.605" y="-128" width="58.3621" height="344.727" rx="29.1811" transform="rotate(43.8011 338.605 -128)" fill="url(#paint2_linear_2388_12427)" fill-opacity="0.24"/>
<rect x="436.605" y="-128" width="58.3621" height="344.727" rx="29.1811" transform="rotate(43.8011 436.605 -128)" fill="url(#paint3_linear_2388_12427)" fill-opacity="0.24"/>
</g>
<path d="M24.54 239V224.1H34.36V226.2H26.9V230.48H33.96V232.58H26.9V236.9H34.36V239H24.54ZM36.5317 239V228.18H38.6917V230.3L38.4317 230.02C38.6984 229.34 39.1251 228.827 39.7117 228.48C40.2984 228.12 40.9784 227.94 41.7517 227.94C42.5517 227.94 43.2584 228.113 43.8717 228.46C44.4851 228.807 44.9651 229.287 45.3117 229.9C45.6584 230.513 45.8317 231.22 45.8317 232.02V239H43.5917V232.62C43.5917 232.073 43.4917 231.613 43.2917 231.24C43.0917 230.853 42.8051 230.56 42.4317 230.36C42.0717 230.147 41.6584 230.04 41.1917 230.04C40.7251 230.04 40.3051 230.147 39.9317 230.36C39.5717 230.56 39.2917 230.853 39.0917 231.24C38.8917 231.627 38.7917 232.087 38.7917 232.62V239H36.5317ZM52.4505 239.24C51.3438 239.24 50.3705 238.967 49.5305 238.42C48.7038 237.873 48.1238 237.14 47.7905 236.22L49.5305 235.4C49.8238 236.013 50.2238 236.5 50.7305 236.86C51.2505 237.22 51.8238 237.4 52.4505 237.4C52.9838 237.4 53.4171 237.28 53.7505 237.04C54.0838 236.8 54.2505 236.473 54.2505 236.06C54.2505 235.793 54.1771 235.58 54.0305 235.42C53.8838 235.247 53.6971 235.107 53.4705 235C53.2571 234.893 53.0371 234.813 52.8105 234.76L51.1105 234.28C50.1771 234.013 49.4771 233.613 49.0105 233.08C48.5571 232.533 48.3305 231.9 48.3305 231.18C48.3305 230.527 48.4971 229.96 48.8305 229.48C49.1638 228.987 49.6238 228.607 50.2105 228.34C50.7971 228.073 51.4571 227.94 52.1905 227.94C53.1771 227.94 54.0571 228.187 54.8305 228.68C55.6038 229.16 56.1505 229.833 56.4705 230.7L54.7305 231.52C54.5171 231 54.1771 230.587 53.7105 230.28C53.2571 229.973 52.7438 229.82 52.1705 229.82C51.6771 229.82 51.2838 229.94 50.9905 230.18C50.6971 230.407 50.5505 230.707 50.5505 231.08C50.5505 231.333 50.6171 231.547 50.7505 231.72C50.8838 231.88 51.0571 232.013 51.2705 232.12C51.4838 232.213 51.7038 232.293 51.9305 232.36L53.6905 232.88C54.5838 233.133 55.2705 233.533 55.7505 234.08C56.2305 234.613 56.4705 235.253 56.4705 236C56.4705 236.64 56.2971 237.207 55.9505 237.7C55.6171 238.18 55.1505 238.56 54.5505 238.84C53.9505 239.107 53.2505 239.24 52.4505 239.24ZM62.7448 239.24C61.9315 239.24 61.2182 239.06 60.6048 238.7C59.9915 238.327 59.5115 237.813 59.1648 237.16C58.8315 236.493 58.6648 235.727 58.6648 234.86V228.18H60.9248V234.66C60.9248 235.153 61.0248 235.587 61.2248 235.96C61.4248 236.333 61.7048 236.627 62.0648 236.84C62.4248 237.04 62.8382 237.14 63.3048 237.14C63.7848 237.14 64.2048 237.033 64.5648 236.82C64.9248 236.607 65.2048 236.307 65.4048 235.92C65.6182 235.533 65.7248 235.08 65.7248 234.56V228.18H67.9648V239H65.8248V236.88L66.0648 237.16C65.8115 237.827 65.3915 238.34 64.8048 238.7C64.2182 239.06 63.5315 239.24 62.7448 239.24ZM70.8036 239V228.18H72.9636V230.36L72.7636 230.04C73.0036 229.333 73.3903 228.827 73.9236 228.52C74.4569 228.2 75.0969 228.04 75.8436 228.04H76.5036V230.1H75.5636C74.8169 230.1 74.2103 230.333 73.7436 230.8C73.2903 231.253 73.0636 231.907 73.0636 232.76V239H70.8036ZM83.3297 239.24C82.2497 239.24 81.2897 238.993 80.4497 238.5C79.623 237.993 78.9764 237.313 78.5097 236.46C78.043 235.593 77.8097 234.627 77.8097 233.56C77.8097 232.467 78.043 231.5 78.5097 230.66C78.9897 229.82 79.6297 229.16 80.4297 228.68C81.2297 228.187 82.1364 227.94 83.1497 227.94C83.963 227.94 84.6897 228.08 85.3297 228.36C85.9697 228.64 86.5097 229.027 86.9497 229.52C87.3897 230 87.723 230.553 87.9497 231.18C88.1897 231.807 88.3097 232.473 88.3097 233.18C88.3097 233.353 88.303 233.533 88.2897 233.72C88.2764 233.907 88.2497 234.08 88.2097 234.24H79.5897V232.44H86.9297L85.8497 233.26C85.983 232.607 85.9364 232.027 85.7097 231.52C85.4964 231 85.163 230.593 84.7097 230.3C84.2697 229.993 83.7497 229.84 83.1497 229.84C82.5497 229.84 82.0164 229.993 81.5497 230.3C81.083 230.593 80.723 231.02 80.4697 231.58C80.2164 232.127 80.1164 232.793 80.1697 233.58C80.103 234.313 80.203 234.953 80.4697 235.5C80.7497 236.047 81.1364 236.473 81.6297 236.78C82.1364 237.087 82.7097 237.24 83.3497 237.24C84.003 237.24 84.5564 237.093 85.0097 236.8C85.4764 236.507 85.843 236.127 86.1097 235.66L87.9497 236.56C87.7364 237.067 87.403 237.527 86.9497 237.94C86.5097 238.34 85.9764 238.66 85.3497 238.9C84.7364 239.127 84.063 239.24 83.3297 239.24ZM99.8514 239.24C98.9181 239.24 98.0514 239.067 97.2514 238.72C96.4514 238.36 95.7714 237.873 95.2114 237.26C94.6514 236.647 94.2381 235.94 93.9714 235.14L95.9714 234.3C96.3314 235.22 96.8581 235.927 97.5514 236.42C98.2447 236.913 99.0447 237.16 99.9514 237.16C100.485 237.16 100.951 237.08 101.351 236.92C101.751 236.747 102.058 236.507 102.271 236.2C102.498 235.893 102.611 235.54 102.611 235.14C102.611 234.593 102.458 234.16 102.151 233.84C101.845 233.52 101.391 233.267 100.791 233.08L97.9914 232.2C96.8714 231.853 96.0181 231.327 95.4314 230.62C94.8447 229.9 94.5514 229.06 94.5514 228.1C94.5514 227.26 94.7581 226.527 95.1714 225.9C95.5847 225.26 96.1514 224.76 96.8714 224.4C97.6047 224.04 98.4381 223.86 99.3714 223.86C100.265 223.86 101.078 224.02 101.811 224.34C102.545 224.647 103.171 225.073 103.691 225.62C104.225 226.167 104.611 226.8 104.851 227.52L102.891 228.38C102.598 227.593 102.138 226.987 101.511 226.56C100.898 226.133 100.185 225.92 99.3714 225.92C98.8781 225.92 98.4447 226.007 98.0714 226.18C97.6981 226.34 97.4047 226.58 97.1914 226.9C96.9914 227.207 96.8914 227.567 96.8914 227.98C96.8914 228.46 97.0447 228.887 97.3514 229.26C97.6581 229.633 98.1247 229.913 98.7514 230.1L101.351 230.92C102.538 231.28 103.431 231.8 104.031 232.48C104.631 233.147 104.931 233.98 104.931 234.98C104.931 235.807 104.711 236.54 104.271 237.18C103.845 237.82 103.251 238.327 102.491 238.7C101.731 239.06 100.851 239.24 99.8514 239.24ZM112.641 239.24C111.561 239.24 110.601 238.993 109.761 238.5C108.934 237.993 108.287 237.313 107.821 236.46C107.354 235.593 107.121 234.627 107.121 233.56C107.121 232.467 107.354 231.5 107.821 230.66C108.301 229.82 108.941 229.16 109.741 228.68C110.541 228.187 111.447 227.94 112.461 227.94C113.274 227.94 114.001 228.08 114.641 228.36C115.281 228.64 115.821 229.027 116.261 229.52C116.701 230 117.034 230.553 117.261 231.18C117.501 231.807 117.621 232.473 117.621 233.18C117.621 233.353 117.614 233.533 117.601 233.72C117.587 233.907 117.561 234.08 117.521 234.24H108.901V232.44H116.241L115.161 233.26C115.294 232.607 115.247 232.027 115.021 231.52C114.807 231 114.474 230.593 114.021 230.3C113.581 229.993 113.061 229.84 112.461 229.84C111.861 229.84 111.327 229.993 110.861 230.3C110.394 230.593 110.034 231.02 109.781 231.58C109.527 232.127 109.427 232.793 109.481 233.58C109.414 234.313 109.514 234.953 109.781 235.5C110.061 236.047 110.447 236.473 110.941 236.78C111.447 237.087 112.021 237.24 112.661 237.24C113.314 237.24 113.867 237.093 114.321 236.8C114.787 236.507 115.154 236.127 115.421 235.66L117.261 236.56C117.047 237.067 116.714 237.527 116.261 237.94C115.821 238.34 115.287 238.66 114.661 238.9C114.047 239.127 113.374 239.24 112.641 239.24ZM125.166 239.24C124.086 239.24 123.126 238.993 122.286 238.5C121.46 237.993 120.8 237.313 120.306 236.46C119.826 235.607 119.586 234.64 119.586 233.56C119.586 232.493 119.826 231.533 120.306 230.68C120.786 229.827 121.446 229.16 122.286 228.68C123.126 228.187 124.086 227.94 125.166 227.94C125.9 227.94 126.586 228.073 127.226 228.34C127.866 228.593 128.42 228.947 128.886 229.4C129.366 229.853 129.72 230.38 129.946 230.98L127.966 231.9C127.74 231.34 127.373 230.893 126.866 230.56C126.373 230.213 125.806 230.04 125.166 230.04C124.553 230.04 124 230.193 123.506 230.5C123.026 230.793 122.646 231.213 122.366 231.76C122.086 232.293 121.946 232.9 121.946 233.58C121.946 234.26 122.086 234.873 122.366 235.42C122.646 235.953 123.026 236.373 123.506 236.68C124 236.987 124.553 237.14 125.166 237.14C125.82 237.14 126.386 236.973 126.866 236.64C127.36 236.293 127.726 235.833 127.966 235.26L129.946 236.2C129.733 236.773 129.386 237.293 128.906 237.76C128.44 238.213 127.886 238.573 127.246 238.84C126.606 239.107 125.913 239.24 125.166 239.24ZM136.215 239.24C135.402 239.24 134.688 239.06 134.075 238.7C133.462 238.327 132.982 237.813 132.635 237.16C132.302 236.493 132.135 235.727 132.135 234.86V228.18H134.395V234.66C134.395 235.153 134.495 235.587 134.695 235.96C134.895 236.333 135.175 236.627 135.535 236.84C135.895 237.04 136.308 237.14 136.775 237.14C137.255 237.14 137.675 237.033 138.035 236.82C138.395 236.607 138.675 236.307 138.875 235.92C139.088 235.533 139.195 235.08 139.195 234.56V228.18H141.435V239H139.295V236.88L139.535 237.16C139.282 237.827 138.862 238.34 138.275 238.7C137.688 239.06 137.002 239.24 136.215 239.24ZM144.274 239V228.18H146.434V230.36L146.234 230.04C146.474 229.333 146.861 228.827 147.394 228.52C147.927 228.2 148.567 228.04 149.314 228.04H149.974V230.1H149.034C148.287 230.1 147.681 230.333 147.214 230.8C146.761 231.253 146.534 231.907 146.534 232.76V239H144.274ZM156.8 239.24C155.72 239.24 154.76 238.993 153.92 238.5C153.093 237.993 152.447 237.313 151.98 236.46C151.513 235.593 151.28 234.627 151.28 233.56C151.28 232.467 151.513 231.5 151.98 230.66C152.46 229.82 153.1 229.16 153.9 228.68C154.7 228.187 155.607 227.94 156.62 227.94C157.433 227.94 158.16 228.08 158.8 228.36C159.44 228.64 159.98 229.027 160.42 229.52C160.86 230 161.193 230.553 161.42 231.18C161.66 231.807 161.78 232.473 161.78 233.18C161.78 233.353 161.773 233.533 161.76 233.72C161.747 233.907 161.72 234.08 161.68 234.24H153.06V232.44H160.4L159.32 233.26C159.453 232.607 159.407 232.027 159.18 231.52C158.967 231 158.633 230.593 158.18 230.3C157.74 229.993 157.22 229.84 156.62 229.84C156.02 229.84 155.487 229.993 155.02 230.3C154.553 230.593 154.193 231.02 153.94 231.58C153.687 232.127 153.587 232.793 153.64 233.58C153.573 234.313 153.673 234.953 153.94 235.5C154.22 236.047 154.607 236.473 155.1 236.78C155.607 237.087 156.18 237.24 156.82 237.24C157.473 237.24 158.027 237.093 158.48 236.8C158.947 236.507 159.313 236.127 159.58 235.66L161.42 236.56C161.207 237.067 160.873 237.527 160.42 237.94C159.98 238.34 159.447 238.66 158.82 238.9C158.207 239.127 157.533 239.24 156.8 239.24ZM164.766 241.94V240.84C165.206 240.733 165.546 240.527 165.786 240.22C166.026 239.927 166.172 239.52 166.226 239H165.166V236.4H167.466V238.1C167.466 239.167 167.239 240.027 166.786 240.68C166.332 241.333 165.659 241.753 164.766 241.94ZM180.084 239.24C179.151 239.24 178.284 239.067 177.484 238.72C176.684 238.36 176.004 237.873 175.444 237.26C174.884 236.647 174.471 235.94 174.204 235.14L176.204 234.3C176.564 235.22 177.091 235.927 177.784 236.42C178.478 236.913 179.278 237.16 180.184 237.16C180.718 237.16 181.184 237.08 181.584 236.92C181.984 236.747 182.291 236.507 182.504 236.2C182.731 235.893 182.844 235.54 182.844 235.14C182.844 234.593 182.691 234.16 182.384 233.84C182.078 233.52 181.624 233.267 181.024 233.08L178.224 232.2C177.104 231.853 176.251 231.327 175.664 230.62C175.078 229.9 174.784 229.06 174.784 228.1C174.784 227.26 174.991 226.527 175.404 225.9C175.818 225.26 176.384 224.76 177.104 224.4C177.838 224.04 178.671 223.86 179.604 223.86C180.498 223.86 181.311 224.02 182.044 224.34C182.778 224.647 183.404 225.073 183.924 225.62C184.458 226.167 184.844 226.8 185.084 227.52L183.124 228.38C182.831 227.593 182.371 226.987 181.744 226.56C181.131 226.133 180.418 225.92 179.604 225.92C179.111 225.92 178.678 226.007 178.304 226.18C177.931 226.34 177.638 226.58 177.424 226.9C177.224 227.207 177.124 227.567 177.124 227.98C177.124 228.46 177.278 228.887 177.584 229.26C177.891 229.633 178.358 229.913 178.984 230.1L181.584 230.92C182.771 231.28 183.664 231.8 184.264 232.48C184.864 233.147 185.164 233.98 185.164 234.98C185.164 235.807 184.944 236.54 184.504 237.18C184.078 237.82 183.484 238.327 182.724 238.7C181.964 239.06 181.084 239.24 180.084 239.24ZM192.933 239.24C191.853 239.24 190.893 238.993 190.053 238.5C189.227 237.993 188.567 237.313 188.073 236.46C187.593 235.607 187.353 234.64 187.353 233.56C187.353 232.493 187.593 231.533 188.073 230.68C188.553 229.827 189.213 229.16 190.053 228.68C190.893 228.187 191.853 227.94 192.933 227.94C193.667 227.94 194.353 228.073 194.993 228.34C195.633 228.593 196.187 228.947 196.653 229.4C197.133 229.853 197.487 230.38 197.713 230.98L195.733 231.9C195.507 231.34 195.14 230.893 194.633 230.56C194.14 230.213 193.573 230.04 192.933 230.04C192.32 230.04 191.767 230.193 191.273 230.5C190.793 230.793 190.413 231.213 190.133 231.76C189.853 232.293 189.713 232.9 189.713 233.58C189.713 234.26 189.853 234.873 190.133 235.42C190.413 235.953 190.793 236.373 191.273 236.68C191.767 236.987 192.32 237.14 192.933 237.14C193.587 237.14 194.153 236.973 194.633 236.64C195.127 236.293 195.493 235.833 195.733 235.26L197.713 236.2C197.5 236.773 197.153 237.293 196.673 237.76C196.207 238.213 195.653 238.573 195.013 238.84C194.373 239.107 193.68 239.24 192.933 239.24ZM203.265 239.24C202.531 239.24 201.885 239.113 201.325 238.86C200.778 238.593 200.351 238.233 200.045 237.78C199.738 237.313 199.585 236.767 199.585 236.14C199.585 235.553 199.711 235.027 199.965 234.56C200.231 234.093 200.638 233.7 201.185 233.38C201.731 233.06 202.418 232.833 203.245 232.7L207.005 232.08V233.86L203.685 234.44C203.085 234.547 202.645 234.74 202.365 235.02C202.085 235.287 201.945 235.633 201.945 236.06C201.945 236.473 202.098 236.813 202.405 237.08C202.725 237.333 203.131 237.46 203.625 237.46C204.238 237.46 204.771 237.327 205.225 237.06C205.691 236.793 206.051 236.44 206.305 236C206.558 235.547 206.685 235.047 206.685 234.5V231.72C206.685 231.187 206.485 230.753 206.085 230.42C205.698 230.073 205.178 229.9 204.525 229.9C203.925 229.9 203.398 230.06 202.945 230.38C202.505 230.687 202.178 231.087 201.965 231.58L200.085 230.64C200.285 230.107 200.611 229.64 201.065 229.24C201.518 228.827 202.045 228.507 202.645 228.28C203.258 228.053 203.905 227.94 204.585 227.94C205.438 227.94 206.191 228.1 206.845 228.42C207.511 228.74 208.025 229.187 208.385 229.76C208.758 230.32 208.945 230.973 208.945 231.72V239H206.785V237.04L207.245 237.1C206.991 237.54 206.665 237.92 206.265 238.24C205.878 238.56 205.431 238.807 204.925 238.98C204.431 239.153 203.878 239.24 203.265 239.24ZM211.787 239V223.86H214.047V239H211.787ZM220.13 239.24C219.396 239.24 218.75 239.113 218.19 238.86C217.643 238.593 217.216 238.233 216.91 237.78C216.603 237.313 216.45 236.767 216.45 236.14C216.45 235.553 216.576 235.027 216.83 234.56C217.096 234.093 217.503 233.7 218.05 233.38C218.596 233.06 219.283 232.833 220.11 232.7L223.87 232.08V233.86L220.55 234.44C219.95 234.547 219.51 234.74 219.23 235.02C218.95 235.287 218.81 235.633 218.81 236.06C218.81 236.473 218.963 236.813 219.27 237.08C219.59 237.333 219.996 237.46 220.49 237.46C221.103 237.46 221.636 237.327 222.09 237.06C222.556 236.793 222.916 236.44 223.17 236C223.423 235.547 223.55 235.047 223.55 234.5V231.72C223.55 231.187 223.35 230.753 222.95 230.42C222.563 230.073 222.043 229.9 221.39 229.9C220.79 229.9 220.263 230.06 219.81 230.38C219.37 230.687 219.043 231.087 218.83 231.58L216.95 230.64C217.15 230.107 217.476 229.64 217.93 229.24C218.383 228.827 218.91 228.507 219.51 228.28C220.123 228.053 220.77 227.94 221.45 227.94C222.303 227.94 223.056 228.1 223.71 228.42C224.376 228.74 224.89 229.187 225.25 229.76C225.623 230.32 225.81 230.973 225.81 231.72V239H223.65V237.04L224.11 237.1C223.856 237.54 223.53 237.92 223.13 238.24C222.743 238.56 222.296 238.807 221.79 238.98C221.296 239.153 220.743 239.24 220.13 239.24ZM234.432 239.24C233.592 239.24 232.825 239.067 232.132 238.72C231.452 238.373 230.925 237.873 230.552 237.22L230.812 236.8V239H228.652V223.86H230.912V230.42L230.552 229.9C230.952 229.287 231.485 228.807 232.152 228.46C232.819 228.113 233.579 227.94 234.432 227.94C235.459 227.94 236.379 228.187 237.192 228.68C238.019 229.173 238.665 229.847 239.132 230.7C239.612 231.553 239.852 232.513 239.852 233.58C239.852 234.647 239.612 235.607 239.132 236.46C238.665 237.313 238.025 237.993 237.212 238.5C236.399 238.993 235.472 239.24 234.432 239.24ZM234.212 237.14C234.852 237.14 235.419 236.987 235.912 236.68C236.405 236.373 236.792 235.953 237.072 235.42C237.365 234.873 237.512 234.26 237.512 233.58C237.512 232.9 237.365 232.293 237.072 231.76C236.792 231.227 236.405 230.807 235.912 230.5C235.419 230.193 234.852 230.04 234.212 230.04C233.585 230.04 233.019 230.193 232.512 230.5C232.019 230.807 231.625 231.227 231.332 231.76C231.052 232.293 230.912 232.9 230.912 233.58C230.912 234.26 231.052 234.873 231.332 235.42C231.625 235.953 232.019 236.373 232.512 236.68C233.019 236.987 233.585 237.14 234.212 237.14ZM242.25 239V223.86H244.51V239H242.25ZM252.433 239.24C251.353 239.24 250.393 238.993 249.553 238.5C248.726 237.993 248.079 237.313 247.613 236.46C247.146 235.593 246.913 234.627 246.913 233.56C246.913 232.467 247.146 231.5 247.613 230.66C248.093 229.82 248.733 229.16 249.533 228.68C250.333 228.187 251.239 227.94 252.253 227.94C253.066 227.94 253.793 228.08 254.433 228.36C255.073 228.64 255.613 229.027 256.053 229.52C256.493 230 256.826 230.553 257.053 231.18C257.293 231.807 257.413 232.473 257.413 233.18C257.413 233.353 257.406 233.533 257.393 233.72C257.379 233.907 257.353 234.08 257.313 234.24H248.693V232.44H256.033L254.953 233.26C255.086 232.607 255.039 232.027 254.813 231.52C254.599 231 254.266 230.593 253.813 230.3C253.373 229.993 252.853 229.84 252.253 229.84C251.653 229.84 251.119 229.993 250.653 230.3C250.186 230.593 249.826 231.02 249.573 231.58C249.319 232.127 249.219 232.793 249.273 233.58C249.206 234.313 249.306 234.953 249.573 235.5C249.853 236.047 250.239 236.473 250.733 236.78C251.239 237.087 251.813 237.24 252.453 237.24C253.106 237.24 253.659 237.093 254.113 236.8C254.579 236.507 254.946 236.127 255.213 235.66L257.053 236.56C256.839 237.067 256.506 237.527 256.053 237.94C255.613 238.34 255.079 238.66 254.453 238.9C253.839 239.127 253.166 239.24 252.433 239.24ZM29.76 272.24C28.8267 272.24 27.96 272.067 27.16 271.72C26.36 271.36 25.68 270.873 25.12 270.26C24.56 269.647 24.1467 268.94 23.88 268.14L25.88 267.3C26.24 268.22 26.7667 268.927 27.46 269.42C28.1533 269.913 28.9533 270.16 29.86 270.16C30.3933 270.16 30.86 270.08 31.26 269.92C31.66 269.747 31.9667 269.507 32.18 269.2C32.4067 268.893 32.52 268.54 32.52 268.14C32.52 267.593 32.3667 267.16 32.06 266.84C31.7533 266.52 31.3 266.267 30.7 266.08L27.9 265.2C26.78 264.853 25.9267 264.327 25.34 263.62C24.7533 262.9 24.46 262.06 24.46 261.1C24.46 260.26 24.6667 259.527 25.08 258.9C25.4933 258.26 26.06 257.76 26.78 257.4C27.5133 257.04 28.3467 256.86 29.28 256.86C30.1733 256.86 30.9867 257.02 31.72 257.34C32.4533 257.647 33.08 258.073 33.6 258.62C34.1333 259.167 34.52 259.8 34.76 260.52L32.8 261.38C32.5067 260.593 32.0467 259.987 31.42 259.56C30.8067 259.133 30.0933 258.92 29.28 258.92C28.7867 258.92 28.3533 259.007 27.98 259.18C27.6067 259.34 27.3133 259.58 27.1 259.9C26.9 260.207 26.8 260.567 26.8 260.98C26.8 261.46 26.9533 261.887 27.26 262.26C27.5667 262.633 28.0333 262.913 28.66 263.1L31.26 263.92C32.4467 264.28 33.34 264.8 33.94 265.48C34.54 266.147 34.84 266.98 34.84 267.98C34.84 268.807 34.62 269.54 34.18 270.18C33.7533 270.82 33.16 271.327 32.4 271.7C31.64 272.06 30.76 272.24 29.76 272.24ZM42.6892 272.24C41.6492 272.24 40.6959 271.993 39.8292 271.5C38.9759 271.007 38.2959 270.333 37.7892 269.48C37.2826 268.627 37.0292 267.66 37.0292 266.58C37.0292 265.487 37.2826 264.52 37.7892 263.68C38.2959 262.827 38.9759 262.16 39.8292 261.68C40.6826 261.187 41.6359 260.94 42.6892 260.94C43.7559 260.94 44.7092 261.187 45.5492 261.68C46.4026 262.16 47.0759 262.827 47.5692 263.68C48.0759 264.52 48.3292 265.487 48.3292 266.58C48.3292 267.673 48.0759 268.647 47.5692 269.5C47.0626 270.353 46.3826 271.027 45.5292 271.52C44.6759 272 43.7292 272.24 42.6892 272.24ZM42.6892 270.14C43.3292 270.14 43.8959 269.987 44.3892 269.68C44.8826 269.373 45.2692 268.953 45.5492 268.42C45.8426 267.873 45.9892 267.26 45.9892 266.58C45.9892 265.9 45.8426 265.293 45.5492 264.76C45.2692 264.227 44.8826 263.807 44.3892 263.5C43.8959 263.193 43.3292 263.04 42.6892 263.04C42.0626 263.04 41.4959 263.193 40.9892 263.5C40.4959 263.807 40.1026 264.227 39.8092 264.76C39.5292 265.293 39.3892 265.9 39.3892 266.58C39.3892 267.26 39.5292 267.873 39.8092 268.42C40.1026 268.953 40.4959 269.373 40.9892 269.68C41.4959 269.987 42.0626 270.14 42.6892 270.14ZM50.7356 272V256.86H52.9956V272H50.7356ZM59.698 272.24C58.8846 272.24 58.1713 272.06 57.558 271.7C56.9446 271.327 56.4646 270.813 56.118 270.16C55.7846 269.493 55.618 268.727 55.618 267.86V261.18H57.878V267.66C57.878 268.153 57.978 268.587 58.178 268.96C58.378 269.333 58.658 269.627 59.018 269.84C59.378 270.04 59.7913 270.14 60.258 270.14C60.738 270.14 61.158 270.033 61.518 269.82C61.878 269.607 62.158 269.307 62.358 268.92C62.5713 268.533 62.678 268.08 62.678 267.56V261.18H64.918V272H62.778V269.88L63.018 270.16C62.7646 270.827 62.3446 271.34 61.758 271.7C61.1713 272.06 60.4846 272.24 59.698 272.24ZM72.4367 272.12C71.3034 272.12 70.4234 271.8 69.7967 271.16C69.1701 270.52 68.8567 269.62 68.8567 268.46V263.22H66.9567V261.18H67.2567C67.7634 261.18 68.1567 261.033 68.4367 260.74C68.7167 260.447 68.8567 260.047 68.8567 259.54V258.7H71.1167V261.18H73.5767V263.22H71.1167V268.36C71.1167 268.733 71.1767 269.053 71.2967 269.32C71.4167 269.573 71.6101 269.773 71.8767 269.92C72.1434 270.053 72.4901 270.12 72.9167 270.12C73.0234 270.12 73.1434 270.113 73.2767 270.1C73.4101 270.087 73.5367 270.073 73.6567 270.06V272C73.4701 272.027 73.2634 272.053 73.0367 272.08C72.8101 272.107 72.6101 272.12 72.4367 272.12ZM76.0622 272V261.18H78.3222V272H76.0622ZM76.0622 259.7V257.1H78.3222V259.7H76.0622ZM86.3845 272.24C85.3445 272.24 84.3912 271.993 83.5245 271.5C82.6712 271.007 81.9912 270.333 81.4845 269.48C80.9779 268.627 80.7245 267.66 80.7245 266.58C80.7245 265.487 80.9779 264.52 81.4845 263.68C81.9912 262.827 82.6712 262.16 83.5245 261.68C84.3779 261.187 85.3312 260.94 86.3845 260.94C87.4512 260.94 88.4045 261.187 89.2445 261.68C90.0979 262.16 90.7712 262.827 91.2645 263.68C91.7712 264.52 92.0245 265.487 92.0245 266.58C92.0245 267.673 91.7712 268.647 91.2645 269.5C90.7579 270.353 90.0779 271.027 89.2245 271.52C88.3712 272 87.4245 272.24 86.3845 272.24ZM86.3845 270.14C87.0245 270.14 87.5912 269.987 88.0845 269.68C88.5779 269.373 88.9645 268.953 89.2445 268.42C89.5379 267.873 89.6845 267.26 89.6845 266.58C89.6845 265.9 89.5379 265.293 89.2445 264.76C88.9645 264.227 88.5779 263.807 88.0845 263.5C87.5912 263.193 87.0245 263.04 86.3845 263.04C85.7579 263.04 85.1912 263.193 84.6845 263.5C84.1912 263.807 83.7979 264.227 83.5045 264.76C83.2245 265.293 83.0845 265.9 83.0845 266.58C83.0845 267.26 83.2245 267.873 83.5045 268.42C83.7979 268.953 84.1912 269.373 84.6845 269.68C85.1912 269.987 85.7579 270.14 86.3845 270.14ZM94.4309 272V261.18H96.5909V263.3L96.3309 263.02C96.5976 262.34 97.0243 261.827 97.6109 261.48C98.1976 261.12 98.8776 260.94 99.6509 260.94C100.451 260.94 101.158 261.113 101.771 261.46C102.384 261.807 102.864 262.287 103.211 262.9C103.558 263.513 103.731 264.22 103.731 265.02V272H101.491V265.62C101.491 265.073 101.391 264.613 101.191 264.24C100.991 263.853 100.704 263.56 100.331 263.36C99.9709 263.147 99.5576 263.04 99.0909 263.04C98.6243 263.04 98.2043 263.147 97.8309 263.36C97.4709 263.56 97.1909 263.853 96.9909 264.24C96.7909 264.627 96.6909 265.087 96.6909 265.62V272H94.4309ZM110.35 272.24C109.243 272.24 108.27 271.967 107.43 271.42C106.603 270.873 106.023 270.14 105.69 269.22L107.43 268.4C107.723 269.013 108.123 269.5 108.63 269.86C109.15 270.22 109.723 270.4 110.35 270.4C110.883 270.4 111.316 270.28 111.65 270.04C111.983 269.8 112.15 269.473 112.15 269.06C112.15 268.793 112.076 268.58 111.93 268.42C111.783 268.247 111.596 268.107 111.37 268C111.156 267.893 110.936 267.813 110.71 267.76L109.01 267.28C108.076 267.013 107.376 266.613 106.91 266.08C106.456 265.533 106.23 264.9 106.23 264.18C106.23 263.527 106.396 262.96 106.73 262.48C107.063 261.987 107.523 261.607 108.11 261.34C108.696 261.073 109.356 260.94 110.09 260.94C111.076 260.94 111.956 261.187 112.73 261.68C113.503 262.16 114.05 262.833 114.37 263.7L112.63 264.52C112.416 264 112.076 263.587 111.61 263.28C111.156 262.973 110.643 262.82 110.07 262.82C109.576 262.82 109.183 262.94 108.89 263.18C108.596 263.407 108.45 263.707 108.45 264.08C108.45 264.333 108.516 264.547 108.65 264.72C108.783 264.88 108.956 265.013 109.17 265.12C109.383 265.213 109.603 265.293 109.83 265.36L111.59 265.88C112.483 266.133 113.17 266.533 113.65 267.08C114.13 267.613 114.37 268.253 114.37 269C114.37 269.64 114.196 270.207 113.85 270.7C113.516 271.18 113.05 271.56 112.45 271.84C111.85 272.107 111.15 272.24 110.35 272.24Z" fill="white"/>
<g clip-path="url(#clip0_2388_12427)">
<path d="M96.6666 40H52.3286C51.6446 40 51.0906 40.5569 51.0906 41.2444V68.642H37.238C36.554 68.642 36 69.1988 36 69.8863V98.7556C36 99.0854 36.13 99.4027 36.3621 99.636C36.5942 99.8694 36.9099 100 37.238 100H65.9804C66.3084 100 66.621 99.8693 66.8532 99.636C67.0853 99.4027 67.2184 99.0854 67.2184 98.7556V87.0558H96.6699H96.6668C96.9948 87.0558 97.3105 86.9251 97.5427 86.6918C97.7748 86.4585 97.9048 86.1412 97.9048 85.8114V41.2444C97.9048 40.9146 97.7748 40.5973 97.5427 40.364C97.3105 40.1307 96.9947 40 96.6666 40ZM64.7424 97.5148H38.4759V71.1343H64.7424V97.5148ZM95.4314 84.5702L67.2183 84.5671V69.8832C67.2183 69.5535 67.0852 69.2393 66.8531 69.0059C66.621 68.7726 66.3084 68.6388 65.9803 68.6388H53.5665V42.4884H95.4286L95.4314 84.5702ZM72.8381 64.079L72.835 64.0759C72.3646 63.5782 72.3863 62.7911 72.8815 62.3183L85.3975 50.3724H76.927C76.243 50.3724 75.689 49.8155 75.689 49.128C75.689 48.4405 76.243 47.8836 76.927 47.8836H88.3535C88.4959 47.8836 88.6352 47.9085 88.7683 47.9552H88.7714C88.9416 48.0174 89.0932 48.1169 89.2232 48.2445C89.347 48.372 89.4399 48.5245 89.5018 48.6925V48.6956C89.5513 48.8293 89.5729 48.9724 89.5729 49.1155V49.2275V49.2929L89.5389 60.3181C89.5389 61.0025 88.9849 61.5594 88.3009 61.5594H88.2978C87.9698 61.5563 87.6541 61.4256 87.425 61.1923C87.1929 60.959 87.0629 60.6417 87.0629 60.3119L87.0877 52.1648L74.5717 64.1107C74.0765 64.5836 73.2935 64.5618 72.8231 64.064L72.8381 64.079Z" fill="white"/>
</g>
<defs>
<linearGradient id="paint0_linear_2388_12427" x1="-2.00001" y1="314" x2="321.5" y2="-9.49999" gradientUnits="userSpaceOnUse">
<stop stop-color="#11296A"/>
<stop offset="1" stop-color="#2150D0"/>
</linearGradient>
<linearGradient id="paint1_linear_2388_12427" x1="-2.00001" y1="314" x2="321.5" y2="-9.49999" gradientUnits="userSpaceOnUse">
<stop stop-color="#11296A"/>
<stop offset="1" stop-color="#2150D0"/>
</linearGradient>
<linearGradient id="paint2_linear_2388_12427" x1="367.787" y1="-128" x2="367.787" y2="216.727" gradientUnits="userSpaceOnUse">
<stop stop-color="white"/>
<stop offset="1" stop-color="white" stop-opacity="0"/>
</linearGradient>
<linearGradient id="paint3_linear_2388_12427" x1="465.787" y1="-128" x2="465.787" y2="216.727" gradientUnits="userSpaceOnUse">
<stop stop-color="white"/>
<stop offset="1" stop-color="white" stop-opacity="0"/>
</linearGradient>
<clipPath id="clip0_2388_12427">
<rect width="61.9048" height="60" fill="white" transform="translate(36 40)"/>
</clipPath>
</defs>
</svg>
