<svg width="50" height="41" viewBox="0 0 50 41" fill="none" xmlns="http://www.w3.org/2000/svg">
<path d="M49.7111 29.8931C48.9426 28.1045 46.8613 27.2733 45.0459 28.054L37.1914 31.7724C37.3647 30.3217 36.623 28.8527 35.237 28.1763L25.5657 23.4577C24.5554 22.3829 17.3979 15.3962 8.13418 22.1217C8.00051 22.0127 7.85775 21.9139 7.69725 21.8395C7.19362 21.6061 6.62977 21.5836 6.10898 21.7745L0.523524 23.8234C0.324753 23.8964 0.163124 24.0456 0.0738809 24.2378C-0.0150496 24.43 -0.0240989 24.6497 0.0489191 24.8487L5.55887 39.8677C5.67744 40.191 5.98324 40.3913 6.30869 40.3913C6.40012 40.3913 6.4931 40.3757 6.58391 40.3426L12.1694 38.2938C12.6902 38.1022 13.1055 37.7196 13.3386 37.216C13.5717 36.713 13.5948 36.1488 13.4035 35.6284L13.3573 35.5025L15.7656 34.6679C16.3207 34.4776 16.9214 34.4994 17.4581 34.7334L30.0403 40.2103C30.8435 40.5598 31.7044 40.7345 32.565 40.7345C33.4425 40.7345 34.3196 40.5529 35.1353 40.1903L47.8605 34.5319C48.7273 34.1599 49.3972 33.4722 49.7467 32.596C50.0962 31.7198 50.0837 30.7593 49.7111 29.8931ZM11.8888 36.5451C11.8352 36.6612 11.7394 36.7492 11.6189 36.7935L6.7836 38.5678L1.82378 25.0484L6.65972 23.2742C6.78017 23.2311 6.90998 23.2355 7.02574 23.2898C7.14213 23.3435 7.23012 23.439 7.27443 23.5594L11.9038 36.1794C11.9478 36.2993 11.9425 36.4291 11.8888 36.5451ZM48.2627 32.0037C48.0714 32.4837 47.7047 32.86 47.2208 33.0678L34.4862 38.73C33.279 39.268 31.891 39.2736 30.6781 38.745L18.0959 33.2681C17.1897 32.8743 16.1765 32.8338 15.2426 33.1589L12.8072 34.0029L8.95488 23.5018C17.7578 17.0076 24.1973 24.3083 24.4708 24.6272L24.5791 24.7539L34.5365 29.6117C35.4951 30.0797 35.8945 31.2399 35.4267 32.1985C34.959 33.1558 33.7994 33.5552 32.8403 33.089L23.0329 28.3036C22.636 28.1089 22.1586 28.2743 21.9645 28.6712C21.771 29.0675 21.9358 29.5455 22.3321 29.739L32.1397 34.525C32.6368 34.7672 33.1632 34.882 33.6821 34.882C34.3981 34.882 35.0952 34.6568 35.6838 34.2538L45.7027 29.5099C46.6825 29.0881 47.8227 29.5436 48.2433 30.5234C48.4474 30.9984 48.4543 31.5238 48.2627 32.0037ZM26.1615 6.32943C26.1662 6.36403 26.1775 6.39714 26.1868 6.43119C26.1971 6.46918 26.2061 6.5069 26.2221 6.54321C26.2257 6.5514 26.2262 6.56026 26.2301 6.56837C26.2428 6.59485 26.2627 6.6156 26.278 6.64018C26.2932 6.6646 26.3029 6.69147 26.3209 6.71441L37.252 20.6941C37.2529 20.6953 37.2537 20.6964 37.2546 20.6976L37.2609 20.7055C37.2847 20.736 37.3137 20.7608 37.3412 20.7872C37.3518 20.7973 37.3603 20.8083 37.3715 20.8179C37.3854 20.8299 37.3996 20.8408 37.4143 20.8517C37.4308 20.864 37.4482 20.8734 37.4656 20.8844C37.5116 20.9135 37.5595 20.9376 37.6104 20.9567C37.619 20.96 37.6246 20.9672 37.6334 20.9701C37.6359 20.971 37.6383 20.9706 37.6407 20.9713C37.6508 20.9747 37.6614 20.9756 37.6717 20.9785C37.7423 20.9987 37.815 21.0126 37.8902 21.0126C37.9654 21.0126 38.0382 20.9987 38.1088 20.9785C38.1191 20.9756 38.1297 20.9747 38.1398 20.9713C38.1422 20.9706 38.1446 20.971 38.147 20.9701C38.1559 20.9672 38.1615 20.96 38.1701 20.9567C38.221 20.9376 38.2689 20.9135 38.3149 20.8844C38.3322 20.8734 38.3497 20.864 38.3662 20.8517C38.3809 20.8408 38.3951 20.8299 38.409 20.8179C38.4202 20.8083 38.4287 20.7973 38.4393 20.7872C38.4668 20.7608 38.4958 20.736 38.5196 20.7055L38.5259 20.6976C38.5268 20.6964 38.5276 20.6953 38.5285 20.6941L49.4596 6.71441C49.4776 6.69147 49.4873 6.6646 49.5025 6.64018C49.5177 6.61561 49.5377 6.59486 49.5504 6.56837C49.5543 6.56026 49.5548 6.5514 49.5584 6.54321C49.5744 6.5069 49.5833 6.46918 49.5937 6.43119C49.603 6.39714 49.6143 6.36403 49.619 6.32943C49.624 6.29234 49.622 6.25544 49.6217 6.21795C49.6215 6.18148 49.6233 6.14556 49.6181 6.10952C49.613 6.07383 49.601 6.03978 49.591 6.00475C49.5805 5.96805 49.5718 5.93151 49.556 5.89644C49.5525 5.88868 49.552 5.88022 49.5482 5.87253C49.5347 5.84472 49.5137 5.82292 49.4973 5.79725C49.4819 5.773 49.472 5.74616 49.4537 5.72338L45.1086 0.299555C45.0865 0.271904 45.0596 0.249748 45.0343 0.225566C45.0233 0.214958 45.014 0.203724 45.0023 0.193697C44.9314 0.133006 44.8507 0.0877619 44.764 0.0552342C44.7557 0.052154 44.7503 0.0452896 44.7419 0.0424395C44.7343 0.0399024 44.7266 0.0418135 44.719 0.0395129C44.6436 0.0162642 44.5658 0 44.4851 0H31.2953C31.2146 0 31.1368 0.0163032 31.0614 0.0395519C31.0538 0.0418525 31.0461 0.0399024 31.0385 0.0424395C31.0301 0.0452896 31.0247 0.052154 31.0165 0.0552342C30.9297 0.0877619 30.8491 0.133006 30.7781 0.193697C30.7664 0.203724 30.7572 0.214952 30.7461 0.225566C30.7209 0.249748 30.694 0.271904 30.6719 0.299555L26.3268 5.72338C26.3085 5.74616 26.2986 5.773 26.2831 5.79725C26.2667 5.82292 26.2457 5.84472 26.2322 5.87253C26.2285 5.88022 26.228 5.88868 26.2245 5.89644C26.2087 5.93151 26.2 5.96805 26.1895 6.00475C26.1795 6.03978 26.1675 6.07383 26.1624 6.10952C26.1572 6.14556 26.159 6.18148 26.1587 6.21795C26.1585 6.25543 26.1565 6.29233 26.1615 6.32943ZM41.5277 7.02145L37.8903 17.7299L34.2528 7.02145H41.5277ZM34.8816 5.42382L37.8903 2.00765L40.8989 5.42382H34.8816ZM39.6581 1.59763H43.3701L42.3369 4.63929L39.6581 1.59763ZM33.4436 4.63929L32.4104 1.59763H36.1224L33.4436 4.63929ZM32.5653 7.02145L35.6197 16.0131L28.5887 7.02145H32.5653ZM40.1608 16.0131L43.2152 7.02145H47.1918L40.1608 16.0131ZM43.7578 5.42382L44.7729 2.43552L47.1668 5.42382H43.7578ZM31.0076 2.43552L32.0227 5.42382H28.6137L31.0076 2.43552Z" fill="#3564DF"/>
</svg>
