<svg width="65" height="64" viewBox="0 0 65 64" fill="none" xmlns="http://www.w3.org/2000/svg">
<path fill-rule="evenodd" clip-rule="evenodd" d="M25.2274 36.6698V45.1266L20.8793 40.7834C18.9152 38.8171 15.7378 38.8171 13.7737 40.7834C13.7737 40.7834 13.7731 40.7879 13.7511 40.7901C11.7869 42.7564 11.7869 45.9454 13.7511 47.9117L25.8006 59.9592L27.875 62.3139C28.824 63.3865 30.1921 64 31.6045 64H47.5388C50.2974 64 52.5259 61.7732 52.5259 59.0279V43.5288C52.5259 40.2891 50.7391 37.3098 47.8922 35.7606L42.3966 32.768C46.3469 29.3451 48.8405 24.2957 48.8405 18.6681C48.8405 8.36414 40.4765 0 30.1703 0C19.8641 0 11.5 8.36414 11.5 18.6681C11.5 27.2574 17.3267 34.5004 25.2274 36.6698ZM32.7522 36.2306V19.189C32.7522 17.7214 31.5611 16.5297 30.1045 16.5297C28.6259 16.5297 27.4343 17.7214 27.4343 19.189V47.7903C27.4343 48.2383 27.1693 48.64 26.75 48.8099C26.3528 48.9821 25.8672 48.8872 25.5582 48.5716L19.3351 42.3437C18.2317 41.2403 16.4213 41.2403 15.3179 42.3437V42.3503C14.2144 43.4538 14.2144 45.2458 15.3179 46.3514L27.3901 58.4232L29.5302 60.8552C30.0598 61.451 30.81 61.7931 31.6045 61.7931H47.5388C49.0616 61.7931 50.319 60.555 50.319 59.0279V43.5288C50.319 41.0968 48.9731 38.8612 46.8545 37.6982L34.9591 31.2298V36.2306C34.9591 36.8397 34.4735 37.3341 33.8556 37.3341C33.2597 37.3341 32.7522 36.8397 32.7522 36.2306ZM40.3222 31.6314C44.1622 28.6168 46.6336 23.9294 46.6336 18.6681C46.6336 9.58234 39.2627 2.2069 30.1703 2.2069C21.0999 2.2069 13.7069 9.58234 13.7069 18.6681C13.7069 26.0281 18.5625 32.2692 25.2274 34.3702V29.3628C21.1888 27.4913 18.3858 23.4041 18.3858 18.6681C18.3858 12.1644 23.682 6.88552 30.1703 6.88552C36.6806 6.88552 41.9558 12.1644 41.9558 18.6681C41.9558 23.1901 39.4177 27.1206 35.6659 29.0957L40.3222 31.6314ZM34.9591 26.9594C37.828 25.3021 39.7489 22.208 39.7489 18.6681C39.7489 13.3826 35.4668 9.09241 30.1703 9.09241C24.8958 9.09241 20.5927 13.3826 20.5927 18.6681C20.5927 22.1418 22.4467 25.1873 25.2274 26.8668V19.189C25.2274 16.501 27.4121 14.3228 30.1045 14.3228C32.7969 14.3228 34.9591 16.501 34.9591 19.189V26.9594Z" fill="#3564DF"/>
</svg>
