<svg width="49" height="57" viewBox="0 0 49 57" fill="none" xmlns="http://www.w3.org/2000/svg">
<g clip-path="url(#clip0_2280_4076)">
<path d="M24.5025 27.1259C18.1727 27.1259 12.1854 25.8421 7.65859 23.5035C2.72551 20.9624 0.00585938 17.4306 0.00585938 13.563C0.00585938 9.69535 2.72538 6.16881 7.65859 3.62241C12.1912 1.28916 18.1732 0 24.5025 0C30.8317 0 36.8195 1.28385 41.3463 3.62241C46.2794 6.1635 48.9991 9.69535 48.9991 13.563C48.9991 17.4306 46.2795 20.9624 41.3463 23.5035C36.819 25.8368 30.8317 27.1259 24.5025 27.1259ZM24.5025 3.82479C18.7577 3.82479 13.3818 4.96481 9.37077 7.02648C5.8185 8.8591 3.77886 11.2402 3.77886 13.563C3.77886 15.8857 5.8185 18.2668 9.37077 20.0994C13.3816 22.1664 18.7574 23.3065 24.5025 23.3065C30.2475 23.3065 35.6231 22.1664 39.6341 20.0994C43.1864 18.2668 45.2261 15.8857 45.2261 13.563C45.2261 11.2402 43.1864 8.8591 39.6341 7.02648C35.6233 4.95957 30.2528 3.81947 24.5025 3.81947V3.82479Z" fill="#3564DF"/>
<path d="M24.5027 42.0628C17.4508 42.0628 10.7675 40.438 6.16116 37.5987C2.18725 35.1428 0 31.9199 0 28.4998H0.00527046C0.00527046 27.4451 0.848543 26.5928 1.89204 26.5928C2.9356 26.5928 3.77882 27.4451 3.77882 28.4998C3.77882 30.5348 5.32302 32.6071 8.12701 34.3384C12.1589 36.8208 18.1251 38.2432 24.5027 38.2432C30.8803 38.2432 36.8461 36.8208 40.873 34.3384C43.6768 32.6071 45.2212 30.5347 45.2212 28.4998H45.2265C45.2265 27.4451 46.0697 26.5928 47.1132 26.5928C48.1568 26.5928 49 27.4451 49 28.4998C49 31.9199 46.8128 35.1482 42.8388 37.5987C38.2377 40.4327 31.5548 42.0628 24.5027 42.0628Z" fill="#3564DF"/>
<path d="M24.5027 57C17.4508 57 10.7674 55.3752 6.16115 52.5359C2.18725 50.0801 0 46.8571 0 43.4371V13.5735L0.00527046 13.5682C0.00527046 12.5188 0.848543 11.6611 1.89204 11.6611C2.9356 11.6611 3.77882 12.5188 3.77882 13.5682V43.4317C3.77882 45.4667 5.32302 47.539 8.127 49.2703C12.1537 51.7527 18.1197 53.1751 24.4973 53.1751C30.8746 53.1751 36.8407 51.7527 40.8676 49.2703C43.6714 47.539 45.2158 45.4666 45.2158 43.4317V13.5682H45.2263C45.2263 12.5188 46.0696 11.6611 47.1131 11.6611C48.1566 11.6611 48.9999 12.5188 48.9999 13.5682V43.4317C48.9999 46.8518 46.8126 50.0801 42.8387 52.5306C38.2375 55.3699 31.5547 57 24.5027 57Z" fill="#3564DF"/>
</g>
<defs>
<clipPath id="clip0_2280_4076">
<rect width="49" height="57" fill="white"/>
</clipPath>
</defs>
</svg>
