<svg width="67" height="69" viewBox="0 0 67 69" fill="none" xmlns="http://www.w3.org/2000/svg">
<g clip-path="url(#clip0_2305_5295)">
<path fill-rule="evenodd" clip-rule="evenodd" d="M64.1541 45.1287H49.5561C49.5681 44.3583 49.5741 43.576 49.5741 42.7756C49.5741 41.8823 49.2444 41.0669 48.6988 40.4434V37.212C48.6988 32.9494 52.167 29.4814 56.4295 29.4814C60.6919 29.4814 64.1601 32.9496 64.1601 37.212L64.1541 45.1287ZM44.0371 59.4934C43.6983 60.0719 43.4615 60.7074 43.3266 61.3939H31.4084C31.3574 60.6535 31.2465 59.979 31.0636 59.3585C30.605 57.7908 28.093 54.5234 27.0079 52.626C26.7081 52.1014 26.5432 51.6218 26.4593 51.0223L26.0576 48.1746C26.0546 48.1596 26.0516 48.1446 26.0486 48.1296C25.4971 45.162 23.8484 43.0067 21.1506 41.7267C18.9893 40.6986 18.3358 39.5175 18.6416 38.855C18.9473 38.1925 20.3652 37.653 22.4335 38.5792L27.9791 41.391C28.6716 41.7417 29.4959 41.2351 29.4959 40.4588L29.5229 25.6774C29.5229 24.871 30.1794 24.2146 30.9827 24.2146C31.7891 24.2146 32.4455 24.8711 32.4455 25.6774V38.36C32.4455 38.9385 32.9132 39.4061 33.4917 39.4061C34.0672 39.4061 34.5349 38.9385 34.5349 38.36C34.5349 37.5536 35.1914 36.9002 35.9947 36.9002C36.801 36.9002 37.4545 37.5566 37.4545 38.36V40.5662C37.4545 41.1417 37.9221 41.6094 38.5007 41.6094C39.0762 41.6094 39.5438 41.1418 39.5438 40.5662C39.5438 39.7598 40.2003 39.1034 41.0066 39.1034C41.813 39.1034 42.4664 39.7599 42.4664 40.5662V42.7724C42.4664 43.348 42.9341 43.8186 43.5096 43.8186C44.0882 43.8186 44.5558 43.351 44.5558 42.7724C44.5558 41.9661 45.2123 41.3126 46.0156 41.3126C46.822 41.3126 47.4754 41.9691 47.4754 42.7724C47.4814 48.9385 47.2265 54.0825 44.0371 59.4934ZM45.7907 66.9004H29.0371V63.4832H45.7907V66.9004ZM2.85315 45.1289V37.2126C2.85315 32.95 6.32135 29.4819 10.5838 29.4819C14.5856 29.4819 17.8949 32.5515 18.2753 36.4604C16.0421 37.5814 15.7124 40.3393 18.3143 42.4226V45.1264L2.85315 45.1289ZM10.5807 19.4545C12.769 19.4545 14.5496 21.235 14.5496 23.4233C14.5496 25.6116 12.769 27.3922 10.5807 27.3922C8.39245 27.3922 6.61188 25.6116 6.61188 23.4233C6.61488 21.235 8.39245 19.4545 10.5807 19.4545ZM25.7727 27.7699H27.4243L27.4273 25.6775C27.4273 23.7231 29.019 22.1284 30.9795 22.1284C32.9369 22.1284 34.5316 23.7231 34.5316 25.6805V27.7699H41.2313V19.8504C41.2313 15.5878 37.7631 12.1229 33.5006 12.1229C29.238 12.1229 25.77 15.5881 25.77 19.8504L25.7727 27.7699ZM33.5033 2.09236C35.6916 2.09236 37.4722 3.87592 37.4722 6.0642C37.4722 8.25248 35.6916 10.033 33.5033 10.033C31.315 10.033 29.5345 8.25248 29.5345 6.0642C29.5345 3.87592 31.315 2.09236 33.5033 2.09236ZM52.457 23.4234C52.457 21.2351 54.2376 19.4545 56.4258 19.4545C58.6141 19.4545 60.3947 21.2351 60.3947 23.4234C60.3947 25.6117 58.6141 27.3922 56.4258 27.3922C54.2376 27.3922 52.457 25.6117 52.457 23.4234ZM60.2091 28.1506C61.594 27.0385 62.4843 25.3329 62.4843 23.4234C62.4843 20.084 59.7654 17.3653 56.4261 17.3653C53.0868 17.3653 50.365 20.0841 50.365 23.4234C50.365 25.3329 51.2553 27.0385 52.6402 28.1506C49.1 29.6375 46.603 33.1387 46.603 37.2127V39.2721C45.8506 39.1462 45.0892 39.2661 44.4238 39.6018C43.8152 37.4585 41.3932 36.3914 39.4118 37.3956C38.8213 35.3123 36.5041 34.2301 34.5347 35.1264V29.8566H42.2776C42.8561 29.8566 43.3238 29.389 43.3238 28.8134V19.8504C43.3238 15.7766 40.8298 12.2754 37.2866 10.7914C38.6715 9.67927 39.5618 7.9736 39.5618 6.06412C39.5618 2.72176 36.8429 0 33.5036 0C30.1643 0 27.4425 2.71885 27.4425 6.06412C27.4425 7.9736 28.3328 9.67919 29.7176 10.7914C26.1775 12.2752 23.6805 15.7794 23.6805 19.8504V28.8134C23.6805 29.389 24.1481 29.8566 24.7237 29.8566H27.4185L27.4005 38.7568L23.3508 36.7034C23.3388 36.6974 23.3238 36.6884 23.3088 36.6824C22.2236 36.1938 21.2105 35.987 20.3172 35.996C19.8766 32.4528 17.5384 29.4881 14.355 28.151C15.7429 27.0389 16.6332 25.3332 16.6332 23.4207C16.6332 20.0814 13.9144 17.3626 10.5721 17.3626C7.22976 17.3626 4.51399 20.0814 4.51399 23.4207C4.51399 25.3302 5.40431 27.0358 6.78913 28.148C3.24895 29.6348 0.751953 33.136 0.751953 37.21L0.760946 46.1762C0.760946 46.7517 1.22858 47.2194 1.80712 47.2194H19.358C19.9335 47.2194 20.4042 46.7517 20.4042 46.1762V43.6911C22.4216 44.6954 23.5637 46.2271 23.9923 48.4933L24.391 51.32C24.5139 52.1833 24.7627 52.9088 25.1944 53.6672C26.0037 55.0851 28.7585 58.9129 29.0583 59.9471C29.1872 60.3878 29.2712 60.8674 29.3161 61.398H28.8395C27.7963 61.398 26.9481 62.2463 26.9481 63.2925V67.1055C26.9481 68.1487 27.7964 69 28.8395 69H45.9921C47.0353 69 47.8836 68.1516 47.8836 67.1055V63.2925C47.8836 62.2493 47.0352 61.398 45.9921 61.398H45.4735C45.5635 61.0982 45.6834 60.8194 45.8363 60.5586C48.4801 56.0832 49.2625 51.8564 49.4873 47.2222L65.2011 47.2192C65.7766 47.2192 66.2473 46.7516 66.2473 46.176V37.2129C66.2473 33.1392 63.7503 29.638 60.2101 28.1509L60.2091 28.1506Z" fill="#3564DF"/>
</g>
<defs>
<clipPath id="clip0_2305_5295">
<rect width="65.4953" height="69" fill="white" transform="translate(0.751953)"/>
</clipPath>
</defs>
</svg>
