<svg width="71" height="69" viewBox="0 0 71 69" fill="none" xmlns="http://www.w3.org/2000/svg">
<path d="M70 62.6644C70 62.8924 69.9106 63.1089 69.7489 63.2705L65.0211 67.9637C64.8508 68.134 64.6372 68.2149 64.415 68.2149C64.1927 68.2149 63.9705 68.134 63.8089 67.9637C63.4769 67.6231 63.4769 67.0834 63.8175 66.7515L67.0618 63.5303H52.3243C51.8509 63.5303 51.467 63.1464 51.467 62.673C51.467 62.1997 51.8509 61.8157 52.3243 61.8157H67.0876L63.8434 58.5484C63.5114 58.2078 63.5114 57.668 63.852 57.3361C64.1926 57.0042 64.7324 57.0042 65.0643 57.3448L69.7575 62.0726C69.9105 62.214 70 62.4363 70 62.6644ZM64.6112 33.9564C64.6112 26.1402 61.5892 18.7652 56.099 13.2005C50.9786 8.00508 44.2536 4.93138 37.0345 4.46069L39.1761 2.28728C39.5081 1.94668 39.508 1.40694 39.1675 1.07503C38.8269 0.743093 38.2871 0.743094 37.9552 1.08368L34.431 4.64544C34.2694 4.80707 34.1799 5.02932 34.1799 5.25157C34.1799 5.47959 34.2751 5.69606 34.4397 5.8577L38.0014 9.38192C38.1717 9.54355 38.3853 9.63303 38.6075 9.63303C38.8298 9.63303 39.052 9.54355 39.2194 9.37326C39.5514 9.03266 39.5514 8.49292 39.2108 8.16101L37.2221 6.19537C51.5266 7.31813 62.8902 19.4203 62.8902 33.9561C62.8902 49.3113 50.3953 61.8062 35.0401 61.8062H1.88462C1.41126 61.8062 1.02734 62.1901 1.02734 62.6635C1.02734 63.1369 1.41123 63.5208 1.88462 63.5208H35.0401C51.3478 63.5208 64.6112 50.2589 64.6112 33.9564ZM16.6717 57.1226C16.8276 57.2496 17.018 57.3073 17.2028 57.3073C17.4539 57.3073 17.705 57.1976 17.8753 56.9811C18.1697 56.6117 18.112 56.0719 17.7339 55.7775C11.0318 50.458 7.18967 42.5001 7.18967 33.9569C7.18967 21.026 15.9612 9.89069 28.5138 6.87743C28.9727 6.76775 29.2613 6.30016 29.1488 5.84414C29.0391 5.38521 28.5715 5.09659 28.1155 5.20914C21.7684 6.73025 16.0188 10.3959 11.926 15.525C7.70622 20.807 5.47502 27.1857 5.47502 33.96C5.47791 43.0316 9.5563 51.4773 16.6709 57.1232L16.6717 57.1226ZM25.9745 23.1329C27.1925 22.1197 28.5607 21.3289 30.0529 20.7834L30.2752 16.7944C30.2983 16.3355 30.6735 15.9805 31.1324 15.9805H38.7816C39.2405 15.9805 39.6158 16.3355 39.6389 16.7944L39.8611 20.7834C40.6 21.0576 41.3159 21.3953 41.997 21.7878C42.6782 22.1804 43.3334 22.6364 43.9395 23.1329L47.507 21.3289C47.914 21.1211 48.4076 21.2712 48.6385 21.6695L52.4658 28.2908C52.6938 28.6833 52.5755 29.1913 52.1916 29.4367L48.8434 31.6245C49.109 33.1918 49.109 34.7735 48.8434 36.3379L52.1916 38.5257C52.5755 38.7768 52.6938 39.279 52.4658 39.6716L48.6385 46.2929C48.4104 46.6854 47.914 46.8326 47.507 46.6335L43.9395 44.8295C42.7215 45.8426 41.3534 46.6335 39.8611 47.179L39.6389 51.1679C39.6158 51.6269 39.2406 51.9819 38.7816 51.9819L31.1384 51.979C30.6794 51.979 30.3042 51.624 30.2811 51.165L30.0588 47.1761C29.3199 46.9019 28.6041 46.5642 27.9229 46.1717C27.2418 45.7791 26.5866 45.3231 25.9804 44.8266L22.4129 46.6306C22.0059 46.8384 21.5123 46.6883 21.2815 46.29L17.4542 39.6687C17.2262 39.2762 17.3445 38.7682 17.7284 38.5228L21.0765 36.335C20.811 34.7677 20.811 33.186 21.0765 31.6216L17.7284 29.4338C17.3445 29.1827 17.2262 28.6805 17.4542 28.2879L21.2815 21.6666C21.5095 21.2741 22.006 21.1269 22.4129 21.326L25.9745 23.1329ZM25.7148 24.9224L22.3608 23.231L19.3474 28.4466L22.4964 30.5075C22.7908 30.7009 22.9409 31.0617 22.8659 31.4023C22.5051 33.1081 22.5051 34.8457 22.8659 36.5602C22.9409 36.9066 22.7908 37.2616 22.4964 37.4549L19.3474 39.5158L22.3608 44.7315L25.7148 43.04C26.0323 42.8784 26.4104 42.9304 26.6759 43.167C27.3196 43.7443 28.0267 44.261 28.7743 44.6882C29.5276 45.124 30.3272 45.479 31.1468 45.7446C31.4874 45.8543 31.7154 46.1573 31.7385 46.5124L31.9463 50.2646H37.9672L38.1751 46.5037C38.1982 46.1487 38.4348 45.8456 38.7668 45.7359C40.438 45.1962 41.936 44.3245 43.2377 43.1584C43.5033 42.9217 43.8814 42.8698 44.1989 43.0314L47.5529 44.7228L50.5662 39.5072L47.4172 37.4463C47.1228 37.2529 46.9727 36.8921 47.0478 36.5516C47.4086 34.8457 47.4086 33.1081 47.0478 31.3936C46.9727 31.0473 47.1228 30.6922 47.4172 30.4989L50.5662 28.438L47.5529 23.2223L44.1989 24.9138C43.8814 25.0754 43.5033 25.0235 43.2377 24.7868C42.5941 24.2095 41.8869 23.6928 41.1394 23.2657C40.3861 22.8298 39.5865 22.4748 38.7668 22.2092C38.4262 22.0996 38.1982 21.7965 38.1751 21.4414L37.9673 17.6892H31.9464L31.7386 21.4414C31.7155 21.7965 31.4788 22.0995 31.1469 22.2092C29.4757 22.749 27.9777 23.6207 26.6759 24.7868C26.419 25.0321 26.0351 25.0841 25.7148 24.9224ZM28.4943 37.7173C27.4956 35.9884 27.2301 33.9795 27.7467 32.0485C28.2634 30.1204 29.4988 28.5098 31.2277 27.5112C32.9566 26.5125 34.9655 26.247 36.8965 26.7636C38.8246 27.2803 40.4352 28.5157 41.4338 30.2445C42.4325 31.9734 42.698 33.9824 42.1814 35.9134C41.6647 37.8415 40.4293 39.4521 38.7004 40.4507C37.5488 41.1146 36.2701 41.4552 34.977 41.4552C34.3276 41.4552 33.6753 41.3657 33.0345 41.1954C31.1035 40.6816 29.4929 39.4491 28.4943 37.7173ZM29.9808 36.863C30.7486 38.1936 31.9897 39.1461 33.4762 39.5444C34.9626 39.9427 36.5126 39.7378 37.8432 38.9672C39.1739 38.1994 40.1263 36.9582 40.5247 35.4718C40.923 33.9853 40.718 32.4353 39.9474 31.1047C39.1796 29.774 37.9384 28.8216 36.452 28.4233C35.9555 28.2905 35.4533 28.2241 34.9511 28.2241C33.9524 28.2241 32.9711 28.4839 32.085 29.0005C30.7543 29.7683 29.8019 31.0095 29.4036 32.4959C29.0052 33.9795 29.2101 35.5237 29.9808 36.863Z" fill="#3564DF" stroke="#3564DF"/>
<rect x="14" y="15" width="41" height="38" rx="13" fill="white"/>
<path d="M26.636 23.1524C27.854 22.1393 29.2222 21.3484 30.7144 20.8029L30.9366 16.814C30.9597 16.3551 31.3349 16 31.7939 16H39.4431C39.902 16 40.2772 16.355 40.3003 16.814L40.5226 20.8029C41.2615 21.0771 41.9774 21.4148 42.6585 21.8074C43.3396 22.1999 43.9949 22.6559 44.601 23.1524L48.1685 21.3484C48.5755 21.1406 49.0691 21.2907 49.2999 21.689L53.1272 28.3103C53.3553 28.7028 53.2369 29.2109 52.853 29.4562L49.5049 31.644C49.7704 33.2113 49.7704 34.793 49.5049 36.3574L52.853 38.5453C53.2369 38.7964 53.3553 39.2986 53.1272 39.6912L49.2999 46.3124C49.0719 46.705 48.5754 46.8522 48.1685 46.653L44.601 44.849C43.383 45.8622 42.0148 46.653 40.5226 47.1985L40.3003 51.1875C40.2773 51.6464 39.902 52.0014 39.4431 52.0014L31.7998 51.9985C31.3409 51.9985 30.9657 51.6435 30.9425 51.1846L30.7203 47.1957C29.9814 46.9215 29.2655 46.5838 28.5844 46.1912C27.9032 45.7986 27.248 45.3426 26.6419 44.8462L23.0744 46.6501C22.6674 46.8579 22.1738 46.7079 21.943 46.3095L18.1157 39.6883C17.8876 39.2957 18.006 38.7877 18.3899 38.5424L21.738 36.3545C21.4724 34.7872 21.4724 33.2055 21.738 31.6411L18.3899 29.4533C18.006 29.2022 17.8876 28.7 18.1157 28.3074L21.943 21.6861C22.171 21.2936 22.6674 21.1464 23.0744 21.3455L26.636 23.1524ZM26.3762 24.942L23.0222 23.2505L20.0089 28.4662L23.1579 30.5271C23.4523 30.7204 23.6024 31.0812 23.5274 31.4218C23.1666 33.1276 23.1666 34.8652 23.5274 36.5797C23.6024 36.9261 23.4523 37.2811 23.1579 37.4745L20.0089 39.5354L23.0222 44.751L26.3762 43.0596C26.6937 42.8979 27.0718 42.9499 27.3374 43.1866C27.981 43.7638 28.6882 44.2805 29.4357 44.7077C30.189 45.1435 30.9886 45.4985 31.8083 45.7641C32.1489 45.8738 32.3769 46.1768 32.4 46.5319L32.6078 50.2841H38.6287L38.8365 46.5233C38.8596 46.1682 39.0963 45.8652 39.4282 45.7555C41.0994 45.2157 42.5975 44.344 43.8992 43.1779C44.1648 42.9413 44.5429 42.8893 44.8604 43.0509L48.2143 44.7424L51.2277 39.5267L48.0787 37.4658C47.7843 37.2724 47.6342 36.9116 47.7092 36.5711C48.07 34.8652 48.07 33.1276 47.7092 31.4131C47.6342 31.0668 47.7843 30.7118 48.0787 30.5184L51.2277 28.4575L48.2143 23.2419L44.8604 24.9333C44.5429 25.0949 44.1648 25.043 43.8992 24.8063C43.2556 24.229 42.5484 23.7124 41.8009 23.2852C41.0475 22.8494 40.248 22.4943 39.4283 22.2288C39.0877 22.1191 38.8597 21.816 38.8366 21.461L38.6288 17.7087H32.6079L32.4001 21.461C32.377 21.816 32.1403 22.1191 31.8084 22.2288C30.1372 22.7685 28.6391 23.6402 27.3374 24.8063C27.0805 25.0516 26.6966 25.1036 26.3762 24.942ZM29.1558 37.7369C28.1571 36.008 27.8916 33.999 28.4082 32.068C28.9249 30.1399 30.1602 28.5293 31.8891 27.5307C33.618 26.532 35.6269 26.2665 37.5579 26.7832C39.486 27.2998 41.0966 28.5352 42.0953 30.2641C43.094 31.993 43.3595 34.0019 42.8428 35.9329C42.3262 37.861 41.0908 39.4716 39.3619 40.4702C38.2102 41.1341 36.9316 41.4747 35.6385 41.4747C34.989 41.4747 34.3368 41.3852 33.696 41.2149C31.765 40.7012 30.1544 39.4686 29.1558 37.7369ZM30.6422 36.8825C31.41 38.2132 32.6512 39.1656 34.1376 39.564C35.6241 39.9623 37.1741 39.7573 38.5047 38.9867C39.8353 38.2189 40.7878 36.9777 41.1861 35.4913C41.5844 34.0048 41.3795 32.4548 40.6088 31.1242C39.841 29.7936 38.5999 28.8411 37.1134 28.4428C36.617 28.31 36.1147 28.2436 35.6126 28.2436C34.6139 28.2436 33.6325 28.5034 32.7464 29.0201C31.4158 29.7879 30.4634 31.029 30.065 32.5155C29.6667 33.999 29.8716 35.5433 30.6422 36.8825Z" fill="#11296A" stroke="#11296A"/>
</svg>
