<svg width="50" height="40" viewBox="0 0 50 40" fill="none" xmlns="http://www.w3.org/2000/svg">
<path d="M49.9019 38.1027L40.3195 21.5057C40.0566 21.0511 39.3093 21.0511 39.0465 21.5057L35.2952 28.0037L25.6462 11.2915V8.12755C26.4402 8.0383 27.9827 7.94418 29.9278 8.21852C30.9815 8.36717 31.9498 8.4171 32.7739 8.4171C34.3896 8.4171 35.4513 8.22598 35.5173 8.21393C35.7613 8.16859 35.9662 8.00329 36.0614 7.77429C36.1573 7.54472 36.1303 7.283 35.9908 7.07753L34.036 4.20787L35.9908 1.3382C36.1533 1.09944 36.1607 0.787219 36.0103 0.540999C35.8594 0.294778 35.581 0.155314 35.2918 0.19549C35.2591 0.20008 31.9974 0.602408 30.1872 0.206393C28.1239 -0.242999 24.9472 0.178841 24.8129 0.196637C24.7755 0.201656 24.7443 0.220309 24.709 0.230641C24.67 0.242119 24.6314 0.250442 24.5954 0.267802C24.5466 0.291334 24.5055 0.323476 24.4636 0.356763C24.4346 0.379578 24.4038 0.398086 24.3786 0.42492C24.3383 0.467823 24.3098 0.518613 24.2807 0.570126C24.2651 0.597818 24.2441 0.621062 24.2322 0.650765C24.1978 0.735994 24.177 0.827682 24.177 0.92439V11.2915L14.6164 27.8507L10.9535 21.5057C10.8221 21.2784 10.5793 21.1383 10.317 21.1383C10.0547 21.1383 9.81196 21.2784 9.68053 21.5057L0.0981444 38.1027C-0.0327148 38.33 -0.0327148 38.61 0.0981444 38.8373C0.229574 39.0646 0.47235 39.2046 0.734639 39.2046H8.95854C9.01701 39.2046 9.06888 39.1843 9.1234 39.1714C9.19109 39.1917 9.26129 39.2046 9.33389 39.2046H40.4893C40.5835 39.2046 40.6727 39.1811 40.7577 39.1474C40.845 39.184 40.9407 39.2046 41.0415 39.2046H49.2654C49.5276 39.2046 49.7704 39.0646 49.9019 38.8373C50.0327 38.61 50.0327 38.33 49.9019 38.1027ZM24.9116 12.9581L28.3539 18.9201L27.6768 20.3159L25.6382 20.3044H25.6342C25.3828 20.3044 25.1481 20.433 25.0138 20.6459L23.0509 23.7451L20.4445 20.6951L24.9116 12.9581ZM29.8738 1.6418C31.0653 1.90237 32.7033 1.87137 33.9011 1.79562L32.5398 3.79405C32.3699 4.04371 32.3699 4.37201 32.5398 4.62167L34.0911 6.89904C33.1631 6.96561 31.7495 6.99259 30.1333 6.76416C29.0812 6.61551 28.1394 6.56616 27.3497 6.56616C26.6552 6.56616 26.0778 6.60461 25.6462 6.64823V1.58154C26.6369 1.48569 28.5687 1.35713 29.8738 1.6418ZM10.317 23.3422L13.7679 29.3203L8.90947 37.7354H2.00705L10.317 23.3422ZM10.6063 37.7354L19.6655 22.0446L22.5803 25.456C22.7203 25.6202 22.9247 25.7137 23.1387 25.7137C23.156 25.7137 23.1737 25.7132 23.191 25.712C23.4234 25.6954 23.6346 25.5691 23.7592 25.3723L26.0371 21.776L28.1314 21.788H28.1354C28.4166 21.788 28.6732 21.6273 28.7966 21.3742L29.2415 20.4575L39.2169 37.7354L10.6063 37.7354ZM41.0415 37.7354C41.0009 37.7354 40.9658 37.7521 40.9271 37.7585L36.1437 29.4736L39.683 23.3422L47.993 37.7354H41.0415Z" fill="#3564DF"/>
</svg>
