<svg width="67" height="60" viewBox="0 0 67 60" fill="none" xmlns="http://www.w3.org/2000/svg">
<path d="M63.0922 3.10436H3.10233V11.001H63.0922V3.10436ZM56.4884 8.35258C55.6312 8.35258 54.9362 7.65755 54.9362 6.80041C54.9362 5.94326 55.6312 5.24823 56.4884 5.24823H59.5238C60.381 5.24823 61.076 5.94326 61.076 6.80041C61.076 7.65755 60.381 8.35258 59.5238 8.35258H56.4884ZM33.5421 27.1449C33.7224 26.308 34.5471 25.7771 35.384 25.9575C36.2209 26.1378 36.7518 26.9625 36.5714 27.7994L32.6525 45.7548C32.4721 46.5917 31.6474 47.1226 30.8105 46.9423C29.9737 46.7619 29.4428 45.9372 29.6231 45.1003L33.5421 27.1469V27.1449ZM41.3029 28.6302C40.6626 28.0648 40.6039 27.0881 41.1692 26.4499C41.7346 25.8095 42.7113 25.7508 43.3495 26.3161L53.5279 35.2928C54.1682 35.8582 54.227 36.8349 53.6616 37.4752C53.615 37.5279 53.5664 37.5765 53.5157 37.6211L43.3516 46.5856C42.7133 47.151 41.7366 47.0922 41.1712 46.4519C40.6059 45.8136 40.6646 44.8369 41.305 44.2715L50.1702 36.4519L41.305 28.6322L41.3029 28.6302ZM22.843 26.3141C23.4813 25.7487 24.458 25.8075 25.0233 26.4478C25.5887 27.0861 25.5299 28.0628 24.8896 28.6282L16.0243 36.4478L24.8896 44.2675C25.5299 44.8328 25.5887 45.8095 25.0233 46.4478C24.458 47.0861 23.4813 47.1469 22.843 46.5816L12.6788 37.617C12.6261 37.5724 12.5775 37.5238 12.5309 37.4711C11.9656 36.8308 12.0243 35.8541 12.6646 35.2888L22.843 26.3121V26.3141ZM3.10233 14.1033V56.8977H63.0922V14.1033H3.10233ZM1.55218 0H64.6424C65.4995 0 66.1945 0.695036 66.1945 1.55218V12.5512V58.4478C66.1945 59.305 65.4995 60 64.6424 60H1.55218C0.695036 60 0 59.305 0 58.4478V12.5512V1.55218C0 0.695036 0.695036 0 1.55218 0Z" fill="#3564DF"/>
<rect x="3.5293" y="14.1172" width="59.1176" height="42.3529" fill="white"/>
<path d="M44.315 26.617C43.6527 25.9636 42.5829 25.9636 41.9206 26.617C41.2583 27.2705 41.2583 28.3261 41.9206 28.9795L48.5775 35.5475L41.9206 42.1155C41.2583 42.7689 41.2583 43.8245 41.9206 44.478C42.2602 44.8131 42.6847 44.9639 43.1263 44.9639C43.5678 44.9639 43.9924 44.7963 44.332 44.478L52.1947 36.7204C52.857 36.0669 52.857 35.0113 52.1947 34.3579L44.315 26.617Z" fill="#11296A"/>
<path d="M24.8711 26.617C24.2088 25.9636 23.1389 25.9636 22.4766 26.617L14.6139 34.3746C13.9516 35.0281 13.9516 36.0837 14.6139 36.7371L22.4766 44.4947C22.8163 44.8298 23.2408 44.9806 23.6823 44.9806C24.1239 44.9806 24.5484 44.8131 24.8881 44.4947C25.5504 43.8413 25.5504 42.7857 24.8881 42.1323L18.2141 35.5475L24.8711 28.9795C25.5334 28.3261 25.5334 27.2705 24.8711 26.617Z" fill="#11296A"/>
<path d="M37.625 23.0311C36.7249 22.7295 35.7739 23.2154 35.4853 24.0867L28.098 45.9688C27.8094 46.8401 28.2849 47.7951 29.1679 48.0967C29.3547 48.1637 29.5245 48.1805 29.7113 48.1805C30.4246 48.1805 31.0869 47.7281 31.3246 47.0411L38.7119 25.159C39.0005 24.271 38.525 23.3159 37.625 23.0311Z" fill="#11296A"/>
</svg>
