<svg width="85" height="60" viewBox="0 0 85 60" fill="none" xmlns="http://www.w3.org/2000/svg">
<path d="M53.3746 29.4393C52.7123 28.7859 51.6424 28.7859 50.9801 29.4393C50.3178 30.0928 50.3178 31.1483 50.9801 31.8018L57.6371 38.3698L50.9801 44.9378C50.3178 45.5912 50.3178 46.6468 50.9801 47.3002C51.3198 47.6353 51.7443 47.7861 52.1859 47.7861C52.6274 47.7861 53.0519 47.6186 53.3916 47.3002L61.2543 39.5426C61.9166 38.8892 61.9166 37.8336 61.2543 37.1802L53.3746 29.4393Z" fill="#11296A"/>
<path d="M33.9307 29.4393C33.2684 28.7859 32.1985 28.7859 31.5362 29.4393L23.6735 37.1969C23.0112 37.8504 23.0112 38.9059 23.6735 39.5594L31.5362 47.317C31.8758 47.6521 32.3004 47.8029 32.7419 47.8029C33.1834 47.8029 33.608 47.6353 33.9476 47.317C34.6099 46.6635 34.6099 45.608 33.9476 44.9545L27.2737 38.3698L33.9307 31.8018C34.593 31.1483 34.593 30.0928 33.9307 29.4393Z" fill="#11296A"/>
<path d="M46.6836 25.8534C45.7835 25.5518 44.8325 26.0377 44.5438 26.9089L37.1566 48.7911C36.8679 49.6623 37.3434 50.6174 38.2265 50.919C38.4133 50.986 38.5831 51.0028 38.7699 51.0028C39.4832 51.0028 40.1455 50.5504 40.3832 49.8634L47.7704 27.9812C48.0591 27.0932 47.5836 26.1382 46.6836 25.8534Z" fill="#11296A"/>
<path d="M66.0433 24.764C66.0773 24.2614 66.0943 23.7922 66.0943 23.3231C66.0943 10.4552 55.4805 0 42.4552 0C29.4299 0 18.8161 10.4719 18.8161 23.3231C18.8161 23.7922 18.8331 24.2781 18.8671 24.7808C18.5275 24.764 18.2048 24.7473 17.8821 24.7473C8.01554 24.7305 0 32.6389 0 42.3736C0 52.0916 8.01554 60 17.8652 60H67.1472C76.9288 60 84.8934 52.0916 84.8934 42.3736C84.9104 32.3206 76.3345 24.1441 66.0433 24.764ZM67.1641 56.649H17.8652C9.88357 56.649 3.39642 50.2485 3.39642 42.3736C3.39642 34.4987 9.88357 28.0983 17.8652 28.0983C18.6973 28.0983 19.5464 28.1821 20.4804 28.3496C21.0238 28.4502 21.5842 28.2826 21.9748 27.8972C22.3654 27.5119 22.5522 26.9757 22.4673 26.4395C22.2805 25.2834 22.1956 24.2614 22.1956 23.3231C22.1956 12.315 31.281 3.35102 42.4382 3.35102C53.5955 3.35102 62.6809 12.315 62.6809 23.3231C62.6809 24.2781 62.596 25.2834 62.4092 26.4228C62.3242 26.959 62.511 27.5119 62.9016 27.8805C63.2922 28.2658 63.8526 28.4334 64.396 28.3329C65.3131 28.1653 66.1792 28.0815 67.0113 28.0815C74.9929 28.0815 81.48 34.482 81.48 42.3569C81.48 50.2318 75.0778 56.649 67.1641 56.649Z" fill="#3564DF"/>
</svg>
