<svg width="61" height="60" viewBox="0 0 61 60" fill="none" xmlns="http://www.w3.org/2000/svg">
<path d="M20.4323 45.3996C27.2034 45.3996 32.9535 45.3996 39.8346 45.3996C40.5286 45.3996 41.0901 44.8374 41.0901 44.1441C41.0901 43.4507 40.5286 42.8885 39.8346 42.8885H31.3608V35.3552C31.3608 34.6618 30.7992 34.0996 30.1052 34.0996C29.4113 34.0996 28.8497 34.6618 28.8497 35.3552V42.8885H20.4323C19.7383 42.8885 19.1768 43.4507 19.1768 44.1441C19.1768 44.8374 19.7383 45.3996 20.4323 45.3996Z" fill="#11296A"/>
<path d="M37.2977 7.61794C37.2977 2.98991 34.4776 0 30.1138 0C25.7488 0 22.9287 2.98992 22.9287 7.61794C22.9287 12.5844 26.1522 16.6251 30.1138 16.6251C34.0755 16.6251 37.2977 12.5844 37.2977 7.61794ZM25.4398 7.61794C25.4398 4.42018 27.1871 2.51111 30.1138 2.51111C33.0394 2.51111 34.7866 4.4202 34.7866 7.61794C34.7866 11.2001 32.6899 14.114 30.1138 14.114C27.5365 14.114 25.4398 11.2001 25.4398 7.61794Z" fill="#3564DF"/>
<path d="M45.7993 29.7006V25.6869C45.7993 23.9709 44.7804 22.423 43.1876 21.7369C34.4919 18.1468 25.6957 18.1407 17.0613 21.7443C15.4845 22.4242 14.4668 23.9716 14.4668 25.6869V29.7006C14.4668 31.1291 15.6292 32.2908 17.0576 32.2908H43.2085C44.6369 32.2908 45.7993 31.1291 45.7993 29.7006ZM16.9779 29.7006V25.6869C16.9779 24.9751 17.4009 24.3327 18.041 24.0562C22.0369 22.3886 26.0942 21.5432 30.0987 21.5432C34.1057 21.5432 38.1875 22.3892 42.2116 24.0506C42.8652 24.332 43.2882 24.9745 43.2882 25.6869V29.7006C43.2882 29.7442 43.2526 29.7797 43.2085 29.7797L16.9779 29.7006Z" fill="#3564DF"/>
<path d="M12.1697 34.9043C8.72922 34.9043 6.41797 37.348 6.41797 40.9853C6.41797 44.9193 8.99775 48.1195 12.1697 48.1195C15.3417 48.1195 17.9215 44.9193 17.9215 40.9853C17.9215 37.348 15.6103 34.9043 12.1697 34.9043ZM12.1697 45.6084C10.4127 45.6084 8.92908 43.4915 8.92908 40.9853C8.92908 38.7163 10.1098 37.4154 12.1697 37.4154C14.2296 37.4154 15.4104 38.7163 15.4104 40.9853C15.4104 43.4915 13.9268 45.6084 12.1697 45.6084Z" fill="#3564DF"/>
<path d="M2.26711 59.9991H22.101C23.3516 59.9991 24.3681 58.9821 24.3681 57.7314V54.6875C24.3681 53.2652 23.5245 51.9827 22.1966 51.4095C15.5706 48.7083 8.83304 48.6979 2.15063 51.4187C0.843583 51.9821 0 53.2652 0 54.6875V57.7314C0 58.9821 1.01646 59.9991 2.26711 59.9991ZM2.51111 54.6875C2.51111 54.2688 2.76001 53.8906 3.1205 53.7348C9.15305 51.2801 15.253 51.2906 21.2243 53.7244C21.6093 53.8906 21.857 54.2682 21.857 54.6875V57.488H2.51111V54.6875Z" fill="#3564DF"/>
<path d="M42.3145 40.9853C42.3145 44.9193 44.8942 48.1195 48.0662 48.1195C51.2382 48.1195 53.818 44.9193 53.818 40.9853C53.818 37.348 51.5067 34.9043 48.0662 34.9043C44.6257 34.9043 42.3145 37.348 42.3145 40.9853ZM48.0662 37.4154C50.1261 37.4154 51.3069 38.7163 51.3069 40.9853C51.3069 43.4915 49.8233 45.6084 48.0662 45.6084C46.3092 45.6084 44.8256 43.4915 44.8256 40.9853C44.8256 38.7163 46.0063 37.4154 48.0662 37.4154Z" fill="#3564DF"/>
<path d="M38.1655 60.001H57.9994C59.2501 60.001 60.2665 58.9839 60.2665 57.7333V54.6894C60.2665 53.2671 59.4229 51.9839 58.1159 51.4205C58.0705 51.4009 58.0227 51.3837 57.9737 51.369C51.3489 49.4176 44.6812 49.4189 38.1839 51.3715C38.1386 51.385 38.0932 51.4015 38.0491 51.4205C36.742 51.9839 35.8984 53.2671 35.8984 54.6894V57.7332C35.8984 58.9839 36.9149 60.001 38.1655 60.001ZM38.4095 54.6894C38.4095 54.2903 38.6352 53.928 38.9895 53.7514C44.9669 51.9711 51.073 51.9723 57.1779 53.7526C57.531 53.9298 57.7554 54.2909 57.7554 54.6894V57.4899H38.4095V54.6894Z" fill="#3564DF"/>
</svg>
