<svg width="71" height="60" viewBox="0 0 71 60" fill="none" xmlns="http://www.w3.org/2000/svg">
<path d="M36.424 13.1595C36.3135 13.014 36.1707 12.8961 36.0071 12.8149C35.8434 12.7337 35.6631 12.6914 35.4804 12.6914C35.2977 12.6914 35.1174 12.7337 34.9537 12.8149C34.79 12.8961 34.6473 13.014 34.5367 13.1595L19.1744 35.6406C19.0625 35.8101 18.9973 36.0062 18.9854 36.209C18.9735 36.4118 19.0152 36.6141 19.1065 36.7956L26.7612 51.3124H25.108C24.8036 51.3124 24.5118 51.4333 24.2966 51.6485C24.0814 51.8637 23.9605 52.1556 23.9605 52.4599V58.8539C23.9605 59.1583 24.0814 59.4501 24.2966 59.6653C24.5118 59.8805 24.8036 60.0014 25.108 60.0014H45.8528C46.1571 60.0014 46.449 59.8805 46.6642 59.6653C46.8794 59.4501 47.0002 59.1583 47.0002 58.8539V52.4599C47.0002 52.1556 46.8794 51.8637 46.6642 51.6485C46.449 51.4333 46.1571 51.3124 45.8528 51.3124H44.1995L51.8543 36.7956C51.9513 36.6104 51.9962 36.4023 51.9842 36.1936C51.9723 35.9849 51.9039 35.7833 51.7863 35.6104L36.424 13.1595ZM35.4804 32.787C36.4679 32.7855 37.4337 33.0771 38.2555 33.6248C39.0772 34.1726 39.718 34.9518 40.0966 35.8639C40.4752 36.776 40.5746 37.7799 40.3823 38.7486C40.19 39.7173 39.7146 40.6071 39.0163 41.3054C38.318 42.0037 37.4282 42.4791 36.4596 42.6714C35.4909 42.8637 34.487 42.7642 33.5749 42.3856C32.6628 42.007 31.8835 41.3663 31.3358 40.5445C30.7881 39.7228 30.4965 38.757 30.498 37.7694C30.5 36.4486 31.0256 35.1825 31.9595 34.2486C32.8935 33.3146 34.1596 32.789 35.4804 32.787ZM44.7129 53.5998V57.714H26.2479V53.5998H44.7129ZM41.6102 51.3351H29.3505L21.4542 36.3653L34.3329 17.4926V30.5978C32.5235 30.8828 30.8881 31.8397 29.7532 33.2775C28.6182 34.7153 28.0672 36.5282 28.2102 38.3544C28.3531 40.1805 29.1795 41.8856 30.5243 43.1293C31.8692 44.373 33.6335 45.0638 35.4653 45.0638C37.297 45.0638 39.0614 44.373 40.4062 43.1293C41.7511 41.8856 42.5774 40.1805 42.7204 38.3544C42.8633 36.5282 42.3123 34.7153 41.1774 33.2775C40.0425 31.8397 38.4071 30.8828 36.5976 30.5978V17.5077L49.4763 36.3804L41.6102 51.3351Z" fill="#3564DF"/>
<path d="M69.8137 32.7478H67.7377C67.3573 26.7319 65.2806 20.9468 61.7482 16.0623C58.2158 11.1779 53.3721 7.39388 47.778 5.14846H65.2843V2.82335H40.244V1.14746C40.244 0.844435 40.1242 0.553714 39.9106 0.33874C39.6971 0.123766 39.4071 0.00199356 39.1041 0H31.857C31.554 0.00199356 31.2641 0.123766 31.0505 0.33874C30.837 0.553714 30.7171 0.844435 30.7171 1.14746V2.82335H5.67689V5.08807H24.1041C18.5012 7.33788 13.6515 11.1311 10.1184 16.0272C6.58532 20.9233 4.51379 26.7214 4.14443 32.7478H1.12481C0.825729 32.7537 0.540776 32.8762 0.330668 33.0891C0.12056 33.302 0.00190987 33.5886 0 33.8877V39.6024C0.00199356 39.9054 0.123766 40.1953 0.33874 40.4089C0.553714 40.6224 0.844436 40.7423 1.14746 40.7423H8.387C8.68872 40.7403 8.97751 40.6196 9.19086 40.4062C9.4042 40.1929 9.52493 39.9041 9.52691 39.6024V33.8877C9.52493 33.586 9.4042 33.2972 9.19086 33.0839C8.97751 32.8705 8.68872 32.7498 8.387 32.7478H6.43935C6.8898 26.1687 9.52217 19.9278 13.9196 15.0135C18.3171 10.0992 24.2282 6.79231 30.7171 5.6165V6.85454C30.7171 7.15757 30.837 7.44829 31.0505 7.66326C31.2641 7.87824 31.554 8.00001 31.857 8.002H39.1041C39.4071 8.00001 39.6971 7.87824 39.9106 7.66326C40.1242 7.44829 40.244 7.15757 40.244 6.85454V5.46552C46.9252 6.4575 53.0663 9.70407 57.6484 14.6665C62.2305 19.629 64.9781 26.0089 65.4352 32.7478H62.5741C62.2724 32.7498 61.9836 32.8705 61.7703 33.0839C61.5569 33.2972 61.4362 33.586 61.4342 33.8877V39.6024C61.4362 39.9041 61.5569 40.1929 61.7703 40.4062C61.9836 40.6196 62.2724 40.7403 62.5741 40.7423H69.8137C70.1167 40.7423 70.4074 40.6224 70.6224 40.4089C70.8374 40.1953 70.9592 39.9054 70.9612 39.6024V33.8877C70.9592 33.5847 70.8374 33.2948 70.6224 33.0812C70.4074 32.8677 70.1167 32.7478 69.8137 32.7478ZM7.23955 35.0125V38.4549H2.26472V35.0352L7.23955 35.0125ZM37.9567 5.71464H33.0045V2.28736H37.9567V5.71464ZM68.6964 38.4549H63.7216V35.0352H68.6964V38.4549Z" fill="#11296A"/>
</svg>
