<svg width="159" height="159" viewBox="0 0 159 159" fill="none" xmlns="http://www.w3.org/2000/svg">
<path d="M78.2298 64.14C75.6998 65.25 73.0798 66.37 70.5098 67.4V40.43C70.5098 35.5 72.4998 31.06 75.7198 27.84C78.9398 24.62 83.3798 22.63 88.3098 22.63V59.91C87.9698 60.03 87.6298 60.17 87.2598 60.31C84.2398 61.52 81.1898 62.84 78.2298 64.13V64.14Z" fill="#3564DF"/>
<path d="M132.13 136.11H115.34C90.5795 136.11 70.5195 116.04 70.5195 91.29C70.7195 91.23 70.9195 91.15 71.1195 91.07C71.2795 91.05 71.4395 90.99 71.5995 90.93C71.6195 90.91 71.6595 90.91 71.6795 90.91C74.6195 89.72 77.6095 88.44 80.4895 87.17C83.4095 85.9 86.4395 84.6 89.3995 83.41C91.3895 82.61 93.2595 81.92 95.0295 81.34C94.6695 81.68 94.3095 82.02 93.9595 82.41C89.9395 86.8 87.7295 92.91 88.4395 99.39C89.6395 110.3 99.2995 118.33 110.28 118.33H114.33C119.26 118.33 123.7 120.32 126.92 123.54C130.14 126.76 132.13 131.2 132.13 136.13V136.11Z" fill="#3564DF"/>
<path d="M132.129 84.94V85.0199C128.829 82.1399 125.529 80.0699 122.239 78.6699C122.219 78.6699 122.219 78.65 122.219 78.65C121.229 78.23 120.249 77.89 119.259 77.58C118.759 77.42 118.269 77.28 117.769 77.16C117.269 77.04 116.779 76.92 116.279 76.82C115.539 76.68 114.789 76.5599 114.029 76.4599C112.159 76.2199 110.269 76.1399 108.399 76.2399H107.959C107.879 76.2399 107.819 76.26 107.739 76.26C107.579 76.26 107.399 76.28 107.239 76.3C107.059 76.3 106.879 76.3199 106.699 76.3399C100.569 76.8799 94.4491 78.83 88.3391 81.29C82.4291 83.64 76.5191 86.4199 70.6191 88.7699C70.5791 88.7899 70.5591 88.7899 70.5191 88.8099V88.7699C66.5191 90.3599 62.5391 91.75 58.5491 92.6699C56.5591 93.1299 54.5691 93.3499 52.6191 93.3499C39.3291 93.3499 27.8291 83.05 26.7191 69.4C26.6391 68.7 26.6191 67.97 26.6191 67.23C26.6591 67.25 26.6791 67.2899 26.7191 67.3099C31.9891 71.8699 37.2791 74.39 42.5691 75.43C43.3091 75.59 44.0591 75.69 44.8191 75.79C47.5291 76.15 50.2491 76.13 52.9591 75.83C58.8491 75.23 64.7191 73.3199 70.6191 70.9599C76.5091 68.6099 82.4191 65.8299 88.3391 63.4799C92.7991 61.6899 97.2491 60.1599 101.709 59.2599C101.749 59.2599 101.789 59.24 101.829 59.24C117.539 56.61 132.089 68.77 132.129 84.94Z" fill="#3564DF"/>
</svg>
